<?xml version="1.0" encoding="utf-8"?>
<!-- Generator: Adobe Illustrator 25.4.1, svg Export Plug-In . svg Version: 6.00 Build 0)  -->
<svg version="1.1" id="レイヤー_1" xmlns="http://www.w3.org/2000/svg" xmlns:xlink="http://www.w3.org/1999/xlink" x="0px"
	 y="0px" viewBox="0 0 507.5 110.3" style="enable-background:new 0 0 507.5 110.3;" xml:space="preserve">
<style type="text/css">
	.st0{fill:#047250;}
	.st1{enable-background:new    ;}
	.st2{fill:#FFFFFF;}
</style>
<rect y="0" class="st0" width="507.5" height="110.3"/>
<g class="st1">
	<path class="st2" d="M63.9,56.3c3.3,0.5,5.9,1.6,7.7,3.3c1.8,1.8,2.7,4.1,2.7,6.9c0,4.2-1.8,7.7-5.4,10.4C65.3,79.7,60.7,81,55,81
		c-1.5,0-3.6-0.1-6.2-0.3s-4.3-0.3-5.3-0.3c-1.1,0-2.2,0-3.5,0.1s-2.6,0.2-4,0.3l0.4-2.3h1.3c1.4,0,2.4-0.4,3-1.2
		c0.6-0.8,1.2-3.1,1.9-6.8l4.8-28.3c0.1-0.6,0.2-1.2,0.2-1.6c0-0.5,0.1-0.9,0.1-1.2c0-1-0.3-1.7-0.9-2.2c-0.6-0.4-1.5-0.6-2.8-0.6
		h-0.6l0.4-2.5c1.4,0.2,2.7,0.3,3.9,0.4c1.2,0.1,2.3,0.1,3.3,0.1c1.3,0,3.2-0.1,5.5-0.2c2.3-0.2,4-0.2,5.1-0.2c4,0,7.2,1,9.6,2.9
		s3.5,4.5,3.5,7.7c0,2.8-0.9,5.2-2.8,7.3C70,54,67.4,55.4,63.9,56.3z M47.8,76.9c1.3,0.3,2.5,0.6,3.7,0.8c1.2,0.2,2.3,0.2,3.5,0.2
		c4,0,7.1-0.9,9.3-2.8c2.2-1.9,3.3-4.5,3.3-7.9c0-3.1-1-5.4-3-6.8c-2-1.4-5.3-2.1-10-2.1c-0.1,0-0.3,0-0.5,0c-1.1,0-2.2,0.1-3.1,0.1
		c-0.6,3-1.1,6-1.6,9.1C48.8,70.5,48.3,73.7,47.8,76.9z M51.4,55.2h3.2c4.8,0,8.3-0.8,10.5-2.3c2.2-1.5,3.3-4,3.3-7.3
		c0-2.7-0.8-4.8-2.4-6.2s-3.9-2.1-6.9-2.1c-0.6,0-1.3,0-2.1,0.1c-0.8,0-1.7,0.1-2.6,0.2c-0.5,2.7-1.2,6.7-2.2,12
		C51.9,52.1,51.6,53.9,51.4,55.2z"/>
	<path class="st2" d="M76.2,78.6c0.3,0,0.6,0.1,0.8,0.1c0.2,0,0.3,0,0.4,0c2,0,4.5-2.4,7.3-7.3c0.8-1.4,1.5-2.6,2-3.4l7.6-12.2
		c1.9-3.1,3.9-6.5,6.1-10.3s4.4-7.8,6.8-12h5c0.1,1.4,0.2,3.1,0.5,5.1c0.3,2.1,0.8,5.4,1.6,10.2l2.5,14.7c0.2,0.9,0.4,2.1,0.6,3.7
		c0.9,5.5,1.6,8.7,1.9,9.6c0.3,0.7,0.6,1.1,1.1,1.4c0.5,0.2,1.4,0.3,2.8,0.3l-0.4,2.3c-1.7-0.1-3.2-0.2-4.5-0.3
		c-1.3-0.1-2.4-0.1-3.2-0.1c-1,0-2.2,0-3.6,0.1s-3,0.2-4.7,0.3l0.4-2.3h0.5c1.7,0,2.9-0.2,3.5-0.7s1-1.4,1-2.6c0-0.2,0-0.6-0.1-1.2
		c0-0.2,0-0.3,0-0.4l-1.5-11c-1.5,0-2.9,0-4.3-0.1c-1.4,0-2.7,0-4.1,0c-1.5,0-2.9,0-4.2,0c-1.3,0-2.7,0-4.2,0.1l-5.5,9.6
		c-0.6,1.1-1,2-1.2,2.6s-0.3,1.1-0.3,1.5c0,0.7,0.3,1.3,0.9,1.6c0.6,0.4,1.5,0.6,2.6,0.6h0.8l-0.4,2.3c-0.5,0-1.3-0.1-2.3-0.2
		c-2.5-0.2-4.2-0.2-5-0.2c-0.9,0-2,0-3.2,0.1s-2.7,0.2-4.3,0.3L76.2,78.6z M95.5,59.8h4.6c2.9,0,5,0,6.3,0s2.5,0,3.6-0.1L107.1,40
		L95.5,59.8z"/>
	<path class="st2" d="M170.9,36.4c-0.5,1.7-1,3.3-1.3,5c-0.4,1.6-0.6,3.3-0.8,4.9l-2.3-0.3c0-0.4,0.1-0.8,0.1-1.1c0-0.4,0-0.7,0-1.1
		c0-2.1-1-3.8-3-5s-4.7-1.8-8.2-1.8c-6,0-10.6,2.1-14,6.3s-5,10-5,17.5c0,5.4,1.3,9.7,4,12.9c2.6,3.2,6.2,4.8,10.7,4.8
		c3.3,0,6.1-0.8,8.3-2.4c2.3-1.6,3.9-3.9,4.9-6.9l2.2,0.5c-0.3,1.1-0.6,2.4-0.9,3.6s-0.5,2.8-0.8,4.6c-2.8,1.5-5.4,2.6-7.9,3.3
		c-2.5,0.7-4.8,1.1-6.9,1.1c-6.2,0-11.1-1.9-14.8-5.7c-3.7-3.8-5.6-8.8-5.6-15c0-3.7,0.7-7.3,2.2-10.9c1.4-3.6,3.4-6.7,6-9.4
		s5.7-4.8,9.1-6.3c3.5-1.5,7.2-2.2,11.1-2.2c2.1,0,4.2,0.3,6.4,0.9C166.4,34.3,168.6,35.2,170.9,36.4z"/>
	<path class="st2" d="M171.6,78.2c0.2,0,0.4,0,0.6,0.1c0.2,0,0.5,0,0.9,0c1.3,0,2.3-0.3,2.8-0.9c0.6-0.6,1.1-2.2,1.6-4.8l5.2-29.7
		c0.1-0.8,0.2-1.5,0.3-2.1s0.1-1,0.1-1.4c0-1.1-0.3-1.8-0.8-2.3s-1.5-0.6-2.8-0.6c-0.2,0-0.4,0-0.5,0s-0.2,0-0.3,0l0.3-2.4
		c2.4,0.1,4.2,0.2,5.4,0.3c1.2,0,2.2,0.1,2.9,0.1c1.2,0,2.4,0,3.6-0.1c1.3-0.1,2.5-0.1,3.8-0.3l-0.4,2.5h-0.8
		c-1.5,0-2.5,0.3-3.1,0.9s-1.2,2.2-1.6,4.9L186.4,57l18.5-15.8c1-0.8,1.7-1.5,2.1-1.9c0.4-0.5,0.6-0.8,0.6-1.1
		c0-0.5-0.2-0.9-0.5-1.1c-0.3-0.2-0.8-0.3-1.5-0.3h-1l0.4-2.5c1.7,0.1,3.2,0.2,4.3,0.3c1.1,0,2.1,0.1,3,0.1c1.1,0,2.3,0,3.5-0.1
		s2.4-0.1,3.6-0.3l-0.3,2.5c-0.2,0-0.6,0.1-1.1,0.1c-1.7,0-3.8,1-6.3,3.1c-0.5,0.5-0.9,0.8-1.2,1.1l-17.6,14.3l14.3,18.7l0.1,0.2
		c2.3,3,4.5,4.5,6.8,4.5c0.3,0,0.6,0,0.8,0s0.3,0,0.4,0l-0.5,2.3c-1.9-0.1-3.2-0.2-4-0.3c-0.8,0-1.4-0.1-1.9-0.1
		c-0.8,0-1.7,0-2.7,0.1c-0.9,0.1-1.9,0.1-2.8,0.3c0-0.9-1.6-3.5-4.6-7.7s-7.2-9.5-12.4-15.7l-2.6,15.2v0.2c-0.2,1.5-0.3,2.4-0.3,2.8
		c0,1.1,0.3,1.9,0.8,2.3c0.6,0.4,1.6,0.6,3.1,0.6h0.5l-0.4,2.3c-2-0.1-3.7-0.2-5-0.3s-2.3-0.1-3-0.1c-1.1,0-2.4,0-3.7,0.1
		s-2.9,0.2-4.5,0.3L171.6,78.2z"/>
	<path class="st2" d="M241.8,78.5c0.2,0,0.3,0,0.5,0s0.5,0,0.9,0c1.6,0,2.7-0.4,3.4-1.1s1.2-2.3,1.6-4.8l5.7-34.6H247
		c-2.3,0-4,0.5-5,1.4s-1.8,2.7-2.4,5.3l-2.5-0.3c0.5-1.7,0.9-3.4,1.2-5.1c0.3-1.7,0.5-3.4,0.7-5.1c0.9,0.2,1.9,0.3,2.8,0.4
		c0.9,0.1,1.9,0.1,2.8,0.1c0.4,0,0.7,0,1.1,0c0.4,0,0.9-0.1,1.6-0.1h20.1h2.4c1.1,0,2.1,0,3-0.1s1.8-0.2,2.7-0.3
		c-0.3,2-0.6,3.9-0.8,5.5s-0.3,3.2-0.4,4.7l-2.6,0.1c0-0.4,0-0.7,0-1s0-0.7,0-1c0-1.5-0.4-2.6-1.2-3.3s-2.2-1.1-4.1-1.1h-6.7
		l-5.5,33.6c-0.1,0.7-0.2,1.3-0.3,1.9s-0.1,1.1-0.1,1.5c0,1.3,0.3,2.1,0.8,2.7s1.5,0.8,2.8,0.8c0.4,0,0.7,0,0.9,0c0.2,0,0.4,0,0.6,0
		l-0.3,2.3c-1.6-0.1-3.2-0.2-4.7-0.3s-2.9-0.1-4.2-0.1c-0.9,0-2,0-3.3,0.1c-1.3,0-3.1,0.1-5.4,0.3L241.8,78.5z"/>
	<path class="st2" d="M304.3,32.9c5.4,0,9.8,1.7,12.9,5s4.8,7.9,4.8,13.6c0,3.6-0.6,7.2-1.8,10.9c-1.2,3.6-2.9,6.8-5.1,9.6
		c-2.6,3.3-5.6,5.8-9.2,7.5s-7.4,2.6-11.4,2.6c-5.5,0-9.8-1.7-13-5s-4.8-7.9-4.8-13.6c0-3.7,0.6-7.3,1.8-11c1.2-3.6,2.9-6.8,5.1-9.6
		c2.5-3.2,5.5-5.7,9.1-7.4S300.3,32.9,304.3,32.9z M302,36.6c-5.6,0-10,2.4-13.4,7.1s-5,11-5,18.8c0,5.1,1.1,9,3.4,11.8
		c2.3,2.7,5.5,4.1,9.8,4.1c5.6,0,10-2.3,13.4-7c3.3-4.7,5-10.8,5-18.5c0-5.3-1.1-9.3-3.4-12S306.3,36.6,302,36.6z"/>
	<path class="st2" d="M348.2,78.5c0.2,0,0.3,0,0.5,0s0.5,0,0.9,0c1.6,0,2.7-0.4,3.4-1.1c0.7-0.7,1.2-2.3,1.6-4.8l5.7-34.6h-6.9
		c-2.3,0-4,0.5-5,1.4s-1.8,2.7-2.4,5.3l-2.5-0.3c0.5-1.7,0.9-3.4,1.2-5.1c0.3-1.7,0.5-3.4,0.7-5.1c0.9,0.2,1.9,0.3,2.8,0.4
		c0.9,0.1,1.9,0.1,2.8,0.1c0.4,0,0.7,0,1.1,0s0.9-0.1,1.6-0.1H374h2.4c1.1,0,2.1,0,3-0.1s1.8-0.2,2.7-0.3c-0.3,2-0.6,3.9-0.8,5.5
		s-0.3,3.2-0.4,4.7l-2.6,0.1c0-0.4,0-0.7,0-1s0-0.7,0-1c0-1.5-0.4-2.6-1.2-3.3s-2.2-1.1-4.1-1.1h-6.7l-5.5,33.6
		c-0.1,0.7-0.2,1.3-0.3,1.9c-0.1,0.6-0.1,1.1-0.1,1.5c0,1.3,0.3,2.1,0.8,2.7s1.5,0.8,2.8,0.8c0.4,0,0.7,0,0.9,0c0.2,0,0.4,0,0.6,0
		l-0.3,2.3c-1.6-0.1-3.2-0.2-4.7-0.3c-1.5-0.1-2.9-0.1-4.2-0.1c-0.9,0-2,0-3.3,0.1c-1.3,0-3.1,0.1-5.4,0.3L348.2,78.5z"/>
	<path class="st2" d="M410.6,32.9c5.4,0,9.8,1.7,12.9,5s4.8,7.9,4.8,13.6c0,3.6-0.6,7.2-1.8,10.9c-1.2,3.6-2.9,6.8-5.1,9.6
		c-2.6,3.3-5.6,5.8-9.2,7.5s-7.4,2.6-11.4,2.6c-5.5,0-9.8-1.7-13-5s-4.8-7.9-4.8-13.6c0-3.7,0.6-7.3,1.8-11c1.2-3.6,2.9-6.8,5.1-9.6
		c2.5-3.2,5.5-5.7,9.1-7.4S406.6,32.9,410.6,32.9z M408.3,36.6c-5.6,0-10,2.4-13.4,7.1s-5,11-5,18.8c0,5.1,1.1,9,3.4,11.8
		c2.3,2.7,5.5,4.1,9.8,4.1c5.6,0,10-2.3,13.4-7c3.3-4.7,5-10.8,5-18.5c0-5.3-1.1-9.3-3.4-12S412.6,36.6,408.3,36.6z"/>
	<path class="st2" d="M444.7,61.8l-1.9,10.6c0,0.1,0,0.3-0.1,0.5c-0.1,0.9-0.2,1.6-0.2,2c0,1.3,0.3,2.3,1,2.8s1.8,0.8,3.5,0.8
		c0.1,0,0.2,0,0.4,0c0.2,0,0.3,0,0.4,0s0.2,0,0.3,0s0.1,0,0.2,0.1l-0.3,2.3c-2-0.1-3.8-0.2-5.3-0.3s-2.8-0.1-3.8-0.1
		c-0.8,0-1.9,0-3.4,0.1c-1.4,0.1-3.1,0.2-5.1,0.3l0.4-2.3h0.9c1.5,0,2.6-0.3,3.2-0.8s1.1-2,1.5-4.4l5.7-31.6
		c0.1-0.5,0.2-1.1,0.3-1.5s0.1-0.8,0.1-0.9c0-1-0.3-1.8-1-2.2s-1.9-0.6-3.5-0.6l0.4-2.3c1.7,0.1,3.2,0.2,4.4,0.3
		c1.2,0.1,2.3,0.1,3.2,0.1c1.3,0,3.1-0.1,5.5-0.2c2.4-0.1,4.2-0.2,5.4-0.2c4.3,0,7.7,1.1,10.3,3.3c2.6,2.2,3.8,5.1,3.8,8.8
		c0,4.6-1.9,8.4-5.8,11.4s-8.9,4.4-15.2,4.4c-1,0-1.9,0-2.7-0.1C446.3,61.9,445.5,61.9,444.7,61.8z M445.2,58.9c0.2,0,0.5,0,1,0.1
		c1.9,0.1,3.2,0.2,4,0.2c4.3,0,7.7-1.1,10.2-3.3s3.7-5.2,3.7-9c0-3-1-5.3-2.9-7s-4.6-2.5-7.9-2.5c-0.4,0-1,0-1.7,0.1
		c-0.7,0-1.7,0.1-2.8,0.2c-0.8,4.3-1.8,10-3,17.3C445.6,56.7,445.4,58.1,445.2,58.9z"/>
</g>
</svg>
