<svg xmlns="http://www.w3.org/2000/svg" viewBox="0 0 373.69 677.25"><defs><style>.cls-1{fill:#211815;}.cls-2{fill:#727171;}.cls-3{fill:#ebf5f7;}.cls-4{fill:#c4305a;}.cls-5{fill:#f9ede8;}.cls-6{fill:#2a1006;}.cls-7{fill:#275a41;}.cls-8{fill:none;stroke:#211815;stroke-miterlimit:10;stroke-width:5.02px;}</style></defs><g id="レイヤー_2" data-name="レイヤー 2"><g id="レイヤー_1-2" data-name="レイヤー 1"><path class="cls-1" d="M.57,29.52a141.4,141.4,0,0,0,15-20.83,2.18,2.18,0,0,1,3-.82,2.21,2.21,0,0,1,.82,3A139.46,139.46,0,0,1,3.79,32.39a2.12,2.12,0,0,1-3,.16A2.09,2.09,0,0,1,.57,29.52Zm12.06-2.46A2.39,2.39,0,0,1,15,29.44V60.35a2.4,2.4,0,0,1-4.79,0V29.44A2.38,2.38,0,0,1,12.63,27.06ZM69.29,72.41C68.13,72.24,44,69.29,27.17,57a57,57,0,0,1-5.45,7.79,2.23,2.23,0,0,1-3.06.25,2.27,2.27,0,0,1-.83-1.64,1.93,1.93,0,0,1,.58-1.4A74.41,74.41,0,0,0,23.7,54.2a41.07,41.07,0,0,1-5-5,2.17,2.17,0,0,1,.25-3,2.24,2.24,0,0,1,3.14.24,31.4,31.4,0,0,0,3.63,3.86,46.16,46.16,0,0,0,3.47-8.94H23a2.37,2.37,0,0,1-2.81.24,2.39,2.39,0,0,1-.91-1.8,2.26,2.26,0,0,1,.41-1.23c0-.08,4.05-5.91,7.44-12.46H21.88a2.15,2.15,0,0,1-2.23-2.14,2.21,2.21,0,0,1,2.23-2.21h8.76a2.15,2.15,0,0,1,1.81,1.06,2,2,0,0,1,.17,2.06A100.17,100.17,0,0,1,25.93,37H32a2.25,2.25,0,0,1,1.73.74,2,2,0,0,1,.42,1.8,50.85,50.85,0,0,1-4.88,13.62C45.34,65,69.54,68.06,69.87,68.06a2.21,2.21,0,0,1,1.9,2.46A2.3,2.3,0,0,1,69.29,72.41ZM71,22.14H67.39v7.3A2.39,2.39,0,0,1,65,31.82a2.47,2.47,0,0,1-2-1H55.5v5.41H64a2.18,2.18,0,1,1,0,4.35H55.5v5.49H66.9a2.22,2.22,0,0,1,2.23,2.22,2.2,2.2,0,0,1-2.23,2.13H55.5v9.35a2.4,2.4,0,0,1-4.79,0V50.43H39.31a2.19,2.19,0,0,1-2.23-2.13,2.22,2.22,0,0,1,2.23-2.22h11.4V40.59H42.2a2.18,2.18,0,1,1,0-4.35h8.51V30.83H42.2a2.17,2.17,0,1,1,0-4.34h8.51V22.14H36.09a2.18,2.18,0,0,1,0-4.35H50.71V13.45H42.2a2.18,2.18,0,1,1,0-4.35h8.51V3.36a2.4,2.4,0,0,1,4.79,0V9.1H64a1.83,1.83,0,0,1,1-.24,2.45,2.45,0,0,1,2.39,2.46v6.47H71a2.18,2.18,0,1,1,0,4.35Zm-8.51-8.69h-7v4.34h7Zm0,8.69h-7v4.35h7Z"/><path class="cls-1" d="M82.42,57.15c.08-.16,9.75-14.76,12.72-39.36a2.25,2.25,0,0,1,2.4-2,2.15,2.15,0,0,1,1.9,2.46C96.38,44,86.47,59,86.06,59.53a2.1,2.1,0,0,1-3,.66A2.16,2.16,0,0,1,82.42,57.15Zm8.84-44.77a2.21,2.21,0,0,1,2.23-2.21H118V2.38a2.4,2.4,0,0,1,4.79,0v7.79h21.64a2.38,2.38,0,0,1,2-1.23,2.14,2.14,0,0,1,2.15,2.21v1.23a2.08,2.08,0,0,1-2.15,2.13H93.49A2.14,2.14,0,0,1,91.26,12.38ZM104.81,64.7a2.16,2.16,0,0,1,.9-3c2.15-1.07,8.26-4.6,8.26-4.6a2.1,2.1,0,0,1,3,.74,2,2,0,0,1-.75,3c-.24.17-6.27,3.69-8.5,4.76A2.09,2.09,0,0,1,104.81,64.7Zm18.91,2.46V44.85h-8.51A2.21,2.21,0,0,1,113,42.64a2.14,2.14,0,0,1,2.23-2.13h8.51V36.16H107.86a2.17,2.17,0,0,1,0-4.34h15.86V27.47h-8.51a2.18,2.18,0,1,1,0-4.35h8.51V19a2.4,2.4,0,0,1,4.79,0v4.1h8.43a2.25,2.25,0,0,1,1-.24,2.38,2.38,0,0,1,2.39,2.38v6.56h5.37a2.17,2.17,0,1,1,0,4.34h-5.37v7.3a2.39,2.39,0,0,1-2.39,2.38,2.6,2.6,0,0,1-2-1h-7.43V70.19a2.39,2.39,0,0,1-2.39,2.38,2.32,2.32,0,0,1-2.32-1.8h-6.52a1.81,1.81,0,1,1,0-3.61Zm-13.3-20.5a46.42,46.42,0,0,1,5.7,4.18,2,2,0,0,1,.25,3,2.13,2.13,0,0,1-3.06.25,56.31,56.31,0,0,0-5.2-3.77,2.13,2.13,0,0,1-.66-3A2.09,2.09,0,0,1,110.42,46.66Zm18.09-14.84h7V27.47h-7Zm0,8.69h7V36.16h-7Zm3.8,15.82a2.11,2.11,0,0,1,.41-3,2.15,2.15,0,0,1,3.06.41c4.46,5.74,14.95,12.46,15.11,12.46a2.23,2.23,0,0,1,.67,3,2.25,2.25,0,0,1-3.06.65C148.09,69.62,137.18,62.73,132.31,56.33Zm15-10.66a2.13,2.13,0,0,1,.5,3,40.41,40.41,0,0,1-6.2,6.15,2.24,2.24,0,0,1-3.14-.25,2.28,2.28,0,0,1,.34-3.11,33.06,33.06,0,0,0,5.45-5.33A2.15,2.15,0,0,1,147.34,45.67Z"/><path class="cls-1" d="M171.79,23.86a2.25,2.25,0,0,1,3-.82A12,12,0,0,0,180,24.52c2.56-.17,5.7-.33,9-.66,0-2.21-.17-4.43-.33-6.4a45.8,45.8,0,0,0-1.57-6.06,2,2,0,0,1,1.32-2.71A2.18,2.18,0,0,1,191.2,10a35.08,35.08,0,0,1,1.73,7.05c.25,2,.34,4.19.42,6.48l9-.74c2.07-.16,4.13-.32,6.11-.49a72.81,72.81,0,0,0,.42-8A12.56,12.56,0,0,0,207.14,9a2.16,2.16,0,0,1,.74-3,2.25,2.25,0,0,1,3,.73c.25.41,2.39,4.1,2.39,7.55,0,2.21-.08,4.84-.33,7.62,7.19-.57,13.14-1,15.78-.82a2.32,2.32,0,0,1,2.06,2.3,2.22,2.22,0,0,1-2.39,2.05c-2.4-.16-8.67.33-15.94.9C210.61,40.18,205.9,57.56,197,66.67a2.16,2.16,0,0,1-3.14-3c8.1-8.28,12.39-24,14.13-37.06l-5.21.49-9.33.74c.08,6.56-.16,12.46-.16,12.79a2.16,2.16,0,0,1-2.32,2,2.12,2.12,0,0,1-2.06-2.21c0-.08.25-5.82.16-12.3-3.3.33-6.36.49-8.84.65a15.47,15.47,0,0,1-7.59-2.05A2.13,2.13,0,0,1,171.79,23.86Z"/><path class="cls-1" d="M309.72,22.14c-6.85,10.25-34.77,34.19-44,38.79-4.62,2.29-9.33-4.84-10.65-7.06a2.25,2.25,0,0,1,.82-3,2.22,2.22,0,0,1,3,.82c1.56,2.71,4,5.33,4.95,5.41,8.76-4.43,35.85-27.8,42.29-37.39a2.24,2.24,0,0,1,3.06-.57A2.2,2.2,0,0,1,309.72,22.14ZM259.09,15c6.2,2,12.56,7.37,12.89,7.62a2.19,2.19,0,0,1,.25,3,2.25,2.25,0,0,1-3.14.32c0-.08-6-5.08-11.4-6.88a2.14,2.14,0,0,1-1.4-2.71A2.21,2.21,0,0,1,259.09,15Z"/><path class="cls-1" d="M346.07,14.51c.49-1.39-.58-3.93-1.24-4.92a2.25,2.25,0,0,1,.82-3,2.22,2.22,0,0,1,3,.82c.24.49,2.8,4.84,1.65,8.53-4,12.46-14.29,21.73-14.7,22.14a2.13,2.13,0,0,1-3.06-.17,2.16,2.16,0,0,1,.08-3C332.77,34.77,342.43,25.91,346.07,14.51ZM357.22,36.9A123.28,123.28,0,0,0,368,18.2c-3.55.33-9.08.66-13.62.66a2.14,2.14,0,0,1-2.23-2.13,2.22,2.22,0,0,1,2.23-2.22c7,0,16.84-1,16.93-1a2.12,2.12,0,0,1,2,.9,2,2,0,0,1,.25,2.13,130.21,130.21,0,0,1-12.56,22.8c1.74,1.31,3,2.21,3.14,2.3a2.1,2.1,0,0,1,.41,3,2.14,2.14,0,0,1-3.05.41l-3.06-2.22c-11.23,15-22,22.15-22.55,22.56a2.22,2.22,0,0,1-3.05-.58,2.31,2.31,0,0,1,.58-3c.16-.08,10.49-7,21.31-21.4a68.84,68.84,0,0,0-8.84-5.17,2.19,2.19,0,0,1-1.08-2.87,2.15,2.15,0,0,1,2.89-1.07A68.51,68.51,0,0,1,357.22,36.9Z"/><path class="cls-1" d="M141.85,541.38c0,1.35.06,3.84.06,4,0,.63-.18.75-.88.75h-1.75c-.69,0-.87-.12-.87-.75,0-.21.06-2.7.06-4V528.84c0-1.35-.06-3.84-.06-4.05,0-.63.18-.75.87-.75H141c.7,0,.88.12.88.75,0,.21-.06,2.7-.06,4.05v2.58c0,.42.06.63.24.63a1.22,1.22,0,0,0,.49-.24,6.8,6.8,0,0,1,3.92-1.2c3.11,0,5.2,2,5.2,5.37v5.4c0,1.35.06,3.84.06,4,0,.63-.18.75-.88.75h-1.75c-.69,0-.88-.12-.88-.75,0-.21.07-2.7.07-4v-4.47a2.74,2.74,0,0,0-3-3.06,4.76,4.76,0,0,0-2.84,1,1.44,1.44,0,0,0-.66,1.35Z"/><path class="cls-1" d="M168.11,544.05a1.35,1.35,0,0,1,.18.57c0,.27-.18.42-.61.63a11.31,11.31,0,0,1-5,1.11c-5.38,0-7.61-3.51-7.61-7.56,0-4.65,3-8.19,7.64-8.19,3.87,0,6.1,2.64,6.1,7.26,0,1.53-.24,1.77-1,1.77h-8.55c-.55,0-.76.09-.76.45a3.89,3.89,0,0,0,.63,1.68c.7,1.08,1.91,1.71,3.87,1.71a7.34,7.34,0,0,0,3.39-.81,1.6,1.6,0,0,1,.6-.24c.24,0,.36.21.57.63Zm-2.51-7.59a3.42,3.42,0,0,0-.42-1.41,2.66,2.66,0,0,0-2.54-1.44,3.84,3.84,0,0,0-3.32,1.68,2.77,2.77,0,0,0-.55,1.23c0,.24.21.33.7.33h5.34C165.36,536.85,165.57,536.76,165.6,536.46Z"/><path class="cls-1" d="M181.77,546.18c-.7,0-.85-.06-.88-.87,0-.33-.06-.51-.24-.51a.86.86,0,0,0-.42.21,8.39,8.39,0,0,1-4.45,1.35c-2.59,0-4.53-1.35-4.53-4.08,0-3.84,4.56-5.52,8.61-5.91.52,0,.73-.15.76-.48a2.47,2.47,0,0,0-2.81-2.28,8.1,8.1,0,0,0-4,1.23,1.22,1.22,0,0,1-.6.27c-.22,0-.34-.18-.52-.6l-.57-1.32a1.23,1.23,0,0,1-.15-.57c0-.27.18-.45.6-.66a13.51,13.51,0,0,1,5.65-1.35c3.87,0,5.77,1.77,5.77,6l-.09,4.56c0,1.71.06,3.87.06,4.38s-.18.63-.84.63Zm-1.64-7a1.59,1.59,0,0,0-.36,0c-2.78.39-5.16,1.38-5.16,2.88,0,1,.81,1.53,2.08,1.53a6.32,6.32,0,0,0,3.2-1,1.22,1.22,0,0,0,.76-1.32v-1.32C180.65,539.34,180.56,539.13,180.13,539.13Z"/><path class="cls-1" d="M193.61,546.24c-.3,0-.6,0-.9,0-3.51,0-4.69-1.41-4.69-4.95V528.84c0-1.23-.06-3.84-.06-4.05,0-.63.18-.75.88-.75h1.75c.7,0,.88.12.88.75,0,.21-.06,2.7-.06,4.05V541c0,1.53.33,2.25,1.87,2.28.24,0,.6-.06.76-.06s.42.15.42.57v1.53C194.46,546,194.31,546.18,193.61,546.24Z"/><path class="cls-1" d="M206.09,545.13c0,.75-.15.93-.87,1a15.08,15.08,0,0,1-1.67.12c-3.68,0-5-1.8-5-4.83v-6.9c0-.6-.09-.75-.6-.75s-.88,0-1,0c-.79,0-.91-.12-.91-.9v-1.23c0-.78.12-.9.91-.9l1.06,0c.51,0,.57-.09.57-.72,0-.93-.06-2.64-.06-2.85,0-.63.18-.75.87-.75h1.67c.69,0,.87.12.87.75,0,.21-.06,1.8-.06,2.85,0,.63.09.72.7.72h.81l1.79,0c.78,0,.9.12.9.87V533c0,.75-.12.87-.9.87l-1.79,0h-.6c-.76,0-.91.15-.91.9V541c0,1.71.73,2.28,2.3,2.28.57,0,1.27-.18,1.48-.18.36,0,.42.21.42.78Z"/><path class="cls-1" d="M213.22,541.38c0,1.35.06,3.84.06,4,0,.63-.18.75-.87.75h-1.75c-.7,0-.88-.12-.88-.75,0-.21.06-2.7.06-4V528.84c0-1.35-.06-3.84-.06-4.05,0-.63.18-.75.88-.75h1.75c.69,0,.87.12.87.75,0,.21-.06,2.7-.06,4.05v2.58c0,.42.06.63.25.63a1.14,1.14,0,0,0,.48-.24,6.85,6.85,0,0,1,3.93-1.2c3.11,0,5.19,2,5.19,5.37v5.4c0,1.35.06,3.84.06,4,0,.63-.18.75-.87.75H220.5c-.69,0-.87-.12-.87-.75,0-.21.06-2.7.06-4v-4.47a2.74,2.74,0,0,0-3-3.06,4.74,4.74,0,0,0-2.84,1,1.43,1.43,0,0,0-.67,1.35Z"/><path class="cls-1" d="M234.56,547.47c-.46,1.11-.91,2.25-1.45,3.66-.28.72-.43.84-1.21.84H230c-.49,0-.67-.06-.67-.3a1.12,1.12,0,0,1,.15-.51c.7-1.5,1.21-2.67,1.6-3.57l.37-.87a1.59,1.59,0,0,0,0-1.68l-4-9.42c-.58-1.32-1.06-2.49-1.75-4a1.37,1.37,0,0,1-.16-.51c0-.24.22-.3.7-.3h2.08c.79,0,.94.12,1.21.84.55,1.5,1,2.73,1.48,4l2.18,5.55c.12.3.21.48.33.48s.21-.15.33-.48l2.18-5.52c.48-1.23.93-2.46,1.48-4,.27-.72.42-.84,1.21-.84h1.9c.48,0,.69.06.69.3a1.52,1.52,0,0,1-.15.51c-.72,1.59-1.24,2.82-1.72,4Z"/><path class="cls-1" d="M248.76,544.08a2.2,2.2,0,0,1-2.3,2.28,1.92,1.92,0,0,1-2.05-2,2.21,2.21,0,0,1,2.26-2.37A2,2,0,0,1,248.76,544.08Zm-2.66-4.29c-.75,0-.91-.15-.94-.9l-.21-7.41c-.06-2-.21-5.31-.21-5.91s.18-.63.85-.63h2c.67,0,.85.12.85.63s-.15,3.93-.21,6.12l-.19,7.2c0,.75-.18.9-.93.9Z"/><path class="cls-1" d="M29.8,569.08c.51,0,1.24-.06,1.51-.06.6,0,1.06.57,1.45,1s1,1,1,1.38-.24.57-.46,1.74c-1,5.64-3.23,9.6-8,12.9a28.32,28.32,0,0,1-5.8,3.09,3.75,3.75,0,0,1-1,.24c-.72,0-1.78-2-1.78-2.49s.27-.42.54-.48a21.63,21.63,0,0,0,7.53-4,14.1,14.1,0,0,0,4.92-8.73,7.25,7.25,0,0,0,.09-.75c0-.57-.51-.63-1.06-.63H18c-1.27,0-2.51.06-3.78.06-.91,0-.91-.27-.91-1.62s0-1.71.85-1.71c1.3,0,2.6.06,3.9.06Zm8.7-2.19a3,3,0,1,1-3-3A3,3,0,0,1,38.5,566.89Zm-4.62,0a1.62,1.62,0,0,0,3.23,0,1.62,1.62,0,1,0-3.23,0Z"/><path class="cls-1" d="M49.69,582.91c0,.75.06,1.23.6,1.23a13.34,13.34,0,0,0,2.48-1,41.86,41.86,0,0,0,11.6-7.89c.18-.18.45-.48.72-.48.49,0,1.51,2,1.51,2.58a.87.87,0,0,1-.33.54c-.66.66-1.39,1.26-2.11,1.86a54.13,54.13,0,0,1-13.3,7.8,11.18,11.18,0,0,0-1,.48,1.89,1.89,0,0,1-.76.3,10.87,10.87,0,0,1-2.39-1.11c-.36-.27-.39-.54-.39-1,0-1,.06-2.13.06-3.24V570.76c0-.66,0-1.32,0-1.83,0-.21-.09-.84-.09-1a.32.32,0,0,1,.33-.36c.12,0,.46.06.64.09.48.06,2,.3,2.44.42.28.06.64.09.64.39s-.15.27-.27.39a1.15,1.15,0,0,0-.27.93c0,.45,0,.93,0,1.41Z"/><path class="cls-1" d="M82.83,582.22c0,3.12-.3,3.54,2.93,3.54,2.24,0,5.32-.36,7.56-.51l.42,0c.57,0,.57.84.57,1.47s0,1.5-.51,1.8a3.11,3.11,0,0,1-1.06.18c-.75,0-4.53.21-5.1.21h-.88a29.49,29.49,0,0,1-4.53-.24,3.3,3.3,0,0,1-1.87-.9c-.91-.93-.85-2.94-.85-4.14,0-.42,0-.81,0-1.23v-3.6a.65.65,0,0,0-.82-.63l-1.54.3c-.54.12-3.92.81-4.17.81s-.45-.21-.57-.69a11.13,11.13,0,0,1-.36-1.95c0-.51.45-.6,2-.84.67-.12,1.48-.24,2.57-.45l2.18-.42a.87.87,0,0,0,.72-.87v-2.7c0-1,0-2,0-3,0-.42-.12-1.44-.12-1.53s.09-.33.3-.33,1.9.24,2.39.27c.3,0,1.3.09,1.3.45a1.91,1.91,0,0,1-.27.63,1.2,1.2,0,0,0-.25.87c0,.84,0,1.71,0,2.55v2.07a.65.65,0,0,0,.79.63l6.5-1.26c.39-.09,3.41-.72,3.47-.72.57,0,2.24,1.56,2.24,2.13,0,.21-.19.42-.31.6-.48.51-.93,1-1.39,1.62-1.36,1.65-2.78,3.3-4.23,4.92-.27.33-.66.81-1.15.81s-2.32-1.11-2.32-1.77c0-.21.33-.45.54-.66.49-.45,3.39-3.15,3.39-3.57a.21.21,0,0,0-.21-.21c-.19,0-.88.15-1.06.18l-5.47,1.11a.92.92,0,0,0-.79.93Zm10.91-13c0,.45-1.09,1.32-1.48,1.32-.15,0-.3-.18-.36-.27a28.44,28.44,0,0,0-2.15-2.49c-.09-.12-.24-.24-.24-.42s1.15-1.2,1.48-1.2A11.7,11.7,0,0,1,93.74,569.26Zm3.14-2c0,.45-1.09,1.35-1.51,1.35-.12,0-.27-.18-.51-.48a28.22,28.22,0,0,0-2-2.28c-.12-.12-.27-.24-.27-.39,0-.36,1.15-1.23,1.51-1.23A11.92,11.92,0,0,1,96.88,567.28Z"/><path class="cls-1" d="M127.07,574.75c0,.51-1.21,1.68-1.6,2.07a52.52,52.52,0,0,1-16.41,11.31c-1,.48-1,.51-1.27,1a.3.3,0,0,1-.3.18c-.33,0-1-1.2-1.18-1.56a8.41,8.41,0,0,1-.9-1.8c0-.33.54-.39.93-.51,6.68-2,14.23-7.62,18.52-13.05a.78.78,0,0,1,.52-.33C126,572.08,127.07,574.3,127.07,574.75Zm-15.59-5c.39.27,1.84,1.26,1.84,1.71,0,.69-1.42,2.31-2,2.31a3.23,3.23,0,0,1-1.21-.81,36.89,36.89,0,0,0-4-2.79c-.24-.15-.48-.3-.48-.57,0-.45,1.21-2.37,1.9-2.37C108,567.28,110.91,569.38,111.48,569.8Z"/><path class="cls-1" d="M145.93,574c.6,0,3.62,2.37,4.23,2.88.42.36,2.11,1.65,2.11,2.16s-1.42,2.07-2,2.07a1.11,1.11,0,0,1-.67-.39,43.71,43.71,0,0,0-4.38-3.51.53.53,0,0,0-.3-.12c-.27,0-.36.24-.36.48v8.19c0,1.2.06,2.37.06,3.57,0,1.38,0,1.56-1.87,1.56-1.21,0-1.73,0-1.73-1,0-1.35.09-2.7.09-4v-17.1c0-.78-.06-1.59-.09-2.34,0-.15,0-.42,0-.54,0-.3.09-.45.4-.45s.81.09,1,.12c1.36.18,2.6.3,2.6.72a.88.88,0,0,1-.15.39,2.41,2.41,0,0,0-.33,1.59c0,.45,0,1,0,1.77v4.5c0,.24.15.3.24.3a.33.33,0,0,0,.27-.12C145.26,574.42,145.6,574,145.93,574Z"/><path class="cls-1" d="M165.12,570.4v-1.5c0-.57-.24-.78-.82-.81l-2.44.06c-.73,0-.73-.27-.73-1.41s0-1.35.7-1.35c1.14,0,2.29.06,3.44.06H171c1.12,0,2.27-.06,3.41-.06.73,0,.7.3.7,1.38s0,1.38-.7,1.38-1.78-.09-2.66-.06c-.57,0-.78.27-.78.81v1.5c0,.54.21.81.78.84s.91-.06,1.39-.06c1,0,1.18.48,1.18,1.5,0,.84,0,1.71,0,2.58V587c0,1,.06,2.1.06,3.12,0,.75-.27.78-1.21.78s-1.23,0-1.23-.72v-.24c0-.48-.22-.66-.7-.66h-6.1c-.55,0-.82.21-.82.78v.51c0,.75-.27.78-1.24.78s-1.2,0-1.2-.75c0-1.14,0-2.28,0-3.42V575.26c0-.84,0-1.68,0-2.49,0-1.17.21-1.59,1.2-1.59.43,0,.82,0,1.24,0C164.91,571.21,165.12,571,165.12,570.4Zm2.9,3.3c-.45,0-.67.15-.73.63a16.86,16.86,0,0,1-.78,5.58c-.12.39-.46,1.41-.91,1.41-.3,0-1.18-.54-1.18-1a1.09,1.09,0,0,1,.21-.51,11.79,11.79,0,0,0,1.09-5.58c0-.39-.18-.54-.54-.54h-.36c-.4,0-.58.15-.58.54v7.32c0,.57.24.78.85.84h6c.6-.06.85-.27.85-.84v-.72c0-.54-.22-.78-.79-.81-.36,0-.69,0-1.06,0-.93,0-1.27-.27-1.27-1.26,0-.72.06-1.44.06-2.16v-2.13c0-.57-.27-.81-.84-.81ZM164.24,586a.86.86,0,0,0,.85.84h6A.87.87,0,0,0,172,586v-.45a.87.87,0,0,0-.85-.84h-6a.86.86,0,0,0-.85.84Zm4-14.73a.69.69,0,0,0,.72-.72v-1.74a.67.67,0,0,0-.72-.69h-.15a.66.66,0,0,0-.73.69v1.74a.68.68,0,0,0,.73.72Zm2.27,5.58a.69.69,0,0,0,.72.72h.06a.7.7,0,0,0,.73-.72v-2.43a.68.68,0,0,0-.73-.69h-.06a.67.67,0,0,0-.72.69Zm9.42,1.5c-.6,0-.84.27-.84.84v5.4c0,2.34-.06,2.88,1.48,2.88h2.29c1.48,0,2-.27,2.27-3.45.06-.69.09-.9.91-.9,1.9,0,2,.57,2,1a12.37,12.37,0,0,1-1,4.44c-.84,1.8-2.29,1.86-4.05,1.86h-2.81c-2.59,0-4.08-.57-4.08-3.45,0-.9,0-1.8,0-2.7V578.5c0-.63,0-1.26,0-1.89,0-.93.25-1.17,1.42-1.17.73,0,1.42,0,2.12,0h3.53c.61,0,.85-.24.85-.84v-4.8c0-.57-.24-.84-.85-.84h-3.59c-1,0-2,.09-3.05.09-.7,0-.67-.42-.67-1.44s0-1.5.67-1.5c1,0,2,.06,3.05.06h4c.69,0,1.36,0,2,0,1.15,0,1.36.33,1.36,1.35,0,.81,0,1.62,0,2.4V575c0,1.2.09,2.4.09,3.27s-.33.75-1.51.75-1.42,0-1.57-.33-.45-.39-.79-.39Z"/><path class="cls-1" d="M201.56,568.57c0,.18-.21.33-.36.39a1.35,1.35,0,0,0-.58.6,11.91,11.91,0,0,0-.87,2.52,15.2,15.2,0,0,0-.4,3.36c0,.24,0,1.53.31,1.53s.42-.48.54-.78.69-1.62,1.06-1.62,1.18.54,1.18.93c0,.09-.46,1.14-.73,1.86l-.27.72a11.82,11.82,0,0,0-1,3.72c0,.42.06.75.06,1,0,.84-1.6,1.2-2.17,1.2s-.88-.54-1.06-1.11a24.56,24.56,0,0,1-1-7,27.62,27.62,0,0,1,.7-6.15c.18-.75.39-1.47.51-2.22,0-.21.12-.75.39-.75.09,0,1.42.54,1.63.63C200.17,567.67,201.56,568.24,201.56,568.57Zm9.55-2.61c.57,0,.63.36.75.81a39.1,39.1,0,0,1,.94,8.64c0,5.19-.88,9.6-4.68,13.44-.49.48-1.73,1.68-2.42,1.68-.49,0-2.24-1.47-2.24-2.1,0-.24.27-.42.46-.51a11.47,11.47,0,0,0,4.11-4.68,17.72,17.72,0,0,0,1.38-7.56,29.13,29.13,0,0,0-1-8.37,1.76,1.76,0,0,1-.06-.39C208.3,566.26,210.77,566,211.11,566Z"/><path class="cls-1" d="M235.4,566.41c0,.15-.12.24-.27.33-.42.21-.63.24-1.06,1.32-.27.72-.51,1.47-.75,2.19a1.06,1.06,0,0,0-.09.42c0,.51.39.63.81.69,1,.12,2.06.21,3.08.24.58,0,1,0,1,.57a8.84,8.84,0,0,1-.33,2c-.12.42-.24.66-.67.66a38.06,38.06,0,0,1-4.1-.45,1,1,0,0,0-.28-.06c-.48,0-.69.33-.81.72s-.52,2.25-.52,2.49c0,.63.64.66,1.06.69.91.09,1.81.12,2.72.12s.91.21.91.51a6.36,6.36,0,0,1-.4,2c-.15.45-.33.69-.84.69-.7,0-2.12-.21-2.84-.3a3,3,0,0,0-.48-.06c-.82,0-.82.75-.82,2,0,2.61,1.39,4,4,4,1.36,0,3.44-.36,4.38-1.41a3,3,0,0,0,.66-2.13,13,13,0,0,0-1-4.35,1.59,1.59,0,0,1-.13-.54c0-.72,2.24-1.11,2.57-1.11.49,0,.58.48.82,1.14a16.46,16.46,0,0,1,1,5.25c0,4.65-4.32,6.27-8.34,6.27-4.56,0-7.25-2.61-7.25-7.17,0-.75.12-1.89.12-2.19,0-.66-.52-.84-1.21-1a9.76,9.76,0,0,1-1.78-.72c-.34-.18-.58-.33-.58-.72,0-.18.3-2.55,1.06-2.55a1.74,1.74,0,0,1,.76.3,5.49,5.49,0,0,0,1.93.84c.51,0,.6-.42.78-1.29.06-.33.19-.72.28-1.17a6.21,6.21,0,0,0,.12-.66c0-.66-.55-.84-1-1-2.11-.81-2.72-1.08-2.72-1.62s.48-2.58,1.12-2.58a1.63,1.63,0,0,1,.69.33,19,19,0,0,0,2.06,1.05.92.92,0,0,0,.39.09c.48,0,.61-.39.7-.72.27-1,.93-3.15,1.17-4,.09-.33.16-.6.46-.6a11.83,11.83,0,0,1,1.51.48C233.86,565.51,235.4,565.93,235.4,566.41Z"/><path class="cls-1" d="M264.71,584.89c0,3.18-2.84,4.5-6,4.5a11.05,11.05,0,0,1-4.95-1.14c-.4-.21-.58-.39-.58-.66a1.35,1.35,0,0,1,.18-.57l.55-1.17c.21-.42.33-.6.54-.6a1.29,1.29,0,0,1,.61.27,7.23,7.23,0,0,0,3.71,1.11c1.54,0,2.57-.57,2.57-1.62s-1.3-1.5-2.84-2c-2.24-.81-5-1.86-5-4.89,0-2.61,2.14-4.5,6-4.5a10.28,10.28,0,0,1,4.08.81c.42.21.63.36.63.66a1.86,1.86,0,0,1-.15.54l-.54,1.41c-.18.42-.31.63-.52.63a1.43,1.43,0,0,1-.6-.24,6.7,6.7,0,0,0-3.11-.84c-1.42,0-2.36.6-2.36,1.5s1.36,1.5,3,2.07C262.12,581,264.71,582,264.71,584.89Z"/><path class="cls-1" d="M271.45,590.17c0,1.35.06,3.84.06,4.05,0,.63-.18.75-.87.75h-1.75c-.7,0-.88-.12-.88-.75,0-.21.06-2.7.06-4.05V578.59c0-1.35-.06-3.84-.06-4.05,0-.63.18-.75.88-.75h1.48c.69,0,.81.12.84.81,0,.39.09.54.24.54a.94.94,0,0,0,.46-.21,6.92,6.92,0,0,1,4-1.32c3.84,0,6.29,2.76,6.29,7,0,6-4.41,8.73-8.64,8.73a7.92,7.92,0,0,1-1.21-.09,2.28,2.28,0,0,0-.42,0c-.4,0-.46.18-.46.78Zm7.22-9.09c0-2.7-1.57-4.23-3.71-4.23a4.83,4.83,0,0,0-2.81.93,1.4,1.4,0,0,0-.7,1.35v6.24c0,.72.18.93.88,1a7.88,7.88,0,0,0,1.27.09A5.09,5.09,0,0,0,278.67,581.08Z"/><path class="cls-1" d="M297.89,587.05a1.35,1.35,0,0,1,.18.57c0,.27-.18.42-.6.63a11.35,11.35,0,0,1-5,1.11c-5.37,0-7.61-3.51-7.61-7.56,0-4.65,3-8.19,7.64-8.19,3.87,0,6.11,2.64,6.11,7.26,0,1.53-.24,1.77-1,1.77h-8.55c-.54,0-.76.09-.76.45a3.92,3.92,0,0,0,.64,1.68c.69,1.08,1.9,1.71,3.87,1.71a7.33,7.33,0,0,0,3.38-.81,1.6,1.6,0,0,1,.6-.24c.25,0,.37.21.58.63Zm-2.51-7.59a3.42,3.42,0,0,0-.42-1.41,2.65,2.65,0,0,0-2.54-1.44,3.85,3.85,0,0,0-3.32,1.68,2.86,2.86,0,0,0-.54,1.23c0,.24.21.33.69.33h5.35C295.14,579.85,295.35,579.76,295.38,579.46Z"/><path class="cls-1" d="M314.24,587.05a1.35,1.35,0,0,1,.18.57c0,.27-.18.42-.6.63a11.38,11.38,0,0,1-5,1.11c-5.38,0-7.61-3.51-7.61-7.56,0-4.65,3-8.19,7.64-8.19,3.87,0,6.11,2.64,6.11,7.26,0,1.53-.25,1.77-1,1.77h-8.55c-.55,0-.76.09-.76.45a3.8,3.8,0,0,0,.64,1.68c.69,1.08,1.9,1.71,3.86,1.71a7.34,7.34,0,0,0,3.39-.81,1.6,1.6,0,0,1,.6-.24c.24,0,.36.21.58.63Zm-2.51-7.59a3.42,3.42,0,0,0-.42-1.41,2.65,2.65,0,0,0-2.54-1.44,3.84,3.84,0,0,0-3.32,1.68,2.89,2.89,0,0,0-.55,1.23c0,.24.22.33.7.33H311C311.49,579.85,311.7,579.76,311.73,579.46Z"/><path class="cls-1" d="M329.41,589.18c-.7,0-.85-.12-.88-.84,0-.36-.06-.51-.21-.51a.92.92,0,0,0-.45.21,7,7,0,0,1-4,1.32c-3.84,0-6.28-2.76-6.28-7,0-6,4.41-8.73,8.64-8.73a8,8,0,0,1,1.21.09,2.28,2.28,0,0,0,.42,0c.39,0,.45-.18.45-.78v-1.11c0-1.35-.06-3.84-.06-4.05,0-.63.18-.75.88-.75h1.75c.69,0,.88.12.88.75,0,.21-.07,2.7-.07,4.05v12.54c0,1.35.07,3.84.07,4,0,.63-.19.75-.88.75Zm-3.23-12.42a5.09,5.09,0,0,0-5.08,5.43c0,2.7,1.57,4.23,3.72,4.23a4.88,4.88,0,0,0,2.81-.93,1.41,1.41,0,0,0,.69-1.35V577.9c0-.72-.18-.93-.87-1A8,8,0,0,0,326.18,576.76Z"/><path class="cls-1" d="M343.4,590.47c-.45,1.11-.91,2.25-1.45,3.66-.27.72-.42.84-1.21.84h-1.9c-.49,0-.67-.06-.67-.3a1.12,1.12,0,0,1,.15-.51c.7-1.5,1.21-2.67,1.61-3.57l.36-.87a1.59,1.59,0,0,0,0-1.68l-4-9.42c-.57-1.32-1.06-2.49-1.75-4a1.52,1.52,0,0,1-.15-.51c0-.24.21-.3.69-.3h2.09c.78,0,.93.12,1.2.84.55,1.5,1,2.73,1.49,4l2.17,5.55c.12.3.21.48.33.48s.21-.15.34-.48l2.17-5.52c.48-1.23.94-2.46,1.48-4,.27-.72.42-.84,1.21-.84h1.9c.49,0,.7.06.7.3a1.52,1.52,0,0,1-.15.51c-.73,1.59-1.24,2.82-1.73,4Z"/><path class="cls-1" d="M365.91,587.29a2.22,2.22,0,0,1-2.36,2.31,2,2,0,0,1-2.08-2,2.25,2.25,0,0,1,2.33-2.4A2,2,0,0,1,365.91,587.29Zm-2.72-4.41c-.75,0-.9-.15-.94-.9l-.21-7.59c-.06-1.8-.27-5.82-.27-6.42s.18-.63.85-.63h2.11c.67,0,.85.12.85.63s-.21,4.62-.27,6.6l-.19,7.41c0,.75-.18.9-.93.9Z"/><path class="cls-1" d="M46.24,609.32a11.29,11.29,0,0,1,1.45-.15c.85,0,.78.45.85,1.14a41,41,0,0,0,.93,5.37c.09.39.18.9.7.9s5.37-2.82,6.16-3.33a1.91,1.91,0,0,1,.79-.3c.39,0,.9.9,1.08,1.2a5.81,5.81,0,0,1,.88,1.83c0,.3-.33.39-.57.48A55.88,55.88,0,0,0,51,619.91a30.84,30.84,0,0,0-5.44,3.54,3.79,3.79,0,0,0-1.48,2.7c0,1.08,1.06,1.83,2,2.16a12.16,12.16,0,0,0,4,.54,45.85,45.85,0,0,0,7.88-.78.83.83,0,0,1,.27,0c.43,0,.46,1.23.46,1.86v.36c0,.78,0,1.11-.64,1.26a72.91,72.91,0,0,1-8.31.48,11.38,11.38,0,0,1-6.19-1.29,5.28,5.28,0,0,1-2.78-4.62c0-3.27,2.72-5.4,5.23-7a.93.93,0,0,0,.51-.78,1,1,0,0,0-.12-.54c-.36-1.08-1.21-4.26-1.51-5.49a19.07,19.07,0,0,0-.57-2,1.58,1.58,0,0,1-.09-.36C44.28,609.47,45.27,609.47,46.24,609.32Z"/><path class="cls-1" d="M72.86,625.7c-.36.12-.39.36-.75,1.38-.06.18-.16.42-.25.69a36.56,36.56,0,0,1-2,4.59c-.18.3-.36.57-.75.57s-2.3-.57-2.3-1.26a1.82,1.82,0,0,1,.33-.69A22,22,0,0,0,69.72,625c.09-.36.15-.66.48-.66a12.85,12.85,0,0,1,1.75.39c.61.15,1.18.27,1.18.63C73.13,625.58,73,625.64,72.86,625.7Zm14.29-4.17H73.68c-.24,0-.34.15-.43.36s-.39.36-1.45.36c-1.23,0-1.6,0-1.6-.69s.06-1.62.06-2.43v-7.32c0-.69-.06-1.35-.06-2,0-1.11.7-1.29,1.66-1.29s1.79,0,2.66,0h12c.87,0,1.75,0,2.63,0,1.45,0,1.69.51,1.69,1.53,0,.48-.06,1.08-.06,1.8v7.32c0,.54.06,2.1.06,2.43,0,.69-.36.69-1.51.69H89a2.12,2.12,0,0,1-1.15-.21A1.3,1.3,0,0,0,87.15,621.53Zm-8.06-9.48a.85.85,0,0,0-.85-.84H74.07a.85.85,0,0,0-.85.84v.87c.07.54.34.84.85.84h4.17c.51,0,.79-.3.85-.84Zm0,5a.8.8,0,0,0-.85-.81H74.07a.81.81,0,0,0-.85.81v1a.81.81,0,0,0,.85.81h4.17a.8.8,0,0,0,.85-.81Zm4.13,13.83a3.23,3.23,0,0,0,1.12-.15c.61-.33,1-1.92,1.06-2.55s.15-.87.76-.87,2.29.33,2.29,1.29a12.48,12.48,0,0,1-1.24,3.93c-.72,1.26-2,1.26-3.26,1.26H77.58c-1.73,0-3.48-.33-3.48-2.43,0-.54.06-1,.06-1.59v-3.18a22.2,22.2,0,0,0-.09-2.46,1,1,0,0,1,0-.3c0-.3.21-.36.45-.36.46,0,2.15.12,2.66.15.21,0,.67,0,.67.33s-.12.27-.28.36c-.39.3-.42.84-.42,1.62v3.72c0,1.17.39,1.23,1.6,1.23Zm-1-2.82c-.37,0-.55-.3-.73-.57a23.7,23.7,0,0,0-2.72-3.63,1.11,1.11,0,0,1-.36-.66c0-.57,1.6-1.47,2.09-1.47a.71.71,0,0,1,.57.33c.48.51,1,1.2,1.45,1.74a13.42,13.42,0,0,1,1.75,2.73C84.22,627.29,82.56,628.1,82.17,628.1Zm4.77-14.34a.76.76,0,0,0,.82-.84v-.87c0-.54-.31-.78-.82-.84H82.77a.84.84,0,0,0-.84.84v.87c.06.54.33.84.84.84Zm-5,4.32a.8.8,0,0,0,.84.81h4.17a.75.75,0,0,0,.82-.81v-1a.75.75,0,0,0-.82-.81H82.77a.8.8,0,0,0-.84.81Zm9.57,14.7c-.48,0-.6-.36-.72-.75A30.29,30.29,0,0,0,88,625.94a1.49,1.49,0,0,1-.24-.6c0-.66,1.75-1.2,2-1.2a.81.81,0,0,1,.67.36,25.89,25.89,0,0,1,1.6,2.88,24.33,24.33,0,0,1,1.66,4C93.71,632.18,91.9,632.78,91.5,632.78Z"/><path class="cls-1" d="M101.54,619.76a23.09,23.09,0,0,0,2.78-.9c2.69-1,5.86-2.16,8.7-2.16,3.53,0,6.28,2.25,6.28,5.88s-2.75,6-5.92,7.35a17.27,17.27,0,0,1-4.65,1.26c-1,0-1.42-2-1.42-2.28,0-.51.57-.57,1-.6a13.64,13.64,0,0,0,5.16-1.5,5.13,5.13,0,0,0,3-4.29c0-1.95-1.54-3-3.38-3-2.93,0-6.86,1.65-9.43,3a1.58,1.58,0,0,1-.84.3c-.79,0-1.88-1.8-1.88-2.43C100.87,620,101.21,619.85,101.54,619.76Z"/><path class="cls-1" d="M141.12,608.39c.27.09,1.12.3,1.12.63,0,.15-.18.24-.27.3-.46.27-.48.39-.7,1-.09.33-.72,2.52-.72,2.67a.44.44,0,0,0,.45.45,21.77,21.77,0,0,0,3.51-1.11,1.61,1.61,0,0,1,.63-.15c.61,0,.61,1.83.61,2.28s-.07.93-.58,1.08a45.67,45.67,0,0,1-4.95,1.17c-.88.18-1,.33-1.24,1.17a93.65,93.65,0,0,1-5.62,13.23c-.4.72-.64,1.14-1.09,1.14s-2.57-1-2.57-1.62a2.16,2.16,0,0,1,.52-1,59.18,59.18,0,0,0,5.34-11.1,4.58,4.58,0,0,0,.24-.78c0-.3-.24-.45-.54-.45s-1.75.15-2.69.15c-.6,0-1.09,0-1.27-.54a12.88,12.88,0,0,1-.24-2.19c0-.33.09-.54.45-.54s1.55.12,2.84.12c1.94,0,2.39,0,2.66-.48a26.79,26.79,0,0,0,1.12-5.46c0-.45,0-.75.33-.75S140.73,608.27,141.12,608.39Zm-.42,19.35c1.33,1.47,3.63,1.74,5.47,1.74a13.74,13.74,0,0,0,4.29-.6,1.07,1.07,0,0,1,.3-.06c.51,0,.51.69.51,1.89,0,.6,0,1.29-.33,1.5a29,29,0,0,1-4.71.39c-2,0-4.78-.24-6.47-1.35-.48-.33-1.48-1.08-1.48-1.71,0-.45,1.39-2.22,1.88-2.22C140.37,627.32,140.58,627.59,140.7,627.74Zm3.69-9.69a21.8,21.8,0,0,1,6.07.84.56.56,0,0,1,.42.6,7.54,7.54,0,0,1-.57,2.1.52.52,0,0,1-.55.39,1.61,1.61,0,0,1-.63-.15,13.63,13.63,0,0,0-4.8-.75c-.4,0-.76,0-1.15,0-.61,0-.76-.15-.76-.66C142.42,617.87,143,618.05,144.39,618.05Z"/><path class="cls-1" d="M167.87,614.72c.21.09.54.18.54.42s-.15.27-.27.33c-.49.3-.52.57-.64,1.17-.24,1.38-.42,2.79-.72,4.17a4.55,4.55,0,0,0-.09.63c0,.18.09.36.3.36a.67.67,0,0,0,.39-.18c2.24-1.56,4.05-2.76,6.92-2.76,3.72,0,6.59,2.46,6.59,6.24,0,4.26-3.21,6.06-6.86,7.14a20.34,20.34,0,0,1-3.93.81c-.66,0-.84-.27-1.12-.84a6.24,6.24,0,0,1-.51-2c0-.48.36-.51.76-.54a20.35,20.35,0,0,0,4-.6c2.15-.54,4.38-1.47,4.38-4,0-2.07-1.69-3.18-3.62-3.18-3.17,0-6.38,2.64-8.28,5-.24.3-.48.63-.91.63-.27,0-2.29-.3-2.29-1.17a4.61,4.61,0,0,1,.3-1c.27-1,.51-2,.69-2.94a46.41,46.41,0,0,0,.73-6.54c0-.24,0-.45,0-.66,0-.87,0-1.32.51-1.32A21.65,21.65,0,0,1,167.87,614.72Zm.54-6.48a20.89,20.89,0,0,1,3.44,1.89c.46.27,2.21,1.23,2.21,1.74s-1.24,2.37-1.87,2.37c-.34,0-.73-.42-1-.6a24.82,24.82,0,0,0-3.81-2.55c-.3-.18-.69-.33-.69-.66S167.68,608.24,168.41,608.24Z"/><path class="cls-1" d="M190.83,625.94c.7,0,5.89,4.14,5.89,4.89s-1.51,2.31-2.2,2.31c-.24,0-.45-.27-.61-.45a18.43,18.43,0,0,0-4.59-4.08c-.21-.12-.54-.3-.54-.57A4.12,4.12,0,0,1,190.83,625.94Z"/><path class="cls-1" d="M223.58,612.08c.52,0,1.24-.06,1.52-.06.6,0,1.05.57,1.45,1s1,1,1,1.38-.24.57-.45,1.74c-1,5.64-3.23,9.6-8,12.9a28.07,28.07,0,0,1-5.8,3.09,3.68,3.68,0,0,1-1,.24c-.73,0-1.79-2-1.79-2.49s.28-.42.55-.48a21.5,21.5,0,0,0,7.52-4,14.12,14.12,0,0,0,4.93-8.73,7.25,7.25,0,0,0,.09-.75c0-.57-.52-.63-1.06-.63H211.8c-1.27,0-2.51.06-3.77.06-.91,0-.91-.27-.91-1.62s0-1.71.85-1.71c1.29,0,2.59.06,3.89.06Zm8.71-2.19a3,3,0,1,1-3-3A3,3,0,0,1,232.29,609.89Zm-4.63,0a1.62,1.62,0,0,0,3.24,0,1.62,1.62,0,1,0-3.24,0Z"/><path class="cls-1" d="M243.47,625.91c0,.75.06,1.23.61,1.23a13,13,0,0,0,2.47-1,41.86,41.86,0,0,0,11.6-7.89c.18-.18.46-.48.73-.48.48,0,1.51,2,1.51,2.58a.87.87,0,0,1-.33.54c-.67.66-1.39,1.26-2.12,1.86a54.26,54.26,0,0,1-13.29,7.8,11.37,11.37,0,0,0-1.06.48,1.8,1.8,0,0,1-.75.3,10.47,10.47,0,0,1-2.39-1.11c-.36-.27-.39-.54-.39-1,0-1,.06-2.13.06-3.24V613.76c0-.66,0-1.32,0-1.83,0-.21-.09-.84-.09-1a.32.32,0,0,1,.33-.36,6.33,6.33,0,0,1,.63.09c.49.06,2,.3,2.45.42.27.06.63.09.63.39s-.15.27-.27.39a1.15,1.15,0,0,0-.27.93c0,.45,0,.93,0,1.41Z"/><path class="cls-1" d="M276.62,625.22c0,3.12-.3,3.54,2.93,3.54,2.24,0,5.32-.36,7.55-.51l.43,0c.57,0,.57.84.57,1.47s0,1.5-.51,1.8a3.19,3.19,0,0,1-1.06.18c-.76,0-4.53.21-5.11.21h-.87a29.62,29.62,0,0,1-4.54-.24,3.36,3.36,0,0,1-1.87-.9c-.9-.93-.84-2.94-.84-4.14,0-.42,0-.81,0-1.23v-3.6a.65.65,0,0,0-.82-.63l-1.54.3c-.54.12-3.93.81-4.17.81s-.45-.21-.57-.69a10.3,10.3,0,0,1-.37-1.95c0-.51.46-.6,2-.84.66-.12,1.48-.24,2.57-.45l2.17-.42a.88.88,0,0,0,.73-.87v-2.7c0-1,0-2,0-3,0-.42-.13-1.44-.13-1.53s.1-.33.31-.33,1.9.24,2.38.27c.31,0,1.3.09,1.3.45a1.91,1.91,0,0,1-.27.63,1.24,1.24,0,0,0-.24.87c0,.84,0,1.71,0,2.55v2.07a.65.65,0,0,0,.78.63l6.5-1.26c.39-.09,3.41-.72,3.47-.72.58,0,2.24,1.56,2.24,2.13a1.26,1.26,0,0,1-.3.6c-.48.51-.94,1-1.39,1.62-1.36,1.65-2.78,3.3-4.23,4.92-.27.33-.67.81-1.15.81s-2.33-1.11-2.33-1.77c0-.21.34-.45.55-.66.48-.45,3.38-3.15,3.38-3.57a.21.21,0,0,0-.21-.21c-.18,0-.88.15-1.06.18l-5.47,1.11a.91.91,0,0,0-.78.93Zm10.91-13c0,.45-1.09,1.32-1.49,1.32-.15,0-.3-.18-.36-.27a28.34,28.34,0,0,0-2.14-2.49c-.09-.12-.24-.24-.24-.42s1.14-1.2,1.48-1.2A11.7,11.7,0,0,1,287.53,612.26Zm3.14-2c0,.45-1.09,1.35-1.51,1.35-.12,0-.28-.18-.52-.48a28.09,28.09,0,0,0-2-2.28c-.12-.12-.27-.24-.27-.39,0-.36,1.15-1.23,1.51-1.23A12.11,12.11,0,0,1,290.67,610.28Z"/><path class="cls-1" d="M320.86,617.75c0,.51-1.21,1.68-1.61,2.07a52.47,52.47,0,0,1-16.4,11.31c-1,.48-1,.51-1.27,1a.3.3,0,0,1-.3.18c-.33,0-1-1.2-1.18-1.56a8.46,8.46,0,0,1-.91-1.8c0-.33.55-.39.94-.51,6.68-2,14.23-7.62,18.52-13.05a.74.74,0,0,1,.51-.33C319.77,615.08,320.86,617.3,320.86,617.75Zm-15.59-5c.39.27,1.84,1.26,1.84,1.71,0,.69-1.42,2.31-2,2.31a3.21,3.21,0,0,1-1.2-.81,37.89,37.89,0,0,0-4-2.79c-.24-.15-.49-.3-.49-.57,0-.45,1.21-2.37,1.91-2.37C301.79,610.28,304.69,612.38,305.27,612.8Z"/><path class="cls-1" d="M338.5,617c.61,0,3.63,2.37,4.24,2.88.42.36,2.11,1.65,2.11,2.16s-1.42,2.07-2,2.07a1.09,1.09,0,0,1-.67-.39,44.87,44.87,0,0,0-4.38-3.51.53.53,0,0,0-.3-.12c-.27,0-.36.24-.36.48v8.19c0,1.2.06,2.37.06,3.57,0,1.38,0,1.56-1.88,1.56-1.21,0-1.72,0-1.72-1,0-1.35.09-2.7.09-4v-17.1c0-.78-.06-1.59-.09-2.34,0-.15,0-.42,0-.54,0-.3.09-.45.39-.45s.82.09,1,.12c1.36.18,2.6.3,2.6.72a.88.88,0,0,1-.15.39,2.4,2.4,0,0,0-.34,1.59c0,.45,0,1,0,1.77v4.5c0,.24.15.3.24.3a.33.33,0,0,0,.27-.12C337.84,617.42,338.17,617,338.5,617Z"/><path class="cls-1" d="M70.5,652.53c.85,0,.79.42.85,1.11a52.11,52.11,0,0,0,.94,5.4c.09.39.18.9.69.9s4.47-2.37,5.2-2.82a2,2,0,0,1,.78-.33c.52,0,2,2.58,2,3.06,0,.3-.37.39-.58.45a50.93,50.93,0,0,0-6.28,2.82c-2.06,1.08-6.62,3.36-6.62,6,0,1.08,1,1.86,2,2.19a12.23,12.23,0,0,0,4,.51,41.39,41.39,0,0,0,4.72-.3c.54-.06,2.69-.39,3.14-.48a1,1,0,0,1,.3,0c.42,0,.46,1.23.46,1.92v.36c0,.81-.07,1.11-.85,1.26-1.36.24-6.47.42-8,.42a12.26,12.26,0,0,1-6.28-1.26,5.22,5.22,0,0,1-2.75-4.65c0-3,2.11-5,4.5-6.54.36-.24.73-.42.73-.93a1.09,1.09,0,0,0-.1-.48c-.42-1.14-1.2-4.23-1.54-5.55a15.94,15.94,0,0,0-.57-2,2.1,2.1,0,0,1-.09-.36c0-.42.94-.48,2-.63A11,11,0,0,1,70.5,652.53Zm12.15,2.16a9.65,9.65,0,0,1,1.15,2c0,.45-1.24,1.14-1.6,1.14s-.31-.18-.58-.63c-.39-.69-.87-1.5-1.33-2.16-.12-.18-.42-.54-.42-.72,0-.36,1.27-1,1.6-1S82.47,654.42,82.65,654.69Zm3.17-2a10.1,10.1,0,0,1,1.12,2c0,.48-1.27,1.17-1.6,1.17s-.33-.24-.43-.42a32.13,32.13,0,0,0-1.81-2.82.57.57,0,0,1-.09-.24c0-.42,1.3-1,1.6-1S85.55,652.26,85.82,652.65Z"/><path class="cls-1" d="M96.88,666.3c.4,0,.49.27.55.57.63,3.18,3.2,3.63,6,3.63a37.85,37.85,0,0,0,9-1,2.49,2.49,0,0,1,.46-.09c.45,0,.66.51.66,2.46,0,.57-.15.93-.72,1.11a55.59,55.59,0,0,1-9.07.84c-3.14,0-6.52-.39-8.49-3.12a7,7,0,0,1-1.18-2.91C94.13,667,96.85,666.3,96.88,666.3Zm.52-10.47c.09-.51.15-1.05.72-1.05A4.59,4.59,0,0,1,99,655a19.57,19.57,0,0,0,5.14.63,25.8,25.8,0,0,0,5.46-.6,1.6,1.6,0,0,1,.4-.06c.75,0,.78,1.35.78,2.58,0,.72-.15.78-.84.9a41.64,41.64,0,0,1-5.47.36c-1.66,0-5.41-.15-6.89-.75a.62.62,0,0,1-.42-.63A10.4,10.4,0,0,1,97.4,655.83Z"/><path class="cls-1" d="M129.4,654.21c.24.09.6.21.6.51s-.12.21-.42.39c-.51.27-.63.54-.94,1.29a23.6,23.6,0,0,0-1.69,8.52c0,.57.12,4.2.82,4.2.27,0,.69-.87.81-1.17s.37-.72.64-.72,1.08.63,1.08,1-1.2,3-1.2,4.35c0,.3.09,1,.12,1.26a2.66,2.66,0,0,1,.06.45c0,.75-1.72,1.47-2.36,1.47s-.88-.66-1.27-1.47a20.53,20.53,0,0,1-1.84-9.21,35.54,35.54,0,0,1,1.54-9.93,13.8,13.8,0,0,0,.39-1.5c.06-.27.12-.66.46-.66S129,654,129.4,654.21Zm3.74,14.34a5.2,5.2,0,0,0,4.6,2.1,24.84,24.84,0,0,0,6.64-1,2.2,2.2,0,0,1,.64-.12c.48,0,.54.72.54,2.25,0,.36,0,.9-.36,1.11-.85.45-5.95.9-7.16.9-4.9,0-6.92-2.52-6.92-3s1.06-2.55,1.63-2.55A.53.53,0,0,1,133.14,668.55Zm1.09-13.11a19.54,19.54,0,0,0,4,.45,19.86,19.86,0,0,0,4.59-.6,2.87,2.87,0,0,1,.55-.09c.42,0,.54.36.6.72a14.71,14.71,0,0,1,.12,1.62c0,.63,0,.87-.57,1a35.52,35.52,0,0,1-5.08.42c-.94,0-4.65-.18-5.29-.6-.33-.21-.3-.84-.3-1.17,0-1.44.15-1.89.64-1.89A4,4,0,0,1,134.23,655.44Z"/><path class="cls-1" d="M166.93,658.68h6.55c1.18,0,2.36-.06,3.54-.06.63,0,.63.33.63,1.2s0,1.17-.63,1.17c-1.18,0-2.36-.06-3.54-.06h-6.7c-.34,0-.49.12-.49.48v.21c0,.33.15.45.49.48H170c.75,0,1.51-.06,2.24-.06s1.45.18,1.45,1.17c0,.54,0,1.11,0,1.68v5.25c0,.54,0,1.11,0,1.65,0,1-.55,1.17-1.42,1.17s-1.52,0-2.27,0h-8.43c-.76,0-1.48,0-2.24,0s-1.45-.15-1.45-1.14c0-.57.06-1.14.06-1.68v-5.25c0-.57-.06-1.14-.06-1.68,0-1,.55-1.17,1.42-1.17s1.51.06,2.27.06h1.21c.33,0,.42-.15.45-.48v-.21c0-.36-.12-.45-.45-.48h-7.55c-1.18,0-2.39.06-3.57.06-.6,0-.6-.36-.6-1.17s0-1.2.6-1.2c1.18,0,2.39.06,3.57.06h7.16c.42,0,.75-.15.75-.63s-.3-.75-.72-.75h-5.23c-.91,0-1.72.06-2.42.06-1.33,0-2.14-.18-2.14-1.08,0-.36.06-.63.06-1.2v-1.59c0-.57-.06-.84-.06-1.17,0-1.05,1.08-1.08,1.87-1.08s1.78,0,2.69,0h14.41c.85,0,1.72,0,2.6,0s1.93,0,1.93,1.08c0,.27,0,.6,0,1.17v1.59c0,.6,0,.9,0,1.17,0,1-.93,1.11-1.72,1.11s-1.87-.06-2.81-.06h-4.71c-.06,0-.12,0-.12,0s.06.06.09.09a.23.23,0,0,1,.15.21c0,.15-.15.24-.39.39a.39.39,0,0,0-.25.33C166.41,658.62,166.72,658.68,166.93,658.68Zm-12.78,18.57c-1.27,0-1.63,0-1.63-.9s.09-2,.09-3v-6.72c0-.72-.06-1.47-.12-2.1,0-.09,0-.18,0-.27,0-.36.3-.39.57-.39s2.45.12,2.84.15c.24,0,.51.09.51.39s-.12.24-.36.39-.36.69-.36,1.68v6.75c0,.6.24.84.84.84h16.41c1.18,0,2.33-.06,3.5-.06.67,0,.64.33.64,1.2s0,1.2-.64,1.2c-1.14,0-2.32-.06-3.5-.06H156.38c-.39,0-.54.27-.78.6S155.08,677.25,154.15,677.25Zm2.26-23.82a.69.69,0,0,0-.72.72v.3a.67.67,0,0,0,.72.69H159a.68.68,0,0,0,.73-.69v-.3a.7.7,0,0,0-.73-.72Zm14.44,11.16a.49.49,0,0,0-.48-.48h-8.94c-.3,0-.48.18-.48.48v.21a.44.44,0,0,0,.48.48h8.94a.47.47,0,0,0,.48-.48Zm-9.42,2.22a.47.47,0,0,0-.48.48v.24a.47.47,0,0,0,.48.48h8.94a.51.51,0,0,0,.48-.48v-.24a.51.51,0,0,0-.48-.48Zm.09,2.76a.54.54,0,0,0-.57.57v.18a.52.52,0,0,0,.57.57h8.76a.55.55,0,0,0,.57-.57v-.18a.58.58,0,0,0-.57-.57Zm.88-15.12a.67.67,0,0,0,.72.69h2.6a.65.65,0,0,0,.69-.69v-.3a.67.67,0,0,0-.69-.72h-2.6a.69.69,0,0,0-.72.72Zm6.67,0a.67.67,0,0,0,.73.69h2.66a.67.67,0,0,0,.72-.69v-.3a.69.69,0,0,0-.72-.72H169.8a.7.7,0,0,0-.73.72Z"/><path class="cls-1" d="M187.93,656.55c.24.06.66.12.66.42s-.12.24-.3.39c-.42.33-.45.93-.54,1.44a22.36,22.36,0,0,0-.24,3.18,17.14,17.14,0,0,0,1,6.27c.37.84,1.36,2.61,2.42,2.61.85,0,1.72-1.32,2.09-2,.18-.3.42-.75.81-.75.64,0,2.18,1.23,2.18,1.77s-1.36,2.13-1.79,2.61A4.34,4.34,0,0,1,191,674.4c-2.23,0-4-2-5-3.84-1.51-2.82-1.76-6.6-1.76-9.78,0-.48.09-4.29.16-4.56a.37.37,0,0,1,.42-.33C185.18,655.89,187.42,656.46,187.93,656.55Zm12.3-.6c.66,0,3.2,1.89,4.65,4.65a16.2,16.2,0,0,1,1.78,6.24c0,.57-.3.72-.81.87a6.49,6.49,0,0,1-1.7.27c-1,0-.93-.42-1-1.14a11.51,11.51,0,0,0-4.47-8.55.49.49,0,0,1-.28-.45C198.41,657.27,199.62,656,200.23,656Z"/><path class="cls-1" d="M214.76,655.86c4.42-.27,8.83-.72,13.24-1.23,2.26-.27,4.59-.57,6.86-.93a1.46,1.46,0,0,1,.36,0c.45,0,.51.39.6.75a18.1,18.1,0,0,1,.24,2.19c0,.66-.63.6-1.33.63a14.84,14.84,0,0,0-5,.63,9.13,9.13,0,0,0-5.17,4.47,11.24,11.24,0,0,0-1.45,5.28c0,3.48,2.27,4.32,5.32,4.32.54,0,1.21,0,1.51,0s.7,0,.7.51a7.19,7.19,0,0,1-.55,2.67c-.21.3-.54.3-.87.3-5.14,0-9.55-1.62-9.55-7.47a13.29,13.29,0,0,1,3.32-8.61c.15-.15.55-.54.55-.72s-.28-.36-.46-.36-1.6.21-1.93.27a61.43,61.43,0,0,0-6.68,1.23,2.32,2.32,0,0,1-.45.06c-.73,0-1-2.85-1-3.15C213,655.86,213.43,656,214.76,655.86Z"/><path class="cls-1" d="M254.5,653c.24.69.42,1.32,1,1.32a10.34,10.34,0,0,0,2.32-1,2.67,2.67,0,0,1,.76-.3c.54,0,1.33,1.83,1.33,2.34,0,.36-.36.54-.64.72a20.12,20.12,0,0,1-2.17,1c-.3.12-.7.21-.7.6a1.14,1.14,0,0,0,.15.45c.34.84.55,1.23.91,1.23a15.17,15.17,0,0,0,3.59-1.74,1.84,1.84,0,0,1,.73-.33c.51,0,1.54,1.86,1.54,2.31s-.66.72-1.27,1.05c-.78.39-1.6.75-2.42,1.08-.36.15-.84.3-.84.81s2.51,4.53,3.05,5.22c.24.33.73.9.73,1.29,0,.69-1.79,2-2.45,2a.66.66,0,0,1-.49-.24,8.08,8.08,0,0,0-5.55-2.13c-1.27,0-3,.48-3,2,0,2.16,3.08,2.64,4.71,2.64a12.68,12.68,0,0,0,1.84-.15,8.11,8.11,0,0,1,.88-.06c.6,0,.72.51.72,1.38,0,1.86-.3,1.92-1.72,1.92a15.94,15.94,0,0,1-5.83-.78,5.15,5.15,0,0,1-3.63-4.83c0-3.27,2.69-4.89,5.74-4.89a9.27,9.27,0,0,1,3,.51,1.07,1.07,0,0,0,.3.06.27.27,0,0,0,.27-.27,22.67,22.67,0,0,0-1.15-2.19c-.18-.36-.36-.72-.81-.72a1,1,0,0,0-.43.09,47.78,47.78,0,0,1-8,1.5c-.52,0-.64-.3-.79-.75a7.61,7.61,0,0,1-.36-1.83c0-.57.54-.51,1.33-.57a31.22,31.22,0,0,0,6.43-1c.3-.09.67-.24.67-.57,0-.06-.55-1.74-1.15-1.74-.15,0-.73.15-.94.18a28.18,28.18,0,0,1-3.44.54c-.39,0-.52-.18-.67-.51a7.27,7.27,0,0,1-.51-1.92c0-.63.79-.6,1.21-.63a18.58,18.58,0,0,0,2.32-.3c.4-.06.79-.21.79-.69a7.9,7.9,0,0,0-.85-1.83,2.27,2.27,0,0,1-.36-.78c0-.63,2.12-1,2.63-1C254,651.36,254.08,651.84,254.5,653Z"/><path class="cls-1" d="M285.56,651.39c.27.09,1.12.3,1.12.63,0,.15-.18.24-.27.3-.46.27-.49.39-.7,1-.09.33-.72,2.52-.72,2.67a.44.44,0,0,0,.45.45,21.46,21.46,0,0,0,3.51-1.11,1.61,1.61,0,0,1,.63-.15c.61,0,.61,1.83.61,2.28s-.07.93-.58,1.08a45.67,45.67,0,0,1-4.95,1.17c-.88.18-1,.33-1.24,1.17a93.65,93.65,0,0,1-5.62,13.23c-.39.72-.64,1.14-1.09,1.14s-2.57-1-2.57-1.62a2.16,2.16,0,0,1,.52-1,58.57,58.57,0,0,0,5.34-11.1,4.66,4.66,0,0,0,.25-.78c0-.3-.25-.45-.55-.45s-1.75.15-2.69.15c-.6,0-1.09,0-1.27-.54a12.88,12.88,0,0,1-.24-2.19c0-.33.09-.54.45-.54s1.55.12,2.84.12c1.94,0,2.39,0,2.66-.48a26.79,26.79,0,0,0,1.12-5.46c0-.45,0-.75.33-.75S285.17,651.27,285.56,651.39Zm-.42,19.35c1.33,1.47,3.63,1.74,5.47,1.74a13.74,13.74,0,0,0,4.29-.6,1.07,1.07,0,0,1,.3-.06c.51,0,.51.69.51,1.89,0,.6,0,1.29-.33,1.5a29,29,0,0,1-4.71.39c-2,0-4.77-.24-6.47-1.35-.48-.33-1.48-1.08-1.48-1.71,0-.45,1.39-2.22,1.88-2.22C284.81,670.32,285,670.59,285.14,670.74Zm3.69-9.69a21.8,21.8,0,0,1,6.07.84.56.56,0,0,1,.42.6,7.54,7.54,0,0,1-.57,2.1.52.52,0,0,1-.55.39,1.61,1.61,0,0,1-.63-.15,13.63,13.63,0,0,0-4.8-.75c-.4,0-.76,0-1.15,0-.61,0-.76-.15-.76-.66C286.86,660.87,287.41,661.05,288.83,661.05Z"/><path class="cls-1" d="M312.34,669.09c-.61,0-.7-.18-.7-1,0-3.06,1.84-4.8,3.84-6.45,1-.87,1.78-1.71,1.78-2.76,0-1.47-1.24-2.46-3.53-2.46a6.13,6.13,0,0,0-4.66,2.28c-.24.3-.42.48-.6.48s-.36-.15-.64-.42l-1.21-1.2c-.27-.27-.39-.45-.39-.66s.12-.36.36-.63a9.79,9.79,0,0,1,7.38-3.09c4.32,0,6.89,2.37,6.89,5.22,0,2.58-1.45,3.93-3.51,5.58-1.39,1.14-2.45,2.37-2.45,4.26,0,.72-.09.87-.66.87Zm3.29,4.2a2.2,2.2,0,0,1-2.33,2.31,2,2,0,0,1-2.08-2,2.25,2.25,0,0,1,2.32-2.4A2,2,0,0,1,315.63,673.29Z"/><ellipse class="cls-2" cx="162.07" cy="464.92" rx="87.2" ry="20.3"/><path class="cls-3" d="M106.2,208.45c-9.07-.62-12.85,13.45-6.53,19.92,5.62,5.77,14.67,6.2,22.69,4.29-1.29-4.37.55-9.19,3.83-12.66L125,220a12,12,0,0,1-2.94-1.22l-.1-.05-.15-.09a23.16,23.16,0,0,1-7-5.74C112.2,210.62,109.53,208.67,106.2,208.45Z"/><path class="cls-4" d="M289.47,218.61v-.83c-2.76-34.35-27.55-65.56-60-77.76s-71-5.61-98.47,15.39c-10.62,8.11-20.07,18.88-22.59,31.94a31.52,31.52,0,0,0,6.38,25.52c2.28,2,4.5,4.25,7,5.74l.15.09.1.05A23,23,0,0,0,125,220l1.17,0a16.79,16.79,0,0,1,4-3.11c6-3.32,13.2-2.69,20-3.55,49.33-6.2,99.53-3.91,139.21,5.55C290.13,218.82,291,218.75,289.47,218.61Z"/><path class="cls-5" d="M121.49,254.83c-4.32,6.64-7.18,17.44,0,20.81,3.8,1.78,8.52.07,12.43,1.63a28.1,28.1,0,0,1,8.1,4.41,11.35,11.35,0,0,0,2.48,1.28,6.65,6.65,0,0,1,2.16.73,45,45,0,0,0,10.69,1.84c18.59,0,32.9,1.5,53.5,10.23a28.18,28.18,0,0,0,8,2l.65-13.19a33.75,33.75,0,0,1-26.48-15.15l-6.79-13a3.2,3.2,0,1,1-1.8-6l.33,0,.31-15.19L124.62,234C129.87,239.14,125.65,248.43,121.49,254.83Z"/><path class="cls-3" d="M124.62,234l60.52,1.2,36.19.72,34.71.69c10.81.21,17.22-.27,22.64-3.61,4.16-2.56,7.74-6.81,12.31-13.73-3.3-.21-2.52-.3-1.62-.39-39.68-9.46-89.88-11.75-139.21-5.55-6.79.86-14,.23-20,3.55a16.79,16.79,0,0,0-4,3.11c-3.28,3.47-5.12,8.29-3.83,12.66a10.93,10.93,0,0,0,.49,1.31Z"/><path class="cls-3" d="M271.17,269.36c-.14-.12-.28-.22-.43-.33-8.1,10.24-16.87,21-29.24,25.34-7.09,2.49-15.09,4.22-22.58,3.42a28.18,28.18,0,0,1-8-2c-20.6-8.73-34.91-10.19-53.5-10.23a45,45,0,0,1-10.69-1.84c-.77-.23-1.49-.47-2.16-.73-7.13-1.16-16.6,8.24-13.23,14.76a16.43,16.43,0,0,0,5.7,5.69c8.59,5.8,18.51,9,28.54,11.94s20.26,5.8,29.34,10.93c9.93,5.61,18.47,14,29.42,17.24a36,36,0,0,0,14.51,1.18,43.23,43.23,0,0,0,22.14-9.53c10.05-8.28,16.27-20.55,18.79-33.27C282,290.3,280.57,276.5,271.17,269.36Z"/><path class="cls-4" d="M184.26,400.12c2.62-2.87,3.62-7.36,4.16-11.52a11.16,11.16,0,0,1,9,1.57c2.54,1.92,3.8,5.63,2.33,8.45-1.29,2.49-4.3,3.72-7.12,3.71s-5.53-1-8.17-2.06Zm41.87-22.64,1,.19a155,155,0,0,0,4.69,18.49,4.14,4.14,0,0,0,.83,1.68c1,1.11,2.83.86,4.32.52a3.58,3.58,0,0,0,1.24-.47,1.26,1.26,0,0,0,.31-.3,2.51,2.51,0,0,0,.31-1.51c-.16-14.69.16-34.66,0-49.35l0-2a36,36,0,0,1-14.51-1.18c-10.95-3.27-19.49-11.63-29.42-17.24-9.08-5.13-19.26-7.94-29.34-10.93l-1,3.24c-6.34,6.29-8.55,15.65-10,24.49a267.37,267.37,0,0,0-3.47,41.52c0,2.91,0,5.9,1.19,8.58,2.18,5.11,7.43,7.52,13.14,8.73l-.48,2.18a25.26,25.26,0,0,0-2.22,11.17,4.61,4.61,0,0,0,.6,2.48c.74,1.14,2.21,1.51,3.55,1.79l5.73,1.2v1.11l20.77.11,4.32,0a20.46,20.46,0,0,0,6.3-.61,11.49,11.49,0,0,0,3-1.42c2.73-1.81,4.8-4.68,6.5-7.53C219.89,401.69,223.61,389.77,226.13,377.48ZM200,374.56a3.2,3.2,0,0,1-.6-2.45,6.27,6.27,0,0,1,6.92-5.28l.76.63a3.17,3.17,0,0,1,1.86,1.56,5,5,0,0,1,.6,4.77,4.41,4.41,0,0,1-3.33,2.18,10.43,10.43,0,0,1-4.11-.39A4.11,4.11,0,0,1,200,374.56Zm1.68-21.17a5.89,5.89,0,0,1,1.69-4.6,4.61,4.61,0,0,1,4.68-1.07l.6.61a4.87,4.87,0,0,1,.62,6.05,4.8,4.8,0,0,1-5.89,1.54,3,3,0,0,1-1.43-1.35A3.69,3.69,0,0,1,201.68,353.39Z"/><path class="cls-6" d="M154.21,441.73l0,14.84a22.61,22.61,0,0,0,.43,5.39,1.92,1.92,0,0,0,.57,1.11,2.09,2.09,0,0,0,1.26.33l5.29.26c2,.1,4.19.12,5.69-1.17a6,6,0,0,0,1.77-3.73,17.68,17.68,0,0,0-.48-6.94c-.83-3.36-2.27-6.69-3.17-10.05a8,8,0,0,1-.24-4.2,2.19,2.19,0,0,1,.12-.33,43.33,43.33,0,0,0-9.25,1.77,2.83,2.83,0,0,0-1.53.85A2.93,2.93,0,0,0,154.21,441.73Z"/><path class="cls-4" d="M172.59,421.84v-1.11l-5.73-1.2L163,420a42.34,42.34,0,0,0,2.61,6q2.1,4.2,4.19,8.41,3.63,7.24,7.24,14.5,3.42,6.87,6.85,13.74a3.66,3.66,0,0,0,.9,1.29,2.5,2.5,0,0,0,1.56.44,8.78,8.78,0,0,0,1.16-.1c2.62-.37,5.37-.79,7.46-2.41,2.76-2.15,3.51-5.61,3.42-9.23a36.4,36.4,0,0,0-.72-6c-.41-2.11-.8-4.22-1.2-6.33q-1.58-8.28-3.14-16.57V422Z"/><path class="cls-4" d="M165.42,437.24a2.19,2.19,0,0,0-.12.33,8,8,0,0,0,.24,4.2c.9,3.36,2.34,6.69,3.17,10.05l1-.27,5.57-1.79,1.75-.85q-3.62-7.26-7.24-14.5l-1.41.7A3.18,3.18,0,0,0,165.42,437.24Z"/><path class="cls-1" d="M184.5,250.42a3.19,3.19,0,1,0,.33,0Z"/><path class="cls-6" d="M184,465.27c-.78,2.73,1.41,5.59,4.08,6.57s5.64.56,8.44,0c8.21-1.59,16.57-4.28,22.58-10.07,2.66-2.56,4.89-6.31,3.68-9.8a9.21,9.21,0,0,0-4.08-4.51,15.71,15.71,0,0,0-13.09-1.92,11.66,11.66,0,0,0-7.22,7.08c.09,3.62-.66,7.08-3.42,9.23-2.09,1.62-4.84,2-7.46,2.41a8.78,8.78,0,0,1-1.16.1Z"/><path class="cls-5" d="M184.26,400.12l.17.15c2.64,1,5.34,2.05,8.17,2.06s5.83-1.22,7.12-3.71c1.47-2.82.21-6.53-2.33-8.45a11.16,11.16,0,0,0-9-1.57C187.88,392.76,186.88,397.25,184.26,400.12Z"/><path class="cls-5" d="M185.14,235.21l-.31,15.19a3.19,3.19,0,0,1,1.47,6l6.79,13a33.75,33.75,0,0,0,26.48,15.15c.56,0,1.1,0,1.66,0,5.85,0,12.16-2,15.35-6.88,2.29-3.53,2.57-8,2.29-12.19-.81-11.75-6.63-24.09-17.56-28.64l0-1Z"/><path class="cls-4" d="M193.36,422v1.76q1.56,8.28,3.14,16.57l2.19-.41a73.21,73.21,0,0,0,9.46-18.61l-1.21-1.32a11.49,11.49,0,0,1-3,1.42,20.46,20.46,0,0,1-6.3.61Z"/><path class="cls-7" d="M199.4,372.11a3.2,3.2,0,0,0,.6,2.45,4.11,4.11,0,0,0,2.1,1,10.43,10.43,0,0,0,4.11.39,4.41,4.41,0,0,0,3.33-2.18,5,5,0,0,0-.6-4.77,3.17,3.17,0,0,0-1.86-1.56l-.76-.63A6.27,6.27,0,0,0,199.4,372.11Z"/><path class="cls-7" d="M203.37,348.79a5.89,5.89,0,0,0-1.69,4.6,3.69,3.69,0,0,0,.27,1.18,3,3,0,0,0,1.43,1.35,4.8,4.8,0,0,0,5.89-1.54,4.87,4.87,0,0,0-.62-6.05l-.6-.61A4.61,4.61,0,0,0,203.37,348.79Z"/><path class="cls-5" d="M219.57,284.6l-.65,13.19c7.49.8,15.49-.93,22.58-3.42,12.37-4.36,21.14-15.1,29.24-25.34.15.11.29.21.43.33Q276,253.19,280.79,237l-2.11-4c-5.42,3.34-11.83,3.82-22.64,3.61l-34.71-.69,0,1c10.93,4.55,16.75,16.89,17.56,28.64.28,4.2,0,8.66-2.29,12.19-3.19,4.88-9.5,6.84-15.35,6.88C220.67,284.64,220.13,284.63,219.57,284.6Zm27.49-33a3.22,3.22,0,1,1,3.54,2.85A3.21,3.21,0,0,1,247.06,251.64Z"/><path class="cls-1" d="M249.94,248.14a3.19,3.19,0,1,0,3.53,2.85A3.21,3.21,0,0,0,249.94,248.14Z"/><path class="cls-3" d="M289.37,218.89c-.9.09-1.68.18,1.62.39Z"/><path class="cls-8" d="M291,219.28l-1.62-.39c-39.68-9.46-89.88-11.75-139.21-5.55-6.79.86-14,.23-20,3.55a16.79,16.79,0,0,0-4,3.11c-3.28,3.47-5.12,8.29-3.83,12.66a10.93,10.93,0,0,0,.49,1.31l1.77,0,60.52,1.2,36.19.72,34.71.69c10.81.21,17.22-.27,22.64-3.61,4.16-2.56,7.74-6.81,12.31-13.73-3.3-.21-2.52-.3-1.62-.39s1.61-.14.1-.28c-.37,0-.87-.07-1.55-.12"/><path class="cls-8" d="M121.83,218.61c-2.55-1.49-4.77-3.74-7-5.74-2.58-2.25-5.25-4.2-8.58-4.42-9.07-.62-12.85,13.45-6.53,19.92,5.62,5.77,14.67,6.2,22.69,4.29,1-.22,2-.49,2.91-.79"/><path class="cls-8" d="M122.08,218.75A23,23,0,0,0,125,220a12,12,0,0,1-2.94-1.22"/><path class="cls-8" d="M122.08,218.75l-.1-.05-.15-.09"/><path class="cls-8" d="M289.48,217.78c-2.76-34.35-27.55-65.56-60-77.76s-71-5.61-98.47,15.39c-10.62,8.11-20.07,18.88-22.59,31.94a31.52,31.52,0,0,0,6.38,25.52,23.16,23.16,0,0,0,7,5.74"/><path class="cls-8" d="M280.79,237q-4.82,16.19-9.62,32.37l-.24.83"/><path class="cls-8" d="M221.31,236.93c10.93,4.55,16.75,16.89,17.56,28.64.28,4.2,0,8.66-2.29,12.19-3.19,4.88-9.5,6.84-15.35,6.88-.56,0-1.1,0-1.66,0a33.75,33.75,0,0,1-26.48-15.15"/><path class="cls-8" d="M124,233.46a6.73,6.73,0,0,1,.62.55c5.25,5.13,1,14.42-3.13,20.82-4.32,6.64-7.18,17.44,0,20.81,3.8,1.78,8.52.07,12.43,1.63a28.1,28.1,0,0,1,8.1,4.41,11.35,11.35,0,0,0,2.48,1.28c.67.26,1.39.5,2.16.73a45,45,0,0,0,10.69,1.84c18.59,0,32.9,1.5,53.5,10.23a28.18,28.18,0,0,0,8,2c7.49.8,15.49-.93,22.58-3.42,12.37-4.36,21.14-15.1,29.24-25.34.15.11.29.21.43.33,9.4,7.14,10.85,20.94,8.56,32.54-2.52,12.72-8.74,25-18.79,33.27a43.23,43.23,0,0,1-22.14,9.53,36,36,0,0,1-14.51-1.18c-10.95-3.27-19.49-11.63-29.42-17.24-9.08-5.13-19.26-7.94-29.34-10.93s-19.95-6.14-28.54-11.94a16.43,16.43,0,0,1-5.7-5.69c-3.37-6.52,6.1-15.92,13.23-14.76a6.65,6.65,0,0,1,2.16.73"/><path class="cls-8" d="M172.26,421.84h.33l20.77.11,4.32,0a20.46,20.46,0,0,0,6.3-.61,11.49,11.49,0,0,0,3-1.42c2.73-1.81,4.8-4.68,6.5-7.53,6.46-10.72,10.18-22.64,12.7-34.93,1.91-9.35,3.11-18.92,4.27-28.35"/><path class="cls-8" d="M165.18,318l-.62.6c-6.34,6.29-8.55,15.65-10,24.49a267.37,267.37,0,0,0-3.47,41.52c0,2.91,0,5.9,1.19,8.58,2.18,5.11,7.43,7.52,13.14,8.73a62.3,62.3,0,0,0,7.9,1.06c2.62.21,5.36.39,7.78-.61a8.78,8.78,0,0,0,3.16-2.24c2.62-2.87,3.62-7.36,4.16-11.52.05-.39.1-.78.14-1.17l-14.45-2.36a2.7,2.7,0,0,1-1.56-.62,2.62,2.62,0,0,1-.48-1.7,176.39,176.39,0,0,1,.86-25.28"/><path class="cls-8" d="M188.24,388.64l.18,0a11.16,11.16,0,0,1,9,1.57c2.54,1.92,3.8,5.63,2.33,8.45-1.29,2.49-4.3,3.72-7.12,3.71s-5.53-1-8.17-2.06"/><path class="cls-8" d="M165.24,403.44l-.3.65a25.26,25.26,0,0,0-2.22,11.17,4.61,4.61,0,0,0,.6,2.48c.74,1.14,2.21,1.51,3.55,1.79l5.73,1.2"/><path class="cls-8" d="M163,420a42.34,42.34,0,0,0,2.61,6q2.1,4.2,4.19,8.41,3.63,7.24,7.24,14.5,3.42,6.87,6.85,13.74a3.66,3.66,0,0,0,.9,1.29,2.5,2.5,0,0,0,1.56.44,8.78,8.78,0,0,0,1.16-.1c2.62-.37,5.37-.79,7.46-2.41,2.76-2.15,3.51-5.61,3.42-9.23a36.4,36.4,0,0,0-.72-6c-.41-2.11-.8-4.22-1.2-6.33q-1.58-8.28-3.14-16.57"/><path class="cls-8" d="M197.91,455.7a9.3,9.3,0,0,1,.5-3.06,11.66,11.66,0,0,1,7.22-7.08,15.71,15.71,0,0,1,13.09,1.92A9.21,9.21,0,0,1,222.8,452c1.21,3.49-1,7.24-3.68,9.8-6,5.79-14.37,8.48-22.58,10.07-2.8.54-5.77,1-8.44,0s-4.86-3.84-4.08-6.57"/><path class="cls-8" d="M208.14,421.26a73.21,73.21,0,0,1-9.46,18.61"/><path class="cls-8" d="M238.83,346.73c.16,14.69-.16,34.66,0,49.35a2.51,2.51,0,0,1-.31,1.51,1.26,1.26,0,0,1-.31.3,3.58,3.58,0,0,1-1.24.47c-1.49.34-3.29.59-4.32-.52a4.14,4.14,0,0,1-.83-1.68,155,155,0,0,1-4.69-18.49"/><path class="cls-8" d="M238.6,398.64c.91,2.85,3,6.83,2.45,9.78s-2.81,5.79-5.82,6a2.12,2.12,0,0,1-1.38-.3,2.59,2.59,0,0,1-.77-1.19c-1.6-4.17-1-10.63-.43-15.06"/><path class="cls-8" d="M208.05,347.72a4.61,4.61,0,0,0-4.68,1.07,5.89,5.89,0,0,0-1.69,4.6,3.69,3.69,0,0,0,.27,1.18,3,3,0,0,0,1.43,1.35,4.8,4.8,0,0,0,5.89-1.54,4.87,4.87,0,0,0-.62-6.05"/><path class="cls-8" d="M206.32,366.83a6.27,6.27,0,0,0-6.92,5.28,3.2,3.2,0,0,0,.6,2.45,4.11,4.11,0,0,0,2.1,1,10.43,10.43,0,0,0,4.11.39,4.41,4.41,0,0,0,3.33-2.18,5,5,0,0,0-.6-4.77,3.17,3.17,0,0,0-1.86-1.56"/><path class="cls-8" d="M175.31,449.76l-5.57,1.79"/><path class="cls-8" d="M168.41,435.11a3.18,3.18,0,0,0-3,2.13,2.19,2.19,0,0,0-.12.33,8,8,0,0,0,.24,4.2c.9,3.36,2.34,6.69,3.17,10.05a17.68,17.68,0,0,1,.48,6.94,6,6,0,0,1-1.77,3.73c-1.5,1.29-3.71,1.27-5.69,1.17l-5.29-.26a2.09,2.09,0,0,1-1.26-.33,1.92,1.92,0,0,1-.57-1.11,22.61,22.61,0,0,1-.43-5.39l0-14.84a2.93,2.93,0,0,1,.43-1.87,2.83,2.83,0,0,1,1.53-.85,43.33,43.33,0,0,1,9.25-1.77l.88-.06"/></g></g></svg>