<svg xmlns="http://www.w3.org/2000/svg" viewBox="0 0 365.92 682.63"><defs><style>.cls-1{fill:#211815;}.cls-2{fill:#727171;}.cls-3{fill:#f9ede8;}.cls-4{fill:#ebf5f7;}.cls-5{fill:#c4305a;}.cls-6{fill:#2a1006;}.cls-7{fill:none;stroke:#211815;stroke-miterlimit:10;stroke-width:5px;}</style></defs><g id="レイヤー_2" data-name="レイヤー 2"><g id="レイヤー_1-2" data-name="レイヤー 1"><path class="cls-1" d="M65.52,73c-.9-.25-19.6-4.76-36.41-14.76A71.75,71.75,0,0,1,2.46,68.63,2.2,2.2,0,0,1,0,66.75v-.33a2.19,2.19,0,0,1,1.89-2.13A67.94,67.94,0,0,0,25,55.6c-2.05-1.4-4.1-2.87-6.07-4.43a2.12,2.12,0,0,1-.24-3,2.19,2.19,0,0,1,3-.32A77.84,77.84,0,0,0,29,53.05a52.62,52.62,0,0,0,10.9-10.16H27.55a2.14,2.14,0,0,1-2.13-2.22,2.06,2.06,0,0,1,2.13-2.13H44.2a2,2,0,0,1,1.88,1.15A2.14,2.14,0,0,1,46,41.9a57.1,57.1,0,0,1-13,13.61C49,64.45,66.34,68.63,66.5,68.72a2.16,2.16,0,0,1,1.64,2.62A2.22,2.22,0,0,1,65.52,73ZM4.26,26.73c.09-.08,4.27-4.67,6.4-7.46a2.34,2.34,0,0,1,3.28-.49,2.37,2.37,0,0,1,.49,3.36C12.22,25.09,8,29.77,7.79,29.93a2.38,2.38,0,0,1-3.53-3.2ZM34.19,2.38V8.77H55.1a2,2,0,0,1,2-1.64,2.13,2.13,0,0,1,2.14,2.14v1.64A2.12,2.12,0,0,1,57.15,13H40V32.88a2.38,2.38,0,1,1-4.76,0V13H6.48a2.14,2.14,0,0,1,0-4.27h23V2.38a2.38,2.38,0,1,1,4.75,0ZM23.37,36.74a2.21,2.21,0,0,1,.57,3A79.84,79.84,0,0,1,11.15,53.55a2.19,2.19,0,0,1-3-.25,2.22,2.22,0,0,1,.24-3.12,73,73,0,0,0,12-13A2.19,2.19,0,0,1,23.37,36.74ZM28,17.3a30.09,30.09,0,0,1-4.75,16.4,2.15,2.15,0,1,1-3.53-2.46A27.42,27.42,0,0,0,23.7,17.3a2.17,2.17,0,1,1,4.34,0ZM58.88,27.88a2.39,2.39,0,0,1-3.69,3c-1.48-1.88-5.66-7-7.3-8.36a2.35,2.35,0,0,1-.25-3.36A2.42,2.42,0,0,1,51,18.86C53.3,20.83,58.3,27.22,58.88,27.88Z"/><path class="cls-1" d="M80,61.09a112.59,112.59,0,0,0,7.79-9.51,2.12,2.12,0,0,1,3-.49,2.27,2.27,0,0,1,.5,3A124.66,124.66,0,0,1,83.15,64a2.18,2.18,0,1,1-3.2-3Zm5.17-50.27,7.54-7.95a2.1,2.1,0,0,1,3-.08,1.91,1.91,0,0,1,.66,1.56,2.09,2.09,0,0,1-.57,1.47s-2,2.22-4.1,4.35c5-.08,9.51-.49,9.51-.49a2.09,2.09,0,0,1,2.38,1.88A2.21,2.21,0,0,1,101.68,14a114.89,114.89,0,0,1-15.09.41,2.15,2.15,0,0,1-1.47-3.61Zm15.82,26.74H90.28v3.19a2.17,2.17,0,0,1-4.34,0V19.19a2.17,2.17,0,0,1,4.34,0v6.72h10.66a2,2,0,1,1,0,4H90.28v3.61h10.66a2,2,0,0,1,2,2A2,2,0,0,1,100.94,37.56ZM105.62,42V22.47H94.3a2.18,2.18,0,1,1,0-4.35h13.53A2.17,2.17,0,0,1,110,20.25V42a2.17,2.17,0,0,1-4.34,0ZM99.88,68.06V52.15a2.38,2.38,0,1,1,4.75,0V65.6h27.88V59.29a1.81,1.81,0,1,1,3.61,0v6.39a2.45,2.45,0,0,1,1.8,2.38,2.38,2.38,0,0,1-2.37,2.38h-33.3A2.38,2.38,0,0,1,99.88,68.06Zm10.74-52.89a2.06,2.06,0,0,1-3-.66l-5.09-7.95a2.13,2.13,0,0,1,.66-2.95,2.21,2.21,0,0,1,3,.65l5.09,8A2.15,2.15,0,0,1,110.62,15.17ZM121,49.61a70.21,70.21,0,0,1,5.17,6.72,2.19,2.19,0,0,1-3.61,2.46,53.24,53.24,0,0,0-4.84-6.31,2.29,2.29,0,0,1,.25-3.12A2.19,2.19,0,0,1,121,49.61Zm3.12-46.49V15.33h17.38a2.19,2.19,0,0,1,2.13,2.22,2.16,2.16,0,0,1-2.13,2.13H121.93a2.18,2.18,0,0,1-2.21-2.13V3.12a2.18,2.18,0,0,1,4.35,0ZM142.68,42.8H121.93a2.2,2.2,0,0,1-2.21-2.21V25.42a2.18,2.18,0,0,1,4.35,0v13h15.58v-4a1.8,1.8,0,0,1,3.6,0v4.1a2.12,2.12,0,0,1,1.56,2.05A2.18,2.18,0,0,1,142.68,42.8ZM125.87,9.35a2,2,0,0,1,1.64-2.54c.08-.09,6.4-1.48,9.68-3.12a2.21,2.21,0,0,1,2.95,1,2.16,2.16,0,0,1-1,2.87c-3.85,2-10.41,3.37-10.74,3.45A2.15,2.15,0,0,1,125.87,9.35Zm14.27,17.14a2.26,2.26,0,0,1-1,3,61.87,61.87,0,0,1-10.74,3.44,2.14,2.14,0,0,1-2.54-1.64,2.07,2.07,0,0,1,1.64-2.62,52.88,52.88,0,0,0,9.68-3A2.18,2.18,0,0,1,140.14,26.49ZM146,59.29a2.12,2.12,0,0,1-3-.5,65.18,65.18,0,0,0-4.84-6.31,2.21,2.21,0,0,1,.16-3.12,2.31,2.31,0,0,1,3.12.25c2.54,3,5,6.56,5.16,6.72A2.12,2.12,0,0,1,146,59.29Z"/><path class="cls-1" d="M165.48,23.94a2.23,2.23,0,0,1,3-.82,11.8,11.8,0,0,0,5.16,1.48c2.55-.16,5.66-.33,8.94-.66,0-2.21-.16-4.42-.33-6.39a46.31,46.31,0,0,0-1.55-6.07A2,2,0,0,1,182,8.77a2.16,2.16,0,0,1,2.79,1.32,35.65,35.65,0,0,1,1.72,7.05c.24,2,.33,4.18.41,6.48l8.94-.74,6.06-.49a72.76,72.76,0,0,0,.41-8,12.72,12.72,0,0,0-1.72-5.25,2.17,2.17,0,0,1,.74-3,2.2,2.2,0,0,1,2.95.74c.25.41,2.38,4.1,2.38,7.54,0,2.21-.08,4.84-.33,7.63A152.43,152.43,0,0,1,222,21.16,2.3,2.3,0,0,1,224,23.45a2.2,2.2,0,0,1-2.37,2.05c-2.38-.16-8.61.33-15.83.9-1.8,13.86-6.48,31.25-15.33,40.35a2.15,2.15,0,0,1-3.12-3c8-8.29,12.3-24,14-37.07l-5.16.49L187,28c.08,6.56-.16,12.47-.16,12.79a2.14,2.14,0,0,1-2.3,2,2.11,2.11,0,0,1-2.05-2.21c0-.08.25-5.82.16-12.3-3.28.33-6.31.49-8.77.66a15.51,15.51,0,0,1-7.54-2.05A2.15,2.15,0,0,1,165.48,23.94Z"/><path class="cls-1" d="M302.42,22.22c-6.81,10.25-34.53,34.2-43.71,38.79-4.59,2.29-9.27-4.84-10.58-7a2.28,2.28,0,0,1,.82-3,2.19,2.19,0,0,1,3,.82c1.56,2.71,4,5.33,4.92,5.41,8.7-4.42,35.59-27.79,42-37.39a2.18,2.18,0,0,1,3.61,2.46Zm-50.27-7.13c6.15,2.05,12.46,7.38,12.79,7.62a2.2,2.2,0,0,1,.25,3,2.23,2.23,0,0,1-3.12.33c0-.09-6-5.09-11.31-6.89a2.15,2.15,0,0,1-1.4-2.71A2.2,2.2,0,0,1,252.15,15.09Z"/><path class="cls-1" d="M338.5,14.6c.49-1.4-.58-3.94-1.23-4.92a2.26,2.26,0,0,1,.82-3,2.2,2.2,0,0,1,3,.82c.24.49,2.79,4.84,1.64,8.53-4,12.46-14.19,21.73-14.6,22.14a2.1,2.1,0,0,1-3-.16,2.18,2.18,0,0,1,.08-3C325.29,34.85,334.89,26,338.5,14.6ZM349.57,37a123.62,123.62,0,0,0,10.66-18.69c-3.53.32-9,.65-13.53.65a2.14,2.14,0,0,1-2.22-2.13,2.21,2.21,0,0,1,2.22-2.21c7,0,16.72-1,16.81-1a2.12,2.12,0,0,1,2,.9,2,2,0,0,1,.24,2.14,130.76,130.76,0,0,1-12.46,22.79c1.72,1.31,2.95,2.22,3.11,2.3a2.16,2.16,0,0,1-2.62,3.44l-3-2.21c-11.15,15-21.81,22.14-22.38,22.55a2.21,2.21,0,0,1-3-.58,2.36,2.36,0,0,1-.32-1.23,2.27,2.27,0,0,1,.9-1.8c.16-.08,10.41-7,21.15-21.4a67.64,67.64,0,0,0-8.77-5.17,2.19,2.19,0,0,1-1.07-2.87,2.12,2.12,0,0,1,2.87-1.06A67.83,67.83,0,0,1,349.57,37Z"/><path class="cls-1" d="M143,523.31c.81.24,1.29.33,1.29.63s-.18.31-.3.39c-.39.25-.48.39-.66,1.11,0,.18-.18.81-.18.93a.44.44,0,0,0,.42.45,2.39,2.39,0,0,0,.45-.09,22.62,22.62,0,0,0,3.54-1,1.27,1.27,0,0,1,.51-.16c.72,0,1,2.28,1,2.41,0,.56-.72.68-1.47.83-1.17.27-3,.63-4.23.81-.69.12-.81.87-.81,1.2s.27.39.48.39c.06,0,.15,0,.24,0,.6-.06,1.35-.15,1.95-.15,4.65,0,8.82,2.37,8.82,7.5,0,6.81-8.49,9.39-9.48,9.39-.66,0-1.38-1.83-1.38-2.4,0-.33.33-.36.66-.45,3.15-.84,7-2.64,7-6.42a4.13,4.13,0,0,0-3-4.29c-.45,0-.63.39-.81.75a27,27,0,0,1-4,5.73.78.78,0,0,0-.3.6c0,.09.15,1,.18,1.11v.15c0,.57-1.62,1.59-2.28,1.59a.54.54,0,0,1-.51-.42c-.06-.15-.12-.3-.33-.3a.74.74,0,0,0-.33.12,8.61,8.61,0,0,1-4.44,1.62,3.35,3.35,0,0,1-3.39-3.6c0-4,3.81-7.65,7.2-9.27.18-.09.87-.24.87-1.68a.47.47,0,0,0-.51-.51c-.12,0-.54.06-.66.06-1.11.09-2.22.24-3.33.24-1.32,0-1.5,0-1.5-1.4s.18-1.6.72-1.6,1,0,1.56,0c1,0,2,0,3.06-.12a1.15,1.15,0,0,0,.81-.27,1.18,1.18,0,0,0,.3-.81c.15-1,.27-2.1.42-3.18,0-.27.15-.47.48-.47S142.64,523.22,143,523.31Zm-8.37,18.06c0,.57.27.9.84.9a8,8,0,0,0,3.6-1.68,1.09,1.09,0,0,0,.36-.93c0-.27-.09-1.53-.09-2.46,0-.3,0-.6,0-.87s-.06-.51-.36-.51C138.35,535.82,134.6,538.94,134.6,541.37Zm7.89-7.26c-.33.21-.3.81-.3,1.47v.36c0,.48,0,1.2.3,1.2.51,0,1.62-2.16,1.86-2.64a1.33,1.33,0,0,0,.18-.48c0-.21-.21-.27-.39-.27A4.28,4.28,0,0,0,142.49,534.11Z"/><path class="cls-1" d="M169.67,528.8c.21.09.54.18.54.42s-.15.27-.27.33c-.48.3-.51.57-.63,1.17-.24,1.38-.42,2.79-.72,4.17a4.55,4.55,0,0,0-.09.63c0,.18.09.36.3.36a.67.67,0,0,0,.39-.18c2.22-1.56,4-2.76,6.87-2.76,3.69,0,6.54,2.46,6.54,6.24,0,4.26-3.18,6.06-6.81,7.14a20.05,20.05,0,0,1-3.9.81c-.66,0-.84-.27-1.11-.84a6.24,6.24,0,0,1-.51-1.95c0-.48.36-.51.75-.54a20,20,0,0,0,4-.6c2.13-.54,4.35-1.47,4.35-4,0-2.07-1.68-3.18-3.6-3.18-3.15,0-6.33,2.64-8.22,5-.24.3-.48.63-.9.63-.27,0-2.28-.3-2.28-1.17a4.61,4.61,0,0,1,.3-1.05c.27-1,.51-1.95.69-2.94a47.92,47.92,0,0,0,.72-6.54c0-.24,0-.45,0-.66,0-.86,0-1.32.51-1.32A21.3,21.3,0,0,1,169.67,528.8Zm.54-6.47a20.66,20.66,0,0,1,3.42,1.88c.45.27,2.19,1.23,2.19,1.74s-1.23,2.37-1.86,2.37c-.33,0-.72-.42-1-.6a24.55,24.55,0,0,0-3.78-2.55c-.3-.17-.69-.33-.69-.66S169.49,522.33,170.21,522.33Z"/><path class="cls-1" d="M199.67,528.8c.21.09.54.18.54.42s-.15.27-.27.33c-.48.3-.51.57-.63,1.17-.24,1.38-.42,2.79-.72,4.17a4.55,4.55,0,0,0-.09.63c0,.18.09.36.3.36a.67.67,0,0,0,.39-.18c2.22-1.56,4-2.76,6.87-2.76,3.69,0,6.54,2.46,6.54,6.24,0,4.26-3.18,6.06-6.81,7.14a20.05,20.05,0,0,1-3.9.81c-.66,0-.84-.27-1.11-.84a6.24,6.24,0,0,1-.51-1.95c0-.48.36-.51.75-.54a20,20,0,0,0,4-.6c2.13-.54,4.35-1.47,4.35-4,0-2.07-1.68-3.18-3.6-3.18-3.15,0-6.33,2.64-8.22,5-.24.3-.48.63-.9.63-.27,0-2.28-.3-2.28-1.17a4.61,4.61,0,0,1,.3-1.05c.27-1,.51-1.95.69-2.94a47.92,47.92,0,0,0,.72-6.54c0-.24,0-.45,0-.66,0-.86,0-1.32.51-1.32A21.3,21.3,0,0,1,199.67,528.8Zm.54-6.47a20.66,20.66,0,0,1,3.42,1.88c.45.27,2.19,1.23,2.19,1.74s-1.23,2.37-1.86,2.37c-.33,0-.72-.42-1-.6a24.55,24.55,0,0,0-3.78-2.55c-.3-.17-.69-.33-.69-.66S199.49,522.33,200.21,522.33Z"/><path class="cls-1" d="M225,544a2.28,2.28,0,0,1-2.37,2.43,2,2,0,0,1-2.16-2.1,2.28,2.28,0,0,1,2.4-2.4A2,2,0,0,1,225,544Z"/><path class="cls-1" d="M232.76,544a2.28,2.28,0,0,1-2.37,2.43,2,2,0,0,1-2.16-2.1,2.28,2.28,0,0,1,2.4-2.4A2,2,0,0,1,232.76,544Z"/><path class="cls-1" d="M240.56,544a2.28,2.28,0,0,1-2.37,2.43,2,2,0,0,1-2.16-2.1,2.28,2.28,0,0,1,2.4-2.4A2,2,0,0,1,240.56,544Z"/><path class="cls-1" d="M248.36,544a2.28,2.28,0,0,1-2.37,2.43,2,2,0,0,1-2.16-2.1,2.28,2.28,0,0,1,2.4-2.4A2,2,0,0,1,248.36,544Z"/><path class="cls-1" d="M75.77,579.69c-1.35,0-2.7.09-4,.09-.84,0-.78-.48-.78-1.77s-.06-1.77.78-1.77c1.32,0,2.67.09,4,.09H92.09c1.35,0,2.7-.09,4-.09.84,0,.78.48.78,1.77s.06,1.77-.78,1.77c-1.35,0-2.67-.09-4-.09Z"/><path class="cls-1" d="M107.27,584.58c-.18,0-.24.15-.27.33v1.83c0,1.26.09,2.55.09,3.81,0,.84-.42,1-1.62,1s-1.59-.24-1.59-1.08c0-1.23.06-2.49.06-3.72V577.8c0-.15-.06-.3-.21-.3a.31.31,0,0,0-.24.12c-.27.39-1.17,1.68-1.62,1.68s-1.68-1.92-1.68-2.4a1.16,1.16,0,0,1,.39-.69,28.36,28.36,0,0,0,5.55-10.92c.06-.24.09-.6.42-.6a16,16,0,0,1,2.07.64c.75.26,1.32.42,1.32.8s-.3.42-.51.48c-.51.18-.54.33-.75.93-.48,1.32-1.44,3.51-2,4.74a.59.59,0,0,0,0,.21.36.36,0,0,0,.33.36c.33.07.69.09.69.48s-.12.3-.3.42c-.36.3-.33.87-.33,2.73v6.12c0,.21.09.36.33.36a.54.54,0,0,0,.27-.12,29.19,29.19,0,0,0,6.6-8.46.42.42,0,0,0,.09-.27c0-.42-.45-.45-.57-.45h-1.53c-1,0-2.07.06-3.12.06-.72,0-.69-.39-.69-1.5s-.06-1.53.69-1.53c1.05,0,2.07.06,3.12.06h2.67c.6,0,.84-.24.84-.83v-2.47a13.73,13.73,0,0,0-.09-2,1.46,1.46,0,0,1,0-.36c0-.36.24-.41.54-.41s2.28.17,2.82.2c.21,0,.45.06.45.37s-.18.26-.36.44c-.33.27-.36,1-.36,2v2.2c.06.59.27.83.84.83h3.6c1,0,2.07-.06,3.12-.06.72,0,.69.39.69,1.53s0,1.5-.69,1.5c-1,0-2.07-.06-3.12-.06h-2.52c-.27,0-.51.12-.51.42a.42.42,0,0,0,.09.27,32.11,32.11,0,0,0,6.93,8.25c.21.18.45.39.45.66,0,.51-1.17,2.16-1.8,2.16-.36,0-.6-.3-2-1.68a30.21,30.21,0,0,1-4.68-6.18.3.3,0,0,0-.21-.12c-.12,0-.18.15-.21.27V583c.06.6.27.84.84.84s1.35-.06,2-.06c.87,0,.84.45.84,1.5s0,1.5-.81,1.5c-.69,0-1.35-.09-2-.06s-.81.21-.81.78c0,1,.06,2.1.06,3.12s-.33.93-1.53.93-1.59,0-1.59-.93.06-2.07.06-3.09c0-.6-.27-.81-.84-.81s-1.44.06-2.16.06-.81-.45-.81-1.5,0-1.5.81-1.5,1.44.09,2.16.06.84-.24.84-.84v-5c0-.15-.06-.24-.18-.24a.23.23,0,0,0-.21.12,32.61,32.61,0,0,1-5.58,7.11c-.24.24-.63.63-1,.63s-1-.57-1.26-.84A.37.37,0,0,0,107.27,584.58Z"/><path class="cls-1" d="M140.66,566.61c.84,0,.78.42.84,1.11.18,1.83.57,3.6.93,5.4.09.39.18.9.69.9s4.44-2.37,5.16-2.82a2,2,0,0,1,.78-.33c.51,0,1.95,2.58,1.95,3.06,0,.3-.36.39-.57.45a50.4,50.4,0,0,0-6.24,2.82c-2,1.08-6.57,3.36-6.57,6a2.63,2.63,0,0,0,2,2.19,12.14,12.14,0,0,0,4,.51,40.84,40.84,0,0,0,4.68-.3c.54-.06,2.67-.39,3.12-.48a1,1,0,0,1,.3,0c.42,0,.45,1.23.45,1.92v.36c0,.81-.06,1.11-.84,1.26-1.35.24-6.42.42-8,.42a12.11,12.11,0,0,1-6.24-1.26,5.22,5.22,0,0,1-2.73-4.65c0-3,2.1-5,4.47-6.54.36-.24.72-.42.72-.93a1.24,1.24,0,0,0-.09-.48c-.42-1.14-1.2-4.22-1.53-5.55a15.94,15.94,0,0,0-.57-1.95,2.1,2.1,0,0,1-.09-.36c0-.42.93-.48,2-.63A10.72,10.72,0,0,1,140.66,566.61Zm12.06,2.16a9.85,9.85,0,0,1,1.14,2c0,.45-1.23,1.14-1.59,1.14s-.3-.18-.57-.63c-.39-.69-.87-1.5-1.32-2.16-.12-.18-.42-.54-.42-.72,0-.36,1.26-1,1.59-1S152.54,568.5,152.72,568.77Zm3.15-2a10.32,10.32,0,0,1,1.11,1.95c0,.49-1.26,1.17-1.59,1.17s-.33-.24-.42-.42c-.57-1-1.14-1.83-1.8-2.82a.57.57,0,0,1-.09-.24c0-.42,1.29-1,1.59-1S155.6,566.34,155.87,566.73Z"/><path class="cls-1" d="M181.73,579c0,4.71-3.48,8.43-7.29,10.74a8.84,8.84,0,0,1-2.58,1.11c-.9,0-2.13-2-2.13-2.52,0-.3.33-.42.6-.51,3.6-1.14,8-4.41,8-8.58a3.87,3.87,0,0,0-4.17-4.14c-2.52,0-4.56,1.26-6.42,2.82a1.36,1.36,0,0,1-.63.3c-.72,0-1.68-2.16-1.68-2.85,0-.48.54-.75.9-.93a17.23,17.23,0,0,1,8-2.43C178.64,572,181.73,574.62,181.73,579Zm-12.45-12.75c.12-.27.24-.57.6-.57a1.05,1.05,0,0,1,.48.18,31.38,31.38,0,0,0,7.5,1.5c.42,0,.75,0,.75.48a12.92,12.92,0,0,1-.3,1.83c-.15.6-.33.9-.81.9a63.42,63.42,0,0,1-6.9-1.35c-1.26-.33-1.92-.48-1.92-1A7,7,0,0,1,169.28,566.28Z"/><path class="cls-1" d="M201.32,567.51c.21,0,.6.16.6.42s-.18.3-.36.45c-1.05.79-1.32,10.29-1.32,12,0,2.34-.06,6,3.18,6a7.6,7.6,0,0,0,5.64-2.91,9.54,9.54,0,0,0,1.83-4.44c.09-.48.15-1,.6-1,.66,0,2.49,1.53,2.49,2.43a11.15,11.15,0,0,1-1.23,3.51,10.5,10.5,0,0,1-9.12,5.73,6.63,6.63,0,0,1-5.28-2.31c-1.35-1.8-1.5-4.71-1.5-6.9q0-3.56.27-7.11c.09-1.38.36-4.26.36-5.49v-.33c0-.45,0-.75.45-.75A25.45,25.45,0,0,1,201.32,567.51Z"/><path class="cls-1" d="M234.17,565.47c.27.09,1.11.3,1.11.63,0,.15-.18.24-.27.31-.45.26-.48.38-.69,1-.09.33-.72,2.52-.72,2.67a.44.44,0,0,0,.45.45,21.16,21.16,0,0,0,3.48-1.11,1.61,1.61,0,0,1,.63-.15c.6,0,.6,1.83.6,2.28s-.06.93-.57,1.08a45.14,45.14,0,0,1-4.92,1.17c-.87.18-1,.33-1.23,1.17a93.46,93.46,0,0,1-5.58,13.23c-.39.72-.63,1.14-1.08,1.14s-2.55-1-2.55-1.62a2.24,2.24,0,0,1,.51-1,59.07,59.07,0,0,0,5.31-11.1,4.58,4.58,0,0,0,.24-.78c0-.3-.24-.45-.54-.45s-1.74.15-2.67.15c-.6,0-1.08,0-1.26-.54a12.88,12.88,0,0,1-.24-2.19c0-.33.09-.54.45-.54s1.53.12,2.82.12c1.92,0,2.37,0,2.64-.48a27.49,27.49,0,0,0,1.11-5.46c0-.45,0-.75.33-.75S233.78,565.35,234.17,565.47Zm-.42,19.35c1.32,1.47,3.6,1.74,5.43,1.74a13.55,13.55,0,0,0,4.26-.6,1.07,1.07,0,0,1,.3-.06c.51,0,.51.69.51,1.89,0,.6,0,1.29-.33,1.5a28.67,28.67,0,0,1-4.68.39c-2,0-4.74-.24-6.42-1.35-.48-.33-1.47-1.08-1.47-1.71,0-.45,1.38-2.22,1.86-2.22C233.42,584.4,233.63,584.67,233.75,584.82Zm3.66-9.69a21.52,21.52,0,0,1,6,.84.56.56,0,0,1,.42.6,7.54,7.54,0,0,1-.57,2.1c-.12.27-.24.39-.54.39a1.61,1.61,0,0,1-.63-.15,13.47,13.47,0,0,0-4.77-.75c-.39,0-.75,0-1.14,0-.6,0-.75-.15-.75-.66C235.46,575,236,575.13,237.41,575.13Z"/><path class="cls-1" d="M272.57,570.9a10.16,10.16,0,0,1,3,7.38,10.78,10.78,0,0,1-5.85,9.69,11.67,11.67,0,0,1-3.27,1.2c-.78,0-2-1.86-2-2.52,0-.3.45-.36.75-.42,3.93-.93,7-3.51,7-7.8a7.28,7.28,0,0,0-4.8-7.17,5.21,5.21,0,0,0-1.14-.26c-.69,0-.69.65-.72,1.17-.33,4.37-1.38,9.71-4.26,13.16a5.37,5.37,0,0,1-4,2.31,4.84,4.84,0,0,1-4.08-2.85,9.4,9.4,0,0,1-.93-4.26,12.36,12.36,0,0,1,12.45-12.6A10.67,10.67,0,0,1,272.57,570.9Zm-11.67.87a9.28,9.28,0,0,0-5.4,8.64c0,1.11.39,3.9,1.92,3.9s3.18-3.42,4-6.48a30.51,30.51,0,0,0,1-5.85c0-.3-.15-.54-.48-.54A3.37,3.37,0,0,0,260.9,571.77Z"/><path class="cls-1" d="M292.55,583.17c-.6,0-.69-.18-.69-1,0-3.06,1.83-4.8,3.81-6.45,1-.87,1.77-1.71,1.77-2.76,0-1.47-1.23-2.46-3.51-2.46a6.06,6.06,0,0,0-4.62,2.28c-.24.3-.42.48-.6.48s-.36-.15-.63-.42l-1.2-1.2c-.27-.27-.39-.45-.39-.66s.12-.36.36-.63a9.65,9.65,0,0,1,7.32-3.08c4.29,0,6.84,2.36,6.84,5.21,0,2.58-1.44,3.93-3.48,5.58-1.38,1.14-2.43,2.37-2.43,4.26,0,.72-.09.87-.66.87Zm3.27,4.2a2.19,2.19,0,0,1-2.31,2.31,2,2,0,0,1-2.07-2,2.24,2.24,0,0,1,2.31-2.4A2,2,0,0,1,295.82,587.37Z"/><path class="cls-1" d="M91.85,623.38c.39,0,.48.27.54.57.63,3.18,3.18,3.63,6,3.63a37.36,37.36,0,0,0,8.94-1.05,2.39,2.39,0,0,1,.45-.09c.45,0,.66.51.66,2.46,0,.57-.15.93-.72,1.11a54.83,54.83,0,0,1-9,.84c-3.12,0-6.48-.39-8.43-3.12a7,7,0,0,1-1.17-2.91C89.12,624.07,91.82,623.38,91.85,623.38Zm.51-10.46c.09-.52.15-1.06.72-1.06A4.49,4.49,0,0,1,94,612a18.91,18.91,0,0,0,5.1.63,26.17,26.17,0,0,0,5.43-.59,1.18,1.18,0,0,1,.39-.07c.75,0,.78,1.35.78,2.58,0,.72-.15.78-.84.9a40.93,40.93,0,0,1-5.43.36c-1.65,0-5.37-.15-6.84-.75a.62.62,0,0,1-.42-.63A10.09,10.09,0,0,1,92.36,612.92Z"/><path class="cls-1" d="M121,621.73a92.77,92.77,0,0,1,6.27-10.59c.45-.72.84-1.35,1.23-2.06.09-.16.24-.46.45-.46a7.57,7.57,0,0,1,1.68,1.14c.3.21,1.38,1,1.38,1.29s-.27.45-.54.48a1.3,1.3,0,0,0-.78.39c-.6.66-1.38,1.75-1.89,2.46a39,39,0,0,0-3,4.8.32.32,0,0,0,.3.3,1.2,1.2,0,0,0,.54-.21,6.74,6.74,0,0,1,3.18-1A3.56,3.56,0,0,1,133,620a5,5,0,0,1,.33,1.89,15.79,15.79,0,0,1-.39,2.91,17.15,17.15,0,0,0-.48,2.94c0,.51.18,1.14.78,1.14,1.68,0,4.53-3.63,5.46-4.95.15-.18.36-.42.6-.42.54,0,1.56,2.37,1.56,2.79a1.16,1.16,0,0,1-.33.66c-.69.69-1.38,1.38-2.1,2-1.65,1.5-3.69,3.15-6,3.15-2.13,0-3-1.83-3-3.72a19.32,19.32,0,0,1,.39-3.48,13.51,13.51,0,0,0,.33-2.43c0-.78-.27-1.38-1.14-1.38a5.59,5.59,0,0,0-2.58.84,8.91,8.91,0,0,0-3.06,2.73,20.77,20.77,0,0,0-2.76,6.3c-.09.39-.15.93-.66.93s-2.88-.87-2.88-1.38c0,0,.51-1.26.54-1.32C118.7,626.74,119.81,624.22,121,621.73Z"/><path class="cls-1" d="M158.75,608.92c.15.06.48.16.48.36s-.21.33-.48.55a5.05,5.05,0,0,0-.54,1.59,9.29,9.29,0,0,0-.33,1.34.35.35,0,0,0,.33.39,14.52,14.52,0,0,0,1.71-.45,1.07,1.07,0,0,1,.3-.06c.36,0,.39.54.45.9a14.24,14.24,0,0,1,.15,1.59c0,.66-.36.72-3.12,1.23-1.08.18-1,.39-1.41,1.38a76.34,76.34,0,0,1-4.89,10.68c-.18.3-.27.42-.6.42-.66,0-2.67-.87-2.67-1.5a3.32,3.32,0,0,1,.54-1.08,56,56,0,0,0,3.57-6.93,11.73,11.73,0,0,0,.69-1.83.4.4,0,0,0-.42-.39c-.24,0-2.55.3-3.24.3-.51,0-.63-.27-.75-1-.06-.36-.21-1.44-.21-1.74s.21-.48.54-.48h1.38a26.64,26.64,0,0,0,3.09-.15c.39-.06.66-.08.9-.48a18.31,18.31,0,0,0,1-5c0-.21,0-.51.27-.51S158.27,608.77,158.75,608.92Zm4.32,8.94c.33.09.6.27.6.63,0,.06-.06,1-.06,1.59,0,.87.15,5.19.3,5.82.09.45.48.57.93.75l.3.12c.69.27,4.23,1.92,4.23,2.64,0,.48-1.11,2.19-1.86,2.19-.3,0-.57-.27-.78-.42a8.53,8.53,0,0,0-2.4-1.38c-.33,0-.45.42-.48.69-.36,2.19-2.13,2.94-4.17,2.94-2.43,0-5.28-1.29-5.28-4.08s2.61-3.72,5-3.72h.78c.36,0,.63-.15.63-.51,0-1-.45-5.31-.54-6.48,0-.15,0-.27,0-.42,0-.48.27-.66.72-.66A12.56,12.56,0,0,1,163.07,617.86Zm-5.61,11.43c0,.93,1.2,1.41,2,1.41,1.08,0,1.56-.57,1.56-1.62,0-.6,0-.93-1.53-.93C158.75,628.15,157.46,628.33,157.46,629.29Zm13.11-11.46c0,.72-1.71,2.07-2.25,2.07-.3,0-.51-.33-.66-.54a17,17,0,0,0-3.75-3.87c-.12-.09-.39-.27-.39-.48,0-.42,1.38-2.07,2-2.07S170.57,617.05,170.57,617.83Z"/><path class="cls-1" d="M181.22,616c.48,0,1-.18,1-.75v-2c0-1.69-.12-3.28-.12-3.31,0-.21.09-.3.3-.3a21.72,21.72,0,0,1,2.22.15c.75.06,1.38.15,1.38.42a.51.51,0,0,1-.18.3c-.39.49-.36.72-.36,2.67v2.07a.77.77,0,0,0,.78.78h5.28c.42,0,.75-.27.75-.86,0-1.09-.06-4.21-.12-5.11,0-.12,0-.23,0-.36a.38.38,0,0,1,.39-.36c.42,0,2.1.18,2.58.21s.93.06.93.33-.12.28-.33.48a9.59,9.59,0,0,0-.18,2.52V614c0,.3,0,.6,0,.9v.18c0,.6.27.93.87.93h.81c.93,0,2.91-.06,3.54-.06s.75.24.75,1.41c0,1.5-.09,1.77-.84,1.77-1.17,0-2.31-.06-3.45-.06h-.81c-.93,0-.93.63-.93,1-.09,5.22-.6,8.85-5.28,11.94a12.34,12.34,0,0,1-3,1.53,5,5,0,0,1-2.19-2.19c0-.24.27-.39.48-.48,5.7-2.37,6.75-4.86,6.75-10.86,0-.51-.21-1-.78-1h-5.22a.77.77,0,0,0-.78.75v2.85c0,.84.06,1.65.06,2.49,0,1.32-.15,1.2-1.95,1.2-1.05,0-1.41,0-1.41-.75,0-1,.06-1.92.06-2.88v-2.88a.8.8,0,0,0-.81-.78h-.93c-1.17,0-2.37.09-3.36.09-.75,0-.78-.63-.78-1.38,0-1.44,0-1.83.75-1.83s2.22.06,3.39.06Z"/><path class="cls-1" d="M231.41,617.83c0,.51-1.2,1.68-1.59,2.07a52.11,52.11,0,0,1-16.29,11.31c-1,.48-1,.51-1.26,1a.3.3,0,0,1-.3.18c-.33,0-1-1.2-1.17-1.56a8.41,8.41,0,0,1-.9-1.8c0-.33.54-.39.93-.51,6.63-1.95,14.13-7.62,18.39-13a.72.72,0,0,1,.51-.32C230.33,615.17,231.41,617.38,231.41,617.83Zm-15.48-5c.39.27,1.83,1.26,1.83,1.71,0,.69-1.41,2.31-2,2.31a3.21,3.21,0,0,1-1.2-.81,37.42,37.42,0,0,0-4-2.79c-.24-.15-.48-.3-.48-.57,0-.45,1.2-2.37,1.89-2.37C212.48,610.36,215.36,612.46,215.93,612.88Z"/><path class="cls-1" d="M255.17,613a8.87,8.87,0,0,0,1.83-.15,1.07,1.07,0,0,1,.3-.06c.51,0,1.56,1.56,1.56,2a.84.84,0,0,1-.18.45,6.79,6.79,0,0,0-.75,1.47,54.21,54.21,0,0,1-2.85,5.58,1,1,0,0,0-.21.6c0,.39.27.57.54.78s1.68,1.17,1.68,1.56-1.35,2.28-1.92,2.28a.67.67,0,0,1-.45-.24c-.42-.36-.81-.66-1.23-1a1,1,0,0,0-.66-.3c-.42,0-.75.42-1,.72a23.82,23.82,0,0,1-6.54,5.07,16.2,16.2,0,0,1-3.63,1.53c-.78,0-2.16-1.92-2.16-2.34s.51-.45,1.29-.69a21,21,0,0,0,8.58-5.4,1.17,1.17,0,0,0,.45-.75.73.73,0,0,0-.36-.63c-.69-.45-2.25-1.26-3-1.62-.3-.12-.9-.33-.9-.66s1.17-2.25,1.83-2.25a22.29,22.29,0,0,1,3.87,1.95,1.27,1.27,0,0,0,.57.18c.57,0,.84-.57,1.65-2.16a3.43,3.43,0,0,1,.18-.42,9.37,9.37,0,0,0,.78-2c0-.63-.78-.59-1.23-.59h-5.73c-.72,0-.93.23-1.32.77a44.11,44.11,0,0,1-3.9,4.62,1.6,1.6,0,0,1-1,.57c-.54,0-2.49-1.26-2.49-1.77,0-.24.27-.45.45-.57a27.61,27.61,0,0,0,7.83-10.77c.09-.24.21-.75.54-.75a7,7,0,0,1,1.68.73c.27.11,1.77.77,1.77,1s-.15.27-.3.33c-.45.18-.48.27-.9,1-.12.21-.27.48-.48.81a1.68,1.68,0,0,0-.24.63c0,.3.27.42.54.45Z"/><path class="cls-1" d="M273.68,611c.24.09.78.31.78.6s-.12.24-.27.3c-.69.33-.87.6-1.23,1.53a27.7,27.7,0,0,0-1.65,9.12c0,.48.09,3.33.66,3.33.21,0,.36-.39.66-1.08.15-.33.45-1.32.81-1.32s1.29.6,1.29,1-1.47,3.72-1.47,5.46c0,.48.06,1,.06,1.44,0,1.17-2.13,1.53-2.28,1.53-.51,0-.75-.57-1-1a21.6,21.6,0,0,1-1.77-9.24,34.46,34.46,0,0,1,1.05-8.4c.33-1.32.75-2.61,1.08-3.93,0-.21.12-.5.39-.5a12,12,0,0,1,1.92.77C273.14,610.78,273.5,611,273.68,611Zm11.94-.86c.15,0,.3.09.3.26s-.18.33-.33.6a4.2,4.2,0,0,0-.33,2.13V614c0,.42.18.77.63.77a19.07,19.07,0,0,0,3-.75,3.58,3.58,0,0,1,.45-.09c.6,0,.81,2.07.81,2.52s-.21.78-3.75,1.26c-.66.09-1,.21-1,1s.21,5.19.24,6,.36.84,1,1.17a16.66,16.66,0,0,1,3.24,2.1c.36.3.78.63.78,1.14,0,.69-1.05,2.07-1.74,2.07a1.37,1.37,0,0,1-.84-.45,8.53,8.53,0,0,0-2.22-1.65c-.3,0-.39.24-.45.48-.54,1.92-2.55,2.52-4.35,2.52-2.4,0-5-1.14-5-3.9s2.37-3.78,4.71-3.78a7.68,7.68,0,0,1,1.17.09h.21c.42,0,.6-.24.6-.63,0-.75-.15-3.6-.18-4.47,0-.3,0-1.14-.72-1.14-.24,0-2.37.12-3.57.12h-.39a6.66,6.66,0,0,1-2.28-.24c-.27-.18-.3-1.89-.3-2.28s0-.75.48-.75,3,.3,4.59.3h.48c.72,0,1.41-.06,1.41-.72s-.24-3.54-.36-4.29c0-.08,0-.21,0-.3a.37.37,0,0,1,.42-.42A26.53,26.53,0,0,1,285.62,610.16ZM281,627c-.69,0-2.16.24-2.16,1.17s1.44,1.29,2.19,1.29c1.14,0,1.89-.42,1.89-1.65C282.89,627,281.54,627,281,627Z"/><path class="cls-1" d="M108.31,671.4c3.46.54,7.6,1.44,7.6,5.33,0,3.06-2.88,5.9-9.69,5.9-5.36,0-8-2-8-4.75a5.34,5.34,0,0,1,2.56-4.25c.43-.29.61-.47.61-.68a1.56,1.56,0,0,0-.36-.72,3.17,3.17,0,0,1,.25-3.67c.29-.36.43-.54.43-.72s-.18-.4-.5-.72a5.67,5.67,0,0,1-1.55-4.07c0-3.71,2.73-6.48,7.77-6.48a10.11,10.11,0,0,1,1.12,0c1.15.1,2.34.18,3.46.18h.57c1.05,0,2.38,0,2.85,0,.75,0,.86.18.86,1v1.47c0,.79-.11,1-.79,1H115c-.47,0-.61.1-.61.39a3.19,3.19,0,0,0,.07.54,6.23,6.23,0,0,1,.14,1.44c0,3.75-2.48,6.52-7.63,6.52a8.16,8.16,0,0,1-1.4-.08c-.22,0-.65-.1-.8-.1-.36,0-.57.25-.57.72C104.21,670.57,105.54,671,108.31,671.4Zm-3.27,3a2.09,2.09,0,0,0-1.16.43,3.2,3.2,0,0,0-1.58,2.49c0,1.4,1.69,2.19,4.28,2.19,3.17,0,5.22-1,5.22-2.34s-2-2-4.53-2.41c-.54-.11-1.12-.18-1.62-.29A5,5,0,0,0,105,674.35Zm-1.48-11.12c0,1.62,1.33,2.81,3.56,2.81,2.74,0,3.75-1.7,3.75-3.28S109.5,660,107.38,660C104.71,660,103.56,661.57,103.56,663.23Z"/><path class="cls-1" d="M136.86,665.6c0,6-3.85,9.83-9.54,9.83-5.11,0-8.89-3.49-8.89-9,0-5.79,3.56-9.9,9.54-9.9C133,656.53,136.86,660.1,136.86,665.6Zm-14.26.87c0,3.31,2,5.47,4.83,5.47,3.09,0,5.25-2.41,5.25-6,0-3.38-2.08-5.51-4.89-5.51C124.4,660.42,122.6,663,122.6,666.47Z"/><path class="cls-1" d="M159.07,674c0,.9-.18,1.11-1,1.26a18.09,18.09,0,0,1-2,.14c-4.39,0-5.91-2.16-5.91-5.8v-8.27c0-.72-.1-.9-.72-.9-.43,0-1,0-1.22,0-.94,0-1.08-.14-1.08-1.08v-1.47c0-.94.14-1.08,1.08-1.08l1.26,0c.61,0,.68-.11.68-.86,0-1.12-.07-3.17-.07-3.42,0-.76.22-.9,1.05-.9h2c.82,0,1,.14,1,.9,0,.25-.07,2.16-.07,3.42,0,.75.11.86.83.86h1l2.12,0c.94,0,1.08.14,1.08,1v1.55c0,.9-.14,1-1.08,1l-2.12,0h-.72c-.9,0-1.08.18-1.08,1.08V669c0,2,.86,2.73,2.73,2.73.69,0,1.52-.21,1.77-.21.43,0,.5.25.5.93Z"/><path class="cls-1" d="M180.89,665.6c0,6-3.86,9.83-9.54,9.83-5.11,0-8.89-3.49-8.89-9,0-5.79,3.56-9.9,9.54-9.9C177.07,656.53,180.89,660.1,180.89,665.6Zm-14.26.87c0,3.31,2,5.47,4.83,5.47,3.09,0,5.25-2.41,5.25-6,0-3.38-2.09-5.51-4.9-5.51C168.43,660.42,166.63,663,166.63,666.47Z"/><path class="cls-1" d="M197.12,669.46c0,1.62.08,4.6.08,4.86,0,.75-.22.9-1,.9h-2.09c-.82,0-1-.15-1-.9,0-.26.07-3.24.07-4.86V654.41c0-1.62-.07-4.61-.07-4.86,0-.76.22-.9,1-.9h2.09c.83,0,1,.14,1,.9,0,.25-.08,3.24-.08,4.86v3.09c0,.51.08.76.29.76A1.36,1.36,0,0,0,198,658a8.09,8.09,0,0,1,4.68-1.44c3.7,0,6.19,2.45,6.19,6.45v6.48c0,1.62.07,4.6.07,4.86,0,.75-.22.9-1,.9H205.8c-.83,0-1.05-.15-1.05-.9,0-.26.08-3.24.08-4.86v-5.37c0-2.19-1.16-3.67-3.53-3.67a5.58,5.58,0,0,0-3.38,1.19,1.72,1.72,0,0,0-.8,1.62Z"/><path class="cls-1" d="M228.41,672.66a1.65,1.65,0,0,1,.21.68c0,.33-.21.51-.72.76a13.41,13.41,0,0,1-5.9,1.33c-6.41,0-9.07-4.21-9.07-9.07,0-5.58,3.53-9.83,9.1-9.83,4.61,0,7.28,3.17,7.28,8.72,0,1.83-.29,2.12-1.23,2.12H217.9c-.65,0-.9.11-.9.54a4.72,4.72,0,0,0,.75,2c.83,1.3,2.27,2.06,4.61,2.06a8.58,8.58,0,0,0,4-1,1.86,1.86,0,0,1,.72-.28c.29,0,.43.25.68.75Zm-3-9.11a4.07,4.07,0,0,0-.51-1.69,3.15,3.15,0,0,0-3-1.73,4.6,4.6,0,0,0-4,2,3.48,3.48,0,0,0-.65,1.47c0,.29.26.4.83.4h6.37C225.13,664,225.38,663.91,225.42,663.55Z"/><path class="cls-1" d="M239.93,675.29c-.36,0-.72,0-1.08,0-4.18,0-5.58-1.69-5.58-5.94v-15c0-1.48-.07-4.61-.07-4.86,0-.76.21-.9,1-.9h2.09c.82,0,1,.14,1,.9,0,.25-.07,3.24-.07,4.86V669c0,1.84.39,2.7,2.23,2.74.29,0,.72-.07.9-.07.36,0,.5.18.5.68v1.84C240.93,675,240.75,675.22,239.93,675.29Z"/><path class="cls-1" d="M251.23,675.29c-.36,0-.72,0-1.08,0-4.17,0-5.58-1.69-5.58-5.94v-15c0-1.48-.07-4.61-.07-4.86,0-.76.21-.9,1-.9h2.09c.83,0,1,.14,1,.9,0,.25-.07,3.24-.07,4.86V669c0,1.84.4,2.7,2.23,2.74.29,0,.72-.07.9-.07.36,0,.51.18.51.68v1.84C252.24,675,252.06,675.22,251.23,675.29Z"/><path class="cls-1" d="M267.31,671.09A2.21,2.21,0,0,1,265,673.4a2,2,0,0,1-2.07-2,2.24,2.24,0,0,1,2.31-2.4A2,2,0,0,1,267.31,671.09Zm-2.7-4.41c-.75,0-.9-.15-.93-.9l-.21-7.59c-.06-1.8-.27-5.82-.27-6.42s.18-.63.84-.63h2.1c.66,0,.84.12.84.63s-.21,4.62-.27,6.6l-.18,7.41c0,.75-.18.9-.93.9Z"/><ellipse class="cls-2" cx="157.46" cy="465.01" rx="86.57" ry="20.3"/><rect class="cls-3" x="199.72" y="421.19" width="10.46" height="31.93" transform="translate(409.9 874.32) rotate(-180)"/><path class="cls-4" d="M106.38,188.61c-9-.62-12.75,13.45-6.48,19.92,5.58,5.77,14.56,6.2,22.53,4.29-1.28-4.37.54-9.19,3.8-12.66l-1.16,0a11.88,11.88,0,0,1-2.92-1.22l-.1,0-.15-.09a23.09,23.09,0,0,1-7-5.74C112.34,190.78,109.69,188.83,106.38,188.61Z"/><path class="cls-5" d="M108.57,167.51A31.68,31.68,0,0,0,114.9,193c2.27,2,4.47,4.25,7,5.74l.15.09.1,0a22.75,22.75,0,0,0,2.92,1.22l1.16,0a16.63,16.63,0,0,1,4-3.11c5.93-3.32,13.06-3.5,19.85-3.55q68.43-.47,136.71,5.66l.05-.51,1.5.1,0-.81c-2.74-34.35-27.35-65.56-59.58-77.76s-70.45-5.61-97.77,15.39C120.45,143.68,111.07,154.45,108.57,167.51Z"/><path class="cls-3" d="M218.94,264.76c.55,0,1.09,0,1.64,0,5.81,0,12.08-2,15.24-6.88,2.28-3.53,2.56-8,2.28-12.19-.81-11.75-6.58-24.09-17.44-28.64l0-1-96-1.92c5.21,5.13,1,14.42-3.11,20.82-4.29,6.64-7.13,17.44,0,20.81,3.78,1.78,8.46.07,12.34,1.63a27.83,27.83,0,0,1,8.05,4.41,10.92,10.92,0,0,0,2.46,1.28,6.54,6.54,0,0,1,2.14.73,44.47,44.47,0,0,0,10.61,1.84c18.46,0,32.67,1.5,53.12,10.23a27.79,27.79,0,0,0,8,2Z"/><path class="cls-4" d="M286.74,199.16Q218.57,193,150,193.5c-6.79.05-13.92.23-19.85,3.55a16.63,16.63,0,0,0-4,3.11c-3.26,3.47-5.08,8.29-3.8,12.66a10.86,10.86,0,0,0,.48,1.31l1.76,0,96,1.92,34.46.69a131.44,131.44,0,0,0,24.29-1.33c11.23-1.88,21.43-6.19,27.53-15.51l-18.67-1.19-1.5-.1Z"/><path class="cls-4" d="M270.17,249.52c-.14-.12-.28-.22-.43-.33-8,10.24-16.75,21-29,25.34-7,2.49-15,4.22-22.42,3.42a27.79,27.79,0,0,1-8-2c-20.45-8.73-34.66-10.19-53.12-10.23a44.47,44.47,0,0,1-10.61-1.84c-.76-.23-1.48-.47-2.14-.73-7.08-1.16-16.48,8.24-13.14,14.76a16.4,16.4,0,0,0,5.66,5.69c10.6,7.21,23.23,10.33,35.58,14.11,7.57,2.31,15,4.87,21.88,8.76,9.86,5.61,18.34,14,29.21,17.24.66.2,1.32.38,2,.53,11.9,2.79,25-1,34.41-8.88,10-8.28,16.15-20.55,18.65-33.27C280.94,270.46,279.5,256.66,270.17,249.52Z"/><path class="cls-3" d="M217.14,375.53h2.28l.1-.1a29.92,29.92,0,0,0,6.38,4.41,1.05,1.05,0,0,0,.74.15c.45-.14.64-.78.56-1.29-3-17.29-4.69-32.34-2.09-52.47l.49-2c-.66-.15-1.32-.33-2-.53-10.87-3.27-19.35-11.63-29.21-17.24-6.84-3.89-14.31-6.45-21.88-8.76-5.17,0-10.63,1.78-12.79,6.95s-2.5,11-2.89,16.67q-1.32,19.33-4.09,38.51a36.93,36.93,0,0,1-2.09,8.95c-1.53,3.67-4.24,7.75-2.44,11.26a17.13,17.13,0,0,0,9.69-4.82l.92.42Z"/><path class="cls-4" d="M212,419.49a6.69,6.69,0,0,0,3.24-1.22c1.84-1.53,2-4.46,2-7q-.06-17.86-.1-35.73l-58.3.09a261.93,261.93,0,0,0-2.57,44.61l5.43.95q7.56,1.31,15.11,2.64l1.34.23a5.15,5.15,0,0,0,3.34-.18c1.63-.88,2-3.15,2.57-5.07.81-3,2.48-6,5.12-7.14s6.27.23,6.92,3.28c.36,1.67-.15,3.61.74,5,1,1.66,3.26,1.53,5.07,1.23l9.85-1.66Z"/><path class="cls-6" d="M158.09,457.35a14.49,14.49,0,0,0-.35,7.08,3.1,3.1,0,0,0,.5,1.35,2.67,2.67,0,0,0,1.35.73,36.06,36.06,0,0,0,23.57-1.21,2.82,2.82,0,0,0,1.21-.77,2.62,2.62,0,0,0,.5-1.17,7,7,0,0,0-2.45-6.38,14.24,14.24,0,0,0-6.08-2.75c-.9-.22-1.81-.42-2.72-.6a53,53,0,0,0-12.06-.94A8.68,8.68,0,0,0,158.09,457.35Z"/><path class="cls-3" d="M162.05,451.7l.28.57a5.75,5.75,0,0,0-.77.42,53,53,0,0,1,12.06.94,125.72,125.72,0,0,0,2.75-27.32l.44-2.49q-7.55-1.33-15.11-2.64l-.4,2.29q0,13.57,0,27.15a1.34,1.34,0,0,0,.31,1.07A.39.39,0,0,0,162.05,451.7Z"/><path class="cls-6" d="M210.34,451.87a39.63,39.63,0,0,0-5.82,2.09,68.49,68.49,0,0,0-7,3.74c10.44,7.36,23.74,7.45,36.2,7.26,2.51,0,5.48-.36,6.72-2.76a5.71,5.71,0,0,0-.92-5.91,11.39,11.39,0,0,0-5-3.2A39.12,39.12,0,0,0,210.34,451.87Z"/><path class="cls-3" d="M218.94,264.76,218.29,278c7.44.8,15.38-.93,22.42-3.42,12.28-4.36,21-15.1,29-25.34.15.11.29.21.43.33q4.77-16.17,9.55-32.37l-.29-1.7a131.44,131.44,0,0,1-24.29,1.33l-34.46-.69,0,1c10.86,4.55,16.63,16.89,17.44,28.64.28,4.2,0,8.66-2.28,12.19-3.16,4.88-9.43,6.84-15.24,6.88C220,264.8,219.49,264.79,218.94,264.76Z"/><path class="cls-7" d="M289.84,199.44c-1-.1-2.07-.19-3.1-.27h0Q218.57,193,150,193.5c-6.79.05-13.92.23-19.85,3.55a16.63,16.63,0,0,0-4,3.11c-3.26,3.47-5.08,8.29-3.8,12.66a10.86,10.86,0,0,0,.48,1.31l1.76,0,96,1.92,34.46.69a131.44,131.44,0,0,0,24.29-1.33c11.23-1.88,21.43-6.19,27.53-15.51l-18.67-1.19-1.5-.1"/><path class="cls-7" d="M121.9,198.77c-2.53-1.49-4.73-3.74-7-5.74-2.56-2.25-5.21-4.2-8.52-4.42-9-.62-12.75,13.45-6.48,19.92,5.58,5.77,14.56,6.2,22.53,4.29,1-.22,1.95-.49,2.89-.79"/><path class="cls-7" d="M122.15,198.91a22.75,22.75,0,0,0,2.92,1.22,11.88,11.88,0,0,1-2.92-1.22"/><path class="cls-7" d="M122.15,198.91l-.1,0-.15-.09"/><path class="cls-7" d="M288.34,197.94c-2.74-34.35-27.35-65.56-59.58-77.76s-70.45-5.61-97.77,15.39c-10.54,8.11-19.92,18.88-22.42,31.94A31.68,31.68,0,0,0,114.9,193a23.09,23.09,0,0,0,7,5.74"/><path class="cls-7" d="M279.72,217.15q-4.79,16.18-9.55,32.37l-.24.83"/><path class="cls-7" d="M220.66,217.09c10.86,4.55,16.63,16.89,17.44,28.64.28,4.2,0,8.66-2.28,12.19-3.16,4.88-9.43,6.84-15.24,6.88-.55,0-1.09,0-1.64,0a33.45,33.45,0,0,1-26.29-15.15"/><path class="cls-7" d="M124.06,213.62a8.18,8.18,0,0,1,.61.55c5.21,5.13,1,14.42-3.11,20.82-4.29,6.64-7.13,17.44,0,20.81,3.78,1.78,8.46.07,12.34,1.63a27.83,27.83,0,0,1,8.05,4.41,10.92,10.92,0,0,0,2.46,1.28c.66.26,1.38.5,2.14.73a44.47,44.47,0,0,0,10.61,1.84c18.46,0,32.67,1.5,53.12,10.23a27.79,27.79,0,0,0,8,2c7.44.8,15.38-.93,22.42-3.42,12.28-4.36,21-15.1,29-25.34.15.11.29.21.43.33,9.33,7.14,10.77,20.94,8.49,32.54-2.5,12.72-8.67,25-18.65,33.27-9.45,7.84-22.51,11.67-34.41,8.88-.66-.15-1.32-.33-2-.53-10.87-3.27-19.35-11.63-29.21-17.24-6.84-3.89-14.31-6.45-21.88-8.76-12.35-3.78-25-6.9-35.58-14.11a16.4,16.4,0,0,1-5.66-5.69c-3.34-6.52,6.06-15.92,13.14-14.76a6.54,6.54,0,0,1,2.14.73"/><path class="cls-7" d="M215.5,344.5c.52,9.53,0,18.4,2.67,28.55"/><path class="cls-7" d="M163.93,341.92a110.55,110.55,0,0,1-3.9,30.8c-.14.53-.28,1.06-.43,1.6"/><path class="cls-7" d="M219.42,375.53h-2.28l-58.3.09a261.93,261.93,0,0,0-2.57,44.61l5.43.95q7.56,1.31,15.11,2.64l1.34.23a5.15,5.15,0,0,0,3.34-.18c1.63-.88,2-3.15,2.57-5.07.81-3,2.48-6,5.12-7.14s6.27.23,6.92,3.28c.36,1.67-.15,3.61.74,5,1,1.66,3.26,1.53,5.07,1.23l9.85-1.66.24,0a6.69,6.69,0,0,0,3.24-1.22c1.84-1.53,2-4.46,2-7q-.06-17.86-.1-35.73c0-.82,0-1.63,0-2.45"/><path class="cls-7" d="M198.05,422.33q0,16.71,0,33.41c0,.35.05.79.36.9s.43-.62.13-.51"/><path class="cls-7" d="M212,419.48h0a208.59,208.59,0,0,1-1.66,32.38c-.05.42-.1.84-.16,1.26"/><path class="cls-7" d="M176.37,426.31a125.72,125.72,0,0,1-2.75,27.32"/><path class="cls-7" d="M161.3,423.47q0,13.57,0,27.15a1.34,1.34,0,0,0,.31,1.07.39.39,0,0,0,.46,0,.33.33,0,0,0,.18-.45"/><path class="cls-7" d="M196.57,458.29c.33-.2.66-.4,1-.59a68.49,68.49,0,0,1,7-3.74,39.63,39.63,0,0,1,5.82-2.09,39.12,39.12,0,0,1,24.26,1.22,11.39,11.39,0,0,1,5,3.2,5.71,5.71,0,0,1,.92,5.91c-1.24,2.4-4.21,2.73-6.72,2.76-12.46.19-25.76.1-36.2-7.26-.2-.13-.4-.28-.59-.42"/><path class="cls-7" d="M161.56,452.69a53,53,0,0,1,12.06.94c.91.18,1.82.38,2.72.6a14.24,14.24,0,0,1,6.08,2.75,7,7,0,0,1,2.45,6.38,2.62,2.62,0,0,1-.5,1.17,2.82,2.82,0,0,1-1.21.77,36.06,36.06,0,0,1-23.57,1.21,2.67,2.67,0,0,1-1.35-.73,3.1,3.1,0,0,1-.5-1.35,14.49,14.49,0,0,1,.35-7.08,8.68,8.68,0,0,1,3.47-4.66,5.75,5.75,0,0,1,.77-.42l.07,0"/><path class="cls-7" d="M172.53,297.68c-5.17,0-10.63,1.78-12.79,6.95s-2.5,11-2.89,16.67q-1.32,19.33-4.09,38.51a36.93,36.93,0,0,1-2.09,8.95c-1.53,3.67-4.24,7.75-2.44,11.26a17.13,17.13,0,0,0,9.69-4.82,17.94,17.94,0,0,0,2.11-2.48c.11-.14.21-.29.31-.44"/><path class="cls-7" d="M225.11,326.23c-2.6,20.13-.87,35.18,2.09,52.47.08.51-.11,1.15-.56,1.29a1.05,1.05,0,0,1-.74-.15,29.92,29.92,0,0,1-6.38-4.41c-.63-.57-1.24-1.16-1.82-1.78"/><circle class="cls-1" cx="184.16" cy="229.95" r="2.25"/><circle class="cls-1" cx="181.91" cy="325.13" r="2.25"/><circle class="cls-1" cx="249.41" cy="229.18" r="2.25"/><circle class="cls-1" cx="205.26" cy="326.23" r="2.25"/></g></g></svg>