<svg xmlns="http://www.w3.org/2000/svg" viewBox="0 0 430.5 674.21"><defs><style>.cls-1{fill:#211815;}.cls-2{fill:#727171;}.cls-3{fill:#ebf5f7;}.cls-4{fill:#f9ede8;}.cls-5{fill:#c4305a;}.cls-6{fill:#2a1006;}.cls-7{fill:none;stroke:#211815;stroke-miterlimit:10;stroke-width:5.5px;}</style></defs><g id="レイヤー_2" data-name="レイヤー 2"><g id="レイヤー_1-2" data-name="レイヤー 1"><path class="cls-1" d="M33.54,60.48C29.52,54,30,40.07,35.1,21.2a8.31,8.31,0,0,0-1.4-6.8,2.11,2.11,0,0,1,.25-3,2.18,2.18,0,0,1,3,.24,12.66,12.66,0,0,1,2.71,7.71,13.18,13.18,0,0,1-.41,3c-2.71,10.09-4.1,18.86-4.1,25.51a34.4,34.4,0,0,0,.57,6.23c1.89-3.45,4-7.46,4-7.46a2.18,2.18,0,0,1,2.95-.91,2.26,2.26,0,0,1,.91,3L37.31,60.4a2.28,2.28,0,0,1-1.8,1.15A2.3,2.3,0,0,1,33.54,60.48Zm54-2.37a2,2,0,0,1,.49,1.31,2.22,2.22,0,0,1-3.94,1.39c-2.13-2.79-5.9-5-9.92-6.56-.57,5.66-4.26,9.1-10.08,9.1s-12.3-3.44-12.3-7.79c0-3.28,1.88-5.74,5.41-7,3.2-1.14,7.79-1.06,12.63-.08-.08-2.13-.08-4.26-.08-4.26-.17-3.69-.25-7.71-.33-11.56a40.87,40.87,0,0,1-10.5.08,8.61,8.61,0,0,1-6.23-3,7.42,7.42,0,0,1-1.4-5.08,2.15,2.15,0,0,1,2.46-1.8,2.24,2.24,0,0,1,1.89,2.37c-.16.9.08,2.87,3.69,3.28a37.52,37.52,0,0,0,10.09-.16,54.9,54.9,0,0,1,.73-9.43,2.24,2.24,0,0,1,2.63-1.64,2.27,2.27,0,0,1,1.72,2.13c0,.17-.08.33-.08.49a39.06,39.06,0,0,0-.66,7.38c4.1-1.31,7.3-3.44,9-6.23a2.19,2.19,0,0,1,3-.74,2.13,2.13,0,0,1,.65,3c-2.38,4-7,7-12.71,8.52,0,4.1.17,8.53.33,12.3,0,0,0,3,.08,5.66C79.54,51.46,84.63,54.33,87.58,58.11ZM55.35,11.45a2.2,2.2,0,0,1,2.95-.74,9.49,9.49,0,0,0,4.84,1.15A48.56,48.56,0,0,0,76,8.82a2.17,2.17,0,1,1,1.8,3.94,51.67,51.67,0,0,1-14.19,3.36,13.33,13.33,0,0,1-7.54-1.72A2.13,2.13,0,0,1,55.35,11.45ZM70,53c-4.35-1.06-8.61-1.31-11.32-.33-2.21.82-2.46,2-2.46,2.87s3.77,3.61,8.2,3.45C68.14,58.93,70,57,70,53Z"/><path class="cls-1" d="M117,21.2a8.35,8.35,0,0,0-1.4-6.8,2.11,2.11,0,0,1,.25-3,2.18,2.18,0,0,1,3,.24,12.66,12.66,0,0,1,2.71,7.71,13.75,13.75,0,0,1-.41,3c-2.71,10.09-4.1,18.86-4.1,25.51a33.53,33.53,0,0,0,.57,6.23c1.89-3.45,4-7.46,4-7.46a2.18,2.18,0,0,1,3-.91,2.15,2.15,0,0,1,.82,3L119.23,60.4a2.15,2.15,0,0,1-3.77.08C111.44,54,111.93,40.07,117,21.2ZM169.5,58.11a2,2,0,0,1,.49,1.31,2.22,2.22,0,0,1-3.94,1.39c-2.13-2.79-5.9-5-10-6.56A9.73,9.73,0,0,1,153,61a10.28,10.28,0,0,1-7,2.37c-5.74,0-12.3-3.44-12.3-7.79,0-3.28,1.89-5.74,5.42-7,3.19-1.14,7.79-1.06,12.63-.08-.09-2.13-.09-4.26-.09-4.26-.16-3.69-.24-7.71-.32-11.56a40.88,40.88,0,0,1-10.5.08,8.61,8.61,0,0,1-6.23-3,7.36,7.36,0,0,1-1.4-5.08,2.15,2.15,0,0,1,2.46-1.8,2.24,2.24,0,0,1,1.89,2.37c-.17.9.08,2.87,3.69,3.28a37.52,37.52,0,0,0,10.09-.16,54.9,54.9,0,0,1,.73-9.43,2.24,2.24,0,0,1,2.63-1.64,2.27,2.27,0,0,1,1.72,2.13c0,.17-.08.33-.08.49a39.06,39.06,0,0,0-.66,7.38c4.1-1.31,7.3-3.44,9-6.23a2.1,2.1,0,0,1,2.95-.74,2.08,2.08,0,0,1,.74,3c-2.38,4-7,7-12.71,8.52,0,4.1.16,8.53.33,12.3,0,0,0,3,.08,5.66C161.46,51.46,166.54,54.33,169.5,58.11ZM137.27,11.45a2.19,2.19,0,0,1,2.95-.74,9.49,9.49,0,0,0,4.84,1.15,48.26,48.26,0,0,0,12.87-3,2.17,2.17,0,0,1,1.81,3.94,51.8,51.8,0,0,1-14.19,3.36A13.33,13.33,0,0,1,138,14.4,2.05,2.05,0,0,1,137.27,11.45ZM151.87,53c-4.35-1.06-8.61-1.31-11.32-.33-2.21.82-2.54,2-2.54,2.87s3.85,3.61,8.28,3.45C150.06,58.93,151.87,57,151.87,53ZM172,11.94a1.64,1.64,0,0,1,0,2.46,1.68,1.68,0,0,1-2.38,0c-.08-.08-2.46-2.38-5.91-5.33a1.79,1.79,0,0,1-.24-2.46,1.71,1.71,0,0,1,2.46-.16A62.19,62.19,0,0,1,172,11.94Zm4.83-3.61a1.64,1.64,0,0,1-2.46,0S172,6,168.43,3.08a1.71,1.71,0,0,1-.16-2.46,1.67,1.67,0,0,1,2.37-.24c3.69,3,6.07,5.41,6.15,5.49A1.78,1.78,0,0,1,176.79,8.33Z"/><path class="cls-1" d="M192.54,22.68a2.23,2.23,0,0,1,3-.82,11.81,11.81,0,0,0,5.17,1.48c2.54-.17,5.65-.33,8.93-.66,0-2.21-.16-4.43-.32-6.39a45.74,45.74,0,0,0-1.56-6.07A2,2,0,0,1,209,7.51a2.16,2.16,0,0,1,2.79,1.31,36.06,36.06,0,0,1,1.72,7c.25,2,.33,4.19.41,6.48l8.94-.73,6.07-.5a75.12,75.12,0,0,0,.41-8,12.56,12.56,0,0,0-1.73-5.25,2.17,2.17,0,0,1,.74-3,2.21,2.21,0,0,1,2.95.73c.25.41,2.38,4.1,2.38,7.55,0,2.21-.08,4.84-.32,7.62,7.13-.57,13-1,15.66-.82a2.32,2.32,0,0,1,2.05,2.3,2.22,2.22,0,0,1-2.38,2c-2.38-.16-8.61.33-15.83.9-1.8,13.86-6.48,31.24-15.33,40.35a2.15,2.15,0,0,1-3.12-3c8-8.28,12.3-24,14-37.06l-5.17.49L214,26.7c.08,6.56-.16,12.46-.16,12.79a2.14,2.14,0,0,1-2.3,2,2.11,2.11,0,0,1-2.05-2.21c0-.09.25-5.82.17-12.3-3.28.33-6.32.49-8.78.65a15.29,15.29,0,0,1-7.54-2.05A2.14,2.14,0,0,1,192.54,22.68Z"/><path class="cls-1" d="M329.48,21C322.67,31.21,295,55.15,285.77,59.75c-4.59,2.29-9.26-4.84-10.58-7.06a2.27,2.27,0,0,1,.82-3,2.2,2.2,0,0,1,3,.82c1.55,2.71,4,5.33,4.92,5.41,8.69-4.43,35.58-27.8,42-37.39A2.18,2.18,0,0,1,329.48,21Zm-50.27-7.13c6.15,2,12.47,7.37,12.79,7.62a2.19,2.19,0,0,1,.25,3,2.22,2.22,0,0,1-3.12.32c0-.08-6-5.08-11.31-6.88a2.16,2.16,0,0,1-1.4-2.71A2.19,2.19,0,0,1,279.21,13.83Z"/><path class="cls-1" d="M365.56,13.33c.49-1.39-.58-3.93-1.23-4.92a2.25,2.25,0,0,1,.82-3,2.19,2.19,0,0,1,3,.82c.25.49,2.79,4.84,1.64,8.53-4,12.46-14.19,21.73-14.6,22.14a2.09,2.09,0,0,1-3-.17,2.17,2.17,0,0,1,.08-3C352.36,33.59,362,24.73,365.56,13.33Zm11.07,22.39A123.26,123.26,0,0,0,387.29,17c-3.53.33-9,.66-13.53.66a2.14,2.14,0,0,1-2.22-2.13,2.21,2.21,0,0,1,2.22-2.22c7,0,16.73-1,16.81-1a2.1,2.1,0,0,1,2,.9,2,2,0,0,1,.24,2.13,129.85,129.85,0,0,1-12.46,22.8c1.72,1.31,2.95,2.21,3.11,2.3a2.16,2.16,0,1,1-2.62,3.44l-3-2.21c-11.16,15-21.82,22.14-22.39,22.55a2.19,2.19,0,0,1-3-.58,2.32,2.32,0,0,1,.57-3c.16-.08,10.41-7,21.16-21.41a68.06,68.06,0,0,0-8.78-5.16,2.19,2.19,0,0,1-1.06-2.87,2.12,2.12,0,0,1,2.87-1.07A68.42,68.42,0,0,1,376.63,35.72Z"/><path class="cls-1" d="M91.08,522.35c.84,0,.78.42.84,1.11.18,1.83.57,3.6.93,5.4.09.39.18.9.69.9s4.44-2.37,5.16-2.82a2,2,0,0,1,.78-.33c.51,0,2,2.58,2,3.06,0,.3-.36.39-.57.45a50.4,50.4,0,0,0-6.24,2.82c-2,1.08-6.57,3.36-6.57,6a2.63,2.63,0,0,0,2,2.19,12.14,12.14,0,0,0,4,.51,40.84,40.84,0,0,0,4.68-.3c.54-.06,2.67-.39,3.12-.48a1,1,0,0,1,.3,0c.42,0,.45,1.23.45,1.92v.36c0,.81-.06,1.11-.84,1.26-1.35.24-6.42.42-8,.42a12.11,12.11,0,0,1-6.24-1.26,5.22,5.22,0,0,1-2.73-4.65c0-3,2.1-5,4.47-6.54.36-.24.72-.42.72-.93a1.24,1.24,0,0,0-.09-.48c-.42-1.14-1.2-4.23-1.53-5.55a15.94,15.94,0,0,0-.57-1.95,2.1,2.1,0,0,1-.09-.36c0-.42.93-.48,2-.63A10.72,10.72,0,0,1,91.08,522.35Zm12.06,2.16a9.58,9.58,0,0,1,1.14,2c0,.45-1.23,1.14-1.59,1.14s-.3-.18-.57-.63c-.39-.69-.87-1.5-1.32-2.16-.12-.18-.42-.54-.42-.72,0-.36,1.26-1,1.59-1S103,524.24,103.14,524.51Zm3.15-2a10,10,0,0,1,1.11,1.95c0,.48-1.26,1.17-1.59,1.17s-.33-.24-.42-.42c-.57-1-1.14-1.83-1.8-2.82a.57.57,0,0,1-.09-.24c0-.42,1.29-1.05,1.59-1.05S106,522.08,106.29,522.47Z"/><path class="cls-1" d="M117.27,536.12c.39,0,.48.27.54.57.63,3.18,3.18,3.63,6,3.63a37.36,37.36,0,0,0,8.94-1.05,2.39,2.39,0,0,1,.45-.09c.45,0,.66.51.66,2.46,0,.57-.15.93-.72,1.11a54.83,54.83,0,0,1-9,.84c-3.12,0-6.48-.39-8.43-3.12a7,7,0,0,1-1.17-2.91C114.54,536.81,117.24,536.12,117.27,536.12Zm.51-10.47c.09-.51.15-1,.72-1a4.49,4.49,0,0,1,.87.18,19.32,19.32,0,0,0,5.1.63,25.52,25.52,0,0,0,5.43-.6,1.52,1.52,0,0,1,.39-.06c.75,0,.78,1.35.78,2.58,0,.72-.15.78-.84.9a40.93,40.93,0,0,1-5.43.36c-1.65,0-5.37-.15-6.84-.75a.62.62,0,0,1-.42-.63A10.4,10.4,0,0,1,117.78,525.65Z"/><path class="cls-1" d="M150.39,522.14a11.14,11.14,0,0,1,1.44-.15c.84,0,.78.45.84,1.14a41,41,0,0,0,.93,5.37c.09.39.18.9.69.9s5.34-2.82,6.12-3.33a1.92,1.92,0,0,1,.78-.3c.39,0,.9.9,1.08,1.2a6,6,0,0,1,.87,1.83c0,.3-.33.39-.57.48a55.17,55.17,0,0,0-7.41,3.45,30.5,30.5,0,0,0-5.4,3.54,3.78,3.78,0,0,0-1.47,2.7c0,1.08,1.05,1.83,2,2.16a12,12,0,0,0,4,.54,45.28,45.28,0,0,0,7.83-.78.83.83,0,0,1,.27,0c.42,0,.45,1.23.45,1.86v.36c0,.78,0,1.11-.63,1.26a71.84,71.84,0,0,1-8.25.48,11.24,11.24,0,0,1-6.15-1.29,5.28,5.28,0,0,1-2.76-4.62c0-3.27,2.7-5.4,5.19-7a.93.93,0,0,0,.51-.78,1,1,0,0,0-.12-.54c-.36-1.08-1.2-4.26-1.5-5.49a19.07,19.07,0,0,0-.57-2,1.58,1.58,0,0,1-.09-.36C148.44,522.29,149.43,522.29,150.39,522.14Z"/><path class="cls-1" d="M184.17,521.66c.15.06.48.15.48.36s-.21.33-.48.54a5.23,5.23,0,0,0-.54,1.59,9.73,9.73,0,0,0-.33,1.35.35.35,0,0,0,.33.39,14.52,14.52,0,0,0,1.71-.45,1.07,1.07,0,0,1,.3-.06c.36,0,.39.54.45.9a14.24,14.24,0,0,1,.15,1.59c0,.66-.36.72-3.12,1.23-1.08.18-1.05.39-1.41,1.38a76.34,76.34,0,0,1-4.89,10.68c-.18.3-.27.42-.6.42-.66,0-2.67-.87-2.67-1.5a3.32,3.32,0,0,1,.54-1.08,56,56,0,0,0,3.57-6.93,11.73,11.73,0,0,0,.69-1.83.4.4,0,0,0-.42-.39c-.24,0-2.55.3-3.24.3-.51,0-.63-.27-.75-1-.06-.36-.21-1.44-.21-1.74s.21-.48.54-.48h1.38a26.64,26.64,0,0,0,3.09-.15c.39-.06.66-.09.9-.48a18.31,18.31,0,0,0,1-5c0-.21,0-.51.27-.51S183.69,521.51,184.17,521.66Zm4.32,8.94c.33.09.6.27.6.63,0,.06-.06,1-.06,1.59,0,.87.15,5.19.3,5.82.09.45.48.57.93.75l.3.12c.69.27,4.23,1.92,4.23,2.64,0,.48-1.11,2.19-1.86,2.19-.3,0-.57-.27-.78-.42a8.53,8.53,0,0,0-2.4-1.38c-.33,0-.45.42-.48.69-.36,2.19-2.13,2.94-4.17,2.94-2.43,0-5.28-1.29-5.28-4.08s2.61-3.72,5-3.72h.78c.36,0,.63-.15.63-.51,0-1-.45-5.31-.54-6.48,0-.15,0-.27,0-.42,0-.48.27-.66.72-.66A12.56,12.56,0,0,1,188.49,530.6ZM182.88,542c0,.93,1.2,1.41,2,1.41,1.08,0,1.56-.57,1.56-1.62,0-.6,0-.93-1.53-.93C184.17,540.89,182.88,541.07,182.88,542ZM196,530.57c0,.72-1.71,2.07-2.25,2.07-.3,0-.51-.33-.66-.54a17,17,0,0,0-3.75-3.87c-.12-.09-.39-.27-.39-.48,0-.42,1.38-2.07,2-2.07S196,529.79,196,530.57Z"/><path class="cls-1" d="M220.2,524.84c0,.3-.42.27-.63.27a1.34,1.34,0,0,0-.81.36q-1.12.81-2.25,1.71c-1.68,1.38-3.39,2.76-4.95,4.26-.57.54-1.23,1.14-1.23,1.71,0,.75,1,1.83,1.5,2.37,1.71,1.83,3.57,3.51,5.43,5.16.51.45,2.58,2.13,2.58,2.73s-1.83,2.43-2.55,2.43c-.33,0-.75-.54-.93-.78-1.14-1.35-2.4-2.61-3.63-3.87-1.62-1.62-3.27-3.24-4.74-5a4.56,4.56,0,0,1-1.44-3.18,3.41,3.41,0,0,1,.66-2.07,29.15,29.15,0,0,1,3.87-3.51,40.92,40.92,0,0,0,5.61-5.31c.12-.15.27-.36.45-.36.39,0,1.26,1,1.59,1.35S220.2,524.51,220.2,524.84Z"/><path class="cls-1" d="M233.34,538.22c-.78,0-1.26-.3-1.26-1.11,0-.45,0-.9,0-1.38v-5.31c0-.51,0-1,0-1.38,0-.87.51-1.11,1.32-1.11.66,0,1.32.06,1.95,0s.84-.24.84-.84v-.3c0-.6-.24-.84-.84-.84h-.27c-.93,0-1.86.06-2.79.06-.69,0-.69-.3-.69-1.26s0-1.23.69-1.23c.93,0,1.86.06,2.79.06h.27c.6,0,.84-.24.84-.81a9.24,9.24,0,0,0-.09-1.83.83.83,0,0,1,0-.27c0-.33.24-.39.51-.39s1,.06,1.32.09c.21,0,.39,0,.57.06.75.06,1.17.09,1.17.42s-.18.3-.36.42c-.36.27-.36.66-.33,1.5,0,.6.24.81.81.81h.42c.93,0,1.86-.06,2.79-.06.69,0,.66.3.66,1.23s0,1.26-.66,1.26c-.93,0-1.86-.06-2.79-.06h-.42c-.57,0-.81.24-.81.84v.3c0,.6.24.84.84.84s1.32,0,2,0c.81,0,1.35.18,1.35,1.11,0,.45,0,.9,0,1.38v5.31c0,.45,0,.9,0,1.38,0,.81-.45,1.11-1.23,1.11s-1.41-.06-2.13,0c-.57,0-.81.24-.81.84v.24c0,.6.24.84.81.84h.63c.93,0,1.89-.06,2.85-.06.66,0,.66.3.66,1.23s0,1.26-.66,1.26c-1,0-1.92-.06-2.85-.06h-.63c-.57,0-.78.21-.81.78,0,.72.06,2.31.06,3s-.33.87-1.41.87-1.47,0-1.47-.93.06-2,.06-2.91c0-.6-.24-.84-.84-.84h-.69c-1,0-1.92.06-2.88.06-.66,0-.63-.3-.63-1.26s0-1.23.63-1.23c1,0,1.92.06,2.88.06h.69c.6,0,.84-.24.84-.84V539c0-.6-.24-.84-.81-.84S234,538.22,233.34,538.22Zm1.86-8a.67.67,0,0,0-.72.69v.39a.69.69,0,0,0,.72.72h.48a.69.69,0,0,0,.72-.72v-.39a.67.67,0,0,0-.72-.69Zm-.72,5a.69.69,0,0,0,.72.72h.48a.69.69,0,0,0,.72-.72v-.48a.69.69,0,0,0-.72-.72h-.48a.69.69,0,0,0-.72.72Zm6.24-4.32a.67.67,0,0,0-.72-.69h-.54a.65.65,0,0,0-.72.69v.39a.68.68,0,0,0,.72.72H240a.69.69,0,0,0,.72-.72Zm-.72,5a.69.69,0,0,0,.72-.72v-.48A.69.69,0,0,0,240,534h-.54a.68.68,0,0,0-.72.72v.48a.68.68,0,0,0,.72.72Zm7.95,3.72c-.93,0-2.07.06-2.7.06s-.72-.45-.72-1.44,0-1.38.72-1.38,1.77.06,2.7.06h.24c.6,0,.84-.27.84-.84a14.73,14.73,0,0,0-.09-2.31,1,1,0,0,1,0-.3c0-.33.21-.42.51-.42s2.07.15,2.55.21c.24,0,.72.06.72.39s-.18.27-.42.45c-.39.27-.42.66-.39,2,0,.57.3.81.84.81h.69c1,0,1.92-.06,2.73-.06s.69.39.69,1.38.06,1.44-.69,1.44-1.77-.06-2.73-.06h-.69c-.6,0-.84.24-.84.81v2.22c0,.57.24.81.84.81h.81c1.14,0,2.25-.06,3.36-.06.87,0,.81.42.81,1.47s0,1.47-.84,1.47c-1.11,0-2.22-.06-3.33-.06h-6.09c-1.11,0-2.22.06-3.33.06-.84,0-.81-.39-.81-1.47s0-1.47.81-1.47c1.11,0,2.22.06,3.33.06h.75c.6,0,.84-.24.84-.81v-2.22c0-.57-.24-.81-.84-.81Zm2.43-8.55a1.12,1.12,0,0,0-.6.21c-.78.57-4.17,2.85-4.95,2.85s-1.5-1.44-1.5-1.95.6-.66,1-.84a26.18,26.18,0,0,0,3.54-2.1c.21-.18.39-.33.39-.63a.94.94,0,0,0-.18-.48,17,17,0,0,1-1.95-3.45c-.21-.48-.42-.72-1-.72h-.36c-.72,0-.69-.36-.69-1.35s0-1.32.72-1.32c1.17,0,2.34.06,3.51.06h4l1.92,0a2.23,2.23,0,0,1,2.43,1.92c0,1.2-2.64,4.2-3.51,5.13a.69.69,0,0,0-.24.51.73.73,0,0,0,.27.54,19.18,19.18,0,0,0,4,2.37c.27.12.69.3.69.66s-1.08,2-1.65,2c-.9,0-4.38-2.43-5.19-3.09A1.16,1.16,0,0,0,250.38,531.11Zm.27-4.5a.68.68,0,0,0,.48-.24c.33-.36,1.62-1.8,1.62-2.22,0-.18-.33-.21-.81-.21h-2.37c-.09,0-.54,0-.54.45a.88.88,0,0,0,.06.27,18.79,18.79,0,0,0,1,1.65A.67.67,0,0,0,250.65,526.61Z"/><path class="cls-1" d="M281.88,528.41a3,3,0,0,0,1-.12,3.68,3.68,0,0,1,.57-.06c.81,0,2.28,1.77,2.28,2.46,0,.33-.3.54-.51.72-1.59,1.29-5.55,6.57-7.2,8.49a.92.92,0,0,0-.27.6.88.88,0,0,0,.33.63c.54.57,2.52,2.58,2.52,3.3s-1.5,2-2.1,2c-.24,0-.48-.36-.75-.69a34,34,0,0,0-8.1-7.35c-.18-.12-.42-.3-.42-.54,0-.42,1.47-2.1,2.13-2.1s2.7,1.65,3.21,2a1,1,0,0,0,.63.3c.3,0,.42-.21.6-.42.54-.6,2.25-2.82,2.94-3.69.33-.39,1.44-1.68,1.44-2.1s-.63-.54-1-.54H272.7a1.31,1.31,0,0,0-1.32.69,36.62,36.62,0,0,1-4.41,5c-.48.45-2.13,2-2.7,2s-2-1.71-2-2.25c0-.27.21-.39.42-.51a22.32,22.32,0,0,0,4.74-4.47,30.17,30.17,0,0,0,4.74-7.5c.27-.6.75-1.8.93-2.4.06-.21.09-.57.54-.57a6.67,6.67,0,0,1,1.77.66c1,.48,1.47.69,1.47,1.05s-.3.42-.57.51-.42.18-.6.6a27.86,27.86,0,0,1-1.62,3.45,1,1,0,0,0-.12.42c0,.39.42.36.63.36Z"/><path class="cls-1" d="M301.74,523.25c.21,0,.6.15.6.42s-.18.3-.36.45c-1.05.78-1.32,10.29-1.32,12,0,2.34-.06,6,3.18,6a7.6,7.6,0,0,0,5.64-2.91,9.54,9.54,0,0,0,1.83-4.44c.09-.48.15-1,.6-1,.66,0,2.49,1.53,2.49,2.43a11.15,11.15,0,0,1-1.23,3.51,10.5,10.5,0,0,1-9.12,5.73,6.63,6.63,0,0,1-5.28-2.31c-1.35-1.8-1.5-4.71-1.5-6.9q0-3.56.27-7.11c.09-1.38.36-4.26.36-5.49v-.33c0-.45,0-.75.45-.75A25.45,25.45,0,0,1,301.74,523.25Z"/><path class="cls-1" d="M327.66,526.37c.24.06.66.12.66.42s-.12.24-.3.39c-.42.33-.45.93-.54,1.44a22.36,22.36,0,0,0-.24,3.18,17.14,17.14,0,0,0,1,6.27c.36.84,1.35,2.61,2.4,2.61.84,0,1.71-1.32,2.07-2,.18-.3.42-.75.81-.75.63,0,2.16,1.23,2.16,1.77s-1.35,2.13-1.77,2.61a4.31,4.31,0,0,1-3.21,1.89c-2.22,0-4-2-5-3.84-1.5-2.82-1.74-6.6-1.74-9.78,0-.48.09-4.29.15-4.56a.37.37,0,0,1,.42-.33C324.93,525.71,327.15,526.28,327.66,526.37Zm12.21-.6c.66,0,3.18,1.89,4.62,4.65a16.37,16.37,0,0,1,1.77,6.24c0,.57-.3.72-.81.87a6.34,6.34,0,0,1-1.68.27c-1,0-.93-.42-1-1.14a11.51,11.51,0,0,0-4.44-8.55.49.49,0,0,1-.27-.45C338.07,527.09,339.27,525.77,339.87,525.77Z"/><path class="cls-1" d="M1.74,568.68c4.38-.27,8.76-.72,13.11-1.23,2.28-.27,4.56-.57,6.81-.93a1.71,1.71,0,0,1,.39,0c.45,0,.51.39.57.75a13.65,13.65,0,0,1,.27,2.19c0,.66-.63.6-1.35.63a14.86,14.86,0,0,0-5,.63,9.12,9.12,0,0,0-5.1,4.47A11.23,11.23,0,0,0,10,580.44c0,3.48,2.22,4.32,5.28,4.32.51,0,1.17,0,1.5,0s.69,0,.69.51A8.49,8.49,0,0,1,17,587.7c-.21.45-.45.51-1,.51-5.1,0-9.48-1.62-9.48-7.47a13.32,13.32,0,0,1,3.3-8.61c.33-.36.51-.57.51-.72s-.24-.36-.45-.36-1.59.24-1.89.27c-2,.3-4.71.72-6.63,1.23a2.32,2.32,0,0,1-.45.06c-.42,0-.57-.66-.66-1A13.44,13.44,0,0,1,0,569.46C0,568.68.42,568.77,1.74,568.68ZM21.66,576c0,.45-1.2,1.26-1.53,1.26s-.3-.21-.42-.36c-.6-.87-1.26-1.71-1.92-2.52-.09-.09-.27-.27-.27-.42,0-.36,1.2-1.11,1.53-1.11A11.62,11.62,0,0,1,21.66,576Zm3.63-1.65c0,.42-1.17,1.26-1.53,1.26s-.33-.24-.45-.39a25.38,25.38,0,0,0-1.95-2.49.72.72,0,0,1-.21-.39c0-.36,1.17-1.14,1.53-1.14A12.19,12.19,0,0,1,25.29,574.35Z"/><path class="cls-1" d="M43.68,565.23c0,.15-.12.24-.27.33-.42.21-.63.24-1,1.32-.27.72-.51,1.47-.75,2.19a1.06,1.06,0,0,0-.09.42c0,.51.39.63.81.69,1,.12,2,.21,3.06.24.57,0,1,0,1,.57a8.84,8.84,0,0,1-.33,2c-.12.42-.24.66-.66.66a37.7,37.7,0,0,1-4.08-.45.88.88,0,0,0-.27-.06c-.48,0-.69.33-.81.72s-.51,2.25-.51,2.49c0,.63.63.66,1,.69.9.09,1.8.12,2.7.12s.9.21.9.51a6.64,6.64,0,0,1-.39,2c-.15.45-.33.69-.84.69-.69,0-2.1-.21-2.82-.3a3,3,0,0,0-.48-.06c-.81,0-.81.75-.81,2,0,2.61,1.38,4,4,4,1.35,0,3.42-.36,4.35-1.41a3,3,0,0,0,.66-2.13,13,13,0,0,0-1-4.35,1.58,1.58,0,0,1-.12-.54c0-.72,2.22-1.11,2.55-1.11.48,0,.57.48.81,1.14a16.45,16.45,0,0,1,1,5.25c0,4.65-4.29,6.27-8.28,6.27-4.53,0-7.2-2.61-7.2-7.17,0-.75.12-1.89.12-2.19,0-.66-.51-.84-1.2-1a10,10,0,0,1-1.77-.72c-.33-.18-.57-.33-.57-.72,0-.18.3-2.55,1.05-2.55a1.65,1.65,0,0,1,.75.3,5.44,5.44,0,0,0,1.92.84c.51,0,.6-.42.78-1.29.06-.33.18-.72.27-1.17a6.21,6.21,0,0,0,.12-.66c0-.66-.54-.84-1-1-2.1-.81-2.7-1.08-2.7-1.62s.48-2.58,1.11-2.58a1.63,1.63,0,0,1,.69.33,18.73,18.73,0,0,0,2,1,.92.92,0,0,0,.39.09c.48,0,.6-.39.69-.72.27-1,.93-3.15,1.17-4,.09-.33.15-.6.45-.6a11.32,11.32,0,0,1,1.5.48C42.15,564.33,43.68,564.75,43.68,565.23Z"/><path class="cls-1" d="M70.2,582.36a9.56,9.56,0,0,1-5.79,6.3,15.63,15.63,0,0,1-4.23,1.17c-1,0-1.41-2-1.41-2.37s.39-.54,1.23-.66c3.51-.51,6.81-2.16,7.5-5.94.06-.42.09-.72.42-.72a6.22,6.22,0,0,1,1.56.48c.39.15,1.65.51,1.65.93s-.39.36-.6.42A.49.49,0,0,0,70.2,582.36Zm7.47-2.46h-1c-.57,0-.81.24-.81.84v4.44c0,1.29.27,1.44,1.5,1.44h2.19c2,0,2.31-.3,2.7-3.54a.57.57,0,0,1,.66-.54c.45,0,2.13.27,2.13,1.26a10.21,10.21,0,0,1-1.56,4.8c-.78.93-2.25.9-3.39.9H75.57c-1.68,0-2.79-.48-2.79-2.34,0-.57,0-1.14,0-1.68v-4.74c0-.6-.24-.84-.84-.84H66.09c-.33,0-.39.18-.48.48s-.39.42-1.56.42-1.56,0-1.56-.69.06-1.71.06-2.55v-9.81c0-.78-.06-1.56-.06-2.37,0-1,.45-1.32,1.44-1.32.84,0,1.71.06,2.55.06h10.8c.87,0,1.71-.06,2.55-.06,1.26,0,1.47.45,1.47,1.59,0,.54-.06,1.23-.06,2.1v9.78c0,.87.06,1.71.06,2.55s-.36.72-1.56.72-1.47,0-1.56-.45S78,579.93,77.67,579.9Zm-.18-11.19a.69.69,0,0,0,.72-.72v-.42a.69.69,0,0,0-.72-.72H66.27a.69.69,0,0,0-.72.72V568a.69.69,0,0,0,.72.72Zm-11.94,3.48a.69.69,0,0,0,.72.72H77.49a.69.69,0,0,0,.72-.72v-.45a.69.69,0,0,0-.72-.72H66.27a.69.69,0,0,0-.72.72Zm0,4.29a.8.8,0,0,0,.84.81h11a.8.8,0,0,0,.84-.81v-.36a.86.86,0,0,0-.84-.84h-11a.86.86,0,0,0-.84.84Z"/><path class="cls-1" d="M102.09,564.21c.27.09,1.11.3,1.11.63,0,.15-.18.24-.27.3-.45.27-.48.39-.69,1.05-.09.33-.72,2.52-.72,2.67a.44.44,0,0,0,.45.45,21.16,21.16,0,0,0,3.48-1.11,1.61,1.61,0,0,1,.63-.15c.6,0,.6,1.83.6,2.28s-.06.93-.57,1.08a45.14,45.14,0,0,1-4.92,1.17c-.87.18-1,.33-1.23,1.17A93.46,93.46,0,0,1,94.38,587c-.39.72-.63,1.14-1.08,1.14s-2.55-1-2.55-1.62a2.24,2.24,0,0,1,.51-1,59.07,59.07,0,0,0,5.31-11.1,4.58,4.58,0,0,0,.24-.78c0-.3-.24-.45-.54-.45s-1.74.15-2.67.15c-.6,0-1.08,0-1.26-.54a12.88,12.88,0,0,1-.24-2.19c0-.33.09-.54.45-.54s1.53.12,2.82.12c1.92,0,2.37,0,2.64-.48a27.49,27.49,0,0,0,1.11-5.46c0-.45,0-.75.33-.75S101.7,564.09,102.09,564.21Zm-.42,19.35c1.32,1.47,3.6,1.74,5.43,1.74a13.55,13.55,0,0,0,4.26-.6,1.07,1.07,0,0,1,.3-.06c.51,0,.51.69.51,1.89,0,.6,0,1.29-.33,1.5a28.67,28.67,0,0,1-4.68.39c-2,0-4.74-.24-6.42-1.35-.48-.33-1.47-1.08-1.47-1.71,0-.45,1.38-2.22,1.86-2.22C101.34,583.14,101.55,583.41,101.67,583.56Zm3.66-9.69a21.52,21.52,0,0,1,6,.84.56.56,0,0,1,.42.6,7.54,7.54,0,0,1-.57,2.1c-.12.27-.24.39-.54.39a1.61,1.61,0,0,1-.63-.15,13.47,13.47,0,0,0-4.77-.75c-.39,0-.75,0-1.14,0-.6,0-.75-.15-.75-.66C103.38,573.69,103.92,573.87,105.33,573.87Z"/><path class="cls-1" d="M137.79,589a.7.7,0,0,0-.81-.81H126.75c-.54,0-.81.24-.81.78v.3c0,.9-.39.87-1.71.87s-1.71,0-1.71-.87c0-1.17.09-2.37.09-3.57V568.8c0-1-.06-1.95-.06-2.91,0-1.14.51-1.5,1.59-1.5.87,0,1.74.06,2.64.06H137c.87,0,1.74-.06,2.61-.06,1.14,0,1.62.36,1.62,1.53,0,1-.06,1.92-.06,2.88v17c0,1.17.06,2.37.06,3.54,0,.93-.39.87-1.71.87h-.54c-.72,0-1.14-.06-1.14-.75ZM137,571.23a.84.84,0,0,0,.84-.84v-2.16a.86.86,0,0,0-.84-.84H126.69a.8.8,0,0,0-.81.84v2.16c0,.54.3.78.81.84Zm-11.13,6a.8.8,0,0,0,.81.84H137a.86.86,0,0,0,.84-.84v-2.31a.86.86,0,0,0-.84-.84H126.69a.8.8,0,0,0-.81.84Zm0,7.17a.8.8,0,0,0,.81.84H137a.86.86,0,0,0,.84-.84v-2.7a.8.8,0,0,0-.84-.81H126.69a.74.74,0,0,0-.81.81Z"/><path class="cls-1" d="M156.6,566.76c.24.09.78.3.78.6s-.12.24-.27.3c-.69.33-.87.6-1.23,1.53a27.7,27.7,0,0,0-1.65,9.12c0,.48.09,3.33.66,3.33.21,0,.36-.39.66-1.08.15-.33.45-1.32.81-1.32s1.29.6,1.29,1-1.47,3.72-1.47,5.46c0,.48.06,1,.06,1.44,0,1.17-2.13,1.53-2.28,1.53-.51,0-.75-.57-1-1a21.6,21.6,0,0,1-1.77-9.24,34.46,34.46,0,0,1,1.05-8.4c.33-1.32.75-2.61,1.08-3.93,0-.21.12-.51.39-.51a11.36,11.36,0,0,1,1.92.78C156.06,566.52,156.42,566.7,156.6,566.76Zm11.94-.87c.15,0,.3.09.3.27s-.18.33-.33.6a4.18,4.18,0,0,0-.33,2.13v.84c0,.42.18.78.63.78a19.07,19.07,0,0,0,3-.75,2.39,2.39,0,0,1,.45-.09c.6,0,.81,2.07.81,2.52s-.21.78-3.75,1.26c-.66.09-1,.21-1,1s.21,5.19.24,6,.36.84,1,1.17a16.66,16.66,0,0,1,3.24,2.1c.36.3.78.63.78,1.14,0,.69-1.05,2.07-1.74,2.07a1.37,1.37,0,0,1-.84-.45,8.53,8.53,0,0,0-2.22-1.65c-.3,0-.39.24-.45.48-.54,1.92-2.55,2.52-4.35,2.52-2.4,0-5-1.14-5-3.9s2.37-3.78,4.71-3.78a7.68,7.68,0,0,1,1.17.09h.21c.42,0,.6-.24.6-.63,0-.75-.15-3.6-.18-4.47,0-.3,0-1.14-.72-1.14-.24,0-2.37.12-3.57.12h-.39a6.66,6.66,0,0,1-2.28-.24c-.27-.18-.3-1.89-.3-2.28s0-.75.48-.75,3,.3,4.59.3h.48c.72,0,1.41-.06,1.41-.72s-.24-3.54-.36-4.29c0-.09,0-.21,0-.3a.37.37,0,0,1,.42-.42A28.39,28.39,0,0,1,168.54,565.89Zm-4.65,16.83c-.69,0-2.16.24-2.16,1.17s1.44,1.29,2.19,1.29c1.14,0,1.89-.42,1.89-1.65C165.81,582.75,164.46,582.72,163.89,582.72Z"/><path class="cls-1" d="M187.05,566.94c0,.24-.27.36-.42.45s-.42.3-.69,1a32.87,32.87,0,0,0-1.8,10.2,14.42,14.42,0,0,0,.3,3,.3.3,0,0,0,.3.27c.24,0,.39-.33.63-.9a6.61,6.61,0,0,0,.27-.63c.12-.27.27-.66.54-.66s1.29.6,1.29,1A6.65,6.65,0,0,1,187,582a14.35,14.35,0,0,0-1.2,4.71c0,.39.06.75.06,1.08,0,.54-.39.69-.84.9a4.17,4.17,0,0,1-1.32.39c-.51,0-.72-.6-.9-1a24.74,24.74,0,0,1-1.68-9.45,37,37,0,0,1,1.47-9.93c.24-1,.51-1.92.69-2.88,0-.21.09-.57.39-.57a11,11,0,0,1,2.19.93C186.21,566.31,187.05,566.58,187.05,566.94Zm14.49,1.5c0,.6-.6.72-2.64,1-.75.09-1,.36-1,1.11v1c0,1.11.06,1.59.57,1.59a23.31,23.31,0,0,0,3.18-.78,3.07,3.07,0,0,1,.9-.24c.33,0,.45.42.57.9a10.14,10.14,0,0,1,.27,1.62c0,.6-.6.75-3.12,1.14-1.26.18-2.16.18-2.16,1.11,0,.72.18,3,.21,4s.15,1,.9,1.29,4.35,2.4,4.35,3.3c0,.57-1.14,2.19-1.83,2.19-.27,0-.48-.21-.78-.54-.06-.06-.12-.15-.18-.21-.39-.39-1.62-1.62-2.16-1.62-.36,0-.42.33-.63.87-.63,1.74-2.88,2.19-4.53,2.19-2.22,0-4.86-1-4.86-3.6s2.79-3.81,5.13-3.81c.45,0,.93.06,1.11.06a.65.65,0,0,0,.66-.66c0-.51-.15-2.46-.18-3.09,0-.39-.15-.75-.63-.75-.06,0-.15,0-.24,0-1.41.15-4,.27-5.4.27-.3,0-.93.06-1.08-.24a17.34,17.34,0,0,1-.24-2.22c0-.48.09-.69.6-.69s1.29.06,2,.06c4.41,0,4.8-.09,4.8-1,0-2.67-.09-2.82-.63-2.82-.36,0-2.82.24-4,.24-.54,0-.87,0-1-.54-.06-.24-.18-1.77-.18-2s.15-.6.57-.6a1.85,1.85,0,0,1,.39,0c.54.06,1.86.09,2.46.09a25.3,25.3,0,0,0,7.77-1,1.28,1.28,0,0,1,.33-.06C201.33,566,201.54,568,201.54,568.44Zm-10.17,16.29c0,.87,1.29,1.08,1.95,1.08,1.32,0,2.25-.27,2.25-1.62,0-.69-1.14-.66-1.62-.66C193.2,583.53,191.37,583.68,191.37,584.73Z"/><path class="cls-1" d="M216.09,566.37c.21.09.72.27.72.57s-.27.33-.45.45-.42.39-.66,1a32.87,32.87,0,0,0-1.8,10.2,14.42,14.42,0,0,0,.27,3c.06.15.15.27.3.27s.42-.39.69-1.08c.12-.27.45-1.11.75-1.11s1.29.6,1.29,1a9.15,9.15,0,0,1-.42,1.29,14.39,14.39,0,0,0-1.23,4.71c0,.39.06.75.06,1.08,0,.54-.39.69-.84.9a4.17,4.17,0,0,1-1.32.39c-.51,0-.69-.57-.9-1a24.74,24.74,0,0,1-1.68-9.45,37.17,37.17,0,0,1,1.47-9.93c.24-1,.54-1.92.69-2.88,0-.21.12-.57.39-.57a11.71,11.71,0,0,1,2.25,1C215.85,566.25,216,566.34,216.09,566.37Zm12.48,3.12c-.72.15-.93.27-1,.9-.06,2.28,0,2.76.57,2.76a21.85,21.85,0,0,0,3.18-.72,3.66,3.66,0,0,1,.9-.24c.36,0,.45.39.6.87a9.79,9.79,0,0,1,.27,1.59c0,.54-.66.75-3.12,1.11-1.32.21-2.16.18-2.16,1.14,0,.48.18,3.33.21,4.17s.24.84.87,1.11c.84.39,4.35,2.4,4.35,3.33,0,.54-1.14,2.16-1.83,2.16-.33,0-.6-.36-1-.75s-1.62-1.62-2.16-1.62c-.33,0-.36.3-.42.57-.45,2-3,2.49-4.71,2.49-2.25,0-4.89-.93-4.89-3.6s2.76-3.81,5.1-3.81c.36,0,.69,0,1,.06h.15a.64.64,0,0,0,.63-.66c0-.45-.12-2.28-.15-2.82,0-.39,0-1-.66-1l-.45,0c-1.29.09-3.93.27-5.19.27-.3,0-.9.06-1.08-.24a17.94,17.94,0,0,1-.24-2.22c0-.48.09-.69.6-.69s1.26.06,1.92.06c4.47,0,4.86-.09,4.86-1,0-2.67-.09-2.82-.63-2.82-.3,0-2.79.24-4,.24-.54,0-.87,0-1-.54-.06-.24-.18-1.77-.18-2a.53.53,0,0,1,.57-.6l.39,0c.48,0,2,.09,2.55.09a23.15,23.15,0,0,0,6.75-.84l.33,0c.36,0,.42.45.54,1.26a.33.33,0,0,0,.3.21.42.42,0,0,0,.27-.09,2.51,2.51,0,0,1,.93-.48,12,12,0,0,1,2.67,3.09c0,.45-1.14,1.29-1.53,1.29-.18,0-.42-.33-.75-.81s-1-1.23-1.47-1.83a.23.23,0,0,0-.15-.06.38.38,0,0,0-.3.21C229.86,569.31,229,569.43,228.57,569.49Zm-7.47,15.24c0,.87,1.29,1.08,2,1.08,1.38,0,2.25-.3,2.25-1.62,0-.69-1.14-.66-1.62-.66C222.93,583.53,221.1,583.68,221.1,584.73Zm15.72-17.28c0,.48-1.14,1.29-1.53,1.29-.18,0-.33-.24-.48-.45-.63-.81-1.23-1.59-1.92-2.34-.09-.12-.24-.27-.24-.42,0-.39,1.17-1.17,1.5-1.17A12.55,12.55,0,0,1,236.82,567.45Z"/><path class="cls-1" d="M244.14,571.77c.48,0,1-.18,1-.75v-2c0-1.68-.12-3.27-.12-3.3,0-.21.09-.3.3-.3a21.72,21.72,0,0,1,2.22.15c.75.06,1.38.15,1.38.42a.51.51,0,0,1-.18.3c-.39.48-.36.72-.36,2.67V571a.77.77,0,0,0,.78.78h5.28c.42,0,.75-.27.75-.87,0-1.08-.06-4.2-.12-5.1,0-.12,0-.24,0-.36a.37.37,0,0,1,.39-.36c.42,0,2.1.18,2.58.21s.93.06.93.33-.12.27-.33.48a9.59,9.59,0,0,0-.18,2.52v1.14c0,.3,0,.6,0,.9v.18c0,.6.27.93.87.93h.81c.93,0,2.91-.06,3.54-.06s.75.24.75,1.41c0,1.5-.09,1.77-.84,1.77-1.17,0-2.31-.06-3.45-.06h-.81c-.93,0-.93.63-.93,1-.09,5.22-.6,8.85-5.28,11.94a12.34,12.34,0,0,1-3,1.53,5,5,0,0,1-2.19-2.19c0-.24.27-.39.48-.48,5.7-2.37,6.75-4.86,6.75-10.86,0-.51-.21-1-.78-1h-5.22a.77.77,0,0,0-.78.75v2.85c0,.84.06,1.65.06,2.49,0,1.32-.15,1.2-2,1.2-1,0-1.41,0-1.41-.75,0-1,.06-1.92.06-2.88v-2.88a.8.8,0,0,0-.81-.78h-.93c-1.17,0-2.37.09-3.36.09-.75,0-.78-.63-.78-1.38,0-1.44,0-1.83.75-1.83.87,0,2.22.06,3.39.06Z"/><path class="cls-1" d="M294.33,573.57c0,.51-1.2,1.68-1.59,2.07A52.11,52.11,0,0,1,276.45,587c-1,.48-1,.51-1.26,1a.3.3,0,0,1-.3.18c-.33,0-1-1.2-1.17-1.56a8.41,8.41,0,0,1-.9-1.8c0-.33.54-.39.93-.51,6.63-1.95,14.13-7.62,18.39-13a.74.74,0,0,1,.51-.33C293.25,570.9,294.33,573.12,294.33,573.57Zm-15.48-5c.39.27,1.83,1.26,1.83,1.71,0,.69-1.41,2.31-2,2.31a3.21,3.21,0,0,1-1.2-.81,37.42,37.42,0,0,0-4-2.79c-.24-.15-.48-.3-.48-.57,0-.45,1.2-2.37,1.89-2.37C275.4,566.1,278.28,568.2,278.85,568.62Z"/><path class="cls-1" d="M318.09,568.71a8.87,8.87,0,0,0,1.83-.15,1.07,1.07,0,0,1,.3-.06c.51,0,1.56,1.56,1.56,2a.84.84,0,0,1-.18.45,6.79,6.79,0,0,0-.75,1.47A54.21,54.21,0,0,1,318,578a1,1,0,0,0-.21.6c0,.39.27.57.54.78S320,580.59,320,581s-1.35,2.28-1.92,2.28a.67.67,0,0,1-.45-.24c-.42-.36-.81-.66-1.23-1a1,1,0,0,0-.66-.3c-.42,0-.75.42-1,.72a23.82,23.82,0,0,1-6.54,5.07,16.2,16.2,0,0,1-3.63,1.53c-.78,0-2.16-1.92-2.16-2.34s.51-.45,1.29-.69a21,21,0,0,0,8.58-5.4,1.17,1.17,0,0,0,.45-.75.73.73,0,0,0-.36-.63c-.69-.45-2.25-1.26-3-1.62-.3-.12-.9-.33-.9-.66s1.17-2.25,1.83-2.25a22.29,22.29,0,0,1,3.87,2,1.27,1.27,0,0,0,.57.18c.57,0,.84-.57,1.65-2.16a3.43,3.43,0,0,1,.18-.42,9.37,9.37,0,0,0,.78-2c0-.63-.78-.6-1.23-.6h-5.73c-.72,0-.93.24-1.32.78a44.11,44.11,0,0,1-3.9,4.62,1.6,1.6,0,0,1-1,.57c-.54,0-2.49-1.26-2.49-1.77,0-.24.27-.45.45-.57A27.61,27.61,0,0,0,310,564.51c.09-.24.21-.75.54-.75a6.83,6.83,0,0,1,1.68.72c.27.12,1.77.78,1.77,1s-.15.27-.3.33c-.45.18-.48.27-.9,1-.12.21-.27.48-.48.81a1.62,1.62,0,0,0-.24.63c0,.3.27.42.54.45Z"/><path class="cls-1" d="M331.44,581.76c.69,0,5.85,4.14,5.85,4.89s-1.5,2.31-2.19,2.31c-.24,0-.45-.27-.6-.45a18.48,18.48,0,0,0-4.56-4.08c-.21-.12-.54-.3-.54-.57A4.1,4.1,0,0,1,331.44,581.76Z"/><path class="cls-1" d="M357.09,564.21c.27.09,1.11.3,1.11.63,0,.15-.18.24-.27.3-.45.27-.48.39-.69,1.05-.09.33-.72,2.52-.72,2.67a.44.44,0,0,0,.45.45,21.16,21.16,0,0,0,3.48-1.11,1.61,1.61,0,0,1,.63-.15c.6,0,.6,1.83.6,2.28s-.06.93-.57,1.08a45.14,45.14,0,0,1-4.92,1.17c-.87.18-1,.33-1.23,1.17A93.46,93.46,0,0,1,349.38,587c-.39.72-.63,1.14-1.08,1.14s-2.55-1-2.55-1.62a2.24,2.24,0,0,1,.51-1,59.07,59.07,0,0,0,5.31-11.1,4.58,4.58,0,0,0,.24-.78c0-.3-.24-.45-.54-.45s-1.74.15-2.67.15c-.6,0-1.08,0-1.26-.54a12.88,12.88,0,0,1-.24-2.19c0-.33.09-.54.45-.54s1.53.12,2.82.12c1.92,0,2.37,0,2.64-.48a27.49,27.49,0,0,0,1.11-5.46c0-.45,0-.75.33-.75S356.7,564.09,357.09,564.21Zm-.42,19.35c1.32,1.47,3.6,1.74,5.43,1.74a13.55,13.55,0,0,0,4.26-.6,1.07,1.07,0,0,1,.3-.06c.51,0,.51.69.51,1.89,0,.6,0,1.29-.33,1.5a28.67,28.67,0,0,1-4.68.39c-2,0-4.74-.24-6.42-1.35-.48-.33-1.47-1.08-1.47-1.71,0-.45,1.38-2.22,1.86-2.22C356.34,583.14,356.55,583.41,356.67,583.56Zm3.66-9.69a21.52,21.52,0,0,1,6,.84.56.56,0,0,1,.42.6,7.54,7.54,0,0,1-.57,2.1c-.12.27-.24.39-.54.39a2.41,2.41,0,0,1-.63-.15,12.83,12.83,0,0,0-4.77-.75c-.39,0-.75,0-1.14,0-.6,0-.75-.15-.75-.66C358.38,573.69,358.92,573.87,360.33,573.87Zm6.15-5c0,.45-1.11,1.32-1.47,1.32-.18,0-.3-.18-.42-.33a26.4,26.4,0,0,0-2.07-2.4c-.09-.09-.27-.27-.27-.42,0-.39,1.2-1.2,1.47-1.2A11.6,11.6,0,0,1,366.48,568.86Zm3.12-1.92c0,.45-1.11,1.35-1.47,1.35-.18,0-.33-.21-.45-.36a25.77,25.77,0,0,0-2.07-2.4c-.09-.09-.24-.24-.24-.39,0-.36,1.11-1.23,1.47-1.23A11.6,11.6,0,0,1,369.6,566.94Z"/><path class="cls-1" d="M388.41,564.48c.21.06.57.15.57.45a.71.71,0,0,1-.27.45,1.36,1.36,0,0,0-.42,1.14c-.06,1-.09,2-.09,3,0,.51.18.87.75.87a19.17,19.17,0,0,0,4.56-1.14,2.12,2.12,0,0,1,.72-.18c.42,0,.6.45.81.9a6,6,0,0,1,.51,1.68c0,.39-.21.51-1.68.93a36.3,36.3,0,0,1-4.44.87c-.78.09-1.2.21-1.2,1.11,0,.66.15,4.29.24,4.77.12.78.63.78,1.38,1a28.35,28.35,0,0,1,6.75,2.79c.21.15.51.36.51.63,0,.63-1.14,2.4-1.68,2.4-.27,0-.78-.39-1-.54-.84-.57-4.26-2.37-5.16-2.37-.6,0-.54.69-.57.93a4.07,4.07,0,0,1-1.26,3.09,7.05,7.05,0,0,1-4.44,1.32c-2.64,0-6-1.17-6-4.32,0-3.57,3.72-4.83,6.69-4.83h.6c.51,0,1.08,0,1.08-.72,0-.3-.06-1.29-.09-1.68-.06-1.89-.15-3.75-.18-5.61a44.39,44.39,0,0,0-.39-6.66,1.76,1.76,0,0,1-.06-.39c0-.3.27-.36.54-.36A32.55,32.55,0,0,1,388.41,564.48ZM380,584.19c0,1.26,2,1.53,2.94,1.53,1.65,0,2.73-.48,2.73-2.31,0-1.17-.36-1.2-1.65-1.2S380,582.48,380,584.19Z"/><path class="cls-1" d="M413.82,565c.18.06.42.15.42.39a.49.49,0,0,1-.24.36c-.36.3-.36.42-.48,1.5,0,.18-.12,1.29-.12,1.38,0,.45.36.63.72.78a1.53,1.53,0,0,1,.93,1.14,1.43,1.43,0,0,1-.42.78,12.25,12.25,0,0,0-1.32,2.25,1.7,1.7,0,0,0-.24.75c0,.09,0,.21.12.21s.3-.15.39-.24a30.74,30.74,0,0,1,3.27-3,8.5,8.5,0,0,1,5.37-2.19,5,5,0,0,1,4.38,2.46c.93,1.56,1.2,4.26,1.2,6.06,0,.87-.09,1.86-.18,2.73,0,.12,0,.21,0,.33,0,.45.27.66.66.87,1,.54,2.25,1.2,2.25,1.89s-.84,2.1-1.56,2.1a4,4,0,0,1-1.41-.78,1.7,1.7,0,0,0-.81-.39.76.76,0,0,0-.63.45,5.89,5.89,0,0,1-5.1,2.58c-2.22,0-5.1-1.26-5.1-3.84s3.39-3.9,5.58-3.9A14.84,14.84,0,0,1,424,580h.15c.66,0,.69-.84.69-1.8,0-1.86-.18-6.15-2.76-6.15-3.06,0-6.51,3.54-8.58,5.58-.6.57-.66.69-.66,2.52v1.62c0,2,.18,5.25.18,5.28,0,.72-.27.75-2.16.75-.48,0-1.32.06-1.32-.63a2.58,2.58,0,0,1,0-.48c.06-.54.21-3.84.21-4.44,0-.12,0-.3-.18-.3-.36,0-1.8,2.7-2,3.12-.12.24-.27.45-.54.45-.48,0-2.13-1.41-2.13-2,0-.27.36-.66.51-.9a40.24,40.24,0,0,0,4.59-7.83,3.38,3.38,0,0,0,.15-1c0-.18,0-.45-.27-.45a16.18,16.18,0,0,0-1.77.51,14.28,14.28,0,0,1-2.07.57c-.36,0-.51-.42-.63-.69a11,11,0,0,1-.72-2.19c0-.51.66-.48,1.2-.54.78-.06,4-.54,4.32-1.17a1.73,1.73,0,0,0,.15-.87c0-1.2.09-2.43.09-3.63v-.6c0-.33.15-.45.45-.45A17.13,17.13,0,0,1,413.82,565Zm4.86,18.57c0,1,1.53,1.26,2.28,1.26a2.86,2.86,0,0,0,2.82-1.71c0-.63-1.86-.78-2.31-.78C420.72,582.33,418.68,582.54,418.68,583.56Z"/><path class="cls-1" d="M46.32,609.16c.42.09,1,.18,1,.54,0,.12-.06.18-.15.27-.45.33-.54.51-.69,1.23a63.31,63.31,0,0,0-.84,10.92c0,2.34-.06,6,3.18,6a7.6,7.6,0,0,0,5.64-2.91,9.4,9.4,0,0,0,1.86-4.44c.09-.48.12-1,.57-1,.66,0,2.49,1.53,2.49,2.43a11.15,11.15,0,0,1-1.23,3.51,10.5,10.5,0,0,1-9.12,5.73,6.63,6.63,0,0,1-5.28-2.31c-1.35-1.8-1.5-4.71-1.5-6.9q0-3.56.27-7.11c.09-1.38.36-4.26.36-5.49v-.33c0-.45,0-.75.45-.75A22.9,22.9,0,0,1,46.32,609.16Zm9.42,4.8c0,.45-1.08,1.35-1.47,1.35-.18,0-.33-.21-.42-.33a26.33,26.33,0,0,0-2.1-2.37c-.09-.09-.27-.27-.27-.42,0-.39,1.17-1.23,1.47-1.23A11.58,11.58,0,0,1,55.74,614Zm3.33-2.28c0,.45-1.08,1.35-1.44,1.35-.18,0-.33-.18-.42-.33a31.23,31.23,0,0,0-2.13-2.34c-.12-.12-.27-.27-.27-.42,0-.39,1.14-1.23,1.44-1.23A11.54,11.54,0,0,1,59.07,611.68Z"/><path class="cls-1" d="M76.89,616.09c-.33-.09-.72-.18-.72-.57s.54-2,1.2-2a18.84,18.84,0,0,1,2.94,1c.42.18,1.17.42,1.17.9a2,2,0,0,1-.18.72.43.43,0,0,0-.06.18c0,.3.21.36.45.33a9,9,0,0,1,2-.24c2.58,0,4.56,1.44,4.56,4.17,0,2.46-1.62,3.87-3.72,4.77a10.4,10.4,0,0,1-2.73.78c-.75,0-1.35-1.65-1.35-2,0-.57.6-.57,1.2-.69,1.41-.24,3.84-1,3.84-2.79a1.74,1.74,0,0,0-2-1.71c-1.74,0-4.35,1.35-5.79,2.28a.76.76,0,0,0-.45.69c0,.66,3.36,6.09,3.93,7a2.63,2.63,0,0,1,.51,1c0,.57-1.68,1.38-2.16,1.38s-.48-.24-.63-.48c-.27-.51-.51-1-.75-1.5-.9-1.71-1.83-3.36-2.7-5.07-.21-.42-.39-.81-.81-.81s-1.92,1.29-2.31,1.62c-.15.09-.33.27-.51.27-.57,0-1.62-1.62-1.62-2.16,0-.33.33-.48.57-.6s2-1.23,2.16-1.41a.83.83,0,0,0,.39-.69,9.22,9.22,0,0,0-1.5-2.76,1.2,1.2,0,0,1-.36-.66c0-.3.39-.45,1.32-.78.24-.09.57-.21.93-.36a2.38,2.38,0,0,1,.66-.18.43.43,0,0,1,.42.33.72.72,0,0,1-.06.27.59.59,0,0,0,0,.21,12,12,0,0,0,.78,2,.75.75,0,0,0,.63.48,1.65,1.65,0,0,0,.75-.3c.6-.33,1.71-.93,2.34-1.23a.37.37,0,0,0,.21-.33.36.36,0,0,0-.24-.3A23.77,23.77,0,0,0,76.89,616.09Z"/><path class="cls-1" d="M109.44,608.05c.81.24,1.29.33,1.29.63s-.18.3-.3.39c-.39.24-.48.39-.66,1.11,0,.18-.18.81-.18.93a.44.44,0,0,0,.42.45,2.39,2.39,0,0,0,.45-.09,23.8,23.8,0,0,0,3.54-1,1.44,1.44,0,0,1,.51-.15c.72,0,1,2.28,1,2.4,0,.57-.72.69-1.47.84-1.17.27-3,.63-4.23.81-.69.12-.81.87-.81,1.2s.27.39.48.39.15,0,.24,0c.6-.06,1.35-.15,1.95-.15,4.65,0,8.82,2.37,8.82,7.5,0,6.81-8.49,9.39-9.48,9.39-.66,0-1.38-1.83-1.38-2.4,0-.33.33-.36.66-.45,3.15-.84,7-2.64,7-6.42a4.13,4.13,0,0,0-3-4.29c-.45,0-.63.39-.81.75a27,27,0,0,1-4,5.73.78.78,0,0,0-.3.6c0,.09.15,1,.18,1.11v.15c0,.57-1.62,1.59-2.28,1.59a.54.54,0,0,1-.51-.42c-.06-.15-.12-.3-.33-.3a.74.74,0,0,0-.33.12,8.61,8.61,0,0,1-4.44,1.62,3.35,3.35,0,0,1-3.39-3.6c0-4,3.81-7.65,7.2-9.27.18-.09.87-.24.87-1.68a.47.47,0,0,0-.51-.51c-.12,0-.54.06-.66.06-1.11.09-2.22.24-3.33.24-1.32,0-1.5,0-1.5-1.41s.18-1.59.72-1.59,1,0,1.56,0c1,0,2,0,3.06-.12a1.15,1.15,0,0,0,.81-.27,1.18,1.18,0,0,0,.3-.81c.15-1,.27-2.1.42-3.18,0-.27.15-.48.48-.48S109.11,608,109.44,608.05Zm-8.37,18.06c0,.57.27.9.84.9a8,8,0,0,0,3.6-1.68,1.09,1.09,0,0,0,.36-.93c0-.27-.09-1.53-.09-2.46,0-.3,0-.6,0-.87s-.06-.51-.36-.51C104.82,620.56,101.07,623.68,101.07,626.11Zm7.89-7.26c-.33.21-.3.81-.3,1.47v.36c0,.48,0,1.2.3,1.2.51,0,1.62-2.16,1.86-2.64a1.33,1.33,0,0,0,.18-.48c0-.21-.21-.27-.39-.27A4.28,4.28,0,0,0,109,618.85Z"/><path class="cls-1" d="M136.08,608.35c.84,0,.78.42.84,1.11.18,1.83.57,3.6.93,5.4.09.39.18.9.69.9s4.44-2.37,5.16-2.82a2,2,0,0,1,.78-.33c.51,0,2,2.58,2,3.06,0,.3-.36.39-.57.45a50.4,50.4,0,0,0-6.24,2.82c-2,1.08-6.57,3.36-6.57,6a2.63,2.63,0,0,0,1.95,2.19,12.14,12.14,0,0,0,4,.51,40.84,40.84,0,0,0,4.68-.3c.54-.06,2.67-.39,3.12-.48a1,1,0,0,1,.3,0c.42,0,.45,1.23.45,1.92v.36c0,.81-.06,1.11-.84,1.26-1.35.24-6.42.42-8,.42a12.11,12.11,0,0,1-6.24-1.26,5.22,5.22,0,0,1-2.73-4.65c0-3,2.1-5,4.47-6.54.36-.24.72-.42.72-.93a1.24,1.24,0,0,0-.09-.48c-.42-1.14-1.2-4.23-1.53-5.55a15.94,15.94,0,0,0-.57-1.95,2.1,2.1,0,0,1-.09-.36c0-.42.93-.48,2-.63A10.72,10.72,0,0,1,136.08,608.35Zm12.06,2.16a9.58,9.58,0,0,1,1.14,2c0,.45-1.23,1.14-1.59,1.14s-.3-.18-.57-.63c-.39-.69-.87-1.5-1.32-2.16-.12-.18-.42-.54-.42-.72,0-.36,1.26-1,1.59-1S148,610.24,148.14,610.51Zm3.15-2a10,10,0,0,1,1.11,1.95c0,.48-1.26,1.17-1.59,1.17s-.33-.24-.42-.42c-.57-1-1.14-1.83-1.8-2.82a.57.57,0,0,1-.09-.24c0-.42,1.29-1.05,1.59-1.05S151,608.08,151.29,608.47Z"/><path class="cls-1" d="M162.27,622.12c.39,0,.48.27.54.57.63,3.18,3.18,3.63,6,3.63a37.36,37.36,0,0,0,8.94-1.05,2.39,2.39,0,0,1,.45-.09c.45,0,.66.51.66,2.46,0,.57-.15.93-.72,1.11a54.83,54.83,0,0,1-9,.84c-3.12,0-6.48-.39-8.43-3.12a7,7,0,0,1-1.17-2.91C159.54,622.81,162.24,622.12,162.27,622.12Zm.51-10.47c.09-.51.15-1,.72-1a4.49,4.49,0,0,1,.87.18,19.32,19.32,0,0,0,5.1.63,25.52,25.52,0,0,0,5.43-.6,1.52,1.52,0,0,1,.39-.06c.75,0,.78,1.35.78,2.58,0,.72-.15.78-.84.9a40.93,40.93,0,0,1-5.43.36c-1.65,0-5.37-.15-6.84-.75a.62.62,0,0,1-.42-.63A10.4,10.4,0,0,1,162.78,611.65Z"/><path class="cls-1" d="M198.78,608.8c.24.06.78.15.78.48s-.12.27-.27.39c-.57.42-.63.9-.78,2-.06.33-.12.75-.21,1.23a1.51,1.51,0,0,0-.06.36.58.58,0,0,0,.66.6h.36a6,6,0,0,1,3.39.66c1.5,1,1.86,2.7,1.86,4.38,0,2.73-.48,6.78-1.8,9.18A6.13,6.13,0,0,1,197,631.3c-.66,0-1.08-.06-1.38-.69a6,6,0,0,1-.54-2.16c0-.27.09-.51.42-.51s.75.12,1.35.12A2.88,2.88,0,0,0,200,626.2a17.87,17.87,0,0,0,1.35-6.78c0-1.47-.09-2.73-1.92-2.73-1.68,0-2,.24-2.22,1.08a33.88,33.88,0,0,1-3.84,9,27,27,0,0,1-3,4.26.7.7,0,0,1-.51.3c-.54,0-2.46-1.14-2.46-1.83a1.12,1.12,0,0,1,.42-.69,23.86,23.86,0,0,0,5.37-8.34,11.21,11.21,0,0,0,.75-2.28.38.38,0,0,0-.39-.39,24.82,24.82,0,0,0-3.45,1.05,2.23,2.23,0,0,1-.63.21c-.72,0-1.23-2.94-1.23-3.12,0-.45.51-.45.87-.48,1.68-.18,3.36-.6,5-.9.6-.12.87-.3,1-.93a27.68,27.68,0,0,0,.33-3.87c0-.48-.06-1.11-.06-1.17,0-.24.09-.45.36-.45S198.33,608.68,198.78,608.8Zm12.48,9.93c0,.69-1.89,1.8-2.49,1.8-.39,0-.57-.39-.69-.69a22,22,0,0,0-4-6.42,1,1,0,0,1-.27-.51c0-.54,1.65-1.53,2.13-1.53C207.06,611.38,211.26,618,211.26,618.73Zm-.45-7.68c0,.48-1.05,1.38-1.44,1.38-.15,0-.3-.21-.42-.33a25.9,25.9,0,0,0-2.13-2.31c-.12-.12-.27-.27-.27-.42,0-.36,1.08-1.26,1.44-1.26A12,12,0,0,1,210.81,611.05Zm2.85-2.13c0,.48-1.08,1.38-1.44,1.38-.18,0-.27-.15-.42-.33-.69-.81-1.38-1.56-2.13-2.31-.12-.09-.3-.27-.3-.42,0-.36,1.14-1.26,1.44-1.26A12.06,12.06,0,0,1,213.66,608.92Z"/><path class="cls-1" d="M218.49,620.05c-.48,0-1.05.09-1.5.09-.72,0-.66-.48-.66-1.47s0-1.5.69-1.5c.45,0,1,.09,1.47.09h.93c.6,0,1.2-.06,1.83-.06,1,0,1.65.3,1.65,1.41,0,.84-.06,1.65-.06,2.49v4.32c0,1.71,0,3.12,1.95,3.75a26.49,26.49,0,0,0,6.69.57h2.16c2.55,0,5.07-.06,7.62-.15l.84,0c.54,0,.57.39.57.87,0,2.19-.81,2-1.95,2-3.63,0-7.26.06-10.89,0a31.64,31.64,0,0,1-4.44-.36,5.1,5.1,0,0,1-3.78-2,.74.74,0,0,0-.57-.36.63.63,0,0,0-.39.15c-.78.63-1.53,1.23-2.34,1.83-.18.15-.36.27-.39.54,0,.09,0,.51-.45.51s-.36-.27-1.05-1.59a5.42,5.42,0,0,1-.66-1.56c0-.27.3-.42,1.2-.84.42-.18,1.74-1.08,2.22-1.38a1.3,1.3,0,0,0,.66-1.26v-5.19a.73.73,0,0,0-.84-.84Zm3-6.42c-.27,0-.45-.24-.6-.45A38.51,38.51,0,0,0,217,609c-.18-.15-.42-.33-.42-.6,0-.48,1.35-1.62,1.86-1.62.27,0,.48.24.72.45q1.08,1,2.07,2.07c.42.45,2.1,2.25,2.1,2.73S222,613.63,221.46,613.63Zm4.8,10.23c0-.54,0-1.05,0-1.59,0-.87.45-1.08,1.26-1.08.6,0,1.17,0,1.77,0h2.46c.36,0,.54-.12.57-.51a1.13,1.13,0,0,1,0-.3c-.06-.39-.21-.51-.6-.51H230.1c-.75,0-1.53,0-2.31,0s-1.56-.12-1.56-1c0-.12,0-.24,0-.36v-2.07c0-.45,0-.69,0-1,0-.87.84-1,1.53-1s1.56.06,2.34.06H236c.78,0,1.53-.06,2.31-.06s1.56.12,1.56,1v.39c0,.06,0,.36,0,.6V618c0,.12,0,.6,0,.63v.36c0,.87-.87,1-1.53,1l-2.16,0c-.39,0-.51.06-.66.24l0,.06a1.4,1.4,0,0,0-.09.51c0,.36.18.51.54.51h1.74c.72,0,1.47-.06,2.22-.06.54,0,.57.21.57,1.05s0,1-.57,1c-.75,0-1.5-.06-2.22-.06h-1.74c-.42,0-.57.18-.57.57v.36c0,.39.15.57.57.57H239c1,0,2-.06,3-.06.63,0,.6.33.6,1.05s0,1-.6,1c-1,0-2-.06-3-.06h-2.85c-.57,0-.81.21-.81.81v.69c0,.84-.36.81-1.56.81s-1.62,0-1.62-.78c0-.24,0-.51,0-.75,0-.57-.24-.78-.81-.78h-4.08c-1,0-2,.06-3,.06-.6,0-.57-.39-.57-1s0-1.05.6-1.05c.39,0,.75,0,1.14,0C226.05,624.64,226.23,624.43,226.26,623.86Zm3.45-13v-.18c0-.45-.3-.6-.69-.6h-.27l-2.25,0c-.51,0-.51-.24-.51-1s0-1.08.51-1.08c.69,0,1.47.06,2.25.06h.66c.57,0,.84-.18.93-.78a4.48,4.48,0,0,0,.06-.63c0-.3.06-.57.42-.57s2.61.42,3,.48c.18.06.48.15.48.39s-.33.3-.51.39-.15.09-.18.12a.24.24,0,0,0-.12.24c0,.27.33.36.54.36h1.44c.69,0,1.41,0,2.13,0,1,0,1.38.24,1.38,1.26,0,.33,0,.66,0,1v.36c0,.57.24.78.81.84s1.41-.06,1.89-.06.57.39.57,1.05,0,1-.57,1c-1,0-2-.06-2.91-.06H227.52c-1,0-2,.06-2.91.06-.6,0-.6-.36-.6-1s0-1.05.6-1.05c1,0,1.95.06,2.91.06H229a.57.57,0,0,0,.66-.54Zm2.58,12.93a.59.59,0,0,0-.57-.57h-2a.59.59,0,0,0-.57.57v.36a.55.55,0,0,0,.57.57h2a.59.59,0,0,0,.57-.57Zm4.59-6.72a.52.52,0,0,0-.57-.57h-6.57a.55.55,0,0,0-.57.57v.3a.55.55,0,0,0,.57.57h6.57a.55.55,0,0,0,.57-.57Zm-1.41-5.58c.42,0,.57-.15.57-.57s-.09-.84-.9-.84h-1.62a.56.56,0,0,0-.66.51l0,.12c0,.06,0,.12,0,.18,0,.45.3.6.69.6Z"/><path class="cls-1" d="M267.15,620.77c0,4.71-3.48,8.43-7.29,10.74a8.84,8.84,0,0,1-2.58,1.11c-.9,0-2.13-2-2.13-2.52,0-.3.33-.42.6-.51,3.6-1.14,8-4.41,8-8.58a3.87,3.87,0,0,0-4.17-4.14c-2.52,0-4.56,1.26-6.42,2.82a1.36,1.36,0,0,1-.63.3c-.72,0-1.68-2.16-1.68-2.85,0-.48.54-.75.9-.93a17.23,17.23,0,0,1,8-2.43C264.06,613.78,267.15,616.36,267.15,620.77ZM254.7,608c.12-.27.24-.57.6-.57a1.05,1.05,0,0,1,.48.18,31.38,31.38,0,0,0,7.5,1.5c.42,0,.75,0,.75.48a12.92,12.92,0,0,1-.3,1.83c-.15.6-.33.9-.81.9A63.42,63.42,0,0,1,256,611c-1.26-.33-1.92-.48-1.92-1A7,7,0,0,1,254.7,608Z"/><path class="cls-1" d="M289.05,608.56c.24.06.75.15.75.48s-.12.27-.24.36c-.57.42-.63.9-.81,2-.06.36-.12.78-.21,1.29a1.28,1.28,0,0,0-.06.33.61.61,0,0,0,.66.63l.36,0a5.88,5.88,0,0,1,3.42.69c1.5,1,1.83,2.7,1.83,4.35,0,2.76-.48,6.81-1.8,9.21a6.13,6.13,0,0,1-5.67,3.24,1.27,1.27,0,0,1-1.38-.72,6.51,6.51,0,0,1-.51-2.13c0-.3.09-.51.39-.51s.81.09,1.41.09a2.87,2.87,0,0,0,3.12-1.83,18.07,18.07,0,0,0,1.32-6.78c0-1.5-.09-2.73-1.89-2.73s-2,.24-2.22,1.08a35.48,35.48,0,0,1-3.81,8.91,34.5,34.5,0,0,1-3,4.32.82.82,0,0,1-.54.3c-.51,0-2.43-1.14-2.43-1.83a1.12,1.12,0,0,1,.42-.69,24.62,24.62,0,0,0,5.34-8.37,16.46,16.46,0,0,0,.75-2.25.36.36,0,0,0-.39-.39,24.48,24.48,0,0,0-3.42,1.05,2.49,2.49,0,0,1-.63.18c-.75,0-1.26-2.94-1.26-3.09,0-.45.51-.45.9-.48a46.92,46.92,0,0,0,5-.93c.6-.12.9-.27,1-.9a27.66,27.66,0,0,0,.3-3.87c0-.33,0-.66,0-1s0-.6.33-.6S288.6,608.44,289.05,608.56Zm13.05,9.72c0,.66-1.89,1.77-2.49,1.77-.39,0-.54-.39-.69-.69a20.84,20.84,0,0,0-4-6.42.78.78,0,0,1-.27-.51c0-.54,1.74-1.59,2.28-1.59C298,610.84,302.1,617.53,302.1,618.28Z"/><path class="cls-1" d="M310.29,618.58a22.79,22.79,0,0,0,2.76-.9c2.67-1,5.82-2.16,8.64-2.16,3.51,0,6.24,2.25,6.24,5.88s-2.73,6-5.88,7.35a17.07,17.07,0,0,1-4.62,1.26c-1,0-1.41-2-1.41-2.28,0-.51.57-.57,1-.6a13.49,13.49,0,0,0,5.13-1.5,5.13,5.13,0,0,0,2.94-4.29,3.05,3.05,0,0,0-3.36-3c-2.91,0-6.81,1.65-9.36,3a1.58,1.58,0,0,1-.84.3c-.78,0-1.86-1.8-1.86-2.43C309.63,618.82,310,618.67,310.29,618.58Z"/><path class="cls-1" d="M339.3,611.68c4.38-.27,8.76-.72,13.14-1.23,2.25-.27,4.56-.57,6.81-.93a1.46,1.46,0,0,1,.36,0c.45,0,.51.39.6.75a18.1,18.1,0,0,1,.24,2.19c0,.66-.63.6-1.32.63a14.67,14.67,0,0,0-5,.63,9.08,9.08,0,0,0-5.13,4.47,11.23,11.23,0,0,0-1.44,5.28c0,3.48,2.25,4.32,5.28,4.32.54,0,1.2,0,1.5,0s.69,0,.69.51a7.19,7.19,0,0,1-.54,2.67c-.21.3-.54.3-.87.3-5.1,0-9.48-1.62-9.48-7.47a13.32,13.32,0,0,1,3.3-8.61c.15-.15.54-.54.54-.72s-.27-.36-.45-.36-1.59.21-1.92.27a60.1,60.1,0,0,0-6.63,1.23,2.32,2.32,0,0,1-.45.06c-.72,0-1-2.85-1-3.15C337.56,611.68,338,611.77,339.3,611.68Z"/><path class="cls-1" d="M378,624.91c-.6,0-.69-.18-.69-1,0-3.06,1.83-4.8,3.81-6.45,1-.87,1.77-1.71,1.77-2.76,0-1.47-1.23-2.46-3.51-2.46a6.06,6.06,0,0,0-4.62,2.28c-.24.3-.42.48-.6.48s-.36-.15-.63-.42l-1.2-1.2c-.27-.27-.39-.45-.39-.66s.12-.36.36-.63a9.65,9.65,0,0,1,7.32-3.09c4.29,0,6.84,2.37,6.84,5.22,0,2.58-1.44,3.93-3.48,5.58-1.38,1.14-2.43,2.37-2.43,4.26,0,.72-.09.87-.66.87Zm3.27,4.2a2.19,2.19,0,0,1-2.31,2.31,2,2,0,0,1-2.07-2,2.24,2.24,0,0,1,2.31-2.4A2,2,0,0,1,381.24,629.11Z"/><path class="cls-1" d="M154.14,671.75a2.28,2.28,0,0,1-2.37,2.43,2,2,0,0,1-2.16-2.1,2.28,2.28,0,0,1,2.4-2.4A2,2,0,0,1,154.14,671.75Z"/><path class="cls-1" d="M161.94,671.75a2.28,2.28,0,0,1-2.37,2.43,2,2,0,0,1-2.16-2.1,2.28,2.28,0,0,1,2.4-2.4A2,2,0,0,1,161.94,671.75Z"/><path class="cls-1" d="M169.74,671.75a2.28,2.28,0,0,1-2.37,2.43,2,2,0,0,1-2.16-2.1,2.28,2.28,0,0,1,2.4-2.4A2,2,0,0,1,169.74,671.75Z"/><path class="cls-1" d="M177.54,671.75a2.28,2.28,0,0,1-2.37,2.43,2,2,0,0,1-2.16-2.1,2.28,2.28,0,0,1,2.4-2.4A2,2,0,0,1,177.54,671.75Z"/><path class="cls-1" d="M185.34,671.75a2.28,2.28,0,0,1-2.37,2.43,2,2,0,0,1-2.16-2.1,2.28,2.28,0,0,1,2.4-2.4A2,2,0,0,1,185.34,671.75Z"/><path class="cls-1" d="M193.14,671.75a2.28,2.28,0,0,1-2.37,2.43,2,2,0,0,1-2.16-2.1,2.28,2.28,0,0,1,2.4-2.4A2,2,0,0,1,193.14,671.75Z"/><path class="cls-1" d="M201.39,669.71c0,3.18-2.82,4.5-6,4.5a10.92,10.92,0,0,1-4.92-1.14c-.39-.21-.57-.39-.57-.66a1.35,1.35,0,0,1,.18-.57l.54-1.17c.21-.42.33-.6.54-.6a1.22,1.22,0,0,1,.6.27,7.19,7.19,0,0,0,3.69,1.11c1.53,0,2.55-.57,2.55-1.62s-1.29-1.5-2.82-2c-2.22-.81-5-1.86-5-4.89,0-2.61,2.13-4.5,5.94-4.5a10.13,10.13,0,0,1,4.05.81c.42.21.63.36.63.66a1.86,1.86,0,0,1-.15.54l-.54,1.41c-.18.42-.3.63-.51.63a1.43,1.43,0,0,1-.6-.24,6.59,6.59,0,0,0-3.09-.84c-1.41,0-2.34.6-2.34,1.5s1.35,1.5,2.94,2.07C198.81,665.78,201.39,666.8,201.39,669.71Z"/><path class="cls-1" d="M216.72,671.87a1.35,1.35,0,0,1,.18.57c0,.27-.18.42-.6.63a11.2,11.2,0,0,1-4.92,1.11c-5.34,0-7.56-3.51-7.56-7.56,0-4.65,2.94-8.19,7.59-8.19,3.84,0,6.06,2.64,6.06,7.26,0,1.53-.24,1.77-1,1.77H208c-.54,0-.75.09-.75.45a3.89,3.89,0,0,0,.63,1.68c.69,1.08,1.89,1.71,3.84,1.71a7.22,7.22,0,0,0,3.36-.81,1.6,1.6,0,0,1,.6-.24c.24,0,.36.21.57.63Zm-2.49-7.59a3.42,3.42,0,0,0-.42-1.41,2.63,2.63,0,0,0-2.52-1.44,3.82,3.82,0,0,0-3.3,1.68,2.86,2.86,0,0,0-.54,1.23c0,.24.21.33.69.33h5.31C214,664.67,214.2,664.58,214.23,664.28Z"/><path class="cls-1" d="M231.72,672.8c0,.27-.21.42-.63.63a9.59,9.59,0,0,1-3.75.75c-5.16,0-7.29-3.57-7.29-7.29,0-4.8,2.91-8.43,8.25-8.43a8.74,8.74,0,0,1,3,.51c.45.15.63.3.66.6a1.61,1.61,0,0,1-.12.54l-.54,1.47c-.18.48-.27.66-.51.66a1.59,1.59,0,0,1-.6-.18,4.93,4.93,0,0,0-1.8-.36,4.76,4.76,0,0,0-4.86,5.1,4.09,4.09,0,0,0,4.29,4.38,5.35,5.35,0,0,0,2.22-.48,1.59,1.59,0,0,1,.6-.18c.24,0,.33.18.51.66l.42,1.05A1.78,1.78,0,0,1,231.72,672.8Z"/><path class="cls-1" d="M238.77,669.2c0,1.35.06,3.84.06,4,0,.63-.18.75-.87.75h-1.74c-.69,0-.87-.12-.87-.75,0-.21.06-2.7.06-4v-5.79c0-1.35-.06-3.84-.06-4,0-.63.18-.75.87-.75h1.26c.78,0,1,.12,1,.9s.09.9.27.9a.93.93,0,0,0,.45-.27,6.54,6.54,0,0,1,4.05-1.68c.45,0,.57.21.57.81v2.28c0,.45-.18.6-.51.6-.15,0-.42-.06-.72-.06a5.17,5.17,0,0,0-3.12,1.17,1.41,1.41,0,0,0-.66,1.35Z"/><path class="cls-1" d="M258.9,671.87a1.35,1.35,0,0,1,.18.57c0,.27-.18.42-.6.63a11.2,11.2,0,0,1-4.92,1.11c-5.34,0-7.56-3.51-7.56-7.56,0-4.65,2.94-8.19,7.59-8.19,3.84,0,6.06,2.64,6.06,7.26,0,1.53-.24,1.77-1,1.77h-8.49c-.54,0-.75.09-.75.45a3.89,3.89,0,0,0,.63,1.68c.69,1.08,1.89,1.71,3.84,1.71a7.22,7.22,0,0,0,3.36-.81,1.6,1.6,0,0,1,.6-.24c.24,0,.36.21.57.63Zm-2.49-7.59a3.42,3.42,0,0,0-.42-1.41,2.63,2.63,0,0,0-2.52-1.44,3.82,3.82,0,0,0-3.3,1.68,2.86,2.86,0,0,0-.54,1.23c0,.24.21.33.69.33h5.31C256.17,664.67,256.38,664.58,256.41,664.28Z"/><path class="cls-1" d="M271.47,673c0,.75-.15.93-.87,1a14.72,14.72,0,0,1-1.65.12c-3.66,0-4.92-1.8-4.92-4.83v-6.9c0-.6-.09-.75-.6-.75s-.87,0-1,0c-.78,0-.9-.12-.9-.9v-1.23c0-.78.12-.9.9-.9l1,0c.51,0,.57-.09.57-.72,0-.93-.06-2.64-.06-2.85,0-.63.18-.75.87-.75h1.65c.69,0,.87.12.87.75,0,.21-.06,1.8-.06,2.85,0,.63.09.72.69.72h.81l1.77,0c.78,0,.9.12.9.87v1.29c0,.75-.12.87-.9.87l-1.77,0h-.6c-.75,0-.9.15-.9.9v6.27c0,1.71.72,2.28,2.28,2.28.57,0,1.26-.18,1.47-.18s.42.21.42.78Z"/><path class="cls-1" d="M279.12,671.75a2.28,2.28,0,0,1-2.37,2.43,2,2,0,0,1-2.16-2.1,2.28,2.28,0,0,1,2.4-2.4A2,2,0,0,1,279.12,671.75Z"/><ellipse class="cls-2" cx="182.89" cy="463.75" rx="86.57" ry="20.3"/><path class="cls-3" d="M52.74,336.25c-11.9.63-24,10.18-23.39,22.08.59,10.91,10.75,18.52,20.15,24.08C59.56,388.36,70.67,394,82.31,393A31,31,0,0,0,104,381c3.37-4.45,5.88-10.14,11.06-12.22,3.78-1.52,8.06-.69,12.09-1.26s8.35-3.76,7.54-7.68h-.06c-1.74-4.51-4.83-9.9-9.64-9.33-2.8.33-4.86,2.68-7.21,4.26-4.81,3.2-11.19,3.16-16.68,1.37S90.78,351,85.92,347.89C75.88,341.47,64.64,335.61,52.74,336.25Z"/><path class="cls-4" d="M109.1,280.84c-1.89,5.35-3.75,11.46-1.1,16.48a16.67,16.67,0,0,0,3.13,3.93,42.32,42.32,0,0,0,4.68,4l.4-.05a21.36,21.36,0,0,1,.73-8.85c.82-2.66,2.28-5.29,4.73-6.61a12.85,12.85,0,0,1,5.42-1.2c.83,0,1.66-.07,2.5-.08v-.16c.62-3.42-.86-6.87-2.66-9.85-2.34-3.85-6.36-7.71-10.74-6.61C112.32,272.8,110.44,277.08,109.1,280.84Z"/><path class="cls-5" d="M116.94,296.34a21.36,21.36,0,0,0-.73,8.85A21.72,21.72,0,0,0,121.44,317c4.44,5,10.88,7.61,17.08,10.08l16.83,6.68c4.93-3.51,9.93-7,13.51-11.84,3.81-5.15,5.63-12.38,3-18.06l-.12.06a63.21,63.21,0,0,0-42.13-15.42c-.84,0-1.67,0-2.5.08a12.85,12.85,0,0,0-5.42,1.2C119.22,291.05,117.76,293.68,116.94,296.34Z"/><path class="cls-3" d="M137.83,188.7c-8,1.5-14.46,10-12.61,18s12.52,12.53,19,7.77c-1.5-4.27.69-9.3,4.22-12.24a24,24,0,0,1,9.33-5A18.52,18.52,0,0,0,145,188.65,19.93,19.93,0,0,0,137.83,188.7Z"/><path class="cls-4" d="M242.81,274.17h0a32.16,32.16,0,0,0,13,2.54,26.82,26.82,0,0,0,3.79-.34,19,19,0,0,0,6.91-2.41c7-4.23,9.72-13.39,8.61-21.48s-5.31-15.4-9.52-22.4v-.55c-35.31-.24-70.69-3.7-105.88-7.17a48.32,48.32,0,0,1-5.35-.79c1.48,7.75-.57,15.87-7.23,20.09-1.54,1-3.33,1.52-4.8,2.58-3.81,2.75-4.47,8.5-2.45,12.73s6.11,7.13,10.37,9.08c4.07,1.86,8.54,6.41,9.94,10.66l.64.31c5.09-4.32,12.85-5.65,20.18-5.52,1.13,0,2.25.07,3.35.16C204.11,272.53,223.23,271.27,242.81,274.17Zm-31.36-32a2.37,2.37,0,0,1,0-3.36,2.78,2.78,0,0,1,3.48-.1,1.77,1.77,0,0,1-.36,2.78A2.06,2.06,0,0,1,211.45,242.22Z"/><path class="cls-3" d="M144.25,214.44c.07.22.16.43.25.64,1.71,3.81,5.66,5.58,9.91,6.49a48.32,48.32,0,0,0,5.35.79c35.19,3.47,70.57,6.93,105.88,7.17,15,.12,30-.36,44.95-1.67,1.22-.09,2.44-.2,3.66-.32,6.05-.58,12.44-1.44,17.17-5.25s6.77-11.6,2.58-16a10.93,10.93,0,0,0-6.18-2.9c-3.2-.61-7-.72-10.82-1.71-81-5.23-103.87-3.38-155.25-4.88a15.48,15.48,0,0,0-3.95.42,24,24,0,0,0-9.33,5C144.94,205.14,142.75,210.17,144.25,214.44Z"/><path class="cls-5" d="M161,143.88c-12.4,10.94-19.83,28.35-15.94,44.42l-.05.35a18.52,18.52,0,0,1,12.79,8.57,15.48,15.48,0,0,1,3.95-.42c51.38,1.5,74.27-.35,155.25,4.88,3.86,1,7.62,1.1,10.82,1.71,1.77-16.63-8.69-32.19-20.91-43.59a129.85,129.85,0,0,0-100.49-33.74C190,127.76,173.39,133,161,143.88Z"/><path class="cls-5" d="M155.35,333.71l11.39,4.53c3,1.19,6.41,2.41,9.44,1.24,4.12-7.7,8.6-15.2,12.57-22.5l3.84-.47c-6.14-4-12-9.53-17.27-14.47l-3.81,1.09c.12.23.23.45.33.68,2.65,5.68.83,12.91-3,18.06C165.28,326.71,160.28,330.2,155.35,333.71Z"/><path class="cls-3" d="M184.41,271.66c-1.11,0-2.23-.1-3.35-.16-7.33-.13-15.09,1.2-20.18,5.52a15.41,15.41,0,0,0-3.95,5.1c-3.77,7.88,10.78,12.84,17.18,18.79l1.21,1.13c5.29,4.94,11.13,10.5,17.27,14.47q1.41.92,2.85,1.71c7.22,4,4.5,9.77,10.5,15.41,3.22,3,6.35,6.34,10.43,8s8.83,1.54,13.33,1.33l30.84-1.41c1.26-.06,2.53-.12,3.78-.29a13.38,13.38,0,0,0,5-1.52,19.29,19.29,0,0,0,4.49-4.07c.34-.38.67-.77,1-1.15,10-11.92,10.2-23.88,20.81-35.8,4.94-5.55,13.23-13.29,10.24-20.09-1.77-4-3.22-6.3-5.46-7.18-1.82-.71-4.16-.51-7.61.39-10.59,2.76-10.33,5.21-33.06,4.84l-.05-.34a26.82,26.82,0,0,1-3.79.34,32.16,32.16,0,0,1-13-2.54h0C223.23,271.27,204.11,272.53,184.41,271.66Z"/><path class="cls-5" d="M228,370.6a2.4,2.4,0,0,1,1.28,1,5.34,5.34,0,0,1,.65,2.36,7.56,7.56,0,0,1-.37,3.78,4.85,4.85,0,0,1-6,2.47,5.07,5.07,0,0,1-2.91-5.85,5.29,5.29,0,0,1,5.44-3.73Zm-1.88,20.88a3.46,3.46,0,0,1,2.39,2.87,7.41,7.41,0,0,1-1.29,4.58,5.6,5.6,0,0,1-1.38,1.74,4.18,4.18,0,0,1-4.22.21,5.32,5.32,0,0,1-2.85-3.29,4.46,4.46,0,0,1,1-4.17c1.55-1.65,4.07-1.7,6.35-1.58Zm-49.91-52c-6,11.33-11.28,23.09-12.91,35.2-.68,5.08,2.83,13,7.17,15.7a13.65,13.65,0,0,1,4.23,4.66c1.44,2.34,2.69,4.9,4.65,6.79,9.63,9.27,20,19,33.15,21.53l.73.13c9.34,1.64,19-.56,27.75-4.32a27,27,0,0,0,8.42-5.17q.49-.48.93-1c3.31-3.79,4.85-8.87,6.13-13.78a247.82,247.82,0,0,0,5.66-28.69,244.82,244.82,0,0,0,2.23-29.25c-1.25.17-2.52.23-3.78.29L229.7,343c-4.5.21-9.17.39-13.33-1.33s-7.21-5-10.43-8c-6-5.64-3.28-11.44-10.5-15.41q-1.44-.8-2.85-1.71l-3.84.47C184.78,324.28,180.3,331.78,176.18,339.48Zm46.4,17.32a3.69,3.69,0,0,1,1-2.45,5.34,5.34,0,0,1,5-1.6l.29.07a4.2,4.2,0,0,1-1.05,8.31,6.15,6.15,0,0,1-2.46-.73C224,359.67,222.61,358.4,222.58,356.8Z"/><path class="cls-6" d="M194.67,450.31,193.42,448a9.13,9.13,0,0,1-1.79.84c-3.27,1.07-6.79-.32-10-1.7-5.16-2.24-10.7-4.81-13.35-9.78a19.36,19.36,0,0,1-1.92-7.08l-.88.09q-1.1,10.31-2.21,20.59a2.6,2.6,0,0,0,.08,1.24,2.47,2.47,0,0,0,1.15,1.06l21.4,12.7c2.88,1.71,5.85,3.45,9.16,3.92,2.25.32,4.77-.07,6.31-1.75a7.45,7.45,0,0,0,1.48-2.69,12.84,12.84,0,0,0-.64-10.53A9.09,9.09,0,0,0,194.67,450.31Z"/><path class="cls-5" d="M208.89,433.38a27.39,27.39,0,0,0,3.87-7.43l.44-2.46-.73-.13c-13.12-2.57-23.52-12.26-33.15-21.53-2-1.89-3.21-4.45-4.65-6.79l-.08,0a55.61,55.61,0,0,0-8.27,34.31c0,.28.05.56.08.84a19.36,19.36,0,0,0,1.92,7.08c2.65,5,8.19,7.54,13.35,9.78,3.17,1.38,6.69,2.77,10,1.7a9.13,9.13,0,0,0,1.79-.84,23.22,23.22,0,0,0,2.66-2C200.69,442.18,205.45,438.17,208.89,433.38Z"/><path class="cls-5" d="M261.51,442.45c-.26-10.51-5.66-20.3-11.21-29.44q-.44.51-.93,1a27,27,0,0,1-8.42,5.17c-8.71,3.76-18.41,6-27.75,4.32l-.44,2.46a27.39,27.39,0,0,1-3.87,7.43c.62,7.1,4,13.75,7.24,20.14,1.26,2.45,2.79,5.13,5.43,5.89a5.94,5.94,0,0,0,1.18.2,13.81,13.81,0,0,0,3.71-.45q14.38-3.2,28.55-7.27c2.08-.59,4.32-1.33,5.49-3.15a8,8,0,0,0,1-3.94C261.52,444,261.53,443.23,261.51,442.45Z"/><path class="cls-4" d="M211.48,238.86a2.37,2.37,0,0,0,0,3.36,2.06,2.06,0,0,0,3.15-.68,1.77,1.77,0,0,0,.36-2.78A2.78,2.78,0,0,0,211.48,238.86Z"/><path class="cls-6" d="M222.74,459.61l-.15,1.57c3.67,2.64,5.74,7.74,10.11,9.14a14.31,14.31,0,0,0,4.43.46H261c6.44,0,13.35-.14,18.61-3.86,3.1-2.19,5.3-5.43,7.16-8.75,3-5.45,5.29-12.45,1.91-17.72-2.81-4.39-8.78-5.88-13.89-4.85-4.94,1-9.24,3.86-13.3,6.85,0,.78,0,1.56,0,2.35a8,8,0,0,1-1,3.94c-1.17,1.82-3.41,2.56-5.49,3.15q-14.15,4.08-28.55,7.27A13.81,13.81,0,0,1,222.74,459.61Z"/><path class="cls-4" d="M259.64,276.37l.05.34c22.73.37,22.47-2.08,33.06-4.84,3.45-.9,5.79-1.1,7.61-.39l.57-1q4.89-20.6,9.79-41.17l-.13-1.47c-15,1.31-29.95,1.79-44.95,1.67v.55c4.21,7,8.41,14.3,9.52,22.4s-1.61,17.25-8.61,21.48A19,19,0,0,1,259.64,276.37Zm29.88-31.21c-1.47-.37-2-2.68-.78-3.49.4-.59,2.76-1.39,3.3-.92a2.19,2.19,0,0,1,.64,2A2.79,2.79,0,0,1,289.52,245.16Z"/><path class="cls-5" d="M277.15,336.87l-2.38-2.32c-.32.38-.65.77-1,1.15a19.29,19.29,0,0,1-4.49,4.07,13.38,13.38,0,0,1-5,1.52,244.82,244.82,0,0,1-2.23,29.25l1.25.18c3.79,6.42,9.32,12,16.18,14.88a26.31,26.31,0,0,0,12.81,2,21.74,21.74,0,0,0,8.74-2.73,19.32,19.32,0,0,0,9.72-16.46,15.8,15.8,0,0,0-.19-2.27c-1.22-7.65-7.5-13.37-13.65-18.09q-4.72-3.63-9.65-7C284.23,339,280.79,336.87,277.15,336.87Z"/><path class="cls-4" d="M288.74,241.67c-1.27.81-.69,3.12.78,3.49a2.79,2.79,0,0,0,3.16-2.45,2.19,2.19,0,0,0-.64-2C291.5,240.28,289.14,241.08,288.74,241.67Z"/><path class="cls-4" d="M292.33,387.59l0,.28,19.17,1.24c4.36.29,9,.52,12.86-1.47,4.49-2.3,7.16-7.27,7.85-12.27.71-5.19-1.11-11.39-6-13.28a10.36,10.36,0,0,0-8.31.78,22.79,22.79,0,0,0-6.51,5.52h-.63a19.32,19.32,0,0,1-9.72,16.46A21.74,21.74,0,0,1,292.33,387.59Z"/><path class="cls-7" d="M317,201.68c-81-5.23-103.87-3.38-155.25-4.88a15.48,15.48,0,0,0-3.95.42,24,24,0,0,0-9.33,5c-3.53,2.94-5.72,8-4.22,12.24.07.22.16.43.25.64,1.71,3.81,5.66,5.58,9.91,6.49a48.32,48.32,0,0,0,5.35.79c35.19,3.47,70.57,6.93,105.88,7.17,15,.12,30-.36,44.95-1.67,1.22-.09,2.44-.2,3.66-.32,6.05-.58,12.44-1.44,17.17-5.25s6.77-11.6,2.58-16a10.93,10.93,0,0,0-6.18-2.9c-3.2-.61-7-.72-10.82-1.71"/><path class="cls-7" d="M327.82,203.42v0c1.77-16.63-8.69-32.19-20.91-43.59a129.85,129.85,0,0,0-100.49-33.74c-16.44,1.7-33,6.89-45.42,17.82s-19.83,28.35-15.94,44.42"/><path class="cls-7" d="M158.08,197.68c-.09-.16-.18-.31-.28-.46A18.52,18.52,0,0,0,145,188.65a19.93,19.93,0,0,0-7.18,0c-8,1.5-14.46,10-12.61,18s12.52,12.53,19,7.77l.17-.12"/><path class="cls-7" d="M242.81,274.17A33.07,33.07,0,0,1,227.33,261"/><path class="cls-7" d="M265.64,230.08c4.21,7,8.41,14.3,9.52,22.4s-1.61,17.25-8.61,21.48a19,19,0,0,1-6.91,2.41,26.82,26.82,0,0,1-3.79.34,32.16,32.16,0,0,1-13-2.54"/><path class="cls-7" d="M181.06,271.5c1.12.06,2.24.12,3.35.16,19.7.87,38.82-.39,58.4,2.51h0"/><path class="cls-7" d="M185.05,271.71l-.64,0c-1.1-.09-2.22-.14-3.35-.16-7.33-.13-15.09,1.2-20.18,5.52a15.41,15.41,0,0,0-3.95,5.1c-3.77,7.88,10.78,12.84,17.18,18.79l1.21,1.13c5.29,4.94,11.13,10.5,17.27,14.47q1.41.92,2.85,1.71c7.22,4,4.5,9.77,10.5,15.41,3.22,3,6.35,6.34,10.43,8s8.83,1.54,13.33,1.33l30.84-1.41c1.26-.06,2.53-.12,3.78-.29a13.38,13.38,0,0,0,5-1.52,19.29,19.29,0,0,0,4.49-4.07c.34-.38.67-.77,1-1.15,10-11.92,10.2-23.88,20.81-35.8,4.94-5.55,13.23-13.29,10.24-20.09-1.77-4-3.22-6.3-5.46-7.18-1.82-.71-4.16-.51-7.61.39-10.59,2.76-10.33,5.21-33.06,4.84"/><path class="cls-7" d="M310.72,229.33q-4.89,20.58-9.79,41.17"/><path class="cls-7" d="M154.41,221.57c1.48,7.75-.57,15.87-7.23,20.09-1.54,1-3.33,1.52-4.8,2.58-3.81,2.75-4.47,8.5-2.45,12.73s6.11,7.13,10.37,9.08c4.07,1.86,8.54,6.41,9.94,10.66"/><path class="cls-7" d="M288.74,241.67c-1.27.81-.69,3.12.78,3.49a2.79,2.79,0,0,0,3.16-2.45,2.19,2.19,0,0,0-.64-2C291.5,240.28,289.14,241.08,288.74,241.67Z"/><path class="cls-7" d="M214.6,241.54a1.77,1.77,0,0,0,.36-2.78,2.78,2.78,0,0,0-3.48.1,2.37,2.37,0,0,0,0,3.36A2.06,2.06,0,0,0,214.6,241.54Z"/><path class="cls-7" d="M188.75,317c-4,7.3-8.45,14.8-12.57,22.5-6,11.33-11.28,23.09-12.91,35.2-.68,5.08,2.83,13,7.17,15.7a13.65,13.65,0,0,1,4.23,4.66c1.44,2.34,2.69,4.9,4.65,6.79,9.63,9.27,20,19,33.15,21.53l.73.13c9.34,1.64,19-.56,27.75-4.32a27,27,0,0,0,8.42-5.17q.49-.48.93-1c3.31-3.79,4.85-8.87,6.13-13.78a247.82,247.82,0,0,0,5.66-28.69,244.82,244.82,0,0,0,2.23-29.25v-.18"/><path class="cls-7" d="M275.84,337a9.61,9.61,0,0,1,1.31-.09c3.64,0,7.08,2.09,10.15,4.18q4.92,3.36,9.65,7c6.15,4.72,12.43,10.44,13.65,18.09a15.8,15.8,0,0,1,.19,2.27,19.32,19.32,0,0,1-9.72,16.46,21.74,21.74,0,0,1-8.74,2.73,26.31,26.31,0,0,1-12.81-2c-6.86-2.92-12.39-8.46-16.18-14.88"/><path class="cls-7" d="M292.36,387.87l19.17,1.24c4.36.29,9,.52,12.86-1.47,4.49-2.3,7.16-7.27,7.85-12.27.71-5.19-1.11-11.39-6-13.28a10.36,10.36,0,0,0-8.31.78,22.79,22.79,0,0,0-6.51,5.52"/><path class="cls-7" d="M171.72,303.87a63.21,63.21,0,0,0-42.13-15.42c-.84,0-1.67,0-2.5.08a12.85,12.85,0,0,0-5.42,1.2c-2.45,1.32-3.91,3.95-4.73,6.61a21.36,21.36,0,0,0-.73,8.85A21.72,21.72,0,0,0,121.44,317c4.44,5,10.88,7.61,17.08,10.08l16.83,6.68,11.39,4.53c3,1.19,6.41,2.41,9.44,1.24h0"/><path class="cls-7" d="M129.59,288.29c.62-3.42-.86-6.87-2.66-9.85-2.34-3.85-6.36-7.71-10.74-6.61-3.87,1-5.75,5.25-7.09,9-1.89,5.35-3.75,11.46-1.1,16.48a16.67,16.67,0,0,0,3.13,3.93,42.32,42.32,0,0,0,4.68,4"/><path class="cls-7" d="M212.76,426a27.39,27.39,0,0,1-3.87,7.43c-3.44,4.79-8.2,8.8-12.81,12.6a23.22,23.22,0,0,1-2.66,2,9.13,9.13,0,0,1-1.79.84c-3.27,1.07-6.79-.32-10-1.7-5.16-2.24-10.7-4.81-13.35-9.78a19.36,19.36,0,0,1-1.92-7.08c0-.28-.06-.56-.08-.84a55.61,55.61,0,0,1,8.27-34.31"/><path class="cls-7" d="M208.79,431.4c0,.66,0,1.33.1,2,.62,7.1,4,13.75,7.24,20.14,1.26,2.45,2.79,5.13,5.43,5.89a5.94,5.94,0,0,0,1.18.2,13.81,13.81,0,0,0,3.71-.45q14.38-3.2,28.55-7.27c2.08-.59,4.32-1.33,5.49-3.15a8,8,0,0,0,1-3.94c0-.79,0-1.57,0-2.35-.26-10.51-5.66-20.3-11.21-29.44l-1.08-1.76"/><path class="cls-7" d="M220.9,460.21a9.14,9.14,0,0,1,1.69,1c3.67,2.64,5.74,7.74,10.11,9.14a14.31,14.31,0,0,0,4.43.46H261c6.44,0,13.35-.14,18.61-3.86,3.1-2.19,5.3-5.43,7.16-8.75,3-5.45,5.29-12.45,1.91-17.72-2.81-4.39-8.78-5.88-13.89-4.85-4.94,1-9.24,3.86-13.3,6.85l-.45.33"/><path class="cls-7" d="M165.52,430.33q-1.1,10.31-2.21,20.59a2.6,2.6,0,0,0,.08,1.24,2.47,2.47,0,0,0,1.15,1.06l21.4,12.7c2.88,1.71,5.85,3.45,9.16,3.92,2.25.32,4.77-.07,6.31-1.75a7.45,7.45,0,0,0,1.48-2.69,12.84,12.84,0,0,0-.64-10.53,9.09,9.09,0,0,0-7.58-4.56,7.18,7.18,0,0,0-1.59.18"/><path class="cls-7" d="M228.64,352.75a5.34,5.34,0,0,0-5,1.6,3.69,3.69,0,0,0-1,2.45c0,1.6,1.4,2.87,2.84,3.6a6.15,6.15,0,0,0,2.46.73,4.2,4.2,0,0,0,1.05-8.31"/><path class="cls-7" d="M226.07,370.66a5.29,5.29,0,0,0-5.44,3.73,5.07,5.07,0,0,0,2.91,5.85,4.85,4.85,0,0,0,6-2.47,7.56,7.56,0,0,0,.37-3.78,5.34,5.34,0,0,0-.65-2.36,2.4,2.4,0,0,0-1.28-1,1.68,1.68,0,0,0-.77-.07"/><path class="cls-7" d="M226.34,391.85h-.27c-2.28-.12-4.8-.07-6.35,1.58a4.46,4.46,0,0,0-1,4.17,5.32,5.32,0,0,0,2.85,3.29,4.18,4.18,0,0,0,4.22-.21,5.6,5.6,0,0,0,1.38-1.74,7.41,7.41,0,0,0,1.29-4.58,3.46,3.46,0,0,0-2.39-2.87,2.26,2.26,0,0,0-.86,0"/><path class="cls-7" d="M171,302.28c.18.28.35.57.51.85s.23.45.33.68c2.65,5.68.83,12.91-3,18.06-3.58,4.84-8.58,8.33-13.51,11.84L153,335.43a135.22,135.22,0,0,0-20.79,18.85"/><path class="cls-7" d="M134.64,359.82c-1.74-4.51-4.83-9.9-9.64-9.33-2.8.33-4.86,2.68-7.21,4.26-4.81,3.2-11.19,3.16-16.68,1.37S90.78,351,85.92,347.89c-10-6.42-21.28-12.28-33.18-11.64s-24,10.18-23.39,22.08c.59,10.91,10.75,18.52,20.15,24.08C59.56,388.36,70.67,394,82.31,393A31,31,0,0,0,104,381c3.37-4.45,5.88-10.14,11.06-12.22,3.78-1.52,8.06-.69,12.09-1.26s8.35-3.76,7.54-7.68a.5.5,0,0,0,0-.12"/></g></g></svg>