<?xml version="1.0" encoding="utf-8"?>
<!-- Generator: Adobe Illustrator 25.4.1, svg Export Plug-In . svg Version: 6.00 Build 0)  -->
<svg version="1.1" id="レイヤー_1" xmlns="http://www.w3.org/2000/svg" xmlns:xlink="http://www.w3.org/1999/xlink" x="0px"
	 y="0px" viewBox="0 0 369.6 676.2" style="enable-background:new 0 0 369.6 676.2;" xml:space="preserve">
<style type="text/css">
	.st0{fill:#211815;}
	.st1{fill:#727171;}
	.st2{fill:#654826;}
	.st3{fill:#4B3C2E;}
	.st4{fill:#EBF5F7;}
	.st5{fill:#C2763B;}
	.st6{fill:#F9EDE8;}
	.st7{fill:#C4305A;}
	.st8{fill:none;stroke:#211815;stroke-width:5.6;stroke-miterlimit:10;}
</style>
<path class="st0" d="M111.4,35.1H47.2c-1.2,0-2.2-1-2.2-2.2c0-1.2,1-2.2,2.2-2.2h62.2c0.2-0.9,1-1.6,2-1.6c1.2,0,2.2,0.9,2.2,2.1
	v1.6C113.6,34.1,112.6,35.1,111.4,35.1z"/>
<path class="st0" d="M124.9,61.5c-0.6-1-0.3-2.3,0.7-3c0,0,0,0,0,0c20.3-12.5,31.2-31,33-56.5c0.1-1.2,1.2-2.1,2.4-2
	c1.1,0.1,2,1.1,2,2.2c-2,27.1-13.4,46.7-35,59.9c-1,0.7-2.3,0.4-3-0.6C125,61.6,124.9,61.6,124.9,61.5z M197.1,66.2
	c1,0.7,1.3,2,0.6,3s-2,1.3-3,0.6c-19.4-13-31.7-34.2-34.2-45.1c-0.2-1.2,0.5-2.3,1.7-2.6c1.2-0.2,2.3,0.5,2.6,1.7l0,0
	C167,34,178.5,53.9,197.1,66.2z"/>
<path class="st0" d="M209.5,50.1h64.8c0.4-0.8,1.1-1.3,2-1.2c1.2,0,2.1,1,2.1,2.1v1.2c0,1.2-0.9,2.2-2.1,2.2h-66.7
	c-1.2,0-2.2-1-2.2-2.2C207.3,51.1,208.3,50.1,209.5,50.1C209.5,50.1,209.5,50.1,209.5,50.1L209.5,50.1z M223.1,16.1h37.4
	c0.5-1.1,1.8-1.5,2.9-1.1c0.8,0.4,1.3,1.2,1.2,2.1v1.2c0,1.2-1,2.1-2.1,2.1c0,0,0,0-0.1,0h-39.3c-1.1,0-2.1-0.9-2.1-2
	c0,0,0-0.1,0-0.1c-0.1-1.2,0.8-2.2,2-2.3C223.1,16.1,223.1,16.1,223.1,16.1L223.1,16.1z"/>
<path class="st0" d="M289.6,38.1c-0.8-0.9-0.8-2.2,0-3.1c0.1-0.1,8.9-8.9,14.2-17c0.6-1,1.9-1.4,2.9-0.8c1,0.6,1.4,1.9,0.8,2.9
	c0,0.1-0.1,0.2-0.2,0.2c-5.5,8.4-14.4,17.3-14.8,17.7C291.7,38.9,290.4,38.9,289.6,38.1z M304.9,4.1c1,0.6,1.3,2,0.7,3c0,0,0,0,0,0
	c-4,6.2-11.9,14.1-12.2,14.4c-1,0.7-2.3,0.5-3-0.5c-0.5-0.7-0.5-1.8,0-2.5c0.1-0.1,7.8-7.9,11.6-13.8C302.6,3.8,303.9,3.5,304.9,4.1
	L304.9,4.1z M301.6,33.5c1.3,0,2.4,1.1,2.4,2.4V59c0,1.3-1.1,2.4-2.4,2.4c-1.3,0-2.4-1.1-2.4-2.4V35.8
	C299.2,34.5,300.3,33.4,301.6,33.5C301.6,33.5,301.6,33.5,301.6,33.5L301.6,33.5z M357.6,71.1c-8-5.1-15.4-10.9-22.3-17.4
	c-5.5,5.6-10.2,9.6-10.6,9.9c-0.9,0.8-2.3,0.6-3.1-0.2c-0.3-0.4-0.5-0.9-0.5-1.4c0-0.7,0.3-1.3,0.8-1.7c0.1-0.1,4.8-4,10.2-9.6
	c-3-3.1-5.8-6.4-8.4-9.8c-0.7-0.9-0.5-2.3,0.4-3c0.9-0.7,2.3-0.5,3,0.4l0,0c2.5,3.2,5.1,6.3,8,9.3c3.9-4.1,7.3-8.6,10.2-13.4h-19.5
	c-1.2,0.1-2.2-0.8-2.3-2c-0.1-1.2,0.8-2.2,2-2.3c0.1,0,0.2,0,0.3,0H349c0.7,0,1.4,0.4,1.8,1c0.4,0.6,0.5,1.4,0.2,2.1
	c-2.7,6-7.7,12.4-12.6,17.7c6.6,6.3,13.8,11.9,21.5,16.8c1.1,0.6,1.4,1.9,0.8,3c0,0,0,0,0,0C360,71.4,358.7,71.7,357.6,71.1
	L357.6,71.1z M328.8,1.5c1.2,0,2.1,1,2.1,2.2c0,0,0,0.1,0,0.1c-0.7,11.7-5.2,19.3-5.4,19.5c-0.5,1-1.8,1.4-2.8,0.8
	c0,0-0.1-0.1-0.1-0.1c-1-0.6-1.4-1.9-0.8-2.9c0,0,0-0.1,0.1-0.1c2.9-5.4,4.6-11.4,4.8-17.5C326.6,2.3,327.5,1.4,328.8,1.5
	C328.7,1.5,328.7,1.5,328.8,1.5z M340.2,22.2V6.7h-5c-1.2,0-2.1-0.9-2.1-2.1c0,0,0,0,0,0c0-1.2,0.9-2.2,2.1-2.2c0,0,0,0,0.1,0h5.8
	c0.4-0.4,1-0.6,1.6-0.6c1.3,0,2.4,1.1,2.4,2.4c0,0,0,0,0,0v15.7h7.1v-6.4c0.1-1,0.9-1.7,1.9-1.7c0.9,0.1,1.6,0.8,1.7,1.7v6.4
	c1,0.3,1.8,1.3,1.8,2.4c0,1.3-1.1,2.4-2.4,2.4h-12.5C341.3,24.6,340.3,23.5,340.2,22.2z"/>
<path class="st0" d="M155.6,565.2c0.5-0.1,1-0.1,1.4-0.2c0.8,0,0.8,0.5,0.8,1.2c0.2,1.8,0.5,3.6,0.9,5.4c0.1,0.4,0.2,0.9,0.7,0.9
	s5.3-2.8,6.1-3.3c0.2-0.2,0.5-0.3,0.8-0.3c0.4,0,0.9,0.9,1.1,1.2c0.4,0.6,0.7,1.2,0.9,1.8c0,0.3-0.3,0.4-0.6,0.5
	c-2.6,1-5,2.1-7.4,3.5c-1.9,1-3.7,2.2-5.4,3.5c-0.9,0.7-1.4,1.6-1.5,2.7c0,1.1,1.1,1.8,2,2.2c1.3,0.4,2.6,0.6,4,0.5
	c2.6,0,5.2-0.3,7.8-0.8c0.1,0,0.2,0,0.3,0c0.4,0,0.4,1.2,0.4,1.9v0.3c0,0.8,0,1.1-0.6,1.3c-2.7,0.3-5.5,0.5-8.2,0.5
	c-2.1,0.2-4.3-0.3-6.1-1.3c-1.7-0.9-2.8-2.7-2.8-4.6c0-3.3,2.7-5.4,5.2-7c0.3-0.2,0.5-0.5,0.5-0.8c0-0.2,0-0.4-0.1-0.5
	c-0.4-1.1-1.2-4.3-1.5-5.5c-0.2-0.7-0.3-1.3-0.6-2c0-0.1-0.1-0.2-0.1-0.4C153.7,565.3,154.7,565.3,155.6,565.2z"/>
<path class="st0" d="M197.4,577.8c0,4.7-3.5,8.4-7.3,10.7c-0.8,0.5-1.7,0.9-2.6,1.1c-0.9,0-2.1-2-2.1-2.5c0-0.3,0.3-0.4,0.6-0.5
	c3.6-1.1,8-4.4,8-8.6c0.2-2.1-1.5-4-3.6-4.1c-0.2,0-0.4,0-0.6,0c-2.5,0-4.6,1.3-6.4,2.8c-0.2,0.2-0.4,0.3-0.6,0.3
	c-0.7,0-1.7-2.2-1.7-2.8c0-0.5,0.5-0.8,0.9-0.9c2.4-1.5,5.2-2.3,8-2.4C194.3,570.8,197.4,573.4,197.4,577.8z M185,565
	c0.1-0.3,0.2-0.6,0.6-0.6c0.2,0,0.3,0.1,0.5,0.2c2.4,0.8,4.9,1.3,7.5,1.5c0.4,0,0.8,0,0.8,0.5c-0.1,0.6-0.2,1.2-0.3,1.8
	c-0.1,0.6-0.3,0.9-0.8,0.9c-2.3-0.3-4.6-0.8-6.9-1.3c-1.3-0.3-1.9-0.5-1.9-1C184.5,566.3,184.7,565.7,185,565z"/>
<path class="st0" d="M215.6,565.2c0.5-0.1,1-0.1,1.4-0.2c0.8,0,0.8,0.5,0.8,1.2c0.2,1.8,0.5,3.6,0.9,5.4c0.1,0.4,0.2,0.9,0.7,0.9
	s5.3-2.8,6.1-3.3c0.2-0.2,0.5-0.3,0.8-0.3c0.4,0,0.9,0.9,1.1,1.2c0.4,0.6,0.7,1.2,0.9,1.8c0,0.3-0.3,0.4-0.6,0.5
	c-2.6,1-5,2.1-7.4,3.5c-1.9,1-3.7,2.2-5.4,3.5c-0.9,0.7-1.4,1.6-1.5,2.7c0,1.1,1.1,1.8,2,2.2c1.3,0.4,2.6,0.6,4,0.5
	c2.6,0,5.2-0.3,7.8-0.8c0.1,0,0.2,0,0.3,0c0.4,0,0.4,1.2,0.4,1.9v0.3c0,0.8,0,1.1-0.6,1.3c-2.7,0.3-5.5,0.5-8.2,0.5
	c-2.1,0.2-4.3-0.3-6.1-1.3c-1.7-0.9-2.8-2.7-2.8-4.6c0-3.3,2.7-5.4,5.2-7c0.3-0.2,0.5-0.5,0.5-0.8c0-0.2,0-0.4-0.1-0.5
	c-0.4-1.1-1.2-4.3-1.5-5.5c-0.2-0.7-0.3-1.3-0.6-2c0-0.1-0.1-0.2-0.1-0.4C213.7,565.3,214.7,565.3,215.6,565.2z"/>
<path class="st0" d="M257.4,577.8c0,4.7-3.5,8.4-7.3,10.7c-0.8,0.5-1.7,0.9-2.6,1.1c-0.9,0-2.1-2-2.1-2.5c0-0.3,0.3-0.4,0.6-0.5
	c3.6-1.1,8-4.4,8-8.6c0.2-2.1-1.5-4-3.6-4.1c-0.2,0-0.4,0-0.6,0c-2.5,0-4.6,1.3-6.4,2.8c-0.2,0.2-0.4,0.3-0.6,0.3
	c-0.7,0-1.7-2.2-1.7-2.8c0-0.5,0.5-0.8,0.9-0.9c2.4-1.5,5.2-2.3,8-2.4C254.3,570.8,257.4,573.4,257.4,577.8z M245,565
	c0.1-0.3,0.2-0.6,0.6-0.6c0.2,0,0.3,0.1,0.5,0.2c2.4,0.8,4.9,1.3,7.5,1.5c0.4,0,0.8,0,0.8,0.5c-0.1,0.6-0.2,1.2-0.3,1.8
	c-0.1,0.6-0.3,0.9-0.8,0.9c-2.3-0.3-4.6-0.8-6.9-1.3c-1.3-0.3-1.9-0.5-1.9-1C244.5,566.3,244.7,565.7,245,565z"/>
<path class="st0" d="M135.8,612c0.6,0,1.1,0,1.7-0.2h0.3c0.6,0,1.9,1.7,1.9,2c-0.1,0.3-0.2,0.5-0.4,0.8c-0.2,0.4-0.5,0.9-0.9,1.6
	c-2.9,5.7-5.9,10.1-11.4,13.6c-0.7,0.4-3.5,2.2-4.1,2.2s-2.6-1.5-2.6-2c0-0.3,0.4-0.4,0.6-0.5c4.7-2,8.7-5.4,11.6-9.6
	c0.5-0.8,2.3-3.7,2.3-4.4c0-0.4-0.5-0.4-0.9-0.4h-5.7c-0.7,0-0.9,0.3-1.3,0.8c-0.6,0.8-4,4.9-4.8,4.9c-0.4,0-2.6-1.2-2.6-1.8
	c0-0.2,0.1-0.3,0.3-0.4c3.5-2.9,6.3-6.6,8-10.7c0.1-0.3,0.2-0.7,0.5-0.7c0.5,0.2,1.1,0.4,1.6,0.7c0.3,0.2,1.8,0.7,1.8,1
	c0,0.1-0.1,0.3-0.3,0.3c-0.4,0.1-0.5,0.3-1,1.2c-0.2,0.3-0.4,0.7-0.5,1.1c0,0.3,0.2,0.5,0.4,0.5c0,0,0,0,0.1,0L135.8,612z"/>
<path class="st0" d="M155.2,618.5c0,1.3,0.1,2.7,0.1,4.1c0,0.9-0.3,1-1.7,1s-1.8-0.1-1.8-0.9c0-1.4,0.1-2.8,0.1-4.2v-6.3
	c0-0.8-0.1-1.6-0.1-2.4c0-0.2,0-0.4,0-0.5s0.1-0.3,0.3-0.3s2.2,0.3,2.6,0.3c0.6,0.1,1,0.1,1,0.4c0,0.1-0.1,0.2-0.1,0.3
	c-0.3,0.5-0.4,1.1-0.3,1.7c0,0.5,0,1,0,1.7L155.2,618.5z M167,617.3c0,2.1-0.1,4.3-0.3,6.4c-0.2,2.7-1.6,5.3-3.7,7
	c-0.5,0.4-2.8,2.1-3.3,2.1s-2.5-1.5-2.5-2c0-0.3,0.6-0.5,0.8-0.6c2.9-1.5,4.8-3.2,5.3-6.6c0.3-1.9,0.4-3.8,0.4-5.8v-6.5
	c0-0.7,0-1.4-0.1-2.1c0-0.2-0.1-0.3-0.1-0.5c0-0.2,0.1-0.3,0.4-0.3c1,0,2,0.1,3,0.3c0.2,0.1,0.6,0.1,0.6,0.3s-0.1,0.3-0.3,0.4
	c-0.2,0.4-0.3,0.9-0.2,1.3L167,617.3z"/>
<path class="st0" d="M194.1,610.8c0.4,0,0.9,0,1.3-0.1c0.2,0,0.5-0.1,0.7-0.1c0.6,0,1.9,1.7,1.9,2c-0.2,0.4-0.4,0.8-0.7,1.2
	c-0.2,0.3-0.4,0.6-0.5,0.8c-1.1,2-2.5,3.9-3.9,5.7c-0.3,0.3-0.3,0.8,0,1.1c0.1,0.1,0.1,0.1,0.2,0.2c1.8,1.2,3.5,2.5,5.1,3.9
	c0.7,0.6,1.5,1.3,2.2,2c0.1,0.1,0.2,0.3,0.2,0.4c0,0.6-1.6,2.4-2.3,2.4c-0.3,0-0.6-0.2-0.8-0.5c-1.9-2.3-4.2-4.3-6.6-5.9
	c-0.2-0.2-0.4-0.3-0.7-0.3c-0.4,0-0.7,0.2-0.9,0.5c-2.3,2.1-4.8,3.8-7.5,5.2c-0.4,0.2-0.9,0.4-1.3,0.6c-0.6,0-2-2-2-2.5
	c0-0.3,0.4-0.5,0.6-0.6c5.3-2,10.4-6.6,13.4-11.4c0.2-0.3,0.4-0.6,0.5-1c0-0.4-0.4-0.5-0.9-0.5H186c-1.3,0-2.6,0.1-3.9,0.1
	c-0.8,0-0.8-0.5-0.8-1.8c0-1.1,0-1.5,0.7-1.5c1.3,0,2.6,0.1,3.9,0.1L194.1,610.8z"/>
<path class="st0" d="M228.1,613.4c0.6,0,1.1,0,1.7-0.1c0.1,0,0.2,0,0.3,0c0.6,0,2.1,1.9,2.1,2.2c0,0.2-0.4,0.6-0.9,1
	c-0.3,0.2-0.5,0.5-0.8,0.8c-2.6,2.5-5.2,5-8,7.3c-0.3,0.2-0.6,0.5-0.6,0.9s0.3,0.6,0.4,0.9c0.4,0.6,0.8,1.2,1.1,1.8
	c0,0.6-1.9,1.8-2.5,1.8c-0.3,0-0.5-0.3-0.6-0.5c-1.5-2.4-3.3-4.6-5.4-6.5c-0.2-0.2-0.6-0.5-0.6-0.8c0-0.5,1.6-1.8,2.2-1.8
	s2,1.5,2.3,1.9s0.4,0.5,0.8,0.5c0.3,0,0.5-0.1,0.7-0.3c1.3-1.1,2.6-2.2,3.8-3.3c0.3-0.3,1.9-1.7,1.9-2.1s-0.5-0.4-1.1-0.4h-12.6
	c-1.3,0-2.8,0.1-3.8,0.1c-0.8,0-0.8-0.6-0.8-1.5c0-1.5,0-1.9,0.7-1.9c1.3,0,2.6,0.1,3.9,0.1L228.1,613.4z"/>
<path class="st0" d="M254.1,610.8c0.4,0,0.9,0,1.3-0.1c0.2,0,0.5-0.1,0.7-0.1c0.6,0,1.9,1.7,1.9,2c-0.2,0.4-0.4,0.8-0.7,1.2
	c-0.2,0.3-0.4,0.6-0.5,0.8c-1.1,2-2.5,3.9-3.9,5.7c-0.3,0.3-0.3,0.8,0,1.1c0.1,0.1,0.1,0.1,0.2,0.2c1.8,1.2,3.5,2.5,5.1,3.9
	c0.7,0.6,1.5,1.3,2.2,2c0.1,0.1,0.2,0.3,0.2,0.4c0,0.6-1.6,2.4-2.3,2.4c-0.3,0-0.6-0.2-0.8-0.5c-1.9-2.3-4.2-4.3-6.6-5.9
	c-0.2-0.2-0.4-0.3-0.7-0.3c-0.4,0-0.7,0.2-0.9,0.5c-2.3,2.1-4.8,3.8-7.5,5.2c-0.4,0.2-0.9,0.4-1.3,0.6c-0.6,0-2-2-2-2.5
	c0-0.3,0.4-0.5,0.6-0.6c5.3-2,10.4-6.6,13.4-11.4c0.2-0.3,0.4-0.6,0.5-1c0-0.4-0.4-0.5-0.9-0.5h-6.2c-1.3,0-2.6,0.1-3.9,0.1
	c-0.8,0-0.8-0.5-0.8-1.8c0-1.1,0-1.5,0.7-1.5c1.3,0,2.6,0.1,3.9,0.1L254.1,610.8z"/>
<path class="st0" d="M281.7,608.2c0,0.2-0.2,0.3-0.4,0.4c-0.5,0.2-0.6,0.3-1,1c-0.1,0.2-0.2,0.5-0.3,0.7c0,0.2,0.1,0.3,0.3,0.3
	c0,0,0,0,0.1,0c1.2-0.2,2.3-0.5,3.5-0.8c0.2-0.1,0.5-0.2,0.8-0.2c0.5,0,0.7,0.5,0.8,0.9c0.1,0.5,0.2,1.1,0.2,1.6
	c0,0.5-1,0.6-1.6,0.8c-1.9,0.4-3.8,0.7-5.7,0.9c-0.4,0-0.7,0.2-0.9,0.5c-0.4,0.5-0.7,1.1-1,1.7c0,0.1,0.1,0.2,0.2,0.2
	c0.2,0,0.4-0.1,0.5-0.2c1-0.5,2.1-0.7,3.3-0.8c1.7-0.2,3.2,1,3.4,2.7c0,0,0,0,0,0c0.1,0.3,0.1,0.5,0.5,0.5c1.2-0.5,2.4-1.1,3.5-1.7
	c0.2-0.1,0.5-0.3,0.8-0.3c0.6,0,1.3,2.3,1.3,2.8s-0.3,0.5-0.9,0.7c-0.1,0.1-0.3,0.1-0.4,0.2c-1.2,0.4-2.4,1-3.5,1.5
	c-0.5,0.2-0.8,0.4-0.8,1v0.4c0,0.9,0,1.8,0,2.8c0,1.1-0.1,1.2-1.3,1.2s-1.8,0-1.8-0.8s0.1-1.3,0.1-1.9c0-0.3-0.1-0.5-0.4-0.5
	s-3.2,1.3-3.2,3.2c0,2,2.9,2.2,4.4,2.2c1.9,0,3.8-0.3,5.6-0.8c0.2,0,0.4-0.1,0.6-0.1c0.4,0,0.6,0.3,0.6,2c0,0.9,0,1.1-0.7,1.3
	c-1.9,0.3-3.8,0.4-5.8,0.4c-1.6,0.1-3.2-0.2-4.7-0.8c-1.8-0.7-3-2.4-3-4.3c0-2.7,2.2-4.2,4.3-5.4c0.6-0.4,1.2-0.7,1.9-1
	c0.3-0.2,0.5-0.3,0.5-0.7c0-0.3-0.1-0.6-0.1-0.8c-0.1-0.6-0.7-1-1.3-1c-2.1,0.3-4.1,1.2-5.6,2.7c-1,1.1-1.8,2.2-2.5,3.5
	c-0.1,0.2-0.2,0.3-0.4,0.3c-0.5,0-2.5-1.2-2.5-1.7c0-0.2,0.2-0.5,0.4-0.7c0.7-0.8,5-6.8,5-7.3c0-0.3-0.2-0.4-0.7-0.4
	s-1.2,0.1-2.1,0.1c-0.7,0-0.8-0.1-0.8-1.7c0-1.2,0.1-1.4,0.9-1.4c0.5,0,1.3,0,2.2,0h0.9c0.8,0,1.6,0,1.9-0.4
	c0.7-1.2,1.2-2.5,1.6-3.9c0.1-0.3,0.1-0.6,0.4-0.6S281.7,607.8,281.7,608.2z"/>
<path class="st0" d="M98.1,661.9h-0.4c-1,0-2,0.1-3.1,0.1c-0.7,0-0.6-0.4-0.6-1.4s0-1.4,0.6-1.4c1,0,2,0.1,3.1,0.1h0.4
	c0.6,0,0.8-0.2,0.8-0.8v-1.8c0-0.6-0.2-0.8-0.8-0.8c-0.8,0-1.6,0.1-2.4,0.1c-0.6,0-0.6-0.3-0.6-1.3s0-1.4,0.6-1.4
	c0.8,0,1.6,0.1,2.4,0.1c0.6,0,0.8-0.3,0.8-0.8c0-0.8,0-1.6-0.1-2.4c0-0.1,0-0.2,0-0.3c0-0.4,0.3-0.4,0.6-0.4c0.8,0,1.6,0.1,2.5,0.2
	c0.3,0,0.8,0,0.8,0.4c0,0.2-0.2,0.3-0.4,0.5s-0.4,0.6-0.4,1.3v0.7c0,0.6,0.2,0.8,0.8,0.8c0.7,0,1.4-0.1,2.1-0.1s0.7,0.3,0.7,1.4
	s0,1.3-0.7,1.3s-1.4-0.1-2.1-0.1c-0.6,0-0.8,0.2-0.8,0.8v1.8c0,0.6,0.2,0.8,0.8,0.8c1,0,1.9-0.1,2.9-0.1c0.7,0,0.6,0.3,0.6,1.4
	s0,1.4-0.6,1.4c-1,0-2-0.1-3.1-0.1h-0.8c0,0-0.1,0-0.1,0c0,0,0,0,0.1,0.1c0.3,0,0.9,0,0.9,0.4c0,0.2-0.2,0.3-0.4,0.5
	c-0.4,0.3-0.4,0.7-0.4,1.7c0,0.5,0.3,0.8,0.8,0.8h0.7c0.8,0,1.4-0.1,1.9-0.1c0.7,0,0.6,0.4,0.6,1.4s0,1.4-0.6,1.4
	c-0.4,0-1.1-0.1-1.9-0.1h-0.7c-0.6,0-0.8,0.2-0.8,0.8v2.2c-0.1,0.5,0.2,1,0.7,1c0,0,0,0,0,0c0.6,0.2,1.2,0.3,1.9,0.4
	c2.7,0.3,5.5,0.4,8.2,0.3c1.9,0,3.8-0.1,5.7-0.1c0.5,0,1-0.1,1.5-0.1s0.7,0.5,0.7,1c0.1,0.6-0.1,1.3-0.6,1.8
	c-0.5,0.2-1.1,0.3-1.7,0.3c-1.4,0-2.9,0-4.3,0h-5.8c-4,0-8.2-0.3-10.9-3.8c-0.1-0.1-0.2-0.2-0.3-0.2s-0.2,0.2-0.3,0.3
	c-0.7,3.4-1,3.7-1.4,3.7s-2-0.4-2-1c0-0.2,0.1-0.4,0.2-0.6c1-3.1,1.5-6.3,1.6-9.5v-0.5c0-0.3,0.1-0.5,0.4-0.5s1.7,0.2,2.1,0.3
	c0.2,0,0.7,0.1,0.7,0.4s-0.2,0.3-0.3,0.4c-0.4,0.2-0.4,0.3-0.5,1.2c0,0.3,0,0.8-0.1,1.4c0,0.1,0,0.2,0,0.3c0,0.4,0.1,0.7,0.3,1
	c0.2,0.3,0.4,0.6,0.7,0.9c0.1,0.1,0.1,0.1,0.2,0.1c0.2,0,0.3-0.2,0.3-0.4v-4c0-0.9,0-1.9-0.1-2.8C98.7,662,98.5,661.9,98.1,661.9z
	 M110.7,653.6c0-0.5-0.3-0.6-0.7-0.6c-0.7,0-1.4,0-2.1,0s-0.7-0.3-0.7-1.3s0-1.3,0.7-1.3s1.6,0.1,2.4,0.1h5.1c0.8,0,1.7-0.1,2.5-0.1
	c1.2,0,1.6,0.3,1.6,1.6c0,2.5-0.3,4.9-1,7.3c-0.6,1.6-2.4,1.7-3.8,1.7c-1,0-1.7,0.1-1.7-1.9c0-0.4,0-0.9,0.4-0.9c0.2,0,0.3,0,0.4,0
	s0.8,0,1,0c0.9,0,1.2-0.1,1.4-1c0.2-1.2,0.3-2.3,0.4-3.5c0-0.6-0.3-0.7-0.9-0.7h-1.3c-0.4-0.1-0.8,0.2-0.9,0.7c0,0,0,0.1,0,0.1
	c-0.4,2.8-1.9,5.3-4.1,7.1c-0.2,0.2-0.5,0.5-0.8,0.5c-0.5,0-1.8-1.1-1.8-1.7c0-0.3,0.3-0.5,0.4-0.6c1.8-1.2,3.1-3.1,3.6-5.2
	C110.6,653.7,110.7,653.6,110.7,653.6L110.7,653.6z M115.9,670.2h-4.9c-0.3,0-0.4,0.1-0.4,0.4c-0.1,0.6-0.3,0.6-1.5,0.6
	s-1.5,0-1.5-0.7s0.1-1.5,0.1-2.2v-3.5c0-0.6-0.1-1.2-0.1-1.8c0-1,0.7-1.2,1.5-1.2h2.1h4.5h2c0.9,0,1.6,0.2,1.6,1.2
	c0,0.6,0,1.2,0,1.8v3.5c0,0.8,0,1.5,0,2.2s-0.4,0.7-1.5,0.7c-1.3,0-1.5,0-1.5-0.7C116.2,670.4,116.1,670.2,115.9,670.2L115.9,670.2z
	 M115.4,667.8c0.4,0,0.8-0.3,0.8-0.8c0,0,0,0,0-0.1v-1.6c0-0.5-0.4-0.8-0.8-0.8h-4.2c-0.5,0-0.8,0.4-0.8,0.8v1.6
	c0,0.4,0.3,0.8,0.8,0.8c0,0,0,0,0.1,0H115.4z"/>
<path class="st0" d="M127.6,661.7c-1,0-2,0.1-3,0.1c-0.6,0-0.6-0.3-0.6-1.4s0-1.4,0.6-1.4c1,0,2,0.1,3,0.1h0.2
	c0.6,0,0.8-0.2,0.8-0.8v-1.5c0-0.6-0.2-0.8-0.8-0.8c-0.8,0-1.6,0.1-2.4,0.1s-0.6-0.3-0.6-1.4s0-1.4,0.6-1.4s1.6,0.1,2.4,0
	c0.6,0,0.8-0.2,0.8-0.8v-0.1c0-0.8,0-1.5-0.1-2.3c0-0.1,0-0.2,0-0.3c0-0.4,0.2-0.4,0.5-0.4c0.5,0,2,0.1,2.5,0.2
	c0.2,0,0.5,0.1,0.5,0.4s-0.2,0.3-0.4,0.5c-0.4,0.3-0.4,0.9-0.4,2v0.1c0,0.6,0.2,0.8,0.8,0.8s1.5,0,2.1,0s0.7,0.3,0.7,1.4
	s0,1.4-0.6,1.4s-1.4-0.1-2.1-0.1s-0.8,0.2-0.8,0.8v1.5c0,0.6,0.2,0.8,0.8,0.8c0.8,0,1.7-0.1,2.6-0.1c0.7,0,0.6,0.4,0.6,1.4
	s0,1.4-0.6,1.4c-1,0-1.9-0.1-2.9-0.1c-0.1,0-0.2,0-0.2,0.1c0,0.1,0.1,0.1,0.1,0.1c0,0,0,0,0,0c0.1,0,0.2,0.1,0.2,0.3
	s-0.1,0.2-0.4,0.4s-0.4,0.8-0.3,1.7c0,0.6,0.2,0.8,0.8,0.8h0.1c0.8,0,1.4-0.1,1.6-0.1c0.7,0,0.6,0.5,0.6,1.4s0,1.4-0.6,1.4
	c-0.3,0-0.9-0.1-1.6-0.1h-0.1c-0.6,0-0.8,0.2-0.8,0.8v2.5c-0.1,0.5,0.2,1,0.7,1.1c2.5,0.9,7.8,0.8,10.6,0.8c2,0,4,0,6-0.1
	c0.4,0,0.8-0.1,1.2-0.1c0.6,0,0.7,0.5,0.7,1c0,1.8-0.8,2-2.6,2H142c-1.6,0-3.1,0-4.6,0c-1.6,0-3.2-0.2-4.8-0.6
	c-2-0.5-3.8-1.6-5.1-3.2c-0.1-0.1-0.2-0.1-0.3-0.2c-0.2,0-0.3,0.1-0.3,0.3c-0.2,1.1-0.5,2.2-0.8,3.3c-0.2,0.4-0.2,0.7-0.6,0.7
	s-1.9-0.3-1.9-1c0-0.1,0.2-0.5,0.2-0.7c0.9-3.1,1.3-6.3,1.4-9.6v-0.8c0-0.3,0.1-0.5,0.4-0.5s1.7,0.1,2,0.2s0.5,0.1,0.5,0.3
	c0,0.1-0.1,0.3-0.2,0.3c-0.3,0.2-0.3,0.3-0.4,1.3c0,0.4-0.1,0.8-0.1,1.5v0.3c0,0.4,0.1,0.7,0.3,1c0.2,0.3,0.4,0.5,0.6,0.8
	c0,0.1,0.1,0.2,0.2,0.2c0.2,0,0.3-0.2,0.3-0.4v-4.2c0-0.8,0-1.5-0.1-2.3c-0.1-0.4-0.2-0.7-0.6-0.7L127.6,661.7z M141.4,663.6
	c0.6,0,0.7,0.9,0.7,1.3c0,1.1-0.2,1.2-0.7,1.4c-1.3,0.5-2.9,1-4.2,1.4c-0.6,0.2-0.6,0.2-0.8,0.5s-0.1,0.3-0.3,0.3s-0.3-0.2-0.5-0.8
	c-0.3-0.7-0.5-1.3-0.6-2c0-0.3,0.2-0.3,0.8-0.4c0.1,0,0.2,0,0.3-0.1c0.5-0.2,0.7-0.3,0.7-0.9V657c0-0.7,0-1.4,0-2.1
	c0-1,0.4-1.3,1.4-1.3c0.7,0,1.4,0,2,0h1.2c0.6,0,0.8-0.2,0.8-0.8s-0.1-2.9-0.1-3.1c0-0.4,0.2-0.5,0.6-0.5s1.5,0.1,2,0.2
	s0.9,0,0.9,0.4s-0.2,0.4-0.4,0.5s-0.3,0.4-0.3,0.8s0,1.2,0,1.8s0.3,0.8,0.8,0.8h1.8c0.8,0,1.6-0.1,2.5-0.1c0.6,0,0.6,0.3,0.6,1.4
	s0,1.4-0.6,1.4c-0.8,0-1.6-0.1-2.5-0.1h-1.8c-0.6,0-0.8,0.2-0.8,0.8c0.1,1.4,0.2,2.9,0.4,4.3c0,0.1,0.1,0.2,0.3,0.2
	c0.1,0,0.2-0.1,0.2-0.2c0.4-0.9,0.7-1.8,1-2.7c0.1-0.4,0.2-0.8,0.6-0.8c0.7,0.2,1.3,0.4,1.9,0.8l0.3,0.1c0.2,0.1,0.4,0.2,0.4,0.4
	s-0.2,0.3-0.4,0.4c-0.3,0.2-0.4,0.6-0.5,0.9c-0.5,1.5-1.3,3-2.2,4.3c-0.2,0.2-0.2,0.5-0.2,0.8c0,0.2,0.1,0.4,0.1,0.6
	c0.1,0.4,0.8,1.6,1.2,1.6s0.7-1.8,0.7-2.2s0-0.8,0.6-0.8s1.7,0.2,1.7,1.1c-0.1,1.2-0.4,2.5-0.9,3.6c-0.3,1-1.2,1.6-2.2,1.6
	c-1.5,0-2.4-1.2-3-2.4c-0.1-0.2-0.3-0.3-0.5-0.3c-0.2,0-0.3,0.1-0.4,0.2c-0.7,0.7-3.4,2.9-4.2,2.9c-0.6,0-1.7-1.2-1.7-1.7
	s0.4-0.5,1-0.8c1.5-0.8,2.9-1.9,4.1-3.2c0.2-0.2,0.4-0.5,0.4-0.8c0-0.2,0-0.3-0.1-0.5c-0.6-2.4-1-4.9-1.1-7.3
	c-0.1-0.6-0.3-0.8-0.9-0.8h-1c-0.6,0-0.8,0.2-0.8,0.8v6.2c0,0.3,0.1,0.6,0.5,0.6c0.1,0,0.2,0,0.3-0.1
	C140.6,663.8,141,663.7,141.4,663.6z M147.4,653.5c-0.3,0-0.4-0.4-0.7-0.8c-0.3-0.6-0.6-1.1-0.9-1.6c-0.1-0.1-0.2-0.3-0.2-0.4
	c0-0.5,1.5-1.1,1.7-1.1s0.6,0.4,1.2,1.5c0.3,0.4,0.5,0.9,0.7,1.4C149.2,652.8,147.8,653.5,147.4,653.5z"/>
<path class="st0" d="M164.5,652.3c0.2,0,0.6,0.2,0.6,0.4s-0.2,0.3-0.4,0.5c-1,0.8-1.3,10.3-1.3,12c0,2.3-0.1,6,3.2,6
	c2.2-0.1,4.3-1.2,5.6-2.9c1-1.3,1.6-2.8,1.8-4.4c0.1-0.5,0.1-1,0.6-1c0.7,0,2.5,1.5,2.5,2.4c-0.2,1.2-0.6,2.4-1.2,3.5
	c-1.8,3.4-5.3,5.6-9.1,5.7c-2,0.1-4-0.8-5.3-2.3c-1.4-1.8-1.5-4.7-1.5-6.9c0-2.4,0.1-4.7,0.3-7.1c0.1-1.4,0.4-4.3,0.4-5.5v-0.3
	c0-0.5,0-0.8,0.4-0.8C162.2,651.7,163.4,652,164.5,652.3z"/>
<path class="st0" d="M197.3,650.2c0.3,0.1,1.1,0.3,1.1,0.6c0,0.2-0.2,0.2-0.3,0.3c-0.4,0.3-0.5,0.4-0.7,1c-0.1,0.3-0.7,2.5-0.7,2.7
	c0,0.2,0.2,0.4,0.4,0.5c0,0,0,0,0,0c1.2-0.3,2.4-0.6,3.5-1.1c0.2-0.1,0.4-0.1,0.6-0.2c0.6,0,0.6,1.8,0.6,2.3s-0.1,0.9-0.6,1.1
	c-1.6,0.5-3.3,0.9-4.9,1.2c-0.9,0.2-1,0.3-1.2,1.2c-1.5,4.5-3.4,9-5.6,13.2c-0.4,0.7-0.6,1.1-1.1,1.1s-2.6-1-2.6-1.6
	c0.1-0.4,0.3-0.7,0.5-1c2.2-3.5,3.9-7.2,5.3-11.1c0.1-0.2,0.2-0.5,0.2-0.8c0-0.3-0.2-0.5-0.5-0.5s-1.7,0.2-2.7,0.2
	c-0.6,0-1.1,0-1.3-0.5c-0.1-0.7-0.2-1.5-0.2-2.2c0-0.3,0.1-0.5,0.4-0.5s1.5,0.1,2.8,0.1c1.9,0,2.4,0,2.6-0.5
	c0.6-1.8,0.9-3.6,1.1-5.5c0-0.4,0-0.8,0.3-0.8C195.6,649.7,196.5,649.9,197.3,650.2z M196.9,669.6c1.3,1.5,3.6,1.7,5.4,1.7
	c1.4,0,2.9-0.2,4.3-0.6c0.1,0,0.2,0,0.3,0c0.5,0,0.5,0.7,0.5,1.9c0,0.6,0,1.3-0.3,1.5c-1.5,0.3-3.1,0.4-4.7,0.4
	c-2,0-4.7-0.2-6.4-1.3c-0.5-0.3-1.5-1.1-1.5-1.7c0-0.5,1.4-2.2,1.9-2.2C196.6,669.2,196.8,669.4,196.9,669.6L196.9,669.6z
	 M200.6,659.9c2,0,4,0.3,6,0.8c0.3,0.1,0.4,0.3,0.4,0.6c-0.1,0.7-0.3,1.4-0.6,2.1c-0.1,0.3-0.2,0.4-0.5,0.4c-0.2,0-0.4-0.1-0.6-0.2
	c-1.5-0.5-3.1-0.8-4.8-0.8h-1.1c-0.6,0-0.8-0.2-0.8-0.7C198.6,659.7,199.2,659.9,200.6,659.9L200.6,659.9z"/>
<path class="st0" d="M220.9,662.1c-0.3,0.4-0.5,0.9-0.4,1.4v8.5c0,1.1,0.1,2.2,0.1,3.3c0,0.9-0.4,0.9-1.6,0.9s-1.6,0-1.6-0.8
	c0-1.1,0.1-2.2,0.1-3.3v-5.2c0-0.2-0.1-0.4-0.3-0.4c-0.1,0-0.2,0.1-0.3,0.1c-1,0.8-1.5,1.3-1.9,1.3c-0.5,0-1.7-1.5-1.7-2
	c0-0.3,0.4-0.7,0.7-0.8c1.1-0.8,2.1-1.8,3-2.8c0.2-0.2,0.4-0.5,0.4-0.8V661c0-0.2-0.1-0.5-0.1-0.7c0-0.3,0.2-0.4,0.5-0.4h0.3
	c0.3,0.1,0.6-0.1,0.8-0.4c0.8-1.1,1.5-2.3,2.1-3.5c0-0.1,0.1-0.2,0.1-0.3c0-0.4-0.4-0.4-0.6-0.4h-2.2c-1.2,0-2.5,0.1-3.7,0.1
	c-0.7,0-0.7-0.4-0.7-1.5s0-1.5,0.7-1.5c1.3,0,2.5,0,3.7,0h3.3c0.5,0.1,1-0.2,1-0.7c0,0,0,0,0,0c0.2-0.6,0.3-1,0.4-1.4
	c0.2-0.9,0.3-1.1,0.6-1.1s1.6,0.3,2,0.4c0.8,0.2,1.4,0.3,1.4,0.7s-0.2,0.3-0.4,0.5c-0.4,0.2-0.7,0.7-0.7,1.2c0,0.4,0.3,0.5,0.6,0.5
	h9.2c1.3,0,2.5,0,3.8,0c0.7,0,0.7,0.4,0.7,1.5s0,1.5-0.7,1.5c-1.3,0-2.5-0.1-3.8-0.1h-10.2c-0.5-0.1-1,0.2-1.1,0.7
	C223.5,658.1,222.3,660.2,220.9,662.1z M236.2,665c1.1,0,2.2,0,3.2,0c0.8,0,0.8,0.3,0.8,1.4s0,1.4-0.8,1.4c-1.1,0-2.2,0-3.2,0h-2.7
	c-0.6,0-0.8,0.2-0.8,0.8v2.4c0,0.7,0.1,1.4,0.1,2.2c0,2.8-3,3.1-5.1,3.1c-0.4,0-1.3,0-1.5-0.3c-0.4-0.6-0.6-1.4-0.6-2.1
	c0-0.5,0.1-0.8,0.6-0.8c0.4,0,0.8,0.1,1.2,0.1c0.2,0,0.3,0,0.5,0c1.8,0,1.7-0.7,1.7-2.2v-2.5c0-0.6-0.3-0.8-0.8-0.8h-2.6
	c-1.1,0-2.2,0-3.2,0c-0.8,0-0.8-0.4-0.8-1.4s0-1.4,0.8-1.4c1.1,0,2.2,0,3.2,0h2.6c0.6,0,0.8-0.2,0.8-0.8c0-0.4-0.1-0.8-0.1-1.2
	c0-0.1,0-0.2,0-0.3c0-0.4,0.3-0.4,0.6-0.4s0.3,0,0.4,0c0.3,0,0.6-0.1,0.8-0.2c0.6-0.3,1.8-1.1,1.8-1.5c0-0.2-0.2-0.2-0.4-0.2h-4.1
	c-1,0-2,0-3.1,0c-0.8,0-0.7-0.3-0.7-1.4s0-1.5,0.7-1.5c1,0,2,0.1,3.1,0.1h5.4c0.9,0,1.8,0,2.8,0c0.5-0.1,1,0.1,1.4,0.5
	c0.3,0.3,0.6,0.7,0.7,1.2c0,0.9-4.7,3.9-5.6,4.4c-0.2,0.1-0.4,0.3-0.4,0.6c0,0.6,0.3,0.8,0.8,0.8L236.2,665z"/>
<path class="st0" d="M256.7,653.3c0,0.5,0.5,0.5,0.6,0.5h8.7c1.2,0,2.5-0.1,3.7-0.1c0.7,0,0.7,0.4,0.7,1.5s0,1.5-0.7,1.5
	c-1.3,0-2.5-0.1-3.7-0.1h-9.9c-0.5-0.1-1,0.2-1.2,0.7c-0.9,1.9-2,3.7-3.1,5.4c-0.3,0.4-0.4,0.8-0.4,1.3v7.9c0,1,0.1,2.1,0.1,3.2
	c0,0.9-0.4,0.9-1.5,0.9s-1.5,0-1.5-0.8c0-1.1,0.1-2.1,0.1-3.2v-4.3c0-0.2-0.1-0.3-0.3-0.3c-0.1,0-0.2,0-0.3,0.1
	c-0.4,0.5-2.1,2.2-2.7,2.2s-1.7-1.3-1.7-1.7s0.5-0.7,0.7-0.9c1.4-1.1,2.6-2.3,3.8-3.7c0.3-0.2,0.4-0.6,0.4-0.9v-0.2
	c0-0.2-0.1-0.4-0.1-0.7c0-0.3,0.2-0.4,0.5-0.4h0.3c0.3,0,0.6-0.1,0.8-0.4c0.7-1.1,1.4-2.2,1.9-3.3c0-0.1,0.1-0.2,0.1-0.3
	c0-0.4-0.3-0.4-0.5-0.5h-3.1c-1.2,0-2.5,0.1-3.7,0.1c-0.7,0-0.7-0.3-0.7-1.5s0-1.5,0.7-1.5c1.3,0,2.5,0.1,3.7,0.1h4.3
	c0.5,0.1,1-0.3,1.1-0.8c0.4-1.2,0.8-2.4,1-3.6c0.1-0.2,0.1-0.4,0.4-0.4s1.4,0.3,1.7,0.4c0.7,0.2,1.4,0.3,1.4,0.7
	c0,0.2-0.2,0.4-0.4,0.4c-0.4,0.2-0.4,0.3-0.7,1.2c-0.1,0.3-0.2,0.7-0.4,1.2C256.8,653.2,256.7,653.2,256.7,653.3z M262.8,662
	c0,0.6,0.2,0.8,0.8,0.8h1.4c1.1,0,2.3-0.1,3.4-0.1c0.8,0,0.8,0.4,0.8,1.5s0,1.5-0.8,1.5c-1.1,0-2.3,0-3.4,0h-1.4
	c-0.6,0-0.8,0.2-0.8,0.8v5.1c0,0.6,0.2,0.8,0.8,0.8h2.7c1.1,0,2.2-0.1,3.4-0.1c0.8,0,0.8,0.4,0.8,1.5s0,1.4-0.8,1.4
	c-1.1,0-2.2,0-3.4,0h-9.4c-1.1,0-2.2,0-3.4,0c-0.8,0-0.8-0.4-0.8-1.4s0-1.5,0.8-1.5c1.1,0,2.2,0.1,3.4,0.1h2c0.6,0,0.8-0.3,0.8-0.8
	v-5.1c0-0.6-0.2-0.8-0.8-0.8h-1c-1.1,0-2.3,0-3.4,0c-0.8,0-0.8-0.4-0.8-1.5s0-1.5,0.8-1.5c1.1,0,2.3,0.1,3.4,0.1h1
	c0.6,0,0.8-0.2,0.8-0.8v-1.7c0-0.7,0-1.3-0.1-2c0-0.1,0-0.2,0-0.3c0-0.3,0.2-0.4,0.5-0.4s2.1,0.1,2.6,0.2c0.2,0,0.7,0.1,0.7,0.4
	s-0.1,0.3-0.4,0.4s-0.3,0.6-0.3,1.4L262.8,662z"/>
<path class="st0" d="M282.3,653.1c0.2,0.1,0.6,0.2,0.6,0.5s-0.1,0.2-0.4,0.4c-0.5,0.3-0.6,0.5-0.9,1.3c-1.1,2.7-1.6,5.6-1.7,8.5
	c0,0.6,0.1,4.2,0.8,4.2c0.3,0,0.7-0.9,0.8-1.2s0.4-0.7,0.6-0.7s1.1,0.6,1.1,1s-1.2,3-1.2,4.3c0,0.3,0.1,1,0.1,1.3
	c0,0.2,0.1,0.3,0.1,0.5c0,0.8-1.7,1.5-2.3,1.5s-0.9-0.7-1.3-1.5c-1.3-2.9-1.9-6-1.8-9.2c0-3.4,0.6-6.7,1.5-9.9
	c0.2-0.5,0.3-1,0.4-1.5c0.1-0.3,0.1-0.7,0.5-0.7S281.9,652.9,282.3,653.1z M286,667.4c1,1.5,2.8,2.3,4.6,2.1c2.2,0,4.5-0.4,6.6-1
	c0.2-0.1,0.4-0.1,0.6-0.1c0.5,0,0.5,0.7,0.5,2.2c0,0.3,0,0.9-0.4,1.1c-0.8,0.5-5.9,0.9-7.1,0.9c-4.9,0-6.9-2.5-6.9-3s1-2.6,1.6-2.6
	C285.8,667.1,285.9,667.2,286,667.4z M287.1,654.3c1.3,0.3,2.6,0.4,3.9,0.5c1.5,0,3.1-0.2,4.6-0.6c0.2-0.1,0.4-0.1,0.5-0.1
	c0.4,0,0.5,0.4,0.6,0.7c0.1,0.5,0.1,1.1,0.1,1.6c0,0.6,0,0.9-0.6,1c-1.7,0.3-3.3,0.4-5,0.4c-0.9,0-4.6-0.2-5.2-0.6
	c-0.3-0.2-0.3-0.8-0.3-1.2c0-1.4,0.1-1.9,0.6-1.9C286.6,654.2,286.9,654.2,287.1,654.3L287.1,654.3z"/>
<path class="st0" d="M312.7,671c0,2.3-1.9,4.2-4.2,4.2c-2.3,0-4.2-1.9-4.2-4.2c0-2.3,1.9-4.2,4.2-4.2l0,0
	C310.9,666.8,312.7,668.7,312.7,671z M305.9,671c0,1.5,1.2,2.7,2.7,2.7c1.5,0,2.7-1.2,2.7-2.7c0,0,0,0,0,0c0-1.5-1.2-2.7-2.6-2.7
	c0,0,0,0-0.1,0C307.1,668.3,305.9,669.5,305.9,671z"/>
<ellipse class="st1" cx="171.3" cy="506.8" rx="171.3" ry="20.3"/>
<path class="st2" d="M157.4,420.1c23.9,2,47.6,6.7,70.4,14.2c5.4,1.8,10.9,3.8,14.9,7.8c5.9,5.9,7.4,14.8,9.1,23
	c3.6,16.7,9.6,32.7,17.9,47.7c1,1.9,2.2,3.8,4,4.9c4,2.5,9.7-0.4,11.6-4.8s1-9.4-0.4-13.9c-4.1-12.9-12.6-25.9-9-38.9
	c0.2-1.1,0.8-2,1.6-2.7c1.6-1.1,3.8-0.2,5.4,0.9c5.9,4.2,9.3,10.9,13.2,17c9.7,15.4,23.1,28.2,39,37.3c2.3,1.3,5.7,2.4,7.4,0.3
	c1-1.3,0.8-3.1,0.4-4.7c-3.3-12.4-15.1-20.3-23.5-30c-13.8-15.8-19.2-37.6-19.5-58.6c-0.2-11,0.8-22.8-4.5-32.5l-1.6-4.8
	c-1.9,0.4-3.8,0.7-5.8,0.7l-28.8,1.3c-4.2,0.2-8.6,0.4-12.4-1.2s-6.7-4.7-9.7-7.5c-5.6-5.3-11.9-9.8-18.6-13.6
	c-7.1-3.9-14.9-7-20.9-12.5l-0.3,0.3c-14.4-9.1-33.1-6.6-49.8-3.2c-7.6,1.5-15.1,3.4-22.5,5.8c-8.5,2.8-16.6,6.5-23.5,11.7
	c-4.4,3.2-8.2,7-11.3,11.4c-15.2,21.3-10.6,51.5-23.3,74.4c-6.6,11.9-17.3,20.9-25.3,32c-2.2,3.1-4.2,6.5-4.2,10.2s2.8,7.8,6.5,7.8
	s6.5-3.7,8.7-6.8c7.3-9.9,17.6-17.2,29.5-20.6c6.2-1.8,13-2.6,19-5c2.6-1,5-2.4,7.2-4.1c13.1-10.9,9.7-33.6,22.4-45l1.7,0.7
	C140.5,419,149,419.4,157.4,420.1z"/>
<path class="st3" d="M132.1,419l-1.7-0.7c-12.6,11.4-9.3,34.1-22.4,45c-2.2,1.7-4.6,3.1-7.2,4.1l0.2,0.5c-1.6,6.3-6.7,11-11.3,15.6
	s-9.3,10-9.6,16.5s6.4,13.3,12.4,10.6c2.6-1.2,4.2-3.7,5.7-6.1c3.9-6.2,7.8-12.5,11.7-18.7c2.7-4.4,5.5-8.8,9.2-12.4
	c5.3-5.1,12.1-8.1,17.7-12.9c11.7-9.9,16.5-25.5,20.6-40.4C149,419.4,140.5,419,132.1,419z"/>
<path class="st3" d="M91.1,340.9c-0.4,6.1,0.3,12.2,2.2,18c0.7,2.3,2.4,5,4.8,4.6l3.3,0.7c6.9-5.1,15-8.9,23.5-11.7l-0.2-0.7
	c-7.4-5.3-14.9-10.6-22.3-15.9c-2.2-1.6-4.9-3.2-7.5-2.3S91.3,338,91.1,340.9z"/>
<path class="st4" d="M173.2,240.2c-7.5,1.4-13.5,9.4-11.8,16.8s11.7,11.7,17.8,7.2c-1.4-4,0.6-8.7,3.9-11.4c2.7-2,5.7-3.5,9-4.2
	c-2.6-4.5-7.1-7.6-12.2-8.4C177.8,239.8,175.5,239.8,173.2,240.2z"/>
<path class="st5" d="M169.8,152.4c-2.7,2.1-1.1,6.5,1.3,8.9c6.9,6.8,17.9,7.7,25.8,13.2c5.3,3.7,8.7,9,11.2,15
	c4.8-2.3,9.9-4.1,15.1-5.4c-1.5-8.2-4.2-16.3-6.6-24.2c-4.2-13.9-7.4-29.3-1.9-42.8c-3.3-2.6-8.6-0.5-10.8,3.1s-2.1,8.1-1.8,12.3
	s0.6,8.6-1.1,12.5c-11.3-12.5-11-31.7-19.8-46.1c-1.1-1.7-3-3.6-4.8-2.7c-0.8,0.4-1.4,1.2-1.7,2c-3.1,6.8,0.1,14.7,3.2,21.5
	l13.9,30.6c1.8,4,3.7,8.4,2.8,12.8l-17-9.7C175.1,152.1,172,150.7,169.8,152.4z"/>
<path class="st6" d="M271.3,320L271.3,320c3.8,1.6,8,2.4,12.1,2.4c1.2,0,2.4-0.1,3.5-0.3c2.3-0.3,4.5-1.1,6.5-2.3
	c6.5-4,9.1-12.5,8-20s-5-14.4-8.9-20.9v-0.5c-33-0.2-66-3.5-98.9-6.7c-1.7-0.2-3.3-0.4-5-0.7c1.4,7.2-0.5,14.8-6.8,18.8
	c-1.4,0.9-3.1,1.4-4.5,2.4c-3.6,2.6-4.2,7.9-2.3,11.9s5.7,6.7,9.7,8.5c3.8,1.7,8,6,9.3,10l0.6,0.3c4.8-4,12-5.3,18.8-5.1
	c1.1,0,2.1,0.1,3.1,0.1C235.1,318.5,253,317.3,271.3,320z M242,290.2c-0.9-0.9-0.9-2.3,0-3.1c0,0,0,0,0,0c0.9-0.8,2.3-0.8,3.2-0.1
	c0.6,0.7,0.6,1.7,0,2.3c-0.1,0.1-0.2,0.2-0.3,0.3c-0.5,0.9-1.6,1.3-2.6,0.8C242.2,290.3,242.1,290.3,242,290.2z"/>
<path class="st4" d="M350.7,253.9c-3-0.6-6.5-0.7-10.1-1.6c-47.8-9.7-97.4-15.1-145-4.6c-1.1,0.2-2.3,0.5-3.4,0.8
	c-3.3,0.7-6.3,2.2-9,4.2c-3.3,2.8-5.3,7.5-3.9,11.4c0.1,0.2,0.1,0.4,0.2,0.6c1.6,3.6,5.3,5.2,9.3,6.1c1.7,0.3,3.3,0.6,5,0.7
	c32.9,3.2,65.9,6.5,98.9,6.7c14,0.1,28-0.3,42-1.6l3.4-0.3c5.6-0.5,11.6-1.4,16-4.9s6.3-10.8,2.4-14.9
	C354.8,255.1,352.8,254.2,350.7,253.9z"/>
<path class="st7" d="M194.9,198.4c-11.6,10.2-18.5,26.5-14.9,41.5l-0.1,0.3c5.1,0.8,9.6,3.9,12.2,8.4c1.1-0.3,2.3-0.6,3.4-0.8
	c47.6-10.6,97.2-5.1,145,4.6c3.6,0.9,7.1,1,10.1,1.6c1.6-15.5-8.1-30.1-19.5-40.7c-3.6-3.3-7.3-6.4-11.3-9.2
	c-2.8,3.9-5.5,7.8-9.5,10.5c-1-3.6-4.3-6.2-8.1-6.3l-0.5-1.1c2.4-3.3,4.7-6.7,7-10.1c-21.7-12.3-46.7-17.6-71.5-15.2
	c-4.8,0.5-9.5,1.3-14.1,2.4c1.2,5.9,1.5,11.9,0.9,17.9c0.5-0.6,1-1.3,1.4-1.9l-1.5,2.4c0-0.2,0-0.3,0.1-0.5
	c-2.8,3.3-6.6,5.5-10.8,6.3c-1.3-6.3-2.7-12.8-5.2-18.8C203.3,191.9,198.9,194.9,194.9,198.4z"/>
<path class="st4" d="M216.7,317.7l-3.1-0.1c-6.8-0.1-14.1,1.1-18.8,5.1c-1.5,1.3-2.8,2.9-3.7,4.8c-3.5,7.4,0.2,16.5,6.2,22h0.1
	c6,5.5,13.7,8.6,20.9,12.5c6.7,3.7,13,8.3,18.6,13.5c3,2.8,5.9,5.9,9.7,7.5s8.2,1.4,12.4,1.2l28.8-1.3c1.9,0,3.9-0.3,5.8-0.7
	c0.8-0.2,1.6-0.6,2.4-1c1.6-1,3-2.3,4.2-3.8l30.7-34.4c4.6-5.2,9.6-12.1,6.8-18.4c-2-4.6-6.9-6.9-12.1-7.3c-2.5-0.2-5.1,0-7.6,0.6
	c-9.9,2.6-9.6,4.9-30.9,4.5l0-0.3c-1.2,0.2-2.4,0.3-3.5,0.3c-4.2,0.1-8.3-0.7-12.2-2.4l0,0C253,317.3,235.1,318.5,216.7,317.7z"/>
<path class="st5" d="M208.1,189.6c2.4,5.9,3.9,12.5,5.2,18.8c4.2-0.8,8-3,10.8-6.3c0.6-6,0.3-12-0.9-17.9
	C218,185.5,213,187.3,208.1,189.6z"/>
<path class="st5" d="M224.1,202.1c0,0.2,0,0.3-0.1,0.5l1.5-2.4C225.1,200.8,224.6,201.5,224.1,202.1z"/>
<path class="st6" d="M242,287.1c-0.9,0.9-0.9,2.3,0,3.1c0,0,0,0,0,0c0.8,0.7,2,0.5,2.7-0.3c0.1-0.1,0.2-0.2,0.2-0.4
	c0.8-0.5,1.1-1.5,0.6-2.3c-0.1-0.1-0.2-0.2-0.3-0.3C244.3,286.2,242.9,286.3,242,287.1z"/>
<path class="st6" d="M287,322.1l0,0.3c21.2,0.4,21-1.9,30.9-4.5c2.5-0.6,5-0.8,7.6-0.6l0.1-0.7c3-12.8,6.1-25.6,9.1-38.4l-0.1-1.4
	c-14,1.2-28,1.7-42,1.6v0.5c3.9,6.5,7.9,13.4,8.9,20.9s-1.5,16.1-8,20C291.5,321,289.3,321.8,287,322.1z M314.9,292.9
	c-1.4-0.3-1.9-2.5-0.7-3.3c0.4-0.5,2.6-1.3,3.1-0.9c0.5,0.5,0.7,1.2,0.6,1.8C317.7,292.1,316.4,293.1,314.9,292.9
	C314.9,292.9,314.9,292.9,314.9,292.9L314.9,292.9z"/>
<path class="st5" d="M301.8,207.1l0.5,1.1c3.8,0.1,7,2.6,8.1,6.3c3.9-2.7,6.6-6.6,9.5-10.5c-3.5-2.6-7.2-4.9-11-7.1
	C306.6,200.4,304.2,203.8,301.8,207.1z"/>
<path class="st6" d="M314.2,289.7c-1.2,0.8-0.6,2.9,0.7,3.3c1.4,0.2,2.8-0.7,3-2.2c0,0,0-0.1,0-0.1c0.1-0.7-0.1-1.4-0.6-1.8
	C316.7,288.4,314.5,289.1,314.2,289.7z"/>
<path class="st5" d="M308.8,196.9c3.8,2.1,7.5,4.5,11.1,7.1c2.7-3.8,5.5-7.4,9.3-9.9c5.2-3.2,11.5-3.8,17.4-5.4s12-5.2,13.2-11.2
	c-9.5-1-19.2,0.9-27.7,5.4c10.2-22.7,20.7-46.8,17.9-71.5c-6.6,5.3-9,14.2-10.3,22.5s-1.9,17.2-6.3,24.4c-5.1-8.3-10.2-16.7-15.2-25
	c-1,9.7,2.8,19.4,2.9,29.2C321.3,174.9,315.7,186.3,308.8,196.9z"/>
<path class="st8" d="M340.6,252.3c-47.8-9.7-97.4-15.1-145-4.6c-1.1,0.2-2.3,0.5-3.4,0.8c-3.3,0.7-6.3,2.2-9,4.2
	c-3.3,2.8-5.3,7.5-3.9,11.4c0.1,0.2,0.1,0.4,0.2,0.6c1.6,3.6,5.3,5.2,9.3,6.1c1.7,0.3,3.3,0.6,5,0.7c32.9,3.2,65.9,6.5,98.9,6.7
	c14,0.1,28-0.3,42-1.6l3.4-0.3c5.6-0.5,11.6-1.4,16-4.9s6.3-10.8,2.4-14.9c-1.6-1.5-3.6-2.4-5.8-2.7
	C347.6,253.4,344.1,253.3,340.6,252.3"/>
<path class="st8" d="M208.1,189.6c-4.8,2.3-9.2,5.3-13.2,8.8c-11.6,10.2-18.5,26.5-14.9,41.5"/>
<path class="st8" d="M308.8,196.9c-21.7-12.3-46.7-17.6-71.5-15.2c-4.8,0.5-9.5,1.3-14.1,2.4"/>
<path class="st8" d="M350.7,254L350.7,254c1.6-15.5-8.1-30.1-19.5-40.7c-3.6-3.3-7.3-6.4-11.3-9.3"/>
<path class="st8" d="M192.1,248.6c-2.6-4.5-7.1-7.6-12.2-8.4c-2.2-0.4-4.5-0.4-6.7,0.1c-7.5,1.4-13.5,9.4-11.8,16.8
	c1.7,7.4,11.7,11.7,17.8,7.2c0.1,0,0.1-0.1,0.2-0.1"/>
<path class="st8" d="M271.3,320c-6-2.5-11-6.8-14.5-12.3"/>
<path class="st8" d="M292.6,278.9c3.9,6.5,7.9,13.4,8.9,20.9s-1.5,16.1-8,20c-2,1.2-4.2,1.9-6.5,2.3c-1.2,0.2-2.4,0.3-3.5,0.3
	c-4.2,0.1-8.3-0.8-12.2-2.4"/>
<path class="st8" d="M213.6,317.5l3.1,0.1c18.4,0.8,36.2-0.4,54.5,2.3l0,0"/>
<path class="st8" d="M217.3,317.7h-0.6c-1-0.1-2.1-0.1-3.1-0.1c-6.8-0.1-14.1,1.1-18.8,5.1c-1.5,1.3-2.8,2.9-3.7,4.8
	c-3.5,7.4,0.2,16.5,6.2,22h0.1c6,5.5,13.7,8.6,20.9,12.5c6.7,3.7,13,8.3,18.6,13.5c3,2.8,5.9,5.9,9.7,7.5s8.2,1.4,12.4,1.2l28.8-1.3
	c1.9,0,3.9-0.3,5.8-0.7c0.8-0.2,1.6-0.6,2.4-1c1.6-1,3-2.3,4.2-3.8l30.7-34.5c4.6-5.2,9.6-12.1,6.8-18.4c-2-4.6-6.9-6.9-12.1-7.3
	c-2.5-0.2-5.1,0-7.6,0.6c-9.9,2.6-9.6,4.9-30.9,4.5"/>
<path class="st8" d="M334.7,278.2c-3,12.8-6.1,25.6-9.1,38.4"/>
<path class="st8" d="M188.7,270.9c1.4,7.2-0.5,14.8-6.8,18.8c-1.4,0.9-3.1,1.4-4.5,2.4c-3.6,2.6-4.2,7.9-2.3,11.9s5.7,6.7,9.7,8.5
	c3.8,1.7,8,6,9.3,10"/>
<path class="st8" d="M314.2,289.7c-1.2,0.8-0.6,2.9,0.7,3.3c1.4,0.2,2.8-0.7,3-2.2c0,0,0-0.1,0-0.1c0.1-0.7-0.1-1.4-0.6-1.8
	C316.7,288.4,314.5,289.1,314.2,289.7z"/>
<path class="st8" d="M244.9,289.6c0.8-0.5,1.1-1.5,0.6-2.3c-0.1-0.1-0.2-0.2-0.3-0.3c-1-0.7-2.3-0.7-3.2,0.1c-0.9,0.9-0.9,2.3,0,3.1
	c0,0,0,0,0,0c0.8,0.7,2.1,0.5,2.7-0.3C244.8,289.8,244.9,289.7,244.9,289.6z"/>
<path class="st8" d="M224,202.6c0-0.2,0-0.3,0.1-0.5c0.6-6,0.3-12-0.9-17.9c-1.5-8.2-4.2-16.3-6.6-24.2c-4.2-13.9-7.4-29.3-1.9-42.8
	c-3.3-2.6-8.6-0.5-10.8,3.1s-2.1,8.1-1.8,12.3s0.6,8.6-1.1,12.5c-11.3-12.5-11-31.7-19.8-46.1c-1.1-1.7-3-3.6-4.8-2.7
	c-0.8,0.4-1.4,1.2-1.7,2c-3.1,6.8,0.1,14.7,3.2,21.5l13.9,30.6c1.8,4,3.7,8.4,2.8,12.8l-17-9.7c-2.4-1.4-5.6-2.7-7.7-1
	c-2.7,2.1-1.1,6.5,1.3,8.9c6.9,6.8,17.9,7.7,25.8,13.2c5.3,3.7,8.7,9,11.2,15s3.9,12.5,5.2,18.8c4.2-0.8,8-3,10.8-6.3
	c0.5-0.6,1-1.3,1.4-1.9"/>
<path class="st8" d="M301.8,207.1c2.4-3.3,4.7-6.7,7-10.1c6.9-10.6,12.5-22,12.3-34.4c-0.1-9.8-3.9-19.4-2.9-29.2
	c5.1,8.3,10.2,16.7,15.2,25c4.4-7.2,5-16,6.3-24.4s3.7-17.3,10.3-22.5c2.8,24.7-7.7,48.8-17.9,71.5c8.5-4.5,18.1-6.4,27.7-5.4
	c-1.2,6-7.4,9.6-13.2,11.2s-12.2,2.2-17.4,5.4c-3.9,2.4-6.6,6.1-9.3,9.9s-5.5,7.8-9.5,10.5c-1-3.6-4.3-6.2-8.1-6.3"/>
<path class="st8" d="M295.2,387.1c5.3,9.7,4.3,21.4,4.5,32.5c0.3,21,5.6,42.8,19.5,58.6c8.5,9.7,20.2,17.6,23.5,30
	c0.4,1.6,0.6,3.4-0.4,4.7c-1.7,2.1-5,1-7.4-0.3c-15.8-9.1-29.2-21.9-39-37.3c-3.9-6.1-7.3-12.8-13.2-17c-1.6-1.1-3.8-2-5.4-0.9
	c-0.8,0.7-1.4,1.7-1.6,2.7c-3.6,13.1,4.9,26,9,38.9c1.4,4.5,2.3,9.5,0.4,13.9s-7.5,7.2-11.6,4.8c-1.8-1.1-3-3-4-4.9
	c-8.3-14.9-14.3-31-17.9-47.7c-1.7-8.2-3.2-17.1-9.1-23c-4-4-9.5-6-14.9-7.8c-22.8-7.5-46.4-12.3-70.4-14.2c-8.4-0.7-16.8-1-25.2-1
	h-1.6"/>
<path class="st8" d="M130.4,418.4c-12.6,11.4-9.3,34.1-22.4,45c-2.2,1.7-4.6,3.1-7.2,4.1c-5.9,2.4-12.7,3.2-19,5
	c-11.8,3.4-22.1,10.7-29.4,20.6c-2.3,3.1-4.9,6.9-8.7,6.8s-6.5-4-6.5-7.8s2-7.2,4.2-10.2c7.9-11.1,18.7-20.1,25.3-32
	c12.7-22.8,8.1-53,23.3-74.3c3.1-4.4,7-8.2,11.3-11.4c6.9-5.1,15-8.9,23.4-11.7c7.4-2.4,14.9-4.3,22.5-5.8
	c16.7-3.4,35.3-5.9,49.8,3.2"/>
<path class="st8" d="M101,467.9c-1.6,6.3-6.7,11-11.3,15.6s-9.3,10-9.6,16.5s6.4,13.3,12.4,10.6c2.6-1.2,4.2-3.7,5.7-6.1
	c3.9-6.2,7.8-12.5,11.7-18.7c2.7-4.4,5.5-8.8,9.2-12.4c5.3-5.1,12.1-8.1,17.7-12.9c11.7-9.9,16.5-25.5,20.6-40.4l0.1-0.5"/>
<path class="st8" d="M124.6,351.8c-7.4-5.3-14.9-10.6-22.3-15.9c-2.2-1.6-4.9-3.2-7.5-2.3s-3.5,4.4-3.7,7.3
	c-0.4,6.1,0.3,12.2,2.2,18c0.7,2.3,2.4,5,4.8,4.6"/>
</svg>
