<svg xmlns="http://www.w3.org/2000/svg" viewBox="0 0 447.08 677.7"><defs><style>.cls-1{fill:#211815;}.cls-2{fill:#727171;}.cls-3{fill:#ebf5f7;}.cls-4{fill:#c4305a;}.cls-5{fill:#f9ede8;}.cls-6{fill:#2a1006;}.cls-7{fill:#275a41;}.cls-8{fill:none;stroke:#211815;stroke-miterlimit:10;stroke-width:5.88px;}.cls-9{fill:#53a6db;}</style></defs><g id="レイヤー_2" data-name="レイヤー 2"><g id="レイヤー_1-2" data-name="レイヤー 1"><path class="cls-1" d="M.14,61.5a2.24,2.24,0,0,1,1.23-2.87A40.75,40.75,0,0,0,19.5,42.56a2.19,2.19,0,0,1,2.95-.74,2.14,2.14,0,0,1,.73,3A45.25,45.25,0,0,1,3,62.73,2.31,2.31,0,0,1,.14,61.5ZM3.75,8a2.38,2.38,0,0,1,2.38,2.37v8.37a2.4,2.4,0,0,1-2.38,2.46,2.4,2.4,0,0,1-2.38-2.46V10.41A2.38,2.38,0,0,1,3.75,8ZM32.53,38.38h-26a2.21,2.21,0,0,1-2.22-2.22A2.19,2.19,0,0,1,6.54,34H52.79a2.17,2.17,0,0,1,2.13,2.13,2.2,2.2,0,0,1-2.13,2.22H37.29V65.19H54.84v-6.4a1.82,1.82,0,0,1,1.8-1.8,1.77,1.77,0,0,1,1.81,1.8v6.4a2.54,2.54,0,0,1,1.88,2.38A2.4,2.4,0,0,1,57.87,70h-23a2.39,2.39,0,0,1-2.38-2.38Zm-.32-36V9.1h22.3a2.32,2.32,0,0,1,2-1.06,2.38,2.38,0,0,1,2.38,2.37v8.37a2.38,2.38,0,1,1-4.76,0V13.45H10.31a2.19,2.19,0,0,1-2.13-2.22A2.11,2.11,0,0,1,10.31,9.1H27.37V2.38a2.42,2.42,0,0,1,4.84,0Zm11.56,20.5a2.17,2.17,0,0,1,0,4.34H15.56a2.17,2.17,0,1,1,0-4.34Z"/><path class="cls-1" d="M75.91,32.72a2.17,2.17,0,0,1,.66-3c.16-.16,18.2-12.3,28.45-26.15a2.14,2.14,0,0,1,3-.5,2.22,2.22,0,0,1,.5,3C97.8,20.58,79.68,32.8,78.94,33.29A2.21,2.21,0,0,1,75.91,32.72Zm38.54,2.13V44.94h12.06a2.17,2.17,0,0,1,0,4.34H114.45V63.8h22.72a2.08,2.08,0,0,1,2-1.23,2.11,2.11,0,0,1,2.13,2.13v1.23a2.18,2.18,0,0,1-2.13,2.21H83.78a2.13,2.13,0,0,1-2.13-2.21,2.06,2.06,0,0,1,2.13-2.13h25.91V49.28H96.08a2.17,2.17,0,1,1,0-4.34h13.61V34.85H94.28a2.18,2.18,0,0,1,0-4.35h33.95a2.18,2.18,0,1,1,0,4.35Zm34.11,2a2.12,2.12,0,0,1-3,.49c-.9-.57-23.21-16-34.52-33.46a2.16,2.16,0,1,1,3.61-2.37c10.82,16.81,33.12,32.14,33.37,32.3A2.22,2.22,0,0,1,148.56,36.82Z"/><path class="cls-1" d="M170,61.34c-2.3-4.19-1.4-21.82.9-35.76a17,17,0,0,0-1-8.93,2.15,2.15,0,1,1,3.86-1.89A20.1,20.1,0,0,1,175.46,23a22.92,22.92,0,0,1-.25,3.28,152.71,152.71,0,0,0-2.29,24.77c0,1.47.08,2.62.16,3.77l5.9-8.28a2.17,2.17,0,1,1,3.53,2.54L173.65,61.5a2.22,2.22,0,0,1-3.68-.16Zm51.33-1.07a2.25,2.25,0,0,1-2,2.38c-17.14,2.05-23.78-1.89-26.4-5.66a9.8,9.8,0,0,1-.33-10.17,2.18,2.18,0,0,1,3.85,2,5.5,5.5,0,0,0,.08,5.66c1.23,1.8,5.91,5.82,22.31,3.85A2.16,2.16,0,0,1,221.3,60.27ZM208.67,30.09V30a1.73,1.73,0,0,1-1.15.33,2.16,2.16,0,0,1-2.13-2.13,2.35,2.35,0,0,1,.74-1.64.28.28,0,0,0-.17.08s3.45-2.62,6.24-4.84c-4.6-.08-12.22.41-17.06,1.81a2.32,2.32,0,0,1-2.71-1.56A2.12,2.12,0,0,1,194,19.43c2.63-.73,22.88-4.18,25,0a2.55,2.55,0,0,1-.74,3.2Z"/><path class="cls-1" d="M246.64,24.19a2.23,2.23,0,0,1,3-.82,11.72,11.72,0,0,0,5.16,1.48c2.55-.17,5.66-.33,8.94-.66,0-2.21-.16-4.43-.33-6.4a44.44,44.44,0,0,0-1.56-6.06A2,2,0,0,1,263.12,9a2.15,2.15,0,0,1,2.78,1.31,35.08,35.08,0,0,1,1.73,7c.24,2,.33,4.19.41,6.48l8.93-.74c2-.16,4.11-.32,6.07-.49a72.59,72.59,0,0,0,.41-8,12.72,12.72,0,0,0-1.72-5.25,2.18,2.18,0,0,1,.74-3,2.22,2.22,0,0,1,2.95.74c.25.41,2.38,4.1,2.38,7.55,0,2.21-.08,4.83-.33,7.62,7.13-.57,13-1,15.66-.82a2.31,2.31,0,0,1,2.05,2.3,2.21,2.21,0,0,1-2.38,2.05c-2.37-.17-8.6.33-15.82.9-1.8,13.86-6.48,31.24-15.34,40.34A2.14,2.14,0,1,1,268.53,64c8-8.28,12.3-24,14-37.06l-5.16.49-9.27.74C268.2,34.77,268,40.67,268,41a2.15,2.15,0,0,1-2.3,2,2.12,2.12,0,0,1-2.05-2.21c0-.09.24-5.83.16-12.3-3.28.32-6.31.49-8.77.65a15.34,15.34,0,0,1-7.55-2.05A2.14,2.14,0,0,1,246.64,24.19Z"/><path class="cls-1" d="M383.58,22.47c-6.81,10.25-34.53,34.19-43.71,38.78-4.59,2.3-9.27-4.83-10.58-7a2.27,2.27,0,0,1,.82-3,2.17,2.17,0,0,1,2.95.82c1.56,2.7,4,5.33,4.92,5.41C346.68,53,373.57,29.6,380,20a2.18,2.18,0,1,1,3.61,2.46Zm-50.27-7.14c6.15,2,12.46,7.38,12.79,7.63a2.19,2.19,0,0,1,.25,3,2.21,2.21,0,0,1-3.12.33c0-.08-6-5.08-11.31-6.89a2.14,2.14,0,0,1-1.4-2.7A2.21,2.21,0,0,1,333.31,15.33Z"/><path class="cls-1" d="M419.65,14.84c.5-1.39-.57-3.93-1.22-4.92a2.26,2.26,0,0,1,.81-3,2.19,2.19,0,0,1,3,.82c.24.49,2.78,4.84,1.64,8.53-4,12.46-14.19,21.73-14.6,22.14a2.1,2.1,0,0,1-3-.17,2.17,2.17,0,0,1,.08-3C406.45,35.1,416.05,26.24,419.65,14.84Zm11.07,22.39a123.26,123.26,0,0,0,10.67-18.7c-3.53.33-9,.66-13.54.66a2.14,2.14,0,0,1-2.21-2.13,2.21,2.21,0,0,1,2.21-2.22c7,0,16.73-1,16.82-1a2.07,2.07,0,0,1,2,.9,2,2,0,0,1,.25,2.13,130.87,130.87,0,0,1-12.46,22.8c1.72,1.31,2.95,2.21,3.11,2.29a2.17,2.17,0,0,1-2.62,3.45l-3-2.22c-11.15,15-21.81,22.14-22.38,22.55a2.21,2.21,0,0,1-3-.57,2.37,2.37,0,0,1-.33-1.23,2.27,2.27,0,0,1,.91-1.8c.16-.09,10.41-7.06,21.15-21.41a68.66,68.66,0,0,0-8.77-5.16,2.19,2.19,0,0,1-1.07-2.87,2.13,2.13,0,0,1,2.87-1.07A67.28,67.28,0,0,1,430.72,37.23Z"/><path class="cls-1" d="M38.18,523.86c.84,0,.78.42.84,1.11.18,1.83.57,3.6.93,5.4.09.39.18.9.69.9s4.44-2.37,5.16-2.82a2,2,0,0,1,.78-.33c.51,0,2,2.58,2,3.06,0,.3-.36.39-.57.45a50.4,50.4,0,0,0-6.24,2.82c-2,1.08-6.57,3.36-6.57,6a2.63,2.63,0,0,0,2,2.19,12.14,12.14,0,0,0,4,.51,40.84,40.84,0,0,0,4.68-.3c.54-.06,2.67-.39,3.12-.48a1,1,0,0,1,.3,0c.42,0,.45,1.23.45,1.92v.36c0,.81-.06,1.11-.84,1.26-1.35.24-6.42.42-8,.42a12.11,12.11,0,0,1-6.24-1.26,5.22,5.22,0,0,1-2.73-4.65c0-3,2.1-5,4.47-6.54.36-.24.72-.42.72-.93a1.24,1.24,0,0,0-.09-.48c-.42-1.14-1.2-4.23-1.53-5.55a15.94,15.94,0,0,0-.57-1.95,2.1,2.1,0,0,1-.09-.36c0-.42.93-.48,2-.63A10.72,10.72,0,0,1,38.18,523.86ZM50.24,526a9.58,9.58,0,0,1,1.14,2c0,.45-1.23,1.14-1.59,1.14s-.3-.18-.57-.63c-.39-.69-.87-1.5-1.32-2.16-.12-.18-.42-.54-.42-.72,0-.36,1.26-1,1.59-1S50.06,525.75,50.24,526Zm3.15-2a10,10,0,0,1,1.11,1.95c0,.48-1.26,1.17-1.59,1.17s-.33-.24-.42-.42c-.57-1-1.14-1.83-1.8-2.82a.57.57,0,0,1-.09-.24c0-.42,1.29-1,1.59-1S53.12,523.59,53.39,524Z"/><path class="cls-1" d="M64.37,537.63c.39,0,.48.27.54.57.63,3.18,3.18,3.63,6,3.63a37.36,37.36,0,0,0,8.94-1.05,2.39,2.39,0,0,1,.45-.09c.45,0,.66.51.66,2.46,0,.57-.15.93-.72,1.11a54.83,54.83,0,0,1-9,.84c-3.12,0-6.48-.39-8.43-3.12a7,7,0,0,1-1.17-2.91C61.64,538.32,64.34,537.63,64.37,537.63Zm.51-10.47c.09-.51.15-1,.72-1a4.49,4.49,0,0,1,.87.18,19.32,19.32,0,0,0,5.1.63,25.52,25.52,0,0,0,5.43-.6,1.52,1.52,0,0,1,.39-.06c.75,0,.78,1.35.78,2.58,0,.72-.15.78-.84.9a40.93,40.93,0,0,1-5.43.36c-1.65,0-5.37-.15-6.84-.75a.62.62,0,0,1-.42-.63A10.4,10.4,0,0,1,64.88,527.16Z"/><path class="cls-1" d="M101.15,524.07c.24.06.75.15.75.48s-.12.27-.24.36c-.57.42-.63.9-.81,2-.06.36-.12.78-.21,1.29a1.28,1.28,0,0,0-.06.33.61.61,0,0,0,.66.63l.36,0a5.88,5.88,0,0,1,3.42.69c1.5,1,1.83,2.7,1.83,4.35,0,2.76-.48,6.81-1.8,9.21a6.13,6.13,0,0,1-5.67,3.24,1.27,1.27,0,0,1-1.38-.72,6.51,6.51,0,0,1-.51-2.13c0-.3.09-.51.39-.51s.81.09,1.41.09a2.87,2.87,0,0,0,3.12-1.83,18.07,18.07,0,0,0,1.32-6.78c0-1.5-.09-2.73-1.89-2.73s-2,.24-2.22,1.08A35.48,35.48,0,0,1,95.81,542a34.5,34.5,0,0,1-3,4.32.82.82,0,0,1-.54.3c-.51,0-2.43-1.14-2.43-1.83a1.12,1.12,0,0,1,.42-.69,24.62,24.62,0,0,0,5.34-8.37,16.46,16.46,0,0,0,.75-2.25A.36.36,0,0,0,96,533a24.48,24.48,0,0,0-3.42,1.05,2.49,2.49,0,0,1-.63.18c-.75,0-1.26-2.94-1.26-3.09,0-.45.51-.45.9-.48a46.92,46.92,0,0,0,5-.93c.6-.12.9-.27,1-.9a27.66,27.66,0,0,0,.3-3.87c0-.33,0-.66,0-1s0-.6.33-.6S100.7,524,101.15,524.07Zm13,9.72c0,.66-1.89,1.77-2.49,1.77-.39,0-.54-.39-.69-.69a20.84,20.84,0,0,0-4-6.42.78.78,0,0,1-.27-.51c0-.54,1.74-1.59,2.28-1.59C110.12,526.35,114.2,533,114.2,533.79Z"/><path class="cls-1" d="M128.24,529.05c.21.09.54.18.54.42s-.15.27-.27.33c-.48.3-.51.57-.63,1.17-.24,1.38-.42,2.79-.72,4.17a4.55,4.55,0,0,0-.09.63c0,.18.09.36.3.36a.67.67,0,0,0,.39-.18c2.22-1.56,4-2.76,6.87-2.76,3.69,0,6.54,2.46,6.54,6.24,0,4.26-3.18,6.06-6.81,7.14a20.05,20.05,0,0,1-3.9.81c-.66,0-.84-.27-1.11-.84a6.24,6.24,0,0,1-.51-1.95c0-.48.36-.51.75-.54a20,20,0,0,0,4-.6c2.13-.54,4.35-1.47,4.35-4,0-2.07-1.68-3.18-3.6-3.18-3.15,0-6.33,2.64-8.22,5-.24.3-.48.63-.9.63-.27,0-2.28-.3-2.28-1.17a4.61,4.61,0,0,1,.3-1.05c.27-1,.51-1.95.69-2.94a47.92,47.92,0,0,0,.72-6.54c0-.24,0-.45,0-.66,0-.87,0-1.32.51-1.32A21.3,21.3,0,0,1,128.24,529.05Zm.54-6.48a20.75,20.75,0,0,1,3.42,1.89c.45.27,2.19,1.23,2.19,1.74s-1.23,2.37-1.86,2.37c-.33,0-.72-.42-1-.6a24.55,24.55,0,0,0-3.78-2.55c-.3-.18-.69-.33-.69-.66S128.06,522.57,128.78,522.57Z"/><path class="cls-1" d="M158.18,523.86c.84,0,.78.42.84,1.11.18,1.83.57,3.6.93,5.4.09.39.18.9.69.9s4.44-2.37,5.16-2.82a2,2,0,0,1,.78-.33c.51,0,1.95,2.58,1.95,3.06,0,.3-.36.39-.57.45a50.4,50.4,0,0,0-6.24,2.82c-2,1.08-6.57,3.36-6.57,6a2.63,2.63,0,0,0,1.95,2.19,12.14,12.14,0,0,0,4,.51,40.84,40.84,0,0,0,4.68-.3c.54-.06,2.67-.39,3.12-.48a1,1,0,0,1,.3,0c.42,0,.45,1.23.45,1.92v.36c0,.81-.06,1.11-.84,1.26-1.35.24-6.42.42-8,.42a12.11,12.11,0,0,1-6.24-1.26,5.22,5.22,0,0,1-2.73-4.65c0-3,2.1-5,4.47-6.54.36-.24.72-.42.72-.93a1.24,1.24,0,0,0-.09-.48c-.42-1.14-1.2-4.23-1.53-5.55a15.94,15.94,0,0,0-.57-1.95,2.1,2.1,0,0,1-.09-.36c0-.42.93-.48,2-.63A10.72,10.72,0,0,1,158.18,523.86ZM170.24,526a9.58,9.58,0,0,1,1.14,2c0,.45-1.23,1.14-1.59,1.14s-.3-.18-.57-.63c-.39-.69-.87-1.5-1.32-2.16-.12-.18-.42-.54-.42-.72,0-.36,1.26-1,1.59-1S170.06,525.75,170.24,526Zm3.15-2a10,10,0,0,1,1.11,1.95c0,.48-1.26,1.17-1.59,1.17s-.33-.24-.42-.42c-.57-1-1.14-1.83-1.8-2.82a.57.57,0,0,1-.09-.24c0-.42,1.29-1,1.59-1S173.12,523.59,173.39,524Z"/><path class="cls-1" d="M199.25,536.28c0,4.71-3.48,8.43-7.29,10.74a8.84,8.84,0,0,1-2.58,1.11c-.9,0-2.13-2-2.13-2.52,0-.3.33-.42.6-.51,3.6-1.14,8-4.41,8-8.58a3.87,3.87,0,0,0-4.17-4.14c-2.52,0-4.56,1.26-6.42,2.82a1.36,1.36,0,0,1-.63.3c-.72,0-1.68-2.16-1.68-2.85,0-.48.54-.75.9-.93a17.23,17.23,0,0,1,8-2.43C196.16,529.29,199.25,531.87,199.25,536.28ZM186.8,523.53c.12-.27.24-.57.6-.57a1.05,1.05,0,0,1,.48.18,31.38,31.38,0,0,0,7.5,1.5c.42,0,.75,0,.75.48a12.92,12.92,0,0,1-.3,1.83c-.15.6-.33.9-.81.9a63.42,63.42,0,0,1-6.9-1.35c-1.26-.33-1.92-.48-1.92-1A7,7,0,0,1,186.8,523.53Z"/><path class="cls-1" d="M219.8,540.87a9.56,9.56,0,0,1-5.79,6.3,15.63,15.63,0,0,1-4.23,1.17c-1,0-1.41-2-1.41-2.37s.39-.54,1.23-.66c3.51-.51,6.81-2.16,7.5-5.94.06-.42.09-.72.42-.72a6.22,6.22,0,0,1,1.56.48c.39.15,1.65.51,1.65.93s-.39.36-.6.42A.49.49,0,0,0,219.8,540.87Zm7.47-2.46h-1c-.57,0-.81.24-.81.84v4.44c0,1.29.27,1.44,1.5,1.44h2.19c2,0,2.31-.3,2.7-3.54a.57.57,0,0,1,.66-.54c.45,0,2.13.27,2.13,1.26a10.21,10.21,0,0,1-1.56,4.8c-.78.93-2.25.9-3.39.9h-4.53c-1.68,0-2.79-.48-2.79-2.34,0-.57,0-1.14,0-1.68v-4.74c0-.6-.24-.84-.84-.84h-5.88c-.33,0-.39.18-.48.48s-.39.42-1.56.42-1.56,0-1.56-.69.06-1.71.06-2.55v-9.81c0-.78-.06-1.56-.06-2.37,0-1,.45-1.32,1.44-1.32.84,0,1.71.06,2.55.06h10.8c.87,0,1.71-.06,2.55-.06,1.26,0,1.47.45,1.47,1.59,0,.54-.06,1.23-.06,2.1V536c0,.87.06,1.71.06,2.55s-.36.72-1.56.72-1.47,0-1.56-.45S227.6,538.44,227.27,538.41Zm-.18-11.19a.69.69,0,0,0,.72-.72v-.42a.69.69,0,0,0-.72-.72H215.87a.69.69,0,0,0-.72.72v.42a.69.69,0,0,0,.72.72Zm-11.94,3.48a.69.69,0,0,0,.72.72h11.22a.69.69,0,0,0,.72-.72v-.45a.69.69,0,0,0-.72-.72H215.87a.69.69,0,0,0-.72.72Zm0,4.29a.8.8,0,0,0,.84.81h11a.8.8,0,0,0,.84-.81v-.36a.86.86,0,0,0-.84-.84H216a.86.86,0,0,0-.84.84Z"/><path class="cls-1" d="M241.4,527.19c4.38-.27,8.76-.72,13.14-1.23,2.25-.27,4.56-.57,6.81-.93a1.46,1.46,0,0,1,.36,0c.45,0,.51.39.6.75a18.1,18.1,0,0,1,.24,2.19c0,.66-.63.6-1.32.63a14.67,14.67,0,0,0-5,.63,9.08,9.08,0,0,0-5.13,4.47,11.23,11.23,0,0,0-1.44,5.28c0,3.48,2.25,4.32,5.28,4.32.54,0,1.2,0,1.5,0,.45,0,.69,0,.69.51a7.19,7.19,0,0,1-.54,2.67c-.21.3-.54.3-.87.3-5.1,0-9.48-1.62-9.48-7.47a13.32,13.32,0,0,1,3.3-8.61c.15-.15.54-.54.54-.72s-.27-.36-.45-.36-1.59.21-1.92.27a60.1,60.1,0,0,0-6.63,1.23,2.32,2.32,0,0,1-.45.06c-.72,0-1-2.85-1-3.15C239.66,527.19,240.08,527.28,241.4,527.19Z"/><path class="cls-1" d="M283.28,523.74c0,.15-.12.24-.27.33-.42.21-.63.24-1.05,1.32-.27.72-.51,1.47-.75,2.19a1.06,1.06,0,0,0-.09.42c0,.51.39.63.81.69,1,.12,2,.21,3.06.24.57,0,1,0,1,.57a8.84,8.84,0,0,1-.33,2c-.12.42-.24.66-.66.66a37.7,37.7,0,0,1-4.08-.45.88.88,0,0,0-.27-.06c-.48,0-.69.33-.81.72s-.51,2.25-.51,2.49c0,.63.63.66,1,.69.9.09,1.8.12,2.7.12s.9.21.9.51a6.64,6.64,0,0,1-.39,2c-.15.45-.33.69-.84.69-.69,0-2.1-.21-2.82-.3a3,3,0,0,0-.48-.06c-.81,0-.81.75-.81,2,0,2.61,1.38,4,4,4,1.35,0,3.42-.36,4.35-1.41a3,3,0,0,0,.66-2.13,13,13,0,0,0-1-4.35,1.58,1.58,0,0,1-.12-.54c0-.72,2.22-1.11,2.55-1.11.48,0,.57.48.81,1.14a16.45,16.45,0,0,1,1,5.25c0,4.65-4.29,6.27-8.28,6.27-4.53,0-7.2-2.61-7.2-7.17,0-.75.12-1.89.12-2.19,0-.66-.51-.84-1.2-1a10,10,0,0,1-1.77-.72c-.33-.18-.57-.33-.57-.72,0-.18.3-2.55,1-2.55a1.65,1.65,0,0,1,.75.3,5.44,5.44,0,0,0,1.92.84c.51,0,.6-.42.78-1.29.06-.33.18-.72.27-1.17a6.21,6.21,0,0,0,.12-.66c0-.66-.54-.84-1-1-2.1-.81-2.7-1.08-2.7-1.62s.48-2.58,1.11-2.58a1.63,1.63,0,0,1,.69.33,18.73,18.73,0,0,0,2,1,.92.92,0,0,0,.39.09c.48,0,.6-.39.69-.72.27-1,.93-3.15,1.17-4,.09-.33.15-.6.45-.6a11.32,11.32,0,0,1,1.5.48C281.75,522.84,283.28,523.26,283.28,523.74Z"/><path class="cls-1" d="M303.74,530.28c.48,0,1-.18,1-.75v-2c0-1.68-.12-3.27-.12-3.3,0-.21.09-.3.3-.3a21.72,21.72,0,0,1,2.22.15c.75.06,1.38.15,1.38.42a.51.51,0,0,1-.18.3c-.39.48-.36.72-.36,2.67v2.07a.77.77,0,0,0,.78.78h5.28c.42,0,.75-.27.75-.87,0-1.08-.06-4.2-.12-5.1,0-.12,0-.24,0-.36a.37.37,0,0,1,.39-.36c.42,0,2.1.18,2.58.21s.93.06.93.33-.12.27-.33.48a9.59,9.59,0,0,0-.18,2.52v1.14c0,.3,0,.6,0,.9v.18c0,.6.27.93.87.93h.81c.93,0,2.91-.06,3.54-.06s.75.24.75,1.41c0,1.5-.09,1.77-.84,1.77-1.17,0-2.31-.06-3.45-.06H319c-.93,0-.93.63-.93,1-.09,5.22-.6,8.85-5.28,11.94a12.34,12.34,0,0,1-3,1.53,5,5,0,0,1-2.19-2.19c0-.24.27-.39.48-.48,5.7-2.37,6.75-4.86,6.75-10.86,0-.51-.21-1-.78-1h-5.22a.77.77,0,0,0-.78.75v2.85c0,.84.06,1.65.06,2.49,0,1.32-.15,1.2-1.95,1.2-1.05,0-1.41,0-1.41-.75,0-1,.06-1.92.06-2.88v-2.88a.8.8,0,0,0-.81-.78H303c-1.17,0-2.37.09-3.36.09-.75,0-.78-.63-.78-1.38,0-1.44,0-1.83.75-1.83.87,0,2.22.06,3.39.06Z"/><path class="cls-1" d="M353.93,532.08c0,.51-1.2,1.68-1.59,2.07a52.11,52.11,0,0,1-16.29,11.31c-1,.48-1,.51-1.26,1a.3.3,0,0,1-.3.18c-.33,0-1-1.2-1.17-1.56a8.41,8.41,0,0,1-.9-1.8c0-.33.54-.39.93-.51,6.63-1.95,14.13-7.62,18.39-13a.74.74,0,0,1,.51-.33C352.85,529.41,353.93,531.63,353.93,532.08Zm-15.48-5c.39.27,1.83,1.26,1.83,1.71,0,.69-1.41,2.31-2,2.31a3.21,3.21,0,0,1-1.2-.81,37.42,37.42,0,0,0-4-2.79c-.24-.15-.48-.3-.48-.57,0-.45,1.2-2.37,1.89-2.37C335,524.61,337.88,526.71,338.45,527.13Z"/><path class="cls-1" d="M377.69,527.22a8.87,8.87,0,0,0,1.83-.15,1.07,1.07,0,0,1,.3-.06c.51,0,1.56,1.56,1.56,2a.84.84,0,0,1-.18.45,6.79,6.79,0,0,0-.75,1.47,54.21,54.21,0,0,1-2.85,5.58,1,1,0,0,0-.21.6c0,.39.27.57.54.78s1.68,1.17,1.68,1.56-1.35,2.28-1.92,2.28a.67.67,0,0,1-.45-.24c-.42-.36-.81-.66-1.23-1a1,1,0,0,0-.66-.3c-.42,0-.75.42-1,.72a23.82,23.82,0,0,1-6.54,5.07,16.2,16.2,0,0,1-3.63,1.53c-.78,0-2.16-1.92-2.16-2.34s.51-.45,1.29-.69a21,21,0,0,0,8.58-5.4,1.17,1.17,0,0,0,.45-.75.73.73,0,0,0-.36-.63c-.69-.45-2.25-1.26-3-1.62-.3-.12-.9-.33-.9-.66s1.17-2.25,1.83-2.25a22.29,22.29,0,0,1,3.87,1.95,1.27,1.27,0,0,0,.57.18c.57,0,.84-.57,1.65-2.16a3.43,3.43,0,0,1,.18-.42,9.37,9.37,0,0,0,.78-2c0-.63-.78-.6-1.23-.6H370c-.72,0-.93.24-1.32.78a44.11,44.11,0,0,1-3.9,4.62,1.6,1.6,0,0,1-1,.57c-.54,0-2.49-1.26-2.49-1.77,0-.24.27-.45.45-.57A27.61,27.61,0,0,0,369.59,523c.09-.24.21-.75.54-.75a6.83,6.83,0,0,1,1.68.72c.27.12,1.77.78,1.77,1s-.15.27-.3.33c-.45.18-.48.27-.9,1-.12.21-.27.48-.48.81a1.62,1.62,0,0,0-.24.63c0,.3.27.42.54.45Z"/><path class="cls-1" d="M401.27,544.62a2.21,2.21,0,0,1-2.34,2.31,2,2,0,0,1-2.07-2,2.24,2.24,0,0,1,2.31-2.4A2,2,0,0,1,401.27,544.62Zm-2.7-4.41c-.75,0-.9-.15-.93-.9l-.21-7.59c-.06-1.8-.27-5.82-.27-6.42s.18-.63.84-.63h2.1c.66,0,.84.12.84.63s-.21,4.62-.27,6.6l-.18,7.41c0,.75-.18.9-.93.9Z"/><path class="cls-1" d="M113,588.31c0,.27-.21.42-.63.63a9.59,9.59,0,0,1-3.75.75c-5.16,0-7.29-3.57-7.29-7.29,0-4.8,2.91-8.43,8.25-8.43a8.74,8.74,0,0,1,3,.51c.45.15.63.3.65.6a1.54,1.54,0,0,1-.11.54l-.54,1.47c-.18.48-.27.66-.52.66a1.6,1.6,0,0,1-.59-.18,4.93,4.93,0,0,0-1.8-.36,4.76,4.76,0,0,0-4.86,5.1,4.09,4.09,0,0,0,4.29,4.38,5.27,5.27,0,0,0,2.21-.48,1.68,1.68,0,0,1,.61-.18c.24,0,.33.18.51.66l.42,1A1.78,1.78,0,0,1,113,588.31Z"/><path class="cls-1" d="M131.14,581.5c0,5-3.21,8.19-7.95,8.19a7.09,7.09,0,0,1-7.41-7.5c0-4.83,3-8.25,8-8.25A7.16,7.16,0,0,1,131.14,581.5Zm-11.88.72c0,2.76,1.68,4.56,4,4.56,2.58,0,4.38-2,4.38-5,0-2.82-1.74-4.59-4.08-4.59C120.76,577.18,119.26,579.34,119.26,582.22Z"/><path class="cls-1" d="M138.1,584.71c0,1.35.06,3.84.06,4,0,.63-.19.75-.87.75h-1.74c-.69,0-.87-.12-.87-.75,0-.21.06-2.7.06-4v-5.79c0-1.35-.06-3.84-.06-4,0-.63.18-.75.87-.75H137c.72,0,.84.12.87.84,0,.39.09.57.24.57a.92.92,0,0,0,.45-.21,7,7,0,0,1,4.17-1.38c3.08,0,5.16,2,5.16,5.37v5.4c0,1.35.05,3.84.05,4,0,.63-.17.75-.87.75h-1.74c-.68,0-.86-.12-.86-.75,0-.21,0-2.7,0-4v-4.47a2.73,2.73,0,0,0-2.93-3.06,4.66,4.66,0,0,0-2.82,1,1.44,1.44,0,0,0-.66,1.35Z"/><path class="cls-1" d="M158.71,586.33c2.87.45,6.32,1.2,6.32,4.44,0,2.55-2.39,4.92-8.06,4.92-4.47,0-6.63-1.68-6.63-4a4.45,4.45,0,0,1,2.13-3.54c.35-.24.5-.39.5-.57a1.25,1.25,0,0,0-.29-.6,2.64,2.64,0,0,1,.21-3.06c.24-.3.36-.45.36-.6s-.15-.33-.43-.6a4.71,4.71,0,0,1-1.28-3.39c0-3.09,2.27-5.4,6.47-5.4.34,0,.63,0,.94,0,1,.09,1.94.15,2.87.15h.48c.87,0,2,0,2.37,0,.63,0,.72.15.72.84v1.23c0,.66-.09.81-.66.81h-.44c-.4,0-.52.09-.52.33a3.12,3.12,0,0,0,.06.45A5.25,5.25,0,0,1,164,579c0,3.12-2.07,5.43-6.36,5.43a7.58,7.58,0,0,1-1.17-.06c-.19,0-.54-.09-.67-.09-.29,0-.47.21-.47.6C155.29,585.64,156.39,586,158.71,586.33ZM156,588.79a1.69,1.69,0,0,0-1,.36,2.63,2.63,0,0,0-1.31,2.07c0,1.17,1.41,1.83,3.56,1.83,2.64,0,4.36-.84,4.36-1.95s-1.65-1.65-3.78-2c-.45-.09-.94-.15-1.36-.24A3.2,3.2,0,0,0,156,588.79Zm-1.23-9.27c0,1.35,1.12,2.34,3,2.34,2.27,0,3.11-1.41,3.11-2.73s-1.13-2.34-2.9-2.34C155.71,576.79,154.74,578.14,154.74,579.52Z"/><path class="cls-1" d="M171.39,584.71c0,1.35.07,3.84.07,4,0,.63-.19.75-.88.75h-1.73c-.7,0-.88-.12-.88-.75,0-.21.07-2.7.07-4v-5.79c0-1.35-.07-3.84-.07-4,0-.63.18-.75.88-.75h1.25c.79,0,1,.12,1,.9s.09.9.27.9a.93.93,0,0,0,.45-.27,6.54,6.54,0,0,1,4.05-1.68c.45,0,.57.21.57.81v2.28c0,.45-.18.6-.51.6-.15,0-.42-.06-.72-.06a5.17,5.17,0,0,0-3.12,1.17,1.43,1.43,0,0,0-.66,1.35Z"/><path class="cls-1" d="M188.85,589.51c-.69,0-.84-.06-.87-.87,0-.33-.06-.51-.24-.51a.86.86,0,0,0-.42.21,8.28,8.28,0,0,1-4.41,1.35c-2.58,0-4.5-1.35-4.5-4.08,0-3.84,4.53-5.52,8.55-5.91.51,0,.72-.15.75-.48a2.64,2.64,0,0,0-.48-1.32,2.56,2.56,0,0,0-2.31-1,8,8,0,0,0-3.95,1.23,1.29,1.29,0,0,1-.61.27c-.21,0-.33-.18-.51-.6l-.57-1.32a1.2,1.2,0,0,1-.14-.57c0-.27.17-.45.59-.66a13.36,13.36,0,0,1,5.61-1.35c3.84,0,5.73,1.77,5.73,6L191,584.5c0,1.71.06,3.87.06,4.38s-.18.63-.84.63Zm-1.62-7a1.59,1.59,0,0,0-.36,0c-2.76.39-5.13,1.38-5.13,2.88,0,1,.81,1.53,2.07,1.53a6.28,6.28,0,0,0,3.18-1,1.23,1.23,0,0,0,.75-1.32v-1.32C187.74,582.67,187.65,582.46,187.23,582.46Z"/><path class="cls-1" d="M203.58,588.46c0,.75-.15.93-.87,1a14.72,14.72,0,0,1-1.65.12c-3.66,0-4.92-1.8-4.92-4.83v-6.9c0-.6-.09-.75-.6-.75-.36,0-.87,0-1,0-.78,0-.9-.12-.9-.9v-1.23c0-.78.12-.9.9-.9l1,0c.51,0,.57-.09.57-.72,0-.93-.06-2.64-.06-2.85,0-.63.18-.75.87-.75h1.65c.69,0,.87.12.87.75,0,.21-.06,1.8-.06,2.85,0,.63.09.72.69.72h.81l1.77,0c.78,0,.9.12.9.87v1.29c0,.75-.12.87-.9.87l-1.77,0h-.6c-.75,0-.9.15-.9.9v6.27c0,1.71.72,2.28,2.28,2.28.57,0,1.26-.18,1.47-.18.36,0,.42.21.42.78Z"/><path class="cls-1" d="M218,589.51c-.72,0-.87-.09-.9-.87,0-.39-.06-.54-.21-.54a.92.92,0,0,0-.45.21,7,7,0,0,1-4.17,1.38c-3.09,0-5.16-2-5.16-5.37v-5.43c0-1.32-.06-3.81-.06-4,0-.63.18-.75.87-.75h1.74c.69,0,.87.12.87.75,0,.21-.06,2.7-.06,4v4.71a2.73,2.73,0,0,0,2.94,3.06,4.68,4.68,0,0,0,2.82-1,1.44,1.44,0,0,0,.66-1.35v-5.43c0-1.32-.06-3.81-.06-4,0-.63.18-.75.87-.75h1.74c.69,0,.87.12.87.75,0,.21-.06,2.7-.06,4v5.82c0,1.35.06,3.84.06,4,0,.63-.18.75-.87.75Z"/><path class="cls-1" d="M230.1,589.57c-.3,0-.6,0-.9,0-3.48,0-4.65-1.41-4.65-5V572.17c0-1.23-.06-3.84-.06-4,0-.63.18-.75.87-.75h1.74c.69,0,.87.12.87.75,0,.21-.06,2.7-.06,4v12.18c0,1.53.33,2.25,1.86,2.28.24,0,.6-.06.75-.06s.42.15.42.57v1.53C230.94,589.36,230.79,589.51,230.1,589.57Z"/><path class="cls-1" d="M243.48,589.51c-.69,0-.84-.06-.87-.87,0-.33-.06-.51-.24-.51a.86.86,0,0,0-.42.21,8.28,8.28,0,0,1-4.41,1.35c-2.58,0-4.5-1.35-4.5-4.08,0-3.84,4.53-5.52,8.55-5.91.51,0,.72-.15.75-.48a2.64,2.64,0,0,0-.48-1.32,2.56,2.56,0,0,0-2.31-1,8,8,0,0,0-4,1.23,1.22,1.22,0,0,1-.6.27c-.21,0-.33-.18-.51-.6l-.57-1.32a1.23,1.23,0,0,1-.15-.57c0-.27.18-.45.6-.66a13.32,13.32,0,0,1,5.61-1.35c3.84,0,5.73,1.77,5.73,6l-.09,4.56c0,1.71.06,3.87.06,4.38s-.18.63-.84.63Zm-1.62-7a1.59,1.59,0,0,0-.36,0c-2.76.39-5.13,1.38-5.13,2.88,0,1,.81,1.53,2.07,1.53a6.28,6.28,0,0,0,3.18-1,1.23,1.23,0,0,0,.75-1.32v-1.32C242.37,582.67,242.28,582.46,241.86,582.46Z"/><path class="cls-1" d="M258.21,588.46c0,.75-.15.93-.87,1a14.72,14.72,0,0,1-1.65.12c-3.66,0-4.92-1.8-4.92-4.83v-6.9c0-.6-.09-.75-.6-.75-.36,0-.87,0-1,0-.78,0-.9-.12-.9-.9v-1.23c0-.78.12-.9.9-.9l1,0c.51,0,.57-.09.57-.72,0-.93-.06-2.64-.06-2.85,0-.63.18-.75.87-.75h1.65c.69,0,.87.12.87.75,0,.21-.06,1.8-.06,2.85,0,.63.09.72.69.72h.81l1.77,0c.78,0,.9.12.9.87v1.29c0,.75-.12.87-.9.87l-1.77,0h-.6c-.75,0-.9.15-.9.9v6.27c0,1.71.72,2.28,2.28,2.28.57,0,1.26-.18,1.47-.18s.42.21.42.78Z"/><path class="cls-1" d="M265.83,570a2.19,2.19,0,0,1-2.25,2.37,2,2,0,0,1-2.07-2,2.16,2.16,0,0,1,2.25-2.28A1.93,1.93,0,0,1,265.83,570Zm-3,19.56c-.69,0-.87-.12-.87-.75,0-.21.06-2.7.06-4v-5.79c0-1.35-.06-3.84-.06-4,0-.63.18-.75.87-.75h1.74c.69,0,.87.12.87.75,0,.21-.06,2.7-.06,4v5.79c0,1.35.06,3.84.06,4,0,.63-.18.75-.87.75Z"/><path class="cls-1" d="M284.34,581.5c0,5-3.21,8.19-7.95,8.19a7.09,7.09,0,0,1-7.41-7.5c0-4.83,3-8.25,7.95-8.25A7.16,7.16,0,0,1,284.34,581.5Zm-11.88.72c0,2.76,1.68,4.56,4,4.56,2.58,0,4.38-2,4.38-5,0-2.82-1.74-4.59-4.08-4.59C274,577.18,272.46,579.34,272.46,582.22Z"/><path class="cls-1" d="M291.3,584.71c0,1.35.06,3.84.06,4,0,.63-.18.75-.87.75h-1.74c-.69,0-.87-.12-.87-.75,0-.21.06-2.7.06-4v-5.79c0-1.35-.06-3.84-.06-4,0-.63.18-.75.87-.75h1.44c.72,0,.84.12.87.84,0,.39.09.57.24.57a.92.92,0,0,0,.45-.21,7,7,0,0,1,4.17-1.38c3.09,0,5.16,2,5.16,5.37v5.4c0,1.35.06,3.84.06,4,0,.63-.18.75-.87.75h-1.74c-.69,0-.87-.12-.87-.75,0-.21.06-2.7.06-4v-4.47a2.73,2.73,0,0,0-2.94-3.06,4.68,4.68,0,0,0-2.82,1,1.44,1.44,0,0,0-.66,1.35Z"/><path class="cls-1" d="M315.75,585.22c0,3.18-2.82,4.5-6,4.5a10.92,10.92,0,0,1-4.92-1.14c-.39-.21-.57-.39-.57-.66a1.35,1.35,0,0,1,.18-.57l.54-1.17c.21-.42.33-.6.54-.6a1.22,1.22,0,0,1,.6.27,7.19,7.19,0,0,0,3.69,1.11c1.53,0,2.55-.57,2.55-1.62s-1.29-1.5-2.82-2c-2.22-.81-4.95-1.86-4.95-4.89,0-2.61,2.13-4.5,5.94-4.5a10.13,10.13,0,0,1,4.05.81c.42.21.63.36.63.66a1.86,1.86,0,0,1-.15.54l-.54,1.41c-.18.42-.3.63-.51.63a1.43,1.43,0,0,1-.6-.24,6.59,6.59,0,0,0-3.09-.84c-1.41,0-2.34.6-2.34,1.5s1.35,1.5,2.94,2.07C313.17,581.29,315.75,582.31,315.75,585.22Z"/><path class="cls-1" d="M327.75,587.62a2.21,2.21,0,0,1-2.34,2.31,2,2,0,0,1-2.07-2,2.24,2.24,0,0,1,2.31-2.4A2,2,0,0,1,327.75,587.62Zm-2.7-4.41c-.75,0-.9-.15-.93-.9l-.21-7.59c-.06-1.8-.27-5.82-.27-6.42s.18-.63.84-.63h2.1c.66,0,.84.12.84.63s-.21,4.62-.27,6.6l-.18,7.41c0,.75-.18.9-.93.9Z"/><path class="cls-1" d="M37.94,615.65c.36.21.87.45.87.75,0,.12-.15.24-.27.3a1.22,1.22,0,0,0-.72.72,46.52,46.52,0,0,1-6.57,9.42c-.33.39-1.26,1.47-1.77,1.47s-2.55-1.26-2.55-1.86a.67.67,0,0,1,.24-.45,32.93,32.93,0,0,0,7.77-10.89c.09-.24.24-.66.51-.66A13.4,13.4,0,0,1,37.94,615.65Zm8.58-.21A39.79,39.79,0,0,1,49.94,620c.57.84,3.21,5.1,3.21,5.82s-2.28,1.86-2.82,1.86c-.36,0-.51-.39-.69-.75l-.09-.18a50.09,50.09,0,0,0-5.7-9.33.93.93,0,0,1-.33-.6c0-.54,1.8-1.74,2.25-1.74A.94.94,0,0,1,46.52,615.44Z"/><path class="cls-1" d="M64,617.84c.33.39,1,1.47,1.32,1.95a10.91,10.91,0,0,1,1.29,2.37c0,.63-1.8,1.38-2.16,1.38s-.45-.27-.57-.51a29.67,29.67,0,0,0-2.16-3.63,1.11,1.11,0,0,1-.24-.54c0-.54,1.62-1.29,2-1.29A.67.67,0,0,1,64,617.84Zm14.85-.48c.24.09.54.24.54.54s-.21.33-.36.45-.27.27-.39.63a22.42,22.42,0,0,1-4.11,8.4,17.13,17.13,0,0,1-8.16,5.22,5.3,5.3,0,0,1-.93.24c-.57,0-1.68-1.65-1.68-2.07s.18-.45.48-.54c3.87-1.05,7.14-2.82,9.3-6.33A17.41,17.41,0,0,0,76,617.09c0-.27.06-.6.39-.6A20.36,20.36,0,0,1,78.83,617.36Zm-7.5.66a11.83,11.83,0,0,1,1.35,2.46c0,.6-1.74,1.38-2.16,1.38s-.48-.33-.6-.57a32.32,32.32,0,0,0-2.1-3.54,1,1,0,0,1-.27-.6c0-.51,1.62-1.26,2-1.26s1,.84,1.5,1.68Z"/><path class="cls-1" d="M94.7,624.83c0,3.63.6,3.57,4.74,3.57a58.24,58.24,0,0,0,10-.63l.3,0c.54,0,.6.72.6,1.53,0,1.08,0,1.77-.93,1.89-2.07.3-8.19.33-10.53.33-2,0-5.37.12-6.66-1.74-.75-1.11-.78-3.45-.78-4.77V614.81a38.47,38.47,0,0,0-.15-4.17v-.24a.34.34,0,0,1,.36-.33c.27,0,2.49.48,3,.57.21,0,.66.09.66.39s-.12.27-.27.45a3,3,0,0,0-.33,1.8c0,.48,0,1,0,1.56v2.94c0,.6.51.75,1,.75a26.55,26.55,0,0,0,11-3.33c.15-.06.33-.21.48-.21.3,0,.81.84,1,1.11a9.27,9.27,0,0,1,1.2,1.95c0,.24-.27.3-.45.3l-.36,0c-.09,0-.18,0-.24,0a2.82,2.82,0,0,0-1.08.33,33.17,33.17,0,0,1-11.64,2.85c-.57,0-.9.24-1,.84Zm19.5-12.6a3,3,0,1,1-6,0,3,3,0,0,1,6,0Zm-4.59,0a1.59,1.59,0,0,0,1.59,1.62,1.61,1.61,0,1,0,0-3.21A1.56,1.56,0,0,0,109.61,612.23Z"/><path class="cls-1" d="M137.15,619.22c1.38,0,3.33-.09,3.72-.09.81,0,.84.24.84,1.89,0,1,0,1.53-.81,1.53-1.26,0-2.52-.06-3.75-.06h-13.8c-1.23,0-2.49.06-3.75.06-.78,0-.81-.57-.81-1.5,0-1.68.06-1.92.84-1.92.39,0,2.46.09,3.72.09Z"/><path class="cls-1" d="M162.26,618.32a23.55,23.55,0,0,0,2.43-6.78c0-.24.06-.66.33-.66a14.12,14.12,0,0,1,2.1.69c.57.21,1.59.57,1.59.9,0,.18-.18.3-.33.39a1.61,1.61,0,0,0-.69,1,47,47,0,0,1-2.88,6.54,1.16,1.16,0,0,0-.18.54c0,.39.27.6.57.84s2.22,1.74,2.22,2.13-1.38,2.43-1.95,2.43a1.22,1.22,0,0,1-.75-.45c-.39-.42-1.59-1.65-2.1-1.65s-.54.24-.75.48a25.23,25.23,0,0,1-5.34,4.92c-.72.51-4.11,2.58-4.83,2.58s-2.13-1.83-2.13-2.25.48-.54.87-.69l.24-.09a21.76,21.76,0,0,0,8.31-6c.18-.21.48-.54.48-.84a.66.66,0,0,0-.39-.6,24.53,24.53,0,0,0-3.57-1.41c-.3-.09-.63-.24-.63-.6s.75-2.4,1.53-2.4a21.85,21.85,0,0,1,4.41,1.71,1.26,1.26,0,0,0,.45.12C161.87,619.22,162,618.74,162.26,618.32Z"/><path class="cls-1" d="M185.9,620c0,1.35.06,2.73.06,4.08,0,.93-.27,1.05-1.68,1.05s-1.8-.09-1.8-.9c0-1.41.09-2.79.09-4.2v-6.33c0-.81-.06-1.59-.09-2.37,0-.18,0-.36,0-.54s.06-.3.27-.3,2.16.27,2.58.33c.63.12,1,.12,1,.39a.67.67,0,0,1-.15.33,2.76,2.76,0,0,0-.33,1.74c0,.45,0,1,0,1.68Zm11.76-1.17a45.61,45.61,0,0,1-.33,6.39,10.18,10.18,0,0,1-3.66,7c-.51.42-2.76,2.1-3.3,2.1s-2.52-1.5-2.52-2c0-.27.57-.51.81-.63,2.94-1.53,4.83-3.24,5.34-6.63a37.52,37.52,0,0,0,.36-5.79v-6.51a15.93,15.93,0,0,0-.09-2.07,3,3,0,0,1-.06-.51c0-.24.12-.3.36-.3a26.21,26.21,0,0,1,3,.3c.24.06.6.09.6.36s-.12.27-.27.42a2.51,2.51,0,0,0-.21,1.29Z"/><path class="cls-1" d="M227.15,619.22c1.38,0,3.33-.09,3.72-.09.81,0,.84.24.84,1.89,0,1,0,1.53-.81,1.53-1.26,0-2.52-.06-3.75-.06h-13.8c-1.23,0-2.49.06-3.75.06-.78,0-.81-.57-.81-1.5,0-1.68.06-1.92.84-1.92.39,0,2.46.09,3.72.09Z"/><path class="cls-1" d="M256.43,613.52a7.13,7.13,0,0,0,1.68-.18c.09,0,.21,0,.33,0,.6,0,1.92,1.65,1.92,2a1.9,1.9,0,0,1-.36.75,17.66,17.66,0,0,0-.93,1.62c-2.94,5.7-5.88,10.08-11.4,13.65-.66.42-3.48,2.19-4.11,2.19s-2.55-1.47-2.55-2c0-.3.36-.45.6-.54a26.58,26.58,0,0,0,11.58-9.6c.51-.75,2.31-3.66,2.31-4.41,0-.39-.48-.42-.9-.42h-5.7c-.69,0-.87.3-1.26.84-.57.81-4,4.92-4.83,4.92-.36,0-2.55-1.14-2.55-1.77a.47.47,0,0,1,.27-.42,27.73,27.73,0,0,0,8-10.74c.12-.3.21-.72.48-.72a10,10,0,0,1,1.59.66c.27.15,1.8.72,1.8,1,0,.15-.15.27-.27.33-.42.15-.51.3-1,1.23a4.54,4.54,0,0,0-.54,1.08c0,.33.21.48.51.51Z"/><path class="cls-1" d="M275.9,620c0,1.35.06,2.73.06,4.08,0,.93-.27,1.05-1.68,1.05s-1.8-.09-1.8-.9c0-1.41.09-2.79.09-4.2v-6.33c0-.81-.06-1.59-.09-2.37,0-.18,0-.36,0-.54s.06-.3.27-.3,2.16.27,2.58.33c.63.12,1.05.12,1.05.39a.67.67,0,0,1-.15.33,2.76,2.76,0,0,0-.33,1.74c0,.45,0,1,0,1.68Zm11.76-1.17a45.61,45.61,0,0,1-.33,6.39,10.18,10.18,0,0,1-3.66,7c-.51.42-2.76,2.1-3.3,2.1s-2.52-1.5-2.52-2c0-.27.57-.51.81-.63,2.94-1.53,4.83-3.24,5.34-6.63a37.52,37.52,0,0,0,.36-5.79v-6.51a15.93,15.93,0,0,0-.09-2.07,3,3,0,0,1-.06-.51c0-.24.12-.3.36-.3a26.21,26.21,0,0,1,3,.3c.24.06.6.09.6.36s-.12.27-.27.42a2.51,2.51,0,0,0-.21,1.29Z"/><path class="cls-1" d="M314.75,612.29a8.07,8.07,0,0,0,1.29-.06c.18,0,.48-.06.66-.06.63,0,1.92,1.65,1.92,2a5.81,5.81,0,0,1-.66,1.17c-.18.27-.36.57-.48.78a43.49,43.49,0,0,1-3.9,5.7.82.82,0,0,0-.24.57.8.8,0,0,0,.45.72,48.18,48.18,0,0,1,5.07,3.87c.72.63,1.47,1.32,2.16,2a.57.57,0,0,1,.21.42c0,.63-1.65,2.4-2.28,2.4a1,1,0,0,1-.75-.45,31.91,31.91,0,0,0-6.63-5.94,1.06,1.06,0,0,0-.69-.27,1.44,1.44,0,0,0-.9.51,33.4,33.4,0,0,1-7.5,5.25,5,5,0,0,1-1.32.57c-.63,0-2-2-2-2.55,0-.36.36-.51.63-.6,5.31-2,10.35-6.63,13.38-11.37a3,3,0,0,0,.51-1c0-.45-.42-.51-.87-.51h-6.21c-1.29,0-2.58.06-3.87.06-.81,0-.75-.45-.75-1.83,0-1.05,0-1.5.72-1.5,1.29,0,2.58.06,3.9.06Z"/><path class="cls-1" d="M348.74,614.87a10,10,0,0,0,1.68-.09,1,1,0,0,1,.3,0c.6,0,2.1,1.89,2.1,2.25,0,.18-.42.57-.93,1-.27.24-.54.48-.81.75-2.55,2.52-5.19,5-7.95,7.32-.27.24-.57.48-.57.87s.27.6.45.87a9.32,9.32,0,0,1,1.11,1.83c0,.57-1.86,1.77-2.49,1.77-.3,0-.48-.3-.6-.54a29.68,29.68,0,0,0-5.43-6.48c-.18-.18-.57-.51-.57-.78,0-.45,1.62-1.8,2.22-1.8.45,0,1.95,1.53,2.34,1.92s.42.45.78.45a1.08,1.08,0,0,0,.72-.33c1.29-1.08,2.55-2.19,3.75-3.33.33-.3,1.89-1.74,1.89-2.1s-.54-.39-1.11-.39H333c-1.32,0-2.82.09-3.84.09-.81,0-.78-.6-.78-1.44,0-1.56,0-1.89.72-1.89,1.32,0,2.61.06,3.9.06Z"/><path class="cls-1" d="M374.75,612.29a8.07,8.07,0,0,0,1.29-.06c.18,0,.48-.06.66-.06.63,0,1.92,1.65,1.92,2a5.81,5.81,0,0,1-.66,1.17c-.18.27-.36.57-.48.78a43.49,43.49,0,0,1-3.9,5.7.82.82,0,0,0-.24.57.8.8,0,0,0,.45.72,48.18,48.18,0,0,1,5.07,3.87c.72.63,1.47,1.32,2.16,2a.57.57,0,0,1,.21.42c0,.63-1.65,2.4-2.28,2.4a1,1,0,0,1-.75-.45,31.91,31.91,0,0,0-6.63-5.94,1.06,1.06,0,0,0-.69-.27,1.44,1.44,0,0,0-.9.51,33.4,33.4,0,0,1-7.5,5.25,5,5,0,0,1-1.32.57c-.63,0-2-2-2-2.55,0-.36.36-.51.63-.6,5.31-2,10.35-6.63,13.38-11.37a3,3,0,0,0,.51-1c0-.45-.42-.51-.87-.51h-6.21c-1.29,0-2.58.06-3.87.06-.81,0-.75-.45-.75-1.83,0-1.05,0-1.5.72-1.5,1.29,0,2.58.06,3.9.06Z"/><path class="cls-1" d="M402.47,630.62a2.21,2.21,0,0,1-2.34,2.31,2,2,0,0,1-2.07-2,2.24,2.24,0,0,1,2.31-2.4A2,2,0,0,1,402.47,630.62Zm-2.7-4.41c-.75,0-.9-.15-.93-.9l-.21-7.59c-.06-1.8-.27-5.82-.27-6.42s.18-.63.84-.63h2.1c.66,0,.84.12.84.63s-.21,4.62-.27,6.6l-.18,7.41c0,.75-.18.9-.93.9Z"/><path class="cls-1" d="M161.27,669.51c0,1.74.09,5,.09,5.25,0,.63-.18.75-.87.75h-1.92c-.69,0-.87-.12-.87-.75,0-.21.09-3.51.09-5.25v-9.24c0-1.74-.09-5-.09-5.25,0-.63.18-.75.87-.75h1.92c.69,0,.87.12.87.75,0,.21-.09,3.51-.09,5.25v1.47c0,.75.15.9.9.9h8.73c.75,0,.9-.15.9-.9v-1.47c0-1.74-.09-5-.09-5.25,0-.63.18-.75.87-.75h1.92c.69,0,.87.12.87.75,0,.21-.09,3.51-.09,5.25v9.24c0,1.74.09,5,.09,5.25,0,.63-.18.75-.87.75h-1.92c-.69,0-.87-.12-.87-.75,0-.21.09-3.51.09-5.25v-2.76c0-.75-.15-.9-.9-.9h-8.73c-.75,0-.9.15-.9.9Z"/><path class="cls-1" d="M200.09,664.62c0,7-5,11.07-10.77,11.07-6.51,0-10.23-5-10.23-10.65,0-6.63,4.47-10.95,10.71-10.95C196.34,654.09,200.09,659,200.09,664.62Zm-17.4.45c0,4,2.46,7.32,6.75,7.32,3.9,0,7.05-2.85,7.05-7.59,0-4-2.49-7.26-6.78-7.26S182.69,660.75,182.69,665.07Z"/><path class="cls-1" d="M207.38,669.51c0,1.74.09,5,.09,5.25,0,.63-.18.75-.87.75h-1.92c-.69,0-.87-.12-.87-.75,0-.21.09-3.51.09-5.25v-9.24c0-1.74-.09-5-.09-5.25,0-.63.18-.75.87-.75h1.92c.69,0,.87.12.87.75,0,.21-.09,3.51-.09,5.25v1.47c0,.75.15.9.9.9H217c.75,0,.9-.15.9-.9v-1.47c0-1.74-.09-5-.09-5.25,0-.63.18-.75.87-.75h1.92c.69,0,.87.12.87.75,0,.21-.09,3.51-.09,5.25v9.24c0,1.74.09,5,.09,5.25,0,.63-.18.75-.87.75h-1.92c-.69,0-.87-.12-.87-.75,0-.21.09-3.51.09-5.25v-2.76c0-.75-.15-.9-.9-.9h-8.73c-.75,0-.9.15-.9.9Z"/><path class="cls-1" d="M246.2,664.62c0,7-5,11.07-10.77,11.07-6.51,0-10.23-5-10.23-10.65,0-6.63,4.47-10.95,10.71-10.95C242.45,654.09,246.2,659,246.2,664.62Zm-17.4.45c0,4,2.46,7.32,6.75,7.32,3.9,0,7-2.85,7-7.59,0-4-2.49-7.26-6.78-7.26S228.8,660.75,228.8,665.07Z"/><path class="cls-1" d="M265.19,667.23a2.31,2.31,0,0,1-.3.75,62.73,62.73,0,0,1-4.77,7.65,1.7,1.7,0,0,0-.39.81c0,.09,0,.27,0,.42s-.09.39-.33.39-1.32-1-1.56-1.23-1-.78-1-1.11.27-.48.39-.63a53.8,53.8,0,0,0,5.37-8.46c.12-.24.21-.45.48-.45S265.19,666.66,265.19,667.23Zm-3.3-7.62c.36.27,1.62,1.17,1.62,1.62s-1.14,1.95-1.74,1.95c-.24,0-.57-.27-1-.6-1.08-.84-2.19-1.68-3.33-2.46-.18-.12-.45-.27-.45-.54,0-.54,1.11-2,1.65-2A14.84,14.84,0,0,1,261.89,659.61Zm1.95-2.7c-.3,0-.6-.3-.84-.48-1.14-.87-2.28-1.74-3.48-2.52-.21-.12-.57-.33-.57-.63,0-.51,1.17-2.07,1.74-2.07a13.14,13.14,0,0,1,2.73,1.71c.42.3,2.16,1.5,2.16,2S264.47,656.91,263.84,656.91Zm12.21,4.83c0,.6.27.84.84.84h2.55c1.14,0,2.25-.06,3.39-.06.78,0,.75.39.75,1.47s0,1.47-.75,1.47c-1.14,0-2.25-.06-3.39-.06h-2.55c-.57,0-.84.24-.84.84v5.94c0,1.5.09,3,.09,4.53,0,1-.33,1-1.62,1s-1.62,0-1.62-1c0-1.5.09-3,.09-4.53v-5.94c0-.6-.24-.84-.84-.84H269.9c-1.11,0-2.25.06-3.36.06-.78,0-.75-.36-.75-1.47s0-1.47.75-1.47c1.14,0,2.25.06,3.36.06h2.25c.6,0,.84-.24.84-.84v-6c0-.57-.24-.81-.84-.81h-.78c-1.14,0-2.28.06-3.42.06-.75,0-.75-.39-.75-1.5s0-1.5.75-1.5c1.14,0,2.28.09,3.42.09H278c1.14,0,2.28-.09,3.39-.09.81,0,.78.39.78,1.5s0,1.5-.78,1.5c-1.14,0-2.25-.06-3.39-.06h-1.11c-.57,0-.84.24-.84.81Z"/><ellipse class="cls-2" cx="191.63" cy="460.87" rx="111.49" ry="26.85"/><path class="cls-3" d="M81,392c-3,9.19,2.71,18.73,8.17,26.71q7.6,11.16,15.23,22.3c2.91,4.26,5.89,8.59,10,11.72,8.08,6.14,28.53-1.64,38.68-1.45l2.51-.5c-1.35-6.92-.42-14.69,4.4-18.48l2-.75a26.08,26.08,0,0,1,6.39-10.11l.55-2.21c-1.2-.29-2.45-.62-3.8-1-5.54-1.48-11.09-3.82-14.85-8.14s-5.22-11-2.18-15.89a11.23,11.23,0,0,1,2.58-2.86l-.33-.45c-9.13-8.07-13.63-24-12.66-36.12s6-23.57,11.7-34.31c.63-1.2,1.29-2.39,2-3.58l-.78-.44L137.58,314c-1.4-.26-3-.5-4.19.24a5.68,5.68,0,0,0-2.15,3.54c-1.52,5.28-2.16,11-5.47,15.42-3.46,4.57-9.2,6.79-13.39,10.71-8.13,7.6-9.24,20.19-15.93,29.08C91.51,379.6,83.53,384.14,81,392Z"/><path class="cls-4" d="M137.65,354.74c-1,12.14,3.53,28.05,12.66,36.12l.33.45c4.13-3.22,10.43-3.66,15.84-2.71,6.26,1.1,12.44,3.49,18.72,3.15-4.93-6.05-3.91-14.85-2.32-22.49a289.55,289.55,0,0,1,11.24-39.45c1.37-4.27,2.22-7.3,4.62-10.72,7.28-10.38,5.91-25.89-2.93-34.94-1.55-.46-3.09-.85-4.6-1.16-8.85,1.29-17.12,5.94-23.7,12.09s-11.76,13.82-16.2,21.77c-.67,1.19-1.33,2.38-2,3.58C143.63,331.17,138.63,342.61,137.65,354.74Z"/><path class="cls-5" d="M148.06,394.17c-3,4.85-1.58,11.57,2.18,15.89s9.31,6.66,14.85,8.14c1.35.37,2.6.7,3.8,1a45.5,45.5,0,0,0,15.88,1.37s21.46-4.31,8.37-22.24c-2.67-3.65-6-4.18-7.94-6.57-6.28.34-12.46-2.05-18.72-3.15-5.41-1-11.71-.51-15.84,2.71A11.23,11.23,0,0,0,148.06,394.17Z"/><path class="cls-6" d="M290.44,450.94a30,30,0,0,0-3.38-4.21,22.46,22.46,0,0,0-18.74-6.38,15.57,15.57,0,0,1-2.43,1.58c-3.21,1.69-6.94,2-10.56,2.29A235.9,235.9,0,0,1,162,431.51l-2,.75c-4.82,3.79-5.75,11.56-4.4,18.48a27.09,27.09,0,0,0,2.7,7.74q61.83,6.84,123.91,10.94a10.63,10.63,0,0,0,9.9-15.86C291.56,452.65,291,451.78,290.44,450.94Z"/><path class="cls-3" d="M173.54,170.56c-7.88,1.47-14.16,9.81-12.35,17.6s12.26,12.27,18.64,7.61c-1.47-4.18.67-9.11,4.13-12a24.3,24.3,0,0,1,9.41-4.43,18.17,18.17,0,0,0-12.8-8.85A19.55,19.55,0,0,0,173.54,170.56Z"/><path class="cls-4" d="M268.32,440.35a32.54,32.54,0,0,0,4.9-5.05c5.5-6.71,6.78-13.18,8.92-22.37-1.16-.09-2.32-.2-3.47-.31a573.16,573.16,0,0,1-85.53-14.3c13.09,17.93-8.37,22.24-8.37,22.24a45.5,45.5,0,0,1-15.88-1.37l-.55,2.21A26.08,26.08,0,0,0,162,431.51a235.9,235.9,0,0,0,93.38,12.71c3.62-.25,7.35-.6,10.56-2.29A15.57,15.57,0,0,0,268.32,440.35Z"/><path class="cls-5" d="M276.35,254.27h0a31.55,31.55,0,0,0,12.75,2.49,25.58,25.58,0,0,0,3.71-.34,18.41,18.41,0,0,0,6.77-2.36c6.86-4.14,9.52-13.11,8.43-21s-5.2-15.08-9.32-21.94v-.54c-34.58-.23-69.23-3.62-103.69-7a48.35,48.35,0,0,1-5.24-.77c1.45,7.59-.56,15.54-7.08,19.67-1.51,1-3.27,1.49-4.71,2.53-3.73,2.69-4.37,8.32-2.39,12.46s6,7,10.15,8.9c4,1.82,8.36,6.28,9.74,10.44l.62.3c5-4.23,12.59-5.53,19.77-5.41,1.1,0,2.2.07,3.28.16C238.45,252.66,257.18,251.43,276.35,254.27ZM245.64,223a2.32,2.32,0,0,1,0-3.29,2.74,2.74,0,0,1,3.41-.1,1.73,1.73,0,0,1-.36,2.72A2,2,0,0,1,245.64,223Z"/><path class="cls-3" d="M359.61,185c-3.14-.6-6.82-.7-10.6-1.67-50.07-10.13-102.18-15.87-152-4.78-1.19.26-2.4.55-3.59.86a24.3,24.3,0,0,0-9.41,4.43c-3.46,2.87-5.6,7.8-4.13,12a4.8,4.8,0,0,0,.24.63c1.68,3.73,5.54,5.46,9.71,6.36a48.35,48.35,0,0,0,5.24.77c34.46,3.4,69.11,6.79,103.69,7,14.69.12,29.37-.35,44-1.63,1.2-.09,2.39-.2,3.59-.32,5.92-.57,12.18-1.41,16.81-5.14s6.63-11.36,2.53-15.67A10.74,10.74,0,0,0,359.61,185Z"/><path class="cls-4" d="M196.23,126.67c-12.14,10.71-19.42,27.76-15.61,43.5l-.05.34a18.17,18.17,0,0,1,12.8,8.85c1.19-.31,2.4-.6,3.59-.86,49.87-11.09,102-5.35,152,4.78,3.78,1,7.46,1.07,10.6,1.67,1.73-16.29-8.51-31.52-20.48-42.69a127.14,127.14,0,0,0-98.42-33C224.61,110.88,208.36,116,196.23,126.67Z"/><path class="cls-4" d="M194.12,329.81a289.55,289.55,0,0,0-11.24,39.45c-1.59,7.64-2.61,16.44,2.32,22.49,2,2.39,5.27,2.92,7.94,6.57a573.16,573.16,0,0,0,85.53,14.3c1.15.11,2.31.22,3.47.31,6.47.49,13.06.5,19-1.94,5.26-2.15,9.56-6,13.07-10.54a56.49,56.49,0,0,0,3.4-4.91c15.49-24.91,12-61.94-6.08-85l-.73-.64-4.15,4.65a18.91,18.91,0,0,1-4.39,4c-2.56,1.46-5.63,1.63-8.57,1.77-3.93.17-7.85.36-11.78.54l.12,2.47c.54,5.66-1.72,12.62-7.3,13.65a7.36,7.36,0,0,1-7.52-3.47c-1.47-2.55-.34-8.57,1.57-10.8l-.06-1.25-5.24.24c-4.4.2-9,.38-13-1.3s-7.06-4.91-10.22-7.87a96.51,96.51,0,0,0-19.53-14.2c-7.5-4.12-15.68-7.34-21.94-13.17-1-.35-2-.69-3-1,8.84,9.05,10.21,24.56,2.93,34.94C196.34,322.51,195.49,325.54,194.12,329.81ZM281.48,368c-5.14-.93-8.07-7.38-6.16-12.25,5.38-1.52,11.2-2.5,13.91,2.39C291.77,362.67,286.62,368.89,281.48,368Zm-3.8,28.44c-2.82-3.13-.75-9.09,3.13-9.9,2.37-.89,7.69,0,8.81,1.65a6.22,6.22,0,0,1-.09,6.48C287.21,398.67,280.8,399.87,277.68,396.4Z"/><path class="cls-3" d="M219.16,251.81c-1.09,0-2.19-.1-3.28-.16-7.18-.12-14.78,1.18-19.77,5.41a15.17,15.17,0,0,0-3.87,5c-3.69,7.71.26,17.24,6.53,23.07s14.44,9.05,21.94,13.17a96.51,96.51,0,0,1,19.53,14.2c3.16,3,6.22,6.21,10.22,7.87s8.65,1.5,13,1.3l5.24-.24,13.19-.6c3.93-.18,7.85-.37,11.78-.54,2.94-.14,6-.31,8.57-1.77a18.91,18.91,0,0,0,4.39-4l4.15-4.65c2.46-2.78,4.94-5.56,7.41-8.34l20.61-23.15c4.85-5.43,10-12.67,7.1-19.34-2.1-4.79-7.28-7.2-12.75-7.68a23.89,23.89,0,0,0-7.94.65c-10.37,2.7-10.12,5.1-32.38,4.74l-.05-.34a25.58,25.58,0,0,1-3.71.34,31.55,31.55,0,0,1-12.75-2.49h0C257.18,251.43,238.45,252.66,219.16,251.81Z"/><path class="cls-5" d="M245.67,219.69a2.32,2.32,0,0,0,0,3.29,2,2,0,0,0,3.08-.67,1.73,1.73,0,0,0,.36-2.72A2.74,2.74,0,0,0,245.67,219.69Z"/><path class="cls-7" d="M268.81,322.68c-1.91,2.23-3,8.25-1.57,10.8a7.36,7.36,0,0,0,7.52,3.47c5.58-1,7.84-8,7.3-13.65l-.12-2.47-13.19.6Z"/><path class="cls-4" d="M321.93,409.87a3.91,3.91,0,0,0-.67-2.12c-1-1.7-4.22-3.11-6.43-5.37v-1.46l-.59-.47c-3.51,4.51-7.81,8.39-13.07,10.54-6,2.44-12.56,2.43-19,1.94-2.14,9.19-3.42,15.66-8.92,22.37a32.54,32.54,0,0,1-4.9,5.05,22.79,22.79,0,0,1,15.32,3.58l1.44-2.07a356.22,356.22,0,0,0,28.33-25c.86-.84,8.46-5.74,8.52-6.94Z"/><path class="cls-7" d="M275.32,355.71c-1.91,4.87,1,11.32,6.16,12.25s10.29-5.29,7.75-9.86C286.52,353.21,280.7,354.19,275.32,355.71Z"/><path class="cls-7" d="M280.81,386.5c-3.88.81-5.95,6.77-3.13,9.9,3.12,3.47,9.53,2.27,11.85-1.77a6.22,6.22,0,0,0,.09-6.48C288.5,386.49,283.18,385.61,280.81,386.5Z"/><path class="cls-6" d="M285.08,441.86l-1.44,2.07a23,23,0,0,1,3.42,2.8,30,30,0,0,1,3.38,4.21c17.56-10.92,40.08-13.6,52.42-30.21a2.33,2.33,0,0,0,.53-1,2.11,2.11,0,0,0-.38-1.34c-2.56-4.44-12-11.94-16.85-10.42a19,19,0,0,0-4.23,1.92h0c-.06,1.2-7.66,6.1-8.52,6.94A356.22,356.22,0,0,1,285.08,441.86Z"/><path class="cls-5" d="M292.83,256.42l.05.34c22.26.36,22-2,32.38-4.74a23.89,23.89,0,0,1,7.94-.65l.07-.69q4.78-20.18,9.59-40.32l-.13-1.44c-14.65,1.28-29.33,1.75-44,1.63v.54c4.12,6.86,8.24,14,9.32,21.94s-1.57,16.89-8.43,21A18.41,18.41,0,0,1,292.83,256.42Zm29.27-30.56c-1.44-.36-2-2.63-.77-3.42.4-.58,2.71-1.36,3.24-.9a2.15,2.15,0,0,1,.62,1.92A2.73,2.73,0,0,1,322.1,225.86Z"/><path class="cls-4" d="M318.24,301.54c-2.47,2.78-4.95,5.56-7.41,8.34l.73.64c18.12,23.08,21.57,60.11,6.08,85a56.49,56.49,0,0,1-3.4,4.91l.59.47c13.79-3.42,22.66-17.74,24.26-31.86s-2.57-28.19-6.67-41.8a68.3,68.3,0,0,0-13.39-25Z"/><path class="cls-5" d="M321.33,222.44c-1.24.79-.67,3.06.77,3.42a2.73,2.73,0,0,0,3.09-2.4,2.15,2.15,0,0,0-.62-1.92C324,221.08,321.73,221.86,321.33,222.44Z"/><path class="cls-8" d="M349,183.28c-50.07-10.13-102.18-15.87-152-4.78-1.19.26-2.4.55-3.59.86a24.3,24.3,0,0,0-9.41,4.43c-3.46,2.87-5.6,7.8-4.13,12a4.8,4.8,0,0,0,.24.63c1.68,3.73,5.54,5.46,9.71,6.36a48.35,48.35,0,0,0,5.24.77c34.46,3.4,69.11,6.79,103.69,7,14.69.12,29.37-.35,44-1.63,1.2-.09,2.39-.2,3.59-.32,5.92-.57,12.18-1.41,16.81-5.14s6.63-11.36,2.53-15.67a10.74,10.74,0,0,0-6.05-2.84c-3.14-.6-6.82-.7-10.6-1.67"/><path class="cls-8" d="M359.61,185v0c1.73-16.29-8.51-31.52-20.48-42.69a127.14,127.14,0,0,0-98.42-33c-16.1,1.66-32.35,6.74-44.48,17.45s-19.42,27.76-15.61,43.5"/><path class="cls-8" d="M193.37,179.36a18.17,18.17,0,0,0-12.8-8.85,19.55,19.55,0,0,0-7,.05c-7.88,1.47-14.16,9.81-12.35,17.6s12.26,12.27,18.64,7.61a.91.91,0,0,1,.16-.11"/><path class="cls-8" d="M276.35,254.27a32.42,32.42,0,0,1-15.16-12.88"/><path class="cls-8" d="M298.71,211.09c4.12,6.86,8.24,14,9.32,21.94s-1.57,16.89-8.43,21a18.41,18.41,0,0,1-6.77,2.36,25.58,25.58,0,0,1-3.71.34,31.55,31.55,0,0,1-12.75-2.49"/><path class="cls-8" d="M215.88,251.65c1.09.06,2.19.12,3.28.16,19.29.85,38-.38,57.19,2.46h0"/><path class="cls-8" d="M219.78,251.86l-.62-.05c-1.08-.09-2.18-.14-3.28-.16-7.18-.12-14.78,1.18-19.77,5.41a15.17,15.17,0,0,0-3.87,5c-3.69,7.71.26,17.24,6.53,23.07s14.44,9.05,21.94,13.17a96.51,96.51,0,0,1,19.53,14.2c3.16,3,6.22,6.21,10.22,7.87s8.65,1.5,13,1.3l5.24-.24,13.19-.6c3.93-.18,7.85-.37,11.78-.54,2.94-.14,6-.31,8.57-1.77a18.91,18.91,0,0,0,4.39-4l4.15-4.65c2.46-2.78,4.94-5.56,7.41-8.34l20.61-23.15c4.85-5.43,10-12.67,7.1-19.34-2.1-4.79-7.28-7.2-12.75-7.68a23.89,23.89,0,0,0-7.94.65c-10.37,2.7-10.12,5.1-32.38,4.74"/><path class="cls-8" d="M342.86,210.36q-4.78,20.14-9.59,40.32"/><path class="cls-8" d="M189.78,202.76c1.45,7.59-.56,15.54-7.08,19.67-1.51,1-3.27,1.49-4.71,2.53-3.73,2.69-4.37,8.32-2.39,12.46s6,7,10.15,8.9c4,1.82,8.36,6.28,9.74,10.44"/><path class="cls-8" d="M282.06,323.3c.54,5.66-1.72,12.62-7.3,13.65a7.36,7.36,0,0,1-7.52-3.47c-1.47-2.55-.34-8.57,1.57-10.8"/><path class="cls-8" d="M275.32,355.71c-1.91,4.87,1,11.32,6.16,12.25s10.29-5.29,7.75-9.86C286.52,353.21,280.7,354.19,275.32,355.71Z"/><path class="cls-8" d="M280.81,386.5a2.41,2.41,0,0,0-.81.48"/><path class="cls-8" d="M280.81,386.5c-3.88.81-5.95,6.77-3.13,9.9,3.12,3.47,9.53,2.27,11.85-1.77a6.22,6.22,0,0,0,.09-6.48C288.5,386.49,283.18,385.61,280.81,386.5Z"/><path class="cls-8" d="M282,386.41a4.52,4.52,0,0,0-1.23.09"/><path class="cls-8" d="M311.56,310.52c18.12,23.08,21.57,60.11,6.08,85a56.49,56.49,0,0,1-3.4,4.91c-3.51,4.51-7.81,8.39-13.07,10.54-6,2.44-12.56,2.43-19,1.94-1.16-.09-2.32-.2-3.47-.31a573.16,573.16,0,0,1-85.53-14.3"/><path class="cls-8" d="M195.49,282.63a33.84,33.84,0,0,0-4.28.36c-8.85,1.29-17.12,5.94-23.7,12.09s-11.76,13.82-16.2,21.77c-.67,1.19-1.33,2.38-2,3.58-5.72,10.74-10.72,22.18-11.7,34.31s3.53,28.05,12.66,36.12"/><path class="cls-8" d="M319,302.25a68.3,68.3,0,0,1,13.39,25c4.1,13.61,8.26,27.68,6.67,41.8s-10.47,28.44-24.26,31.86"/><path class="cls-8" d="M186.59,391.63c-.47.06-.93.1-1.39.12-6.28.34-12.46-2.05-18.72-3.15-5.41-1-11.71-.51-15.84,2.71a11.23,11.23,0,0,0-2.58,2.86c-3,4.85-1.58,11.57,2.18,15.89s9.31,6.66,14.85,8.14c1.35.37,2.6.7,3.8,1a45.5,45.5,0,0,0,15.88,1.37s21.46-4.31,8.37-22.24c-2.67-3.65-6-4.18-7.94-6.57-4.93-6.05-3.91-14.85-2.32-22.49a289.55,289.55,0,0,1,11.24-39.45c.17-.46.34-.91.5-1.36"/><path class="cls-8" d="M321.33,222.44c-1.24.79-.67,3.06.77,3.42a2.73,2.73,0,0,0,3.09-2.4,2.15,2.15,0,0,0-.62-1.92C324,221.08,321.73,221.86,321.33,222.44Z"/><path class="cls-8" d="M248.72,222.31a1.73,1.73,0,0,0,.36-2.72,2.74,2.74,0,0,0-3.41.1,2.32,2.32,0,0,0,0,3.29A2,2,0,0,0,248.72,222.31Z"/><path class="cls-8" d="M198.77,285.13c-1-.35-2-.69-3-1-1.55-.46-3.09-.85-4.6-1.16-8.9-1.82-17.44-1-26.73,1.89-11.9,3.77-23.91,19.19-31.09,29.4"/><path class="cls-8" d="M150.53,316.41,137.58,314c-1.4-.26-3-.5-4.19.24a5.68,5.68,0,0,0-2.15,3.54c-1.52,5.28-2.16,11-5.47,15.42-3.46,4.57-9.2,6.79-13.39,10.71-8.13,7.6-9.24,20.19-15.93,29.08C91.51,379.6,83.53,384.14,81,392c-3,9.19,2.71,18.73,8.17,26.71q7.6,11.16,15.23,22.3c2.91,4.26,5.89,8.59,10,11.72,8.08,6.14,28.53-1.64,38.68-1.45"/><path class="cls-8" d="M195.1,283.45c.25.23.48.47.71.7,8.84,9.05,10.21,24.56,2.93,34.94-2.4,3.42-3.25,6.45-4.62,10.72"/><path class="cls-8" d="M168.92,420.84c-.2.19-.4.37-.58.56A26.08,26.08,0,0,0,162,431.51a235.9,235.9,0,0,0,93.38,12.71c3.62-.25,7.35-.6,10.56-2.29a15.57,15.57,0,0,0,2.43-1.58,32.54,32.54,0,0,0,4.9-5.05c5.5-6.71,6.78-13.18,8.92-22.37"/><path class="cls-8" d="M160,432.26c-4.82,3.79-5.75,11.56-4.4,18.48a27.09,27.09,0,0,0,2.7,7.74q61.83,6.84,123.91,10.94a10.63,10.63,0,0,0,9.9-15.86c-.51-.91-1.06-1.78-1.63-2.62a30,30,0,0,0-3.38-4.21,22.46,22.46,0,0,0-18.74-6.38,18.09,18.09,0,0,0-1.93.33"/><path class="cls-8" d="M314.83,402.38c2.21,2.26,5.4,3.67,6.43,5.37a3.91,3.91,0,0,1,.67,2.12h0c-.06,1.2-7.66,6.1-8.52,6.94a356.22,356.22,0,0,1-28.33,25"/><path class="cls-8" d="M289.91,451.28c.17-.12.35-.23.53-.34,17.56-10.92,40.08-13.6,52.42-30.21a2.33,2.33,0,0,0,.53-1,2.11,2.11,0,0,0-.38-1.34c-2.56-4.44-12-11.94-16.85-10.42a19,19,0,0,0-4.23,1.92,49.13,49.13,0,0,0-8.31,6.69"/><path class="cls-9" d="M160.26,214.36A25.79,25.79,0,0,0,148,208.05a11.61,11.61,0,0,0-7.19.42c-2.21,1-3.91,3.47-3.42,5.86.51,2.55,3.22,4.13,5.81,4.33s5.12-.64,7.65-1.22a41.08,41.08,0,0,1,11.59-1l-3.55-2.18"/><path class="cls-1" d="M162,212.63a28.85,28.85,0,0,0-10.77-6.26c-4-1.26-9-2-12.62.54-3.34,2.29-5,6.9-2.54,10.45s7.09,4.16,11.16,3.43c2.51-.45,4.94-1.24,7.47-1.6a40,40,0,0,1,7.73-.3c2.52.13,3.22-3.35,1.24-4.56l-3.55-2.18c-2.69-1.66-5.15,2.57-2.47,4.22l3.55,2.18,1.23-4.56a48.12,48.12,0,0,0-14,1.52c-1.89.47-4,1.06-5.91.56-1.16-.3-2.65-1.08-2.75-2.42s1.2-2.64,2.4-3.1a10,10,0,0,1,5.8,0,23.56,23.56,0,0,1,10.6,5.54c2.32,2.12,5.8-1.33,3.46-3.46Z"/><path class="cls-9" d="M159.34,227.54a11.78,11.78,0,0,0-13,6.9,4.76,4.76,0,0,0-.21,3.64c.77,1.7,2.88,2.25,4.73,2.52a5.89,5.89,0,0,0,3.36-.2,5,5,0,0,0,2-2.23c2.08-3.87,2.21-9,5.61-11.76"/><path class="cls-1" d="M160,225.18a14.22,14.22,0,0,0-10.06,1.69,13.21,13.21,0,0,0-6.32,8.21,6,6,0,0,0,1.77,5.94,9.49,9.49,0,0,0,4.85,1.94c2.35.35,4.65.34,6.52-1.35a12.17,12.17,0,0,0,2.82-4.84c.61-1.64,1.05-3.33,1.66-5,.07-.21.16-.42.24-.63-.16.4.05-.1.1-.22a12.91,12.91,0,0,1,.62-1.16c.07-.12.15-.24.23-.36s.16-.24.25-.35c-.17.21-.16.2,0,0a10.21,10.21,0,0,1,.94-.92,2.45,2.45,0,0,0-3.46-3.47c-2.24,1.9-3.34,4.7-4.21,7.42-.41,1.27-.8,2.55-1.28,3.79-.26.67.12-.25-.06.14-.06.14-.12.28-.19.41a9.93,9.93,0,0,1-.49.91c-.08.14-.17.27-.26.4.21-.29,0,0-.06.07l-.33.33c.31-.27-.22.11-.29.13.31-.12-.12,0-.15,0,.37,0-.07,0-.12,0a9.48,9.48,0,0,1-1.19,0c-.47-.05.46.08-.22,0l-.43-.07c-.37-.07-.73-.15-1.09-.25-.15,0-.88-.31-.45-.12a6.79,6.79,0,0,1-.75-.41c.36.22.1.09,0,0s-.39-.51-.21-.22-.1-.31,0,0a.88.88,0,0,1-.06-.18,3.34,3.34,0,0,1,.4-1.84c-.18.44.13-.26.21-.4a8.82,8.82,0,0,1,.56-.93l.24-.36c-.26.38,0,0,.09-.1s.38-.44.58-.64a9.07,9.07,0,0,1,.72-.67l.33-.28c-.39.32.17-.11.21-.14a13.57,13.57,0,0,1,1.89-1.08c.09,0,.44-.16,0,0l.62-.23c.34-.11.69-.21,1-.29l.43-.09c.06,0,.65-.11.32-.06s.33,0,.32,0l.54,0a9.92,9.92,0,0,1,1.09,0c.13,0,.61.07.1,0l.65.12a2.45,2.45,0,1,0,1.3-4.72Z"/></g></g></svg>