<svg xmlns="http://www.w3.org/2000/svg" viewBox="0 0 199.99 343.51"><defs><style>.cls-1{fill:#e9f5f7;}.cls-2{fill:#d51359;}.cls-3{fill:#fbede7;}.cls-4{fill:#2e0e04;}.cls-5{fill:#231815;}.cls-6{fill:#065c3f;}.cls-7{fill:none;stroke:#231815;stroke-miterlimit:10;stroke-width:5px;}</style></defs><g id="レイヤー_2" data-name="レイヤー 2"><g id="レイヤー_1-2" data-name="レイヤー 1"><path class="cls-1" d="M12.09,77C3.09,76.41-.66,90.48,5.61,97c5.58,5.77,14.56,6.2,22.53,4.29-1.28-4.37.54-9.19,3.8-12.66l-1.16,0a11.88,11.88,0,0,1-2.92-1.22l-.1,0-.15-.09a23.09,23.09,0,0,1-7-5.74C18.05,79.2,15.4,77.25,12.09,77Z"/><path class="cls-2" d="M194,87.19v-.83C191.31,52,166.7,20.8,134.47,8.6S64,3,36.7,24C26.16,32.1,16.78,42.87,14.28,55.93a31.68,31.68,0,0,0,6.33,25.52c2.27,2,4.47,4.25,7,5.74l.15.09.1,0a22.75,22.75,0,0,0,2.92,1.22l1.16,0a16.63,16.63,0,0,1,3.95-3.11c5.93-3.32,13.11-2.69,19.85-3.55,49-6.2,98.81-3.91,138.2,5.55C194.7,87.4,195.54,87.33,194,87.19Z"/><path class="cls-3" d="M27.27,123.41c-4.29,6.64-7.13,17.44,0,20.81,3.78,1.78,8.46.07,12.34,1.63a27.83,27.83,0,0,1,8,4.41,10.92,10.92,0,0,0,2.46,1.28,6.54,6.54,0,0,1,2.14.73,44.47,44.47,0,0,0,10.61,1.84c18.46,0,32.67,1.5,53.12,10.23a27.79,27.79,0,0,0,8,2l.65-13.19A33.45,33.45,0,0,1,98.36,138l-6.74-13a3.19,3.19,0,1,1-1.79-6l.33,0,.3-15.19-60.08-1.2C35.59,107.72,31.4,117,27.27,123.41Z"/><path class="cls-1" d="M30.38,102.59l60.08,1.2,35.93.72,34.46.69c10.74.21,17.1-.27,22.48-3.61,4.13-2.56,7.69-6.81,12.22-13.73-3.27-.21-2.5-.3-1.61-.39C154.55,78,104.71,75.72,55.74,81.92c-6.74.86-13.92.23-19.85,3.55a16.63,16.63,0,0,0-3.95,3.11c-3.26,3.47-5.08,8.29-3.8,12.66a10.86,10.86,0,0,0,.48,1.31Z"/><path class="cls-1" d="M175.88,137.94c-.14-.12-.28-.22-.43-.33-8,10.24-16.75,21-29,25.34-7,2.49-15,4.22-22.42,3.42a27.79,27.79,0,0,1-8-2c-20.45-8.73-34.66-10.19-53.12-10.23a44.47,44.47,0,0,1-10.61-1.84c-.76-.23-1.48-.47-2.14-.73-7.08-1.16-16.48,8.24-13.14,14.76A16.4,16.4,0,0,0,42.66,172c8.53,5.8,18.38,9,28.34,11.94s20.11,5.8,29.12,10.93c9.86,5.61,18.34,14,29.21,17.24a35.46,35.46,0,0,0,14.41,1.18,42.79,42.79,0,0,0,22-9.53c10-8.28,16.15-20.55,18.65-33.27C186.65,158.88,185.21,145.08,175.88,137.94Z"/><path class="cls-2" d="M131.16,246.06l1,.19a154.86,154.86,0,0,0,4.66,18.49,4.26,4.26,0,0,0,.82,1.68c1,1.11,2.81.86,4.29.52a3.46,3.46,0,0,0,1.23-.47,1.26,1.26,0,0,0,.31-.3,2.51,2.51,0,0,0,.31-1.51c-.16-14.69.16-34.66,0-49.35l0-2a35.46,35.46,0,0,1-14.41-1.18c-10.87-3.27-19.35-11.63-29.21-17.24-9-5.13-19.12-7.94-29.12-10.93l-1,3.24c-6.29,6.29-8.49,15.65-9.92,24.49a268.58,268.58,0,0,0-3.45,41.52c0,2.91,0,5.9,1.18,8.58,2.17,5.11,7.38,7.52,13,8.73l-.48,2.18a25.39,25.39,0,0,0-2.2,11.17,4.69,4.69,0,0,0,.59,2.48c.74,1.14,2.2,1.51,3.53,1.79l5.69,1.2v1.11l20.62.11,4.28,0a20.2,20.2,0,0,0,6.26-.61,11.52,11.52,0,0,0,2.93-1.42c2.71-1.81,4.76-4.68,6.45-7.53C125,270.27,128.66,258.35,131.16,246.06ZM93.72,257.18a11,11,0,0,1,8.91,1.57c2.52,1.92,3.77,5.63,2.31,8.45-1.28,2.49-4.27,3.72-7.07,3.71s-5.49-1-8.11-2.06l-.17-.15C92.19,265.83,93.19,261.34,93.72,257.18Zm11.5-14a3.2,3.2,0,0,1-.6-2.45,6.23,6.23,0,0,1,6.87-5.28l.76.63a3.13,3.13,0,0,1,1.84,1.56,5,5,0,0,1,.6,4.77,4.4,4.4,0,0,1-3.31,2.18,10.28,10.28,0,0,1-4.08-.39A4,4,0,0,1,105.22,243.14ZM106.89,222a5.91,5.91,0,0,1,1.67-4.6,4.56,4.56,0,0,1,4.65-1.07l.6.61a4.91,4.91,0,0,1,.61,6.05,4.75,4.75,0,0,1-5.85,1.54,3,3,0,0,1-1.42-1.35A3.67,3.67,0,0,1,106.89,222Z"/><path class="cls-4" d="M59.76,310.31l0,14.84a23.13,23.13,0,0,0,.42,5.39,1.92,1.92,0,0,0,.57,1.11A2.06,2.06,0,0,0,62,332l5.25.26c2,.1,4.16.12,5.65-1.17a6,6,0,0,0,1.76-3.73,17.68,17.68,0,0,0-.48-6.94c-.82-3.36-2.25-6.69-3.14-10a8,8,0,0,1-.24-4.2,2.19,2.19,0,0,1,.12-.33,42.79,42.79,0,0,0-9.19,1.77,2.84,2.84,0,0,0-1.52.85A3,3,0,0,0,59.76,310.31Z"/><path class="cls-2" d="M103.64,321.22a36.4,36.4,0,0,0-.72-6c-.4-2.11-.79-4.22-1.19-6.33q-1.56-8.28-3.11-16.57v-1.76L78,290.42v-1.11l-5.69-1.2-3.83.43a42.29,42.29,0,0,0,2.6,6q2.09,4.2,4.16,8.41,3.6,7.25,7.18,14.5l6.8,13.74a3.66,3.66,0,0,0,.9,1.29,2.45,2.45,0,0,0,1.55.44,8.77,8.77,0,0,0,1.15-.1c2.6-.37,5.33-.79,7.4-2.41C103,328.3,103.73,324.84,103.64,321.22Z"/><path class="cls-2" d="M70.89,305.82a2.19,2.19,0,0,0-.12.33,8,8,0,0,0,.24,4.2c.89,3.36,2.32,6.69,3.14,10l1-.27,5.53-1.79,1.73-.85q-3.59-7.26-7.18-14.5l-1.4.7A3.14,3.14,0,0,0,70.89,305.82Z"/><path class="cls-5" d="M89.83,119a3.16,3.16,0,1,0,.33,0Z"/><path class="cls-4" d="M89.35,333.85c-.77,2.73,1.4,5.59,4.05,6.57s5.6.56,8.38,0c8.15-1.59,16.45-4.28,22.42-10.07,2.64-2.56,4.85-6.31,3.65-9.8a9.14,9.14,0,0,0-4-4.51,15.49,15.49,0,0,0-13-1.92,11.61,11.61,0,0,0-7.17,7.08c.09,3.62-.66,7.08-3.4,9.23-2.07,1.62-4.8,2-7.4,2.41a8.77,8.77,0,0,1-1.15.1Z"/><path class="cls-3" d="M89.59,268.7l.17.15c2.62,1,5.3,2,8.11,2.06s5.79-1.22,7.07-3.71c1.46-2.82.21-6.53-2.31-8.45a11,11,0,0,0-8.91-1.57C93.19,261.34,92.19,265.83,89.59,268.7Z"/><path class="cls-3" d="M90.46,103.79,90.16,119a3.19,3.19,0,0,1,1.46,6l6.74,13a33.45,33.45,0,0,0,26.29,15.15c.55,0,1.09,0,1.64,0,5.81,0,12.08-2,15.24-6.88,2.28-3.53,2.56-8,2.28-12.19-.81-11.75-6.58-24.09-17.44-28.64l0-1Z"/><path class="cls-2" d="M98.63,290.53v1.76q1.55,8.28,3.11,16.57l2.18-.41a73.31,73.31,0,0,0,9.39-18.61l-1.2-1.32a11.52,11.52,0,0,1-2.93,1.42,20.2,20.2,0,0,1-6.26.61Z"/><path class="cls-6" d="M104.62,240.69a3.2,3.2,0,0,0,.6,2.45,4,4,0,0,0,2.08,1,10.28,10.28,0,0,0,4.08.39,4.4,4.4,0,0,0,3.31-2.18,5,5,0,0,0-.6-4.77,3.13,3.13,0,0,0-1.84-1.56l-.76-.63A6.23,6.23,0,0,0,104.62,240.69Z"/><path class="cls-6" d="M108.56,217.37a5.91,5.91,0,0,0-1.67,4.6,3.67,3.67,0,0,0,.26,1.18,3,3,0,0,0,1.42,1.35,4.75,4.75,0,0,0,5.85-1.54,4.91,4.91,0,0,0-.61-6.05l-.6-.61A4.56,4.56,0,0,0,108.56,217.37Z"/><path class="cls-3" d="M124.65,153.18,124,166.37c7.44.8,15.38-.93,22.42-3.42,12.28-4.36,21-15.1,29-25.34.15.11.29.21.43.33q4.77-16.17,9.55-32.37l-2.1-4c-5.38,3.34-11.74,3.82-22.48,3.61l-34.46-.69,0,1c10.86,4.55,16.63,16.89,17.44,28.64.28,4.2,0,8.66-2.28,12.19-3.16,4.88-9.43,6.84-15.24,6.88C125.74,153.22,125.2,153.21,124.65,153.18Zm27.29-33a3.2,3.2,0,1,1,3.51,2.85A3.2,3.2,0,0,1,151.94,120.22Z"/><path class="cls-5" d="M154.8,116.72a3.19,3.19,0,1,0,3.5,2.85A3.2,3.2,0,0,0,154.8,116.72Z"/><path class="cls-1" d="M193.94,87.47c-.89.09-1.66.18,1.61.39Z"/><path class="cls-7" d="M195.55,87.86l-1.61-.39C154.55,78,104.71,75.72,55.74,81.92c-6.74.86-13.92.23-19.85,3.55a16.63,16.63,0,0,0-3.95,3.11c-3.26,3.47-5.08,8.29-3.8,12.66a10.86,10.86,0,0,0,.48,1.31l1.76,0,60.08,1.2,35.93.72,34.46.69c10.74.21,17.1-.27,22.48-3.61,4.13-2.56,7.69-6.81,12.22-13.73-3.27-.21-2.5-.3-1.61-.39s1.6-.14.1-.28c-.36,0-.86-.07-1.54-.12"/><path class="cls-7" d="M27.61,87.19c-2.53-1.49-4.73-3.74-7-5.74-2.56-2.25-5.21-4.2-8.52-4.42C3.09,76.41-.66,90.48,5.61,97c5.58,5.77,14.56,6.2,22.53,4.29,1-.22,1.95-.49,2.89-.79"/><path class="cls-7" d="M27.86,87.33a22.75,22.75,0,0,0,2.92,1.22,11.88,11.88,0,0,1-2.92-1.22"/><path class="cls-7" d="M27.86,87.33l-.1,0-.15-.09"/><path class="cls-7" d="M194.05,86.36C191.31,52,166.7,20.8,134.47,8.6S64,3,36.7,24C26.16,32.1,16.78,42.87,14.28,55.93a31.68,31.68,0,0,0,6.33,25.52,23.09,23.09,0,0,0,7,5.74"/><path class="cls-7" d="M185.43,105.57q-4.78,16.19-9.55,32.37l-.24.83"/><path class="cls-7" d="M126.37,105.51c10.86,4.55,16.63,16.89,17.44,28.64.28,4.2,0,8.66-2.28,12.19-3.16,4.88-9.43,6.84-15.24,6.88-.55,0-1.09,0-1.64,0A33.45,33.45,0,0,1,98.36,138"/><path class="cls-7" d="M29.77,102a8.18,8.18,0,0,1,.61.55c5.21,5.13,1,14.42-3.11,20.82-4.29,6.64-7.13,17.44,0,20.81,3.78,1.78,8.46.07,12.34,1.63a27.83,27.83,0,0,1,8,4.41,10.92,10.92,0,0,0,2.46,1.28c.66.26,1.38.5,2.14.73a44.47,44.47,0,0,0,10.61,1.84c18.46,0,32.67,1.5,53.12,10.23a27.79,27.79,0,0,0,8,2c7.44.8,15.38-.93,22.42-3.42,12.28-4.36,21-15.1,29-25.34.15.11.29.21.43.33,9.33,7.14,10.77,20.94,8.49,32.54-2.5,12.72-8.67,25-18.65,33.27a42.79,42.79,0,0,1-22,9.53,35.46,35.46,0,0,1-14.41-1.18c-10.87-3.27-19.35-11.63-29.21-17.24-9-5.13-19.12-7.94-29.12-10.93S51.19,177.79,42.66,172A16.4,16.4,0,0,1,37,166.3c-3.34-6.52,6.06-15.92,13.14-14.76a6.54,6.54,0,0,1,2.14.73"/><path class="cls-7" d="M77.68,290.42H78l20.62.11,4.28,0a20.2,20.2,0,0,0,6.26-.61,11.52,11.52,0,0,0,2.93-1.42c2.71-1.81,4.76-4.68,6.45-7.53,6.41-10.72,10.11-22.64,12.61-34.93,1.9-9.35,3.09-18.92,4.24-28.35"/><path class="cls-7" d="M70.65,186.57l-.62.6c-6.29,6.29-8.49,15.65-9.92,24.49a268.58,268.58,0,0,0-3.45,41.52c0,2.91,0,5.9,1.18,8.58,2.17,5.11,7.38,7.52,13,8.73a61.39,61.39,0,0,0,7.84,1.06c2.6.21,5.32.39,7.72-.61a8.71,8.71,0,0,0,3.14-2.24c2.6-2.87,3.6-7.36,4.13-11.52,0-.39.1-.78.14-1.17l-14.35-2.36a1.94,1.94,0,0,1-2-2.32,177.85,177.85,0,0,1,.85-25.28"/><path class="cls-7" d="M93.54,257.22l.18,0a11,11,0,0,1,8.91,1.57c2.52,1.92,3.77,5.63,2.31,8.45-1.28,2.49-4.27,3.72-7.07,3.71s-5.49-1-8.11-2.06"/><path class="cls-7" d="M70.71,272l-.3.65a25.39,25.39,0,0,0-2.2,11.17,4.69,4.69,0,0,0,.59,2.48c.74,1.14,2.2,1.51,3.53,1.79l5.69,1.2"/><path class="cls-7" d="M68.5,288.54a42.29,42.29,0,0,0,2.6,6q2.09,4.2,4.16,8.41,3.6,7.25,7.18,14.5l6.8,13.74a3.66,3.66,0,0,0,.9,1.29,2.45,2.45,0,0,0,1.55.44,8.77,8.77,0,0,0,1.15-.1c2.6-.37,5.33-.79,7.4-2.41,2.74-2.15,3.49-5.61,3.4-9.23a36.4,36.4,0,0,0-.72-6c-.4-2.11-.79-4.22-1.19-6.33q-1.56-8.28-3.11-16.57"/><path class="cls-7" d="M103.14,324.28a9.3,9.3,0,0,1,.5-3.06,11.61,11.61,0,0,1,7.17-7.08,15.49,15.49,0,0,1,13,1.92,9.14,9.14,0,0,1,4,4.51c1.2,3.49-1,7.24-3.65,9.8-6,5.79-14.27,8.48-22.42,10.07-2.78.54-5.73,1-8.38,0s-4.82-3.84-4.05-6.57"/><path class="cls-7" d="M113.3,289.84a73.31,73.31,0,0,1-9.39,18.61"/><path class="cls-7" d="M143.77,215.31c.16,14.69-.16,34.66,0,49.35a2.51,2.51,0,0,1-.31,1.51,1.26,1.26,0,0,1-.31.3,3.46,3.46,0,0,1-1.23.47c-1.48.34-3.26.59-4.29-.52a4.26,4.26,0,0,1-.82-1.68,154.86,154.86,0,0,1-4.66-18.49"/><path class="cls-7" d="M143.54,267.22c.9,2.85,2.94,6.83,2.43,9.78s-2.79,5.79-5.78,6a2.11,2.11,0,0,1-1.37-.3,2.66,2.66,0,0,1-.76-1.19c-1.59-4.17-1-10.63-.43-15.06"/><path class="cls-7" d="M113.21,216.3a4.56,4.56,0,0,0-4.65,1.07,5.91,5.91,0,0,0-1.67,4.6,3.67,3.67,0,0,0,.26,1.18,3,3,0,0,0,1.42,1.35,4.75,4.75,0,0,0,5.85-1.54,4.91,4.91,0,0,0-.61-6.05"/><path class="cls-7" d="M111.49,235.41a6.23,6.23,0,0,0-6.87,5.28,3.2,3.2,0,0,0,.6,2.45,4,4,0,0,0,2.08,1,10.28,10.28,0,0,0,4.08.39,4.4,4.4,0,0,0,3.31-2.18,5,5,0,0,0-.6-4.77,3.13,3.13,0,0,0-1.84-1.56"/><path class="cls-7" d="M80.71,318.34l-5.53,1.79"/><path class="cls-7" d="M73.86,303.69a3.14,3.14,0,0,0-3,2.13,2.19,2.19,0,0,0-.12.33,8,8,0,0,0,.24,4.2c.89,3.36,2.32,6.69,3.14,10a17.68,17.68,0,0,1,.48,6.94,6,6,0,0,1-1.76,3.73c-1.49,1.29-3.68,1.27-5.65,1.17L62,332a2.06,2.06,0,0,1-1.25-.33,1.92,1.92,0,0,1-.57-1.11,23.13,23.13,0,0,1-.42-5.39l0-14.84a3,3,0,0,1,.42-1.87,2.84,2.84,0,0,1,1.52-.85,42.79,42.79,0,0,1,9.19-1.77l.87-.06"/></g></g></svg>