<svg xmlns="http://www.w3.org/2000/svg" viewBox="0 0 273.72 344.36"><defs><style>.cls-1{fill:#e9f5f7;}.cls-2{fill:#fbede7;}.cls-3{fill:#d51359;}.cls-4{fill:#2e0e04;}.cls-5{fill:#065c3f;}.cls-6{fill:none;stroke:#231815;stroke-miterlimit:10;stroke-width:5.5px;}</style></defs><g id="レイヤー_2" data-name="レイヤー 2"><g id="レイヤー_1-2" data-name="レイヤー 1"><path class="cls-1" d="M219,243a9.47,9.47,0,0,1,10.66-.11c2.26,1.59,3.68,4.1,5.09,6.48a129.4,129.4,0,0,0,17.35,22.91c7.68,8.09,16.91,16.08,18.6,27.11s-5.44,22.33-15.26,27.84-21.71,6.17-32.86,4.58c-4.56-.64-9.48-1.89-12.21-5.61-2.22-3-2.48-7-2.3-10.77.93-19.26,11.19-37.16,12-56.43a14.28,14.28,0,0,0-.91-6.75c-.79-1.7-2.16-3.12-2.76-4.9-.54-1.61-.09-3.78,1.37-4.46Z"/><path class="cls-1" d="M201.19,66c8,1.5,14.46,10,12.61,18s-12.52,12.53-19,7.77c1.5-4.27-.69-9.3-4.22-12.24a24,24,0,0,0-9.33-5A18.52,18.52,0,0,1,194,66,19.93,19.93,0,0,1,201.19,66Z"/><path class="cls-2" d="M96.21,151.51h0a32.16,32.16,0,0,1-13,2.54,26.82,26.82,0,0,1-3.79-.34,19,19,0,0,1-6.91-2.41c-7-4.23-9.72-13.39-8.61-21.48s5.31-15.4,9.52-22.4v-.55c35.31-.24,70.69-3.7,105.88-7.17a48.32,48.32,0,0,0,5.35-.79c-1.48,7.75.57,15.87,7.23,20.09,1.54,1,3.33,1.52,4.8,2.58,3.81,2.75,4.47,8.5,2.45,12.73s-6.11,7.13-10.37,9.08c-4.07,1.86-8.54,6.41-9.94,10.66l-.64.31c-5.09-4.32-12.85-5.65-20.18-5.52-1.13,0-2.25.07-3.35.16C134.91,149.87,115.79,148.61,96.21,151.51Zm31.36-31.95a2.37,2.37,0,0,0,0-3.36,2.78,2.78,0,0,0-3.48-.1,1.77,1.77,0,0,0,.36,2.78A2.06,2.06,0,0,0,127.57,119.56Z"/><path class="cls-1" d="M181.22,74.56a24,24,0,0,1,9.33,5c3.53,2.94,5.72,8,4.22,12.24-.07.22-.16.43-.25.64-1.71,3.81-5.66,5.58-9.91,6.49a48.32,48.32,0,0,1-5.35.79c-35.19,3.47-70.57,6.93-105.88,7.17-15,.12-30-.36-44.95-1.67-1.22-.09-2.44-.2-3.66-.32-6.05-.58-12.44-1.44-17.17-5.25S.83,88,5,83.63a10.93,10.93,0,0,1,6.18-2.9c3.2-.61,7-.72,10.82-1.71,81-5.23,103.87-3.38,155.25-4.88A15.48,15.48,0,0,1,181.22,74.56Z"/><path class="cls-3" d="M178,21.22c12.4,10.94,19.83,28.35,15.94,44.42l0,.35a18.52,18.52,0,0,0-12.79,8.57,15.48,15.48,0,0,0-3.95-.42C125.89,75.64,103,73.79,22,79c-3.86,1-7.62,1.1-10.82,1.71C9.43,64.1,19.89,48.54,32.11,37.14A129.85,129.85,0,0,1,132.6,3.4C149,5.1,165.63,10.29,178,21.22Z"/><path class="cls-3" d="M190.44,235.72c.19,6.78-2.86,12.78-7.17,18.16a93,93,0,0,1-11,11.14c-2.42,2.15-5.46,4.42-8.5,4.42a65.28,65.28,0,0,0-4.24-38.55c-5-11.26-13.28-21.55-14.13-33.82l-3.56-.35a12.75,12.75,0,0,1,1.78-1.16c5.27-2.9,10.34-7.18,15.09-11.51l3.49.17A111.72,111.72,0,0,1,188,225.13,34.74,34.74,0,0,1,190.44,235.72Z"/><path class="cls-2" d="M186.35,254.25c7.54,4.38,9,16.37,2.71,22.43a28.64,28.64,0,0,1-6.7,4.37c-5,2.61-10.69,5.22-16.09,5.37a13.79,13.79,0,0,1-7.58-1.8c1.38-1.24,2.51-3.38,1.36-4.47a9.6,9.6,0,0,0,1.74-3.26,63.69,63.69,0,0,0,1.94-7.45c3,0,6.08-2.27,8.5-4.42a93,93,0,0,0,11-11.14Z"/><path class="cls-1" d="M154.61,149c1.11,0,2.23-.1,3.35-.16,7.33-.13,15.09,1.2,20.18,5.52a15.41,15.41,0,0,1,4,5.1c3.77,7.88-10.78,12.84-17.18,18.79-2,1.86-4.09,3.83-6.24,5.8-4.75,4.33-9.82,8.61-15.09,11.51a12.75,12.75,0,0,0-1.78,1.16c-5,3.9-3.28,9.14-8.72,14.25-3.22,3-6.35,6.34-10.43,8s-8.83,1.54-13.33,1.33l-30.84-1.41c-3-.14-6.14-.32-8.75-1.81-.22-.13-.43-.26-.64-.41A21.85,21.85,0,0,1,65.24,213c-10.95-12.3-10.85-24.65-21.8-36.95C38.5,170.54,30.21,162.8,33.2,156c1.77-4,3.22-6.3,5.46-7.18,1.82-.71,4.16-.51,7.61.39,10.59,2.76,10.33,5.21,33.06,4.84l0-.34a26.82,26.82,0,0,0,3.79.34,32.16,32.16,0,0,0,13-2.54h0C115.79,148.61,134.91,149.87,154.61,149Z"/><path class="cls-4" d="M171.82,320.55a15,15,0,0,1,.45,6.33c-.94,4.3-5.32,6.82-9.33,8.63-6.44,2.91-13.18,5.42-20.21,6s-14.47-1-20-5.41l-1.13-.18a62.11,62.11,0,0,0,.62-14.73l.95-1.06v-.48a51,51,0,0,0,15.11-.11,82.15,82.15,0,0,0,15-4.57c3.25-1.22,6.6-2.51,9.07-5a1.8,1.8,0,0,0,.19-.2l.06.06c2.57-.4,5.11,1.23,6.56,3.38A20.74,20.74,0,0,1,171.82,320.55Z"/><path class="cls-3" d="M166.34,288.78c.87,7.32,1.37,15.76-3.73,21a1.8,1.8,0,0,1-.19.2c-2.47,2.45-5.82,3.74-9.07,5a82.15,82.15,0,0,1-15,4.57,51,51,0,0,1-15.11.11V297l.05-1.11a54.74,54.74,0,0,0,35.08-10.95l.35-.29a13.79,13.79,0,0,0,7.58,1.8Z"/><path class="cls-3" d="M113.1,248.33a3.51,3.51,0,0,0-2.28,2.57,4.13,4.13,0,0,0,1.24,3.75,4.41,4.41,0,0,0,5.12.63,4,4,0,0,0,1.7-4.79,3.71,3.71,0,0,0-4.54-2.09Zm1.57-18.46a21.58,21.58,0,0,0-3.52,2.35,5.75,5.75,0,0,0-2.28,3.26,4.26,4.26,0,0,0,2.93,4.34,8.9,8.9,0,0,0,5.58-.19,2.44,2.44,0,0,0,1.38-.82,2.5,2.5,0,0,0,.22-1.71c-.32-2.72-1.36-5.85-4-6.64Zm45.38,50.28c1.15,1.09,0,3.23-1.36,4.47l-.35.29a54.74,54.74,0,0,1-35.08,10.95,53.17,53.17,0,0,1-24.1-6.5,30.05,30.05,0,0,1-7.55-5.63,22.1,22.1,0,0,1-1.63-2A34.32,34.32,0,0,1,86.26,275L84,276a2,2,0,0,1,0,1.63C73.63,275.2,66.71,262.11,64.24,252s-.75-22.44,2.51-31.91l2.34-3.41c.21.15.42.28.64.41,2.61,1.49,5.74,1.67,8.75,1.81l30.84,1.41c4.5.21,9.17.39,13.33-1.33s7.21-5,10.43-8c5.44-5.11,3.71-10.35,8.72-14.25l3.56.35c.85,12.27,9.17,22.56,14.13,33.82a65.28,65.28,0,0,1,4.24,38.55,63.69,63.69,0,0,1-1.94,7.45A9.6,9.6,0,0,1,160.05,280.15Zm-41.37-8.1c.95-1.14.72-2.82.44-4.28a6.65,6.65,0,0,0-.78-2.35,2.25,2.25,0,0,0-2.08-1.14l-1.4,0a3.53,3.53,0,0,0-1.25-.26c-2.44,0-4.24,2.85-3.58,5.2a5.93,5.93,0,0,0,5.62,3.89A3.79,3.79,0,0,0,118.68,272.05Z"/><path class="cls-2" d="M127.54,116.2a2.37,2.37,0,0,1,0,3.36,2.06,2.06,0,0,1-3.15-.68,1.77,1.77,0,0,1-.36-2.78A2.78,2.78,0,0,1,127.54,116.2Z"/><path class="cls-3" d="M123.26,295.86l-.05,1.11v22.67c-7.16-.91-14.28-2.95-21.23-5-3.14-.92-6.5-2-8.6-4.47l-.15-.18c-1.54-1.93-2.12-4.44-2.56-6.87a88.24,88.24,0,0,1-1.22-21l.53-.38a22.1,22.1,0,0,0,1.63,2,30.05,30.05,0,0,0,7.55,5.63A53.17,53.17,0,0,0,123.26,295.86Z"/><path class="cls-4" d="M123.21,319.64v.48l-.95,1.06a62.11,62.11,0,0,1-.62,14.73l-.09.54a2.78,2.78,0,0,1-.8,1.81,2.92,2.92,0,0,1-1.85.44l-20.08.11a35.82,35.82,0,0,1-10.39-1c-7.7-2.29-13-9.56-15.59-17.16-1.22-3.57-1.78-8,.9-10.68,1.88-1.85,4.73-2.18,7.36-2.37,4.28-.3,9.07-.3,12.2,2.63l.08-.07c2.1,2.5,5.46,3.55,8.6,4.47C108.93,316.69,116.05,318.73,123.21,319.64Z"/><path class="cls-5" d="M114.86,264.32l1.4,0a2.25,2.25,0,0,1,2.08,1.14,6.65,6.65,0,0,1,.78,2.35c.28,1.46.51,3.14-.44,4.28a3.79,3.79,0,0,1-3,1.1,5.93,5.93,0,0,1-5.62-3.89c-.66-2.35,1.14-5.24,3.58-5.2A3.53,3.53,0,0,1,114.86,264.32Z"/><path class="cls-5" d="M119,237.1a2.5,2.5,0,0,1-.22,1.71,2.44,2.44,0,0,1-1.38.82,8.9,8.9,0,0,1-5.58.19,4.26,4.26,0,0,1-2.93-4.34,5.75,5.75,0,0,1,2.28-3.26,21.58,21.58,0,0,1,3.52-2.35l.32.59C117.62,231.25,118.66,234.38,119,237.1Z"/><path class="cls-5" d="M118.88,250.49a4,4,0,0,1-1.7,4.79,4.41,4.41,0,0,1-5.12-.63,4.13,4.13,0,0,1-1.24-3.75,3.51,3.51,0,0,1,2.28-2.57l1.24.07A3.71,3.71,0,0,1,118.88,250.49Z"/><path class="cls-2" d="M79.38,153.71l0,.34c-22.73.37-22.47-2.08-33.06-4.84-3.45-.9-5.79-1.1-7.61-.39l-.57-1q-4.89-20.59-9.79-41.17l.13-1.47c15,1.31,30,1.79,44.95,1.67v.55c-4.21,7-8.41,14.3-9.52,22.4s1.61,17.25,8.61,21.48A19,19,0,0,0,79.38,153.71ZM49.5,122.5c1.47-.37,2-2.68.78-3.49-.4-.59-2.76-1.39-3.3-.92a2.19,2.19,0,0,0-.64,2A2.79,2.79,0,0,0,49.5,122.5Z"/><path class="cls-2" d="M50.28,119c1.27.81.69,3.12-.78,3.49a2.79,2.79,0,0,1-3.16-2.45,2.19,2.19,0,0,1,.64-2C47.52,117.62,49.88,118.42,50.28,119Z"/><path class="cls-6" d="M22,79c81-5.23,103.87-3.38,155.25-4.88a15.48,15.48,0,0,1,3.95.42,24,24,0,0,1,9.33,5c3.53,2.94,5.72,8,4.22,12.24-.07.22-.16.43-.25.64-1.71,3.81-5.66,5.58-9.91,6.49a48.32,48.32,0,0,1-5.35.79c-35.19,3.47-70.57,6.93-105.88,7.17-15,.12-30-.36-44.95-1.67-1.22-.09-2.44-.2-3.66-.32-6.05-.58-12.44-1.44-17.17-5.25S.83,88,5,83.63a10.93,10.93,0,0,1,6.18-2.9c3.2-.61,7-.72,10.82-1.71"/><path class="cls-6" d="M11.2,80.76v0C9.43,64.1,19.89,48.54,32.11,37.14A129.85,129.85,0,0,1,132.6,3.4c16.44,1.7,33,6.89,45.42,17.82S197.85,49.57,194,65.64"/><path class="cls-6" d="M180.94,75c.09-.16.18-.31.28-.46A18.52,18.52,0,0,1,194,66a19.93,19.93,0,0,1,7.18.05c8,1.5,14.46,10,12.61,18s-12.52,12.53-19,7.77l-.17-.12"/><path class="cls-6" d="M96.21,151.51a33.07,33.07,0,0,0,15.48-13.15"/><path class="cls-6" d="M73.38,107.42c-4.21,7-8.41,14.3-9.52,22.4s1.61,17.25,8.61,21.48a19,19,0,0,0,6.91,2.41,26.82,26.82,0,0,0,3.79.34,32.16,32.16,0,0,0,13-2.54"/><path class="cls-6" d="M158,148.84c-1.12.06-2.24.12-3.35.16-19.7.87-38.82-.39-58.4,2.51h0"/><path class="cls-6" d="M154,149.05l.64-.05c1.1-.09,2.22-.14,3.35-.16,7.33-.13,15.09,1.2,20.18,5.52a15.41,15.41,0,0,1,4,5.1c3.77,7.88-10.78,12.84-17.18,18.79-2,1.86-4.09,3.83-6.24,5.8-4.75,4.33-9.82,8.61-15.09,11.51a12.75,12.75,0,0,0-1.78,1.16c-5,3.9-3.28,9.14-8.72,14.25-3.22,3-6.35,6.34-10.43,8s-8.83,1.54-13.33,1.33l-30.84-1.41c-3-.14-6.14-.32-8.75-1.81-.22-.13-.43-.26-.64-.41A21.85,21.85,0,0,1,65.24,213c-10.95-12.3-10.85-24.65-21.8-36.95C38.5,170.54,30.21,162.8,33.2,156c1.77-4,3.22-6.3,5.46-7.18,1.82-.71,4.16-.51,7.61.39,10.59,2.76,10.33,5.21,33.06,4.84"/><path class="cls-6" d="M28.3,106.67q4.89,20.58,9.79,41.17"/><path class="cls-6" d="M184.61,98.91c-1.48,7.75.57,15.87,7.23,20.09,1.54,1,3.33,1.52,4.8,2.58,3.81,2.75,4.47,8.5,2.45,12.73s-6.11,7.13-10.37,9.08c-4.07,1.86-8.54,6.41-9.94,10.66"/><path class="cls-6" d="M50.28,119c1.27.81.69,3.12-.78,3.49a2.79,2.79,0,0,1-3.16-2.45,2.19,2.19,0,0,1,.64-2C47.52,117.62,49.88,118.42,50.28,119Z"/><path class="cls-6" d="M124.42,118.88a1.77,1.77,0,0,1-.36-2.78,2.78,2.78,0,0,1,3.48.1,2.37,2.37,0,0,1,0,3.36A2.06,2.06,0,0,1,124.42,118.88Z"/><path class="cls-6" d="M76,224a138.24,138.24,0,0,0,9,47.77c.42,1.09.85,2.18,1.31,3.25A34.32,34.32,0,0,0,90,281.74a22.1,22.1,0,0,0,1.63,2,30.05,30.05,0,0,0,7.55,5.63,53.17,53.17,0,0,0,24.1,6.5,54.74,54.74,0,0,0,35.08-10.95l.35-.29c1.38-1.24,2.51-3.38,1.36-4.47a1.76,1.76,0,0,0-.3-.24"/><path class="cls-6" d="M145.36,197.07c.85,12.27,9.17,22.56,14.13,33.82a65.28,65.28,0,0,1,4.24,38.55,63.69,63.69,0,0,1-1.94,7.45,9.6,9.6,0,0,1-1.74,3.26,3.16,3.16,0,0,1-3,1.3"/><path class="cls-6" d="M162.16,184.22A111.72,111.72,0,0,1,188,225.13a34.74,34.74,0,0,1,2.41,10.59c.19,6.78-2.86,12.78-7.17,18.16a93,93,0,0,1-11,11.14c-2.42,2.15-5.46,4.42-8.5,4.42a5.76,5.76,0,0,1-2.2-.44"/><path class="cls-6" d="M186.35,254.25c7.54,4.38,9,16.37,2.71,22.43a28.64,28.64,0,0,1-6.7,4.37c-5,2.61-10.69,5.22-16.09,5.37a13.79,13.79,0,0,1-7.58-1.8l-.06,0"/><path class="cls-6" d="M66.75,220.11c-3.26,9.47-5,21.81-2.51,31.91S73.63,275.2,84,277.63A2,2,0,0,0,84,276a1.94,1.94,0,0,0-.87-1"/><path class="cls-6" d="M115,230.46c2.63.79,3.67,3.92,4,6.64a2.5,2.5,0,0,1-.22,1.71,2.44,2.44,0,0,1-1.38.82,8.9,8.9,0,0,1-5.58.19,4.26,4.26,0,0,1-2.93-4.34,5.75,5.75,0,0,1,2.28-3.26,21.58,21.58,0,0,1,3.52-2.35c.18-.11.35-.2.53-.29"/><path class="cls-6" d="M114.34,248.4a3.71,3.71,0,0,1,4.54,2.09,4,4,0,0,1-1.7,4.79,4.41,4.41,0,0,1-5.12-.63,4.13,4.13,0,0,1-1.24-3.75,3.51,3.51,0,0,1,2.28-2.57,2.78,2.78,0,0,1,.5-.11"/><path class="cls-6" d="M116.26,264.28a2.25,2.25,0,0,1,2.08,1.14,6.65,6.65,0,0,1,.78,2.35c.28,1.46.51,3.14-.44,4.28a3.79,3.79,0,0,1-3,1.1,5.93,5.93,0,0,1-5.62-3.89c-.66-2.35,1.14-5.24,3.58-5.2a3.53,3.53,0,0,1,1.25.26,3.4,3.4,0,0,1,.67.38"/><path class="cls-6" d="M123.21,297v23.15"/><path class="cls-6" d="M166.34,288.78c.87,7.32,1.37,15.76-3.73,21a1.8,1.8,0,0,1-.19.2c-2.47,2.45-5.82,3.74-9.07,5a82.15,82.15,0,0,1-15,4.57,51,51,0,0,1-15.11.11c-7.16-.91-14.28-2.95-21.23-5-3.14-.92-6.5-2-8.6-4.47l-.15-.18c-1.54-1.93-2.12-4.44-2.56-6.87a88.24,88.24,0,0,1-1.22-21"/><path class="cls-6" d="M122.26,321.18a62.11,62.11,0,0,1-.62,14.73l-.09.54a2.78,2.78,0,0,1-.8,1.81,2.92,2.92,0,0,1-1.85.44l-20.08.11a35.82,35.82,0,0,1-10.39-1c-7.7-2.29-13-9.56-15.59-17.16-1.22-3.57-1.78-8,.9-10.68,1.88-1.85,4.73-2.18,7.36-2.37,4.28-.3,9.07-.3,12.2,2.63"/><path class="cls-6" d="M122.77,336.09c5.49,4.45,12.92,6,20,5.41s13.77-3.08,20.21-6c4-1.81,8.39-4.33,9.33-8.63a15,15,0,0,0-.45-6.33,20.74,20.74,0,0,0-2.59-7.31c-1.45-2.15-4-3.78-6.56-3.38"/><path class="cls-6" d="M166,184.43l14.91,14.94c6.8,6.82,13.67,13.7,21.75,19,5.1,3.32,10.78,6.09,14.54,10.87,2.82,3.59,4.38,8.12,7.62,11.34"/><path class="cls-6" d="M218.37,243.54A8.22,8.22,0,0,1,219,243a9.47,9.47,0,0,1,10.66-.11c2.26,1.59,3.68,4.1,5.09,6.48a129.4,129.4,0,0,0,17.35,22.91c7.68,8.09,16.91,16.08,18.6,27.11s-5.44,22.33-15.26,27.84-21.71,6.17-32.86,4.58c-4.56-.64-9.48-1.89-12.21-5.61-2.22-3-2.48-7-2.3-10.77.93-19.26,11.19-37.16,12-56.43a14.28,14.28,0,0,0-.91-6.75c-.79-1.7-2.16-3.12-2.76-4.9-.54-1.61-.09-3.78,1.37-4.46a2.56,2.56,0,0,1,.49-.16"/></g></g></svg>