<svg xmlns="http://www.w3.org/2000/svg" viewBox="0 0 299.81 374.46">
  <defs>
    <style>
      .cls-1 {
        fill: #e9f5f7;
      }

      .cls-2 {
        fill: #d51359;
      }

      .cls-3 {
        fill: #fbede7;
      }

      .cls-4 {
        fill: #2e0e04;
      }

      .cls-5 {
        fill: #065c3f;
      }

      .cls-6 {
        fill: none;
        stroke: #231815;
        stroke-miterlimit: 10;
        stroke-width: 6px;
      }

      .cls-7 {
        fill: #2ea7e0;
      }

      .cls-8 {
        fill: #231815;
      }
    </style>
  </defs>
  <g id="レイヤー_2" data-name="レイヤー 2">
    <g id="レイヤー_1-2" data-name="レイヤー 1">
      <g>
        <g>
          <g>
            <path class="cls-1" d="M296,292.35c3.06,9.39-2.77,19.13-8.34,27.28l-15.55,22.76c-3,4.35-6,8.78-10.21,12-8.25,6.27-29.14-1.67-39.5-1.48l-2.56-.51c1.38-7.06.43-15-4.5-18.87l-2-.76a26.57,26.57,0,0,0-6.52-10.33l-.56-2.25c1.22-.3,2.5-.64,3.88-1,5.65-1.52,11.32-3.91,15.16-8.32s5.33-11.27,2.23-16.22a11.38,11.38,0,0,0-2.64-2.92l.34-.46c9.32-8.24,13.92-24.49,12.92-36.88s-6.1-24.07-11.94-35c-.65-1.22-1.32-2.44-2-3.65l.79-.45,13.23-2.42c1.43-.27,3-.51,4.27.24s1.8,2.23,2.2,3.62c1.55,5.39,2.21,11.26,5.59,15.74,3.53,4.67,9.39,6.94,13.67,10.94,8.3,7.76,9.43,20.62,16.26,29.69C285.2,279.73,293.35,284.37,296,292.35Z"/>
            <path class="cls-2" d="M238.08,254.35c1,12.39-3.6,28.64-12.92,36.88l-.34.46c-4.22-3.29-10.65-3.74-16.17-2.77-6.39,1.12-12.7,3.56-19.12,3.22,5-6.18,4-15.17,2.37-23a295.59,295.59,0,0,0-11.48-40.28c-1.39-4.36-2.26-7.45-4.71-10.94-7.44-10.6-6-26.44,3-35.68,1.58-.47,3.15-.87,4.7-1.18,9,1.31,17.48,6.06,24.2,12.34s12,14.11,16.54,22.23c.68,1.21,1.35,2.43,2,3.65C232,230.28,237.08,242,238.08,254.35Z"/>
            <path class="cls-3" d="M227.46,294.61c3.1,4.95,1.61,11.81-2.23,16.22s-9.51,6.8-15.16,8.32c-1.38.37-2.66.71-3.88,1A46.44,46.44,0,0,1,190,321.55s-21.91-4.4-8.54-22.7c2.72-3.73,6.1-4.27,8.1-6.71,6.42.34,12.73-2.1,19.12-3.22,5.52-1,11.95-.52,16.17,2.77A11.38,11.38,0,0,1,227.46,294.61Z"/>
            <path class="cls-4" d="M82.07,352.58a30.17,30.17,0,0,1,3.46-4.3A22.23,22.23,0,0,1,89,345.42a23.3,23.3,0,0,1,15.64-3.66,16.26,16.26,0,0,0,2.48,1.62c3.28,1.72,7.09,2.08,10.78,2.33a240.77,240.77,0,0,0,95.35-13l2,.76c4.93,3.87,5.88,11.81,4.5,18.87a27.39,27.39,0,0,1-2.76,7.9q-63.14,7-126.52,11.17a10.84,10.84,0,0,1-10.11-16.19C80.93,354.32,81.49,353.43,82.07,352.58Z"/>
            <path class="cls-1" d="M201.44,66.29c8,1.5,14.46,10,12.61,18S201.53,96.79,195,92c1.5-4.27-.69-9.3-4.22-12.24a25,25,0,0,0-9.61-4.52,18.54,18.54,0,0,1,13.07-9A19.93,19.93,0,0,1,201.44,66.29Z"/>
            <path class="cls-2" d="M104.66,341.76a33.39,33.39,0,0,1-5-5.15c-5.62-6.86-6.93-13.46-9.11-22.85,1.18-.09,2.37-.2,3.54-.31a585.37,585.37,0,0,0,87.34-14.6c-13.37,18.3,8.54,22.7,8.54,22.7a46.44,46.44,0,0,0,16.22-1.39l.56,2.25a26.57,26.57,0,0,1,6.52,10.33,240.77,240.77,0,0,1-95.35,13c-3.69-.25-7.5-.61-10.78-2.33A16.26,16.26,0,0,1,104.66,341.76Z"/>
            <path class="cls-3" d="M96.46,151.76h0a32.16,32.16,0,0,1-13,2.54,26.82,26.82,0,0,1-3.79-.34,19,19,0,0,1-6.91-2.41c-7-4.23-9.72-13.39-8.61-21.48s5.31-15.4,9.52-22.4v-.55c35.31-.24,70.69-3.7,105.88-7.17a48.32,48.32,0,0,0,5.35-.79c-1.48,7.75.57,15.87,7.23,20.09,1.54,1,3.33,1.52,4.8,2.58,3.81,2.75,4.47,8.5,2.45,12.73s-6.11,7.13-10.37,9.08c-4.07,1.86-8.54,6.41-9.94,10.66l-.64.31c-5.09-4.32-12.85-5.65-20.18-5.52-1.13,0-2.25.07-3.35.16C135.16,150.12,116,148.86,96.46,151.76Zm31.36-31.95a2.37,2.37,0,0,0,0-3.36,2.78,2.78,0,0,0-3.48-.1,1.77,1.77,0,0,0,.36,2.78A2.06,2.06,0,0,0,127.82,119.81Z"/>
            <path class="cls-1" d="M11.45,81c3.2-.61,7-.72,10.82-1.71C73.4,68.93,126.6,63.07,177.52,74.39c1.22.27,2.46.56,3.67.88a25,25,0,0,1,9.61,4.52c3.53,2.94,5.72,8,4.22,12.24-.07.22-.16.43-.25.64-1.71,3.81-5.66,5.58-9.91,6.49a48.32,48.32,0,0,1-5.35.79c-35.19,3.47-70.57,6.93-105.88,7.17-15,.12-30-.36-44.95-1.67-1.22-.09-2.44-.2-3.66-.32-6.05-.58-12.44-1.44-17.17-5.25s-6.77-11.6-2.58-16A10.93,10.93,0,0,1,11.45,81Z"/>
            <path class="cls-2" d="M178.27,21.47c12.4,10.94,19.83,28.35,15.94,44.42l0,.35a18.54,18.54,0,0,0-13.07,9c-1.21-.32-2.45-.61-3.67-.88C126.6,63.07,73.4,68.93,22.27,79.27c-3.86,1-7.62,1.1-10.82,1.71C9.68,64.35,20.14,48.79,32.36,37.39A129.85,129.85,0,0,1,132.85,3.65C149.29,5.35,165.88,10.54,178.27,21.47Z"/>
            <path class="cls-2" d="M180.42,228.89a295.59,295.59,0,0,1,11.48,40.28c1.63,7.8,2.67,16.79-2.37,23-2,2.44-5.38,3-8.1,6.71a585.37,585.37,0,0,1-87.34,14.6c-1.17.11-2.36.22-3.54.31-6.61.5-13.34.51-19.43-2-5.37-2.19-9.76-6.15-13.35-10.76a58.82,58.82,0,0,1-3.47-5C38.49,270.57,42,232.76,60.51,209.2l.75-.66,4.23,4.75A19.29,19.29,0,0,0,70,217.36c2.61,1.49,5.74,1.67,8.75,1.81l12,.55-.12,2.53c-.55,5.77,1.76,12.88,7.46,13.93a7.51,7.51,0,0,0,7.67-3.54c1.5-2.6.35-8.75-1.6-11l.06-1.27,5.35.24c4.5.21,9.17.39,13.33-1.33s7.21-5,10.43-8a98.74,98.74,0,0,1,19.94-14.5c7.66-4.21,16-7.5,22.41-13.45,1-.36,2-.7,3-1-9,9.24-10.43,25.08-3,35.68C178.16,221.44,179,224.53,180.42,228.89Zm-89.2,39c5.25-1,8.24-7.54,6.29-12.51-5.49-1.55-11.43-2.55-14.2,2.44C80.72,262.44,86,268.8,91.22,267.85Zm3.88,29c2.88-3.2.77-9.29-3.19-10.11-2.42-.91-7.85,0-9,1.68a6.36,6.36,0,0,0,.09,6.62C85.37,299.2,91.92,300.43,95.1,296.89Z"/>
            <path class="cls-1" d="M154.86,149.25c1.11,0,2.23-.1,3.35-.16,7.33-.13,15.09,1.2,20.18,5.52a15.41,15.41,0,0,1,4,5.1c3.77,7.88-.26,17.61-6.66,23.56s-14.75,9.24-22.41,13.45a98.74,98.74,0,0,0-19.94,14.5c-3.22,3-6.35,6.34-10.43,8s-8.83,1.54-13.33,1.33l-5.35-.24-13.47-.62-12-.55c-3-.14-6.14-.32-8.75-1.81a19.29,19.29,0,0,1-4.49-4.07l-4.23-4.75L53.69,200l-21-23.64c-4.95-5.55-10.23-12.94-7.24-19.75,2.14-4.89,7.43-7.35,13-7.84a24.36,24.36,0,0,1,8.11.66c10.59,2.76,10.33,5.21,33.06,4.84l0-.34a26.82,26.82,0,0,0,3.79.34,32.16,32.16,0,0,0,13-2.54h0C116,148.86,135.16,150.12,154.86,149.25Z"/>
            <path class="cls-3" d="M127.79,116.45a2.37,2.37,0,0,1,0,3.36,2.06,2.06,0,0,1-3.15-.68,1.77,1.77,0,0,1-.36-2.78A2.78,2.78,0,0,1,127.79,116.45Z"/>
            <path class="cls-5" d="M104.16,221.61c2,2.28,3.1,8.43,1.6,11a7.51,7.51,0,0,1-7.67,3.54c-5.7-1.05-8-8.16-7.46-13.93l.12-2.53,13.47.62Z"/>
            <path class="cls-2" d="M49.92,310.64a4,4,0,0,1,.69-2.17c1-1.73,4.3-3.17,6.56-5.48V301.5l.6-.48c3.59,4.61,8,8.57,13.35,10.76,6.09,2.49,12.82,2.48,19.43,2,2.18,9.39,3.49,16,9.11,22.85a33.39,33.39,0,0,0,5,5.15A23.3,23.3,0,0,0,89,345.42l-1.47-2.12a363.67,363.67,0,0,1-28.93-25.56c-.88-.86-8.64-5.87-8.7-7.09Z"/>
            <path class="cls-5" d="M97.51,255.34c1.95,5-1,11.56-6.29,12.51s-10.5-5.41-7.91-10.07C86.08,252.79,92,253.79,97.51,255.34Z"/>
            <path class="cls-5" d="M91.91,286.78c4,.82,6.07,6.91,3.19,10.11-3.18,3.54-9.73,2.31-12.1-1.81a6.36,6.36,0,0,1-.09-6.62C84.06,286.77,89.49,285.87,91.91,286.78Z"/>
            <path class="cls-4" d="M87.55,343.3,89,345.42a22.23,22.23,0,0,0-3.49,2.86,30.17,30.17,0,0,0-3.46,4.3c-17.93-11.16-40.92-13.89-53.52-30.85a2.42,2.42,0,0,1-.54-1,2.15,2.15,0,0,1,.39-1.37c2.61-4.53,12.21-12.19,17.2-10.64a19.36,19.36,0,0,1,4.32,2h0c.06,1.22,7.82,6.23,8.7,7.09A363.67,363.67,0,0,0,87.55,343.3Z"/>
            <path class="cls-3" d="M79.63,154l0,.34c-22.73.37-22.47-2.08-33.06-4.84a24.36,24.36,0,0,0-8.11-.66l-.07-.71q-4.89-20.59-9.79-41.17l.13-1.47c15,1.31,30,1.79,44.95,1.67v.55c-4.21,7-8.41,14.3-9.52,22.4s1.61,17.25,8.61,21.48A19,19,0,0,0,79.63,154ZM49.75,122.75c1.47-.37,2-2.68.78-3.49-.4-.59-2.76-1.39-3.3-.92a2.19,2.19,0,0,0-.64,2A2.79,2.79,0,0,0,49.75,122.75Z"/>
            <path class="cls-2" d="M53.69,200l7.57,8.51-.75.66C42,232.76,38.49,270.57,54.3,296a58.82,58.82,0,0,0,3.47,5l-.6.48C43.09,298,34,283.39,32.4,269s2.62-28.78,6.81-42.68a69.73,69.73,0,0,1,13.67-25.54Z"/>
            <path class="cls-3" d="M50.53,119.26c1.27.81.69,3.12-.78,3.49a2.79,2.79,0,0,1-3.16-2.45,2.19,2.19,0,0,1,.64-2C47.77,117.87,50.13,118.67,50.53,119.26Z"/>
          </g>
          <g>
            <path class="cls-6" d="M22.27,79.27C73.4,68.93,126.6,63.07,177.52,74.39c1.22.27,2.46.56,3.67.88a25,25,0,0,1,9.61,4.52c3.53,2.94,5.72,8,4.22,12.24-.07.22-.16.43-.25.64-1.71,3.81-5.66,5.58-9.91,6.49a48.32,48.32,0,0,1-5.35.79c-35.19,3.47-70.57,6.93-105.88,7.17-15,.12-30-.36-44.95-1.67-1.22-.09-2.44-.2-3.66-.32-6.05-.58-12.44-1.44-17.17-5.25s-6.77-11.6-2.58-16A10.93,10.93,0,0,1,11.45,81c3.2-.61,7-.72,10.82-1.71"/>
            <path class="cls-6" d="M11.45,81v0C9.68,64.35,20.14,48.79,32.36,37.39A129.85,129.85,0,0,1,132.85,3.65c16.44,1.7,33,6.89,45.42,17.82s19.83,28.35,15.94,44.42"/>
            <path class="cls-6" d="M181.19,75.27a18.54,18.54,0,0,1,13.07-9,19.93,19.93,0,0,1,7.18.05c8,1.5,14.46,10,12.61,18S201.53,96.79,195,92l-.17-.12"/>
            <path class="cls-6" d="M96.46,151.76a33.07,33.07,0,0,0,15.48-13.15"/>
            <path class="cls-6" d="M73.63,107.67c-4.21,7-8.41,14.3-9.52,22.4s1.61,17.25,8.61,21.48A19,19,0,0,0,79.63,154a26.82,26.82,0,0,0,3.79.34,32.16,32.16,0,0,0,13-2.54"/>
            <path class="cls-6" d="M158.21,149.09c-1.12.06-2.24.12-3.35.16-19.7.87-38.82-.39-58.4,2.51h0"/>
            <path class="cls-6" d="M154.22,149.3l.64-.05c1.1-.09,2.22-.14,3.35-.16,7.33-.13,15.09,1.2,20.18,5.52a15.41,15.41,0,0,1,4,5.1c3.77,7.88-.26,17.61-6.66,23.56s-14.75,9.24-22.41,13.45a98.74,98.74,0,0,0-19.94,14.5c-3.22,3-6.35,6.34-10.43,8s-8.83,1.54-13.33,1.33l-5.35-.24-13.47-.62-12-.55c-3-.14-6.14-.32-8.75-1.81a19.29,19.29,0,0,1-4.49-4.07l-4.23-4.75L53.69,200l-21-23.64c-4.95-5.55-10.23-12.94-7.24-19.75,2.14-4.89,7.43-7.35,13-7.84a24.36,24.36,0,0,1,8.11.66c10.59,2.76,10.33,5.21,33.06,4.84"/>
            <path class="cls-6" d="M28.55,106.92q4.89,20.58,9.79,41.17"/>
            <path class="cls-6" d="M184.86,99.16c-1.48,7.75.57,15.87,7.23,20.09,1.54,1,3.33,1.52,4.8,2.58,3.81,2.75,4.47,8.5,2.45,12.73s-6.11,7.13-10.37,9.08c-4.07,1.86-8.54,6.41-9.94,10.66"/>
            <path class="cls-6" d="M90.63,222.25c-.55,5.77,1.76,12.88,7.46,13.93a7.51,7.51,0,0,0,7.67-3.54c1.5-2.6.35-8.75-1.6-11"/>
            <path class="cls-6" d="M97.51,255.34c1.95,5-1,11.56-6.29,12.51s-10.5-5.41-7.91-10.07C86.08,252.79,92,253.79,97.51,255.34Z"/>
            <path class="cls-6" d="M91.91,286.78a2.32,2.32,0,0,1,.82.49"/>
            <path class="cls-6" d="M91.91,286.78c4,.82,6.07,6.91,3.19,10.11-3.18,3.54-9.73,2.31-12.1-1.81a6.36,6.36,0,0,1-.09-6.62C84.06,286.77,89.49,285.87,91.91,286.78Z"/>
            <path class="cls-6" d="M90.65,286.69a4.36,4.36,0,0,1,1.26.09"/>
            <path class="cls-6" d="M60.51,209.2C42,232.76,38.49,270.57,54.3,296a58.82,58.82,0,0,0,3.47,5c3.59,4.61,8,8.57,13.35,10.76,6.09,2.49,12.82,2.48,19.43,2,1.18-.09,2.37-.2,3.54-.31a585.37,585.37,0,0,0,87.34-14.6"/>
            <path class="cls-6" d="M179,180.72a33.45,33.45,0,0,1,4.37.37c9,1.31,17.48,6.06,24.2,12.34s12,14.11,16.54,22.23c.68,1.21,1.35,2.43,2,3.65,5.84,11,10.94,22.65,11.94,35s-3.6,28.64-12.92,36.88"/>
            <path class="cls-6" d="M52.88,200.75a69.73,69.73,0,0,0-13.67,25.54C35,240.19,30.78,254.55,32.4,269s10.69,29,24.77,32.53"/>
            <path class="cls-6" d="M188.11,292c.48.06.95.1,1.42.12,6.42.34,12.73-2.1,19.12-3.22,5.52-1,11.95-.52,16.17,2.77a11.38,11.38,0,0,1,2.64,2.92c3.1,4.95,1.61,11.81-2.23,16.22s-9.51,6.8-15.16,8.32c-1.38.37-2.66.71-3.88,1A46.44,46.44,0,0,1,190,321.55s-21.91-4.4-8.54-22.7c2.72-3.73,6.1-4.27,8.1-6.71,5-6.18,4-15.17,2.37-23a295.59,295.59,0,0,0-11.48-40.28l-.51-1.39"/>
            <path class="cls-6" d="M50.53,119.26c1.27.81.69,3.12-.78,3.49a2.79,2.79,0,0,1-3.16-2.45,2.19,2.19,0,0,1,.64-2C47.77,117.87,50.13,118.67,50.53,119.26Z"/>
            <path class="cls-6" d="M124.67,119.13a1.77,1.77,0,0,1-.36-2.78,2.78,2.78,0,0,1,3.48.1,2.37,2.37,0,0,1,0,3.36A2.06,2.06,0,0,1,124.67,119.13Z"/>
            <path class="cls-6" d="M175.68,183.27c1-.36,2-.7,3-1,1.58-.47,3.15-.87,4.7-1.18,9.08-1.86,17.8-1.07,27.29,1.93,12.15,3.84,24.41,19.59,31.74,30"/>
            <path class="cls-6" d="M224.93,215.21l13.23-2.42c1.43-.27,3-.51,4.27.24s1.8,2.23,2.2,3.62c1.55,5.39,2.21,11.26,5.59,15.74,3.53,4.67,9.39,6.94,13.67,10.94,8.3,7.76,9.43,20.62,16.26,29.69,5.05,6.71,13.2,11.35,15.81,19.33,3.06,9.39-2.77,19.13-8.34,27.28l-15.55,22.76c-3,4.35-6,8.78-10.21,12-8.25,6.27-29.14-1.67-39.5-1.48"/>
            <path class="cls-6" d="M179.42,181.56c-.25.23-.49.47-.72.71-9,9.24-10.43,25.08-3,35.68,2.45,3.49,3.32,6.58,4.71,10.94"/>
            <path class="cls-6" d="M206.16,321.84l.59.57a26.57,26.57,0,0,1,6.52,10.33,240.77,240.77,0,0,1-95.35,13c-3.69-.25-7.5-.61-10.78-2.33a16.26,16.26,0,0,1-2.48-1.62,33.39,33.39,0,0,1-5-5.15c-5.62-6.86-6.93-13.46-9.11-22.85"/>
            <path class="cls-6" d="M215.3,333.5c4.93,3.87,5.88,11.81,4.5,18.87a27.39,27.39,0,0,1-2.76,7.9q-63.14,7-126.52,11.17a10.84,10.84,0,0,1-10.11-16.19c.52-.93,1.08-1.82,1.66-2.67a30.17,30.17,0,0,1,3.46-4.3A22.23,22.23,0,0,1,89,345.42a23.3,23.3,0,0,1,15.64-3.66,18.86,18.86,0,0,1,2,.34"/>
            <path class="cls-6" d="M57.17,303c-2.26,2.31-5.51,3.75-6.56,5.48a4,4,0,0,0-.69,2.17h0c.06,1.22,7.82,6.23,8.7,7.09A363.67,363.67,0,0,0,87.55,343.3"/>
            <path class="cls-6" d="M82.62,352.92l-.55-.34c-17.93-11.16-40.92-13.89-53.52-30.85a2.42,2.42,0,0,1-.54-1,2.15,2.15,0,0,1,.39-1.37c2.61-4.53,12.21-12.19,17.2-10.64a19.36,19.36,0,0,1,4.32,2,50.34,50.34,0,0,1,8.49,6.83"/>
          </g>
        </g>
        <g>
          <path class="cls-7" d="M215,111a26.31,26.31,0,0,1,12.54-6.43,11.86,11.86,0,0,1,7.34.42c2.26,1.05,4,3.55,3.5,6-.53,2.6-3.3,4.21-5.94,4.41s-5.23-.64-7.81-1.24a42.08,42.08,0,0,0-11.84-1l3.63-2.23"/>
          <path class="cls-8" d="M216.77,112.77a24,24,0,0,1,10.64-5.62,10.53,10.53,0,0,1,6-.06,3.72,3.72,0,0,1,2.51,2.84c.1,1.29-1,2.18-2.13,2.61-2,.8-4.25.24-6.25-.24a50.89,50.89,0,0,0-14.79-1.67l1.26,4.66,3.63-2.23c2.73-1.68.23-6-2.53-4.32L211.53,111c-2,1.24-1.31,4.79,1.26,4.66a49.15,49.15,0,0,1,13.92,1.6c4.15,1,9,1.19,12.17-2.15a7.49,7.49,0,0,0-.73-10.88c-3.43-3-8.29-2.83-12.47-1.77a29.23,29.23,0,0,0-12.45,6.81c-2.38,2.17,1.16,5.7,3.54,3.53Z"/>
        </g>
        <g>
          <path class="cls-7" d="M215.94,124.46a12,12,0,0,1,13.25,7,4.87,4.87,0,0,1,.22,3.72c-.79,1.74-2.95,2.3-4.83,2.57a6,6,0,0,1-3.43-.21,5,5,0,0,1-2.1-2.27c-2.12-3.95-2.26-9.15-5.72-12"/>
          <path class="cls-8" d="M216.61,126.88l.44-.09c.68-.13-.32,0,.1,0s.66,0,1,0,.59,0,.88,0l.45,0c-.58-.06.14,0,.21,0a11.73,11.73,0,0,1,1.82.51c.06,0,.5.18.22.07s.33.15.31.15c.3.14.6.3.89.46s.57.35.85.54l.36.26c-.36-.26,0,0,0,0a14.43,14.43,0,0,1,1.42,1.4s.43.55.22.27.09.14.13.19c.19.28.36.56.53.85s.27.52.4.79c-.21-.43,0,0,0,.07.09.27.17.53.24.8.12.43.07.29,0,.15a2.42,2.42,0,0,1,0,.54c0,.72.08-.12-.05.26s.15,0,0,.07.39-.32,0,.09c-.11.09-.2.19-.31.29.1-.09.37-.23,0,0-.19.1-.38.22-.58.31.47-.21-.34.09-.46.12-.29.08-.59.15-.88.21l-.82.14-.35,0a7.32,7.32,0,0,1-.81,0s-.59-.07-.33,0-.47-.14-.08,0a2.18,2.18,0,0,1-.42-.24c.12.08.24.26,0-.06-.11-.12-.22-.23-.33-.36.24.3,0,0,0-.08-.2-.34-.4-.68-.58-1-.06-.13-.13-.27-.19-.41-.33-.66.09.27-.07-.14s-.23-.58-.33-.87c-.25-.69-.48-1.4-.7-2.11-1-3.1-2-6.39-4.61-8.57a2.56,2.56,0,0,0-3.54,0,2.51,2.51,0,0,0,0,3.53,7.46,7.46,0,0,1,.81.78s.49.61.17.17l.25.36a10.38,10.38,0,0,1,.57,1l.3.6s.3.72.11.23c.6,1.51,1,3.08,1.55,4.62a17.34,17.34,0,0,0,2.23,4.82,6.55,6.55,0,0,0,5.95,2.82c3.95-.28,8.54-1.83,8.69-6.51a10,10,0,0,0-1.88-5.63,15.11,15.11,0,0,0-3.83-3.9,14.42,14.42,0,0,0-11.2-2.34,2.53,2.53,0,0,0-1.75,3.08,2.57,2.57,0,0,0,3.08,1.75Z"/>
        </g>
      </g>
    </g>
  </g>
</svg>
