<svg xmlns="http://www.w3.org/2000/svg" viewBox="0 0 217.11 358.86"><defs><style>.cls-1{fill:#fbede7;}.cls-2{fill:#2e0e04;}.cls-3{fill:#e9f5f7;}.cls-4{fill:#d51359;}.cls-5{fill:none;stroke:#231815;stroke-miterlimit:10;stroke-width:5px;}.cls-6{fill:#231815;}</style></defs><g id="レイヤー_2" data-name="レイヤー 2"><g id="レイヤー_1-2" data-name="レイヤー 1"><rect class="cls-1" x="101.22" y="309.61" width="10.46" height="31.93"/><path class="cls-1" d="M150.1,311.89q0,13.58,0,27.15a1.34,1.34,0,0,1-.31,1.07.39.39,0,0,1-.46,0l-.28.57a5.75,5.75,0,0,1,.77.42,53,53,0,0,0-12.06.94A125.72,125.72,0,0,1,135,314.73l-.44-2.49q7.54-1.33,15.11-2.64Z"/><path class="cls-2" d="M113.83,346.12c-10.44,7.36-23.74,7.45-36.2,7.26-2.51,0-5.48-.36-6.72-2.76a5.71,5.71,0,0,1,.92-5.91,11.39,11.39,0,0,1,5-3.2,39.12,39.12,0,0,1,24.26-1.22,39.63,39.63,0,0,1,5.82,2.09A68.49,68.49,0,0,1,113.83,346.12Z"/><path class="cls-2" d="M149.84,341.11a8.68,8.68,0,0,1,3.47,4.66,14.49,14.49,0,0,1,.35,7.08,3.1,3.1,0,0,1-.5,1.35,2.67,2.67,0,0,1-1.35.73,36.06,36.06,0,0,1-23.57-1.21A2.82,2.82,0,0,1,127,353a2.62,2.62,0,0,1-.5-1.17A7,7,0,0,1,129,345.4a14.24,14.24,0,0,1,6.08-2.75c.9-.22,1.81-.42,2.72-.6A53,53,0,0,1,149.84,341.11Z"/><path class="cls-1" d="M84.2,267.12c3-17.29,4.69-32.34,2.09-52.47l-.49-2c.66-.15,1.32-.33,2-.53,10.87-3.27,19.35-11.63,29.21-17.24,6.84-3.89,14.31-6.45,21.88-8.76,5.17,0,10.63,1.78,12.79,7s2.5,11,2.89,16.67q1.32,19.34,4.09,38.51a36.93,36.93,0,0,0,2.09,9c1.53,3.67,4.24,7.75,2.44,11.26a17.13,17.13,0,0,1-9.69-4.82l-.92.42L94.26,264H92l-.1-.1a29.92,29.92,0,0,1-6.38,4.41,1.05,1.05,0,0,1-.74.15C84.31,268.27,84.12,267.63,84.2,267.12Z"/><path class="cls-1" d="M75.58,146.34c3.16,4.88,9.43,6.84,15.24,6.88.55,0,1.09,0,1.64,0l.65,13.19c-7.44.8-15.38-.93-22.42-3.42-12.28-4.36-21-15.1-29-25.34-.15.11-.29.21-.43.33q-4.77-16.17-9.55-32.37l.29-1.7a131.44,131.44,0,0,0,24.29,1.33l34.46-.69,0,1c-10.86,4.55-16.63,16.89-17.44,28.64C73,138.35,73.3,142.81,75.58,146.34Z"/><path class="cls-1" d="M93.11,166.37l-.65-13.19c-.55,0-1.09,0-1.64,0-5.81,0-12.08-2-15.24-6.88-2.28-3.53-2.56-8-2.28-12.19.81-11.75,6.58-24.09,17.44-28.64l0-1,96-1.92c-5.21,5.13-1,14.42,3.11,20.82,4.29,6.64,7.13,17.44,0,20.81-3.78,1.78-8.46.07-12.34,1.63a27.83,27.83,0,0,0-8,4.41,10.92,10.92,0,0,1-2.46,1.28,6.54,6.54,0,0,0-2.14.73,44.47,44.47,0,0,1-10.61,1.84c-18.46,0-32.67,1.5-53.12,10.23A27.79,27.79,0,0,1,93.11,166.37Z"/><path class="cls-3" d="M114.56,308.38c-1,1.66-3.26,1.53-5.07,1.23L99.64,308l-.24,0a6.69,6.69,0,0,1-3.24-1.22c-1.84-1.53-2-4.46-2-7q.06-17.87.1-35.73l58.3.09a261.93,261.93,0,0,1,2.57,44.61l-5.43,1q-7.56,1.31-15.11,2.64l-1.34.23a5.15,5.15,0,0,1-3.34-.18c-1.63-.88-2-3.15-2.57-5.07-.81-3-2.48-6-5.12-7.14s-6.27.23-6.92,3.28C114.94,305,115.45,307,114.56,308.38Z"/><path class="cls-3" d="M41.23,137.94c.14-.12.28-.22.43-.33,8,10.24,16.75,21,29,25.34,7,2.49,15,4.22,22.42,3.42a27.79,27.79,0,0,0,8-2c20.45-8.73,34.66-10.19,53.12-10.23a44.47,44.47,0,0,0,10.61-1.84c.76-.23,1.48-.47,2.14-.73,7.08-1.16,16.48,8.24,13.14,14.76a16.4,16.4,0,0,1-5.66,5.69c-10.6,7.21-23.23,10.33-35.58,14.11-7.57,2.31-15,4.87-21.88,8.76-9.86,5.61-18.34,14-29.21,17.24-.66.2-1.32.38-2,.53-11.9,2.79-25-1-34.41-8.88-10-8.28-16.15-20.55-18.65-33.27C30.46,158.88,31.9,145.08,41.23,137.94Z"/><path class="cls-3" d="M205,77c9-.62,12.75,13.45,6.48,19.92-5.58,5.77-14.56,6.2-22.53,4.29,1.28-4.37-.54-9.19-3.8-12.66l1.16,0a11.88,11.88,0,0,0,2.92-1.22l.1,0,.15-.09a23.09,23.09,0,0,0,7-5.74C199.06,79.2,201.71,77.25,205,77Z"/><path class="cls-3" d="M24.66,87.58q68.18-6.14,136.71-5.66c6.79,0,13.92.23,19.85,3.55a16.63,16.63,0,0,1,3.95,3.11c3.26,3.47,5.08,8.29,3.8,12.66a10.86,10.86,0,0,1-.48,1.31l-1.76,0-96,1.92-34.46.69A131.44,131.44,0,0,1,32,103.87C20.74,102,10.54,97.68,4.44,88.36l18.67-1.19,1.5-.1Z"/><path class="cls-4" d="M186.33,88.55l-1.16,0a16.63,16.63,0,0,0-3.95-3.11c-5.93-3.32-13.06-3.5-19.85-3.55q-68.43-.47-136.71,5.66l-.05-.51-1.5.1-.05-.81C25.8,52,50.41,20.8,82.64,8.6S153.09,3,180.41,24C191,32.1,200.33,42.87,202.83,55.93a31.68,31.68,0,0,1-6.33,25.52c-2.27,2-4.47,4.25-7,5.74l-.15.09-.1,0A22.75,22.75,0,0,1,186.33,88.55Z"/><path class="cls-5" d="M21.56,87.86c1-.1,2.07-.19,3.1-.27h0q68.18-6.14,136.71-5.66c6.79,0,13.92.23,19.85,3.55a16.63,16.63,0,0,1,3.95,3.11c3.26,3.47,5.08,8.29,3.8,12.66a10.86,10.86,0,0,1-.48,1.31l-1.76,0-96,1.92-34.46.69A131.44,131.44,0,0,1,32,103.87C20.74,102,10.54,97.68,4.44,88.36l18.67-1.19,1.5-.1"/><path class="cls-5" d="M189.5,87.19c2.53-1.49,4.73-3.74,7-5.74,2.56-2.25,5.21-4.2,8.52-4.42,9-.62,12.75,13.45,6.48,19.92-5.58,5.77-14.56,6.2-22.53,4.29-1-.22-1.95-.49-2.89-.79"/><path class="cls-5" d="M189.25,87.33a22.75,22.75,0,0,1-2.92,1.22,11.88,11.88,0,0,0,2.92-1.22"/><path class="cls-5" d="M189.25,87.33l.1,0,.15-.09"/><path class="cls-5" d="M23.06,86.36C25.8,52,50.41,20.8,82.64,8.6S153.09,3,180.41,24C191,32.1,200.33,42.87,202.83,55.93a31.68,31.68,0,0,1-6.33,25.52,23.09,23.09,0,0,1-7,5.74"/><path class="cls-5" d="M31.68,105.57q4.78,16.19,9.55,32.37l.24.83"/><path class="cls-5" d="M90.74,105.51c-10.86,4.55-16.63,16.89-17.44,28.64-.28,4.2,0,8.66,2.28,12.19,3.16,4.88,9.43,6.84,15.24,6.88.55,0,1.09,0,1.64,0A33.45,33.45,0,0,0,118.75,138"/><path class="cls-5" d="M187.34,102a8.18,8.18,0,0,0-.61.55c-5.21,5.13-1,14.42,3.11,20.82,4.29,6.64,7.13,17.44,0,20.81-3.78,1.78-8.46.07-12.34,1.63a27.83,27.83,0,0,0-8,4.41,10.92,10.92,0,0,1-2.46,1.28c-.66.26-1.38.5-2.14.73a44.47,44.47,0,0,1-10.61,1.84c-18.46,0-32.67,1.5-53.12,10.23a27.79,27.79,0,0,1-8,2c-7.44.8-15.38-.93-22.42-3.42-12.28-4.36-21-15.1-29-25.34-.15.11-.29.21-.43.33-9.33,7.14-10.77,20.94-8.49,32.54,2.5,12.72,8.67,25,18.65,33.27,9.45,7.84,22.51,11.67,34.41,8.88.66-.15,1.32-.33,2-.53,10.87-3.27,19.35-11.63,29.21-17.24,6.84-3.89,14.31-6.45,21.88-8.76,12.35-3.78,25-6.9,35.58-14.11a16.4,16.4,0,0,0,5.66-5.69c3.34-6.52-6.06-15.92-13.14-14.76a6.54,6.54,0,0,0-2.14.73"/><path class="cls-5" d="M95.9,232.92c-.52,9.53,0,18.4-2.67,28.55"/><path class="cls-5" d="M147.47,230.34a110.55,110.55,0,0,0,3.9,30.8c.14.53.28,1.06.43,1.6"/><path class="cls-5" d="M92,264h2.28l58.3.09a261.93,261.93,0,0,1,2.57,44.61l-5.43,1q-7.56,1.31-15.11,2.64l-1.34.23a5.15,5.15,0,0,1-3.34-.18c-1.63-.88-2-3.15-2.57-5.07-.81-3-2.48-6-5.12-7.14s-6.27.23-6.92,3.28c-.36,1.67.15,3.61-.74,5-1,1.66-3.26,1.53-5.07,1.23L99.64,308l-.24,0a6.69,6.69,0,0,1-3.24-1.22c-1.84-1.53-2-4.46-2-7q.06-17.87.1-35.73c0-.82,0-1.63,0-2.45"/><path class="cls-5" d="M113.35,310.75q0,16.71,0,33.41c0,.35-.05.79-.36.9s-.43-.62-.13-.51"/><path class="cls-5" d="M99.4,307.9h0a208.59,208.59,0,0,0,1.66,32.38c0,.42.1.84.16,1.26"/><path class="cls-5" d="M135,314.73a125.72,125.72,0,0,0,2.75,27.32"/><path class="cls-5" d="M150.1,311.89q0,13.58,0,27.15a1.34,1.34,0,0,1-.31,1.07.39.39,0,0,1-.46,0,.33.33,0,0,1-.18-.45"/><path class="cls-5" d="M114.83,346.71c-.33-.2-.66-.4-1-.59a68.49,68.49,0,0,0-7-3.74,39.63,39.63,0,0,0-5.82-2.09,39.12,39.12,0,0,0-24.26,1.22,11.39,11.39,0,0,0-5,3.2,5.71,5.71,0,0,0-.92,5.91c1.24,2.4,4.21,2.73,6.72,2.76,12.46.19,25.76.1,36.2-7.26.2-.13.4-.28.59-.42"/><path class="cls-5" d="M149.84,341.11a53,53,0,0,0-12.06.94c-.91.18-1.82.38-2.72.6A14.24,14.24,0,0,0,129,345.4a7,7,0,0,0-2.45,6.38A2.62,2.62,0,0,0,127,353a2.82,2.82,0,0,0,1.21.77,36.06,36.06,0,0,0,23.57,1.21,2.67,2.67,0,0,0,1.35-.73,3.1,3.1,0,0,0,.5-1.35,14.49,14.49,0,0,0-.35-7.08,8.68,8.68,0,0,0-3.47-4.66,5.75,5.75,0,0,0-.77-.42l-.07,0"/><path class="cls-5" d="M138.87,186.1c5.17,0,10.63,1.78,12.79,7s2.5,11,2.89,16.67q1.32,19.34,4.09,38.51a36.93,36.93,0,0,0,2.09,9c1.53,3.67,4.24,7.75,2.44,11.26a17.13,17.13,0,0,1-9.69-4.82,17.94,17.94,0,0,1-2.11-2.48c-.11-.14-.21-.29-.31-.44"/><path class="cls-5" d="M86.29,214.65c2.6,20.13.87,35.18-2.09,52.47-.08.51.11,1.15.56,1.29a1.05,1.05,0,0,0,.74-.15,29.92,29.92,0,0,0,6.38-4.41c.63-.57,1.24-1.16,1.82-1.78"/><circle class="cls-6" cx="127.24" cy="118.37" r="2.25"/><circle class="cls-6" cx="129.49" cy="213.54" r="2.25"/><circle class="cls-6" cx="61.99" cy="117.6" r="2.25"/><circle class="cls-6" cx="106.14" cy="214.65" r="2.25"/></g></g></svg>