<svg xmlns="http://www.w3.org/2000/svg" viewBox="0 0 273.72 344.36"><defs><style>.cls-1{fill:#e9f5f7;}.cls-2{fill:#fbede7;}.cls-3{fill:#d51359;}.cls-4{fill:#2e0e04;}.cls-5{fill:#065c3f;}.cls-6{fill:none;stroke:#231815;stroke-miterlimit:10;stroke-width:5.5px;}</style></defs><g id="レイヤー_2" data-name="レイヤー 2"><g id="レイヤー_1-2" data-name="レイヤー 1"><path class="cls-1" d="M54.7,243A9.47,9.47,0,0,0,44,242.91c-2.26,1.59-3.68,4.1-5.09,6.48A129.4,129.4,0,0,1,21.6,272.3C13.92,280.39,4.69,288.38,3,299.41s5.44,22.33,15.26,27.84,21.71,6.17,32.86,4.58c4.56-.64,9.48-1.89,12.21-5.61,2.22-3,2.48-7,2.3-10.77-.93-19.26-11.19-37.16-12-56.43a14.28,14.28,0,0,1,.91-6.75c.79-1.7,2.16-3.12,2.76-4.9.54-1.61.09-3.78-1.37-4.46Z"/><path class="cls-1" d="M72.53,66c-8,1.5-14.46,10-12.61,18s12.52,12.53,19,7.77c-1.5-4.27.69-9.3,4.22-12.24a24,24,0,0,1,9.33-5A18.52,18.52,0,0,0,79.71,66,19.93,19.93,0,0,0,72.53,66Z"/><path class="cls-2" d="M177.51,151.51h0a32.16,32.16,0,0,0,13,2.54,26.82,26.82,0,0,0,3.79-.34,19,19,0,0,0,6.91-2.41c7-4.23,9.72-13.39,8.61-21.48s-5.31-15.4-9.52-22.4v-.55c-35.31-.24-70.69-3.7-105.88-7.17a48.32,48.32,0,0,1-5.35-.79c1.48,7.75-.57,15.87-7.23,20.09-1.54,1-3.33,1.52-4.8,2.58-3.81,2.75-4.47,8.5-2.45,12.73s6.11,7.13,10.37,9.08c4.07,1.86,8.54,6.41,9.94,10.66l.64.31c5.09-4.32,12.85-5.65,20.18-5.52,1.13,0,2.25.07,3.35.16C138.81,149.87,157.93,148.61,177.51,151.51Zm-31.36-31.95a2.37,2.37,0,0,1,0-3.36,2.78,2.78,0,0,1,3.48-.1,1.77,1.77,0,0,1-.36,2.78A2.06,2.06,0,0,1,146.15,119.56Z"/><path class="cls-1" d="M92.5,74.56a24,24,0,0,0-9.33,5c-3.53,2.94-5.72,8-4.22,12.24.07.22.16.43.25.64,1.71,3.81,5.66,5.58,9.91,6.49a48.32,48.32,0,0,0,5.35.79c35.19,3.47,70.57,6.93,105.88,7.17,15,.12,30-.36,44.95-1.67,1.22-.09,2.44-.2,3.66-.32,6.05-.58,12.44-1.44,17.17-5.25s6.77-11.6,2.58-16a10.93,10.93,0,0,0-6.18-2.9c-3.2-.61-7-.72-10.82-1.71-81-5.23-103.87-3.38-155.25-4.88A15.48,15.48,0,0,0,92.5,74.56Z"/><path class="cls-3" d="M95.7,21.22C83.3,32.16,75.87,49.57,79.76,65.64l-.05.35A18.52,18.52,0,0,1,92.5,74.56a15.48,15.48,0,0,1,4-.42c51.38,1.5,74.27-.35,155.25,4.88,3.86,1,7.62,1.1,10.82,1.71,1.77-16.63-8.69-32.19-20.91-43.59A129.85,129.85,0,0,0,141.12,3.4C124.68,5.1,108.09,10.29,95.7,21.22Z"/><path class="cls-3" d="M83.28,235.72c-.19,6.78,2.86,12.78,7.17,18.16a93,93,0,0,0,11,11.14c2.42,2.15,5.46,4.42,8.5,4.42a65.28,65.28,0,0,1,4.24-38.55c5-11.26,13.28-21.55,14.13-33.82l3.56-.35a12.75,12.75,0,0,0-1.78-1.16c-5.27-2.9-10.34-7.18-15.09-11.51l-3.49.17a111.72,111.72,0,0,0-25.87,40.91A34.74,34.74,0,0,0,83.28,235.72Z"/><path class="cls-2" d="M87.37,254.25c-7.54,4.38-9,16.37-2.71,22.43a28.64,28.64,0,0,0,6.7,4.37c5,2.61,10.69,5.22,16.09,5.37a13.79,13.79,0,0,0,7.58-1.8c-1.38-1.24-2.51-3.38-1.36-4.47a9.6,9.6,0,0,1-1.74-3.26,63.69,63.69,0,0,1-1.94-7.45c-3,0-6.08-2.27-8.5-4.42a93,93,0,0,1-11-11.14Z"/><path class="cls-1" d="M119.11,149c-1.11,0-2.23-.1-3.35-.16-7.33-.13-15.09,1.2-20.18,5.52a15.41,15.41,0,0,0-4,5.1c-3.77,7.88,10.78,12.84,17.18,18.79,2,1.86,4.09,3.83,6.24,5.8,4.75,4.33,9.82,8.61,15.09,11.51a12.75,12.75,0,0,1,1.78,1.16c5,3.9,3.28,9.14,8.72,14.25,3.22,3,6.35,6.34,10.43,8s8.83,1.54,13.33,1.33l30.84-1.41c3-.14,6.14-.32,8.75-1.81.22-.13.43-.26.64-.41a21.85,21.85,0,0,0,3.85-3.66c11-12.3,10.85-24.65,21.8-36.95,4.94-5.55,13.23-13.29,10.24-20.09-1.77-4-3.22-6.3-5.46-7.18-1.82-.71-4.16-.51-7.61.39-10.59,2.76-10.33,5.21-33.06,4.84l0-.34a26.82,26.82,0,0,1-3.79.34,32.16,32.16,0,0,1-13-2.54h0C157.93,148.61,138.81,149.87,119.11,149Z"/><path class="cls-4" d="M101.9,320.55a15,15,0,0,0-.45,6.33c.94,4.3,5.32,6.82,9.33,8.63,6.44,2.91,13.18,5.42,20.21,6s14.47-1,20-5.41l1.13-.18a62.11,62.11,0,0,1-.62-14.73l-1-1.06v-.48a51,51,0,0,1-15.11-.11,82.15,82.15,0,0,1-15-4.57c-3.25-1.22-6.6-2.51-9.07-5a1.8,1.8,0,0,1-.19-.2l-.06.06c-2.57-.4-5.11,1.23-6.56,3.38A20.74,20.74,0,0,0,101.9,320.55Z"/><path class="cls-3" d="M107.38,288.78c-.87,7.32-1.37,15.76,3.73,21a1.8,1.8,0,0,0,.19.2c2.47,2.45,5.82,3.74,9.07,5a82.15,82.15,0,0,0,15,4.57,51,51,0,0,0,15.11.11V297l0-1.11a54.74,54.74,0,0,1-35.08-10.95l-.35-.29a13.79,13.79,0,0,1-7.58,1.8Z"/><path class="cls-3" d="M160.62,248.33a3.51,3.51,0,0,1,2.28,2.57,4.13,4.13,0,0,1-1.24,3.75,4.41,4.41,0,0,1-5.12.63,4,4,0,0,1-1.7-4.79,3.71,3.71,0,0,1,4.54-2.09Zm-1.57-18.46a21.58,21.58,0,0,1,3.52,2.35,5.75,5.75,0,0,1,2.28,3.26,4.26,4.26,0,0,1-2.93,4.34,8.9,8.9,0,0,1-5.58-.19,2.44,2.44,0,0,1-1.38-.82,2.5,2.5,0,0,1-.22-1.71c.32-2.72,1.36-5.85,4-6.64ZM189.7,276a2,2,0,0,0,0,1.63C200.09,275.2,207,262.11,209.48,252s.75-22.44-2.51-31.91l-2.34-3.41c-.21.15-.42.28-.64.41-2.61,1.49-5.74,1.67-8.75,1.81l-30.84,1.41c-4.5.21-9.17.39-13.33-1.33s-7.21-5-10.43-8c-5.44-5.11-3.71-10.35-8.72-14.25l-3.56.35c-.85,12.27-9.17,22.56-14.13,33.82A65.28,65.28,0,0,0,110,269.44a63.69,63.69,0,0,0,1.94,7.45,9.6,9.6,0,0,0,1.74,3.26c-1.15,1.09,0,3.23,1.36,4.47l.35.29a54.74,54.74,0,0,0,35.08,10.95,53.17,53.17,0,0,0,24.1-6.5,30.05,30.05,0,0,0,7.55-5.63,22.1,22.1,0,0,0,1.63-2,34.32,34.32,0,0,0,3.72-6.75ZM155,272.05c-.95-1.14-.72-2.82-.44-4.28a6.65,6.65,0,0,1,.78-2.35,2.25,2.25,0,0,1,2.08-1.14l1.4,0a3.53,3.53,0,0,1,1.25-.26c2.44,0,4.24,2.85,3.58,5.2a5.93,5.93,0,0,1-5.62,3.89A3.79,3.79,0,0,1,155,272.05Z"/><path class="cls-2" d="M146.18,116.2a2.37,2.37,0,0,0,0,3.36,2.06,2.06,0,0,0,3.15-.68,1.77,1.77,0,0,0,.36-2.78A2.78,2.78,0,0,0,146.18,116.2Z"/><path class="cls-3" d="M150.46,295.86l0,1.11v22.67c7.16-.91,14.28-2.95,21.23-5,3.14-.92,6.5-2,8.6-4.47l.15-.18c1.54-1.93,2.12-4.44,2.56-6.87a88.24,88.24,0,0,0,1.22-21l-.53-.38a22.1,22.1,0,0,1-1.63,2,30.05,30.05,0,0,1-7.55,5.63A53.17,53.17,0,0,1,150.46,295.86Z"/><path class="cls-4" d="M150.51,319.64v.48l1,1.06a62.11,62.11,0,0,0,.62,14.73l.09.54a2.78,2.78,0,0,0,.8,1.81,2.92,2.92,0,0,0,1.85.44l20.08.11a35.82,35.82,0,0,0,10.39-1c7.7-2.29,13-9.56,15.59-17.16,1.22-3.57,1.78-8-.9-10.68-1.88-1.85-4.73-2.18-7.36-2.37-4.28-.3-9.07-.3-12.2,2.63l-.08-.07c-2.1,2.5-5.46,3.55-8.6,4.47C164.79,316.69,157.67,318.73,150.51,319.64Z"/><path class="cls-5" d="M158.86,264.32l-1.4,0a2.25,2.25,0,0,0-2.08,1.14,6.65,6.65,0,0,0-.78,2.35c-.28,1.46-.51,3.14.44,4.28a3.79,3.79,0,0,0,3,1.1,5.93,5.93,0,0,0,5.62-3.89c.66-2.35-1.14-5.24-3.58-5.2A3.53,3.53,0,0,0,158.86,264.32Z"/><path class="cls-5" d="M154.74,237.1a2.5,2.5,0,0,0,.22,1.71,2.44,2.44,0,0,0,1.38.82,8.9,8.9,0,0,0,5.58.19,4.26,4.26,0,0,0,2.93-4.34,5.75,5.75,0,0,0-2.28-3.26,21.58,21.58,0,0,0-3.52-2.35l-.32.59C156.1,231.25,155.06,234.38,154.74,237.1Z"/><path class="cls-5" d="M154.84,250.49a4,4,0,0,0,1.7,4.79,4.41,4.41,0,0,0,5.12-.63,4.13,4.13,0,0,0,1.24-3.75,3.51,3.51,0,0,0-2.28-2.57l-1.24.07A3.71,3.71,0,0,0,154.84,250.49Z"/><path class="cls-2" d="M194.34,153.71l0,.34c22.73.37,22.47-2.08,33.06-4.84,3.45-.9,5.79-1.1,7.61-.39l.57-1q4.89-20.59,9.79-41.17l-.13-1.47c-15,1.31-29.95,1.79-44.95,1.67v.55c4.21,7,8.41,14.3,9.52,22.4s-1.61,17.25-8.61,21.48A19,19,0,0,1,194.34,153.71Zm29.88-31.21c-1.47-.37-2.05-2.68-.78-3.49.4-.59,2.76-1.39,3.3-.92a2.19,2.19,0,0,1,.64,2A2.79,2.79,0,0,1,224.22,122.5Z"/><path class="cls-2" d="M223.44,119c-1.27.81-.69,3.12.78,3.49a2.79,2.79,0,0,0,3.16-2.45,2.19,2.19,0,0,0-.64-2C226.2,117.62,223.84,118.42,223.44,119Z"/><path class="cls-6" d="M251.7,79c-81-5.23-103.87-3.38-155.25-4.88a15.48,15.48,0,0,0-4,.42,24,24,0,0,0-9.33,5c-3.53,2.94-5.72,8-4.22,12.24.07.22.16.43.25.64,1.71,3.81,5.66,5.58,9.91,6.49a48.32,48.32,0,0,0,5.35.79c35.19,3.47,70.57,6.93,105.88,7.17,15,.12,30-.36,44.95-1.67,1.22-.09,2.44-.2,3.66-.32,6.05-.58,12.44-1.44,17.17-5.25s6.77-11.6,2.58-16a10.93,10.93,0,0,0-6.18-2.9c-3.2-.61-7-.72-10.82-1.71"/><path class="cls-6" d="M262.52,80.76v0c1.77-16.63-8.69-32.19-20.91-43.59A129.85,129.85,0,0,0,141.12,3.4c-16.44,1.7-33,6.89-45.42,17.82S75.87,49.57,79.76,65.64"/><path class="cls-6" d="M92.78,75c-.09-.16-.18-.31-.28-.46A18.52,18.52,0,0,0,79.71,66a19.93,19.93,0,0,0-7.18.05c-8,1.5-14.46,10-12.61,18s12.52,12.53,19,7.77l.17-.12"/><path class="cls-6" d="M177.51,151.51A33.07,33.07,0,0,1,162,138.36"/><path class="cls-6" d="M200.34,107.42c4.21,7,8.41,14.3,9.52,22.4s-1.61,17.25-8.61,21.48a19,19,0,0,1-6.91,2.41,26.82,26.82,0,0,1-3.79.34,32.16,32.16,0,0,1-13-2.54"/><path class="cls-6" d="M115.76,148.84c1.12.06,2.24.12,3.35.16,19.7.87,38.82-.39,58.4,2.51h0"/><path class="cls-6" d="M119.75,149.05l-.64-.05c-1.1-.09-2.22-.14-3.35-.16-7.33-.13-15.09,1.2-20.18,5.52a15.41,15.41,0,0,0-4,5.1c-3.77,7.88,10.78,12.84,17.18,18.79,2,1.86,4.09,3.83,6.24,5.8,4.75,4.33,9.82,8.61,15.09,11.51a12.75,12.75,0,0,1,1.78,1.16c5,3.9,3.28,9.14,8.72,14.25,3.22,3,6.35,6.34,10.43,8s8.83,1.54,13.33,1.33l30.84-1.41c3-.14,6.14-.32,8.75-1.81.22-.13.43-.26.64-.41a21.85,21.85,0,0,0,3.85-3.66c11-12.3,10.85-24.65,21.8-36.95,4.94-5.55,13.23-13.29,10.24-20.09-1.77-4-3.22-6.3-5.46-7.18-1.82-.71-4.16-.51-7.61.39-10.59,2.76-10.33,5.21-33.06,4.84"/><path class="cls-6" d="M245.42,106.67q-4.89,20.58-9.79,41.17"/><path class="cls-6" d="M89.11,98.91c1.48,7.75-.57,15.87-7.23,20.09-1.54,1-3.33,1.52-4.8,2.58-3.81,2.75-4.47,8.5-2.45,12.73s6.11,7.13,10.37,9.08c4.07,1.86,8.54,6.41,9.94,10.66"/><path class="cls-6" d="M223.44,119c-1.27.81-.69,3.12.78,3.49a2.79,2.79,0,0,0,3.16-2.45,2.19,2.19,0,0,0-.64-2C226.2,117.62,223.84,118.42,223.44,119Z"/><path class="cls-6" d="M149.3,118.88a1.77,1.77,0,0,0,.36-2.78,2.78,2.78,0,0,0-3.48.1,2.37,2.37,0,0,0,0,3.36A2.06,2.06,0,0,0,149.3,118.88Z"/><path class="cls-6" d="M197.73,224a138.24,138.24,0,0,1-9,47.77c-.42,1.09-.85,2.18-1.31,3.25a34.32,34.32,0,0,1-3.72,6.75,22.1,22.1,0,0,1-1.63,2,30.05,30.05,0,0,1-7.55,5.63,53.17,53.17,0,0,1-24.1,6.5,54.74,54.74,0,0,1-35.08-10.95l-.35-.29c-1.38-1.24-2.51-3.38-1.36-4.47a1.76,1.76,0,0,1,.3-.24"/><path class="cls-6" d="M128.36,197.07c-.85,12.27-9.17,22.56-14.13,33.82A65.28,65.28,0,0,0,110,269.44a63.69,63.69,0,0,0,1.94,7.45,9.6,9.6,0,0,0,1.74,3.26,3.16,3.16,0,0,0,3,1.3"/><path class="cls-6" d="M111.56,184.22a111.72,111.72,0,0,0-25.87,40.91,34.74,34.74,0,0,0-2.41,10.59c-.19,6.78,2.86,12.78,7.17,18.16a93,93,0,0,0,11,11.14c2.42,2.15,5.46,4.42,8.5,4.42a5.76,5.76,0,0,0,2.2-.44"/><path class="cls-6" d="M87.37,254.25c-7.54,4.38-9,16.37-2.71,22.43a28.64,28.64,0,0,0,6.7,4.37c5,2.61,10.69,5.22,16.09,5.37a13.79,13.79,0,0,0,7.58-1.8l.06,0"/><path class="cls-6" d="M207,220.11c3.26,9.47,5,21.81,2.51,31.91s-9.39,23.18-19.74,25.61a2,2,0,0,1,0-1.63,1.94,1.94,0,0,1,.87-1"/><path class="cls-6" d="M158.73,230.46c-2.63.79-3.67,3.92-4,6.64a2.5,2.5,0,0,0,.22,1.71,2.44,2.44,0,0,0,1.38.82,8.9,8.9,0,0,0,5.58.19,4.26,4.26,0,0,0,2.93-4.34,5.75,5.75,0,0,0-2.28-3.26,21.58,21.58,0,0,0-3.52-2.35c-.18-.11-.35-.2-.53-.29"/><path class="cls-6" d="M159.38,248.4a3.71,3.71,0,0,0-4.54,2.09,4,4,0,0,0,1.7,4.79,4.41,4.41,0,0,0,5.12-.63,4.13,4.13,0,0,0,1.24-3.75,3.51,3.51,0,0,0-2.28-2.57,2.78,2.78,0,0,0-.5-.11"/><path class="cls-6" d="M157.46,264.28a2.25,2.25,0,0,0-2.08,1.14,6.65,6.65,0,0,0-.78,2.35c-.28,1.46-.51,3.14.44,4.28a3.79,3.79,0,0,0,3,1.1,5.93,5.93,0,0,0,5.62-3.89c.66-2.35-1.14-5.24-3.58-5.2a3.53,3.53,0,0,0-1.25.26,3.4,3.4,0,0,0-.67.38"/><path class="cls-6" d="M150.51,297v23.15"/><path class="cls-6" d="M107.38,288.78c-.87,7.32-1.37,15.76,3.73,21a1.8,1.8,0,0,0,.19.2c2.47,2.45,5.82,3.74,9.07,5a82.15,82.15,0,0,0,15,4.57,51,51,0,0,0,15.11.11c7.16-.91,14.28-2.95,21.23-5,3.14-.92,6.5-2,8.6-4.47l.15-.18c1.54-1.93,2.12-4.44,2.56-6.87a88.24,88.24,0,0,0,1.22-21"/><path class="cls-6" d="M151.46,321.18a62.11,62.11,0,0,0,.62,14.73l.09.54a2.78,2.78,0,0,0,.8,1.81,2.92,2.92,0,0,0,1.85.44l20.08.11a35.82,35.82,0,0,0,10.39-1c7.7-2.29,13-9.56,15.59-17.16,1.22-3.57,1.78-8-.9-10.68-1.88-1.85-4.73-2.18-7.36-2.37-4.28-.3-9.07-.3-12.2,2.63"/><path class="cls-6" d="M151,336.09c-5.49,4.45-12.92,6-20,5.41s-13.77-3.08-20.21-6c-4-1.81-8.39-4.33-9.33-8.63a15,15,0,0,1,.45-6.33,20.74,20.74,0,0,1,2.59-7.31c1.45-2.15,4-3.78,6.56-3.38"/><path class="cls-6" d="M107.74,184.43,92.83,199.37c-6.8,6.82-13.67,13.7-21.75,19-5.1,3.32-10.78,6.09-14.54,10.87-2.82,3.59-4.38,8.12-7.62,11.34"/><path class="cls-6" d="M55.35,243.54a8.22,8.22,0,0,0-.65-.52A9.47,9.47,0,0,0,44,242.91c-2.26,1.59-3.68,4.1-5.09,6.48A129.4,129.4,0,0,1,21.6,272.3C13.92,280.39,4.69,288.38,3,299.41s5.44,22.33,15.26,27.84,21.71,6.17,32.86,4.58c4.56-.64,9.48-1.89,12.21-5.61,2.22-3,2.48-7,2.3-10.77-.93-19.26-11.19-37.16-12-56.43a14.28,14.28,0,0,1,.91-6.75c.79-1.7,2.16-3.12,2.76-4.9.54-1.61.09-3.78-1.37-4.46a2.56,2.56,0,0,0-.49-.16"/></g></g></svg>