<svg xmlns="http://www.w3.org/2000/svg" viewBox="0 0 217.11 346.01"><defs><style>.cls-1{fill:#e9f5f7;}.cls-2{fill:#d51359;}.cls-3{fill:#fbede7;}.cls-4{fill:#2e0e04;}.cls-5{fill:#231815;}.cls-6{fill:none;stroke:#231815;stroke-miterlimit:10;stroke-width:5px;}</style></defs><g id="レイヤー_2" data-name="レイヤー 2"><g id="レイヤー_1-2" data-name="レイヤー 1"><path class="cls-1" d="M12.09,77C3.09,76.41-.66,90.48,5.61,97c5.58,5.77,14.56,6.2,22.53,4.29-1.28-4.37.54-9.19,3.8-12.66l-1.16,0a11.88,11.88,0,0,1-2.92-1.22l-.1,0-.15-.09a23.09,23.09,0,0,1-7-5.74C18.05,79.2,15.4,77.25,12.09,77Z"/><path class="cls-2" d="M14.28,55.93a31.68,31.68,0,0,0,6.33,25.52c2.27,2,4.47,4.25,7,5.74l.15.09.1,0a22.75,22.75,0,0,0,2.92,1.22l1.16,0a16.63,16.63,0,0,1,3.95-3.11C41.82,82.15,49,82,55.74,81.92q68.43-.47,136.71,5.66l.05-.51,1.5.1.05-.81C191.31,52,166.7,20.8,134.47,8.6S64,3,36.7,24C26.16,32.1,16.78,42.87,14.28,55.93Z"/><path class="cls-3" d="M124.65,153.18c.55,0,1.09,0,1.64,0,5.81,0,12.08-2,15.24-6.88,2.28-3.53,2.56-8,2.28-12.19-.81-11.75-6.58-24.09-17.44-28.64l0-1-96-1.92c5.21,5.13,1,14.42-3.11,20.82-4.29,6.64-7.13,17.44,0,20.81,3.78,1.78,8.46.07,12.34,1.63a27.83,27.83,0,0,1,8,4.41,10.92,10.92,0,0,0,2.46,1.28,6.54,6.54,0,0,1,2.14.73,44.47,44.47,0,0,0,10.61,1.84c18.46,0,32.67,1.5,53.12,10.23a27.79,27.79,0,0,0,8,2Zm-37-34.81a2.25,2.25,0,1,1,2.25,2.25A2.25,2.25,0,0,1,87.62,118.37Z"/><path class="cls-1" d="M28.14,101.24a10.86,10.86,0,0,0,.48,1.31l1.76,0,96,1.92,34.46.69a131.44,131.44,0,0,0,24.29-1.33c11.23-1.88,21.43-6.19,27.53-15.51L194,87.17l-1.5-.1-.05.51q-68.17-6.14-136.71-5.66c-6.79,0-13.92.23-19.85,3.55a16.63,16.63,0,0,0-3.95,3.11C28.68,92.05,26.86,96.87,28.14,101.24Z"/><path class="cls-1" d="M87.82,189.27a82.1,82.1,0,0,1,12.3,5.59c9.86,5.61,18.34,14,29.21,17.24a34.36,34.36,0,0,0,4.76,1.06c11.12,1.65,22.91-2.17,31.63-9.41,10-8.28,16.15-20.55,18.65-33.27,2.28-11.6.84-25.4-8.49-32.54-.14-.12-.28-.22-.43-.33-8,10.24-16.75,21-29,25.34-7,2.49-15,4.22-22.42,3.42a27.79,27.79,0,0,1-8-2c-20.45-8.73-34.66-10.19-53.12-10.23a44.47,44.47,0,0,1-10.61-1.84c-.76-.23-1.48-.47-2.14-.73-7.08-1.16-16.48,8.24-13.14,14.76A16.4,16.4,0,0,0,42.66,172C56,181.08,72.62,183.68,87.82,189.27Z"/><path class="cls-4" d="M54.61,319.23c-1.25.09-1.52,1.78-1.42,3,.21,2.71.46,5.41.77,8.1a9.1,9.1,0,0,0,.64,2.84,6.29,6.29,0,0,0,5.06,3.24,18.71,18.71,0,0,0,6.21-.68,3.9,3.9,0,0,0,2.37-1.16c1-1.32,0-3.21-1.08-4.49a42.91,42.91,0,0,0-4.62-4.72,44.28,44.28,0,0,0-5.15-3.89c-.86-.55-1.84-1.4-1.84-2.31Z"/><path class="cls-3" d="M55.67,318.64a1.18,1.18,0,0,0-.12.54c0,.91,1,1.76,1.84,2.31a44.28,44.28,0,0,1,5.15,3.89l.51-.61,6.35-4.89c4.86-3.74,9.87-7.66,12.71-13.09l.26-1.33A30.42,30.42,0,0,1,76.69,304l-5,.05a111.26,111.26,0,0,1-15.23,13.79A2.66,2.66,0,0,0,55.67,318.64Z"/><path class="cls-1" d="M68.65,294.79a6.94,6.94,0,0,0,0,2.8,5.85,5.85,0,0,0,1.84,2.62A19.13,19.13,0,0,0,76.69,304a30.42,30.42,0,0,0,5.68,1.51,77.13,77.13,0,0,0,10.5.84q3.25-6.81,6.49-13.62c.89-1.87,3-4.06,4.58-2.78a3.53,3.53,0,0,1,.9,2.81q.12,6,.22,11.9l1.15.1,7.13.64a26.79,26.79,0,0,0,3.92.09c2.92-.17,5.69-1,6.94-3.52a10.25,10.25,0,0,0,.55-5.37q-1.08-14-2.17-28v-1.18a357.13,357.13,0,0,1-46.23-2.92l-.22,1.75A123.16,123.16,0,0,0,68.65,294.79Z"/><path class="cls-3" d="M77.07,253l-1.65,0c-.25,1.75,0,9.59.49,11.3l.44.06a357.13,357.13,0,0,0,46.23,2.92h.17a2.13,2.13,0,0,0,1.43-.35,2.16,2.16,0,0,0,.54-1.43,276.6,276.6,0,0,0,1.69-38.18l1,0A29.25,29.25,0,0,0,145.29,250a8.36,8.36,0,0,0,4.41.74c1.21-.91,1.11-2.86.24-4.1a11.56,11.56,0,0,0-3.54-2.79,22.61,22.61,0,0,1-8.34-9,38.37,38.37,0,0,1-2.68-8.75l-1.95-8.89.66-4.1a34.36,34.36,0,0,1-4.76-1.06c-10.87-3.27-19.35-11.63-29.21-17.24a82.1,82.1,0,0,0-12.3-5.59c-4.2,2.77-12.48,4.6-11.48,12,1.86,13.86-1.1,28.08-1.64,42.12-.11,2.65-.69,5.61.71,7.86A6.74,6.74,0,0,0,77.07,253Zm23.82-34.39a2.25,2.25,0,1,1,2.24,2.25A2.24,2.24,0,0,1,100.89,218.64Zm14.71,0a2.25,2.25,0,1,1,2.24,2.25A2.24,2.24,0,0,1,115.6,218.64Z"/><circle class="cls-5" cx="89.87" cy="118.37" r="2.25"/><path class="cls-5" d="M103.13,216.4a2.25,2.25,0,1,0,2.25,2.24A2.24,2.24,0,0,0,103.13,216.4Z"/><path class="cls-3" d="M109.9,335.93l1.59.36a28.45,28.45,0,0,1,6.35-2.79q-.44-13.37-.49-26.73l-.09-1.33a26.79,26.79,0,0,1-3.92-.09l-7.13-.64-.1,1.13q1.62,14.88,3.23,29.77c0,.21.07.45.26.53A.24.24,0,0,0,109.9,335.93Z"/><path class="cls-4" d="M117.84,333.5a28.45,28.45,0,0,0-6.35,2.79l-1.41.84.77,1.4c-.86,1.29,0,3.15,1.27,4a8.8,8.8,0,0,0,4.5.86l13.6.16a2.7,2.7,0,0,0,1.84-.43,2.28,2.28,0,0,0,.56-1.88c-.26-4.62-5-8-9.57-8.31A15.81,15.81,0,0,0,117.84,333.5Z"/><path class="cls-5" d="M117.84,216.4a2.25,2.25,0,1,0,2.25,2.24A2.24,2.24,0,0,0,117.84,216.4Z"/><path class="cls-3" d="M124.65,153.18,124,166.37c7.44.8,15.38-.93,22.42-3.42,12.28-4.36,21-15.1,29-25.34.15.11.29.21.43.33q4.77-16.17,9.55-32.37l-.29-1.7a131.44,131.44,0,0,1-24.29,1.33l-34.46-.69,0,1c10.86,4.55,16.63,16.89,17.44,28.64.28,4.2,0,8.66-2.28,12.19-3.16,4.88-9.43,6.84-15.24,6.88C125.74,153.22,125.2,153.21,124.65,153.18Zm28.22-35.58a2.25,2.25,0,1,1,2.25,2.24A2.25,2.25,0,0,1,152.87,117.6Z"/><path class="cls-5" d="M155.12,115.35a2.25,2.25,0,1,0,2.25,2.25A2.25,2.25,0,0,0,155.12,115.35Z"/><path class="cls-6" d="M195.55,87.86c-1-.1-2.07-.19-3.1-.27h0q-68.17-6.14-136.71-5.66c-6.79,0-13.92.23-19.85,3.55a16.63,16.63,0,0,0-3.95,3.11c-3.26,3.47-5.08,8.29-3.8,12.66a10.86,10.86,0,0,0,.48,1.31l1.76,0,96,1.92,34.46.69a131.44,131.44,0,0,0,24.29-1.33c11.23-1.88,21.43-6.19,27.53-15.51L194,87.17l-1.5-.1"/><path class="cls-6" d="M27.61,87.19c-2.53-1.49-4.73-3.74-7-5.74-2.56-2.25-5.21-4.2-8.52-4.42C3.09,76.41-.66,90.48,5.61,97c5.58,5.77,14.56,6.2,22.53,4.29,1-.22,1.95-.49,2.89-.79"/><path class="cls-6" d="M27.86,87.33a22.75,22.75,0,0,0,2.92,1.22,11.88,11.88,0,0,1-2.92-1.22"/><path class="cls-6" d="M27.86,87.33l-.1,0-.15-.09"/><path class="cls-6" d="M194.05,86.36C191.31,52,166.7,20.8,134.47,8.6S64,3,36.7,24C26.16,32.1,16.78,42.87,14.28,55.93a31.68,31.68,0,0,0,6.33,25.52,23.09,23.09,0,0,0,7,5.74"/><path class="cls-6" d="M185.43,105.57q-4.78,16.19-9.55,32.37l-.24.83"/><path class="cls-6" d="M126.37,105.51c10.86,4.55,16.63,16.89,17.44,28.64.28,4.2,0,8.66-2.28,12.19-3.16,4.88-9.43,6.84-15.24,6.88-.55,0-1.09,0-1.64,0A33.45,33.45,0,0,1,98.36,138"/><path class="cls-6" d="M29.77,102a8.18,8.18,0,0,1,.61.55c5.21,5.13,1,14.42-3.11,20.82-4.29,6.64-7.13,17.44,0,20.81,3.78,1.78,8.46.07,12.34,1.63a27.83,27.83,0,0,1,8,4.41,10.92,10.92,0,0,0,2.46,1.28c.66.26,1.38.5,2.14.73a44.47,44.47,0,0,0,10.61,1.84c18.46,0,32.67,1.5,53.12,10.23a27.79,27.79,0,0,0,8,2c7.44.8,15.38-.93,22.42-3.42,12.28-4.36,21-15.1,29-25.34.15.11.29.21.43.33,9.33,7.14,10.77,20.94,8.49,32.54-2.5,12.72-8.67,25-18.65,33.27-8.72,7.24-20.51,11.06-31.63,9.41a34.36,34.36,0,0,1-4.76-1.06c-10.87-3.27-19.35-11.63-29.21-17.24a82.1,82.1,0,0,0-12.3-5.59C72.62,183.68,56,181.08,42.66,172A16.4,16.4,0,0,1,37,166.3c-3.34-6.52,6.06-15.92,13.14-14.76a6.54,6.54,0,0,1,2.14.73"/><path class="cls-6" d="M87.9,189.22l-.08.05c-4.2,2.77-12.48,4.6-11.48,12,1.86,13.86-1.1,28.08-1.64,42.12-.11,2.65-.69,5.61.71,7.86A6.74,6.74,0,0,0,77.07,253c3.81,2.87,11.7,4.44,17.74,5.36a11.81,11.81,0,0,0,5.19,0,4.1,4.1,0,0,0,3.13-3.72c-.11-3.22-3.7-5-7.32-5.4-3.35-.37-9.16-1.88-9.84-5.18a34.32,34.32,0,0,1,0-10.07"/><path class="cls-6" d="M126.38,226c0,.46,0,.92,0,1.38a276.6,276.6,0,0,1-1.69,38.18,2.16,2.16,0,0,1-.54,1.43,2.13,2.13,0,0,1-1.43.35h-.17a357.13,357.13,0,0,1-46.23-2.92l-.44-.06c-.49-1.71-.74-9.55-.49-11.3"/><path class="cls-6" d="M76.13,266.17a123.16,123.16,0,0,0-7.48,28.62,6.94,6.94,0,0,0,0,2.8,5.85,5.85,0,0,0,1.84,2.62A19.13,19.13,0,0,0,76.69,304a30.42,30.42,0,0,0,5.68,1.51,77.13,77.13,0,0,0,10.5.84q3.25-6.81,6.49-13.62c.89-1.87,3-4.06,4.58-2.78a3.53,3.53,0,0,1,.9,2.81q.12,6,.22,11.9l1.15.1,7.13.64a26.79,26.79,0,0,0,3.92.09c2.92-.17,5.69-1,6.94-3.52a10.25,10.25,0,0,0,.55-5.37q-1.08-14-2.17-28"/><path class="cls-6" d="M106.11,305.84q1.62,14.88,3.23,29.77c0,.21.07.45.26.53a.24.24,0,0,0,.3-.21.12.12,0,0,0-.08-.11"/><path class="cls-6" d="M117.35,306.77q.06,13.37.49,26.73v0"/><path class="cls-6" d="M110.08,337.13l1.41-.84a28.45,28.45,0,0,1,6.35-2.79,15.81,15.81,0,0,1,5.21-.61c4.61.28,9.31,3.69,9.57,8.31a2.28,2.28,0,0,1-.56,1.88,2.7,2.7,0,0,1-1.84.43l-13.6-.16a8.8,8.8,0,0,1-4.5-.86c-1.32-.81-2.13-2.67-1.27-4"/><path class="cls-6" d="M82.11,306.79c-2.84,5.43-7.85,9.35-12.71,13.09l-6.35,4.89"/><path class="cls-6" d="M71.72,304a111.26,111.26,0,0,1-15.23,13.79,2.66,2.66,0,0,0-.82.85,1.18,1.18,0,0,0-.12.54c0,.91,1,1.76,1.84,2.31a44.28,44.28,0,0,1,5.15,3.89,42.91,42.91,0,0,1,4.62,4.72c1.08,1.28,2.1,3.17,1.08,4.49a3.9,3.9,0,0,1-2.37,1.16,18.71,18.71,0,0,1-6.21.68,6.29,6.29,0,0,1-5.06-3.24,9.1,9.1,0,0,1-.64-2.84c-.31-2.69-.56-5.39-.77-8.1-.1-1.24.17-2.93,1.42-3"/><path class="cls-6" d="M133.43,217.26l1.95,8.89a38.37,38.37,0,0,0,2.68,8.75,22.61,22.61,0,0,0,8.34,9,11.56,11.56,0,0,1,3.54,2.79c.87,1.24,1,3.19-.24,4.1a8.36,8.36,0,0,1-4.41-.74,29.25,29.25,0,0,1-17.89-22.65"/></g></g></svg>