<svg xmlns="http://www.w3.org/2000/svg" viewBox="0 0 352.11 458.46"><defs><style>.cls-1{fill:#6a4720;}.cls-2{fill:#4e3c2c;}.cls-3{fill:#e9f5f7;}.cls-4{fill:#ce722b;}.cls-5{fill:#fbede7;}.cls-6{fill:#d51359;}.cls-7{fill:none;stroke:#231815;stroke-miterlimit:10;stroke-width:6px;}</style></defs><g id="レイヤー_2" data-name="レイヤー 2"><g id="レイヤー_1-2" data-name="レイヤー 1"><path class="cls-1" d="M131.7,350a328.5,328.5,0,0,1,75.36,15.23c5.75,1.88,11.65,4,15.94,8.32,6.36,6.33,7.9,15.86,9.76,24.64a184.63,184.63,0,0,0,19.11,51c1.11,2,2.33,4.06,4.29,5.26,4.32,2.64,10.37-.47,12.41-5.11s1.09-10-.45-14.86c-4.4-13.83-13.47-27.68-9.6-41.66a5.17,5.17,0,0,1,1.68-2.93c1.7-1.21,4.07-.25,5.77,1,6.31,4.48,10,11.66,14.13,18.21A119.54,119.54,0,0,0,321.81,449c2.51,1.43,6.11,2.6,7.91.34,1.1-1.37.86-3.36.41-5.05C326.58,431,314,422.56,304.91,412.18c-14.8-16.94-20.52-40.24-20.84-62.74-.17-11.83.86-24.37-4.78-34.77l-1.69-5.17a28.16,28.16,0,0,1-6.17.76l-30.84,1.41c-4.5.21-9.17.39-13.33-1.33s-7.21-5-10.43-8a98.74,98.74,0,0,0-19.94-14.5c-7.64-4.2-16-7.48-22.35-13.4l-.29.33c-15.46-9.74-35.41-7.09-53.3-3.41a209.28,209.28,0,0,0-24.11,6.23c-9.09,3-17.73,7-25.11,12.52A55.28,55.28,0,0,0,59.62,302.3c-16.28,22.8-11.43,55.11-25,79.62C27.55,394.67,16,404.3,7.54,416.15,5.2,419.42,3,423.09,3,427.12s3,8.3,7,8.31,6.93-4,9.35-7.32A60,60,0,0,1,50.88,406c6.69-1.93,13.94-2.8,20.31-5.32a27.65,27.65,0,0,0,7.67-4.39c14-11.62,10.41-36,24-48.16l1.86.74Q118.2,348.88,131.7,350Z"/><path class="cls-2" d="M104.67,348.88l-1.86-.74c-13.54,12.19-9.92,36.54-24,48.16a27.65,27.65,0,0,1-7.67,4.39l.19.48c-1.71,6.77-7.18,11.81-12.16,16.7s-10,10.67-10.31,17.64,6.89,14.28,13.24,11.38c2.76-1.25,4.51-4,6.12-6.54l12.52-20.06c2.93-4.7,5.91-9.46,9.9-13.3,5.64-5.43,13-8.73,19-13.78,12.57-10.59,17.65-27.35,22-43.21Q118.22,348.88,104.67,348.88Z"/><path class="cls-2" d="M60.72,265.17a51.5,51.5,0,0,0,2.35,19.22c.79,2.48,2.6,5.39,5.15,4.9l3.51.79c7.38-5.51,16-9.48,25.11-12.52l-.24-.72-23.9-17c-2.37-1.69-5.28-3.46-8-2.42C61.83,258.5,60.93,262.09,60.72,265.17Z"/><path class="cls-3" d="M148.72,157.38c-8,1.5-14.46,10-12.61,18s12.52,12.53,19,7.77c-1.5-4.27.69-9.3,4.22-12.24a25,25,0,0,1,9.61-4.52,18.54,18.54,0,0,0-13.07-9A19.93,19.93,0,0,0,148.72,157.38Z"/><path class="cls-4" d="M145,63.35c-2.91,2.24-1.19,7,1.42,9.57,7.44,7.3,19.12,8.21,27.65,14.19,5.65,4,9.35,9.67,12,16.07a83.28,83.28,0,0,1,16.14-5.82c-1.64-8.74-4.54-17.41-7.11-25.94-4.48-14.94-7.94-31.36-2.08-45.81-3.56-2.8-9.21-.58-11.52,3.3s-2.22,8.7-1.93,13.21.67,9.25-1.21,13.37c-12.08-13.37-11.81-33.93-21.18-49.32C156.06,4.31,154,2.3,152,3.23a4,4,0,0,0-1.77,2.14c-3.28,7.3.06,15.72,3.38,23l14.91,32.76c2,4.33,4,9,3,13.69L153.31,64.45C150.74,63,147.37,61.54,145,63.35Z"/><path class="cls-5" d="M253.7,242.85h0a32.16,32.16,0,0,0,13,2.54,26.82,26.82,0,0,0,3.79-.34,19,19,0,0,0,6.91-2.41c7-4.23,9.72-13.39,8.61-21.48s-5.31-15.4-9.52-22.4v-.55c-35.31-.24-70.69-3.7-105.88-7.17a48.32,48.32,0,0,1-5.35-.79c1.48,7.75-.57,15.87-7.23,20.09-1.54,1-3.33,1.52-4.8,2.58-3.81,2.75-4.47,8.5-2.45,12.73s6.11,7.13,10.37,9.08c4.07,1.86,8.54,6.41,9.94,10.66l.64.31c5.09-4.32,12.85-5.65,20.18-5.52,1.13,0,2.25.07,3.35.16C215,241.21,234.12,240,253.7,242.85ZM222.34,210.9a2.37,2.37,0,0,1,0-3.36,2.78,2.78,0,0,1,3.48-.1,1.77,1.77,0,0,1-.36,2.78A2.06,2.06,0,0,1,222.34,210.9Z"/><path class="cls-3" d="M155.14,183.12c.07.22.16.43.25.64,1.71,3.81,5.66,5.58,9.91,6.49a48.32,48.32,0,0,0,5.35.79c35.19,3.47,70.57,6.93,105.88,7.17,15,.12,30-.36,45-1.67,1.22-.09,2.44-.2,3.66-.32,6.05-.58,12.44-1.44,17.17-5.25s6.77-11.6,2.58-16a10.93,10.93,0,0,0-6.18-2.9c-3.2-.61-7-.72-10.82-1.71-51.13-10.34-104.33-16.2-155.25-4.88-1.22.27-2.46.56-3.67.88a25,25,0,0,0-9.61,4.52C155.83,173.82,153.64,178.85,155.14,183.12Z"/><path class="cls-6" d="M171.89,112.56C159.49,123.5,152.06,140.91,156,157l0,.35a18.54,18.54,0,0,1,13.07,9c1.21-.32,2.45-.61,3.67-.88,50.92-11.32,104.12-5.46,155.25,4.88,3.86,1,7.62,1.1,10.82,1.71,1.77-16.63-8.69-32.19-20.91-43.59a121.87,121.87,0,0,0-12.08-9.91c-3,4.15-6,8.38-10.12,11.25a9.27,9.27,0,0,0-8.65-6.73l-.53-1.21c2.52-3.54,5.06-7.16,7.46-10.87a129.84,129.84,0,0,0-76.57-16.27,106.33,106.33,0,0,0-15.09,2.62,63.18,63.18,0,0,1,.94,19.2,16.34,16.34,0,0,0,1.54-2.07l-1.6,2.63c0-.19.05-.37.06-.56a19.91,19.91,0,0,1-11.55,6.72c-1.36-6.72-2.92-13.75-5.53-20.1A63.28,63.28,0,0,0,171.89,112.56Z"/><path class="cls-3" d="M195.3,240.34c-1.11,0-2.23-.1-3.35-.16-7.33-.13-15.09,1.2-20.18,5.52a15.41,15.41,0,0,0-4,5.1c-3.77,7.88.26,17.61,6.66,23.56l.06.05c6.39,5.92,14.71,9.2,22.35,13.4a98.74,98.74,0,0,1,19.94,14.5c3.22,3,6.35,6.34,10.43,8s8.83,1.54,13.33,1.33l30.84-1.41a28.16,28.16,0,0,0,6.17-.76,10.93,10.93,0,0,0,2.58-1.05,19.29,19.29,0,0,0,4.49-4.07l32.85-36.9c5-5.55,10.23-12.94,7.24-19.75-2.14-4.89-7.43-7.35-13-7.84a24.36,24.36,0,0,0-8.11.66c-10.59,2.76-10.33,5.21-33.06,4.84l-.05-.34a26.82,26.82,0,0,1-3.79.34,32.16,32.16,0,0,1-13-2.54h0C234.12,240,215,241.21,195.3,240.34Z"/><path class="cls-4" d="M186.08,103.18c2.61,6.35,4.17,13.38,5.53,20.1a19.91,19.91,0,0,0,11.55-6.72,63.18,63.18,0,0,0-.94-19.2A83.28,83.28,0,0,0,186.08,103.18Z"/><path class="cls-4" d="M203.16,116.56c0,.19,0,.37-.06.56l1.6-2.63A16.34,16.34,0,0,1,203.16,116.56Z"/><path class="cls-5" d="M222.37,207.54a2.37,2.37,0,0,0,0,3.36,2.06,2.06,0,0,0,3.15-.68,1.77,1.77,0,0,0,.36-2.78A2.78,2.78,0,0,0,222.37,207.54Z"/><path class="cls-5" d="M270.53,245.05l.05.34c22.73.37,22.47-2.08,33.06-4.84a24.36,24.36,0,0,1,8.11-.66l.07-.71q4.89-20.6,9.79-41.17l-.13-1.47c-15,1.31-30,1.79-45,1.67v.55c4.21,7,8.41,14.3,9.52,22.4s-1.61,17.25-8.61,21.48A19,19,0,0,1,270.53,245.05Zm29.88-31.21c-1.47-.37-2.05-2.68-.78-3.49.4-.59,2.76-1.39,3.3-.92a2.19,2.19,0,0,1,.64,2A2.79,2.79,0,0,1,300.41,213.84Z"/><path class="cls-4" d="M286.42,121.88l.53,1.21a9.27,9.27,0,0,1,8.65,6.73c4.17-2.87,7.12-7.1,10.12-11.25A126.22,126.22,0,0,0,293.88,111C291.48,114.72,288.94,118.34,286.42,121.88Z"/><path class="cls-5" d="M299.63,210.35c-1.27.81-.69,3.12.78,3.49a2.79,2.79,0,0,0,3.16-2.45,2.19,2.19,0,0,0-.64-2C302.39,209,300,209.76,299.63,210.35Z"/><path class="cls-4" d="M293.88,111a126.22,126.22,0,0,1,11.84,7.56c2.9-4,5.85-8,10-10.57,5.52-3.48,12.31-4,18.6-5.81s12.87-5.62,14.19-12A52.21,52.21,0,0,0,318.88,96c11-24.3,22.18-50.09,19.18-76.58C331,25,328.39,34.55,327,43.51s-2,18.38-6.71,26.14L304,42.87c-1.1,10.44,3,20.75,3.09,31.25C307.26,87.43,301.25,99.64,293.88,111Z"/><path class="cls-7" d="M327.89,170.36c-51.13-10.34-104.33-16.2-155.25-4.88-1.22.27-2.46.56-3.67.88a25,25,0,0,0-9.61,4.52c-3.53,2.94-5.72,8-4.22,12.24.07.22.16.43.25.64,1.71,3.81,5.66,5.58,9.91,6.49a48.32,48.32,0,0,0,5.35.79c35.19,3.47,70.57,6.93,105.88,7.17,15,.12,30-.36,45-1.67,1.22-.09,2.44-.2,3.66-.32,6.05-.58,12.44-1.44,17.17-5.25s6.77-11.6,2.58-16a10.93,10.93,0,0,0-6.18-2.9c-3.2-.61-7-.72-10.82-1.71"/><path class="cls-7" d="M186.08,103.18a63.28,63.28,0,0,0-14.19,9.38C159.49,123.5,152.06,140.91,156,157"/><path class="cls-7" d="M293.88,111a129.84,129.84,0,0,0-76.57-16.27,106.33,106.33,0,0,0-15.09,2.62"/><path class="cls-7" d="M338.71,172.1v0c1.77-16.63-8.69-32.19-20.91-43.59a121.87,121.87,0,0,0-12.08-9.91"/><path class="cls-7" d="M169,166.36a18.54,18.54,0,0,0-13.07-9,19.93,19.93,0,0,0-7.18,0c-8,1.5-14.46,10-12.61,18s12.52,12.53,19,7.77l.17-.12"/><path class="cls-7" d="M253.7,242.85a33.07,33.07,0,0,1-15.48-13.15"/><path class="cls-7" d="M276.53,198.76c4.21,7,8.41,14.3,9.52,22.4s-1.61,17.25-8.61,21.48a19,19,0,0,1-6.91,2.41,26.82,26.82,0,0,1-3.79.34,32.16,32.16,0,0,1-13-2.54"/><path class="cls-7" d="M192,240.18c1.12.06,2.24.12,3.35.16,19.7.87,38.82-.39,58.4,2.51h0"/><path class="cls-7" d="M195.94,240.39l-.64,0c-1.1-.09-2.22-.14-3.35-.16-7.33-.13-15.09,1.2-20.18,5.52a15.41,15.41,0,0,0-4,5.1c-3.77,7.88.26,17.61,6.66,23.56l.06.05c6.39,5.92,14.71,9.2,22.35,13.4a98.74,98.74,0,0,1,19.94,14.5c3.22,3,6.35,6.34,10.43,8s8.83,1.54,13.33,1.33l30.84-1.41a28.16,28.16,0,0,0,6.17-.76,10.93,10.93,0,0,0,2.58-1.05,19.29,19.29,0,0,0,4.49-4.07l32.85-36.9c5-5.55,10.23-12.94,7.24-19.75-2.14-4.89-7.43-7.35-13-7.84a24.36,24.36,0,0,0-8.11.66c-10.59,2.76-10.33,5.21-33.06,4.84"/><path class="cls-7" d="M321.61,198q-4.89,20.58-9.79,41.17"/><path class="cls-7" d="M165.3,190.25c1.48,7.75-.57,15.87-7.23,20.09-1.54,1-3.33,1.52-4.8,2.58-3.81,2.75-4.47,8.5-2.45,12.73s6.11,7.13,10.37,9.08c4.07,1.86,8.54,6.41,9.94,10.66"/><path class="cls-7" d="M299.63,210.35c-1.27.81-.69,3.12.78,3.49a2.79,2.79,0,0,0,3.16-2.45,2.19,2.19,0,0,0-.64-2C302.39,209,300,209.76,299.63,210.35Z"/><path class="cls-7" d="M225.49,210.22a1.77,1.77,0,0,0,.36-2.78,2.78,2.78,0,0,0-3.48.1,2.37,2.37,0,0,0,0,3.36A2.06,2.06,0,0,0,225.49,210.22Z"/><path class="cls-7" d="M203.1,117.12c0-.19.05-.37.06-.56a63.18,63.18,0,0,0-.94-19.2c-1.64-8.74-4.54-17.41-7.11-25.94-4.48-14.94-7.94-31.36-2.08-45.81-3.56-2.8-9.21-.58-11.52,3.3s-2.22,8.7-1.93,13.21.67,9.25-1.21,13.37c-12.08-13.37-11.81-33.93-21.18-49.32C156.06,4.31,154,2.3,152,3.23a4,4,0,0,0-1.77,2.14c-3.28,7.3.06,15.72,3.38,23l14.91,32.76c2,4.33,4,9,3,13.69L153.31,64.45c-2.57-1.47-5.94-2.91-8.29-1.1-2.91,2.24-1.19,7,1.42,9.57,7.44,7.3,19.12,8.21,27.65,14.19,5.65,4,9.35,9.67,12,16.07s4.17,13.38,5.53,20.1a19.91,19.91,0,0,0,11.55-6.72,16.34,16.34,0,0,0,1.54-2.07"/><path class="cls-7" d="M286.42,121.88c2.52-3.54,5.06-7.16,7.46-10.87,7.37-11.37,13.38-23.58,13.21-36.89C307,63.62,302.9,53.31,304,42.87l16.33,26.78c4.68-7.76,5.35-17.18,6.71-26.14S331,25,338.06,19.37c3,26.49-8.22,52.28-19.18,76.58a52.21,52.21,0,0,1,29.62-5.77c-1.32,6.39-7.91,10.25-14.19,12s-13.08,2.33-18.6,5.81c-4.14,2.61-7.09,6.56-10,10.57s-6,8.38-10.12,11.25a9.27,9.27,0,0,0-8.65-6.73"/><path class="cls-7" d="M279.29,314.67c5.64,10.4,4.61,22.94,4.78,34.77.32,22.5,6,45.8,20.84,62.74,9.07,10.38,21.67,18.82,25.22,32.13.45,1.69.69,3.68-.41,5.05-1.8,2.26-5.4,1.09-7.91-.34A119.54,119.54,0,0,1,280.1,409.1c-4.12-6.55-7.82-13.73-14.13-18.21-1.7-1.21-4.07-2.17-5.77-1a5.17,5.17,0,0,0-1.68,2.93c-3.87,14,5.2,27.83,9.6,41.66,1.54,4.83,2.49,10.22.45,14.86s-8.09,7.75-12.41,5.11c-2-1.2-3.18-3.26-4.29-5.26a184.63,184.63,0,0,1-19.11-51c-1.86-8.78-3.4-18.31-9.76-24.64-4.29-4.27-10.19-6.44-15.94-8.32A328.5,328.5,0,0,0,131.7,350q-13.48-1.12-27-1.12H103"/><path class="cls-7" d="M102.81,348.14c-13.54,12.19-9.92,36.54-24,48.16a27.65,27.65,0,0,1-7.67,4.39c-6.37,2.52-13.62,3.39-20.31,5.32a60,60,0,0,0-31.54,22.1c-2.42,3.34-5.22,7.33-9.35,7.32s-7-4.29-7-8.31,2.2-7.7,4.54-11c8.49-11.85,20-21.48,27.07-34.23,13.58-24.51,8.73-56.82,25-79.62a55.28,55.28,0,0,1,12.11-12.22c7.38-5.51,16-9.48,25.11-12.52A209.28,209.28,0,0,1,121,271.33c17.89-3.68,37.84-6.33,53.3,3.41"/><path class="cls-7" d="M71.38,401.17c-1.71,6.77-7.18,11.81-12.16,16.7s-10,10.67-10.31,17.64,6.89,14.28,13.24,11.38c2.76-1.25,4.51-4,6.12-6.54l12.52-20.06c2.93-4.7,5.91-9.46,9.9-13.3,5.64-5.43,13-8.73,19-13.78,12.57-10.59,17.65-27.35,22-43.21l.15-.54"/><path class="cls-7" d="M96.6,276.84l-23.9-17c-2.37-1.69-5.28-3.46-8-2.42-2.87,1.11-3.77,4.7-4,7.78a51.5,51.5,0,0,0,2.35,19.22c.79,2.48,2.6,5.39,5.15,4.9"/></g></g></svg>