<svg xmlns="http://www.w3.org/2000/svg" viewBox="0 0 217.11 358.86"><defs><style>.cls-1{fill:#fbede7;}.cls-2{fill:#e9f5f7;}.cls-3{fill:#d51359;}.cls-4{fill:#2e0e04;}.cls-5{fill:none;stroke:#231815;stroke-miterlimit:10;stroke-width:5px;}.cls-6{fill:#231815;}</style></defs><g id="レイヤー_2" data-name="レイヤー 2"><g id="レイヤー_1-2" data-name="レイヤー 1"><rect class="cls-1" x="105.43" y="309.61" width="10.46" height="31.93" transform="translate(221.32 651.16) rotate(-180)"/><path class="cls-2" d="M12.09,77C3.09,76.41-.66,90.48,5.61,97c5.58,5.77,14.56,6.2,22.53,4.29-1.28-4.37.54-9.19,3.8-12.66l-1.16,0a11.88,11.88,0,0,1-2.92-1.22l-.1,0-.15-.09a23.09,23.09,0,0,1-7-5.74C18.05,79.2,15.4,77.25,12.09,77Z"/><path class="cls-3" d="M14.28,55.93a31.68,31.68,0,0,0,6.33,25.52c2.27,2,4.47,4.25,7,5.74l.15.09.1,0a22.75,22.75,0,0,0,2.92,1.22l1.16,0a16.63,16.63,0,0,1,3.95-3.11C41.82,82.15,49,82,55.74,81.92q68.43-.47,136.71,5.66l.05-.51,1.5.1.05-.81C191.31,52,166.7,20.8,134.47,8.6S64,3,36.7,24C26.16,32.1,16.78,42.87,14.28,55.93Z"/><path class="cls-1" d="M124.65,153.18c.55,0,1.09,0,1.64,0,5.81,0,12.08-2,15.24-6.88,2.28-3.53,2.56-8,2.28-12.19-.81-11.75-6.58-24.09-17.44-28.64l0-1-96-1.92c5.21,5.13,1,14.42-3.11,20.82-4.29,6.64-7.13,17.44,0,20.81,3.78,1.78,8.46.07,12.34,1.63a27.83,27.83,0,0,1,8,4.41,10.92,10.92,0,0,0,2.46,1.28,6.54,6.54,0,0,1,2.14.73,44.47,44.47,0,0,0,10.61,1.84c18.46,0,32.67,1.5,53.12,10.23a27.79,27.79,0,0,0,8,2Z"/><path class="cls-2" d="M30.38,102.59l96,1.92,34.46.69a131.44,131.44,0,0,0,24.29-1.33c11.23-1.88,21.43-6.19,27.53-15.51L194,87.17l-1.5-.1-.05.51q-68.17-6.14-136.71-5.66c-6.79,0-13.92.23-19.85,3.55a16.63,16.63,0,0,0-3.95,3.11c-3.26,3.47-5.08,8.29-3.8,12.66a10.86,10.86,0,0,0,.48,1.31Z"/><path class="cls-2" d="M175.88,137.94c-.14-.12-.28-.22-.43-.33-8,10.24-16.75,21-29,25.34-7,2.49-15,4.22-22.42,3.42a27.79,27.79,0,0,1-8-2c-20.45-8.73-34.66-10.19-53.12-10.23a44.47,44.47,0,0,1-10.61-1.84c-.76-.23-1.48-.47-2.14-.73-7.08-1.16-16.48,8.24-13.14,14.76A16.4,16.4,0,0,0,42.66,172c10.6,7.21,23.23,10.33,35.58,14.11,7.57,2.31,15,4.87,21.88,8.76,9.86,5.61,18.34,14,29.21,17.24.66.2,1.32.38,2,.53,11.9,2.79,25-1,34.41-8.88,10-8.28,16.15-20.55,18.65-33.27C186.65,158.88,185.21,145.08,175.88,137.94Z"/><path class="cls-1" d="M122.85,264h2.28l.1-.1a29.92,29.92,0,0,0,6.38,4.41,1.05,1.05,0,0,0,.74.15c.45-.14.64-.78.56-1.29-3-17.29-4.69-32.34-2.09-52.47l.49-2c-.66-.15-1.32-.33-2-.53-10.87-3.27-19.35-11.63-29.21-17.24-6.84-3.89-14.31-6.45-21.88-8.76-5.17,0-10.63,1.78-12.79,7s-2.5,11-2.89,16.67q-1.32,19.34-4.09,38.51a36.93,36.93,0,0,1-2.09,9c-1.53,3.67-4.24,7.75-2.44,11.26a17.13,17.13,0,0,0,9.69-4.82l.92.42Z"/><path class="cls-2" d="M117.71,307.91a6.69,6.69,0,0,0,3.24-1.22c1.84-1.53,2-4.46,2-7q-.06-17.87-.1-35.73l-58.3.09A261.93,261.93,0,0,0,62,308.65l5.43,1q7.56,1.31,15.11,2.64l1.34.23a5.15,5.15,0,0,0,3.34-.18c1.63-.88,2-3.15,2.57-5.07.81-3,2.48-6,5.12-7.14s6.27.23,6.92,3.28c.36,1.67-.15,3.61.74,5,1,1.66,3.26,1.53,5.07,1.23l9.85-1.66Z"/><path class="cls-4" d="M63.8,345.77a14.49,14.49,0,0,0-.35,7.08,3.1,3.1,0,0,0,.5,1.35,2.67,2.67,0,0,0,1.35.73,36.06,36.06,0,0,0,23.57-1.21,2.82,2.82,0,0,0,1.21-.77,2.62,2.62,0,0,0,.5-1.17,7,7,0,0,0-2.45-6.38,14.24,14.24,0,0,0-6.08-2.75c-.9-.22-1.81-.42-2.72-.6a53,53,0,0,0-12.06-.94A8.68,8.68,0,0,0,63.8,345.77Z"/><path class="cls-1" d="M67.76,340.12l.28.57a5.75,5.75,0,0,0-.77.42,53,53,0,0,1,12.06.94,125.72,125.72,0,0,0,2.75-27.32l.44-2.49Q75,310.91,67.41,309.6l-.4,2.29q0,13.58,0,27.15a1.34,1.34,0,0,0,.31,1.07A.39.39,0,0,0,67.76,340.12Z"/><path class="cls-4" d="M116.05,340.29a39.63,39.63,0,0,0-5.82,2.09,68.49,68.49,0,0,0-7,3.74c10.44,7.36,23.74,7.45,36.2,7.26,2.51,0,5.48-.36,6.72-2.76a5.71,5.71,0,0,0-.92-5.91,11.39,11.39,0,0,0-5-3.2A39.12,39.12,0,0,0,116.05,340.29Z"/><path class="cls-1" d="M124.65,153.18,124,166.37c7.44.8,15.38-.93,22.42-3.42,12.28-4.36,21-15.1,29-25.34.15.11.29.21.43.33q4.77-16.17,9.55-32.37l-.29-1.7a131.44,131.44,0,0,1-24.29,1.33l-34.46-.69,0,1c10.86,4.55,16.63,16.89,17.44,28.64.28,4.2,0,8.66-2.28,12.19-3.16,4.88-9.43,6.84-15.24,6.88C125.74,153.22,125.2,153.21,124.65,153.18Z"/><path class="cls-5" d="M195.55,87.86c-1-.1-2.07-.19-3.1-.27h0q-68.17-6.14-136.71-5.66c-6.79,0-13.92.23-19.85,3.55a16.63,16.63,0,0,0-3.95,3.11c-3.26,3.47-5.08,8.29-3.8,12.66a10.86,10.86,0,0,0,.48,1.31l1.76,0,96,1.92,34.46.69a131.44,131.44,0,0,0,24.29-1.33c11.23-1.88,21.43-6.19,27.53-15.51L194,87.17l-1.5-.1"/><path class="cls-5" d="M27.61,87.19c-2.53-1.49-4.73-3.74-7-5.74-2.56-2.25-5.21-4.2-8.52-4.42C3.09,76.41-.66,90.48,5.61,97c5.58,5.77,14.56,6.2,22.53,4.29,1-.22,1.95-.49,2.89-.79"/><path class="cls-5" d="M27.86,87.33a22.75,22.75,0,0,0,2.92,1.22,11.88,11.88,0,0,1-2.92-1.22"/><path class="cls-5" d="M27.86,87.33l-.1,0-.15-.09"/><path class="cls-5" d="M194.05,86.36C191.31,52,166.7,20.8,134.47,8.6S64,3,36.7,24C26.16,32.1,16.78,42.87,14.28,55.93a31.68,31.68,0,0,0,6.33,25.52,23.09,23.09,0,0,0,7,5.74"/><path class="cls-5" d="M185.43,105.57q-4.78,16.19-9.55,32.37l-.24.83"/><path class="cls-5" d="M126.37,105.51c10.86,4.55,16.63,16.89,17.44,28.64.28,4.2,0,8.66-2.28,12.19-3.16,4.88-9.43,6.84-15.24,6.88-.55,0-1.09,0-1.64,0A33.45,33.45,0,0,1,98.36,138"/><path class="cls-5" d="M29.77,102a8.18,8.18,0,0,1,.61.55c5.21,5.13,1,14.42-3.11,20.82-4.29,6.64-7.13,17.44,0,20.81,3.78,1.78,8.46.07,12.34,1.63a27.83,27.83,0,0,1,8,4.41,10.92,10.92,0,0,0,2.46,1.28c.66.26,1.38.5,2.14.73a44.47,44.47,0,0,0,10.61,1.84c18.46,0,32.67,1.5,53.12,10.23a27.79,27.79,0,0,0,8,2c7.44.8,15.38-.93,22.42-3.42,12.28-4.36,21-15.1,29-25.34.15.11.29.21.43.33,9.33,7.14,10.77,20.94,8.49,32.54-2.5,12.72-8.67,25-18.65,33.27-9.45,7.84-22.51,11.67-34.41,8.88-.66-.15-1.32-.33-2-.53-10.87-3.27-19.35-11.63-29.21-17.24-6.84-3.89-14.31-6.45-21.88-8.76-12.35-3.78-25-6.9-35.58-14.11A16.4,16.4,0,0,1,37,166.3c-3.34-6.52,6.06-15.92,13.14-14.76a6.54,6.54,0,0,1,2.14.73"/><path class="cls-5" d="M121.21,232.92c.52,9.53,0,18.4,2.67,28.55"/><path class="cls-5" d="M69.64,230.34a110.55,110.55,0,0,1-3.9,30.8c-.14.53-.28,1.06-.43,1.6"/><path class="cls-5" d="M125.13,264h-2.28l-58.3.09A261.93,261.93,0,0,0,62,308.65l5.43,1q7.56,1.31,15.11,2.64l1.34.23a5.15,5.15,0,0,0,3.34-.18c1.63-.88,2-3.15,2.57-5.07.81-3,2.48-6,5.12-7.14s6.27.23,6.92,3.28c.36,1.67-.15,3.61.74,5,1,1.66,3.26,1.53,5.07,1.23l9.85-1.66.24,0a6.69,6.69,0,0,0,3.24-1.22c1.84-1.53,2-4.46,2-7q-.06-17.87-.1-35.73c0-.82,0-1.63,0-2.45"/><path class="cls-5" d="M103.76,310.75q0,16.71,0,33.41c0,.35.05.79.36.9s.43-.62.13-.51"/><path class="cls-5" d="M117.71,307.9h0a208.59,208.59,0,0,1-1.66,32.38c0,.42-.1.84-.16,1.26"/><path class="cls-5" d="M82.08,314.73a125.72,125.72,0,0,1-2.75,27.32"/><path class="cls-5" d="M67,311.89q0,13.58,0,27.15a1.34,1.34,0,0,0,.31,1.07.39.39,0,0,0,.46,0,.33.33,0,0,0,.18-.45"/><path class="cls-5" d="M102.28,346.71c.33-.2.66-.4,1-.59a68.49,68.49,0,0,1,7-3.74,39.63,39.63,0,0,1,5.82-2.09,39.12,39.12,0,0,1,24.26,1.22,11.39,11.39,0,0,1,5,3.2,5.71,5.71,0,0,1,.92,5.91c-1.24,2.4-4.21,2.73-6.72,2.76-12.46.19-25.76.1-36.2-7.26-.2-.13-.4-.28-.59-.42"/><path class="cls-5" d="M67.27,341.11a53,53,0,0,1,12.06.94c.91.18,1.82.38,2.72.6a14.24,14.24,0,0,1,6.08,2.75,7,7,0,0,1,2.45,6.38,2.62,2.62,0,0,1-.5,1.17,2.82,2.82,0,0,1-1.21.77,36.06,36.06,0,0,1-23.57,1.21A2.67,2.67,0,0,1,64,354.2a3.1,3.1,0,0,1-.5-1.35,14.49,14.49,0,0,1,.35-7.08,8.68,8.68,0,0,1,3.47-4.66,5.75,5.75,0,0,1,.77-.42l.07,0"/><path class="cls-5" d="M78.24,186.1c-5.17,0-10.63,1.78-12.79,7s-2.5,11-2.89,16.67q-1.32,19.34-4.09,38.51a36.93,36.93,0,0,1-2.09,9c-1.53,3.67-4.24,7.75-2.44,11.26a17.13,17.13,0,0,0,9.69-4.82,17.94,17.94,0,0,0,2.11-2.48c.11-.14.21-.29.31-.44"/><path class="cls-5" d="M130.82,214.65c-2.6,20.13-.87,35.18,2.09,52.47.08.51-.11,1.15-.56,1.29a1.05,1.05,0,0,1-.74-.15,29.92,29.92,0,0,1-6.38-4.41c-.63-.57-1.24-1.16-1.82-1.78"/><circle class="cls-6" cx="89.87" cy="118.37" r="2.25"/><circle class="cls-6" cx="87.62" cy="213.54" r="2.25"/><circle class="cls-6" cx="155.12" cy="117.6" r="2.25"/><circle class="cls-6" cx="110.97" cy="214.65" r="2.25"/></g></g></svg>