<svg xmlns="http://www.w3.org/2000/svg" viewBox="0 0 299.81 374.46">
  <defs>
    <style>
      .cls-1 {
        fill: #e9f5f7;
      }

      .cls-2 {
        fill: #d51359;
      }

      .cls-3 {
        fill: #fbede7;
      }

      .cls-4 {
        fill: #2e0e04;
      }

      .cls-5 {
        fill: #065c3f;
      }

      .cls-6 {
        fill: none;
        stroke: #231815;
        stroke-miterlimit: 10;
        stroke-width: 6px;
      }

      .cls-7 {
        fill: #2ea7e0;
      }

      .cls-8 {
        fill: #231815;
      }
    </style>
  </defs>
  <g id="レイヤー_2" data-name="レイヤー 2">
    <g id="レイヤー_1-2" data-name="レイヤー 1">
      <g>
        <g>
          <g>
            <path class="cls-1" d="M3.84,292.35c-3.06,9.39,2.77,19.13,8.34,27.28l15.55,22.76c3,4.35,6,8.78,10.21,12,8.25,6.27,29.14-1.67,39.5-1.48l2.56-.51c-1.38-7.06-.43-15,4.5-18.87l2-.76a26.57,26.57,0,0,1,6.52-10.33l.56-2.25c-1.22-.3-2.5-.64-3.88-1-5.65-1.52-11.32-3.91-15.16-8.32s-5.33-11.27-2.23-16.22A11.38,11.38,0,0,1,75,291.69l-.34-.46c-9.32-8.24-13.92-24.49-12.92-36.88s6.1-24.07,11.94-35c.65-1.22,1.32-2.44,2-3.65l-.79-.45-13.23-2.42c-1.43-.27-3-.51-4.27.24s-1.8,2.23-2.2,3.62C53.62,222,53,227.91,49.58,232.39c-3.53,4.67-9.39,6.94-13.67,10.94C27.61,251.09,26.48,264,19.65,273,14.6,279.73,6.45,284.37,3.84,292.35Z"/>
            <path class="cls-2" d="M61.72,254.35c-1,12.39,3.6,28.64,12.92,36.88l.34.46c4.22-3.29,10.65-3.74,16.17-2.77,6.39,1.12,12.7,3.56,19.12,3.22-5-6.18-4-15.17-2.37-23a295.59,295.59,0,0,1,11.48-40.28c1.39-4.36,2.26-7.45,4.71-10.94,7.44-10.6,6-26.44-3-35.68-1.58-.47-3.15-.87-4.7-1.18-9,1.31-17.48,6.06-24.2,12.34s-12,14.11-16.54,22.23c-.68,1.21-1.35,2.43-2,3.65C67.82,230.28,62.72,242,61.72,254.35Z"/>
            <path class="cls-3" d="M72.34,294.61c-3.1,4.95-1.61,11.81,2.23,16.22s9.51,6.8,15.16,8.32c1.38.37,2.66.71,3.88,1a46.44,46.44,0,0,0,16.22,1.39s21.91-4.4,8.54-22.7c-2.72-3.73-6.1-4.27-8.1-6.71-6.42.34-12.73-2.1-19.12-3.22-5.52-1-12-.52-16.17,2.77A11.38,11.38,0,0,0,72.34,294.61Z"/>
            <path class="cls-4" d="M217.73,352.58a30.17,30.17,0,0,0-3.46-4.3,22.23,22.23,0,0,0-3.49-2.86,23.3,23.3,0,0,0-15.64-3.66,16.26,16.26,0,0,1-2.48,1.62c-3.28,1.72-7.09,2.08-10.78,2.33a240.77,240.77,0,0,1-95.35-13l-2,.76c-4.93,3.87-5.88,11.81-4.5,18.87a27.39,27.39,0,0,0,2.76,7.9q63.13,7,126.52,11.17a10.84,10.84,0,0,0,10.11-16.19C218.87,354.32,218.31,353.43,217.73,352.58Z"/>
            <path class="cls-1" d="M98.36,66.29c-8,1.5-14.46,10-12.61,18s12.52,12.53,19,7.77c-1.5-4.27.69-9.3,4.22-12.24a25,25,0,0,1,9.61-4.52,18.54,18.54,0,0,0-13.07-9A19.93,19.93,0,0,0,98.36,66.29Z"/>
            <path class="cls-2" d="M93.05,322.41a26.57,26.57,0,0,0-6.52,10.33,240.77,240.77,0,0,0,95.35,13c3.69-.25,7.5-.61,10.78-2.33a16.26,16.26,0,0,0,2.48-1.62,33.39,33.39,0,0,0,5-5.15c5.62-6.86,6.93-13.46,9.11-22.85-1.18-.09-2.37-.2-3.54-.31a585.37,585.37,0,0,1-87.34-14.6c13.37,18.3-8.54,22.7-8.54,22.7a46.44,46.44,0,0,1-16.22-1.39Z"/>
            <path class="cls-3" d="M203.34,151.76h0a32.16,32.16,0,0,0,13,2.54,26.82,26.82,0,0,0,3.79-.34,19,19,0,0,0,6.91-2.41c7-4.23,9.72-13.39,8.61-21.48s-5.31-15.4-9.52-22.4v-.55c-35.31-.24-70.69-3.7-105.88-7.17a48.32,48.32,0,0,1-5.35-.79c1.48,7.75-.57,15.87-7.23,20.09-1.54,1-3.33,1.52-4.8,2.58-3.81,2.75-4.47,8.5-2.45,12.73s6.11,7.13,10.37,9.08c4.07,1.86,8.54,6.41,9.94,10.66l.64.31c5.09-4.32,12.85-5.65,20.18-5.52,1.13,0,2.25.07,3.35.16C164.64,150.12,183.76,148.86,203.34,151.76ZM172,119.81a2.37,2.37,0,0,1,0-3.36,2.78,2.78,0,0,1,3.48-.1,1.77,1.77,0,0,1-.36,2.78A2.06,2.06,0,0,1,172,119.81Z"/>
            <path class="cls-1" d="M288.35,81c-3.2-.61-7-.72-10.82-1.71C226.4,68.93,173.2,63.07,122.28,74.39c-1.22.27-2.46.56-3.67.88A25,25,0,0,0,109,79.79c-3.53,2.94-5.72,8-4.22,12.24.07.22.16.43.25.64,1.71,3.81,5.66,5.58,9.91,6.49a48.32,48.32,0,0,0,5.35.79c35.19,3.47,70.57,6.93,105.88,7.17,15,.12,30-.36,45-1.67,1.22-.09,2.44-.2,3.66-.32,6.05-.58,12.44-1.44,17.17-5.25s6.77-11.6,2.58-16A10.93,10.93,0,0,0,288.35,81Z"/>
            <path class="cls-2" d="M121.53,21.47c-12.4,10.94-19.83,28.35-15.94,44.42l0,.35a18.54,18.54,0,0,1,13.07,9c1.21-.32,2.45-.61,3.67-.88,50.92-11.32,104.12-5.46,155.25,4.88,3.86,1,7.62,1.1,10.82,1.71,1.77-16.63-8.69-32.19-20.91-43.59A129.85,129.85,0,0,0,167,3.65C150.51,5.35,133.92,10.54,121.53,21.47Z"/>
            <path class="cls-2" d="M119.38,228.89a295.59,295.59,0,0,0-11.48,40.28c-1.63,7.8-2.67,16.79,2.37,23,2,2.44,5.38,3,8.1,6.71a585.37,585.37,0,0,0,87.34,14.6c1.17.11,2.36.22,3.54.31,6.61.5,13.34.51,19.43-2,5.37-2.19,9.76-6.15,13.35-10.76a58.82,58.82,0,0,0,3.47-5c15.81-25.44,12.29-63.25-6.21-86.81l-.75-.66-4.23,4.75a19.29,19.29,0,0,1-4.49,4.07c-2.61,1.49-5.74,1.67-8.75,1.81l-12,.55.12,2.53c.55,5.77-1.76,12.88-7.46,13.93a7.51,7.51,0,0,1-7.67-3.54c-1.5-2.6-.35-8.75,1.6-11l-.06-1.27-5.35.24c-4.5.21-9.17.39-13.33-1.33s-7.21-5-10.43-8a98.74,98.74,0,0,0-19.94-14.5c-7.66-4.21-16-7.5-22.41-13.45-1-.36-2-.7-3-1,9,9.24,10.43,25.08,3,35.68C121.64,221.44,120.77,224.53,119.38,228.89Zm89.2,39c-5.25-1-8.24-7.54-6.29-12.51,5.49-1.55,11.43-2.55,14.2,2.44C219.08,262.44,213.82,268.8,208.58,267.85Zm-3.88,29c-2.88-3.2-.77-9.29,3.19-10.11,2.42-.91,7.85,0,9,1.68a6.36,6.36,0,0,1-.09,6.62C214.43,299.2,207.88,300.43,204.7,296.89Z"/>
            <path class="cls-1" d="M144.94,149.25c-1.11,0-2.23-.1-3.35-.16-7.33-.13-15.09,1.2-20.18,5.52a15.41,15.41,0,0,0-4,5.1c-3.77,7.88.26,17.61,6.66,23.56s14.75,9.24,22.41,13.45a98.74,98.74,0,0,1,19.94,14.5c3.22,3,6.35,6.34,10.43,8s8.83,1.54,13.33,1.33l5.35-.24,13.47-.62,12-.55c3-.14,6.14-.32,8.75-1.81a19.29,19.29,0,0,0,4.49-4.07l4.23-4.75,7.57-8.51,21.05-23.64c4.95-5.55,10.23-12.94,7.24-19.75-2.14-4.89-7.43-7.35-13-7.84a24.36,24.36,0,0,0-8.11.66c-10.59,2.76-10.33,5.21-33.06,4.84l-.05-.34a26.82,26.82,0,0,1-3.79.34,32.16,32.16,0,0,1-13-2.54h0C183.76,148.86,164.64,150.12,144.94,149.25Z"/>
            <path class="cls-3" d="M172,116.45a2.37,2.37,0,0,0,0,3.36,2.06,2.06,0,0,0,3.15-.68,1.77,1.77,0,0,0,.36-2.78A2.78,2.78,0,0,0,172,116.45Z"/>
            <path class="cls-5" d="M195.64,221.61c-1.95,2.28-3.1,8.43-1.6,11a7.51,7.51,0,0,0,7.67,3.54c5.7-1.05,8-8.16,7.46-13.93l-.12-2.53-13.47.62Z"/>
            <path class="cls-2" d="M249.88,310.64a4,4,0,0,0-.69-2.17c-1.05-1.73-4.3-3.17-6.56-5.48V301.5L242,301c-3.59,4.61-8,8.57-13.35,10.76-6.09,2.49-12.82,2.48-19.43,2-2.18,9.39-3.49,16-9.11,22.85a33.39,33.39,0,0,1-5,5.15,23.3,23.3,0,0,1,15.64,3.66l1.47-2.12a363.67,363.67,0,0,0,28.93-25.56c.88-.86,8.64-5.87,8.7-7.09Z"/>
            <path class="cls-5" d="M202.29,255.34c-1.95,5,1,11.56,6.29,12.51s10.5-5.41,7.91-10.07C213.72,252.79,207.78,253.79,202.29,255.34Z"/>
            <path class="cls-5" d="M207.89,286.78c-4,.82-6.07,6.91-3.19,10.11,3.18,3.54,9.73,2.31,12.1-1.81a6.36,6.36,0,0,0,.09-6.62C215.74,286.77,210.31,285.87,207.89,286.78Z"/>
            <path class="cls-4" d="M212.25,343.3l-1.47,2.12a22.23,22.23,0,0,1,3.49,2.86,30.17,30.17,0,0,1,3.46,4.3c17.93-11.16,40.92-13.89,53.52-30.85a2.42,2.42,0,0,0,.54-1,2.15,2.15,0,0,0-.39-1.37c-2.61-4.53-12.21-12.19-17.2-10.64a19.36,19.36,0,0,0-4.32,2h0c-.06,1.22-7.82,6.23-8.7,7.09A363.67,363.67,0,0,1,212.25,343.3Z"/>
            <path class="cls-3" d="M220.17,154l.05.34c22.73.37,22.47-2.08,33.06-4.84a24.36,24.36,0,0,1,8.11-.66l.07-.71q4.89-20.59,9.79-41.17l-.13-1.47c-15,1.31-30,1.79-45,1.67v.55c4.21,7,8.41,14.3,9.52,22.4s-1.61,17.25-8.61,21.48A19,19,0,0,1,220.17,154Zm29.88-31.21c-1.47-.37-2.05-2.68-.78-3.49.4-.59,2.76-1.39,3.3-.92a2.19,2.19,0,0,1,.64,2A2.79,2.79,0,0,1,250.05,122.75Z"/>
            <path class="cls-2" d="M246.11,200l-7.57,8.51.75.66c18.5,23.56,22,61.37,6.21,86.81a58.82,58.82,0,0,1-3.47,5l.6.48C256.71,298,265.77,283.39,267.4,269s-2.62-28.78-6.81-42.68a69.73,69.73,0,0,0-13.67-25.54Z"/>
            <path class="cls-3" d="M249.27,119.26c-1.27.81-.69,3.12.78,3.49a2.79,2.79,0,0,0,3.16-2.45,2.19,2.19,0,0,0-.64-2C252,117.87,249.67,118.67,249.27,119.26Z"/>
          </g>
          <g>
            <path class="cls-6" d="M277.53,79.27C226.4,68.93,173.2,63.07,122.28,74.39c-1.22.27-2.46.56-3.67.88A25,25,0,0,0,109,79.79c-3.53,2.94-5.72,8-4.22,12.24.07.22.16.43.25.64,1.71,3.81,5.66,5.58,9.91,6.49a48.32,48.32,0,0,0,5.35.79c35.19,3.47,70.57,6.93,105.88,7.17,15,.12,30-.36,45-1.67,1.22-.09,2.44-.2,3.66-.32,6.05-.58,12.44-1.44,17.17-5.25s6.77-11.6,2.58-16a10.93,10.93,0,0,0-6.18-2.9c-3.2-.61-7-.72-10.82-1.71"/>
            <path class="cls-6" d="M288.35,81v0c1.77-16.63-8.69-32.19-20.91-43.59A129.85,129.85,0,0,0,167,3.65c-16.44,1.7-33,6.89-45.42,17.82S101.7,49.82,105.59,65.89"/>
            <path class="cls-6" d="M118.61,75.27a18.54,18.54,0,0,0-13.07-9,19.93,19.93,0,0,0-7.18.05c-8,1.5-14.46,10-12.61,18s12.52,12.53,19,7.77l.17-.12"/>
            <path class="cls-6" d="M203.34,151.76a33.07,33.07,0,0,1-15.48-13.15"/>
            <path class="cls-6" d="M226.17,107.67c4.21,7,8.41,14.3,9.52,22.4s-1.61,17.25-8.61,21.48a19,19,0,0,1-6.91,2.41,26.82,26.82,0,0,1-3.79.34,32.16,32.16,0,0,1-13-2.54"/>
            <path class="cls-6" d="M141.59,149.09c1.12.06,2.24.12,3.35.16,19.7.87,38.82-.39,58.4,2.51h0"/>
            <path class="cls-6" d="M145.58,149.3l-.64-.05c-1.1-.09-2.22-.14-3.35-.16-7.33-.13-15.09,1.2-20.18,5.52a15.41,15.41,0,0,0-4,5.1c-3.77,7.88.26,17.61,6.66,23.56s14.75,9.24,22.41,13.45a98.74,98.74,0,0,1,19.94,14.5c3.22,3,6.35,6.34,10.43,8s8.83,1.54,13.33,1.33l5.35-.24,13.47-.62,12-.55c3-.14,6.14-.32,8.75-1.81a19.29,19.29,0,0,0,4.49-4.07l4.23-4.75,7.57-8.51,21.05-23.64c4.95-5.55,10.23-12.94,7.24-19.75-2.14-4.89-7.43-7.35-13-7.84a24.36,24.36,0,0,0-8.11.66c-10.59,2.76-10.33,5.21-33.06,4.84"/>
            <path class="cls-6" d="M271.25,106.92q-4.89,20.58-9.79,41.17"/>
            <path class="cls-6" d="M114.94,99.16c1.48,7.75-.57,15.87-7.23,20.09-1.54,1-3.33,1.52-4.8,2.58-3.81,2.75-4.47,8.5-2.45,12.73s6.11,7.13,10.37,9.08c4.07,1.86,8.54,6.41,9.94,10.66"/>
            <path class="cls-6" d="M209.17,222.25c.55,5.77-1.76,12.88-7.46,13.93a7.51,7.51,0,0,1-7.67-3.54c-1.5-2.6-.35-8.75,1.6-11"/>
            <path class="cls-6" d="M202.29,255.34c-1.95,5,1,11.56,6.29,12.51s10.5-5.41,7.91-10.07C213.72,252.79,207.78,253.79,202.29,255.34Z"/>
            <path class="cls-6" d="M207.89,286.78a2.32,2.32,0,0,0-.82.49"/>
            <path class="cls-6" d="M207.89,286.78c-4,.82-6.07,6.91-3.19,10.11,3.18,3.54,9.73,2.31,12.1-1.81a6.36,6.36,0,0,0,.09-6.62C215.74,286.77,210.31,285.87,207.89,286.78Z"/>
            <path class="cls-6" d="M209.15,286.69a4.36,4.36,0,0,0-1.26.09"/>
            <path class="cls-6" d="M239.29,209.2c18.5,23.56,22,61.37,6.21,86.81a58.82,58.82,0,0,1-3.47,5c-3.59,4.61-8,8.57-13.35,10.76-6.09,2.49-12.82,2.48-19.43,2-1.18-.09-2.37-.2-3.54-.31a585.37,585.37,0,0,1-87.34-14.6"/>
            <path class="cls-6" d="M120.77,180.72a33.45,33.45,0,0,0-4.37.37c-9,1.31-17.48,6.06-24.2,12.34s-12,14.11-16.54,22.23c-.68,1.21-1.35,2.43-2,3.65-5.84,11-10.94,22.65-11.94,35s3.6,28.64,12.92,36.88"/>
            <path class="cls-6" d="M246.92,200.75a69.73,69.73,0,0,1,13.67,25.54c4.19,13.9,8.43,28.26,6.81,42.68s-10.69,29-24.77,32.53"/>
            <path class="cls-6" d="M111.69,292c-.48.06-1,.1-1.42.12-6.42.34-12.73-2.1-19.12-3.22-5.52-1-12-.52-16.17,2.77a11.38,11.38,0,0,0-2.64,2.92c-3.1,4.95-1.61,11.81,2.23,16.22s9.51,6.8,15.16,8.32c1.38.37,2.66.71,3.88,1a46.44,46.44,0,0,0,16.22,1.39s21.91-4.4,8.54-22.7c-2.72-3.73-6.1-4.27-8.1-6.71-5-6.18-4-15.17-2.37-23a295.59,295.59,0,0,1,11.48-40.28l.51-1.39"/>
            <path class="cls-6" d="M249.27,119.26c-1.27.81-.69,3.12.78,3.49a2.79,2.79,0,0,0,3.16-2.45,2.19,2.19,0,0,0-.64-2C252,117.87,249.67,118.67,249.27,119.26Z"/>
            <path class="cls-6" d="M175.13,119.13a1.77,1.77,0,0,0,.36-2.78,2.78,2.78,0,0,0-3.48.1,2.37,2.37,0,0,0,0,3.36A2.06,2.06,0,0,0,175.13,119.13Z"/>
            <path class="cls-6" d="M124.12,183.27c-1-.36-2-.7-3-1-1.58-.47-3.15-.87-4.7-1.18-9.08-1.86-17.8-1.07-27.29,1.93C77,186.86,64.7,202.61,57.37,213"/>
            <path class="cls-6" d="M74.87,215.21l-13.23-2.42c-1.43-.27-3-.51-4.27.24s-1.8,2.23-2.2,3.62C53.62,222,53,227.91,49.58,232.39c-3.53,4.67-9.39,6.94-13.67,10.94C27.61,251.09,26.48,264,19.65,273c-5,6.71-13.2,11.35-15.81,19.33-3.06,9.39,2.77,19.13,8.34,27.28l15.55,22.76c3,4.35,6,8.78,10.21,12,8.25,6.27,29.14-1.67,39.5-1.48"/>
            <path class="cls-6" d="M120.38,181.56c.25.23.49.47.72.71,9,9.24,10.43,25.08,3,35.68-2.45,3.49-3.32,6.58-4.71,10.94"/>
            <path class="cls-6" d="M93.64,321.84l-.59.57a26.57,26.57,0,0,0-6.52,10.33,240.77,240.77,0,0,0,95.35,13c3.69-.25,7.5-.61,10.78-2.33a16.26,16.26,0,0,0,2.48-1.62,33.39,33.39,0,0,0,5-5.15c5.62-6.86,6.93-13.46,9.11-22.85"/>
            <path class="cls-6" d="M84.5,333.5c-4.93,3.87-5.88,11.81-4.5,18.87a27.39,27.39,0,0,0,2.76,7.9q63.13,7,126.52,11.17a10.84,10.84,0,0,0,10.11-16.19c-.52-.93-1.08-1.82-1.66-2.67a30.17,30.17,0,0,0-3.46-4.3,22.23,22.23,0,0,0-3.49-2.86,23.3,23.3,0,0,0-15.64-3.66,18.86,18.86,0,0,0-2,.34"/>
            <path class="cls-6" d="M242.63,303c2.26,2.31,5.51,3.75,6.56,5.48a4,4,0,0,1,.69,2.17h0c-.06,1.22-7.82,6.23-8.7,7.09a363.67,363.67,0,0,1-28.93,25.56"/>
            <path class="cls-6" d="M217.18,352.92l.55-.34c17.93-11.16,40.92-13.89,53.52-30.85a2.42,2.42,0,0,0,.54-1,2.15,2.15,0,0,0-.39-1.37c-2.61-4.53-12.21-12.19-17.2-10.64a19.36,19.36,0,0,0-4.32,2,50.34,50.34,0,0,0-8.49,6.83"/>
          </g>
        </g>
        <g>
          <path class="cls-7" d="M84.81,111a26.31,26.31,0,0,0-12.54-6.43,11.85,11.85,0,0,0-7.34.42c-2.27,1.05-4,3.55-3.5,6,.52,2.6,3.29,4.21,5.93,4.41s5.23-.64,7.81-1.24a42.11,42.11,0,0,1,11.84-1l-3.62-2.23"/>
          <path class="cls-8" d="M86.57,109.24a29.57,29.57,0,0,0-10.88-6.36c-4-1.28-8.9-2-12.66.29-3.55,2.17-5.48,6.87-3.12,10.62s7.22,4.52,11.36,3.82c2.64-.45,5.19-1.29,7.85-1.68a41.62,41.62,0,0,1,7.89-.3c2.57.13,3.29-3.42,1.27-4.66l-3.63-2.23c-2.75-1.68-5.26,2.64-2.52,4.32l3.62,2.23L87,110.63a50.83,50.83,0,0,0-14.78,1.67c-2,.48-4.26,1-6.25.24-1.1-.44-2.23-1.31-2.13-2.61a3.72,3.72,0,0,1,2.51-2.84,10.53,10.53,0,0,1,6,.06A24,24,0,0,1,83,112.77c2.37,2.17,5.92-1.36,3.53-3.53Z"/>
        </g>
        <g>
          <path class="cls-7" d="M83.86,124.46a12,12,0,0,0-13.24,7,4.78,4.78,0,0,0-.22,3.72c.79,1.74,2.94,2.3,4.83,2.57a6,6,0,0,0,3.43-.21,5,5,0,0,0,2.09-2.27c2.13-3.95,2.26-9.15,5.73-12"/>
          <path class="cls-8" d="M84.53,122.05a14.53,14.53,0,0,0-10.27,1.73,13.53,13.53,0,0,0-6.46,8.39,6.11,6.11,0,0,0,1.82,6.06,9.64,9.64,0,0,0,4.95,2c2.39.36,4.75.35,6.65-1.38a12.37,12.37,0,0,0,2.88-4.94c.63-1.67,1.07-3.4,1.69-5.08.08-.21.17-.42.25-.64-.16.41,0-.1.11-.23a11,11,0,0,1,.63-1.17c.07-.13.15-.25.23-.38l.26-.36c-.17.22-.16.21,0,0a12.18,12.18,0,0,1,1-.94,2.51,2.51,0,0,0,0-3.53,2.55,2.55,0,0,0-3.54,0c-2.29,1.94-3.4,4.79-4.3,7.57-.41,1.3-.81,2.6-1.3,3.87-.27.69.12-.26-.06.15l-.2.41a8.32,8.32,0,0,1-.5.93c-.08.14-.17.28-.26.41.21-.3,0,0-.06.07s-.22.23-.35.33c.32-.27-.22.12-.28.14.31-.12-.13,0-.16,0,.37,0-.07,0-.12,0a10,10,0,0,1-1.22-.05c-.48,0,.47.08-.22,0l-.45-.08a11.07,11.07,0,0,1-1.11-.25c-.15,0-.89-.32-.46-.12a8.09,8.09,0,0,1-.76-.42c.37.23.1.09,0,0s-.4-.52-.22-.23-.09-.31,0,0a1.47,1.47,0,0,1-.06-.19,3.48,3.48,0,0,1,.41-1.88c-.18.45.14-.26.21-.41.18-.32.37-.64.57-.95l.26-.36c-.27.38,0,0,.09-.11s.39-.44.59-.65.48-.47.73-.69l.34-.28c-.4.32.17-.11.21-.14a13.26,13.26,0,0,1,1.94-1.1c.08,0,.44-.17,0,0l.62-.22a10.69,10.69,0,0,1,1.07-.3l.44-.1c.06,0,.66-.11.32-.06s.34,0,.33,0l.56,0a10.1,10.1,0,0,1,1.1,0c.14,0,.63.07.11,0q.33,0,.66.12a2.5,2.5,0,0,0,1.33-4.83Z"/>
        </g>
      </g>
    </g>
  </g>
</svg>
