<svg xmlns="http://www.w3.org/2000/svg" viewBox="0 0 199.99 343.51"><defs><style>.cls-1{fill:#e9f5f7;}.cls-2{fill:#d51359;}.cls-3{fill:#fbede7;}.cls-4{fill:#2e0e04;}.cls-5{fill:#065c3f;}.cls-6{fill:none;stroke:#231815;stroke-miterlimit:10;stroke-width:5px;}.cls-7{fill:#231815;}</style></defs><g id="レイヤー_2" data-name="レイヤー 2"><g id="レイヤー_1-2" data-name="レイヤー 1"><path class="cls-1" d="M187.9,77c9-.62,12.75,13.45,6.48,19.92-5.58,5.77-14.56,6.2-22.53,4.29,1.28-4.37-.54-9.19-3.8-12.66l1.16,0a11.88,11.88,0,0,0,2.92-1.22l.1,0,.15-.09a23.09,23.09,0,0,0,7-5.74C181.94,79.2,184.59,77.25,187.9,77Z"/><path class="cls-2" d="M6,87.19v-.83C8.68,52,33.29,20.8,65.52,8.6S136,3,163.29,24c10.54,8.11,19.92,18.88,22.42,31.94a31.68,31.68,0,0,1-6.33,25.52c-2.27,2-4.47,4.25-7,5.74l-.15.09-.1,0a22.75,22.75,0,0,1-2.92,1.22l-1.16,0a16.63,16.63,0,0,0-4-3.11c-5.93-3.32-13.11-2.69-19.85-3.55-49-6.2-98.81-3.91-138.2,5.55C5.29,87.4,4.45,87.33,6,87.19Z"/><path class="cls-3" d="M75.34,153.18c-.55,0-1.09,0-1.64,0-5.81,0-12.08-2-15.24-6.88-2.28-3.53-2.56-8-2.28-12.19.81-11.75,6.58-24.09,17.44-28.64l0-1,96-1.92c-5.21,5.13-1,14.42,3.11,20.82,4.29,6.64,7.13,17.44,0,20.81-3.78,1.78-8.46.07-12.34,1.63a27.83,27.83,0,0,0-8.05,4.41,10.92,10.92,0,0,1-2.46,1.28,6.54,6.54,0,0,0-2.14.73,44.47,44.47,0,0,1-10.61,1.84c-18.46,0-32.67,1.5-53.12,10.23a27.79,27.79,0,0,1-8,2Z"/><path class="cls-1" d="M169.61,102.59l-96,1.92-34.46.69c-10.74.21-17.1-.27-22.48-3.61C12.53,99,9,94.78,4.44,87.86c3.27-.21,2.5-.3,1.61-.39C45.44,78,95.28,75.72,144.25,81.92c6.74.86,13.92.23,19.85,3.55a16.63,16.63,0,0,1,4,3.11c3.26,3.47,5.08,8.29,3.8,12.66a10.86,10.86,0,0,1-.48,1.31Z"/><path class="cls-1" d="M24.11,137.94c.14-.12.28-.22.43-.33,8,10.24,16.75,21,29,25.34,7,2.49,15,4.22,22.42,3.42a27.79,27.79,0,0,0,8-2c20.45-8.73,34.66-10.19,53.12-10.23a44.47,44.47,0,0,0,10.61-1.84c.76-.23,1.48-.47,2.14-.73,7.08-1.16,16.48,8.24,13.14,14.76a16.4,16.4,0,0,1-5.66,5.69c-8.42,5.72-18.12,8.87-28,11.83-10.13,3-20.38,5.84-29.51,11-9.86,5.61-18.34,14-29.21,17.24a33.76,33.76,0,0,1-9.51,1.43,39.14,39.14,0,0,1-11-1.48,43.21,43.21,0,0,1-15.83-8.3c-10-8.28-16.15-20.55-18.65-33.27C13.34,158.88,14.78,145.08,24.11,137.94Z"/><path class="cls-2" d="M72,277.94c-.52-.68-1-1.38-1.51-2.09-4.42-6.58-7-14.74-8.14-22.66-1.68-11.49-1.67-26.28-1.14-37.88l0-1.78a33.76,33.76,0,0,0,9.51-1.43c10.87-3.27,19.35-11.63,29.21-17.24,9.13-5.2,19.38-8,29.51-11l.61,2.05c9.4,8.21,12,21.84,13.36,34.35a404.14,404.14,0,0,1,2.17,56.09v1.78H126.9l-1.32-.18a9.11,9.11,0,0,1-1.69,4.66,8.26,8.26,0,0,1-3.27,2.26c-.76.31-1.55.57-2.31.82-8.74,2.75-18.29,4.91-27.16,3.6A28.84,28.84,0,0,1,72,277.94Zm21.81-59.58A5.19,5.19,0,0,0,90.23,213c-2.23-1.11-7.56,2.73-8,5.18A5.14,5.14,0,0,0,86,223.81a6.49,6.49,0,0,0,6.59-2.51A5.94,5.94,0,0,0,93.78,218.36Zm-3.39,28.39a2.88,2.88,0,0,0,.42-2,8.05,8.05,0,0,0-.72-3.54c-.59-1.06-2.3-3.21-3.46-2.85a9,9,0,0,0-4.41-1,4,4,0,0,0-3.49,2.53,4.51,4.51,0,0,0,.52,3.37,8.71,8.71,0,0,0,10,4.12A2.4,2.4,0,0,0,90.39,246.75Zm0,21.65a3.43,3.43,0,0,0,.31-2.49,7.3,7.3,0,0,0-1.09-3.26,3,3,0,0,0-2.48-1.29v0a5.87,5.87,0,0,0-6.55,0,4.73,4.73,0,0,0-1.23,6.19c1.72,2.55,5.46,2.41,8.5,2A3.58,3.58,0,0,0,90.41,268.4Z"/><path class="cls-3" d="M144.7,278.09V281a6.39,6.39,0,0,1-1.84,2.62,15.14,15.14,0,0,1-17.23,2.08h-3.46v-.64l-1.55-.26a8.26,8.26,0,0,0,3.27-2.26,9.11,9.11,0,0,0,1.69-4.66l1.32.18Z"/><path class="cls-4" d="M127.55,329a6.5,6.5,0,0,1-1.12,6.69,10.12,10.12,0,0,1-2.87,1.79c-4.24,2-8.76,4-13.41,3.48-6.18-.67-11.1-5.66-14-11.18l-3.31-.07c.72-.72,1.43-1.46,2.13-2.2l2.31-2.14a6.36,6.36,0,0,0,2.08,1.27,11.6,11.6,0,0,0,5.74.18,106.34,106.34,0,0,0,13.44-2.85,8.87,8.87,0,0,0,1.88-.71l2.91,0A15.45,15.45,0,0,1,127.55,329Z"/><path class="cls-2" d="M122.17,285.73l0,33.16a5.52,5.52,0,0,1-.84,3.59,3.29,3.29,0,0,1-.91.75,8.87,8.87,0,0,1-1.88.71,106.34,106.34,0,0,1-13.44,2.85,11.6,11.6,0,0,1-5.74-.18,6.36,6.36,0,0,1-2.08-1.27,9.58,9.58,0,0,1-2.49-4.07,26.58,26.58,0,0,1-1.22-6.21q-1.23-12.71-2.47-25.4l0-.41c8.87,1.31,18.42-.85,27.16-3.6.76-.25,1.55-.51,2.31-.82l1.55.26Z"/><path class="cls-4" d="M67.3,313.94l3.94-2.26a13.12,13.12,0,0,0,1.15,2.07,17.32,17.32,0,0,0,9.34,6.4,51.2,51.2,0,0,0,11.37,1.76l1.72-.64a9.58,9.58,0,0,0,2.49,4.07L95,327.48c-.7.74-1.41,1.48-2.13,2.2-3.12,3.16-6.51,6.11-10.67,7.52A25.16,25.16,0,0,1,75,338.34a26.92,26.92,0,0,1-10.1-1.27,14.27,14.27,0,0,1-7.79-6.31A11.37,11.37,0,0,1,67.3,313.94Z"/><path class="cls-2" d="M94.82,321.27l-1.72.64a51.2,51.2,0,0,1-11.37-1.76,17.32,17.32,0,0,1-9.34-6.4,13.12,13.12,0,0,1-1.15-2.07c-1.64-3.62-1.8-7.87-1.7-11.9A127.21,127.21,0,0,1,72,277.94a28.84,28.84,0,0,0,19.18,11.31l0,.41q1.23,12.7,2.47,25.4A26.58,26.58,0,0,0,94.82,321.27Z"/><path class="cls-5" d="M90.23,213a5.19,5.19,0,0,1,3.55,5.36,5.94,5.94,0,0,1-1.22,2.94A6.49,6.49,0,0,1,86,223.81a5.14,5.14,0,0,1-3.78-5.63C82.67,215.73,88,211.89,90.23,213Z"/><path class="cls-5" d="M90.81,244.72a2.88,2.88,0,0,1-.42,2,2.4,2.4,0,0,1-1.15.65,8.71,8.71,0,0,1-10-4.12,4.51,4.51,0,0,1-.52-3.37,4,4,0,0,1,3.49-2.53,9,9,0,0,1,4.41,1c1.16-.36,2.87,1.79,3.46,2.85A8.05,8.05,0,0,1,90.81,244.72Z"/><path class="cls-5" d="M87.15,261.36a3,3,0,0,1,2.48,1.29,7.3,7.3,0,0,1,1.09,3.26,3.43,3.43,0,0,1-.31,2.49,3.58,3.58,0,0,1-2.54,1.12c-3,.45-6.78.59-8.5-2a4.73,4.73,0,0,1,1.23-6.19,5.87,5.87,0,0,1,6.55,0Z"/><path class="cls-3" d="M75.34,153.18,76,166.37c-7.44.8-15.38-.93-22.42-3.42-12.28-4.36-21-15.1-29-25.34-.15.11-.29.21-.43.33q-4.77-16.17-9.55-32.37l2.1-4c5.38,3.34,11.74,3.82,22.48,3.61l34.46-.69,0,1C62.76,110.06,57,122.4,56.18,134.15c-.28,4.2,0,8.66,2.28,12.19,3.16,4.88,9.43,6.84,15.24,6.88C74.25,153.22,74.79,153.21,75.34,153.18Z"/><path class="cls-2" d="M68,275.84a1.24,1.24,0,0,1-1,.59,10.54,10.54,0,0,1-6.56-1.65,6.27,6.27,0,0,1-2.72-5.93,4.5,4.5,0,0,1,5-3.69c-4-1.23-7.13-4.43-9.09-8.11a37.1,37.1,0,0,1-3.45-12c-1.31-8.67-1.21-23.37-.39-32.1l.26-.95a39.14,39.14,0,0,0,11,1.48l0,1.78c-.53,11.6-.54,26.39,1.14,37.88,1.16,7.92,3.72,16.08,8.14,22.66Z"/><path class="cls-1" d="M6.05,87.47c.89.09,1.66.18-1.61.39Z"/><path class="cls-6" d="M4.44,87.86l1.61-.39C45.44,78,95.28,75.72,144.25,81.92c6.74.86,13.92.23,19.85,3.55a16.63,16.63,0,0,1,4,3.11c3.26,3.47,5.08,8.29,3.8,12.66a10.86,10.86,0,0,1-.48,1.31l-1.76,0-96,1.92-34.46.69c-10.74.21-17.1-.27-22.48-3.61C12.53,99,9,94.78,4.44,87.86c3.27-.21,2.5-.3,1.61-.39s-1.6-.14-.1-.28c.36,0,.86-.07,1.54-.12"/><path class="cls-6" d="M172.38,87.19c2.53-1.49,4.73-3.74,7-5.74,2.56-2.25,5.21-4.2,8.52-4.42,9-.62,12.75,13.45,6.48,19.92-5.58,5.77-14.56,6.2-22.53,4.29-1-.22-1.95-.49-2.89-.79"/><path class="cls-6" d="M172.13,87.33a22.75,22.75,0,0,1-2.92,1.22,11.88,11.88,0,0,0,2.92-1.22"/><path class="cls-6" d="M172.13,87.33l.1,0,.15-.09"/><path class="cls-6" d="M5.94,86.36C8.68,52,33.29,20.8,65.52,8.6S136,3,163.29,24c10.54,8.11,19.92,18.88,22.42,31.94a31.68,31.68,0,0,1-6.33,25.52,23.09,23.09,0,0,1-7,5.74"/><path class="cls-6" d="M14.56,105.57q4.78,16.19,9.55,32.37l.24.83"/><path class="cls-6" d="M73.62,105.51C62.76,110.06,57,122.4,56.18,134.15c-.28,4.2,0,8.66,2.28,12.19,3.16,4.88,9.43,6.84,15.24,6.88.55,0,1.09,0,1.64,0A33.45,33.45,0,0,0,101.63,138"/><path class="cls-6" d="M170.22,102a8.18,8.18,0,0,0-.61.55c-5.21,5.13-1,14.42,3.11,20.82,4.29,6.64,7.13,17.44,0,20.81-3.78,1.78-8.46.07-12.34,1.63a27.83,27.83,0,0,0-8.05,4.41,10.92,10.92,0,0,1-2.46,1.28c-.66.26-1.38.5-2.14.73a44.47,44.47,0,0,1-10.61,1.84c-18.46,0-32.67,1.5-53.12,10.23a27.79,27.79,0,0,1-8,2c-7.44.8-15.38-.93-22.42-3.42-12.28-4.36-21-15.1-29-25.34-.15.11-.29.21-.43.33-9.33,7.14-10.77,20.94-8.49,32.54,2.5,12.72,8.67,25,18.65,33.27a43.21,43.21,0,0,0,15.83,8.3,39.14,39.14,0,0,0,11,1.48,33.76,33.76,0,0,0,9.51-1.43c10.87-3.27,19.35-11.63,29.21-17.24,9.13-5.2,19.38-8,29.51-11,9.83-3,19.53-6.11,28-11.83A16.4,16.4,0,0,0,163,166.3c3.34-6.52-6.06-15.92-13.14-14.76a6.54,6.54,0,0,0-2.14.73"/><path class="cls-6" d="M129.06,185.09q.48.38.93.78c9.4,8.21,12,21.84,13.36,34.35a404.14,404.14,0,0,1,2.17,56.09"/><path class="cls-6" d="M61.18,215.31c-.53,11.6-.54,26.39,1.14,37.88,1.16,7.92,3.72,16.08,8.14,22.66.48.71,1,1.41,1.51,2.09a28.84,28.84,0,0,0,19.18,11.31c8.87,1.31,18.42-.85,27.16-3.6.76-.25,1.55-.51,2.31-.82a8.26,8.26,0,0,0,3.27-2.26,9.11,9.11,0,0,0,1.69-4.66c.07-.47.12-.94.16-1.4a155.1,155.1,0,0,0-.3-32.24"/><path class="cls-6" d="M146.36,278.09H126.9"/><path class="cls-6" d="M90.23,213a5.19,5.19,0,0,1,3.55,5.36,5.94,5.94,0,0,1-1.22,2.94A6.49,6.49,0,0,1,86,223.81a5.14,5.14,0,0,1-3.78-5.63C82.67,215.73,88,211.89,90.23,213Z"/><path class="cls-6" d="M86.63,238.33c1.16-.36,2.87,1.79,3.46,2.85a8.05,8.05,0,0,1,.72,3.54,2.88,2.88,0,0,1-.42,2,2.4,2.4,0,0,1-1.15.65,8.71,8.71,0,0,1-10-4.12,4.51,4.51,0,0,1-.52-3.37,4,4,0,0,1,3.49-2.53A9,9,0,0,1,86.63,238.33Z"/><path class="cls-6" d="M86.61,261.45a1.7,1.7,0,0,1,.54-.09,3,3,0,0,1,2.48,1.29,7.3,7.3,0,0,1,1.09,3.26,3.43,3.43,0,0,1-.31,2.49,3.58,3.58,0,0,1-2.54,1.12c-3,.45-6.78.59-8.5-2a4.73,4.73,0,0,1,1.23-6.19,5.87,5.87,0,0,1,6.55,0"/><path class="cls-6" d="M122.17,285.09v.64l0,33.16a5.52,5.52,0,0,1-.84,3.59,3.29,3.29,0,0,1-.91.75,8.87,8.87,0,0,1-1.88.71,106.34,106.34,0,0,1-13.44,2.85,11.6,11.6,0,0,1-5.74-.18,6.36,6.36,0,0,1-2.08-1.27,9.58,9.58,0,0,1-2.49-4.07,26.58,26.58,0,0,1-1.22-6.21q-1.23-12.71-2.47-25.4"/><path class="cls-6" d="M72,277.59c0,.12-.05.23-.07.35a127.21,127.21,0,0,0-2.43,21.84c-.1,4,.06,8.28,1.7,11.9a13.12,13.12,0,0,0,1.15,2.07,17.32,17.32,0,0,0,9.34,6.4,51.2,51.2,0,0,0,11.37,1.76"/><path class="cls-6" d="M95,327.48c-.7.74-1.41,1.48-2.13,2.2-3.12,3.16-6.51,6.11-10.67,7.52A25.16,25.16,0,0,1,75,338.34a26.92,26.92,0,0,1-10.1-1.27,14.27,14.27,0,0,1-7.79-6.31A11.37,11.37,0,0,1,67.3,313.94a10.85,10.85,0,0,1,3.25.49"/><path class="cls-6" d="M123.36,323.26a15.45,15.45,0,0,1,4.19,5.71,6.5,6.5,0,0,1-1.12,6.69,10.12,10.12,0,0,1-2.87,1.79c-4.24,2-8.76,4-13.41,3.48-6.18-.67-11.1-5.66-14-11.18"/><path class="cls-6" d="M144.7,281a6.39,6.39,0,0,1-1.84,2.62,15.14,15.14,0,0,1-17.23,2.08"/><path class="cls-6" d="M49.84,213c-.82,8.73-.92,23.43.39,32.1a37.1,37.1,0,0,0,3.45,12c2,3.68,5.11,6.88,9.09,8.11a4.5,4.5,0,0,0-5,3.69,6.27,6.27,0,0,0,2.72,5.93,10.54,10.54,0,0,0,6.56,1.65,1.24,1.24,0,0,0,1-.59.28.28,0,0,0-.15-.36"/><circle class="cls-7" cx="109.84" cy="122.17" r="3.19"/><circle class="cls-7" cx="44.87" cy="119.89" r="3.19"/></g></g></svg>