<svg xmlns="http://www.w3.org/2000/svg" viewBox="0 0 312.45 350.87"><defs><style>.cls-1{fill:#e9f5f7;}.cls-2{fill:#fbede7;}.cls-3{fill:#d51359;}.cls-4{fill:#2e0e04;}.cls-5{fill:none;stroke:#231815;stroke-miterlimit:10;stroke-width:5.5px;}</style></defs><g id="レイヤー_2" data-name="レイヤー 2"><g id="レイヤー_1-2" data-name="レイヤー 1"><path class="cls-1" d="M26.16,213.59c-11.9.63-24,10.18-23.39,22.08.59,10.91,10.75,18.52,20.15,24.08C33,265.7,44.09,271.34,55.73,270.32a31,31,0,0,0,21.7-12c3.37-4.45,5.88-10.14,11.06-12.22,3.78-1.52,8.06-.69,12.09-1.26s8.35-3.76,7.54-7.68h-.06c-1.74-4.51-4.83-9.9-9.64-9.33-2.8.33-4.86,2.68-7.21,4.26-4.81,3.2-11.19,3.16-16.68,1.37s-10.33-5.12-15.19-8.23C49.3,218.81,38.06,213,26.16,213.59Z"/><path class="cls-2" d="M82.52,158.18c-1.89,5.35-3.75,11.46-1.1,16.48a16.67,16.67,0,0,0,3.13,3.93,42.32,42.32,0,0,0,4.68,4l.4-.05a21.36,21.36,0,0,1,.73-8.85c.82-2.66,2.28-5.29,4.73-6.61a12.85,12.85,0,0,1,5.42-1.2c.83,0,1.66-.07,2.5-.08v-.16c.62-3.42-.86-6.87-2.66-9.85-2.34-3.85-6.36-7.71-10.74-6.61C85.74,150.14,83.86,154.42,82.52,158.18Z"/><path class="cls-3" d="M90.36,173.68a21.36,21.36,0,0,0-.73,8.85,21.72,21.72,0,0,0,5.23,11.76c4.44,5,10.88,7.61,17.08,10.08l16.83,6.68c4.93-3.51,9.93-7,13.51-11.84,3.81-5.15,5.63-12.38,3-18.06l-.12.06A63.21,63.21,0,0,0,103,165.79c-.84,0-1.67,0-2.5.08a12.85,12.85,0,0,0-5.42,1.2C92.64,168.39,91.18,171,90.36,173.68Z"/><path class="cls-1" d="M111.25,66c-8,1.5-14.46,10-12.61,18s12.52,12.53,19,7.77c-1.5-4.27.69-9.3,4.22-12.24a24,24,0,0,1,9.33-5A18.52,18.52,0,0,0,118.43,66,19.93,19.93,0,0,0,111.25,66Z"/><path class="cls-2" d="M216.23,151.51h0a32.16,32.16,0,0,0,13,2.54,26.82,26.82,0,0,0,3.79-.34A19,19,0,0,0,240,151.3c7-4.23,9.72-13.39,8.61-21.48s-5.31-15.4-9.52-22.4v-.55c-35.31-.24-70.69-3.7-105.88-7.17a48.32,48.32,0,0,1-5.35-.79c1.48,7.75-.57,15.87-7.23,20.09-1.54,1-3.33,1.52-4.8,2.58-3.81,2.75-4.47,8.5-2.45,12.73s6.11,7.13,10.37,9.08c4.07,1.86,8.54,6.41,9.94,10.66l.64.31c5.09-4.32,12.85-5.65,20.18-5.52,1.13,0,2.25.07,3.35.16C177.53,149.87,196.65,148.61,216.23,151.51Zm-31.36-31.95a2.37,2.37,0,0,1,0-3.36,2.78,2.78,0,0,1,3.48-.1,1.77,1.77,0,0,1-.36,2.78A2.06,2.06,0,0,1,184.87,119.56Z"/><path class="cls-1" d="M117.67,91.78c.07.22.16.43.25.64,1.71,3.81,5.66,5.58,9.91,6.49a48.32,48.32,0,0,0,5.35.79c35.19,3.47,70.57,6.93,105.88,7.17,15,.12,30-.36,44.95-1.67,1.22-.09,2.44-.2,3.66-.32,6.05-.58,12.44-1.44,17.17-5.25s6.77-11.6,2.58-16a10.93,10.93,0,0,0-6.18-2.9c-3.2-.61-7-.72-10.82-1.71-81-5.23-103.87-3.38-155.25-4.88a15.48,15.48,0,0,0-3.95.42,24,24,0,0,0-9.33,5C118.36,82.48,116.17,87.51,117.67,91.78Z"/><path class="cls-3" d="M134.42,21.22C122,32.16,114.59,49.57,118.48,65.64l0,.35a18.52,18.52,0,0,1,12.79,8.57,15.48,15.48,0,0,1,3.95-.42c51.38,1.5,74.27-.35,155.25,4.88,3.86,1,7.62,1.1,10.82,1.71,1.77-16.63-8.69-32.19-20.91-43.59A129.85,129.85,0,0,0,179.84,3.4C163.4,5.1,146.81,10.29,134.42,21.22Z"/><path class="cls-3" d="M128.77,211.05l11.39,4.53c3,1.19,6.41,2.41,9.44,1.24,4.12-7.7,8.6-15.2,12.57-22.5l3.84-.47c-6.14-4-12-9.53-17.27-14.47l-3.81,1.09c.12.23.23.45.33.68,2.65,5.68.83,12.91-3,18.06C138.7,204.05,133.7,207.54,128.77,211.05Z"/><path class="cls-1" d="M237.74,218.63a13.38,13.38,0,0,0,5-1.52A19.29,19.29,0,0,0,247.2,213c.34-.38.67-.77,1-1.15,10-11.92,10.2-23.88,20.81-35.8,4.94-5.55,13.23-13.29,10.24-20.09-1.77-4-3.22-6.3-5.46-7.18-1.82-.71-4.16-.51-7.61.39-10.59,2.76-10.33,5.21-33.06,4.84l-.05-.34a26.82,26.82,0,0,1-3.79.34,32.16,32.16,0,0,1-13-2.54h0c-19.58-2.9-38.7-1.64-58.4-2.51-1.11,0-2.23-.1-3.35-.16-7.33-.13-15.09,1.2-20.18,5.52a15.41,15.41,0,0,0-4,5.1c-3.77,7.88,10.78,12.84,17.18,18.79l1.21,1.13c5.29,4.94,11.13,10.5,17.27,14.47q1.41.92,2.85,1.71c7.22,4,4.5,9.77,10.5,15.41,3.22,3,6.35,6.34,10.43,8s8.83,1.54,13.33,1.33L234,218.92C235.22,218.86,236.49,218.8,237.74,218.63Z"/><path class="cls-3" d="M199.51,268.82a3.46,3.46,0,0,1,2.39,2.87,7.41,7.41,0,0,1-1.29,4.58,5.6,5.6,0,0,1-1.38,1.74,4.18,4.18,0,0,1-4.22.21,5.32,5.32,0,0,1-2.85-3.29,4.46,4.46,0,0,1,1-4.17c1.55-1.65,4.07-1.7,6.35-1.58Zm1.88-20.88a2.4,2.4,0,0,1,1.28,1,5.34,5.34,0,0,1,.65,2.36,7.56,7.56,0,0,1-.37,3.78,4.85,4.85,0,0,1-6,2.47,5.07,5.07,0,0,1-2.91-5.85,5.29,5.29,0,0,1,5.44-3.73Zm22.33,42.41c3.31-3.79,4.85-8.87,6.13-13.78a247.82,247.82,0,0,0,5.66-28.69,244.82,244.82,0,0,0,2.23-29.25c-1.25.17-2.52.23-3.78.29l-30.84,1.41c-4.5.21-9.17.39-13.33-1.33s-7.21-5-10.43-8c-6-5.64-3.28-11.44-10.5-15.41q-1.44-.8-2.85-1.71l-3.84.47c-4,7.3-8.45,14.8-12.57,22.5-6,11.33-11.28,23.09-12.91,35.2-.68,5.08,2.83,13,7.17,15.7a13.65,13.65,0,0,1,4.23,4.66c1.44,2.34,2.69,4.9,4.65,6.79,9.63,9.27,20,19,33.15,21.53l.73.13c9.34,1.64,19-.56,27.75-4.32a27,27,0,0,0,8.42-5.17Q223.29,290.86,223.72,290.35ZM196,234.14a3.69,3.69,0,0,1,1-2.45,5.34,5.34,0,0,1,5-1.6l.29.07a4.2,4.2,0,0,1-1,8.31,6.15,6.15,0,0,1-2.46-.73C197.4,237,196,235.74,196,234.14Z"/><path class="cls-4" d="M168.09,327.65l-1.25-2.35a9.13,9.13,0,0,1-1.79.84c-3.27,1.07-6.79-.32-10-1.7-5.16-2.24-10.7-4.81-13.35-9.78a19.36,19.36,0,0,1-1.92-7.08l-.88.09q-1.09,10.31-2.21,20.59a2.6,2.6,0,0,0,.08,1.24,2.47,2.47,0,0,0,1.15,1.06l21.4,12.7c2.88,1.71,5.85,3.45,9.16,3.92,2.25.32,4.77-.07,6.31-1.75a7.45,7.45,0,0,0,1.48-2.69,12.84,12.84,0,0,0-.64-10.53A9.09,9.09,0,0,0,168.09,327.65Z"/><path class="cls-3" d="M182.31,310.72a27.39,27.39,0,0,0,3.87-7.43l.44-2.46-.73-.13c-13.12-2.57-23.52-12.26-33.15-21.53-2-1.89-3.21-4.45-4.65-6.79l-.08.05a55.61,55.61,0,0,0-8.27,34.31c0,.28,0,.56.08.84a19.36,19.36,0,0,0,1.92,7.08c2.65,5,8.19,7.54,13.35,9.78,3.17,1.38,6.69,2.77,10,1.7a9.13,9.13,0,0,0,1.79-.84,23.22,23.22,0,0,0,2.66-2C174.11,319.52,178.87,315.51,182.31,310.72Z"/><path class="cls-3" d="M234.93,319.79c-.26-10.51-5.66-20.3-11.21-29.44q-.43.51-.93,1a27,27,0,0,1-8.42,5.17c-8.71,3.76-18.41,6-27.75,4.32l-.44,2.46a27.39,27.39,0,0,1-3.87,7.43c.62,7.1,4,13.75,7.24,20.14,1.26,2.45,2.79,5.13,5.43,5.89a5.94,5.94,0,0,0,1.18.2,13.81,13.81,0,0,0,3.71-.45q14.38-3.19,28.55-7.27c2.08-.59,4.32-1.33,5.49-3.15a8,8,0,0,0,1-3.94C234.94,321.35,235,320.57,234.93,319.79Z"/><path class="cls-2" d="M184.9,116.2a2.37,2.37,0,0,0,0,3.36,2.06,2.06,0,0,0,3.15-.68,1.77,1.77,0,0,0,.36-2.78A2.78,2.78,0,0,0,184.9,116.2Z"/><path class="cls-4" d="M196.16,337l-.15,1.57c3.67,2.64,5.74,7.74,10.11,9.14a14.31,14.31,0,0,0,4.43.46h23.89c6.44,0,13.35-.14,18.61-3.86,3.1-2.19,5.3-5.43,7.16-8.75,3.05-5.45,5.29-12.45,1.91-17.72-2.81-4.39-8.78-5.88-13.89-4.85-4.94,1-9.24,3.86-13.3,6.85,0,.78,0,1.56,0,2.35a8,8,0,0,1-1,3.94c-1.17,1.82-3.41,2.56-5.49,3.15q-14.14,4.08-28.55,7.27A13.81,13.81,0,0,1,196.16,337Z"/><path class="cls-2" d="M233.06,153.71l.05.34c22.73.37,22.47-2.08,33.06-4.84,3.45-.9,5.79-1.1,7.61-.39l.57-1q4.89-20.59,9.79-41.17L284,105.2c-15,1.31-29.95,1.79-44.95,1.67v.55c4.21,7,8.41,14.3,9.52,22.4S247,147.07,240,151.3A19,19,0,0,1,233.06,153.71Zm29.88-31.21c-1.47-.37-2.05-2.68-.78-3.49.4-.59,2.76-1.39,3.3-.92a2.19,2.19,0,0,1,.64,2A2.79,2.79,0,0,1,262.94,122.5Z"/><path class="cls-3" d="M250.57,214.21l-2.38-2.32c-.32.38-.65.77-1,1.15a19.29,19.29,0,0,1-4.49,4.07,13.38,13.38,0,0,1-5,1.52,244.82,244.82,0,0,1-2.23,29.25l1.25.18c3.79,6.42,9.32,12,16.18,14.88a26.31,26.31,0,0,0,12.81,2,21.74,21.74,0,0,0,8.74-2.73,19.32,19.32,0,0,0,9.72-16.46,15.8,15.8,0,0,0-.19-2.27c-1.22-7.65-7.5-13.37-13.65-18.09q-4.72-3.63-9.65-7C257.65,216.3,254.21,214.21,250.57,214.21Z"/><path class="cls-2" d="M262.16,119c-1.27.81-.69,3.12.78,3.49a2.79,2.79,0,0,0,3.16-2.45,2.19,2.19,0,0,0-.64-2C264.92,117.62,262.56,118.42,262.16,119Z"/><path class="cls-2" d="M265.75,264.93l0,.28L285,266.45c4.36.29,9,.52,12.86-1.47,4.49-2.3,7.16-7.27,7.85-12.27.71-5.19-1.11-11.39-6-13.28a10.36,10.36,0,0,0-8.31.78,22.79,22.79,0,0,0-6.51,5.52h-.63a19.32,19.32,0,0,1-9.72,16.46A21.74,21.74,0,0,1,265.75,264.93Z"/><path class="cls-5" d="M290.42,79c-81-5.23-103.87-3.38-155.25-4.88a15.48,15.48,0,0,0-3.95.42,24,24,0,0,0-9.33,5c-3.53,2.94-5.72,8-4.22,12.24.07.22.16.43.25.64,1.71,3.81,5.66,5.58,9.91,6.49a48.32,48.32,0,0,0,5.35.79c35.19,3.47,70.57,6.93,105.88,7.17,15,.12,30-.36,44.95-1.67,1.22-.09,2.44-.2,3.66-.32,6.05-.58,12.44-1.44,17.17-5.25s6.77-11.6,2.58-16a10.93,10.93,0,0,0-6.18-2.9c-3.2-.61-7-.72-10.82-1.71"/><path class="cls-5" d="M301.24,80.76v0c1.77-16.63-8.69-32.19-20.91-43.59A129.85,129.85,0,0,0,179.84,3.4c-16.44,1.7-33,6.89-45.42,17.82s-19.83,28.35-15.94,44.42"/><path class="cls-5" d="M131.5,75c-.09-.16-.18-.31-.28-.46A18.52,18.52,0,0,0,118.43,66a19.93,19.93,0,0,0-7.18.05c-8,1.5-14.46,10-12.61,18s12.52,12.53,19,7.77l.17-.12"/><path class="cls-5" d="M216.23,151.51a33.07,33.07,0,0,1-15.48-13.15"/><path class="cls-5" d="M239.06,107.42c4.21,7,8.41,14.3,9.52,22.4S247,147.07,240,151.3a19,19,0,0,1-6.91,2.41,26.82,26.82,0,0,1-3.79.34,32.16,32.16,0,0,1-13-2.54"/><path class="cls-5" d="M154.48,148.84c1.12.06,2.24.12,3.35.16,19.7.87,38.82-.39,58.4,2.51h0"/><path class="cls-5" d="M158.47,149.05l-.64-.05c-1.1-.09-2.22-.14-3.35-.16-7.33-.13-15.09,1.2-20.18,5.52a15.41,15.41,0,0,0-4,5.1c-3.77,7.88,10.78,12.84,17.18,18.79l1.21,1.13c5.29,4.94,11.13,10.5,17.27,14.47q1.41.92,2.85,1.71c7.22,4,4.5,9.77,10.5,15.41,3.22,3,6.35,6.34,10.43,8s8.83,1.54,13.33,1.33L234,218.92c1.26-.06,2.53-.12,3.78-.29a13.38,13.38,0,0,0,5-1.52A19.29,19.29,0,0,0,247.2,213c.34-.38.67-.77,1-1.15,10-11.92,10.2-23.88,20.81-35.8,4.94-5.55,13.23-13.29,10.24-20.09-1.77-4-3.22-6.3-5.46-7.18-1.82-.71-4.16-.51-7.61.39-10.59,2.76-10.33,5.21-33.06,4.84"/><path class="cls-5" d="M284.14,106.67q-4.89,20.58-9.79,41.17"/><path class="cls-5" d="M127.83,98.91c1.48,7.75-.57,15.87-7.23,20.09-1.54,1-3.33,1.52-4.8,2.58-3.81,2.75-4.47,8.5-2.45,12.73s6.11,7.13,10.37,9.08c4.07,1.86,8.54,6.41,9.94,10.66"/><path class="cls-5" d="M262.16,119c-1.27.81-.69,3.12.78,3.49a2.79,2.79,0,0,0,3.16-2.45,2.19,2.19,0,0,0-.64-2C264.92,117.62,262.56,118.42,262.16,119Z"/><path class="cls-5" d="M188,118.88a1.77,1.77,0,0,0,.36-2.78,2.78,2.78,0,0,0-3.48.1,2.37,2.37,0,0,0,0,3.36A2.06,2.06,0,0,0,188,118.88Z"/><path class="cls-5" d="M162.17,194.32c-4,7.3-8.45,14.8-12.57,22.5-6,11.33-11.28,23.09-12.91,35.2-.68,5.08,2.83,13,7.17,15.7a13.65,13.65,0,0,1,4.23,4.66c1.44,2.34,2.69,4.9,4.65,6.79,9.63,9.27,20,19,33.15,21.53l.73.13c9.34,1.64,19-.56,27.75-4.32a27,27,0,0,0,8.42-5.17q.5-.48.93-1c3.31-3.79,4.85-8.87,6.13-13.78a247.82,247.82,0,0,0,5.66-28.69,244.82,244.82,0,0,0,2.23-29.25v-.18"/><path class="cls-5" d="M249.26,214.3a9.61,9.61,0,0,1,1.31-.09c3.64,0,7.08,2.09,10.15,4.18q4.92,3.36,9.65,7c6.15,4.72,12.43,10.44,13.65,18.09a15.8,15.8,0,0,1,.19,2.27,19.32,19.32,0,0,1-9.72,16.46,21.74,21.74,0,0,1-8.74,2.73,26.31,26.31,0,0,1-12.81-2c-6.86-2.92-12.39-8.46-16.18-14.88"/><path class="cls-5" d="M265.78,265.21,285,266.45c4.36.29,9,.52,12.86-1.47,4.49-2.3,7.16-7.27,7.85-12.27.71-5.19-1.11-11.39-6-13.28a10.36,10.36,0,0,0-8.31.78,22.79,22.79,0,0,0-6.51,5.52"/><path class="cls-5" d="M145.14,181.21A63.21,63.21,0,0,0,103,165.79c-.84,0-1.67,0-2.5.08a12.85,12.85,0,0,0-5.42,1.2c-2.45,1.32-3.91,4-4.73,6.61a21.36,21.36,0,0,0-.73,8.85,21.72,21.72,0,0,0,5.23,11.76c4.44,5,10.88,7.61,17.08,10.08l16.83,6.68,11.39,4.53c3,1.19,6.41,2.41,9.44,1.24h0"/><path class="cls-5" d="M103,165.63c.62-3.42-.86-6.87-2.66-9.85-2.34-3.85-6.36-7.71-10.74-6.61-3.87,1-5.75,5.25-7.09,9-1.89,5.35-3.75,11.46-1.1,16.48a16.67,16.67,0,0,0,3.13,3.93,42.32,42.32,0,0,0,4.68,4"/><path class="cls-5" d="M186.18,303.29a27.39,27.39,0,0,1-3.87,7.43c-3.44,4.79-8.2,8.8-12.81,12.6a23.22,23.22,0,0,1-2.66,2,9.13,9.13,0,0,1-1.79.84c-3.27,1.07-6.79-.32-10-1.7-5.16-2.24-10.7-4.81-13.35-9.78a19.36,19.36,0,0,1-1.92-7.08c0-.28-.06-.56-.08-.84A55.61,55.61,0,0,1,148,272.43"/><path class="cls-5" d="M182.21,308.74c0,.66,0,1.33.1,2,.62,7.1,4,13.75,7.24,20.14,1.26,2.45,2.79,5.13,5.43,5.89a5.94,5.94,0,0,0,1.18.2,13.81,13.81,0,0,0,3.71-.45q14.38-3.19,28.55-7.27c2.08-.59,4.32-1.33,5.49-3.15a8,8,0,0,0,1-3.94c0-.79,0-1.57,0-2.35-.26-10.51-5.66-20.3-11.21-29.44l-1.08-1.76"/><path class="cls-5" d="M194.32,337.55a9.14,9.14,0,0,1,1.69,1c3.67,2.64,5.74,7.74,10.11,9.14a14.31,14.31,0,0,0,4.43.46h23.89c6.44,0,13.35-.14,18.61-3.86,3.1-2.19,5.3-5.43,7.16-8.75,3.05-5.45,5.29-12.45,1.91-17.72-2.81-4.39-8.78-5.88-13.89-4.85-4.94,1-9.24,3.86-13.3,6.85l-.45.33"/><path class="cls-5" d="M138.94,307.67q-1.09,10.31-2.21,20.59a2.6,2.6,0,0,0,.08,1.24,2.47,2.47,0,0,0,1.15,1.06l21.4,12.7c2.88,1.71,5.85,3.45,9.16,3.92,2.25.32,4.77-.07,6.31-1.75a7.45,7.45,0,0,0,1.48-2.69,12.84,12.84,0,0,0-.64-10.53,9.09,9.09,0,0,0-7.58-4.56,7.18,7.18,0,0,0-1.59.18"/><path class="cls-5" d="M202.06,230.09a5.34,5.34,0,0,0-5,1.6,3.69,3.69,0,0,0-1,2.45c0,1.6,1.4,2.87,2.84,3.6a6.15,6.15,0,0,0,2.46.73,4.2,4.2,0,0,0,1-8.31"/><path class="cls-5" d="M199.49,248a5.29,5.29,0,0,0-5.44,3.73,5.07,5.07,0,0,0,2.91,5.85,4.85,4.85,0,0,0,6-2.47,7.56,7.56,0,0,0,.37-3.78,5.34,5.34,0,0,0-.65-2.36,2.4,2.4,0,0,0-1.28-1,1.68,1.68,0,0,0-.77-.07"/><path class="cls-5" d="M199.76,269.19h-.27c-2.28-.12-4.8-.07-6.35,1.58a4.46,4.46,0,0,0-1,4.17,5.32,5.32,0,0,0,2.85,3.29,4.18,4.18,0,0,0,4.22-.21,5.6,5.6,0,0,0,1.38-1.74,7.41,7.41,0,0,0,1.29-4.58,3.46,3.46,0,0,0-2.39-2.87,2.26,2.26,0,0,0-.86,0"/><path class="cls-5" d="M144.42,179.62c.18.28.35.57.51.85s.23.45.33.68c2.65,5.68.83,12.91-3,18.06-3.58,4.84-8.58,8.33-13.51,11.84l-2.38,1.72a135.22,135.22,0,0,0-20.79,18.85"/><path class="cls-5" d="M108.06,237.16c-1.74-4.51-4.83-9.9-9.64-9.33-2.8.33-4.86,2.68-7.21,4.26-4.81,3.2-11.19,3.16-16.68,1.37s-10.33-5.12-15.19-8.23c-10-6.42-21.28-12.28-33.18-11.64s-24,10.18-23.39,22.08c.59,10.91,10.75,18.52,20.15,24.08C33,265.7,44.09,271.34,55.73,270.32a31,31,0,0,0,21.7-12c3.37-4.45,5.88-10.14,11.06-12.22,3.78-1.52,8.06-.69,12.09-1.26s8.35-3.76,7.54-7.68a.5.5,0,0,0,0-.12"/></g></g></svg>