<svg xmlns="http://www.w3.org/2000/svg" viewBox="0 0 345.99 467.09"><defs><style>.cls-1{fill:#fbede7;}.cls-2{fill:#4e3c2c;}.cls-3{fill:#e9f5f7;}.cls-4{fill:#6a4720;}.cls-5{fill:#d51359;}.cls-6{fill:none;stroke:#231815;stroke-miterlimit:10;stroke-width:6px;}.cls-7{fill:#ce722b;}.cls-8{fill:#231815;}</style></defs><g id="レイヤー_2" data-name="レイヤー 2"><g id="レイヤー_1-2" data-name="レイヤー 1"><path class="cls-1" d="M125.49,209.68a1.77,1.77,0,0,1-.36-2.78,2.78,2.78,0,0,1,3.48.1,2.37,2.37,0,0,1,0,3.36A2.06,2.06,0,0,1,125.49,209.68Z"/><path class="cls-2" d="M319.71,271c1.56-1.14,3.5-2.39,5.3-1.66,1.52.62,2.18,2.4,2.49,4a15.4,15.4,0,0,1-1.13,10,9.44,9.44,0,0,1-8.24,5.22l-2.63.59a54.09,54.09,0,0,0-11.16-7.91l-.31-3.12C309.81,277.62,315,274.45,319.71,271Z"/><path class="cls-3" d="M202.26,156.84c8,1.5,14.46,10,12.61,18s-12.52,12.53-19,7.77c1.5-4.27-.69-9.3-4.22-12.24a25,25,0,0,0-9.61-4.52,18.56,18.56,0,0,1,13.07-9A19.93,19.93,0,0,1,202.26,156.84Z"/><path class="cls-1" d="M74.45,197.67c35.31-.24,70.68-3.7,105.88-7.17a48.32,48.32,0,0,0,5.35-.79c-1.48,7.75.57,15.87,7.23,20.09,1.54,1,3.33,1.52,4.8,2.58,3.81,2.75,4.47,8.5,2.45,12.73s-6.11,7.13-10.37,9.08c-4.07,1.86-8.54,6.41-9.94,10.66l-.64.31c-5.09-4.32-12.85-5.65-20.18-5.52-1.13,0-2.25.07-3.35.16-19.7.87-38.82-.39-58.4,2.51h0a32.16,32.16,0,0,1-13,2.54,26.82,26.82,0,0,1-3.79-.34,19,19,0,0,1-6.91-2.41c-7-4.23-9.72-13.39-8.61-21.48s5.31-15.4,9.52-22.4ZM128.61,207a2.78,2.78,0,0,0-3.48-.1,1.77,1.77,0,0,0,.36,2.78,2.06,2.06,0,0,0,3.15.68A2.37,2.37,0,0,0,128.61,207Z"/><path class="cls-3" d="M182,165.82a25,25,0,0,1,9.61,4.52c3.53,2.94,5.72,8,4.22,12.24-.07.22-.16.43-.25.64-1.71,3.81-5.66,5.58-9.91,6.49a48.32,48.32,0,0,1-5.35.79c-35.2,3.47-70.57,6.93-105.88,7.17-15,.12-30-.36-44.95-1.67-1.22-.09-2.44-.2-3.66-.32-6.05-.58-12.44-1.44-17.17-5.25s-6.77-11.6-2.58-16a10.93,10.93,0,0,1,6.18-2.9c3.2-.61,7-.72,10.82-1.71,51.13-10.34,104.33-16.2,155.25-4.88C179.56,165.21,180.8,165.5,182,165.82Z"/><path class="cls-1" d="M48.05,208.89a2.19,2.19,0,0,0-.64,2,2.79,2.79,0,0,0,3.16,2.45c1.47-.37,2-2.68.78-3.49C51,209.22,48.59,208.42,48.05,208.89Zm26.4-10.67c-4.21,7-8.41,14.3-9.52,22.4s1.61,17.25,8.61,21.48a19,19,0,0,0,6.91,2.41l0,.34c-22.73.37-22.47-2.08-33.06-4.84a24.36,24.36,0,0,0-8.11-.66l-.07-.71Q34.27,218,29.37,197.47L29.5,196c15,1.31,30,1.79,45,1.67Z"/><path class="cls-4" d="M329.59,393.11a91.6,91.6,0,0,0-8.44,43.16c.35,6.83,1.25,14.43-3,19.82-4,5.17-14.73,3.73-14.9-2.39l2.4-.07a64.23,64.23,0,0,0-10.5-49.18c-2.12-3-4.53-5.87-6.74-8.85-3.69-5-6.82-10.18-7.06-16.24-.16-4.12,1-8.67-1.34-12.06-1.37-2-3.69-3.13-5.93-4.08a104.08,104.08,0,0,0-20.85-6.33,109.2,109.2,0,0,0-74.75,12.23c-2.75,1.59-5.54,3.43-7,6.22s-1.48,6.3-1.43,9.55a344.1,344.1,0,0,1-5.18,65c-1.15,6.51-4.53,14.65-11.11,14.14s-8.67-9.25-8.86-15.95q-.55-20-1.12-40c-.1-3.51-.27-7.25-2.24-10.16s-6.46-4.4-9.09-2.07q-.51,22.14-1,44.27c-.14,6.06-.39,12.47-3.71,17.53s-10.92,7.81-15.61,4c-3.09-2.52-3.89-6.86-4.33-10.83-1.56-14.1-1.2-28.4-3.48-42.4-5.18-31.74-23.85-62.32-17.9-93.92l.2-4.47,23.82,1.09c4.5.21,9.17.39,13.33-1.33s7.21-5,10.43-8a98.74,98.74,0,0,1,19.94-14.5c7.66-4.21,16-7.5,22.41-13.45l.87-.84,1.72.68,83.22.52c13,.09,26.47.25,38.45,5.39,1.22.53,2.41,1.1,3.58,1.71a54.09,54.09,0,0,1,11.16,7.91c11.09,10.14,18.56,24.66,23.09,39.26,4,13,6.25,27.14,2.4,40.21C338.44,377.3,333.4,385,329.59,393.11Z"/><path class="cls-3" d="M80.4,244.85l0-.34a26.82,26.82,0,0,0,3.79.34,32.16,32.16,0,0,0,13-2.54h0c19.58-2.9,38.7-1.64,58.4-2.51,1.11,0,2.23-.1,3.35-.16,7.33-.13,15.09,1.2,20.18,5.52a15.41,15.41,0,0,1,3.95,5.1c3.6,7.52.09,16.72-5.79,22.72l-.87.84c-6.4,5.95-14.75,9.24-22.41,13.45a98.74,98.74,0,0,0-19.94,14.5c-3.22,3-6.35,6.34-10.43,8s-8.83,1.54-13.33,1.33L86.57,310l-7-.32c-3-.14-6.14-.32-8.75-1.81a19.29,19.29,0,0,1-4.49-4.07l-32.85-36.9c-4.95-5.55-10.23-12.94-7.24-19.75,2.14-4.89,7.43-7.35,13-7.84a24.36,24.36,0,0,1,8.11.66C57.93,242.77,57.67,245.22,80.4,244.85Z"/><path class="cls-5" d="M12.27,171.53C10.5,154.9,21,139.34,33.18,127.94A129.85,129.85,0,0,1,133.67,94.2c16.44,1.7,33,6.89,45.42,17.82s19.83,28.35,15.94,44.42l.05.35a18.56,18.56,0,0,0-13.07,9c-1.21-.32-2.45-.61-3.67-.88-50.92-11.32-104.12-5.46-155.25,4.88C19.23,170.81,15.47,170.92,12.27,171.53Z"/><path class="cls-1" d="M47.41,210.85a2.19,2.19,0,0,1,.64-2c.54-.47,2.9.33,3.3.92,1.27.81.69,3.12-.78,3.49A2.79,2.79,0,0,1,47.41,210.85Z"/><path class="cls-2" d="M274.87,406.9c-1.11-3.68-3.92-6.56-6.3-9.58a49.85,49.85,0,0,1-9.43-19.72c-1.59-7-1.8-14.59-5.93-20.42l0-.29a104.08,104.08,0,0,1,20.85,6.33c2.24.95,4.56,2.07,5.93,4.08,2.33,3.39,1.18,7.94,1.34,12.06.24,6.06,3.37,11.26,7.06,16.24l-.61,1.51.69,12.88-13,.69A16,16,0,0,0,274.87,406.9Z"/><path class="cls-2" d="M275.4,446.87q.08-16.51.13-33c0-1,0-2.11,0-3.16l13-.69.81,15.28c.46,8.65.89,17.55-1.87,25.77-1,3-3.08,6.29-6.24,6.28C276.76,457.3,275.39,451.32,275.4,446.87Z"/><path class="cls-6" d="M23.09,169.82c51.13-10.34,104.33-16.2,155.25-4.88,1.22.27,2.46.56,3.67.88a25,25,0,0,1,9.61,4.52c3.53,2.94,5.72,8,4.22,12.24-.07.22-.16.43-.25.64-1.71,3.81-5.66,5.58-9.91,6.49a48.32,48.32,0,0,1-5.35.79c-35.2,3.47-70.57,6.93-105.88,7.17-15,.12-30-.36-44.95-1.67-1.22-.09-2.44-.2-3.66-.32-6.05-.58-12.44-1.44-17.17-5.25s-6.77-11.6-2.58-16a10.93,10.93,0,0,1,6.18-2.9c3.2-.61,7-.72,10.82-1.71"/><path class="cls-6" d="M12.27,171.56v0C10.5,154.9,21,139.34,33.18,127.94A129.85,129.85,0,0,1,133.67,94.2c16.44,1.7,33,6.89,45.42,17.82s19.83,28.35,15.94,44.42"/><path class="cls-6" d="M182,165.82a18.56,18.56,0,0,1,13.07-9,19.93,19.93,0,0,1,7.18.05c8,1.5,14.46,10,12.61,18s-12.52,12.53-19,7.77l-.17-.12"/><path class="cls-6" d="M97.28,242.31a33.07,33.07,0,0,0,15.48-13.15"/><path class="cls-6" d="M74.45,198.22c-4.21,7-8.41,14.3-9.52,22.4s1.61,17.25,8.61,21.48a19,19,0,0,0,6.91,2.41,26.82,26.82,0,0,0,3.79.34,32.16,32.16,0,0,0,13-2.54"/><path class="cls-6" d="M159,239.64c-1.12.06-2.24.12-3.35.16-19.7.87-38.82-.39-58.4,2.51h0"/><path class="cls-6" d="M155,239.85l.64,0c1.1-.09,2.22-.14,3.35-.16,7.33-.13,15.09,1.2,20.18,5.52a15.41,15.41,0,0,1,3.95,5.1c3.6,7.52.09,16.72-5.79,22.72l-.87.84c-6.4,5.95-14.75,9.24-22.41,13.45a98.74,98.74,0,0,0-19.94,14.5c-3.22,3-6.35,6.34-10.43,8s-8.83,1.54-13.33,1.33L86.57,310l-7-.32c-3-.14-6.14-.32-8.75-1.81a19.29,19.29,0,0,1-4.49-4.07l-32.85-36.9c-4.95-5.55-10.23-12.94-7.24-19.75,2.14-4.89,7.43-7.35,13-7.84a24.36,24.36,0,0,1,8.11.66c10.59,2.76,10.33,5.21,33.06,4.84"/><path class="cls-6" d="M29.37,197.47q4.89,20.58,9.79,41.17"/><path class="cls-6" d="M185.68,189.71c-1.48,7.75.57,15.87,7.23,20.09,1.54,1,3.33,1.52,4.8,2.58,3.81,2.75,4.47,8.5,2.45,12.73s-6.11,7.13-10.37,9.08c-4.07,1.86-8.54,6.41-9.94,10.66"/><path class="cls-6" d="M51.35,209.81c1.27.81.69,3.12-.78,3.49a2.79,2.79,0,0,1-3.16-2.45,2.19,2.19,0,0,1,.64-2C48.59,208.42,51,209.22,51.35,209.81Z"/><path class="cls-6" d="M125.49,209.68a1.77,1.77,0,0,1-.36-2.78,2.78,2.78,0,0,1,3.48.1,2.37,2.37,0,0,1,0,3.36A2.06,2.06,0,0,1,125.49,209.68Z"/><path class="cls-6" d="M86.37,314.51c-6,31.6,12.72,62.18,17.9,93.92,2.28,14,1.92,28.3,3.48,42.4.44,4,1.24,8.31,4.33,10.83,4.69,3.84,12.28,1.08,15.61-4s3.57-11.47,3.71-17.53q.53-22.12,1-44.27c2.63-2.33,7.12-.84,9.09,2.07s2.14,6.65,2.24,10.16q.55,20,1.12,40c.19,6.7,2.18,15.43,8.86,15.95s10-7.63,11.11-14.14a344.1,344.1,0,0,0,5.18-65c0-3.25-.11-6.68,1.43-9.55s4.29-4.63,7-6.22a109.2,109.2,0,0,1,74.75-12.23,104.08,104.08,0,0,1,20.85,6.33c2.24.95,4.56,2.07,5.93,4.08,2.33,3.39,1.18,7.94,1.34,12.06.24,6.06,3.37,11.26,7.06,16.24,2.21,3,4.62,5.89,6.74,8.85a64.23,64.23,0,0,1,10.5,49.18"/><path class="cls-6" d="M179.09,273.66l83.22.52c13,.09,26.47.25,38.45,5.39,1.22.53,2.41,1.1,3.58,1.71a54.09,54.09,0,0,1,11.16,7.91c11.09,10.14,18.56,24.66,23.09,39.26,4,13,6.25,27.14,2.4,40.21-2.55,8.64-7.59,16.29-11.4,24.45a91.6,91.6,0,0,0-8.44,43.16c.35,6.83,1.25,14.43-3,19.82-4,5.17-14.73,3.73-14.9-2.39a5.7,5.7,0,0,1,0-.82"/><path class="cls-6" d="M303.51,278.21l.52,0c5.78-.54,11-3.71,15.68-7.15,1.56-1.14,3.5-2.39,5.3-1.66,1.52.62,2.18,2.4,2.49,4a15.4,15.4,0,0,1-1.13,10,9.44,9.44,0,0,1-8.24,5.22"/><path class="cls-6" d="M287.83,397.11l.69,12.88.81,15.28c.46,8.65.89,17.55-1.87,25.77-1,3-3.08,6.29-6.24,6.28-4.46,0-5.83-6-5.82-10.45q.08-16.51.13-33c0-1,0-2.11,0-3.16a16,16,0,0,0-.61-3.78c-1.11-3.68-3.92-6.56-6.3-9.58a49.85,49.85,0,0,1-9.43-19.72c-1.59-7-1.8-14.59-5.93-20.42"/><path class="cls-7" d="M147.88,116.58c-2-15.46,3.5-30.77,8-45.7s7.95-31.36,2.09-45.81c3.55-2.8,9.2-.58,11.52,3.3s2.22,8.7,1.92,13.21-.67,9.25,1.21,13.37C184.69,41.58,184.42,21,193.8,5.63c1.13-1.86,3.18-3.87,5.14-2.94a4,4,0,0,1,1.77,2.14c3.28,7.3-.06,15.72-3.37,23L182.42,60.6c-2,4.33-4,9-3,13.69l18.23-10.38c2.58-1.47,5.94-2.91,8.3-1.1,2.9,2.23,1.19,7-1.43,9.57-7.44,7.3-19.11,8.21-27.64,14.19-11.26,7.9-14.81,22.7-17.52,36.17a19.91,19.91,0,0,1-13.1-8.79"/><path class="cls-8" d="M150.38,116.58c-1.58-12.59,1.77-24.91,5.4-36.86,3.55-11.66,7.36-23.41,7.74-35.7a48.72,48.72,0,0,0-3.15-19.61l-1.15,2.82c1.87-1.39,4-1.07,6.05.27,2.33,1.55,3.3,4.37,3.63,7,.43,3.5-.06,7.05-.2,10.57a24.75,24.75,0,0,0,1.75,11.1,2.51,2.51,0,0,0,3.93.5C185.19,44.62,186.44,28,192.55,13.57a55.94,55.94,0,0,1,2.55-5.22,17.2,17.2,0,0,1,1.34-2.18c.21-.26,1.12-1.37,1.52-1.21.2.07.56,1.06.64,1.24a13.43,13.43,0,0,1,.83,3,18.07,18.07,0,0,1-.3,6.22c-.95,4.62-2.95,8.9-4.89,13.16l-6.42,14.11-7.25,15.92C178.21,63.84,175.89,69.14,177,75a2.53,2.53,0,0,0,3.68,1.49l12.15-6.92c2-1.15,4-2.32,6.07-3.46,1.31-.74,2.91-1.68,4.47-1.6a1.83,1.83,0,0,1,1.26.51,1.56,1.56,0,0,1,.32,1.09,6.54,6.54,0,0,1-1.42,3.65c-1.83,2.48-4.91,4.17-7.62,5.51-6.34,3.12-13.38,4.7-19.37,8.55a36.37,36.37,0,0,0-13,15.67c-3.29,7.19-5.05,14.91-6.61,22.63l3.07-1.75a17.64,17.64,0,0,1-11.6-7.65c-1.75-2.68-6.08-.18-4.32,2.53a22.64,22.64,0,0,0,14.59,9.94,2.54,2.54,0,0,0,3.08-1.74C164.51,109.93,168,94.14,181,87c6.53-3.59,14-5.1,20.37-9,3.28-2,6.34-4.58,7.82-8.23,1.39-3.41.87-7.79-2.79-9.53-4.74-2.25-9.74,1.41-13.71,3.67l-14.54,8.28,3.68,1.5c-1-4.86,1.81-9.78,3.76-14l6.73-14.78,6.83-15c2-4.44,4.1-9,4.94-13.85.78-4.51.78-10.39-2.35-14.11A5.15,5.15,0,0,0,195.41.6c-2,1-3.35,3-4.44,4.9-4.15,7.28-6.37,15.44-8.73,23.42-2.53,8.58-5.32,17.46-11.4,24.26l3.93.5c-1.58-3.61-1.14-7.84-.9-11.66s.43-8-.81-11.73a12.79,12.79,0,0,0-6.71-7.89c-3.09-1.39-6.82-1.6-9.66.51a2.56,2.56,0,0,0-1.14,2.82c9.22,23.12-4.65,47.15-9.05,69.68a66.94,66.94,0,0,0-1.12,21.17,2.58,2.58,0,0,0,2.5,2.5,2.51,2.51,0,0,0,2.5-2.5Z"/><path class="cls-7" d="M64.56,121.34C54.33,107,43.66,91.23,43.89,73.58,44,63.08,48.08,52.77,47,42.33L30.65,69.11C26,61.35,25.3,51.93,23.94,43S20,24.48,12.93,18.83c-3,26.49,8.21,52.28,19.18,76.58A52.25,52.25,0,0,0,2.48,89.64c1.32,6.39,7.91,10.25,14.2,12s13.08,2.33,18.6,5.81c8.41,5.31,11.91,16.17,20.1,21.82A9.29,9.29,0,0,1,64,122.55"/><path class="cls-8" d="M66.72,120.08C60.64,111.52,54.43,102.74,50.43,93a52.31,52.31,0,0,1-3.85-14.74c-.52-5.54.22-11,1.17-16.42,1.12-6.43,2.37-12.93,1.73-19.48a2.52,2.52,0,0,0-4.66-1.26q-8.16,13.4-16.33,26.77h4.32C29,61.33,28,53.69,26.93,46.32c-1-6.91-2.09-13.83-5.18-20.16a26.59,26.59,0,0,0-7.06-9.09,2.53,2.53,0,0,0-4.26,1.76c-2.34,21.16,4.2,42,12.25,61.24C25,85.64,27.46,91.16,30,96.67l3.42-3.42A55.11,55.11,0,0,0,2.48,87.14,2.54,2.54,0,0,0,.07,90.3c2.2,9.86,13,13.22,21.56,15.11,4.83,1.06,9.86,2.12,13.85,5.23,3.31,2.57,5.77,6.09,8.2,9.46,3,4.21,6.15,8.33,10.44,11.34A2.52,2.52,0,0,0,57.79,130a6.8,6.8,0,0,1,6.25-4.9c3.21-.1,3.22-5.1,0-5A11.92,11.92,0,0,0,53,128.62l3.67-1.5c-7-4.89-10.24-13.4-16.49-19.05a29.93,29.93,0,0,0-13-6.52c-4.51-1.15-9.27-1.73-13.55-3.63-3.94-1.75-7.7-4.53-8.69-9L2.48,92.14a50.36,50.36,0,0,1,28.37,5.43,2.53,2.53,0,0,0,3.42-3.43c-8.33-18.44-16.94-37.59-18.92-58a83.85,83.85,0,0,1,.08-17.35L11.16,20.6c11.06,9,9.88,25.2,12.75,37.8a41.43,41.43,0,0,0,4.58,12,2.53,2.53,0,0,0,4.32,0Q41,57,49.14,43.6l-4.66-1.27c1.15,11.69-3.76,23-3,34.64.7,10.82,5.1,20.94,10.59,30.15,3.18,5.33,6.74,10.42,10.33,15.48a2.57,2.57,0,0,0,3.42.9,2.53,2.53,0,0,0,.9-3.42Z"/></g></g></svg>