<svg xmlns="http://www.w3.org/2000/svg" viewBox="0 0 345.99 467.15"><defs><style>.cls-1{fill:#6a4720;}.cls-2{fill:#4e3c2c;}.cls-3{fill:#e9f5f7;}.cls-4{fill:#fbede7;}.cls-5{fill:#d51359;}.cls-6{fill:none;stroke:#231815;stroke-miterlimit:10;stroke-width:6px;}.cls-7{fill:#ce722b;}.cls-8{fill:#231815;}</style></defs><g id="レイヤー_2" data-name="レイヤー 2"><g id="レイヤー_1-2" data-name="レイヤー 1"><path class="cls-1" d="M7.4,328.51c-4,13-6.25,27.14-2.4,40.21,2.55,8.64,7.59,16.29,11.4,24.45a91.6,91.6,0,0,1,8.44,43.16c-.35,6.83-1.25,14.43,3,19.82,4,5.17,14.73,3.73,14.9-2.39l-2.4-.07a64.23,64.23,0,0,1,10.5-49.18c2.12-3,4.53-5.87,6.74-8.85,3.69-5,6.82-10.18,7.06-16.24.16-4.12-1-8.67,1.34-12.06,1.37-2,3.69-3.13,5.93-4.08A104.08,104.08,0,0,1,92.73,357a109.2,109.2,0,0,1,74.75,12.23c2.75,1.59,5.54,3.43,7,6.22S176,381.7,176,385a344.1,344.1,0,0,0,5.18,65c1.15,6.51,4.53,14.65,11.11,14.14s8.67-9.25,8.86-15.95q.56-20,1.12-40c.1-3.51.27-7.25,2.24-10.16s6.46-4.4,9.09-2.07q.51,22.14,1,44.27c.14,6.06.39,12.47,3.71,17.53s10.92,7.81,15.61,4c3.09-2.52,3.89-6.86,4.33-10.83,1.56-14.1,1.2-28.4,3.48-42.4,5.18-31.74,23.85-62.32,17.9-93.92l-.2-4.47-23.82,1.09c-4.5.21-9.17.39-13.33-1.33s-7.21-5-10.43-8a98.74,98.74,0,0,0-19.94-14.5c-7.66-4.21-16-7.5-22.41-13.45q-.44-.4-.87-.84l-1.72.68-83.22.52c-13,.09-26.47.25-38.45,5.39-1.22.53-2.41,1.1-3.58,1.71a54.36,54.36,0,0,0-11.16,7.91C19.4,299.39,11.93,313.91,7.4,328.51Z"/><path class="cls-2" d="M18.49,273.42a15.4,15.4,0,0,0,1.13,10,9.44,9.44,0,0,0,8.24,5.22l2.63.59a54.36,54.36,0,0,1,11.16-7.91l.31-3.12c-5.78-.54-11-3.71-15.68-7.15-1.56-1.14-3.5-2.39-5.3-1.66C19.46,270,18.8,271.81,18.49,273.42Z"/><path class="cls-2" d="M56.66,425.33c-.46,8.65-.89,17.55,1.87,25.77,1,3,3.08,6.29,6.24,6.28,4.46,0,5.83-6,5.82-10.45q-.07-16.51-.13-33c0-1,0-2.11.05-3.16l-13-.69Z"/><path class="cls-2" d="M58.16,397.17l-.69,12.88,13,.69a16,16,0,0,1,.61-3.78c1.11-3.68,3.92-6.56,6.3-9.58a49.85,49.85,0,0,0,9.43-19.72c1.59-7,1.8-14.59,5.93-20.42l0-.29a104.08,104.08,0,0,0-20.85,6.33c-2.24,1-4.56,2.07-5.93,4.08-2.33,3.39-1.18,7.94-1.34,12.06-.24,6.06-3.37,11.26-7.06,16.24Z"/><path class="cls-3" d="M143.73,156.9c-8,1.5-14.46,10-12.61,18s12.52,12.53,19,7.77c-1.5-4.27.69-9.3,4.22-12.24a25,25,0,0,1,9.61-4.52,18.54,18.54,0,0,0-13.07-9A19.93,19.93,0,0,0,143.73,156.9Z"/><path class="cls-4" d="M248.71,242.37h0a32.16,32.16,0,0,0,13,2.54,26.82,26.82,0,0,0,3.79-.34,19,19,0,0,0,6.91-2.41c7-4.23,9.72-13.39,8.61-21.48s-5.31-15.4-9.52-22.4v-.55c-35.31-.24-70.69-3.7-105.88-7.17a48.32,48.32,0,0,1-5.35-.79c1.48,7.75-.57,15.87-7.23,20.09-1.54,1-3.33,1.52-4.8,2.58-3.81,2.75-4.47,8.5-2.45,12.73s6.11,7.13,10.37,9.08c4.07,1.86,8.54,6.41,9.94,10.66l.64.31c5.09-4.32,12.85-5.65,20.18-5.52,1.13,0,2.25.07,3.35.16C210,240.73,229.13,239.47,248.71,242.37Zm-31.36-32a2.37,2.37,0,0,1,0-3.36,2.78,2.78,0,0,1,3.48-.1,1.77,1.77,0,0,1-.36,2.78A2.06,2.06,0,0,1,217.35,210.42Z"/><path class="cls-3" d="M150.15,182.64c.07.22.16.43.25.64,1.71,3.81,5.66,5.58,9.91,6.49a48.32,48.32,0,0,0,5.35.79c35.19,3.47,70.57,6.93,105.88,7.17,15,.12,30-.36,44.95-1.67,1.22-.09,2.44-.2,3.66-.32,6.05-.58,12.44-1.44,17.17-5.25s6.77-11.6,2.58-16a10.93,10.93,0,0,0-6.18-2.9c-3.2-.61-7-.72-10.82-1.71-51.13-10.34-104.33-16.2-155.25-4.88-1.22.27-2.46.56-3.67.88a25,25,0,0,0-9.61,4.52C150.84,173.34,148.65,178.37,150.15,182.64Z"/><path class="cls-5" d="M166.9,112.08C154.5,123,147.07,140.43,151,156.5l-.05.35a18.54,18.54,0,0,1,13.07,9c1.21-.32,2.45-.61,3.67-.88,50.92-11.32,104.12-5.46,155.25,4.88,3.86,1,7.62,1.1,10.82,1.71C335.49,155,325,139.4,312.81,128A129.85,129.85,0,0,0,212.32,94.26C195.88,96,179.29,101.15,166.9,112.08Z"/><path class="cls-3" d="M190.31,239.86c-1.11,0-2.23-.1-3.35-.16-7.33-.13-15.09,1.2-20.18,5.52a15.41,15.41,0,0,0-3.95,5.1c-3.6,7.52-.09,16.72,5.79,22.72q.44.43.87.84c6.4,5.95,14.75,9.24,22.41,13.45a98.74,98.74,0,0,1,19.94,14.5c3.22,3,6.35,6.34,10.43,8s8.83,1.54,13.33,1.33l23.82-1.09,7-.32c3-.14,6.14-.32,8.75-1.81a19.29,19.29,0,0,0,4.49-4.07L312.53,267c5-5.55,10.23-12.94,7.24-19.75-2.14-4.89-7.43-7.35-13-7.84a24.36,24.36,0,0,0-8.11.66c-10.59,2.76-10.33,5.21-33.06,4.84l0-.34a26.82,26.82,0,0,1-3.79.34,32.16,32.16,0,0,1-13-2.54h0C229.13,239.47,210,240.73,190.31,239.86Z"/><path class="cls-4" d="M217.38,207.06a2.37,2.37,0,0,0,0,3.36,2.06,2.06,0,0,0,3.15-.68,1.77,1.77,0,0,0,.36-2.78A2.78,2.78,0,0,0,217.38,207.06Z"/><path class="cls-4" d="M265.54,244.57l0,.34c22.73.37,22.47-2.08,33.06-4.84a24.36,24.36,0,0,1,8.11-.66l.07-.71q4.89-20.59,9.79-41.17l-.13-1.47c-15,1.31-29.95,1.79-44.95,1.67v.55c4.21,7,8.41,14.3,9.52,22.4s-1.61,17.25-8.61,21.48A19,19,0,0,1,265.54,244.57Zm29.88-31.21c-1.47-.37-2.05-2.68-.78-3.49.4-.59,2.76-1.39,3.3-.92a2.19,2.19,0,0,1,.64,2A2.79,2.79,0,0,1,295.42,213.36Z"/><path class="cls-4" d="M294.64,209.87c-1.27.81-.69,3.12.78,3.49a2.79,2.79,0,0,0,3.16-2.45,2.19,2.19,0,0,0-.64-2C297.4,208.48,295,209.28,294.64,209.87Z"/><path class="cls-6" d="M322.9,169.88c-51.13-10.34-104.33-16.2-155.25-4.88-1.22.27-2.46.56-3.67.88a25,25,0,0,0-9.61,4.52c-3.53,2.94-5.72,8-4.22,12.24.07.22.16.43.25.64,1.71,3.81,5.66,5.58,9.91,6.49a48.32,48.32,0,0,0,5.35.79c35.19,3.47,70.57,6.93,105.88,7.17,15,.12,30-.36,44.95-1.67,1.22-.09,2.44-.2,3.66-.32,6.05-.58,12.44-1.44,17.17-5.25s6.77-11.6,2.58-16a10.93,10.93,0,0,0-6.18-2.9c-3.2-.61-7-.72-10.82-1.71"/><path class="cls-6" d="M333.72,171.62v0C335.49,155,325,139.4,312.81,128A129.85,129.85,0,0,0,212.32,94.26c-16.44,1.7-33,6.89-45.42,17.82S147.07,140.43,151,156.5"/><path class="cls-6" d="M164,165.88a18.54,18.54,0,0,0-13.07-9,19.93,19.93,0,0,0-7.18.05c-8,1.5-14.46,10-12.61,18s12.52,12.53,19,7.77l.17-.12"/><path class="cls-6" d="M248.71,242.37a33.07,33.07,0,0,1-15.48-13.15"/><path class="cls-6" d="M271.54,198.28c4.21,7,8.41,14.3,9.52,22.4s-1.61,17.25-8.61,21.48a19,19,0,0,1-6.91,2.41,26.82,26.82,0,0,1-3.79.34,32.16,32.16,0,0,1-13-2.54"/><path class="cls-6" d="M187,239.7c1.12.06,2.24.12,3.35.16,19.7.87,38.82-.39,58.4,2.51h0"/><path class="cls-6" d="M191,239.91l-.64,0c-1.1-.09-2.22-.14-3.35-.16-7.33-.13-15.09,1.2-20.18,5.52a15.41,15.41,0,0,0-3.95,5.1c-3.6,7.52-.09,16.72,5.79,22.72q.44.43.87.84c6.4,5.95,14.75,9.24,22.41,13.45a98.74,98.74,0,0,1,19.94,14.5c3.22,3,6.35,6.34,10.43,8s8.83,1.54,13.33,1.33l23.82-1.09,7-.32c3-.14,6.14-.32,8.75-1.81a19.29,19.29,0,0,0,4.49-4.07L312.53,267c5-5.55,10.23-12.94,7.24-19.75-2.14-4.89-7.43-7.35-13-7.84a24.36,24.36,0,0,0-8.11.66c-10.59,2.76-10.33,5.21-33.06,4.84"/><path class="cls-6" d="M316.62,197.53q-4.89,20.58-9.79,41.17"/><path class="cls-6" d="M160.31,189.77c1.48,7.75-.57,15.87-7.23,20.09-1.54,1-3.33,1.52-4.8,2.58-3.81,2.75-4.47,8.5-2.45,12.73s6.11,7.13,10.37,9.08c4.07,1.86,8.54,6.41,9.94,10.66"/><path class="cls-6" d="M294.64,209.87c-1.27.81-.69,3.12.78,3.49a2.79,2.79,0,0,0,3.16-2.45,2.19,2.19,0,0,0-.64-2C297.4,208.48,295,209.28,294.64,209.87Z"/><path class="cls-6" d="M220.5,209.74a1.77,1.77,0,0,0,.36-2.78,2.78,2.78,0,0,0-3.48.1,2.37,2.37,0,0,0,0,3.36A2.06,2.06,0,0,0,220.5,209.74Z"/><path class="cls-6" d="M259.62,314.57c5.95,31.6-12.72,62.18-17.9,93.92-2.28,14-1.92,28.3-3.48,42.4-.44,4-1.24,8.31-4.33,10.83-4.69,3.84-12.28,1.08-15.61-4s-3.57-11.47-3.71-17.53q-.53-22.12-1-44.27c-2.63-2.33-7.12-.84-9.09,2.07s-2.14,6.65-2.24,10.16q-.56,20-1.12,40c-.19,6.7-2.18,15.43-8.86,15.95s-10-7.63-11.11-14.14A344.1,344.1,0,0,1,176,385c.05-3.25.11-6.68-1.43-9.55s-4.29-4.63-7-6.22A109.2,109.2,0,0,0,92.73,357a104.08,104.08,0,0,0-20.85,6.33c-2.24,1-4.56,2.07-5.93,4.08-2.33,3.39-1.18,7.94-1.34,12.06-.24,6.06-3.37,11.26-7.06,16.24-2.21,3-4.62,5.89-6.74,8.85a64.23,64.23,0,0,0-10.5,49.18"/><path class="cls-6" d="M166.9,273.72l-83.22.52c-13,.09-26.47.25-38.45,5.39-1.22.53-2.41,1.1-3.58,1.71a54.36,54.36,0,0,0-11.16,7.91C19.4,299.39,11.93,313.91,7.4,328.51c-4,13-6.25,27.14-2.4,40.21,2.55,8.64,7.59,16.29,11.4,24.45a91.6,91.6,0,0,1,8.44,43.16c-.35,6.83-1.25,14.43,3,19.82,4,5.17,14.73,3.73,14.9-2.39a5.7,5.7,0,0,0,0-.82"/><path class="cls-6" d="M42.48,278.27l-.52,0c-5.78-.54-11-3.71-15.68-7.15-1.56-1.14-3.5-2.39-5.3-1.66-1.52.62-2.18,2.4-2.49,4a15.4,15.4,0,0,0,1.13,10,9.44,9.44,0,0,0,8.24,5.22"/><path class="cls-6" d="M58.16,397.17l-.69,12.88-.81,15.28c-.46,8.65-.89,17.55,1.87,25.77,1,3,3.08,6.29,6.24,6.28,4.46,0,5.83-6,5.82-10.45q-.07-16.51-.13-33c0-1,0-2.11.05-3.16a16,16,0,0,1,.61-3.78c1.11-3.68,3.92-6.56,6.3-9.58a49.85,49.85,0,0,0,9.43-19.72c1.59-7,1.8-14.59,5.93-20.42"/><path class="cls-7" d="M198.11,116.64c2-15.46-3.5-30.77-8-45.71s-8-31.35-2.09-45.8c-3.55-2.8-9.2-.59-11.52,3.3s-2.22,8.7-1.92,13.21.67,9.25-1.21,13.36C161.3,41.63,161.57,21.07,152.19,5.69c-1.13-1.86-3.18-3.87-5.14-2.94a4,4,0,0,0-1.77,2.14c-3.28,7.3.06,15.72,3.37,23l14.92,32.75c2,4.34,4,9.05,3,13.7L148.32,64c-2.58-1.47-5.94-2.91-8.3-1.1-2.9,2.23-1.19,7,1.43,9.57,7.44,7.3,19.11,8.21,27.64,14.19,11.26,7.89,14.81,22.7,17.52,36.17a19.89,19.89,0,0,0,13.1-8.8"/><path class="cls-8" d="M200.61,116.64c3.12-24.91-12-47.21-13.11-71.68a45.73,45.73,0,0,1,2.94-19.17A2.53,2.53,0,0,0,189.3,23c-2.84-2.11-6.57-1.9-9.66-.51a12.79,12.79,0,0,0-6.71,7.89c-1.24,3.76-1.07,7.83-.81,11.73s.68,8.05-.9,11.66l3.93-.5c-5.35-6-8.16-13.62-10.47-21.17-2.45-8-4.48-16.16-8.17-23.7C154.77,4.84,151.9-.94,147,.13s-5.73,8-5.6,12c.17,5,1.92,9.82,3.89,14.4,2.09,4.86,4.36,9.64,6.55,14.46l7.67,16.83c2.16,4.75,5.65,10.43,4.58,15.86l3.68-1.49L155,64.9c-2.09-1.19-4.16-2.45-6.29-3.57a13.8,13.8,0,0,0-5.95-1.81,6.62,6.62,0,0,0-6.67,7.71c.51,3.87,3.06,6.79,6.06,9.08,6,4.56,13.39,6.25,20.1,9.34a30.14,30.14,0,0,1,8.94,6,33.39,33.39,0,0,1,5.93,8.39c3.74,7.27,5.46,15.45,7.07,23.4a2.55,2.55,0,0,0,3.08,1.75,22.61,22.61,0,0,0,14.59-9.95c1.76-2.7-2.57-5.21-4.32-2.52a17.67,17.67,0,0,1-11.6,7.65l3.07,1.75c-2.68-13.29-6.16-28.1-17.49-36.8-5.67-4.35-12.62-6.19-19.1-9a30.68,30.68,0,0,1-8.53-5.07A9,9,0,0,1,141.4,68c-.41-1-.63-2.35-.07-2.93,1-1,2.82-.34,3.95.16,2.2,1,4.26,2.34,6.34,3.52l13.66,7.79A2.53,2.53,0,0,0,169,75c1-5.14-.69-9.91-2.76-14.56s-4.25-9.35-6.38-14L153.3,32.09a114.71,114.71,0,0,1-5.54-13.15c-1.27-4-2-8.53-.41-12.59.12-.29.41-1.2.68-1.33s1.18.81,1.39,1.06a23,23,0,0,1,2.77,4.82c3.44,7,5.29,14.69,7.56,22.14,2.6,8.54,5.83,17,11.86,23.73a2.52,2.52,0,0,0,3.93-.51,24.71,24.71,0,0,0,1.75-11.1c-.13-3.51-.63-7.06-.2-10.57.34-2.68,1.31-5.47,3.63-7,2-1.35,4.18-1.67,6.05-.27l-1.15-2.83c-9.49,23.79,4.12,48.27,8.87,71.41a63.88,63.88,0,0,1,1.12,20.77,2.51,2.51,0,0,0,2.5,2.5,2.56,2.56,0,0,0,2.5-2.5Z"/><path class="cls-7" d="M281.43,121.39c10.23-14.39,20.9-30.1,20.67-47.76-.13-10.49-4.19-20.8-3.09-31.24q8.16,13.39,16.33,26.77C320,61.41,320.69,52,322.05,43s3.93-18.5,11-24.14c3,26.48-8.21,52.28-19.18,76.57a52.24,52.24,0,0,1,29.63-5.76c-1.32,6.39-7.91,10.25-14.2,12s-13.08,2.32-18.6,5.81c-8.41,5.31-11.91,16.17-20.1,21.82a9.29,9.29,0,0,0-8.66-6.73"/><path class="cls-8" d="M283.59,122.66c6.36-9,12.62-18.08,16.79-28.3a57,57,0,0,0,4-15.45c.61-5.71-.09-11.37-1.05-17-1.1-6.47-2.44-12.92-1.79-19.52l-4.66,1.26,16.33,26.78a2.53,2.53,0,0,0,4.32,0c3.87-6.54,5.17-14,6.21-21.45.93-6.65,1.73-13.58,4.6-19.73a23.75,23.75,0,0,1,6.52-8.59l-4.27-1.77c2.27,20.51-4,40.53-11.8,59.26-2.24,5.4-4.63,10.73-7,16a2.52,2.52,0,0,0,3.42,3.42,50.36,50.36,0,0,1,28.37-5.42L341.1,89c-2,8.83-13.09,10.45-20.37,12.13-4.94,1.14-9.67,2.74-13.67,5.93-3.41,2.72-6,6.3-8.54,9.8-2.68,3.71-5.38,7.63-9.17,10.29l3.67,1.5A11.92,11.92,0,0,0,282,120.11c-3.21-.1-3.21,4.9,0,5A6.78,6.78,0,0,1,288.2,130a2.52,2.52,0,0,0,3.67,1.5c7.47-5.25,10.94-14,17.64-20,3.65-3.26,8.29-4.6,13-5.66s9.55-2,13.92-4.29,8.4-6.16,9.53-11.23a2.54,2.54,0,0,0-2.41-3.16,55.19,55.19,0,0,0-30.89,6.1L316,96.73c8.69-19.25,17.45-39,19.58-60.27a83.89,83.89,0,0,0-.06-17.57,2.53,2.53,0,0,0-4.26-1.77c-11.62,9.42-11,25.66-13.82,39a38.16,38.16,0,0,1-4.3,11.81h4.32q-8.17-13.38-16.33-26.77c-1.37-2.25-4.43-1.12-4.66,1.26-1.12,11.42,3.57,22.4,3.05,33.79-.48,10.38-4.91,20.08-10.18,28.85-3.12,5.2-6.6,10.16-10.11,15.1a2.5,2.5,0,0,0,4.32,2.53Z"/></g></g></svg>