<svg xmlns="http://www.w3.org/2000/svg" viewBox="0 0 299.81 375.34">
  <defs>
    <style>
      .cls-1 {
        fill: #e9f5f7;
      }

      .cls-2 {
        fill: #d51359;
      }

      .cls-3 {
        fill: #fbede7;
      }

      .cls-4 {
        fill: #2e0e04;
      }

      .cls-5 {
        fill: #065c3f;
      }

      .cls-6 {
        fill: none;
        stroke: #231815;
        stroke-miterlimit: 10;
        stroke-width: 6px;
      }
    </style>
  </defs>
  <g id="レイヤー_2" data-name="レイヤー 2">
    <g id="レイヤー_1-2" data-name="レイヤー 1">
      <g>
        <g>
          <path class="cls-1" d="M3.84,292.35c-3.06,9.39,2.77,19.13,8.34,27.28l15.55,22.76c3,4.35,6,8.78,10.21,12,8.25,6.27,19.39,6.72,29.74,6.91l40.57.75.36-.22A19.63,19.63,0,0,1,106,348.4a19.88,19.88,0,0,1,14.72-15.46l-.32-1.39c-.7-.4-1.38-.83-2-1.28a27.07,27.07,0,0,1-8.46-8.78l-.1.06c-7.9.61-12.46-.35-20.1-2.4-5.65-1.52-11.32-3.91-15.16-8.32s-5.33-11.27-2.23-16.22A11.38,11.38,0,0,1,75,291.69l-.34-.46c-9.32-8.24-13.92-24.49-12.92-36.88s6.1-24.07,11.94-35c.65-1.22,1.32-2.44,2-3.65l-.79-.45-13.23-2.42c-1.43-.27-3-.51-4.27.24s-1.8,2.23-2.2,3.62C53.62,222,53,227.91,49.58,232.39c-3.53,4.67-9.39,6.94-13.67,10.94C27.61,251.09,26.48,264,19.65,273,14.6,279.73,6.45,284.37,3.84,292.35Z"/>
          <path class="cls-2" d="M61.72,254.35c-1,12.39,3.6,28.64,12.92,36.88l.34.46c4.22-3.29,10.65-3.74,16.17-2.77,6.39,1.12,12.7,3.56,19.12,3.22-5-6.18-4-15.17-2.37-23a295.59,295.59,0,0,1,11.48-40.28c1.39-4.36,2.26-7.45,4.71-10.94,7.44-10.6,6-26.44-3-35.68-1.58-.47-3.15-.87-4.7-1.18-9,1.31-17.48,6.06-24.2,12.34s-12,14.11-16.54,22.23c-.68,1.21-1.35,2.43-2,3.65C67.82,230.28,62.72,242,61.72,254.35Z"/>
          <path class="cls-3" d="M115.87,298.24l2.45.59c-4.31-1.56-6.06-4.26-8-6.69-6.42.34-12.73-2.1-19.12-3.22-5.52-1-12-.52-16.17,2.77a11.38,11.38,0,0,0-2.64,2.92c-3.1,4.95-1.61,11.81,2.23,16.22s9.51,6.8,15.16,8.32c7.64,2.05,12.2,3,20.1,2.4l.1-.06a19,19,0,0,1-2.41-6.58c-1-6.37,2.16-13.58,8.17-15.92Z"/>
          <path class="cls-1" d="M98.36,66.29c-8,1.5-14.46,10-12.61,18s12.52,12.53,19,7.77c-1.5-4.27.69-9.3,4.22-12.24a25,25,0,0,1,9.61-4.52,18.54,18.54,0,0,0-13.07-9A19.93,19.93,0,0,0,98.36,66.29Z"/>
          <path class="cls-3" d="M203.34,151.76h0a32.16,32.16,0,0,0,13,2.54,26.82,26.82,0,0,0,3.79-.34,19,19,0,0,0,6.91-2.41c7-4.23,9.72-13.39,8.61-21.48s-5.31-15.4-9.52-22.4v-.55c-35.31-.24-70.69-3.7-105.88-7.17a48.32,48.32,0,0,1-5.35-.79c1.48,7.75-.57,15.87-7.23,20.09-1.54,1-3.33,1.52-4.8,2.58-3.81,2.75-4.47,8.5-2.45,12.73s6.11,7.13,10.37,9.08c4.07,1.86,8.54,6.41,9.94,10.66l.64.31c5.09-4.32,12.85-5.65,20.18-5.52,1.13,0,2.25.07,3.35.16C164.64,150.12,183.76,148.86,203.34,151.76ZM172,119.81a2.37,2.37,0,0,1,0-3.36,2.78,2.78,0,0,1,3.48-.1,1.77,1.77,0,0,1-.36,2.78A2.06,2.06,0,0,1,172,119.81Z"/>
          <path class="cls-1" d="M288.35,81c-3.2-.61-7-.72-10.82-1.71C226.4,68.93,173.2,63.07,122.28,74.39c-1.22.27-2.46.56-3.67.88A25,25,0,0,0,109,79.79c-3.53,2.94-5.72,8-4.22,12.24.07.22.16.43.25.64,1.71,3.81,5.66,5.58,9.91,6.49a48.32,48.32,0,0,0,5.35.79c35.19,3.47,70.57,6.93,105.88,7.17,15,.12,30-.36,45-1.67,1.22-.09,2.44-.2,3.66-.32,6.05-.58,12.44-1.44,17.17-5.25s6.77-11.6,2.58-16A10.93,10.93,0,0,0,288.35,81Z"/>
          <path class="cls-2" d="M121.53,21.47c-12.4,10.94-19.83,28.35-15.94,44.42l0,.35a18.54,18.54,0,0,1,13.07,9c1.21-.32,2.45-.61,3.67-.88,50.92-11.32,104.12-5.46,155.25,4.88,3.86,1,7.62,1.1,10.82,1.71,1.77-16.63-8.69-32.19-20.91-43.59A129.85,129.85,0,0,0,167,3.65C150.51,5.35,133.92,10.54,121.53,21.47Z"/>
          <path class="cls-4" d="M120.76,332.94A19.88,19.88,0,0,0,106,348.4a19.63,19.63,0,0,0,2.57,13.4,19,19,0,0,0,6.17,6.42c6.31,4,14.25,4,21.71,3.88l40.39-.62c6.35-.1,13-.27,18.58-3.26,5.1-2.73,9-8.59,8-14.12a9.22,9.22,0,0,0-.43-1.62l-1.72.4c-22.23-2.21-43.87-8.36-65.18-15.06-5.38-1.69-10.82-3.45-15.69-6.27Z"/>
          <path class="cls-2" d="M118.32,298.83l-2.45-.59-.18.75c-6,2.34-9.19,9.55-8.17,15.92a19,19,0,0,0,2.41,6.58,27.07,27.07,0,0,0,8.46,8.78c.67.45,1.35.88,2,1.28,4.87,2.82,10.31,4.58,15.69,6.27,21.31,6.7,43,12.85,65.18,15.06l1.72-.4a9.22,9.22,0,0,1,.43,1.62l.48-.09a19.12,19.12,0,0,1-.3-2.48c0-.13,0-.25,0-.38q1.71-16.11,3.39-32.22l.48-5.31-1.84-.17A621.14,621.14,0,0,1,118.32,298.83Z"/>
          <path class="cls-2" d="M119.38,228.89a295.59,295.59,0,0,0-11.48,40.28c-1.63,7.8-2.67,16.79,2.37,23,2,2.43,3.74,5.13,8,6.69a621.14,621.14,0,0,0,87.39,14.62l1.84.17c7.15.62,14.52.87,21.13-1.84a28.77,28.77,0,0,0,8.52-5.5A42.38,42.38,0,0,0,242,301a58.82,58.82,0,0,0,3.47-5c15.81-25.44,12.29-63.25-6.21-86.81l-.75-.66-4.23,4.75a19.29,19.29,0,0,1-4.49,4.07c-2.61,1.49-5.74,1.67-8.75,1.81l-12,.55.12,2.53c.55,5.77-1.76,12.88-7.46,13.93a7.51,7.51,0,0,1-7.67-3.54c-1.5-2.6-.35-8.75,1.6-11l-.06-1.27-5.35.24c-4.5.21-9.17.39-13.33-1.33s-7.21-5-10.43-8a98.74,98.74,0,0,0-19.94-14.5c-7.66-4.21-16-7.5-22.41-13.45-1-.36-2-.7-3-1,9,9.24,10.43,25.08,3,35.68C121.64,221.44,120.77,224.53,119.38,228.89Zm89.2,39c-5.25-1-8.24-7.54-6.29-12.51,5.49-1.55,11.43-2.55,14.2,2.44C219.08,262.44,213.82,268.8,208.58,267.85Zm-3.88,29c-2.88-3.2-.77-9.29,3.19-10.11,2.42-.91,7.85,0,9,1.68a6.36,6.36,0,0,1-.09,6.62C214.43,299.2,207.88,300.43,204.7,296.89Z"/>
          <path class="cls-1" d="M144.94,149.25c-1.11,0-2.23-.1-3.35-.16-7.33-.13-15.09,1.2-20.18,5.52a15.41,15.41,0,0,0-4,5.1c-3.77,7.88.26,17.61,6.66,23.56s14.75,9.24,22.41,13.45a98.74,98.74,0,0,1,19.94,14.5c3.22,3,6.35,6.34,10.43,8s8.83,1.54,13.33,1.33l5.35-.24,13.47-.62,12-.55c3-.14,6.14-.32,8.75-1.81a19.29,19.29,0,0,0,4.49-4.07l4.23-4.75,7.57-8.51,21.05-23.64c4.95-5.55,10.23-12.94,7.24-19.75-2.14-4.89-7.43-7.35-13-7.84a24.36,24.36,0,0,0-8.11.66c-10.59,2.76-10.33,5.21-33.06,4.84l-.05-.34a26.82,26.82,0,0,1-3.79.34,32.16,32.16,0,0,1-13-2.54h0C183.76,148.86,164.64,150.12,144.94,149.25Z"/>
          <path class="cls-3" d="M172,116.45a2.37,2.37,0,0,0,0,3.36,2.06,2.06,0,0,0,3.15-.68,1.77,1.77,0,0,0,.36-2.78A2.78,2.78,0,0,0,172,116.45Z"/>
          <path class="cls-5" d="M195.64,221.61c-1.95,2.28-3.1,8.43-1.6,11a7.51,7.51,0,0,0,7.67,3.54c5.7-1.05,8-8.16,7.46-13.93l-.12-2.53-13.47.62Z"/>
          <path class="cls-5" d="M202.29,255.34c-1.95,5,1,11.56,6.29,12.51s10.5-5.41,7.91-10.07C213.72,252.79,207.78,253.79,202.29,255.34Z"/>
          <path class="cls-4" d="M203.68,351.15c0,.13,0,.25,0,.38a19.12,19.12,0,0,0,.3,2.48c1.54,8.23,8.28,11.93,17.21,15.6,7,2.89,14.86,2.81,22.45,2.68,5.53-.09,11.83-.54,15.25-4.88,4-5.11,1.48-13.21-3.74-17.09s-12.12-4.56-18.63-4.63a72.9,72.9,0,0,0-20.84,2.38l0,0c-2.75,1.12-5.53,2.2-8.48,3.42Z"/>
          <path class="cls-2" d="M207.07,318.93q-1.69,16.11-3.39,32.22l3.44.36a42.28,42.28,0,0,1,8.48-3.42l0,0a92,92,0,0,0,14-6.88A25.21,25.21,0,0,0,240.42,328c2.2-6.64-.16-13.83-2.5-20.42l-.72-1.25a28.77,28.77,0,0,1-8.52,5.5c-6.61,2.71-14,2.46-21.13,1.84Z"/>
          <path class="cls-5" d="M207.89,286.78c-4,.82-6.07,6.91-3.19,10.11,3.18,3.54,9.73,2.31,12.1-1.81a6.36,6.36,0,0,0,.09-6.62C215.74,286.77,210.31,285.87,207.89,286.78Z"/>
          <path class="cls-3" d="M220.17,154l.05.34c22.73.37,22.47-2.08,33.06-4.84a24.36,24.36,0,0,1,8.11-.66l.07-.71q4.89-20.59,9.79-41.17l-.13-1.47c-15,1.31-30,1.79-45,1.67v.55c4.21,7,8.41,14.3,9.52,22.4s-1.61,17.25-8.61,21.48A19,19,0,0,1,220.17,154Zm29.88-31.21c-1.47-.37-2.05-2.68-.78-3.49.4-.59,2.76-1.39,3.3-.92a2.19,2.19,0,0,1,.64,2A2.79,2.79,0,0,1,250.05,122.75Z"/>
          <path class="cls-2" d="M246.11,200l-7.57,8.51.75.66c18.5,23.56,22,61.37,6.21,86.81a58.82,58.82,0,0,1-3.47,5l.6.48C256.71,298,265.77,283.39,267.4,269s-2.62-28.78-6.81-42.68a69.73,69.73,0,0,0-13.67-25.54Z"/>
          <path class="cls-3" d="M249.27,119.26c-1.27.81-.69,3.12.78,3.49a2.79,2.79,0,0,0,3.16-2.45,2.19,2.19,0,0,0-.64-2C252,117.87,249.67,118.67,249.27,119.26Z"/>
        </g>
        <g>
          <path class="cls-6" d="M277.53,79.27C226.4,68.93,173.2,63.07,122.28,74.39c-1.22.27-2.46.56-3.67.88A25,25,0,0,0,109,79.79c-3.53,2.94-5.72,8-4.22,12.24.07.22.16.43.25.64,1.71,3.81,5.66,5.58,9.91,6.49a48.32,48.32,0,0,0,5.35.79c35.19,3.47,70.57,6.93,105.88,7.17,15,.12,30-.36,45-1.67,1.22-.09,2.44-.2,3.66-.32,6.05-.58,12.44-1.44,17.17-5.25s6.77-11.6,2.58-16a10.93,10.93,0,0,0-6.18-2.9c-3.2-.61-7-.72-10.82-1.71"/>
          <path class="cls-6" d="M288.35,81v0c1.77-16.63-8.69-32.19-20.91-43.59A129.85,129.85,0,0,0,167,3.65c-16.44,1.7-33,6.89-45.42,17.82S101.7,49.82,105.59,65.89"/>
          <path class="cls-6" d="M118.61,75.27a18.54,18.54,0,0,0-13.07-9,19.93,19.93,0,0,0-7.18.05c-8,1.5-14.46,10-12.61,18s12.52,12.53,19,7.77l.17-.12"/>
          <path class="cls-6" d="M203.34,151.76a33.07,33.07,0,0,1-15.48-13.15"/>
          <path class="cls-6" d="M226.17,107.67c4.21,7,8.41,14.3,9.52,22.4s-1.61,17.25-8.61,21.48a19,19,0,0,1-6.91,2.41,26.82,26.82,0,0,1-3.79.34,32.16,32.16,0,0,1-13-2.54"/>
          <path class="cls-6" d="M141.59,149.09c1.12.06,2.24.12,3.35.16,19.7.87,38.82-.39,58.4,2.51h0"/>
          <path class="cls-6" d="M145.58,149.3l-.64-.05c-1.1-.09-2.22-.14-3.35-.16-7.33-.13-15.09,1.2-20.18,5.52a15.41,15.41,0,0,0-4,5.1c-3.77,7.88.26,17.61,6.66,23.56s14.75,9.24,22.41,13.45a98.74,98.74,0,0,1,19.94,14.5c3.22,3,6.35,6.34,10.43,8s8.83,1.54,13.33,1.33l5.35-.24,13.47-.62,12-.55c3-.14,6.14-.32,8.75-1.81a19.29,19.29,0,0,0,4.49-4.07l4.23-4.75,7.57-8.51,21.05-23.64c4.95-5.55,10.23-12.94,7.24-19.75-2.14-4.89-7.43-7.35-13-7.84a24.36,24.36,0,0,0-8.11.66c-10.59,2.76-10.33,5.21-33.06,4.84"/>
          <path class="cls-6" d="M271.25,106.92q-4.89,20.58-9.79,41.17"/>
          <path class="cls-6" d="M114.94,99.16c1.48,7.75-.57,15.87-7.23,20.09-1.54,1-3.33,1.52-4.8,2.58-3.81,2.75-4.47,8.5-2.45,12.73s6.11,7.13,10.37,9.08c4.07,1.86,8.54,6.41,9.94,10.66"/>
          <path class="cls-6" d="M209.17,222.25c.55,5.77-1.76,12.88-7.46,13.93a7.51,7.51,0,0,1-7.67-3.54c-1.5-2.6-.35-8.75,1.6-11"/>
          <path class="cls-6" d="M202.29,255.34c-1.95,5,1,11.56,6.29,12.51s10.5-5.41,7.91-10.07C213.72,252.79,207.78,253.79,202.29,255.34Z"/>
          <path class="cls-6" d="M207.89,286.78a2.32,2.32,0,0,0-.82.49"/>
          <path class="cls-6" d="M207.89,286.78c-4,.82-6.07,6.91-3.19,10.11,3.18,3.54,9.73,2.31,12.1-1.81a6.36,6.36,0,0,0,.09-6.62C215.74,286.77,210.31,285.87,207.89,286.78Z"/>
          <path class="cls-6" d="M209.15,286.69a4.36,4.36,0,0,0-1.26.09"/>
          <path class="cls-6" d="M239.29,209.2c18.5,23.56,22,61.37,6.21,86.81a58.82,58.82,0,0,1-3.47,5,42.38,42.38,0,0,1-4.83,5.26,28.77,28.77,0,0,1-8.52,5.5c-6.61,2.71-14,2.46-21.13,1.84l-1.84-.17a621.14,621.14,0,0,1-87.39-14.62l-2.45-.59-.16,0"/>
          <path class="cls-6" d="M119.89,227.5l-.51,1.39a295.59,295.59,0,0,0-11.48,40.28c-1.63,7.8-2.67,16.79,2.37,23,2,2.43,3.74,5.13,8,6.69l.05,0"/>
          <path class="cls-6" d="M120.77,180.72a33.45,33.45,0,0,0-4.37.37c-9,1.31-17.48,6.06-24.2,12.34s-12,14.11-16.54,22.23c-.68,1.21-1.35,2.43-2,3.65-5.84,11-10.94,22.65-11.94,35s3.6,28.64,12.92,36.88"/>
          <path class="cls-6" d="M207.07,318.93q-1.69,16.11-3.39,32.22c0,.13,0,.25,0,.38s0,.27,0,.41"/>
          <path class="cls-6" d="M215.64,348.07a72.9,72.9,0,0,1,20.84-2.38c6.51.07,13.4.74,18.63,4.63s7.78,12,3.74,17.09c-3.42,4.34-9.72,4.79-15.25,4.88-7.59.13-15.43.21-22.45-2.68-8.93-3.67-15.67-7.37-17.21-15.6a19.12,19.12,0,0,1-.3-2.48c0-.46,0-.94,0-1.43"/>
          <path class="cls-6" d="M215.6,348.09c-2.75,1.12-5.53,2.2-8.48,3.42a42.28,42.28,0,0,1,8.48-3.42"/>
          <path class="cls-6" d="M215.6,348.09l0,0"/>
          <path class="cls-6" d="M237.92,307.53c2.34,6.59,4.7,13.78,2.5,20.42a25.21,25.21,0,0,1-10.83,13.24,92,92,0,0,1-14,6.88"/>
          <path class="cls-6" d="M201.31,352.88c-22.23-2.21-43.87-8.36-65.18-15.06-5.38-1.69-10.82-3.45-15.69-6.27-.7-.4-1.38-.83-2-1.28a27.07,27.07,0,0,1-8.46-8.78,19,19,0,0,1-2.41-6.58c-1-6.37,2.16-13.58,8.17-15.92"/>
          <path class="cls-6" d="M121.13,332.86l-.37.08A19.88,19.88,0,0,0,106,348.4a19.63,19.63,0,0,0,2.57,13.4,19,19,0,0,0,6.17,6.42c6.31,4,14.25,4,21.71,3.88l40.39-.62c6.35-.1,13-.27,18.58-3.26,5.1-2.73,9-8.59,8-14.12a9.22,9.22,0,0,0-.43-1.62"/>
          <path class="cls-6" d="M246.92,200.75a69.73,69.73,0,0,1,13.67,25.54c4.19,13.9,8.43,28.26,6.81,42.68s-10.69,29-24.77,32.53"/>
          <path class="cls-6" d="M111.69,292c-.48.06-1,.1-1.42.12-6.42.34-12.73-2.1-19.12-3.22-5.52-1-12-.52-16.17,2.77a11.38,11.38,0,0,0-2.64,2.92c-3.1,4.95-1.61,11.81,2.23,16.22s9.51,6.8,15.16,8.32c7.64,2.05,12.2,3,20.1,2.4"/>
          <path class="cls-6" d="M249.27,119.26c-1.27.81-.69,3.12.78,3.49a2.79,2.79,0,0,0,3.16-2.45,2.19,2.19,0,0,0-.64-2C252,117.87,249.67,118.67,249.27,119.26Z"/>
          <path class="cls-6" d="M175.13,119.13a1.77,1.77,0,0,0,.36-2.78,2.78,2.78,0,0,0-3.48.1,2.37,2.37,0,0,0,0,3.36A2.06,2.06,0,0,0,175.13,119.13Z"/>
          <path class="cls-6" d="M124.12,183.27c-1-.36-2-.7-3-1-1.58-.47-3.15-.87-4.7-1.18-9.08-1.86-17.8-1.07-27.29,1.93C77,186.86,64.7,202.61,57.37,213"/>
          <path class="cls-6" d="M74.87,215.21l-13.23-2.42c-1.43-.27-3-.51-4.27.24s-1.8,2.23-2.2,3.62C53.62,222,53,227.91,49.58,232.39c-3.53,4.67-9.39,6.94-13.67,10.94C27.61,251.09,26.48,264,19.65,273c-5,6.71-13.2,11.35-15.81,19.33-3.06,9.39,2.77,19.13,8.34,27.28l15.55,22.76c3,4.35,6,8.78,10.21,12,8.25,6.27,19.39,6.72,29.74,6.91l40.57.75"/>
          <path class="cls-6" d="M120.38,181.56c.25.23.49.47.72.71,9,9.24,10.43,25.08,3,35.68-2.45,3.49-3.32,6.58-4.71,10.94"/>
        </g>
      </g>
    </g>
  </g>
</svg>
