<svg xmlns="http://www.w3.org/2000/svg" viewBox="0 0 627.4 678.94"><defs><style>.cls-1{fill:#047250;}.cls-2{fill:#2e0e04;}.cls-3{fill:#e83828;}.cls-4{fill:#9b4731;}.cls-12,.cls-13,.cls-5,.cls-9{fill:none;stroke:#231815;stroke-miterlimit:10;}.cls-5{stroke-width:7.07px;}.cls-6{fill:#e9f5f7;}.cls-7{fill:#fbede7;}.cls-8{fill:#d51359;}.cls-9{stroke-width:5.2px;}.cls-10{fill:#231815;}.cls-11{fill:#065c3f;}.cls-12{stroke-width:5px;}.cls-13{stroke-width:6px;}</style></defs><g id="レイヤー_2" data-name="レイヤー 2"><g id="レイヤー_1-2" data-name="レイヤー 1"><path class="cls-1" d="M377.43,235.48c2,6.12,3.16,13,.73,18.91-5.14,12.63-22,14.43-35.62,14.22l-47-.7-37.09-.55-32.05-.46c-15.87-.24-31.87-.48-47.41-3.76-2.08-.44-4.26-1-5.76-2.5s-2-3.68-2.38-5.77a54.53,54.53,0,0,1,9.72-41.06l.83-3.06c15,4,30.77,4.4,46.25,3.35,30.85-2.07,61.16-9.69,90.26-20.18,7.39-2.64,15-5.79,21.63-10l.34.56C355,199.45,370.69,215.25,377.43,235.48ZM290.7,250.63c8.06,1,15.89-7.09,14.69-15.13S294.44,222.12,287,225.29c-3.24.64-5.84,3.79-6.48,7.14-.74,3.79.43,7.69,1.91,11.26a13,13,0,0,0,2.63,4.44A9.56,9.56,0,0,0,290.7,250.63Z"/><path class="cls-1" d="M222,169.69a12,12,0,0,0-.7,24c6.29.27,12.26-5.25,12.43-11.54A12.29,12.29,0,0,0,221.94,170ZM351.7,128.88c6.41,11.44,9.05,25.8,3.68,37.77-3.3,7.36-9,12.87-15.87,17.23-6.61,4.25-14.24,7.4-21.63,10-29.1,10.49-59.41,18.11-90.26,20.18-15.48,1.05-31.28.65-46.25-3.35-1.38-.36-2.77-.76-4.14-1.2-3.07-1-6.32-2.27-8-5-1.53-2.46-1.48-5.57-1.17-8.45,2.71-25.19,20.63-45.7,37.7-64.41l.15-4.37c4.68.17,9.36.1,14-.09a317.25,317.25,0,0,0,94.73-18.44,120.35,120.35,0,0,0,14.69-6.21C338.61,111.2,345.41,117.69,351.7,128.88Zm-27.5,27.93a16.07,16.07,0,0,0,.52-8.06,13,13,0,0,0-3.58-7.56,7,7,0,0,0-7.18-1.63l-1.7-.06A13.26,13.26,0,0,0,300.61,151a12.85,12.85,0,0,0,9.27,13.34A12.48,12.48,0,0,0,324.2,156.81Z"/><path class="cls-1" d="M329.33,102.57a120.35,120.35,0,0,1-14.69,6.21,317.25,317.25,0,0,1-94.73,18.44c-4.65.19-9.33.26-14,.09-10.52-.35-21-1.89-30.58-6-2.62-1.14-5.49-2.9-5.79-5.73-.2-1.82.75-3.55,1.68-5.13a274.17,274.17,0,0,1,117.47-107,161.31,161.31,0,0,0,44.26,50.35c8.09,6,17.71,13,17.71,23.08,0,4.42-2,8.66-4.65,12.22C341.68,94.93,335.8,99.19,329.33,102.57Zm-56.61-45c-4.84,3.52-6.14,10.84-5.42,17a14.74,14.74,0,0,0,1.29,4.91c2,4,7.08,5.84,11.32,4.61a12.33,12.33,0,0,0,8.29-9.5c1.6-8.23-6-16.94-14.37-16.47Z"/><path class="cls-2" d="M323.45,429.07c0,.52-1,1.31-1.8,1.31H309.2v-2.54A108.17,108.17,0,0,1,306,402.91c4.88-.83,9.74-1.74,14.59-2.7a2,2,0,0,0,1.45-.75.67.67,0,0,0,.09-.34l3.64-.17q.71,15.07.7,30.13Z"/><path class="cls-2" d="M323.45,429.07h3q0,9.27-.26,18.5a330.67,330.67,0,0,1-40.13,5.68l-.33-4.08a157.2,157.2,0,0,1-.42-18.8h36.33C322.47,430.38,323.45,429.59,323.45,429.07Z"/><path class="cls-2" d="M306,402.91c-7.57,1.29-15.19,2.42-22.8,3.38l-.34-2.66a106.07,106.07,0,0,1-.69-21.45l-1.33-5.87h0c7.18-1.58,14.31-3.35,21.41-5.26,4.66-1.27,9.31-2.58,13.93-4a7.33,7.33,0,0,1,4.51-.38c2.57.92,3.22,4.19,3.46,6.91q1.07,12.68,1.62,25.36l-3.64.17a.67.67,0,0,1-.09.34,2,2,0,0,1-1.45.75C315.73,401.17,310.87,402.08,306,402.91Z"/><path class="cls-3" d="M314,139.56a7,7,0,0,1,7.18,1.63,13,13,0,0,1,3.58,7.56,16.07,16.07,0,0,1-.52,8.06,12.48,12.48,0,0,1-14.32,7.49A12.85,12.85,0,0,1,300.61,151a13.26,13.26,0,0,1,11.65-11.46Z"/><path class="cls-2" d="M309.2,427.84v2.54H264.55v-2.18A54.29,54.29,0,0,1,262.82,410l-.14-1.51q10.26-.93,20.51-2.23c7.61-1,15.23-2.09,22.8-3.38A108.17,108.17,0,0,0,309.2,427.84Z"/><path class="cls-3" d="M287,225.29c7.42-3.17,17.15,2.22,18.37,10.21s-6.63,16.09-14.69,15.13a9.56,9.56,0,0,1-5.62-2.5,13,13,0,0,1-2.63-4.44c-1.48-3.57-2.65-7.47-1.91-11.26C281.18,229.08,283.78,225.93,287,225.29Z"/><path class="cls-4" d="M300.94,365.14l1.3,5.9c-7.1,1.91-14.23,3.68-21.41,5.26h0q-9.12,2-18.29,3.74L262,376.8c1.62-.32,2.27-3.24,2-5.26a555.64,555.64,0,0,1-5.53-103l0-1.16,37.09.55-.06,3.89A660.58,660.58,0,0,0,300.94,365.14Z"/><path class="cls-3" d="M273.83,58.14c8.38-.47,16,8.24,14.37,16.47a12.33,12.33,0,0,1-8.29,9.5c-4.24,1.23-9.33-.66-11.32-4.61a14.74,14.74,0,0,1-1.29-4.91c-.72-6.19.58-13.51,5.42-17Z"/><path class="cls-2" d="M285.74,449.18l.33,4.08a328,328,0,0,1-34.06,1,3.88,3.88,0,0,1-4.59-4.15q-1.56-9.6-2.85-19.25l3.76-.49h37A157.2,157.2,0,0,0,285.74,449.18Z"/><path class="cls-2" d="M282.85,403.63l.34,2.66q-10.24,1.31-20.51,2.23-9.81.87-19.67,1.38l-1,.12q-1.42-13.17-2.33-26.39l1.07-.08q10.92-1.5,21.76-3.5,9.18-1.69,18.29-3.74l1.33,5.87A106.07,106.07,0,0,0,282.85,403.63Z"/><path class="cls-2" d="M264.55,428.19v2.18H248.33l-3.76.49Q243.13,420.45,242,410l1-.12q9.86-.5,19.67-1.38l.14,1.51A54.29,54.29,0,0,0,264.55,428.19Z"/><path class="cls-3" d="M221.94,170a12.29,12.29,0,0,1,11.75,12.14c-.17,6.29-6.14,11.81-12.43,11.54a12,12,0,0,1,.7-24Z"/><path class="cls-5" d="M289,3.32l-.3.14a274.17,274.17,0,0,0-117.47,107c-.93,1.58-1.88,3.31-1.68,5.13.3,2.83,3.17,4.59,5.79,5.73,9.63,4.14,20.06,5.68,30.58,6,4.68.17,9.36.1,14-.09a317.25,317.25,0,0,0,94.73-18.44,120.35,120.35,0,0,0,14.69-6.21c6.47-3.38,12.35-7.64,16.67-13.46,2.64-3.56,4.65-7.8,4.65-12.22,0-10.09-9.62-17.06-17.71-23.08A161.31,161.31,0,0,1,288.68,3.46c-.33-.59-.66-1.17-1-1.76"/><path class="cls-5" d="M205.75,131.68c-17.07,18.71-35,39.22-37.7,64.41-.31,2.88-.36,6,1.17,8.45,1.69,2.74,4.94,4,8,5,1.37.44,2.76.84,4.14,1.2,15,4,30.77,4.4,46.25,3.35,30.85-2.07,61.16-9.69,90.26-20.18,7.39-2.64,15-5.79,21.63-10,6.83-4.36,12.57-9.87,15.87-17.23,5.37-12,2.73-26.33-3.68-37.77-6.29-11.19-13.09-17.68-22.37-26.31l-.64-.6"/><path class="cls-5" d="M339.85,184.44c15.17,15,30.84,30.81,37.58,51,2,6.12,3.16,13,.73,18.91-5.14,12.63-22,14.43-35.62,14.22l-47-.7-37.09-.55-32.05-.46c-15.87-.24-31.87-.48-47.41-3.76-2.08-.44-4.26-1-5.76-2.5s-2-3.68-2.38-5.77a54.53,54.53,0,0,1,9.72-41.06"/><path class="cls-5" d="M258.4,268.52a555.64,555.64,0,0,0,5.53,103c.29,2-.36,4.94-2,5.26a1.85,1.85,0,0,1-.86-.08"/><path class="cls-5" d="M295.45,271.8a660.58,660.58,0,0,0,5.49,93.34"/><path class="cls-5" d="M240.78,383.55q10.92-1.5,21.76-3.5,9.18-1.69,18.29-3.74h0c7.18-1.58,14.31-3.35,21.41-5.26,4.66-1.27,9.31-2.58,13.93-4a7.33,7.33,0,0,1,4.51-.38c2.57.92,3.22,4.19,3.46,6.91q1.07,12.68,1.62,25.36.71,15.07.7,30.13,0,9.27-.26,18.5a330.67,330.67,0,0,1-40.13,5.68,328,328,0,0,1-34.06,1,3.88,3.88,0,0,1-4.59-4.15q-1.56-9.6-2.85-19.25Q243.13,420.45,242,410q-1.42-13.17-2.33-26.39c0-.28-.05-.56-.06-.84"/><path class="cls-5" d="M243,409.9q9.86-.5,19.67-1.38,10.26-.93,20.51-2.23c7.61-1,15.23-2.09,22.8-3.38,4.88-.83,9.74-1.74,14.59-2.7a2,2,0,0,0,1.45-.75.67.67,0,0,0,.09-.34c0-.45-.38-.92-.78-.73"/><path class="cls-5" d="M248.33,430.37h73.32c.82,0,1.8-.79,1.8-1.31,0-.19-.1-.33-.37-.4"/><path class="cls-5" d="M282.16,382.18a106.07,106.07,0,0,0,.69,21.45"/><path class="cls-5" d="M262.82,410a54.29,54.29,0,0,0,1.73,18.16"/><path class="cls-5" d="M306,402.53c0,.13,0,.25,0,.38a108.17,108.17,0,0,0,3.21,24.93l-1.44-1.22"/><path class="cls-5" d="M285.34,429.83a5.06,5.06,0,0,0,0,.55,157.2,157.2,0,0,0,.42,18.8l-1.58-1.63"/><path class="cls-5" d="M313.3,139.89a4.52,4.52,0,0,1,.66-.33,7,7,0,0,1,7.18,1.63,13,13,0,0,1,3.58,7.56,16.07,16.07,0,0,1-.52,8.06,12.48,12.48,0,0,1-14.32,7.49A12.85,12.85,0,0,1,300.61,151a13.26,13.26,0,0,1,11.65-11.46"/><path class="cls-5" d="M221.9,170h0a12.29,12.29,0,0,1,11.75,12.14c-.17,6.29-6.14,11.81-12.43,11.54a12,12,0,0,1,.7-24h.49"/><path class="cls-5" d="M273.83,58.14c8.38-.47,16,8.24,14.37,16.47a12.33,12.33,0,0,1-8.29,9.5c-4.24,1.23-9.33-.66-11.32-4.61a14.74,14.74,0,0,1-1.29-4.91c-.72-6.19.58-13.51,5.42-17a9.71,9.71,0,0,1,1.88-1.09"/><path class="cls-5" d="M287,225.29a5.44,5.44,0,0,1,1.34-.12"/><path class="cls-5" d="M287,225.29c7.42-3.17,17.15,2.22,18.37,10.21s-6.63,16.09-14.69,15.13a9.56,9.56,0,0,1-5.62-2.5,13,13,0,0,1-2.63-4.44c-1.48-3.57-2.65-7.47-1.91-11.26C281.18,229.08,283.78,225.93,287,225.29Z"/><path class="cls-5" d="M286.9,225.34l.12-.05"/><path class="cls-6" d="M602.66,316.36c11.25.6,22.73,9.63,22.12,20.88-.56,10.32-10.17,17.52-19.06,22.77-9.51,5.63-20,11-31,10a29.31,29.31,0,0,1-20.53-11.36c-3.18-4.21-5.56-9.59-10.45-11.55-3.58-1.44-7.63-.66-11.44-1.19s-7.89-3.56-7.13-7.27h.06c1.64-4.26,4.57-9.36,9.12-8.82,2.64.31,4.59,2.53,6.81,4,4.55,3,10.59,3,15.78,1.29s9.77-4.84,14.36-7.78C580.78,321.3,591.41,315.76,602.66,316.36Z"/><path class="cls-7" d="M549.36,264c1.79,5.06,3.55,10.84,1,15.59a15.55,15.55,0,0,1-3,3.71A39.73,39.73,0,0,1,543,287l-.38-.05a20.26,20.26,0,0,0-.69-8.37c-.78-2.51-2.16-5-4.48-6.25a12.08,12.08,0,0,0-5.12-1.13c-.79,0-1.57-.07-2.37-.08V271c-.58-3.24.82-6.5,2.52-9.32,2.21-3.64,6-7.29,10.16-6.25C546.32,256.36,548.09,260.41,549.36,264Z"/><path class="cls-8" d="M542,278.62a20.26,20.26,0,0,1,.69,8.37,20.56,20.56,0,0,1-4.95,11.12c-4.2,4.71-10.29,7.2-16.15,9.53L505.62,314c-4.66-3.32-9.39-6.62-12.77-11.2-3.6-4.87-5.33-11.7-2.82-17.08l.11.06A59.8,59.8,0,0,1,530,271.16c.8,0,1.58,0,2.37.08a12.08,12.08,0,0,1,5.12,1.13C539.79,273.62,541.17,276.11,542,278.62Z"/><path class="cls-6" d="M522.19,176.83c7.61,1.42,13.68,9.47,11.93,17s-11.84,11.85-18,7.35c1.42-4-.65-8.79-4-11.57a22.59,22.59,0,0,0-8.82-4.71,17.5,17.5,0,0,1,12.09-8.11A18.68,18.68,0,0,1,522.19,176.83Z"/><path class="cls-7" d="M422.92,257.66h0a30.65,30.65,0,0,1-12.32,2.4,26.9,26.9,0,0,1-3.58-.32,17.92,17.92,0,0,1-6.53-2.28c-6.62-4-9.2-12.67-8.15-20.32s5-14.56,9-21.18v-.52c33.39-.23,66.85-3.5,100.12-6.78a45.12,45.12,0,0,0,5.06-.75c-1.4,7.33.54,15,6.84,19,1.46.93,3.15,1.44,4.54,2.44,3.6,2.6,4.23,8,2.32,12s-5.78,6.74-9.81,8.59c-3.85,1.76-8.08,6.06-9.4,10.08l-.61.29c-4.81-4.08-12.15-5.34-19.08-5.22-1.07,0-2.13.07-3.17.15C459.51,256.1,441.43,254.91,422.92,257.66Zm29.65-30.22a2.25,2.25,0,0,0,0-3.18,2.63,2.63,0,0,0-3.29-.09,1.68,1.68,0,0,0,.34,2.63A2,2,0,0,0,452.57,227.44Z"/><path class="cls-6" d="M342.52,190.72c3-.58,6.59-.68,10.24-1.62,76.58-4.94,98.22-3.19,146.81-4.61a14.3,14.3,0,0,1,3.74.4,22.59,22.59,0,0,1,8.82,4.71c3.34,2.78,5.41,7.53,4,11.57a6.44,6.44,0,0,1-.24.61c-1.61,3.6-5.35,5.27-9.37,6.13a45.12,45.12,0,0,1-5.06.75c-33.27,3.28-66.73,6.55-100.12,6.78-14.19.11-28.36-.34-42.51-1.58-1.16-.08-2.31-.19-3.46-.3-5.72-.55-11.77-1.36-16.24-5s-6.4-11-2.44-15.13A10.36,10.36,0,0,1,342.52,190.72Z"/><path class="cls-8" d="M500.28,134.44c11.73,10.35,18.75,26.81,15.07,42l0,.33a17.5,17.5,0,0,0-12.09,8.11,14.3,14.3,0,0,0-3.74-.4c-48.59,1.42-70.23-.33-146.81,4.61-3.65.94-7.21,1-10.24,1.62-1.67-15.73,8.22-30.44,19.78-41.22a122.82,122.82,0,0,1,95-31.91C472.88,119.2,488.56,124.11,500.28,134.44Z"/><path class="cls-8" d="M505.62,314c-3.59,1.43-7.17,2.86-10.77,4.28-2.86,1.13-6.06,2.28-8.92,1.18C482,312.14,477.79,305,474,298.14l-3.63-.45c5.8-3.75,11.33-9,16.33-13.68l3.6,1c-.11.22-.22.43-.31.64-2.51,5.38-.78,12.21,2.82,17.08C496.23,307.34,501,310.64,505.62,314Z"/><path class="cls-6" d="M402.57,321.13a12.8,12.8,0,0,1-4.7-1.44,18.23,18.23,0,0,1-4.24-3.85c-.32-.36-.64-.73-.94-1.09-9.42-11.27-9.64-22.58-19.68-33.85-4.67-5.25-12.51-12.57-9.68-19,1.67-3.82,3-6,5.16-6.79,1.72-.67,3.94-.48,7.2.37,10,2.61,9.77,4.93,31.26,4.58l.05-.32a26.9,26.9,0,0,0,3.58.32,30.65,30.65,0,0,0,12.32-2.4h0c18.51-2.75,36.59-1.56,55.22-2.38l3.17-.15c6.93-.12,14.27,1.14,19.08,5.22a14.55,14.55,0,0,1,3.74,4.82c3.57,7.46-10.19,12.15-16.25,17.77L486.74,284c-5,4.67-10.53,9.93-16.33,13.68q-1.34.87-2.7,1.62c-6.83,3.76-4.25,9.24-9.93,14.57-3,2.86-6,6-9.86,7.6s-8.35,1.45-12.61,1.26l-29.16-1.34C405,321.35,403.76,321.29,402.57,321.13Z"/><path class="cls-8" d="M438.73,368.59a3.27,3.27,0,0,0-2.26,2.72,7,7,0,0,0,1.22,4.33,5.22,5.22,0,0,0,1.3,1.64,4,4,0,0,0,4,.2,5,5,0,0,0,2.7-3.11,4.19,4.19,0,0,0-.93-3.94c-1.46-1.56-3.85-1.61-6-1.5ZM415.83,389c-3.13-3.58-4.58-8.39-5.79-13a233,233,0,0,1-7.47-54.79c1.19.16,2.39.22,3.58.27l29.16,1.34c4.26.19,8.68.36,12.61-1.26s6.82-4.74,9.86-7.6c5.68-5.33,3.1-10.81,9.93-14.57q1.37-.75,2.7-1.62l3.63.45c3.75,6.9,8,14,11.89,21.28,5.71,10.71,10.66,21.83,12.2,33.28.65,4.81-2.67,12.34-6.78,14.85a13,13,0,0,0-4,4.41c-1.36,2.21-2.54,4.63-4.39,6.42-9.11,8.77-18.95,17.93-31.35,20.36l-.69.12c-8.84,1.55-18-.53-26.25-4.08a25.63,25.63,0,0,1-8-4.89C416.4,389.59,416.11,389.27,415.83,389ZM437,348.85a2.27,2.27,0,0,0-1.21,1,5.07,5.07,0,0,0-.62,2.23,7.23,7.23,0,0,0,.35,3.58,4.58,4.58,0,0,0,5.67,2.33,4.78,4.78,0,0,0,2.75-5.53,5,5,0,0,0-5.14-3.53Zm5.1-13.05a3.48,3.48,0,0,0-1-2.32,5,5,0,0,0-4.75-1.51L436,332a4,4,0,0,0,1,7.86,5.82,5.82,0,0,0,2.33-.69C440.72,338.51,442,337.31,442.05,335.8Z"/><path class="cls-2" d="M468.44,424.23l1.18-2.23a8.8,8.8,0,0,0,1.7.8c3.09,1,6.42-.31,9.41-1.61,4.88-2.12,10.12-4.55,12.63-9.25a18.14,18.14,0,0,0,1.81-6.69l.84.08q1,9.75,2.09,19.47A2.56,2.56,0,0,1,498,426a2.33,2.33,0,0,1-1.09,1L476.7,439c-2.73,1.61-5.54,3.26-8.67,3.7-2.12.31-4.51-.06-6-1.65a7,7,0,0,1-1.4-2.54,12.14,12.14,0,0,1,.6-10A8.6,8.6,0,0,1,468.44,424.23Z"/><path class="cls-8" d="M455,408.22a26,26,0,0,1-3.66-7l-.41-2.33.69-.12c12.4-2.43,22.24-11.59,31.35-20.36,1.85-1.79,3-4.21,4.39-6.42l.08.05a52.61,52.61,0,0,1,7.82,32.44c0,.27-.05.53-.08.8a18.14,18.14,0,0,1-1.81,6.69c-2.51,4.7-7.75,7.13-12.63,9.25-3,1.3-6.32,2.62-9.41,1.61a8.8,8.8,0,0,1-1.7-.8,21.8,21.8,0,0,1-2.51-1.87C462.75,416.54,458.25,412.74,455,408.22Z"/><path class="cls-8" d="M405.23,416.79c.25-9.94,5.35-19.19,10.6-27.84.28.32.57.64.88.94a25.63,25.63,0,0,0,8,4.89c8.24,3.55,17.41,5.63,26.25,4.08l.41,2.33a26,26,0,0,0,3.66,7c-.58,6.71-3.74,13-6.84,19-1.2,2.32-2.64,4.85-5.14,5.57a6.14,6.14,0,0,1-1.11.19,12.69,12.69,0,0,1-3.51-.43q-13.61-3-27-6.87c-2-.56-4.09-1.26-5.19-3a7.57,7.57,0,0,1-.94-3.73Q405.2,417.9,405.23,416.79Z"/><path class="cls-7" d="M452.54,224.26a2.25,2.25,0,0,1,0,3.18,2,2,0,0,1-3-.64,1.68,1.68,0,0,1-.34-2.63A2.63,2.63,0,0,1,452.54,224.26Z"/><path class="cls-2" d="M441.9,433l.14,1.48c-3.47,2.5-5.43,7.32-9.56,8.65a13.71,13.71,0,0,1-4.19.43H405.7c-6.09,0-12.63-.13-17.6-3.65a24.12,24.12,0,0,1-6.77-8.27c-2.89-5.16-5-11.78-1.81-16.76,2.66-4.15,8.3-5.56,13.13-4.59s8.74,3.65,12.58,6.48q0,1.11,0,2.22a7.57,7.57,0,0,0,.94,3.73c1.1,1.72,3.22,2.42,5.19,3q13.38,3.86,27,6.87A12.69,12.69,0,0,0,441.9,433Z"/><path class="cls-7" d="M407,259.74l-.05.32c-21.49.35-21.25-2-31.26-4.58-3.26-.85-5.48-1-7.2-.37l-.54-.93q-4.62-19.47-9.25-38.93l.12-1.39c14.15,1.24,28.32,1.69,42.51,1.58V216c-4,6.62-8,13.52-9,21.18s1.53,16.32,8.15,20.32A17.92,17.92,0,0,0,407,259.74Zm-28.26-29.52c1.39-.35,1.94-2.53.74-3.3-.38-.56-2.61-1.31-3.12-.87a2,2,0,0,0-.6,1.85A2.64,2.64,0,0,0,378.74,230.22Z"/><path class="cls-8" d="M390.44,317l2.25-2.2c.3.36.62.73.94,1.09a18.23,18.23,0,0,0,4.24,3.85,12.8,12.8,0,0,0,4.7,1.44,234.9,234.9,0,0,0,2.11,27.66l-1.18.17c-3.58,6.07-8.81,11.31-15.3,14.07a24.8,24.8,0,0,1-12.11,1.88,20.46,20.46,0,0,1-8.27-2.58,18.26,18.26,0,0,1-9.19-15.56,15.59,15.59,0,0,1,.18-2.15c1.15-7.24,7.09-12.64,12.91-17.11q4.47-3.43,9.12-6.61C383.75,318.93,387,317,390.44,317Z"/><path class="cls-7" d="M379.48,226.92c1.2.77.65,3-.74,3.3a2.64,2.64,0,0,1-3-2.32,2,2,0,0,1,.6-1.85C376.87,225.61,379.1,226.36,379.48,226.92Z"/><path class="cls-7" d="M376.09,364.91l0,.27-18.13,1.17c-4.12.27-8.48.49-12.16-1.39-4.25-2.17-6.77-6.87-7.43-11.6-.67-4.91,1.05-10.77,5.68-12.56a9.77,9.77,0,0,1,7.86.74,21.19,21.19,0,0,1,6.15,5.22h.6a18.26,18.26,0,0,0,9.19,15.56A20.46,20.46,0,0,0,376.09,364.91Z"/><path class="cls-9" d="M352.76,189.1c76.58-4.94,98.22-3.19,146.81-4.61a14.3,14.3,0,0,1,3.74.4,22.59,22.59,0,0,1,8.82,4.71c3.34,2.78,5.41,7.53,4,11.57a6.44,6.44,0,0,1-.24.61c-1.61,3.6-5.35,5.27-9.37,6.13a45.12,45.12,0,0,1-5.06.75c-33.27,3.28-66.73,6.55-100.12,6.78-14.19.11-28.36-.34-42.51-1.58-1.16-.08-2.31-.19-3.46-.3-5.72-.55-11.77-1.36-16.24-5s-6.4-11-2.44-15.13a10.36,10.36,0,0,1,5.84-2.74c3-.58,6.59-.68,10.24-1.62"/><path class="cls-9" d="M342.52,190.75v0c-1.67-15.73,8.22-30.44,19.78-41.22a122.82,122.82,0,0,1,95-31.91c15.55,1.61,31.23,6.52,42.95,16.85s18.75,26.81,15.07,42"/><path class="cls-9" d="M503,185.32c.09-.15.17-.29.27-.43a17.5,17.5,0,0,1,12.09-8.11,18.68,18.68,0,0,1,6.79.05c7.61,1.42,13.68,9.47,11.93,17s-11.84,11.85-18,7.35a1.53,1.53,0,0,0-.16-.11"/><path class="cls-9" d="M422.92,257.66a31.28,31.28,0,0,0,14.63-12.44"/><path class="cls-9" d="M401.33,216c-4,6.62-8,13.52-9,21.18s1.53,16.32,8.15,20.32a17.92,17.92,0,0,0,6.53,2.28,26.9,26.9,0,0,0,3.58.32,30.65,30.65,0,0,0,12.32-2.4"/><path class="cls-9" d="M481.31,255.13l-3.17.15c-18.63.82-36.71-.37-55.22,2.38h0"/><path class="cls-9" d="M477.54,255.33l.6-.05c1-.08,2.1-.13,3.17-.15,6.93-.12,14.27,1.14,19.08,5.22a14.55,14.55,0,0,1,3.74,4.82c3.57,7.46-10.19,12.15-16.25,17.77L486.74,284c-5,4.67-10.53,9.93-16.33,13.68q-1.34.87-2.7,1.62c-6.83,3.76-4.25,9.24-9.93,14.57-3,2.86-6,6-9.86,7.6s-8.35,1.45-12.61,1.26l-29.16-1.34c-1.19,0-2.39-.11-3.58-.27a12.8,12.8,0,0,1-4.7-1.44,18.23,18.23,0,0,1-4.24-3.85c-.32-.36-.64-.73-.94-1.09-9.42-11.27-9.64-22.58-19.68-33.85-4.67-5.25-12.51-12.57-9.68-19,1.67-3.82,3-6,5.16-6.79,1.72-.67,3.94-.48,7.2.37,10,2.61,9.77,4.93,31.26,4.58"/><path class="cls-9" d="M358.7,215.25q4.62,19.47,9.25,38.93"/><path class="cls-9" d="M506.51,207.91c-1.4,7.33.54,15,6.84,19,1.46.93,3.15,1.44,4.54,2.44,3.6,2.6,4.23,8,2.32,12s-5.78,6.74-9.81,8.59c-3.85,1.76-8.08,6.06-9.4,10.08"/><path class="cls-9" d="M379.48,226.92c1.2.77.65,3-.74,3.3a2.64,2.64,0,0,1-3-2.32,2,2,0,0,1,.6-1.85C376.87,225.61,379.1,226.36,379.48,226.92Z"/><path class="cls-9" d="M449.59,226.8a1.68,1.68,0,0,1-.34-2.63,2.63,2.63,0,0,1,3.29.09,2.25,2.25,0,0,1,0,3.18A2,2,0,0,1,449.59,226.8Z"/><path class="cls-9" d="M474,298.14c3.75,6.9,8,14,11.89,21.28,5.71,10.71,10.66,21.83,12.2,33.28.65,4.81-2.67,12.34-6.78,14.85a13,13,0,0,0-4,4.41c-1.36,2.21-2.54,4.63-4.39,6.42-9.11,8.77-18.95,17.93-31.35,20.36l-.69.12c-8.84,1.55-18-.53-26.25-4.08a25.63,25.63,0,0,1-8-4.89c-.31-.3-.6-.62-.88-.94-3.13-3.58-4.58-8.39-5.79-13a233,233,0,0,1-7.47-54.79V321"/><path class="cls-9" d="M391.68,317a10.32,10.32,0,0,0-1.24-.08c-3.44,0-6.69,2-9.6,3.95q-4.65,3.18-9.12,6.61c-5.82,4.47-11.76,9.87-12.91,17.11a15.59,15.59,0,0,0-.18,2.15,18.26,18.26,0,0,0,9.19,15.56,20.46,20.46,0,0,0,8.27,2.58A24.8,24.8,0,0,0,388.2,363c6.49-2.76,11.72-8,15.3-14.07"/><path class="cls-9" d="M376.06,365.18l-18.13,1.17c-4.12.27-8.48.49-12.16-1.39-4.25-2.17-6.77-6.87-7.43-11.6-.67-4.91,1.05-10.77,5.68-12.56a9.77,9.77,0,0,1,7.86.74,21.19,21.19,0,0,1,6.15,5.22"/><path class="cls-9" d="M490.14,285.74A59.8,59.8,0,0,1,530,271.16c.8,0,1.58,0,2.37.08a12.08,12.08,0,0,1,5.12,1.13c2.32,1.25,3.7,3.74,4.48,6.25a20.26,20.26,0,0,1,.69,8.37,20.56,20.56,0,0,1-4.95,11.12c-4.2,4.71-10.29,7.2-16.15,9.53L505.62,314c-3.59,1.43-7.17,2.86-10.77,4.28-2.86,1.13-6.06,2.28-8.92,1.18h0"/><path class="cls-9" d="M530,271c-.58-3.24.82-6.5,2.52-9.32,2.21-3.64,6-7.29,10.16-6.25,3.66.92,5.43,5,6.7,8.52,1.79,5.06,3.55,10.84,1,15.59a15.55,15.55,0,0,1-3,3.71A39.73,39.73,0,0,1,543,287"/><path class="cls-9" d="M451.33,401.19a26,26,0,0,0,3.66,7c3.26,4.52,7.76,8.32,12.12,11.91a21.8,21.8,0,0,0,2.51,1.87,8.8,8.8,0,0,0,1.7.8c3.09,1,6.42-.31,9.41-1.61,4.88-2.12,10.12-4.55,12.63-9.25a18.14,18.14,0,0,0,1.81-6.69c0-.27.06-.53.08-.8A52.61,52.61,0,0,0,487.43,372"/><path class="cls-9" d="M455.09,406.34c0,.63,0,1.26-.1,1.88-.58,6.71-3.74,13-6.84,19-1.2,2.32-2.64,4.85-5.14,5.57a6.14,6.14,0,0,1-1.11.19,12.69,12.69,0,0,1-3.51-.43q-13.61-3-27-6.87c-2-.56-4.09-1.26-5.19-3a7.57,7.57,0,0,1-.94-3.73q-.06-1.11,0-2.22c.25-9.94,5.35-19.19,10.6-27.84l1-1.66"/><path class="cls-9" d="M443.64,433.59a8.7,8.7,0,0,0-1.6.91c-3.47,2.5-5.43,7.32-9.56,8.65a13.71,13.71,0,0,1-4.19.43H405.7c-6.09,0-12.63-.13-17.6-3.65a24.12,24.12,0,0,1-6.77-8.27c-2.89-5.16-5-11.78-1.81-16.76,2.66-4.15,8.3-5.56,13.13-4.59s8.74,3.65,12.58,6.48l.43.31"/><path class="cls-9" d="M496,405.33q1,9.75,2.09,19.47A2.56,2.56,0,0,1,498,426a2.33,2.33,0,0,1-1.09,1L476.7,439c-2.73,1.61-5.54,3.26-8.67,3.7-2.12.31-4.51-.06-6-1.65a7,7,0,0,1-1.4-2.54,12.14,12.14,0,0,1,.6-10,8.6,8.6,0,0,1,7.17-4.31,6.39,6.39,0,0,1,1.5.17"/><path class="cls-9" d="M436.32,332a5,5,0,0,1,4.75,1.51,3.48,3.48,0,0,1,1,2.32c0,1.51-1.33,2.71-2.69,3.4a5.82,5.82,0,0,1-2.33.69,4,4,0,0,1-1-7.86"/><path class="cls-9" d="M438.75,348.9a5,5,0,0,1,5.14,3.53,4.78,4.78,0,0,1-2.75,5.53,4.58,4.58,0,0,1-5.67-2.33,7.23,7.23,0,0,1-.35-3.58,5.07,5.07,0,0,1,.62-2.23,2.27,2.27,0,0,1,1.21-1,1.51,1.51,0,0,1,.73-.07"/><path class="cls-9" d="M438.49,368.94h.26c2.15-.11,4.54-.06,6,1.5a4.19,4.19,0,0,1,.93,3.94,5,5,0,0,1-2.7,3.11,4,4,0,0,1-4-.2,5.22,5.22,0,0,1-1.3-1.64,7,7,0,0,1-1.22-4.33,3.27,3.27,0,0,1,2.26-2.72,2.44,2.44,0,0,1,.81,0"/><path class="cls-9" d="M490.82,284.24c-.17.26-.33.54-.48.8s-.22.43-.31.64c-2.51,5.38-.78,12.21,2.82,17.08,3.38,4.58,8.11,7.88,12.77,11.2.76.54,1.51,1.08,2.25,1.63a128.4,128.4,0,0,1,19.67,17.82"/><path class="cls-9" d="M525.21,338.65c1.64-4.26,4.57-9.36,9.12-8.82,2.64.31,4.59,2.53,6.81,4,4.55,3,10.59,3,15.78,1.29s9.77-4.84,14.36-7.78c9.5-6.07,20.13-11.61,31.38-11s22.73,9.63,22.12,20.88c-.56,10.32-10.17,17.52-19.06,22.77-9.51,5.63-20,11-31,10a29.31,29.31,0,0,1-20.53-11.36c-3.18-4.21-5.56-9.59-10.45-11.55-3.58-1.44-7.63-.66-11.44-1.19s-7.89-3.56-7.13-7.27a.43.43,0,0,1,0-.11"/><path class="cls-6" d="M13.28,202.26c-8.89-1.53-14,12.09-8.46,19.16,5,6.31,13.85,7.65,22,6.56-.83-4.48,1.47-9.09,5.06-12.21l-1.15-.15a11.7,11.7,0,0,1-2.78-1.51l-.1-.06-.14-.1a23.11,23.11,0,0,1-6.38-6.43C19,205,16.56,202.82,13.28,202.26Z"/><path class="cls-8" d="M193.27,230.83l.09-.82c.76-34.45-20.56-68-51.38-83.41S72.46,133.87,43.15,152c-11.31,7-21.73,16.77-25.55,29.5a31.69,31.69,0,0,0,3.71,26c2.06,2.22,4,4.69,6.38,6.43l.14.1.1.06a23.25,23.25,0,0,0,2.78,1.51l1.15.15a16.54,16.54,0,0,1,4.25-2.7c6.23-2.7,13.31-1.34,20.1-1.51,49.35-1.2,98.7,6.13,136.93,19.54C193.9,231.11,194.74,231.12,193.27,230.83Z"/><path class="cls-7" d="M23.68,249.94c-4.94,6.17-8.86,16.63-2.09,20.71,3.58,2.15,8.41.93,12.11,2.87a27.94,27.94,0,0,1,7.56,5.21,11.08,11.08,0,0,0,2.32,1.52,6.57,6.57,0,0,1,2.05.94A44.38,44.38,0,0,0,56,284.1c18.36,1.91,32.35,4.81,51.81,15.57a28,28,0,0,0,7.74,2.83l2-13.06A33.44,33.44,0,0,1,92.92,271.7l-5.38-13.64a3.14,3.14,0,0,1-1.18.23,3.2,3.2,0,1,1,0-6.39l.33,0,1.84-15.08-59.65-7.29C33.55,235.18,28.44,244,23.68,249.94Z"/><path class="cls-6" d="M28.89,229.55l59.65,7.29,35.67,4.36,34.21,4.18c10.66,1.3,17,1.47,22.73-1.31,4.37-2.13,8.34-6,13.55-12.42-3.23-.54-2.46-.55-1.56-.55-38.23-13.41-87.58-20.74-136.93-19.54-6.79.17-13.87-1.19-20.1,1.51a16.54,16.54,0,0,0-4.25,2.7C28.27,218.89,26,223.5,26.8,228a9.53,9.53,0,0,0,.34,1.35Z"/><path class="cls-6" d="M170.05,279.48c-.13-.14-.26-.25-.39-.37-9,9.37-18.8,19.17-31.46,22.26-7.25,1.76-15.33,2.68-22.65,1.13a28,28,0,0,1-7.74-2.83C88.35,288.91,74.36,286,56,284.1a44.38,44.38,0,0,1-10.37-2.91c-.73-.3-1.42-.62-2.05-.94-6.93-1.87-17.23,6.52-14.57,13.35a16.37,16.37,0,0,0,5.05,6.23c7.9,6.64,17.38,10.78,27,14.76s19.42,7.81,27.86,13.83c9.24,6.58,16.83,15.76,27.31,20.11a35.6,35.6,0,0,0,14.22,2.64,42.81,42.81,0,0,0,22.83-7.25c10.77-7.23,18.16-18.81,21.93-31.21C178.64,301.4,178.61,287.53,170.05,279.48Z"/><path class="cls-8" d="M70.94,400.81c2.87-2.59,4.33-7,5.27-11a11,11,0,0,1,8.71,2.46c2.31,2.17,3.18,6,1.44,8.64-1.53,2.35-4.63,3.27-7.41,3s-5.36-1.6-7.86-2.88Zm43.65-18.31,1,.29a154.05,154.05,0,0,0,2.76,18.87,4.11,4.11,0,0,0,.64,1.75c.91,1.21,2.71,1.14,4.22,1a3.48,3.48,0,0,0,1.27-.35,1.34,1.34,0,0,0,.34-.26,2.59,2.59,0,0,0,.46-1.47c1.33-14.63,3.67-34.47,5-49.1l.18-2a35.6,35.6,0,0,1-14.22-2.64C105.73,344.18,98.14,335,88.9,328.42c-8.44-6-18.21-9.84-27.86-13.83l-1.29,3.12c-6.9,5.62-10,14.71-12.35,23.36a268.67,268.67,0,0,0-7.65,41c-.3,2.89-.56,5.87.31,8.65,1.64,5.31,6.57,8.23,12.09,10l-.7,2.12a25.48,25.48,0,0,0-3.32,10.89,4.64,4.64,0,0,0,.34,2.53c.62,1.21,2,1.72,3.33,2.14l5.54,1.77-.13,1.1,20.51,2.2,4.25.46a20.11,20.11,0,0,0,6.29,0,11.67,11.67,0,0,0,3.06-1.11A22.83,22.83,0,0,0,98.5,416C106,406,110.86,394.48,114.59,382.5ZM89.08,377a3.2,3.2,0,0,1-.35-2.5,6.24,6.24,0,0,1,7.37-4.56l.69.71a3.14,3.14,0,0,1,1.68,1.73,5,5,0,0,1,.11,4.81A4.39,4.39,0,0,1,95.07,379a10.3,10.3,0,0,1-4-.8A4.08,4.08,0,0,1,89.08,377Zm3.81-20.9a5.87,5.87,0,0,1,2.13-4.4,4.57,4.57,0,0,1,4.73-.6l.54.67a4.91,4.91,0,0,1,0,6.08,4.74,4.74,0,0,1-6,.94A3.08,3.08,0,0,1,93,357.27,3.73,3.73,0,0,1,92.89,356.07Z"/><path class="cls-2" d="M37,439.18c-.51,4.92-1,9.83-1.54,14.76a23.82,23.82,0,0,0-.13,5.4,1.93,1.93,0,0,0,.46,1.16A2,2,0,0,0,37,461l5.2.79c1.95.3,4.12.54,5.74-.59a6.06,6.06,0,0,0,2.12-3.53,17.53,17.53,0,0,0,.23-7c-.47-3.42-1.56-6.88-2.1-10.31a8.11,8.11,0,0,1,.18-4.21c.05-.1.1-.21.16-.31a42.16,42.16,0,0,0-9.32.83,2.81,2.81,0,0,0-1.6.69A3,3,0,0,0,37,439.18Z"/><path class="cls-8" d="M57.21,421.24l.13-1.1-5.54-1.77-3.86,0a42.6,42.6,0,0,0,2,6.27q1.65,4.38,3.28,8.79,2.85,7.57,5.67,15.15,2.7,7.19,5.37,14.36a3.71,3.71,0,0,0,.77,1.37,2.42,2.42,0,0,0,1.5.6,8.83,8.83,0,0,0,1.15,0c2.62-.11,5.38-.25,7.61-1.65,2.94-1.86,4-5.23,4.32-8.84a37.19,37.19,0,0,0-.11-6.07L78.94,442q-.7-8.4-1.41-16.8l.19-1.75Z"/><path class="cls-8" d="M48.57,435.84c-.06.1-.11.21-.16.31a8.11,8.11,0,0,0-.18,4.21c.54,3.43,1.63,6.89,2.1,10.31l1.05-.16,5.69-1.22,1.8-.67Q56.05,441,53.2,433.47l-1.46.55A3.14,3.14,0,0,0,48.57,435.84Z"/><path class="cls-10" d="M86.37,251.9a3.2,3.2,0,1,0,0,6.39,3.14,3.14,0,0,0,1.18-.23,3.19,3.19,0,0,0-.84-6.14Z"/><path class="cls-2" d="M64.09,465.6c-1.05,2.63.82,5.7,3.36,6.94s5.51,1.13,8.34.87c8.26-.75,16.79-2.58,23.32-7.74,2.89-2.28,5.47-5.78,4.63-9.38a9.18,9.18,0,0,0-3.57-4.9,15.51,15.51,0,0,0-12.73-3.22,11.59,11.59,0,0,0-7.85,6.31c-.28,3.61-1.38,7-4.32,8.84-2.23,1.4-5,1.54-7.61,1.65a8.83,8.83,0,0,1-1.15,0Z"/><path class="cls-7" d="M70.94,400.81l.15.16c2.5,1.28,5.07,2.58,7.86,2.88s5.88-.63,7.41-3c1.74-2.65.87-6.47-1.44-8.64a11,11,0,0,0-8.71-2.46C75.27,393.85,73.81,398.22,70.94,400.81Z"/><path class="cls-7" d="M88.54,236.84,86.7,251.92a3.19,3.19,0,0,1,.84,6.14l5.38,13.64a33.44,33.44,0,0,0,24.62,17.74c.54.09,1.08.15,1.62.21,5.79.55,12.23-.77,15.86-5.3,2.63-3.28,3.36-7.69,3.51-11.9.39-11.77-4.1-24.63-14.44-30.26l.12-1Z"/><path class="cls-8" d="M77.72,423.44l-.19,1.75q.69,8.4,1.41,16.8l2.21-.18a73.45,73.45,0,0,0,11.23-17.57l-1.06-1.43a11.67,11.67,0,0,1-3.06,1.11,20.11,20.11,0,0,1-6.29,0Z"/><path class="cls-11" d="M88.73,374.47a3.2,3.2,0,0,0,.35,2.5,4.08,4.08,0,0,0,2,1.22,10.3,10.3,0,0,0,4,.8,4.39,4.39,0,0,0,3.51-1.83,5,5,0,0,0-.11-4.81,3.14,3.14,0,0,0-1.68-1.73l-.69-.71A6.24,6.24,0,0,0,88.73,374.47Z"/><path class="cls-11" d="M95,351.67a5.87,5.87,0,0,0-2.13,4.4,3.73,3.73,0,0,0,.14,1.2,3.08,3.08,0,0,0,1.27,1.49,4.74,4.74,0,0,0,6-.94,4.91,4.91,0,0,0,0-6.08l-.54-.67A4.57,4.57,0,0,0,95,351.67Z"/><path class="cls-7" d="M117.54,289.44l-2,13.06c7.32,1.55,15.4.63,22.65-1.13,12.66-3.09,22.42-12.89,31.46-22.26.13.12.26.23.39.37q6.39-15.6,12.78-31.24l-1.68-4.17c-5.69,2.78-12.07,2.61-22.73,1.31l-34.21-4.18-.12,1c10.34,5.63,14.83,18.49,14.44,30.26-.15,4.21-.88,8.62-3.51,11.9-3.63,4.53-10.07,5.85-15.86,5.3C118.62,289.59,118.08,289.53,117.54,289.44Zm30.49-30a3.2,3.2,0,1,1,3.2,3.19A3.19,3.19,0,0,1,148,259.42Z"/><path class="cls-10" d="M151.23,256.23a3.19,3.19,0,1,0,3.19,3.19A3.19,3.19,0,0,0,151.23,256.23Z"/><path class="cls-6" d="M193.14,231.1c-.9,0-1.67,0,1.56.55Z"/><path class="cls-12" d="M194.7,231.65l-1.56-.55c-38.23-13.41-87.58-20.74-136.93-19.54-6.79.17-13.87-1.19-20.1,1.51a16.54,16.54,0,0,0-4.25,2.7C28.27,218.89,26,223.5,26.8,228a9.53,9.53,0,0,0,.34,1.35l1.75.22,59.65,7.29,35.67,4.36,34.21,4.18c10.66,1.3,17,1.47,22.73-1.31,4.37-2.13,8.34-6,13.55-12.42-3.23-.54-2.46-.55-1.56-.55s1.6,0,.13-.27l-1.52-.27"/><path class="cls-12" d="M27.69,214c-2.36-1.74-4.32-4.21-6.38-6.43-2.32-2.49-4.75-4.7-8-5.26-8.89-1.53-14,12.09-8.46,19.16,5,6.31,13.85,7.65,22,6.56,1-.12,2-.29,2.95-.5"/><path class="cls-12" d="M27.93,214.11a23.25,23.25,0,0,0,2.78,1.51,11.7,11.7,0,0,1-2.78-1.51"/><path class="cls-12" d="M27.93,214.11l-.1-.06-.14-.1"/><path class="cls-12" d="M193.36,230c.76-34.45-20.56-68-51.38-83.41S72.46,133.87,43.15,152c-11.31,7-21.73,16.77-25.55,29.5a31.69,31.69,0,0,0,3.71,26A23.11,23.11,0,0,0,27.69,214"/><path class="cls-12" d="M182.83,248.24q-6.39,15.61-12.78,31.24c-.11.27-.22.53-.32.8"/><path class="cls-12" d="M124.09,242.19c10.34,5.63,14.83,18.49,14.44,30.26-.15,4.21-.88,8.62-3.51,11.9-3.63,4.53-10.07,5.85-15.86,5.3-.54-.06-1.08-.12-1.62-.21A33.44,33.44,0,0,1,92.92,271.7"/><path class="cls-12" d="M28.34,228.94a7.76,7.76,0,0,1,.55.61c4.66,5.63-.45,14.45-5.21,20.39-4.94,6.17-8.86,16.63-2.09,20.71,3.58,2.15,8.41.93,12.11,2.87a27.94,27.94,0,0,1,7.56,5.21,11.08,11.08,0,0,0,2.32,1.52c.63.32,1.32.64,2.05.94A44.38,44.38,0,0,0,56,284.1c18.36,1.91,32.35,4.81,51.81,15.57a28,28,0,0,0,7.74,2.83c7.32,1.55,15.4.63,22.65-1.13,12.66-3.09,22.42-12.89,31.46-22.26.13.12.26.23.39.37,8.56,8,8.59,21.92,5.14,33.23-3.77,12.4-11.16,24-21.93,31.21a42.81,42.81,0,0,1-22.83,7.25,35.6,35.6,0,0,1-14.22-2.64C105.73,344.18,98.14,335,88.9,328.42c-8.44-6-18.21-9.84-27.86-13.83s-19.08-8.12-27-14.76A16.37,16.37,0,0,1,29,293.6c-2.66-6.83,7.64-15.22,14.57-13.35a6.57,6.57,0,0,1,2.05.94"/><path class="cls-12" d="M56.88,421.21l.33,0,20.51,2.2,4.25.46a20.11,20.11,0,0,0,6.29,0,11.67,11.67,0,0,0,3.06-1.11A22.83,22.83,0,0,0,98.5,416c7.47-10,12.36-21.49,16.09-33.47,2.84-9.11,5-18.51,7.09-27.77"/><path class="cls-12" d="M60.43,317.18l-.68.53c-6.9,5.62-10,14.71-12.35,23.36a268.67,268.67,0,0,0-7.65,41c-.3,2.89-.56,5.87.31,8.65,1.64,5.31,6.57,8.23,12.09,10a62.19,62.19,0,0,0,7.69,1.85c2.57.47,5.26.93,7.75.18a8.7,8.7,0,0,0,3.35-1.91c2.87-2.59,4.33-7,5.27-11,.09-.39.18-.77.26-1.15l-14-3.81a1.95,1.95,0,0,1-1.78-2.51,179.07,179.07,0,0,1,3.41-25.06"/><path class="cls-12" d="M76,389.79l.18,0a11,11,0,0,1,8.71,2.46c2.31,2.17,3.18,6,1.44,8.64-1.53,2.35-4.63,3.27-7.41,3s-5.36-1.6-7.86-2.88"/><path class="cls-12" d="M51.82,402.19l-.37.62a25.48,25.48,0,0,0-3.32,10.89,4.64,4.64,0,0,0,.34,2.53c.62,1.21,2,1.72,3.33,2.14l5.54,1.77"/><path class="cls-12" d="M47.94,418.41a42.6,42.6,0,0,0,2,6.27q1.65,4.38,3.28,8.79,2.85,7.57,5.67,15.15,2.7,7.19,5.37,14.36a3.71,3.71,0,0,0,.77,1.37,2.42,2.42,0,0,0,1.5.6,8.83,8.83,0,0,0,1.15,0c2.62-.11,5.38-.25,7.61-1.65,2.94-1.86,4-5.23,4.32-8.84a37.19,37.19,0,0,0-.11-6.07L78.94,442q-.7-8.4-1.41-16.8"/><path class="cls-12" d="M78.78,457.48a9.08,9.08,0,0,1,.81-3,11.59,11.59,0,0,1,7.85-6.31,15.51,15.51,0,0,1,12.73,3.22,9.18,9.18,0,0,1,3.57,4.9c.84,3.6-1.74,7.1-4.63,9.38-6.53,5.16-15.06,7-23.32,7.74-2.83.26-5.8.38-8.34-.87s-4.41-4.31-3.36-6.94"/><path class="cls-12" d="M92.38,424.24a73.45,73.45,0,0,1-11.23,17.57"/><path class="cls-12" d="M130.25,353.19c-1.33,14.63-3.67,34.47-5,49.1a2.59,2.59,0,0,1-.46,1.47,1.34,1.34,0,0,1-.34.26,3.48,3.48,0,0,1-1.27.35c-1.51.18-3.31.25-4.22-1a4.11,4.11,0,0,1-.64-1.75,154.05,154.05,0,0,1-2.76-18.87"/><path class="cls-12" d="M124.76,404.81c.61,2.93,2.23,7.09,1.42,10s-3.36,5.47-6.35,5.35a2.11,2.11,0,0,1-1.33-.44,2.61,2.61,0,0,1-.64-1.26c-1.16-4.31.08-10.68,1.1-15"/><path class="cls-12" d="M99.75,351.07a4.57,4.57,0,0,0-4.73.6,5.87,5.87,0,0,0-2.13,4.4,3.73,3.73,0,0,0,.14,1.2,3.08,3.08,0,0,0,1.27,1.49,4.74,4.74,0,0,0,6-.94,4.91,4.91,0,0,0,0-6.08"/><path class="cls-12" d="M96.1,369.91a6.24,6.24,0,0,0-7.37,4.56,3.2,3.2,0,0,0,.35,2.5,4.08,4.08,0,0,0,2,1.22,10.3,10.3,0,0,0,4,.8,4.39,4.39,0,0,0,3.51-1.83,5,5,0,0,0-.11-4.81,3.14,3.14,0,0,0-1.68-1.73"/><path class="cls-12" d="M57.07,449.29l-5.69,1.22"/><path class="cls-12" d="M51.74,434a3.14,3.14,0,0,0-3.17,1.82c-.06.1-.11.21-.16.31a8.11,8.11,0,0,0-.18,4.21c.54,3.43,1.63,6.89,2.1,10.31a17.53,17.53,0,0,1-.23,7A6.06,6.06,0,0,1,48,461.16c-1.62,1.13-3.79.89-5.74.59L37,461a2,2,0,0,1-1.21-.46,1.93,1.93,0,0,1-.46-1.16,23.82,23.82,0,0,1,.13-5.4c.52-4.93,1-9.84,1.54-14.76a3,3,0,0,1,.61-1.82,2.81,2.81,0,0,1,1.6-.69,42.16,42.16,0,0,1,9.32-.83l.87,0"/><rect class="cls-7" x="375.07" y="609.95" width="10.46" height="31.93"/><path class="cls-6" d="M478.87,377.37c9-.62,12.75,13.45,6.48,19.92-5.58,5.77-14.56,6.2-22.53,4.29,1.28-4.37-.54-9.19-3.8-12.66l1.16,0a11.88,11.88,0,0,0,2.92-1.22l.1-.05.15-.09a23.09,23.09,0,0,0,7-5.74C472.91,379.54,475.56,377.59,478.87,377.37Z"/><path class="cls-8" d="M476.68,356.27a31.68,31.68,0,0,1-6.33,25.52c-2.27,2-4.47,4.25-7,5.74l-.15.09-.1.05a22.75,22.75,0,0,1-2.92,1.22l-1.16,0a16.63,16.63,0,0,0-3.95-3.11c-5.93-3.32-13.06-3.5-19.85-3.55q-68.43-.47-136.71,5.66l-.05-.51-1.5.1,0-.81c2.74-34.35,27.35-65.56,59.58-77.76s70.45-5.61,97.77,15.39C464.8,332.44,474.18,343.21,476.68,356.27Z"/><path class="cls-7" d="M366.31,453.52c-.55,0-1.09,0-1.64,0-5.81,0-12.08-2-15.24-6.88-2.28-3.53-2.56-8-2.28-12.19.81-11.75,6.58-24.09,17.44-28.64l0-1,96-1.92c-5.21,5.13-1,14.42,3.11,20.82,4.29,6.64,7.13,17.44,0,20.81-3.78,1.78-8.46.07-12.34,1.63a27.83,27.83,0,0,0-8.05,4.41,10.92,10.92,0,0,1-2.46,1.28,6.54,6.54,0,0,0-2.14.73,44.47,44.47,0,0,1-10.61,1.84c-18.46,0-32.67,1.5-53.12,10.23a27.79,27.79,0,0,1-8,2Z"/><path class="cls-6" d="M298.51,387.92q68.17-6.14,136.71-5.66c6.79.05,13.92.23,19.85,3.55a16.63,16.63,0,0,1,3.95,3.11c3.26,3.47,5.08,8.29,3.8,12.66a10.86,10.86,0,0,1-.48,1.31l-1.76,0-96,1.92-34.46.69a131.44,131.44,0,0,1-24.29-1.33c-11.23-1.88-21.43-6.19-27.53-15.51L297,387.51l1.5-.1Z"/><path class="cls-6" d="M315.08,438.28c.14-.12.28-.22.43-.33,8,10.24,16.75,21,29,25.34,7,2.49,15,4.22,22.42,3.42a27.79,27.79,0,0,0,8-2c20.45-8.73,34.66-10.19,53.12-10.23a44.47,44.47,0,0,0,10.61-1.84c.76-.23,1.48-.47,2.14-.73,7.08-1.16,16.48,8.24,13.14,14.76a16.4,16.4,0,0,1-5.66,5.69c-10.6,7.21-23.23,10.33-35.58,14.11-7.57,2.31-15,4.87-21.88,8.76-9.86,5.61-18.34,14-29.21,17.24-.66.2-1.32.38-2,.53-11.9,2.79-25-1-34.41-8.88-10-8.28-16.15-20.55-18.65-33.27C304.31,459.22,305.75,445.42,315.08,438.28Z"/><path class="cls-7" d="M365.73,564.19a29.92,29.92,0,0,1-6.38,4.41,1.05,1.05,0,0,1-.74.15c-.45-.14-.64-.78-.56-1.29,3-17.29,4.69-32.34,2.09-52.47l-.49-2c.66-.15,1.32-.33,2-.53,10.87-3.27,19.35-11.63,29.21-17.24,6.84-3.89,14.31-6.45,21.88-8.76,5.17,0,10.63,1.78,12.79,6.95s2.5,11,2.89,16.67q1.32,19.34,4.09,38.51a36.93,36.93,0,0,0,2.09,8.95c1.53,3.67,4.24,7.75,2.44,11.26a17.13,17.13,0,0,1-9.69-4.82l-.92.42-58.3-.09h-2.28Z"/><path class="cls-6" d="M373.25,608.25A6.69,6.69,0,0,1,370,607c-1.84-1.53-2-4.46-2-7q.06-17.87.1-35.73l58.3.09A261.93,261.93,0,0,1,429,609l-5.43,1q-7.56,1.3-15.11,2.64l-1.34.23a5.15,5.15,0,0,1-3.34-.18c-1.63-.88-2.05-3.15-2.57-5.07-.81-3-2.48-6-5.12-7.14s-6.27.23-6.92,3.28c-.36,1.67.15,3.61-.74,5-1,1.66-3.26,1.53-5.07,1.23l-9.85-1.66Z"/><path class="cls-2" d="M427.16,646.11a14.49,14.49,0,0,1,.35,7.08,3.1,3.1,0,0,1-.5,1.35,2.67,2.67,0,0,1-1.35.73,36.06,36.06,0,0,1-23.57-1.21,2.82,2.82,0,0,1-1.21-.77,2.62,2.62,0,0,1-.5-1.17,7,7,0,0,1,2.45-6.38,14.24,14.24,0,0,1,6.08-2.75c.9-.22,1.81-.42,2.72-.6a53,53,0,0,1,12.06-.94A8.68,8.68,0,0,1,427.16,646.11Z"/><path class="cls-7" d="M423.2,640.46l-.28.57a5.75,5.75,0,0,1,.77.42,53,53,0,0,0-12.06.94,125.72,125.72,0,0,1-2.75-27.32l-.44-2.49q7.55-1.33,15.11-2.64l.4,2.29q0,13.57,0,27.15a1.34,1.34,0,0,1-.31,1.07A.39.39,0,0,1,423.2,640.46Z"/><path class="cls-2" d="M374.91,640.63a39.63,39.63,0,0,1,5.82,2.09,68.49,68.49,0,0,1,6.95,3.74c-10.44,7.36-23.74,7.45-36.2,7.26-2.51,0-5.48-.36-6.72-2.76a5.71,5.71,0,0,1,.92-5.91,11.39,11.39,0,0,1,5-3.2A39.12,39.12,0,0,1,374.91,640.63Z"/><path class="cls-7" d="M366.31,453.52l.65,13.19c-7.44.8-15.38-.93-22.42-3.42-12.28-4.36-21-15.1-29-25.34-.15.11-.29.21-.43.33q-4.77-16.17-9.55-32.37l.29-1.7a131.44,131.44,0,0,0,24.29,1.33l34.46-.69,0,1c-10.86,4.55-16.63,16.89-17.44,28.64-.28,4.2,0,8.66,2.28,12.19,3.16,4.88,9.43,6.84,15.24,6.88C365.22,453.56,365.76,453.55,366.31,453.52Z"/><path class="cls-12" d="M295.41,388.2c1-.1,2.07-.19,3.1-.27h0q68.17-6.14,136.71-5.66c6.79.05,13.92.23,19.85,3.55a16.63,16.63,0,0,1,3.95,3.11c3.26,3.47,5.08,8.29,3.8,12.66a10.86,10.86,0,0,1-.48,1.31l-1.76,0-96,1.92-34.46.69a131.44,131.44,0,0,1-24.29-1.33c-11.23-1.88-21.43-6.19-27.53-15.51L297,387.51l1.5-.1"/><path class="cls-12" d="M463.35,387.53c2.53-1.49,4.73-3.74,7-5.74,2.56-2.25,5.21-4.2,8.52-4.42,9-.62,12.75,13.45,6.48,19.92-5.58,5.77-14.56,6.2-22.53,4.29-1-.22-1.95-.49-2.89-.79"/><path class="cls-12" d="M463.1,387.67a22.75,22.75,0,0,1-2.92,1.22,11.88,11.88,0,0,0,2.92-1.22"/><path class="cls-12" d="M463.1,387.67l.1-.05.15-.09"/><path class="cls-12" d="M296.91,386.7c2.74-34.35,27.35-65.56,59.58-77.76s70.45-5.61,97.77,15.39c10.54,8.11,19.92,18.88,22.42,31.94a31.68,31.68,0,0,1-6.33,25.52,23.09,23.09,0,0,1-7,5.74"/><path class="cls-12" d="M305.53,405.91q4.79,16.18,9.55,32.37l.24.83"/><path class="cls-12" d="M364.59,405.85c-10.86,4.55-16.63,16.89-17.44,28.64-.28,4.2,0,8.66,2.28,12.19,3.16,4.88,9.43,6.84,15.24,6.88.55,0,1.09,0,1.64,0a33.45,33.45,0,0,0,26.29-15.15"/><path class="cls-12" d="M461.19,402.38a8.18,8.18,0,0,0-.61.55c-5.21,5.13-1,14.42,3.11,20.82,4.29,6.64,7.13,17.44,0,20.81-3.78,1.78-8.46.07-12.34,1.63a27.83,27.83,0,0,0-8.05,4.41,10.92,10.92,0,0,1-2.46,1.28c-.66.26-1.38.5-2.14.73a44.47,44.47,0,0,1-10.61,1.84c-18.46,0-32.67,1.5-53.12,10.23a27.79,27.79,0,0,1-8,2c-7.44.8-15.38-.93-22.42-3.42-12.28-4.36-21-15.1-29-25.34-.15.11-.29.21-.43.33-9.33,7.14-10.77,20.94-8.49,32.54,2.5,12.72,8.67,25,18.65,33.27,9.45,7.84,22.51,11.67,34.41,8.88.66-.15,1.32-.33,2-.53,10.87-3.27,19.35-11.63,29.21-17.24,6.84-3.89,14.31-6.45,21.88-8.76,12.35-3.78,25-6.9,35.58-14.11a16.4,16.4,0,0,0,5.66-5.69c3.34-6.52-6.06-15.92-13.14-14.76a6.54,6.54,0,0,0-2.14.73"/><path class="cls-12" d="M369.75,533.26c-.52,9.53,0,18.4-2.67,28.55"/><path class="cls-12" d="M421.32,530.68a110.55,110.55,0,0,0,3.9,30.8c.14.53.28,1.06.43,1.6"/><path class="cls-12" d="M365.83,564.29h2.28l58.3.09A261.93,261.93,0,0,1,429,609l-5.43,1q-7.56,1.3-15.11,2.64l-1.34.23a5.15,5.15,0,0,1-3.34-.18c-1.63-.88-2.05-3.15-2.57-5.07-.81-3-2.48-6-5.12-7.14s-6.27.23-6.92,3.28c-.36,1.67.15,3.61-.74,5-1,1.66-3.26,1.53-5.07,1.23l-9.85-1.66-.24,0A6.69,6.69,0,0,1,370,607c-1.84-1.53-2-4.46-2-7q.06-17.87.1-35.73c0-.82,0-1.63,0-2.45"/><path class="cls-12" d="M387.2,611.09q0,16.71,0,33.41c0,.35-.05.79-.36.9s-.43-.62-.13-.51"/><path class="cls-12" d="M373.25,608.24h0a208.59,208.59,0,0,0,1.66,32.38c0,.42.1.84.16,1.26"/><path class="cls-12" d="M408.88,615.07a125.72,125.72,0,0,0,2.75,27.32"/><path class="cls-12" d="M424,612.23q0,13.57,0,27.15a1.34,1.34,0,0,1-.31,1.07.39.39,0,0,1-.46,0A.33.33,0,0,1,423,640"/><path class="cls-12" d="M388.68,647.05c-.33-.2-.66-.4-1-.59a68.49,68.49,0,0,0-6.95-3.74,39.63,39.63,0,0,0-5.82-2.09,39.12,39.12,0,0,0-24.26,1.22,11.39,11.39,0,0,0-5,3.2,5.71,5.71,0,0,0-.92,5.91c1.24,2.4,4.21,2.73,6.72,2.76,12.46.19,25.76.1,36.2-7.26.2-.13.4-.28.59-.42"/><path class="cls-12" d="M423.69,641.45a53,53,0,0,0-12.06.94c-.91.18-1.82.38-2.72.6a14.24,14.24,0,0,0-6.08,2.75,7,7,0,0,0-2.45,6.38,2.62,2.62,0,0,0,.5,1.17,2.82,2.82,0,0,0,1.21.77,36.06,36.06,0,0,0,23.57,1.21,2.67,2.67,0,0,0,1.35-.73,3.1,3.1,0,0,0,.5-1.35,14.49,14.49,0,0,0-.35-7.08,8.68,8.68,0,0,0-3.47-4.66,5.75,5.75,0,0,0-.77-.42l-.07,0"/><path class="cls-12" d="M412.72,486.44c5.17,0,10.63,1.78,12.79,6.95s2.5,11,2.89,16.67q1.32,19.34,4.09,38.51a36.93,36.93,0,0,0,2.09,8.95c1.53,3.67,4.24,7.75,2.44,11.26a17.13,17.13,0,0,1-9.69-4.82,17.94,17.94,0,0,1-2.11-2.48c-.11-.14-.21-.29-.31-.44"/><path class="cls-12" d="M360.14,515c2.6,20.13.87,35.18-2.09,52.47-.08.51.11,1.15.56,1.29a1.05,1.05,0,0,0,.74-.15,29.92,29.92,0,0,0,6.38-4.41c.63-.57,1.24-1.16,1.82-1.78"/><circle class="cls-10" cx="401.09" cy="418.71" r="2.25"/><circle class="cls-10" cx="403.34" cy="513.88" r="2.25"/><circle class="cls-10" cx="335.84" cy="417.93" r="2.25"/><circle class="cls-10" cx="379.99" cy="514.99" r="2.25"/><path class="cls-6" d="M369.6,596c3.06,9.39-2.77,19.13-8.34,27.28L345.71,646c-3,4.35-6,8.78-10.21,12-8.25,6.27-19.39,6.72-29.74,6.91l-40.57.75-.36-.22A19.63,19.63,0,0,0,267.4,652a19.88,19.88,0,0,0-14.72-15.46l.32-1.39c.7-.4,1.38-.83,2.05-1.28a27.07,27.07,0,0,0,8.46-8.78l.1.06c7.9.61,12.46-.35,20.1-2.4,5.65-1.52,11.32-3.91,15.16-8.32s5.33-11.27,2.23-16.22a11.38,11.38,0,0,0-2.64-2.92l.34-.46c9.32-8.24,13.92-24.49,12.92-36.88s-6.1-24.07-11.94-35c-.65-1.22-1.32-2.44-2-3.65l.79-.45,13.23-2.42c1.43-.27,3-.51,4.27.24s1.8,2.23,2.2,3.62c1.55,5.39,2.21,11.26,5.59,15.74,3.53,4.67,9.39,6.94,13.67,10.94,8.3,7.76,9.43,20.62,16.26,29.69C358.84,583.33,367,588,369.6,596Z"/><path class="cls-8" d="M311.72,558c1,12.39-3.6,28.64-12.92,36.88l-.34.46c-4.22-3.29-10.65-3.74-16.17-2.77-6.39,1.12-12.7,3.56-19.12,3.22,5-6.18,4-15.17,2.37-23a295.59,295.59,0,0,0-11.48-40.28c-1.39-4.36-2.26-7.45-4.71-10.94-7.44-10.6-6-26.44,3-35.68,1.58-.47,3.15-.87,4.7-1.18,9,1.31,17.48,6.06,24.2,12.34s12,14.11,16.54,22.23c.68,1.21,1.35,2.43,2,3.65C305.62,533.88,310.72,545.56,311.72,558Z"/><path class="cls-7" d="M257.57,601.84l-2.45.59c4.31-1.56,6.06-4.26,8.05-6.69,6.42.34,12.73-2.1,19.12-3.22,5.52-1,11.95-.52,16.17,2.77a11.38,11.38,0,0,1,2.64,2.92c3.1,4.95,1.61,11.81-2.23,16.22s-9.51,6.8-15.16,8.32c-7.64,2-12.2,3-20.1,2.4l-.1-.06a19,19,0,0,0,2.41-6.58c1-6.37-2.16-13.58-8.17-15.92Z"/><path class="cls-6" d="M275.08,369.89c8,1.5,14.46,10,12.61,18s-12.52,12.53-19,7.77c1.5-4.27-.69-9.3-4.22-12.24a25,25,0,0,0-9.61-4.52,18.54,18.54,0,0,1,13.07-9A19.93,19.93,0,0,1,275.08,369.89Z"/><path class="cls-7" d="M170.1,455.36h0a32.16,32.16,0,0,1-13,2.54,26.82,26.82,0,0,1-3.79-.34,19,19,0,0,1-6.91-2.41c-7-4.23-9.72-13.39-8.61-21.48s5.31-15.4,9.52-22.4v-.55c35.31-.24,70.69-3.7,105.88-7.17a48.32,48.32,0,0,0,5.35-.79c-1.48,7.75.57,15.87,7.23,20.09,1.54,1,3.33,1.52,4.8,2.58,3.81,2.75,4.47,8.5,2.45,12.73s-6.11,7.13-10.37,9.08c-4.07,1.86-8.54,6.41-9.94,10.66l-.64.31c-5.09-4.32-12.85-5.65-20.18-5.52-1.13,0-2.25.07-3.35.16C208.8,453.72,189.68,452.46,170.1,455.36Zm31.36-31.95a2.37,2.37,0,0,0,0-3.36A2.78,2.78,0,0,0,198,420a1.77,1.77,0,0,0,.36,2.78A2.06,2.06,0,0,0,201.46,423.41Z"/><path class="cls-6" d="M268.66,395.63c-.07.22-.16.43-.25.64-1.71,3.81-5.66,5.58-9.91,6.49a48.32,48.32,0,0,1-5.35.79c-35.19,3.47-70.57,6.93-105.88,7.17-15,.12-30-.36-45-1.67-1.22-.09-2.44-.2-3.66-.32-6-.58-12.44-1.44-17.17-5.25s-6.77-11.6-2.58-16a10.93,10.93,0,0,1,6.18-2.9c3.2-.61,7-.72,10.82-1.71C147,372.53,200.24,366.67,251.16,378c1.22.27,2.46.56,3.67.88a25,25,0,0,1,9.61,4.52C268,386.33,270.16,391.36,268.66,395.63Z"/><path class="cls-8" d="M251.91,325.07c12.4,10.94,19.83,28.35,15.94,44.42l0,.35a18.54,18.54,0,0,0-13.07,9c-1.21-.32-2.45-.61-3.67-.88-50.92-11.32-104.12-5.46-155.25,4.88-3.86,1-7.62,1.1-10.82,1.71C83.32,368,93.78,352.39,106,341a129.85,129.85,0,0,1,100.49-33.74C222.93,309,239.52,314.14,251.91,325.07Z"/><path class="cls-2" d="M252.68,636.54A19.88,19.88,0,0,1,267.4,652a19.63,19.63,0,0,1-2.57,13.4,19,19,0,0,1-6.17,6.42c-6.31,4-14.25,4-21.71,3.88l-40.39-.62c-6.35-.1-13-.27-18.58-3.26-5.1-2.73-9-8.59-8-14.12a9.22,9.22,0,0,1,.43-1.62l1.72.4c22.23-2.21,43.87-8.36,65.18-15.06,5.38-1.69,10.82-3.45,15.69-6.27Z"/><path class="cls-8" d="M169.8,655.13c0-.13,0-.25,0-.38q-1.71-16.11-3.39-32.22l-.48-5.31,1.84-.17a621.14,621.14,0,0,0,87.39-14.62l2.45-.59.18.75c6,2.34,9.19,9.55,8.17,15.92a19,19,0,0,1-2.41,6.58,27.07,27.07,0,0,1-8.46,8.78c-.67.45-1.35.88-2.05,1.28-4.87,2.82-10.31,4.58-15.69,6.27-21.31,6.7-42.95,12.85-65.18,15.06l-1.72-.4a9.22,9.22,0,0,0-.43,1.62l-.48-.09A19.12,19.12,0,0,0,169.8,655.13Z"/><path class="cls-8" d="M263.17,595.74c-2,2.43-3.74,5.13-8.05,6.69a621.14,621.14,0,0,1-87.39,14.62l-1.84.17c-7.15.62-14.52.87-21.13-1.84a28.77,28.77,0,0,1-8.52-5.5,42.38,42.38,0,0,1-4.83-5.26,58.82,58.82,0,0,1-3.47-5c-15.81-25.44-12.29-63.25,6.21-86.81l.75-.66,4.23,4.75a19.29,19.29,0,0,0,4.49,4.07c2.61,1.49,5.74,1.67,8.75,1.81l12,.55-.12,2.53c-.55,5.77,1.76,12.88,7.46,13.93a7.51,7.51,0,0,0,7.67-3.54c1.5-2.6.35-8.75-1.6-11l.06-1.27,5.35.24c4.5.21,9.17.39,13.33-1.33s7.21-5,10.43-8a98.74,98.74,0,0,1,19.94-14.5c7.66-4.21,16-7.5,22.41-13.45,1-.36,2-.7,3-1-9,9.24-10.43,25.08-3,35.68,2.45,3.49,3.32,6.58,4.71,10.94a295.59,295.59,0,0,1,11.48,40.28C267.17,580.57,268.21,589.56,263.17,595.74Zm-98.31-24.29c5.25-1,8.24-7.54,6.29-12.51-5.49-1.55-11.43-2.55-14.2,2.44C154.36,566,159.62,572.4,164.86,571.45Zm3.88,29c2.88-3.2.77-9.29-3.19-10.11-2.42-.91-7.85,0-9,1.68a6.36,6.36,0,0,0,.09,6.62C159,602.8,165.56,604,168.74,600.49Z"/><path class="cls-6" d="M228.5,452.85c1.11,0,2.23-.1,3.35-.16,7.33-.13,15.09,1.2,20.18,5.52a15.41,15.41,0,0,1,3.95,5.1c3.77,7.88-.26,17.61-6.66,23.56s-14.75,9.24-22.41,13.45A98.74,98.74,0,0,0,207,514.82c-3.22,3-6.35,6.34-10.43,8s-8.83,1.54-13.33,1.33l-5.35-.24-13.47-.62-12-.55c-3-.14-6.14-.32-8.75-1.81a19.29,19.29,0,0,1-4.49-4.07l-4.23-4.75-7.57-8.51-21-23.64c-5-5.55-10.23-12.94-7.24-19.75,2.14-4.89,7.43-7.35,13-7.84a24.36,24.36,0,0,1,8.11.66c10.59,2.76,10.33,5.21,33.06,4.84l.05-.34a26.82,26.82,0,0,0,3.79.34,32.16,32.16,0,0,0,13-2.54h0C189.68,452.46,208.8,453.72,228.5,452.85Z"/><path class="cls-7" d="M201.43,420.05a2.37,2.37,0,0,1,0,3.36,2.06,2.06,0,0,1-3.15-.68A1.77,1.77,0,0,1,198,420,2.78,2.78,0,0,1,201.43,420.05Z"/><path class="cls-11" d="M177.8,525.21c1.95,2.28,3.1,8.43,1.6,11a7.51,7.51,0,0,1-7.67,3.54c-5.7-1-8-8.16-7.46-13.93l.12-2.53,13.47.62Z"/><path class="cls-11" d="M171.15,558.94c1.95,5-1,11.56-6.29,12.51S154.36,566,157,561.38C159.72,556.39,165.66,557.39,171.15,558.94Z"/><path class="cls-2" d="M169.76,654.75c0,.13,0,.25,0,.38a19.12,19.12,0,0,1-.3,2.48c-1.54,8.23-8.28,11.93-17.21,15.6-7,2.89-14.86,2.81-22.45,2.68-5.53-.09-11.83-.54-15.25-4.88-4-5.11-1.48-13.21,3.74-17.09s12.12-4.56,18.63-4.63a72.9,72.9,0,0,1,20.84,2.38l0,0c2.75,1.12,5.53,2.2,8.48,3.42Z"/><path class="cls-8" d="M166.37,622.53q1.69,16.11,3.39,32.22l-3.44.36a42.28,42.28,0,0,0-8.48-3.42l0,0a92,92,0,0,1-14-6.88A25.21,25.21,0,0,1,133,631.55c-2.2-6.64.16-13.83,2.5-20.42l.72-1.25a28.77,28.77,0,0,0,8.52,5.5c6.61,2.71,14,2.46,21.13,1.84Z"/><path class="cls-11" d="M165.55,590.38c4,.82,6.07,6.91,3.19,10.11-3.18,3.54-9.73,2.31-12.1-1.81a6.36,6.36,0,0,1-.09-6.62C157.7,590.37,163.13,589.47,165.55,590.38Z"/><path class="cls-7" d="M153.27,457.56l-.05.34c-22.73.37-22.47-2.08-33.06-4.84a24.36,24.36,0,0,0-8.11-.66l-.07-.71q-4.89-20.6-9.79-41.17l.13-1.47c15,1.31,30,1.79,45,1.67v.55c-4.21,7-8.41,14.3-9.52,22.4s1.61,17.25,8.61,21.48A19,19,0,0,0,153.27,457.56Zm-29.88-31.21c1.47-.37,2-2.68.78-3.49-.4-.59-2.76-1.39-3.3-.92a2.19,2.19,0,0,0-.64,2A2.79,2.79,0,0,0,123.39,426.35Z"/><path class="cls-8" d="M127.33,503.63l7.57,8.51-.75.66c-18.5,23.56-22,61.37-6.21,86.81a58.82,58.82,0,0,0,3.47,5l-.6.48C116.73,601.61,107.67,587,106,572.57s2.62-28.78,6.81-42.68a69.73,69.73,0,0,1,13.67-25.54Z"/><path class="cls-7" d="M124.17,422.86c1.27.81.69,3.12-.78,3.49a2.79,2.79,0,0,1-3.16-2.45,2.19,2.19,0,0,1,.64-2C121.41,421.47,123.77,422.27,124.17,422.86Z"/><path class="cls-13" d="M95.91,382.87C147,372.53,200.24,366.67,251.16,378c1.22.27,2.46.56,3.67.88a25,25,0,0,1,9.61,4.52c3.53,2.94,5.72,8,4.22,12.24-.07.22-.16.43-.25.64-1.71,3.81-5.66,5.58-9.91,6.49a48.32,48.32,0,0,1-5.35.79c-35.19,3.47-70.57,6.93-105.88,7.17-15,.12-30-.36-45-1.67-1.22-.09-2.44-.2-3.66-.32-6-.58-12.44-1.44-17.17-5.25s-6.77-11.6-2.58-16a10.93,10.93,0,0,1,6.18-2.9c3.2-.61,7-.72,10.82-1.71"/><path class="cls-13" d="M85.09,384.61v0C83.32,368,93.78,352.39,106,341a129.85,129.85,0,0,1,100.49-33.74c16.44,1.7,33,6.89,45.42,17.82s19.83,28.35,15.94,44.42"/><path class="cls-13" d="M254.83,378.87a18.54,18.54,0,0,1,13.07-9,19.93,19.93,0,0,1,7.18.05c8,1.5,14.46,10,12.61,18s-12.52,12.53-19,7.77l-.17-.12"/><path class="cls-13" d="M170.1,455.36a33.07,33.07,0,0,0,15.48-13.15"/><path class="cls-13" d="M147.27,411.27c-4.21,7-8.41,14.3-9.52,22.4s1.61,17.25,8.61,21.48a19,19,0,0,0,6.91,2.41,26.82,26.82,0,0,0,3.79.34,32.16,32.16,0,0,0,13-2.54"/><path class="cls-13" d="M231.85,452.69c-1.12.06-2.24.12-3.35.16-19.7.87-38.82-.39-58.4,2.51h0"/><path class="cls-13" d="M227.86,452.9l.64,0c1.1-.09,2.22-.14,3.35-.16,7.33-.13,15.09,1.2,20.18,5.52a15.41,15.41,0,0,1,3.95,5.1c3.77,7.88-.26,17.61-6.66,23.56s-14.75,9.24-22.41,13.45A98.74,98.74,0,0,0,207,514.82c-3.22,3-6.35,6.34-10.43,8s-8.83,1.54-13.33,1.33l-5.35-.24-13.47-.62-12-.55c-3-.14-6.14-.32-8.75-1.81a19.29,19.29,0,0,1-4.49-4.07l-4.23-4.75-7.57-8.51-21-23.64c-5-5.55-10.23-12.94-7.24-19.75,2.14-4.89,7.43-7.35,13-7.84a24.36,24.36,0,0,1,8.11.66c10.59,2.76,10.33,5.21,33.06,4.84"/><path class="cls-13" d="M102.19,410.52q4.89,20.58,9.79,41.17"/><path class="cls-13" d="M258.5,402.76c-1.48,7.75.57,15.87,7.23,20.09,1.54,1,3.33,1.52,4.8,2.58,3.81,2.75,4.47,8.5,2.45,12.73s-6.11,7.13-10.37,9.08c-4.07,1.86-8.54,6.41-9.94,10.66"/><path class="cls-13" d="M164.27,525.85c-.55,5.77,1.76,12.88,7.46,13.93a7.51,7.51,0,0,0,7.67-3.54c1.5-2.6.35-8.75-1.6-11"/><path class="cls-13" d="M171.15,558.94c1.95,5-1,11.56-6.29,12.51S154.36,566,157,561.38C159.72,556.39,165.66,557.39,171.15,558.94Z"/><path class="cls-13" d="M165.55,590.38a2.32,2.32,0,0,1,.82.49"/><path class="cls-13" d="M165.55,590.38c4,.82,6.07,6.91,3.19,10.11-3.18,3.54-9.73,2.31-12.1-1.81a6.36,6.36,0,0,1-.09-6.62C157.7,590.37,163.13,589.47,165.55,590.38Z"/><path class="cls-13" d="M164.29,590.29a4.36,4.36,0,0,1,1.26.09"/><path class="cls-13" d="M134.15,512.8c-18.5,23.56-22,61.37-6.21,86.81a58.82,58.82,0,0,0,3.47,5,42.38,42.38,0,0,0,4.83,5.26,28.77,28.77,0,0,0,8.52,5.5c6.61,2.71,14,2.46,21.13,1.84l1.84-.17a621.14,621.14,0,0,0,87.39-14.62l2.45-.59.16,0"/><path class="cls-13" d="M253.55,531.1l.51,1.39a295.59,295.59,0,0,1,11.48,40.28c1.63,7.8,2.67,16.79-2.37,23-2,2.43-3.74,5.13-8.05,6.69l-.05,0"/><path class="cls-13" d="M252.67,484.32a33.45,33.45,0,0,1,4.37.37c9,1.31,17.48,6.06,24.2,12.34s12,14.11,16.54,22.23c.68,1.21,1.35,2.43,2,3.65,5.84,11,10.94,22.65,11.94,35s-3.6,28.64-12.92,36.88"/><path class="cls-13" d="M166.37,622.53q1.69,16.11,3.39,32.22c0,.13,0,.25,0,.38s0,.27,0,.41"/><path class="cls-13" d="M157.8,651.67A72.9,72.9,0,0,0,137,649.29c-6.51.07-13.4.74-18.63,4.63s-7.78,12-3.74,17.09c3.42,4.34,9.72,4.79,15.25,4.88,7.59.13,15.43.21,22.45-2.68,8.93-3.67,15.67-7.37,17.21-15.6a19.12,19.12,0,0,0,.3-2.48c0-.46,0-.94,0-1.43"/><path class="cls-13" d="M157.84,651.69c2.75,1.12,5.53,2.2,8.48,3.42a42.28,42.28,0,0,0-8.48-3.42"/><path class="cls-13" d="M157.84,651.69l0,0"/><path class="cls-13" d="M135.52,611.13c-2.34,6.59-4.7,13.78-2.5,20.42a25.21,25.21,0,0,0,10.83,13.24,92,92,0,0,0,14,6.88"/><path class="cls-13" d="M172.13,656.48c22.23-2.21,43.87-8.36,65.18-15.06,5.38-1.69,10.82-3.45,15.69-6.27.7-.4,1.38-.83,2.05-1.28a27.07,27.07,0,0,0,8.46-8.78,19,19,0,0,0,2.41-6.58c1-6.37-2.16-13.58-8.17-15.92"/><path class="cls-13" d="M252.31,636.46l.37.08A19.88,19.88,0,0,1,267.4,652a19.63,19.63,0,0,1-2.57,13.4,19,19,0,0,1-6.17,6.42c-6.31,4-14.25,4-21.71,3.88l-40.39-.62c-6.35-.1-13-.27-18.58-3.26-5.1-2.73-9-8.59-8-14.12a9.22,9.22,0,0,1,.43-1.62"/><path class="cls-13" d="M126.52,504.35a69.73,69.73,0,0,0-13.67,25.54c-4.19,13.9-8.43,28.26-6.81,42.68s10.69,29,24.77,32.53"/><path class="cls-13" d="M261.75,595.62c.48.06.95.1,1.42.12,6.42.34,12.73-2.1,19.12-3.22,5.52-1,11.95-.52,16.17,2.77a11.38,11.38,0,0,1,2.64,2.92c3.1,4.95,1.61,11.81-2.23,16.22s-9.51,6.8-15.16,8.32c-7.64,2-12.2,3-20.1,2.4"/><path class="cls-13" d="M124.17,422.86c1.27.81.69,3.12-.78,3.49a2.79,2.79,0,0,1-3.16-2.45,2.19,2.19,0,0,1,.64-2C121.41,421.47,123.77,422.27,124.17,422.86Z"/><path class="cls-13" d="M198.31,422.73A1.77,1.77,0,0,1,198,420a2.78,2.78,0,0,1,3.48.1,2.37,2.37,0,0,1,0,3.36A2.06,2.06,0,0,1,198.31,422.73Z"/><path class="cls-13" d="M249.32,486.87c1-.36,2-.7,3-1,1.58-.47,3.15-.87,4.7-1.18,9.08-1.86,17.8-1.07,27.29,1.93,12.15,3.84,24.41,19.59,31.74,30"/><path class="cls-13" d="M298.57,518.81l13.23-2.42c1.43-.27,3-.51,4.27.24s1.8,2.23,2.2,3.62c1.55,5.39,2.21,11.26,5.59,15.74,3.53,4.67,9.39,6.94,13.67,10.94,8.3,7.76,9.43,20.62,16.26,29.69,5,6.71,13.2,11.35,15.81,19.33,3.06,9.39-2.77,19.13-8.34,27.28L345.71,646c-3,4.35-6,8.78-10.21,12-8.25,6.27-19.39,6.72-29.74,6.91l-40.57.75"/><path class="cls-13" d="M253.06,485.16c-.25.23-.49.47-.72.71-9,9.24-10.43,25.08-3,35.68,2.45,3.49,3.32,6.58,4.71,10.94"/></g></g></svg>