<svg xmlns="http://www.w3.org/2000/svg" viewBox="0 0 408.86 440.92">
  <defs>
    <style>
      .cls-1 {
        fill: #c30d23;
      }

      .cls-2 {
        fill: #231815;
      }
    </style>
  </defs>
  <g id="レイヤー_2" data-name="レイヤー 2">
    <g id="レイヤー_1-2" data-name="レイヤー 1">
      <path class="cls-1" d="M199.58,410.7a93.89,93.89,0,0,0-18.44,27.76q21.21-3.68,42.68-5.29c.23-.86-.42-1.68-1-2.32A221.89,221.89,0,0,0,200.37,410"/>
      <path class="cls-1" d="M204.83,409.45c-28.35-1.89-56.92-3.93-84.3-11.52S66.71,376.7,48.34,355c-8.64-10.19-15.3-21.9-21-34-32-67.3-34.5-149.82.77-215.46S138.24-4.57,212.33,3.42c16,1.73,31.77,5.72,47.32,10.08C290.4,22.12,321.83,32.84,345,54.82c13.53,12.84,23.55,28.92,32.2,45.45,21.93,41.92,36.06,90.41,25.72,136.58-9.11,40.73-36,74.89-62.81,106.88-13.86,16.53-28.52,33.37-48,42.56-10.69,5-22.37,7.53-33.93,10L199.9,408.64"/>
      <path class="cls-2" d="M204.83,407c-43.46-2.9-89.1-6.41-127-30a120.3,120.3,0,0,1-22.88-18.32,124.34,124.34,0,0,1-18.8-25.82,243.32,243.32,0,0,1-23-58C3,235.77,2,194.13,11.78,154.92c9.37-37.41,28.78-71.47,57-97.85,26.52-24.78,59.85-42.5,95.61-49.22A165.85,165.85,0,0,1,221,7.07a319.26,319.26,0,0,1,34.27,7.8c10,2.74,19.93,5.65,29.71,9,19,6.58,37.78,15.16,53.28,28.21,16.32,13.73,27.78,31.94,37.5,50.7,19.74,38.13,33.45,82.37,26.31,125.62-6.92,41.93-33.18,76.87-59.68,108.74-12.87,15.48-26,31.77-43.29,42.48-9.41,5.82-19.8,9.23-30.51,11.77-11.5,2.73-23.12,5-34.68,7.46l-34.63,7.35c-3.14.67-1.81,5.49,1.33,4.82l37-7.85c11.75-2.5,23.6-4.73,35.26-7.67,10.75-2.72,21.12-6.57,30.45-12.64a131.28,131.28,0,0,0,23.64-20.31c7.26-7.69,14-15.86,20.75-24s13.48-16.56,19.83-25.14c12.71-17.18,24.08-35.51,31.7-55.55a151.32,151.32,0,0,0,9.35-63.61c-1.44-22.33-7.13-44.24-15.31-65-8-20.28-17.92-40.45-30.79-58.11a126,126,0,0,0-21.71-23.42,141.16,141.16,0,0,0-26.37-17C295.55,21.28,275.28,15.15,255,9.63,233.79,3.83,212.13-.61,190,.07,152.64,1.21,116.19,14.8,86,36.54a203,203,0,0,0-70,89.07c-15.47,38.52-19.25,81.11-13.4,122a258.3,258.3,0,0,0,16.19,60.2c8.07,20,18.22,39.78,33.52,55.21,30.91,31.18,75.47,41.77,117.7,46.13,11.58,1.19,23.2,2,34.81,2.76,3.21.22,3.2-4.78,0-5Z"/>
      <path class="cls-2" d="M197.81,408.93A96.62,96.62,0,0,0,179,437.2a2.54,2.54,0,0,0,2.82,3.67q20.88-3.6,42-5.2a2.6,2.6,0,0,0,2.5-2.5c.37-2.87-2.86-5.29-4.64-7.11q-3.08-3.15-6.28-6.18-6.39-6.08-13.26-11.61a2.58,2.58,0,0,0-3.53,0,2.52,2.52,0,0,0,0,3.54q6.3,5.1,12.25,10.65,2.87,2.69,5.66,5.49c1,1,1.95,2,2.91,3,.43.45.86.89,1.28,1.35a4.43,4.43,0,0,1,.62.68c.08.14.11-.69,0,.21l2.5-2.5q-21.78,1.65-43.34,5.38l2.82,3.67a93.13,93.13,0,0,1,18-27.25c2.23-2.33-1.3-5.87-3.53-3.54Z"/>
    </g>
  </g>
</svg>
