<svg xmlns="http://www.w3.org/2000/svg" viewBox="0 0 368.75 259.64">
  <defs>
    <style>
      .cls-1 {
        fill: #e4007f;
      }

      .cls-2 {
        fill: #231815;
      }

      .cls-3 {
        fill: #fff;
      }
    </style>
  </defs>
  <g id="レイヤー_2" data-name="レイヤー 2">
    <g id="レイヤー_1-2" data-name="レイヤー 1">
      <g>
        <path class="cls-1" d="M99.74,35.55c21-24.5,55.33-34.65,87.47-32.12C209,5.14,230.37,12,252.13,10.49c16.94-1.19,33.28-7.45,50.25-8,25.41-.77,52.05,14,60.16,38.05C365.69,50,366,60,366.13,69.89q.38,27.35-.49,54.69c-.24,7.71-.72,15.9-5.21,22.17-5.08,7.11-14.07,10.07-22.48,12.43-11.29,3.17-24.59,5.68-33.78-1.61-8.24-6.54-10.82-19.5-20.64-23.31-6.26,19.34-4.88,40.45-10.46,60-10.4,36.42-47,63.58-84.9,63s-73.58-29-82.76-65.74c-1.27-5-4.29-11.71-9.3-10.31a8.84,8.84,0,0,0-3.8,2.71c-10.17,10.64-19,24.74-33.48,27.5-9.68,1.85-19.81-2.22-27.13-8.83S19.52,187.06,15.63,178A161.93,161.93,0,0,1,3.79,94.39c2.76-22,10.69-44.27,27.08-59.18s42.55-20.35,61.29-8.53a83.25,83.25,0,0,1,10.33,8.14"/>
        <path class="cls-2" d="M101.51,37.32C120.9,14.82,151.2,4.94,180.3,5.58c17.76.39,35,5.08,52.66,6.92a109.47,109.47,0,0,0,27.25-.41c9-1.31,17.78-3.6,26.7-5.25,7.89-1.45,15.91-2.32,23.93-1.5a64,64,0,0,1,19.35,5.13c12.28,5.45,23,14.7,28.52,27.11,3.48,7.79,4.41,16.45,4.74,24.88.36,9.3.32,18.64.29,27.94q0,14.22-.43,28.43c-.21,7.92.28,16.91-3.5,24.16-3.47,6.64-10.4,10-17.23,12.19-7.07,2.31-14.55,4.42-22,4.61-7.08.19-13.45-1.88-18.07-7.42-4-4.77-6.46-10.61-10.67-15.22a20.61,20.61,0,0,0-7.61-5.3c-1.29-.53-2.71.58-3.08,1.74-7.14,22.37-4.3,46.89-13.51,68.71-7.39,17.51-21.06,32.1-37.54,41.41s-35.89,13.24-54.59,9.73a88.28,88.28,0,0,1-48.29-27.18,85,85,0,0,1-15.38-23.57,117.85,117.85,0,0,1-4.36-13.2c-1.17-3.94-3.21-8.69-7.25-10.42-5.17-2.2-9,2.29-12.18,5.76-3.3,3.68-6.44,7.5-9.82,11.12-6.45,6.91-14.27,13.41-24.23,13.38-10.88,0-20.48-7-26.72-15.41-6.79-9.2-11.16-20.23-14.61-31a158.48,158.48,0,0,1-6-71c3-20.56,10.77-41.63,26.8-55.63,14.13-12.35,36.34-18.05,53.78-9.49,5,2.48,9.3,6.12,13.5,9.81,2.41,2.11,6-1.41,3.53-3.54-4.44-3.9-9-7.82-14.28-10.47a45.42,45.42,0,0,0-14.4-4.37A56.69,56.69,0,0,0,45.8,22.72c-20.12,8.65-32.94,27.71-39.44,48-7.28,22.74-7.89,47.72-3.95,71.14a161.86,161.86,0,0,0,10.42,35.89c4.4,10.48,10,21.07,19.1,28.26,8.53,6.75,19.9,10.38,30.59,7,9.7-3.05,16.86-10.72,23.36-18.17,1.71-2,3.41-4,5.15-5.89,1.5-1.69,3.34-4.47,5.5-5.3,3.67-1.41,5.71,5.67,6.35,8a89.51,89.51,0,0,0,11.92,26.83,94.68,94.68,0,0,0,45.94,36,84.34,84.34,0,0,0,57.83-.08,94.62,94.62,0,0,0,46.1-36.24,85.42,85.42,0,0,0,12-27.81c2.87-12.32,3.46-25,5.3-37.46a113.74,113.74,0,0,1,4-18.06l-3.07,1.75c5.89,2.39,9,8.9,12.22,13.92,3.87,6,8.55,11,15.6,13.06,7.56,2.2,15.76,1,23.26-.83,7.33-1.77,15.17-3.85,21.53-8.06,6.83-4.51,10.58-11.35,11.81-19.36,1.39-9.1,1.11-18.55,1.27-27.73q.27-14.92.15-29.86c-.07-9.37,0-18.82-1.42-28.1a55.61,55.61,0,0,0-23-37A69.17,69.17,0,0,0,303.92,0C285.28.11,267.61,7.5,249,8.15c-19,.67-37.57-4.54-56.34-6.69-30.61-3.51-63.61,3.59-87,24.48A82.48,82.48,0,0,0,98,33.78c-2.1,2.43,1.43,6,3.53,3.54Z"/>
      </g>
      <g>
        <path class="cls-3" d="M159.13,123.24a15.29,15.29,0,0,1-13.59-6,16.61,16.61,0,0,1-2.41-14.77A25.39,25.39,0,0,1,145,98.17c2.06-3.91,4.7-7.67,8.42-10s8.73-3.13,12.59-1a14.06,14.06,0,0,1,5.15,5.5,22.77,22.77,0,0,1,2,18.74,18.92,18.92,0,0,1-14,12.24"/>
        <path class="cls-2" d="M159.13,120.74a12.91,12.91,0,0,1-13.66-9.11c-1.85-6.24,1.14-12.61,5-17.45,3.55-4.4,10.62-8.4,15.71-3.87,4.63,4.12,6.51,11.69,5.31,17.63a16.7,16.7,0,0,1-13,13.28,2.52,2.52,0,0,0-1.75,3.07,2.55,2.55,0,0,0,3.08,1.75c7.48-1.45,13.59-7.4,15.9-14.57a25.22,25.22,0,0,0-4.9-23.55c-6-6.78-15.8-5.17-21.86.53a33,33,0,0,0-6.92,10,20.55,20.55,0,0,0-2,12.19c1.4,9,9.78,16,19,15.11a2.57,2.57,0,0,0,2.5-2.5,2.51,2.51,0,0,0-2.5-2.5Z"/>
      </g>
      <path class="cls-2" d="M161.87,106.32a.81.81,0,0,1,0-.22l-.09.67a.9.9,0,0,1,.08-.28l-.26.59a2.39,2.39,0,0,1,.13-.21l-.39.51a1.36,1.36,0,0,1,.24-.24l-.51.39a1.79,1.79,0,0,1,.38-.22l-.6.25a2.09,2.09,0,0,1,.43-.11l-.66.09a1.34,1.34,0,0,1,.4,0l-.67-.09a1.89,1.89,0,0,1,.34.09l-.6-.25a1.43,1.43,0,0,1,.27.15l-.51-.39a1.88,1.88,0,0,1,.24.25l-.39-.5a1.11,1.11,0,0,1,.17.3l-.25-.6a1.8,1.8,0,0,1,.12.44l-.09-.66a2.18,2.18,0,0,1,0,.51l.09-.66a2.64,2.64,0,0,1-.15.55l.25-.59a2,2,0,0,1-.26.45l.39-.5a2.16,2.16,0,0,1-.37.37l.51-.39a2,2,0,0,1-.43.24l.59-.25a2.35,2.35,0,0,1-.52.14l.66-.09a2.29,2.29,0,0,1-.64,0l.66.09a2.73,2.73,0,0,1-.68-.18l.6.25a2.39,2.39,0,0,1-.56-.32l.51.39a2.4,2.4,0,0,1-.39-.39l.39.51a2,2,0,0,1-.25-.43l.25.6a2.05,2.05,0,0,1-.14-.5l.09.67a2.57,2.57,0,0,1,0-.62l-.09.67a2.43,2.43,0,0,1,.17-.6l-.25.6a3.42,3.42,0,0,1,.33-.59l-.39.51a2.62,2.62,0,0,1,.44-.44l-.51.39a2.18,2.18,0,0,1,.49-.29l-.6.25a2.64,2.64,0,0,1,.55-.15,2,2,0,0,0,.85-.45,1.88,1.88,0,0,0,.64-.7,2.51,2.51,0,0,0-.9-3.42l-.59-.25a2.5,2.5,0,0,0-1.33,0,2.71,2.71,0,0,0-.41.09,6.24,6.24,0,0,0-.92.4,4.29,4.29,0,0,0-.55.4,4.22,4.22,0,0,0-.56.47,5,5,0,0,0-.82,1.16,6.43,6.43,0,0,0-.37.91,5.4,5.4,0,0,0-.18,1,4.78,4.78,0,0,0,.11,1.41,3.79,3.79,0,0,0,.55,1.29,5.25,5.25,0,0,0,1.38,1.4,5,5,0,0,0,1.23.6,5.15,5.15,0,0,0,1.4.25,4.74,4.74,0,0,0,1.4-.15,5.83,5.83,0,0,0,.9-.36,2.18,2.18,0,0,0,.37-.2,4.89,4.89,0,0,0,1.4-1.43,4.55,4.55,0,0,0,.3-.63,4.12,4.12,0,0,0,.24-.67,4.89,4.89,0,0,0,0-2,1.56,1.56,0,0,0-.1-.37,4.12,4.12,0,0,0-.43-.93,4.21,4.21,0,0,0-.61-.74,3.46,3.46,0,0,0-.79-.57,3.58,3.58,0,0,0-.91-.35,4.28,4.28,0,0,0-1-.1,4.51,4.51,0,0,0-1.94.54,3.91,3.91,0,0,0-1.4,1.34,3,3,0,0,0-.38.88,3.78,3.78,0,0,0-.12.81.81.81,0,0,0,0,.22,2.66,2.66,0,0,0,.73,1.77,2.51,2.51,0,0,0,4.27-1.77Z"/>
      <g>
        <path class="cls-3" d="M198,120.24c-1.54,1.24-3.81.62-5.65-.11-6.16-2.45-12.49-5.9-15.38-11.86-3.93-8.12.33-18.53,7.86-23.5a18.73,18.73,0,0,1,7.07-2.94,17.72,17.72,0,0,1,14.82,4.74,23.9,23.9,0,0,1,7,14.18,16.66,16.66,0,0,1-.18,6.45c-1.08,4.27-4.41,7.55-7.6,10.59a16.72,16.72,0,0,1-4.73,3.53,5.64,5.64,0,0,1-5.64-.4"/>
        <path class="cls-2" d="M196.75,118.08c-1.23.88-3-.07-4.24-.57a44.85,44.85,0,0,1-4.75-2.25,20.86,20.86,0,0,1-7.62-6.48c-3.58-5.49-2.27-12.32,1.38-17.42a18.31,18.31,0,0,1,7.77-6.18,14.14,14.14,0,0,1,10.62,0c7,2.7,11.08,10.24,11.52,17.45a11.64,11.64,0,0,1-1.18,6.28,22,22,0,0,1-3.89,5,34.14,34.14,0,0,1-4.74,4.34c-1.47,1-3.21,1.65-4.77.53a2.51,2.51,0,0,0-3.42.89,2.55,2.55,0,0,0,.89,3.42,8,8,0,0,0,6.87.91,16.82,16.82,0,0,0,6.38-4.29c3.38-3.21,6.84-6.69,8.24-11.26,1.47-4.8.41-10.42-1.47-15a23.89,23.89,0,0,0-8.82-11,19.83,19.83,0,0,0-13.22-3.19,21.83,21.83,0,0,0-12.58,6.51c-5.84,6-8.64,15.22-5.19,23.12,2,4.5,5.86,7.88,10,10.3a53.82,53.82,0,0,0,7,3.27c2.45,1,5.43,1.58,7.75-.07a2.57,2.57,0,0,0,.89-3.42,2.51,2.51,0,0,0-3.42-.9Z"/>
      </g>
      <path class="cls-2" d="M190.1,104.38l.21-.19-.51.39a2.78,2.78,0,0,1,.53-.3l-.6.25a2.62,2.62,0,0,1,.68-.18l-.67.09a2.81,2.81,0,0,1,.71,0l-.67-.09a2.73,2.73,0,0,1,.68.18l-.6-.25a2.43,2.43,0,0,1,.52.3l-.5-.39.14.13-.73-1.77v0l.09-.66a2.08,2.08,0,0,1-.11.41l.25-.6a2.3,2.3,0,0,1-.23.4l.39-.51a2.06,2.06,0,0,1-.39.39l.5-.39a2.31,2.31,0,0,1-.48.28l.6-.25a2.46,2.46,0,0,1-.53.15l.66-.09a2.18,2.18,0,0,1-.51,0l.67.09a1.91,1.91,0,0,1-.41-.11l.6.25a1.62,1.62,0,0,1-.36-.21l.51.39a1.87,1.87,0,0,1-.32-.31l.39.51a2.51,2.51,0,0,1-.26-.45l.25.59a2.64,2.64,0,0,1-.15-.55l.09.67a2.26,2.26,0,0,1,0-.58l-.09.67a2.13,2.13,0,0,1,.14-.51l-.25.6a1.79,1.79,0,0,1,.22-.38l-.39.5.14-.15-1.77.73,2.85-.19a1.86,1.86,0,0,0,1-.22,2.16,2.16,0,0,0,1.32-1.32,1.86,1.86,0,0,0,.22-1,2.49,2.49,0,0,0-2.5-2.5l-2.17.15-.48,0a6.26,6.26,0,0,0-.87.1l-.59.25-.51.39-.07.08a4.89,4.89,0,0,0-.55.72,5.28,5.28,0,0,0-.38.84,4.53,4.53,0,0,0-.24,1.25,4.93,4.93,0,0,0,.13,1.28,4.35,4.35,0,0,0,1.18,2.15,3.68,3.68,0,0,0,1,.73,4.69,4.69,0,0,0,1.84.48H190a6.31,6.31,0,0,0,1-.15,3.77,3.77,0,0,0,.59-.22,3.88,3.88,0,0,0,.58-.28,4.37,4.37,0,0,0,1.72-1.82,5.74,5.74,0,0,0,.34-.88c0-.15.05-.31.07-.46a1.51,1.51,0,0,0,0-.7,1.79,1.79,0,0,0-.29-.93l-.4-.51a5.26,5.26,0,0,0-.74-.58,2.33,2.33,0,0,0-.34-.2,5,5,0,0,0-1.34-.47,8.44,8.44,0,0,0-1-.12,7.2,7.2,0,0,0-1,.12,4.7,4.7,0,0,0-2.52,1.31,2.61,2.61,0,0,0-.73,1.77,1.86,1.86,0,0,0,.22,1,1.93,1.93,0,0,0,.51.81,2.51,2.51,0,0,0,1.77.73,2.66,2.66,0,0,0,1.77-.73Z"/>
      <path class="cls-2" d="M169,154.93a30.61,30.61,0,0,0,8.72,3.26c3,.61,6.21.95,9.06-.36a11.61,11.61,0,0,0,4.8-4.89c.56-.93,1.07-1.9,1.71-2.78a5,5,0,0,1,1.81-1.54,2.5,2.5,0,0,0-2.53-4.32,11.34,11.34,0,0,0-4.32,4.45c-.89,1.44-1.76,3.24-2.83,4.11-1.67,1.34-4.23.93-6.16.55a25.87,25.87,0,0,1-7.73-2.8c-2.82-1.56-5.35,2.76-2.53,4.32Z"/>
      <path class="cls-2" d="M179.81,132.67a2.46,2.46,0,0,1,.34.22l-.51-.39a2.52,2.52,0,0,1,.39.41l-.39-.51a2.61,2.61,0,0,1,.32.56l-.25-.6a2.8,2.8,0,0,1,.17.63l-.08-.67a2.83,2.83,0,0,1,0,.65l.09-.66a2.52,2.52,0,0,1-.14.54l1.74-1.74a13.79,13.79,0,0,1-2.63.62l.67-.09a13.59,13.59,0,0,1-3.49,0l2.41,3.17a10.51,10.51,0,0,1,.63-2.42l-.25.6a4.88,4.88,0,0,1,.65-1.13l-.39.5a3.8,3.8,0,0,1,.66-.67l-.51.39a3.58,3.58,0,0,1,.59-.36l-.59.25a3.57,3.57,0,0,1,.66-.18l-.66.09a3.31,3.31,0,0,1,.77,0l-.67-.09a3.62,3.62,0,0,1,.8.21l-.6-.25a2.59,2.59,0,0,1,.58.34l-.51-.39a1.75,1.75,0,0,1,.36.36l-.39-.51a2.08,2.08,0,0,1,.22.38l-.25-.6a2.36,2.36,0,0,1,.11.44l-.09-.67a2.06,2.06,0,0,1,0,.43l.09-.67a2.38,2.38,0,0,1-.15.52l.26-.6a2.69,2.69,0,0,1-.28.46l.39-.51a2.92,2.92,0,0,1-.56.55l.51-.39a6.41,6.41,0,0,1-1.4.78l.6-.25-.54.22a2.65,2.65,0,0,0-1.5,1.15,2.51,2.51,0,0,0,.9,3.42,2.51,2.51,0,0,0,1.93.25,12.58,12.58,0,0,0,2.05-.92,6.6,6.6,0,0,0,1.94-1.78,4.2,4.2,0,0,0,.77-2.53,4.36,4.36,0,0,0-1.07-2.71,5.14,5.14,0,0,0-3.92-1.66,5.32,5.32,0,0,0-2.44.62,6.17,6.17,0,0,0-2,1.85,9.33,9.33,0,0,0-1.53,4.15,2.5,2.5,0,0,0,0,1.33,1.94,1.94,0,0,0,.45.85,1.88,1.88,0,0,0,.7.64,2.43,2.43,0,0,0,1.26.34,15.24,15.24,0,0,0,6.57-.64,5.68,5.68,0,0,0,.81-.32,2.67,2.67,0,0,0,1.18-1.57,2.57,2.57,0,0,0,.11-.48,5.21,5.21,0,0,0-.07-2.29,5,5,0,0,0-2.31-3,2.6,2.6,0,0,0-1.93-.25,2.5,2.5,0,0,0-.59,4.57Z"/>
    </g>
  </g>
</svg>
