<svg xmlns="http://www.w3.org/2000/svg" viewBox="0 0 196.15 22.59">
  <defs>
    <style>
      .cls-1 {
        fill: #b8e1ef;
      }

      .cls-2 {
        fill: #231815;
      }
    </style>
  </defs>
  <g id="レイヤー_2" data-name="レイヤー 2">
    <g id="レイヤー_1-2" data-name="レイヤー 1">
      <path class="cls-1" d="M194.9,1.21l-.12,18.14c-60.21-.9-133.45-1.68-193.55,2C60.14,11.79,132.44,6.8,191.93,2.05"/>
      <path class="cls-2" d="M193.65,1.21l-.12,18.14,1.25-1.25c-25-.38-50-.69-75-.74-25.79-.06-51.59.14-77.37.91-13.73.41-27.45,1-41.16,1.82l.33,2.46c24.44-4,49.05-6.86,73.68-9.36,25.3-2.57,50.65-4.68,76-6.69q20.34-1.61,40.69-3.2c1.59-.13,1.61-2.63,0-2.5-24.73,2-49.48,3.83-74.2,6-25.55,2.18-51.09,4.61-76.55,7.73C27.72,16.13,14.28,18,.89,20.14c-1.38.22-1.06,2.54.34,2.45,25-1.52,50-2.2,74.94-2.53,25.8-.33,51.6-.25,77.39,0q20.61.2,41.22.53A1.26,1.26,0,0,0,196,19.35l.12-18.14a1.25,1.25,0,0,0-2.5,0Z"/>
    </g>
  </g>
</svg>
