<svg xmlns="http://www.w3.org/2000/svg" viewBox="0 0 209.76 203.15">
  <defs>
    <style>
      .cls-1 {
        fill: #e83828;
      }

      .cls-2 {
        fill: #e9f5f7;
      }

      .cls-3 {
        fill: #2ea7e0;
      }

      .cls-4 {
        fill: #e4007f;
      }

      .cls-5 {
        fill: none;
        stroke: #231815;
        stroke-miterlimit: 10;
        stroke-width: 6px;
      }
    </style>
  </defs>
  <g id="レイヤー_2" data-name="レイヤー 2">
    <g id="レイヤー_1-2" data-name="レイヤー 1">
      <g>
        <g>
          <path class="cls-1" d="M98.25,84.9c0,8-.82,16.32-5,23.12a19.6,19.6,0,0,0-7.35-1.73h-.57l0-2.55a151.45,151.45,0,0,1,.25-54.33c5.13,4,8.52,9.93,10.37,16.17S98.28,78.39,98.25,84.9Z"/>
          <path class="cls-2" d="M85.66,49.4a151.45,151.45,0,0,0-.25,54.33l0,2.55h.55c-3.13.69-2.46.61-3.26,1.72-2.27,3.14-2.44,7.78-1.2,11.45a4.93,4.93,0,0,0,1.29,2.21,5.65,5.65,0,0,0,3.41,1,19.14,19.14,0,0,0,7.53-.57,14,14,0,0,0,3.47.4c22.69.43,46.46.62,66.63-9.79-1.72-2.12-4.36-3.23-6.93-4.13a88.77,88.77,0,0,0-61.24,1A10,10,0,0,0,93.29,108c4.14-6.8,4.92-15.14,5-23.12,0-6.51-.37-13.09-2.22-19.33S90.79,53.41,85.66,49.4Zm97.73,37.48c6.86,22.5,9.5,40.36,0,61.78S160,183.73,132.77,189.08A97.65,97.65,0,0,1,60.24,174c-21.16-14.36-36.73-37.4-42.58-63-1.75-7.64-2.65-15.6-1.58-23.38C17.4,78,21.7,69,27,61c12.6-19.22,31.4-34.25,52.93-40.51s45.64-3.36,64.5,9.13C163.77,42.41,176.45,64.11,183.39,86.88Z"/>
          <path class="cls-3" d="M81.46,119.46c-1.24-3.67-1.07-8.31,1.2-11.45.8-1.11.13-1,3.26-1.72h0A19.6,19.6,0,0,1,93.29,108a10,10,0,0,1,2.33,1.56,4.42,4.42,0,0,1,.53.53c2.48,2.81,2.92,7.54.31,10.24a6.92,6.92,0,0,1-2.77,1.74,19.14,19.14,0,0,1-7.53.57,5.65,5.65,0,0,1-3.41-1A4.93,4.93,0,0,1,81.46,119.46Z"/>
          <path class="cls-4" d="M95.62,109.58a88.77,88.77,0,0,1,61.24-1c2.57.9,5.21,2,6.93,4.13-20.17,10.41-43.94,10.22-66.63,9.79a14,14,0,0,1-3.47-.4,6.92,6.92,0,0,0,2.77-1.74c2.61-2.7,2.17-7.43-.31-10.24A4.42,4.42,0,0,0,95.62,109.58Z"/>
          <path class="cls-3" d="M204.33,102.61c4.37,20.32,3.31,42.66-7,60.53-6.39,11.14-15.91,19.9-25.27,28.47-4.9,4.48-5.77,4.63-17.34,7-27.88,2.19-51.78,3-78.9-4.11S22.7,169.9,11.74,143.12c-4.66-11.37-6.4-23.78-7.69-36.06-1.16-11-2-22.25,1-32.85,3.25-11.76,10.83-21.68,18.87-30.6A233.82,233.82,0,0,1,45.06,22.9c7.78-6.69,16.22-13,26-15.77A81.88,81.88,0,0,1,85.55,4.81c13.73-1.36,27.6-2.71,41.3-1s27.42,6.71,37.45,16.58c7.11,7,12,16,16.71,24.93C190.62,63.56,200,82.3,204.33,102.61Zm-21,46.05c9.53-21.42,6.89-39.28,0-61.78-6.94-22.77-19.62-44.47-39-57.28-18.86-12.49-43-15.39-64.5-9.13S39.57,41.76,27,61c-5.27,8-9.57,17-10.89,26.6C15,95.36,15.91,103.32,17.66,111c5.85,25.59,21.42,48.63,42.58,63a97.65,97.65,0,0,0,72.53,15.13C160,183.73,173.82,170.08,183.36,148.66Z"/>
        </g>
        <g>
          <path class="cls-5" d="M132.77,189.08A97.65,97.65,0,0,1,60.24,174c-21.16-14.36-36.73-37.4-42.58-63-1.75-7.64-2.65-15.6-1.58-23.38C17.4,78,21.7,69,27,61c12.6-19.22,31.4-34.25,52.93-40.51s45.64-3.36,64.5,9.13c19.37,12.81,32,34.51,39,57.28,6.86,22.5,9.5,40.36,0,61.78S160,183.73,132.77,189.08Z"/>
          <path class="cls-5" d="M84.59,106.29h1.35A19.6,19.6,0,0,1,93.29,108a10,10,0,0,1,2.33,1.56,4.42,4.42,0,0,1,.53.53c2.48,2.81,2.92,7.54.31,10.24a6.92,6.92,0,0,1-2.77,1.74,19.14,19.14,0,0,1-7.53.57,5.65,5.65,0,0,1-3.41-1,4.93,4.93,0,0,1-1.29-2.21c-1.24-3.67-1.07-8.31,1.2-11.45.8-1.11.13-1,3.26-1.72"/>
          <path class="cls-5" d="M85.41,103.73a151.45,151.45,0,0,1,.25-54.33c5.13,4,8.52,9.93,10.37,16.17s2.25,12.82,2.22,19.33c0,8-.82,16.32-5,23.12l-.18.3"/>
          <path class="cls-5" d="M94.72,109.93l.9-.35a88.77,88.77,0,0,1,61.24-1c2.57.9,5.21,2,6.93,4.13-20.17,10.41-43.94,10.22-66.63,9.79a14,14,0,0,1-3.47-.4,4.46,4.46,0,0,1-2.42-1.52"/>
          <path class="cls-5" d="M154.77,198.62c-27.88,2.19-51.78,3-78.9-4.11S22.7,169.9,11.74,143.12c-4.66-11.37-6.4-23.78-7.69-36.06-1.16-11-2-22.25,1-32.85,3.25-11.76,10.83-21.68,18.87-30.6A233.82,233.82,0,0,1,45.06,22.9c7.78-6.69,16.22-13,26-15.77A81.88,81.88,0,0,1,85.55,4.81c13.73-1.36,27.6-2.71,41.3-1s27.42,6.71,37.45,16.58c7.11,7,12,16,16.71,24.93,9.61,18.25,19,37,23.32,57.3s3.31,42.66-7,60.53c-6.39,11.14-15.91,19.9-25.27,28.47C167.21,196.09,166.34,196.24,154.77,198.62Z"/>
        </g>
      </g>
    </g>
  </g>
</svg>
