<svg xmlns="http://www.w3.org/2000/svg" xmlns:xlink="http://www.w3.org/1999/xlink" viewBox="0 0 1200 690.47"><defs><style>.cls-1,.cls-13,.cls-17,.cls-20,.cls-21{fill:none;}.cls-2{fill:#d8ebed;}.cls-3{fill:#fff;}.cls-4{font-size:113.82px;font-family:IowanOldStyle-BlackItalic, Iowan Old Style;font-weight:800;font-style:italic;}.cls-18,.cls-4{fill:#211815;}.cls-5{letter-spacing:-0.02em;}.cls-6{letter-spacing:0.04em;}.cls-7{letter-spacing:-0.08em;}.cls-8{clip-path:url(#clip-path);}.cls-9{fill:#306f52;}.cls-10{fill:#2a1006;}.cls-11{fill:#d64835;}.cls-12{fill:#914c37;}.cls-13,.cls-17,.cls-20,.cls-21{stroke:#211815;stroke-miterlimit:10;}.cls-13{stroke-width:7.07px;}.cls-14{fill:#ebf5f7;}.cls-15{fill:#f9ede8;}.cls-16{fill:#c4305a;}.cls-17{stroke-width:5.2px;}.cls-19{fill:#275a41;}.cls-20{stroke-width:5px;}.cls-21{stroke-width:6px;}</style><clipPath id="clip-path"><rect class="cls-1" width="1200" height="630"/></clipPath></defs><g id="レイヤー_2" data-name="レイヤー 2"><g id="レイヤー_1-2" data-name="レイヤー 1"><rect class="cls-2" width="1200" height="630"/><circle class="cls-3" cx="938.09" cy="195.69" r="21.08"/><circle class="cls-3" cx="991.35" cy="432.13" r="21.08"/><circle class="cls-3" cx="1074.78" cy="366.57" r="21.08"/><circle class="cls-3" cx="701.96" cy="100.25" r="21.08"/><circle class="cls-3" cx="157.19" cy="337.99" r="21.08"/><circle class="cls-3" cx="54.71" cy="230.63" r="21.08"/><circle class="cls-3" cx="61.24" cy="21.08" r="21.08"/><circle class="cls-3" cx="1096.58" cy="105.22" r="21.08"/><circle class="cls-3" cx="1087.73" cy="539.13" r="21.08"/><circle class="cls-3" cx="808.33" cy="534.55" r="21.08"/><circle class="cls-3" cx="75.79" cy="496.43" r="21.08"/><circle class="cls-3" cx="486.55" cy="105.22" r="21.08"/><circle class="cls-3" cx="272.44" cy="566.26" r="21.08"/><circle class="cls-3" cx="819.84" cy="359.59" r="21.08"/><circle class="cls-3" cx="850.49" cy="63.05" r="21.08"/><text class="cls-4" transform="translate(129.18 288.52)">MAKE<tspan class="cls-5" x="-25.76" y="114">S</tspan><tspan x="44.49" y="114">A</tspan><tspan class="cls-6" x="135.08" y="114">N</tspan><tspan class="cls-7" x="232.5" y="114">T</tspan><tspan x="303.98" y="114">A</tspan></text><circle class="cls-3" cx="319.83" cy="195.13" r="21.08"/><circle class="cls-3" cx="444.38" cy="472.23" r="21.08"/><circle class="cls-3" cx="258.32" cy="46.91" r="21.08"/><circle class="cls-3" cx="633.56" cy="582.52" r="21.08"/><g class="cls-8"><path class="cls-9" d="M922.36,247c2,6.12,3.16,12.94.73,18.91-5.14,12.63-22,14.42-35.62,14.21q-23.52-.33-47-.69l-37.1-.55-32.05-.47c-15.87-.24-31.86-.48-47.41-3.76-2.07-.43-4.25-1-5.75-2.5s-2-3.67-2.39-5.76a54.59,54.59,0,0,1,9.73-41.07l.83-3.05c15,4,30.76,4.39,46.25,3.35,30.85-2.08,61.16-9.7,90.26-20.18,7.39-2.64,15-5.8,21.63-10l.34.57C899.94,211,915.62,226.77,922.36,247Zm-86.73,15.15c8.06,1,15.89-7.1,14.69-15.14s-11-13.38-18.38-10.2c-3.23.64-5.83,3.79-6.47,7.14-.75,3.78.43,7.68,1.91,11.26a13,13,0,0,0,2.63,4.44A9.63,9.63,0,0,0,835.63,262.16Z"/><path class="cls-9" d="M766.88,181.21a12,12,0,0,0-.69,24,11.85,11.85,0,1,0,.68-23.69ZM896.62,140.4c6.42,11.45,9.06,25.81,3.69,37.78-3.31,7.36-9,12.87-15.87,17.22-6.61,4.25-14.24,7.41-21.63,10-29.1,10.48-59.41,18.1-90.26,20.18-15.49,1-31.29.65-46.25-3.35-1.39-.37-2.77-.76-4.14-1.2-3.07-1-6.32-2.28-8-5-1.53-2.46-1.49-5.57-1.18-8.45,2.72-25.18,20.64-45.7,37.71-64.41l.15-4.37c4.68.17,9.36.1,14-.08a317.57,317.57,0,0,0,94.73-18.44,118.09,118.09,0,0,0,14.68-6.22C883.54,122.72,890.33,129.21,896.62,140.4Zm-27.5,27.94a16.11,16.11,0,0,0,.53-8.07,13.1,13.1,0,0,0-3.58-7.56,7,7,0,0,0-7.18-1.62l-1.71-.06a13.24,13.24,0,0,0-11.64,11.46,12.86,12.86,0,0,0,9.27,13.34A12.47,12.47,0,0,0,869.12,168.34Z"/><path class="cls-9" d="M874.25,114.09a118.09,118.09,0,0,1-14.68,6.22,317.57,317.57,0,0,1-94.73,18.44c-4.65.18-9.33.25-14,.08-10.53-.35-21-1.89-30.58-6-2.63-1.13-5.5-2.9-5.79-5.72-.2-1.83.75-3.55,1.68-5.13A274,274,0,0,1,833.61,15a161.31,161.31,0,0,0,44.26,50.35c8.08,6,17.71,13,17.71,23.07,0,4.43-2,8.67-4.65,12.23C886.6,106.46,880.73,110.71,874.25,114.09Zm-56.61-45c-4.83,3.52-6.13,10.84-5.41,17A14.5,14.5,0,0,0,813.52,91c2,3.94,7.08,5.83,11.32,4.61a12.35,12.35,0,0,0,8.29-9.5c1.6-8.24-6-16.94-14.37-16.48Z"/><path class="cls-10" d="M868.37,440.59c0,.52-1,1.32-1.79,1.32H854.13v-2.55a108,108,0,0,1-3.21-24.93q7.32-1.24,14.59-2.69A2.08,2.08,0,0,0,867,411a.69.69,0,0,0,.09-.34l3.64-.17q.7,15.07.69,30.13Z"/><path class="cls-10" d="M868.37,440.59l3,0q0,9.25-.25,18.49A328.71,328.71,0,0,1,831,464.78l-.33-4.08a157.08,157.08,0,0,1-.42-18.79h36.33C867.4,441.91,868.37,441.11,868.37,440.59Z"/><path class="cls-10" d="M867.05,410.65a.69.69,0,0,1-.09.34,2.08,2.08,0,0,1-1.45.75q-7.28,1.44-14.59,2.69c-7.57,1.29-15.19,2.42-22.81,3.38l-.33-2.65a106.92,106.92,0,0,1-.7-21.46l-1.32-5.86h0q10.75-2.38,21.4-5.26c4.67-1.27,9.32-2.59,13.94-4a7.33,7.33,0,0,1,4.51-.38c2.57.92,3.22,4.2,3.46,6.91q1,12.67,1.62,25.37Z"/><path class="cls-11" d="M858.89,151.09a7,7,0,0,1,7.18,1.62,13.1,13.1,0,0,1,3.58,7.56,16.11,16.11,0,0,1-.53,8.07,12.47,12.47,0,0,1-14.31,7.49,12.86,12.86,0,0,1-9.27-13.34A13.24,13.24,0,0,1,857.18,151Z"/><path class="cls-10" d="M830.25,441.91q-10.39,0-20.77,0v-2.17a54.29,54.29,0,0,1-1.73-18.16l-.14-1.52c6.84-.62,13.68-1.35,20.5-2.23,7.62-1,15.24-2.09,22.81-3.38a108,108,0,0,0,3.21,24.93v2.55Z"/><path class="cls-11" d="M831.94,236.82c7.42-3.18,17.16,2.22,18.38,10.2s-6.63,16.1-14.69,15.14a9.63,9.63,0,0,1-5.62-2.5,13,13,0,0,1-2.63-4.44c-1.48-3.58-2.66-7.48-1.91-11.26C826.11,240.61,828.71,237.46,831.94,236.82Z"/><path class="cls-12" d="M845.86,376.66l1.3,5.91q-10.63,2.87-21.4,5.26h0q-9.12,2-18.29,3.73l-.59-3.25c1.62-.31,2.27-3.24,2-5.26a555.53,555.53,0,0,1-5.52-103v-1.16l37.1.55-.06,3.89A661.92,661.92,0,0,0,845.86,376.66Z"/><path class="cls-11" d="M818.76,69.66c8.38-.46,16,8.24,14.37,16.48a12.35,12.35,0,0,1-8.29,9.5c-4.24,1.22-9.33-.67-11.32-4.61a14.5,14.5,0,0,1-1.29-4.92c-.72-6.19.58-13.51,5.41-17Z"/><path class="cls-10" d="M830.67,460.7l.33,4.08a331,331,0,0,1-34.06,1,5.23,5.23,0,0,1-3.11-.75,5.17,5.17,0,0,1-1.48-3.41c-1.05-6.4-2-12.81-2.86-19.24l3.76-.5h16.23q10.38,0,20.77,0A157.08,157.08,0,0,0,830.67,460.7Z"/><path class="cls-10" d="M827.78,415.16l.33,2.65c-6.82.88-13.66,1.61-20.5,2.23q-9.81.87-19.67,1.39l-1,.11c-.94-8.77-1.72-17.58-2.33-26.38l1.08-.08q10.9-1.51,21.76-3.51,9.18-1.69,18.29-3.73l1.32,5.86A106.92,106.92,0,0,0,827.78,415.16Z"/><path class="cls-10" d="M809.48,439.72v2.17H793.25l-3.76.5c-1-6.94-1.79-13.89-2.53-20.85l1-.11q9.85-.51,19.67-1.39l.14,1.52A54.29,54.29,0,0,0,809.48,439.72Z"/><path class="cls-11" d="M766.87,181.52a11.85,11.85,0,1,1-.68,23.69,12,12,0,0,1,.69-24Z"/><path class="cls-13" d="M833.91,14.85l-.3.14A274,274,0,0,0,716.14,122c-.93,1.58-1.88,3.3-1.68,5.13.29,2.82,3.16,4.59,5.79,5.72,9.62,4.14,20,5.68,30.58,6,4.68.17,9.36.1,14-.08a317.57,317.57,0,0,0,94.73-18.44,118.09,118.09,0,0,0,14.68-6.22c6.48-3.38,12.35-7.63,16.68-13.45,2.64-3.56,4.65-7.8,4.65-12.23,0-10.09-9.63-17-17.71-23.07A161.31,161.31,0,0,1,833.61,15l-1-1.77"/><path class="cls-13" d="M750.68,143.2c-17.07,18.71-35,39.23-37.71,64.41-.31,2.88-.35,6,1.18,8.45,1.69,2.74,4.94,4,8,5,1.37.44,2.75.83,4.14,1.2,15,4,30.76,4.39,46.25,3.35,30.85-2.08,61.16-9.7,90.26-20.18,7.39-2.64,15-5.8,21.63-10,6.83-4.35,12.56-9.86,15.87-17.22,5.37-12,2.73-26.33-3.69-37.78-6.29-11.19-13.08-17.68-22.37-26.31l-.63-.59"/><path class="cls-13" d="M884.78,196c15.16,15,30.84,30.8,37.58,51,2,6.12,3.16,12.94.73,18.91-5.14,12.63-22,14.42-35.62,14.21q-23.52-.33-47-.69l-37.1-.55-32.05-.47c-15.87-.24-31.86-.48-47.41-3.76-2.07-.43-4.25-1-5.75-2.5s-2-3.67-2.39-5.76a54.59,54.59,0,0,1,9.73-41.07"/><path class="cls-13" d="M803.33,280.05a555.53,555.53,0,0,0,5.52,103c.3,2-.35,4.95-2,5.26a1.88,1.88,0,0,1-.87-.07"/><path class="cls-13" d="M840.38,283.33a661.92,661.92,0,0,0,5.48,93.33"/><path class="cls-13" d="M785.71,395.08q10.9-1.51,21.76-3.51,9.18-1.69,18.29-3.73h0q10.75-2.38,21.4-5.26c4.67-1.27,9.32-2.59,13.94-4a7.33,7.33,0,0,1,4.51-.38c2.57.92,3.22,4.2,3.46,6.91q1,12.67,1.62,25.37.7,15.07.69,30.13,0,9.25-.25,18.49A328.71,328.71,0,0,1,831,464.78a331,331,0,0,1-34.06,1,5.23,5.23,0,0,1-3.11-.75,5.17,5.17,0,0,1-1.48-3.41c-1.05-6.4-2-12.81-2.86-19.24-1-6.94-1.79-13.89-2.53-20.85-.94-8.77-1.72-17.58-2.33-26.38,0-.28,0-.57,0-.85"/><path class="cls-13" d="M787.94,421.43q9.85-.51,19.67-1.39c6.84-.62,13.68-1.35,20.5-2.23,7.62-1,15.24-2.09,22.81-3.38q7.32-1.24,14.59-2.69A2.08,2.08,0,0,0,867,411a.69.69,0,0,0,.09-.34c0-.45-.39-.92-.78-.74"/><path class="cls-13" d="M793.25,441.89h16.23q10.38,0,20.77,0h36.33c.82,0,1.79-.8,1.79-1.32,0-.18-.09-.32-.36-.39"/><path class="cls-13" d="M827.08,393.7a106.92,106.92,0,0,0,.7,21.46"/><path class="cls-13" d="M807.75,421.56a54.29,54.29,0,0,0,1.73,18.16"/><path class="cls-13" d="M850.91,414.05c0,.13,0,.26,0,.38a108,108,0,0,0,3.21,24.93l-1.44-1.21"/><path class="cls-13" d="M830.26,441.35c0,.19,0,.37,0,.56a157.08,157.08,0,0,0,.42,18.79l-1.58-1.62"/><path class="cls-13" d="M858.23,151.41a3.64,3.64,0,0,1,.66-.32,7,7,0,0,1,7.18,1.62,13.1,13.1,0,0,1,3.58,7.56,16.11,16.11,0,0,1-.53,8.07,12.47,12.47,0,0,1-14.31,7.49,12.86,12.86,0,0,1-9.27-13.34A13.24,13.24,0,0,1,857.18,151"/><path class="cls-13" d="M766.83,181.52h0a11.85,11.85,0,1,1-.68,23.69,12,12,0,0,1,.69-24,4.18,4.18,0,0,1,.5,0"/><path class="cls-13" d="M818.76,69.66c8.38-.46,16,8.24,14.37,16.48a12.35,12.35,0,0,1-8.29,9.5c-4.24,1.22-9.33-.67-11.32-4.61a14.5,14.5,0,0,1-1.29-4.92c-.72-6.19.58-13.51,5.41-17A10.25,10.25,0,0,1,819.52,68"/><path class="cls-13" d="M831.94,236.82a5.52,5.52,0,0,1,1.35-.13"/><path class="cls-13" d="M831.94,236.82c7.42-3.18,17.16,2.22,18.38,10.2s-6.63,16.1-14.69,15.14a9.63,9.63,0,0,1-5.62-2.5,13,13,0,0,1-2.63-4.44c-1.48-3.58-2.66-7.48-1.91-11.26C826.11,240.61,828.71,237.46,831.94,236.82Z"/><path class="cls-13" d="M831.83,236.86l.11,0"/><path class="cls-14" d="M1147.59,327.89c11.25.59,22.73,9.62,22.12,20.88-.56,10.31-10.17,17.51-19.06,22.77-9.51,5.63-20,11-31,10a29.27,29.27,0,0,1-20.52-11.36c-3.18-4.21-5.56-9.59-10.46-11.56-3.57-1.44-7.62-.65-11.43-1.19s-7.9-3.56-7.13-7.26h.06c1.64-4.27,4.56-9.37,9.11-8.83,2.65.32,4.6,2.54,6.82,4,4.55,3,10.58,3,15.77,1.3s9.77-4.84,14.37-7.79C1125.7,332.82,1136.33,327.28,1147.59,327.89Z"/><path class="cls-15" d="M1094.29,275.49c1.79,5.06,3.55,10.84,1,15.58a16.06,16.06,0,0,1-3,3.72,39.74,39.74,0,0,1-4.43,3.77l-.37-.05a20,20,0,0,0-.7-8.36c-.77-2.52-2.15-5-4.47-6.26a12.08,12.08,0,0,0-5.12-1.13c-.79,0-1.57-.07-2.37-.08v-.15c-.58-3.23.82-6.49,2.52-9.31,2.21-3.64,6-7.29,10.15-6.25C1091.24,267.88,1093,271.93,1094.29,275.49Z"/><path class="cls-16" d="M1086.87,290.15a20,20,0,0,1,.7,8.36,20.66,20.66,0,0,1-5,11.13c-4.2,4.71-10.29,7.19-16.15,9.53l-15.92,6.32c-4.66-3.32-9.39-6.62-12.77-11.2-3.61-4.87-5.33-11.71-2.82-17.08l.11.06a59.79,59.79,0,0,1,39.84-14.59c.8,0,1.58,0,2.37.08a12.08,12.08,0,0,1,5.12,1.13C1084.72,285.14,1086.1,287.63,1086.87,290.15Z"/><path class="cls-14" d="M1067.12,188.35c7.6,1.42,13.67,9.47,11.92,17s-11.83,11.85-18,7.35c1.42-4-.65-8.8-4-11.58a22.76,22.76,0,0,0-8.83-4.71,17.53,17.53,0,0,1,12.1-8.1A18.91,18.91,0,0,1,1067.12,188.35Z"/><path class="cls-15" d="M967.84,269.18h0a30.23,30.23,0,0,1-12.31,2.4,25.33,25.33,0,0,1-3.58-.32,18,18,0,0,1-6.54-2.28c-6.62-4-9.19-12.66-8.14-20.31s5-14.56,9-21.18V227c33.4-.23,66.85-3.5,100.13-6.78a47.55,47.55,0,0,0,5.06-.75c-1.4,7.33.54,15,6.84,19,1.45.92,3.15,1.43,4.54,2.44,3.6,2.6,4.22,8,2.31,12s-5.77,6.75-9.8,8.59c-3.85,1.76-8.08,6.06-9.4,10.08l-.61.3c-4.81-4.09-12.15-5.35-19.08-5.22-1.07,0-2.13.06-3.17.15C1004.44,267.63,986.36,266.44,967.84,269.18ZM997.5,239a2.25,2.25,0,0,0,0-3.18,2.64,2.64,0,0,0-3.29-.1,1.67,1.67,0,0,0,.34,2.63A2,2,0,0,0,997.5,239Z"/><path class="cls-14" d="M1061.05,212.7q-.1.3-.24.6c-1.61,3.6-5.35,5.28-9.37,6.14a47.55,47.55,0,0,1-5.06.75c-33.28,3.28-66.73,6.55-100.13,6.78-14.18.11-28.36-.34-42.5-1.58-1.16-.09-2.31-.19-3.46-.31-5.73-.54-11.77-1.36-16.24-5s-6.4-11-2.44-15.13a10.3,10.3,0,0,1,5.84-2.74c3-.58,6.58-.68,10.23-1.62,76.58-4.95,98.23-3.2,146.82-4.62a15.07,15.07,0,0,1,3.73.4,22.76,22.76,0,0,1,8.83,4.71C1060.4,203.9,1062.47,208.66,1061.05,212.7Z"/><path class="cls-16" d="M1045.21,146c11.73,10.34,18.75,26.81,15.07,42l0,.33a17.53,17.53,0,0,0-12.1,8.1,15.07,15.07,0,0,0-3.73-.4c-48.59,1.42-70.24-.33-146.82,4.62-3.65.94-7.2,1-10.23,1.62-1.67-15.73,8.22-30.45,19.78-41.23a122.77,122.77,0,0,1,95-31.9C1017.8,130.72,1033.49,135.63,1045.21,146Z"/><path class="cls-16" d="M1050.55,325.49l-10.77,4.28c-2.86,1.12-6.06,2.28-8.93,1.17-3.89-7.28-8.13-14.37-11.88-21.28l-3.63-.44c5.8-3.75,11.32-9,16.33-13.68l3.6,1c-.11.21-.22.42-.31.64-2.51,5.37-.79,12.21,2.82,17.08C1041.16,318.87,1045.89,322.17,1050.55,325.49Z"/><path class="cls-14" d="M1023.07,266.81l3.17-.15c6.93-.13,14.27,1.13,19.08,5.22a14.58,14.58,0,0,1,3.74,4.82c3.56,7.45-10.2,12.14-16.25,17.77l-1.14,1.07c-5,4.67-10.53,9.93-16.33,13.68q-1.33.87-2.7,1.62c-6.83,3.75-4.26,9.24-9.93,14.57-3,2.86-6,6-9.86,7.59s-8.35,1.46-12.61,1.26l-29.16-1.33c-1.19-.06-2.4-.12-3.58-.28a12.6,12.6,0,0,1-4.7-1.43,18.25,18.25,0,0,1-4.24-3.85c-.33-.36-.64-.73-.94-1.09C928.2,315,928,303.7,917.94,292.42c-4.67-5.24-12.51-12.56-9.68-19,1.67-3.82,3-6,5.16-6.79,1.72-.67,3.93-.49,7.2.37,10,2.61,9.77,4.92,31.26,4.57l0-.32a25.33,25.33,0,0,0,3.58.32,30.23,30.23,0,0,0,12.31-2.4h0C986.36,266.44,1004.44,267.63,1023.07,266.81Z"/><path class="cls-16" d="M981.88,360.37a2.24,2.24,0,0,0-1.21,1,5,5,0,0,0-.62,2.23,7.18,7.18,0,0,0,.35,3.57,4.6,4.6,0,0,0,5.67,2.34,4.81,4.81,0,0,0,2.75-5.53,5,5,0,0,0-5.15-3.53Zm1.78,19.75a3.24,3.24,0,0,0-2.26,2.71,7,7,0,0,0,1.22,4.33,5.12,5.12,0,0,0,1.3,1.65,4,4,0,0,0,4,.2,5,5,0,0,0,2.7-3.12,4.24,4.24,0,0,0-.93-3.94c-1.47-1.56-3.85-1.61-6-1.49Zm47.19-49.18c5.72,10.72,10.67,21.84,12.21,33.29.65,4.8-2.67,12.33-6.78,14.85a12.83,12.83,0,0,0-4,4.4c-1.36,2.22-2.54,4.64-4.4,6.42-9.1,8.77-18.94,17.93-31.34,20.36l-.7.13c-8.83,1.55-18-.53-26.24-4.09a25.45,25.45,0,0,1-8-4.89,12.77,12.77,0,0,1-.88-.93c-3.13-3.59-4.59-8.39-5.8-13a236.24,236.24,0,0,1-5.35-27.14,230.7,230.7,0,0,1-2.11-27.66c1.18.16,2.39.22,3.58.28l29.16,1.33c4.26.2,8.67.37,12.61-1.26s6.82-4.73,9.86-7.59c5.67-5.33,3.1-10.82,9.93-14.57q1.36-.75,2.7-1.62l3.63.44C1022.72,316.57,1027,323.66,1030.85,330.94ZM987,347.32a3.49,3.49,0,0,0-1-2.32,5.06,5.06,0,0,0-4.76-1.51l-.27.07a4,4,0,0,0,1,7.86,6,6,0,0,0,2.33-.69C985.65,350,987,348.83,987,347.32Z"/><path class="cls-10" d="M1013.37,435.75l1.18-2.22a9,9,0,0,0,1.69.79c3.1,1,6.42-.3,9.42-1.61,4.88-2.11,10.12-4.54,12.63-9.24a18.38,18.38,0,0,0,1.81-6.7l.83.09q1,9.74,2.09,19.47a2.44,2.44,0,0,1-.07,1.17,2.31,2.31,0,0,1-1.09,1q-10.11,6-20.24,12c-2.72,1.62-5.53,3.26-8.66,3.71-2.13.3-4.51-.07-6-1.66a7.08,7.08,0,0,1-1.4-2.54,12.18,12.18,0,0,1,.61-10A8.61,8.61,0,0,1,1013.37,435.75Z"/><path class="cls-16" d="M999.92,419.74a25.86,25.86,0,0,1-3.66-7l-.42-2.32.7-.13c12.4-2.43,22.24-11.59,31.34-20.36,1.86-1.78,3-4.2,4.4-6.42l.08,0a52.62,52.62,0,0,1,7.82,32.45c0,.26,0,.53-.08.79a18.38,18.38,0,0,1-1.81,6.7c-2.51,4.7-7.75,7.13-12.63,9.24-3,1.31-6.32,2.62-9.42,1.61a9,9,0,0,1-1.69-.79,22.82,22.82,0,0,1-2.52-1.87C1007.68,428.06,1003.17,424.27,999.92,419.74Z"/><path class="cls-16" d="M950.16,428.32c.25-9.94,5.35-19.2,10.6-27.84a12.77,12.77,0,0,0,.88.93,25.45,25.45,0,0,0,8,4.89c8.24,3.56,17.41,5.64,26.24,4.09l.42,2.32a25.86,25.86,0,0,0,3.66,7c-.59,6.71-3.74,13-6.85,19.05-1.19,2.31-2.63,4.85-5.13,5.57a6.1,6.1,0,0,1-1.12.19,13.18,13.18,0,0,1-3.51-.43c-9.06-2-18.08-4.3-27-6.88-2-.55-4.09-1.25-5.2-3a7.46,7.46,0,0,1-.93-3.73Q950.13,429.42,950.16,428.32Z"/><path class="cls-15" d="M997.47,235.79a2.25,2.25,0,0,1,0,3.18,2,2,0,0,1-3-.65,1.67,1.67,0,0,1-.34-2.63A2.64,2.64,0,0,1,997.47,235.79Z"/><path class="cls-10" d="M986.82,444.55,987,446c-3.48,2.5-5.43,7.32-9.57,8.64a13.35,13.35,0,0,1-4.18.44h-22.6c-6.09,0-12.62-.13-17.6-3.65-2.93-2.07-5-5.14-6.77-8.28-2.88-5.15-5-11.77-1.8-16.75,2.65-4.16,8.3-5.56,13.13-4.59,4.67.93,8.74,3.65,12.58,6.48q0,1.1,0,2.22a7.46,7.46,0,0,0,.93,3.73c1.11,1.72,3.23,2.42,5.2,3,8.91,2.58,17.93,4.87,27,6.88A13.18,13.18,0,0,0,986.82,444.55Z"/><path class="cls-15" d="M951.93,271.26l0,.32c-21.49.35-21.25-2-31.26-4.57-3.27-.86-5.48-1-7.2-.37l-.54-.93q-4.62-19.47-9.26-38.93l.13-1.39c14.14,1.24,28.32,1.69,42.5,1.58v.52c-4,6.62-8,13.52-9,21.18S938.77,265,945.39,269A18,18,0,0,0,951.93,271.26Zm-28.26-29.51c1.39-.35,1.94-2.54.74-3.3-.38-.56-2.61-1.32-3.12-.87a2.07,2.07,0,0,0-.61,1.85A2.64,2.64,0,0,0,923.67,241.75Z"/><path class="cls-16" d="M935.37,328.47l2.25-2.19c.3.36.61.73.94,1.09a18.25,18.25,0,0,0,4.24,3.85,12.6,12.6,0,0,0,4.7,1.43,230.7,230.7,0,0,0,2.11,27.66l-1.18.17c-3.58,6.08-8.81,11.31-15.3,14.08A25.05,25.05,0,0,1,921,376.44a20.73,20.73,0,0,1-8.26-2.58,18.25,18.25,0,0,1-9.19-15.57,14.18,14.18,0,0,1,.18-2.15c1.15-7.23,7.09-12.64,12.91-17.1,3-2.29,6-4.5,9.12-6.61C928.67,330.45,931.93,328.47,935.37,328.47Z"/><path class="cls-15" d="M924.41,238.45c1.2.76.65,3-.74,3.3a2.64,2.64,0,0,1-3-2.32,2.07,2.07,0,0,1,.61-1.85C921.8,237.13,924,237.89,924.41,238.45Z"/><path class="cls-15" d="M921,376.44l0,.26-18.13,1.18c-4.13.27-8.49.49-12.16-1.39-4.25-2.18-6.77-6.88-7.43-11.61-.67-4.91,1.05-10.77,5.68-12.56a9.82,9.82,0,0,1,7.86.74,21.64,21.64,0,0,1,6.15,5.22h.6a18.25,18.25,0,0,0,9.19,15.57A20.73,20.73,0,0,0,921,376.44Z"/><path class="cls-17" d="M897.68,200.63c76.58-4.95,98.23-3.2,146.82-4.62a15.07,15.07,0,0,1,3.73.4,22.76,22.76,0,0,1,8.83,4.71c3.34,2.78,5.41,7.54,4,11.58q-.1.3-.24.6c-1.61,3.6-5.35,5.28-9.37,6.14a47.55,47.55,0,0,1-5.06.75c-33.28,3.28-66.73,6.55-100.13,6.78-14.18.11-28.36-.34-42.5-1.58-1.16-.09-2.31-.19-3.46-.31-5.73-.54-11.77-1.36-16.24-5s-6.4-11-2.44-15.13a10.3,10.3,0,0,1,5.84-2.74c3-.58,6.58-.68,10.23-1.62"/><path class="cls-17" d="M887.45,202.27v0c-1.67-15.73,8.22-30.45,19.78-41.23a122.77,122.77,0,0,1,95-31.9c15.54,1.6,31.23,6.51,43,16.85s18.75,26.81,15.07,42"/><path class="cls-17" d="M1048,196.85c.09-.16.17-.3.26-.44a17.53,17.53,0,0,1,12.1-8.1,18.91,18.91,0,0,1,6.79,0c7.6,1.42,13.67,9.47,11.92,17s-11.83,11.85-18,7.35l-.16-.12"/><path class="cls-17" d="M967.84,269.18a31.26,31.26,0,0,0,14.64-12.44"/><path class="cls-17" d="M946.25,227.49c-4,6.62-8,13.52-9,21.18S938.77,265,945.39,269a18,18,0,0,0,6.54,2.28,25.33,25.33,0,0,0,3.58.32,30.23,30.23,0,0,0,12.31-2.4"/><path class="cls-17" d="M1026.24,266.66l-3.17.15c-18.63.82-36.71-.37-55.23,2.37h0"/><path class="cls-17" d="M1022.47,266.85l.6,0c1-.09,2.1-.14,3.17-.15,6.93-.13,14.27,1.13,19.08,5.22a14.58,14.58,0,0,1,3.74,4.82c3.56,7.45-10.2,12.14-16.25,17.77l-1.14,1.07c-5,4.67-10.53,9.93-16.33,13.68q-1.33.87-2.7,1.62c-6.83,3.75-4.26,9.24-9.93,14.57-3,2.86-6,6-9.86,7.59s-8.35,1.46-12.61,1.26l-29.16-1.33c-1.19-.06-2.4-.12-3.58-.28a12.6,12.6,0,0,1-4.7-1.43,18.25,18.25,0,0,1-4.24-3.85c-.33-.36-.64-.73-.94-1.09C928.2,315,928,303.7,917.94,292.42c-4.67-5.24-12.51-12.56-9.68-19,1.67-3.82,3-6,5.16-6.79,1.72-.67,3.93-.49,7.2.37,10,2.61,9.77,4.92,31.26,4.57"/><path class="cls-17" d="M903.62,226.78q4.64,19.46,9.26,38.93"/><path class="cls-17" d="M1051.44,219.44c-1.4,7.33.54,15,6.84,19,1.45.92,3.15,1.43,4.54,2.44,3.6,2.6,4.22,8,2.31,12s-5.77,6.75-9.8,8.59c-3.85,1.76-8.08,6.06-9.4,10.08"/><path class="cls-17" d="M924.41,238.45c1.2.76.65,3-.74,3.3a2.64,2.64,0,0,1-3-2.32,2.07,2.07,0,0,1,.61-1.85C921.8,237.13,924,237.89,924.41,238.45Z"/><path class="cls-17" d="M994.52,238.32a1.67,1.67,0,0,1-.34-2.63,2.64,2.64,0,0,1,3.29.1,2.25,2.25,0,0,1,0,3.18A2,2,0,0,1,994.52,238.32Z"/><path class="cls-17" d="M1019,309.66c3.75,6.91,8,14,11.88,21.28,5.72,10.72,10.67,21.84,12.21,33.29.65,4.8-2.67,12.33-6.78,14.85a12.83,12.83,0,0,0-4,4.4c-1.36,2.22-2.54,4.64-4.4,6.42-9.1,8.77-18.94,17.93-31.34,20.36l-.7.13c-8.83,1.55-18-.53-26.24-4.09a25.45,25.45,0,0,1-8-4.89,12.77,12.77,0,0,1-.88-.93c-3.13-3.59-4.59-8.39-5.8-13a236.24,236.24,0,0,1-5.35-27.14,230.7,230.7,0,0,1-2.11-27.66v-.17"/><path class="cls-17" d="M936.61,328.56a8.62,8.62,0,0,0-1.24-.09c-3.44,0-6.7,2-9.6,4-3.1,2.11-6.15,4.32-9.12,6.61-5.82,4.46-11.76,9.87-12.91,17.1a14.18,14.18,0,0,0-.18,2.15,18.25,18.25,0,0,0,9.19,15.57,20.73,20.73,0,0,0,8.26,2.58,25.05,25.05,0,0,0,12.12-1.88c6.49-2.77,11.72-8,15.3-14.08"/><path class="cls-17" d="M921,376.7l-18.13,1.18c-4.13.27-8.49.49-12.16-1.39-4.25-2.18-6.77-6.88-7.43-11.61-.67-4.91,1.05-10.77,5.68-12.56a9.82,9.82,0,0,1,7.86.74,21.64,21.64,0,0,1,6.15,5.22"/><path class="cls-17" d="M1035.07,297.27a59.79,59.79,0,0,1,39.84-14.59c.8,0,1.58,0,2.37.08a12.08,12.08,0,0,1,5.12,1.13c2.32,1.25,3.7,3.74,4.47,6.26a20,20,0,0,1,.7,8.36,20.66,20.66,0,0,1-5,11.13c-4.2,4.71-10.29,7.19-16.15,9.53l-15.92,6.32-10.77,4.28c-2.86,1.12-6.06,2.28-8.93,1.17h0"/><path class="cls-17" d="M1074.91,282.53c-.58-3.23.82-6.49,2.52-9.31,2.21-3.64,6-7.29,10.15-6.25,3.66.91,5.44,5,6.71,8.52,1.79,5.06,3.55,10.84,1,15.58a16.06,16.06,0,0,1-3,3.72,39.74,39.74,0,0,1-4.43,3.77"/><path class="cls-17" d="M996.26,412.71a25.86,25.86,0,0,0,3.66,7c3.25,4.53,7.76,8.32,12.11,11.92a22.82,22.82,0,0,0,2.52,1.87,9,9,0,0,0,1.69.79c3.1,1,6.42-.3,9.42-1.61,4.88-2.11,10.12-4.54,12.63-9.24a18.38,18.38,0,0,0,1.81-6.7c0-.26.06-.53.08-.79a52.62,52.62,0,0,0-7.82-32.45"/><path class="cls-17" d="M1000,417.87c0,.62,0,1.26-.1,1.87-.59,6.71-3.74,13-6.85,19.05-1.19,2.31-2.63,4.85-5.13,5.57a6.1,6.1,0,0,1-1.12.19,13.18,13.18,0,0,1-3.51-.43c-9.06-2-18.08-4.3-27-6.88-2-.55-4.09-1.25-5.2-3a7.46,7.46,0,0,1-.93-3.73q-.06-1.12,0-2.22c.25-9.94,5.35-19.2,10.6-27.84l1-1.67"/><path class="cls-17" d="M988.56,445.11A9,9,0,0,0,987,446c-3.48,2.5-5.43,7.32-9.57,8.64a13.35,13.35,0,0,1-4.18.44h-22.6c-6.09,0-12.62-.13-17.6-3.65-2.93-2.07-5-5.14-6.77-8.28-2.88-5.15-5-11.77-1.8-16.75,2.65-4.16,8.3-5.56,13.13-4.59,4.67.93,8.74,3.65,12.58,6.48l.43.31"/><path class="cls-17" d="M1040.93,416.86q1,9.74,2.09,19.47a2.44,2.44,0,0,1-.07,1.17,2.31,2.31,0,0,1-1.09,1q-10.11,6-20.24,12c-2.72,1.62-5.53,3.26-8.66,3.71-2.13.3-4.51-.07-6-1.66a7.08,7.08,0,0,1-1.4-2.54,12.18,12.18,0,0,1,.61-10,8.61,8.61,0,0,1,7.17-4.31,7,7,0,0,1,1.5.17"/><path class="cls-17" d="M981.24,343.49A5.06,5.06,0,0,1,986,345a3.49,3.49,0,0,1,1,2.32c0,1.51-1.32,2.71-2.68,3.41a6,6,0,0,1-2.33.69,4,4,0,0,1-1-7.86"/><path class="cls-17" d="M983.67,360.43a5,5,0,0,1,5.15,3.53,4.81,4.81,0,0,1-2.75,5.53,4.6,4.6,0,0,1-5.67-2.34,7.18,7.18,0,0,1-.35-3.57,5,5,0,0,1,.62-2.23,2.24,2.24,0,0,1,1.21-1,1.79,1.79,0,0,1,.73-.07"/><path class="cls-17" d="M983.42,380.47h.25c2.16-.12,4.54-.07,6,1.49a4.24,4.24,0,0,1,.93,3.94,5,5,0,0,1-2.7,3.12,4,4,0,0,1-4-.2,5.12,5.12,0,0,1-1.3-1.65,7,7,0,0,1-1.22-4.33,3.24,3.24,0,0,1,2.26-2.71,2,2,0,0,1,.81,0"/><path class="cls-17" d="M1035.75,295.76q-.26.4-.48.81c-.11.21-.22.42-.31.64-2.51,5.37-.79,12.21,2.82,17.08,3.38,4.58,8.11,7.88,12.77,11.2q1.14.79,2.25,1.62a127.93,127.93,0,0,1,19.66,17.83"/><path class="cls-17" d="M1070.14,350.18c1.64-4.27,4.56-9.37,9.11-8.83,2.65.32,4.6,2.54,6.82,4,4.55,3,10.58,3,15.77,1.3s9.77-4.84,14.37-7.79c9.49-6.07,20.12-11.61,31.38-11s22.73,9.62,22.12,20.88c-.56,10.31-10.17,17.51-19.06,22.77-9.51,5.63-20,11-31,10a29.27,29.27,0,0,1-20.52-11.36c-3.18-4.21-5.56-9.59-10.46-11.56-3.57-1.44-7.62-.65-11.43-1.19s-7.9-3.56-7.13-7.26a.5.5,0,0,1,0-.12"/><path class="cls-14" d="M558.21,213.79c-8.89-1.53-14.05,12.08-8.46,19.16,5,6.3,13.85,7.64,22,6.55-.83-4.48,1.47-9.09,5.07-12.21l-1.15-.15a11.66,11.66,0,0,1-2.78-1.5l-.1-.06-.14-.11a23.08,23.08,0,0,1-6.38-6.42C563.92,216.55,561.48,214.34,558.21,213.79Z"/><path class="cls-16" d="M738.19,242.36l.1-.83c.76-34.45-20.56-68-51.39-83.4s-69.51-12.73-98.82,5.39c-11.31,7-21.74,16.76-25.55,29.5a31.7,31.7,0,0,0,3.71,26c2.06,2.22,4,4.68,6.38,6.42l.14.11.1.06a22.45,22.45,0,0,0,2.78,1.5l1.15.15A16.9,16.9,0,0,1,581,224.6c6.24-2.7,13.32-1.35,20.11-1.52,49.35-1.2,98.7,6.14,136.92,19.55C738.83,242.63,739.67,242.65,738.19,242.36Z"/><path class="cls-15" d="M568.61,261.47c-4.94,6.17-8.86,16.63-2.09,20.7,3.58,2.16,8.41.93,12.11,2.88a27.84,27.84,0,0,1,7.56,5.2,10.7,10.7,0,0,0,2.32,1.52,6.6,6.6,0,0,1,2,1,44.65,44.65,0,0,0,10.37,2.9c18.36,1.92,32.35,4.81,51.81,15.57a27.75,27.75,0,0,0,7.74,2.83l2-13a33.49,33.49,0,0,1-24.62-17.74l-5.39-13.64a3.24,3.24,0,0,1-1.17.22,3.19,3.19,0,1,1,0-6.38h.33l1.84-15.08-59.65-7.29C578.48,246.7,573.37,255.52,568.61,261.47Z"/><path class="cls-14" d="M573.81,241.07l59.65,7.29,35.67,4.36,34.22,4.19c10.66,1.3,17,1.46,22.73-1.31,4.37-2.13,8.34-6,13.55-12.42-3.23-.54-2.46-.56-1.57-.55-38.22-13.41-87.57-20.75-136.92-19.55-6.79.17-13.87-1.18-20.11,1.52a16.9,16.9,0,0,0-4.24,2.69c-3.6,3.12-5.9,7.73-5.07,12.21a10.71,10.71,0,0,0,.35,1.35Z"/><path class="cls-14" d="M715,291l-.4-.37c-9,9.37-18.79,19.17-31.45,22.26-7.25,1.77-15.33,2.68-22.65,1.13a27.75,27.75,0,0,1-7.74-2.83c-19.46-10.76-33.45-13.65-51.81-15.57a44.65,44.65,0,0,1-10.37-2.9c-.73-.31-1.42-.62-2-1-6.93-1.87-17.23,6.53-14.57,13.35a16.4,16.4,0,0,0,5,6.24c7.9,6.64,17.38,10.78,27,14.75s19.42,7.81,27.86,13.83c9.24,6.58,16.83,15.76,27.31,20.12a35.59,35.59,0,0,0,14.22,2.63,42.76,42.76,0,0,0,22.83-7.25c10.77-7.22,18.15-18.8,21.93-31.2C723.57,312.93,723.53,299.05,715,291Z"/><path class="cls-16" d="M615.86,412.33c2.88-2.59,4.33-6.95,5.28-11a11,11,0,0,1,8.71,2.47c2.31,2.16,3.18,6,1.44,8.64-1.53,2.34-4.63,3.27-7.41,3s-5.36-1.59-7.86-2.87ZM659.52,394l1,.29a155.85,155.85,0,0,0,2.76,18.86,4.3,4.3,0,0,0,.65,1.76c.91,1.21,2.71,1.14,4.21.95a3.37,3.37,0,0,0,1.27-.34,1.27,1.27,0,0,0,.34-.27,2.55,2.55,0,0,0,.47-1.47c1.33-14.63,3.67-34.46,5-49.09l.18-2a35.59,35.59,0,0,1-14.22-2.63c-10.48-4.36-18.07-13.54-27.31-20.12-8.44-6-18.21-9.84-27.86-13.83l-1.29,3.13c-6.9,5.62-10,14.71-12.36,23.36a268.52,268.52,0,0,0-7.64,40.95c-.31,2.9-.56,5.87.3,8.66,1.64,5.3,6.58,8.23,12.1,10l-.7,2.12a25.44,25.44,0,0,0-3.32,10.88,4.71,4.71,0,0,0,.33,2.53c.62,1.21,2,1.73,3.33,2.14l5.54,1.77-.12,1.11q10.25,1.08,20.5,2.2l4.26.45a20.11,20.11,0,0,0,6.29,0,11.35,11.35,0,0,0,3.06-1.12c2.88-1.52,5.21-4.17,7.18-6.83C650.89,417.48,655.78,406,659.52,394ZM634,388.49a3.19,3.19,0,0,1-.35-2.5,6.23,6.23,0,0,1,7.37-4.55l.69.7a3.11,3.11,0,0,1,1.67,1.74,5,5,0,0,1,.12,4.81,4.39,4.39,0,0,1-3.52,1.83,10.37,10.37,0,0,1-4-.8A4.11,4.11,0,0,1,634,388.49Zm3.81-20.89a5.89,5.89,0,0,1,2.13-4.41,4.55,4.55,0,0,1,4.73-.59l.53.67a4.9,4.9,0,0,1,0,6.08,4.76,4.76,0,0,1-6,.94A3.07,3.07,0,0,1,638,368.8,3.5,3.5,0,0,1,637.82,367.6Z"/><path class="cls-10" d="M582,450.7q-.78,7.38-1.54,14.76a23.33,23.33,0,0,0-.13,5.41,2,2,0,0,0,.46,1.16,2,2,0,0,0,1.21.45l5.19.79c2,.3,4.13.55,5.74-.59a6,6,0,0,0,2.13-3.53,17.68,17.68,0,0,0,.23-6.95c-.48-3.43-1.56-6.88-2.11-10.32a8.17,8.17,0,0,1,.19-4.2,1.59,1.59,0,0,1,.16-.32,43.55,43.55,0,0,0-9.33.83,2.87,2.87,0,0,0-1.6.69A3,3,0,0,0,582,450.7Z"/><path class="cls-16" d="M602.14,432.77l.12-1.11-5.54-1.77-3.85,0a43.4,43.4,0,0,0,2,6.27q1.65,4.4,3.29,8.79,2.85,7.58,5.67,15.16l5.37,14.35a3.54,3.54,0,0,0,.77,1.38,2.41,2.41,0,0,0,1.49.59,9,9,0,0,0,1.16,0c2.62-.1,5.38-.24,7.6-1.65,2.95-1.86,4-5.22,4.32-8.83a36.08,36.08,0,0,0-.1-6.07l-.54-6.42q-.72-8.4-1.42-16.8l.19-1.75Q612.4,433.86,602.14,432.77Z"/><path class="cls-16" d="M593.5,447.36a1.59,1.59,0,0,0-.16.32,8.17,8.17,0,0,0-.19,4.2c.55,3.44,1.63,6.89,2.11,10.32l1-.17,5.68-1.21,1.81-.67Q601,452.56,598.13,445l-1.46.56A3.12,3.12,0,0,0,593.5,447.36Z"/><path class="cls-18" d="M631.29,263.43a3.19,3.19,0,1,0,0,6.38,3.24,3.24,0,0,0,1.17-.22,3.19,3.19,0,0,0-.84-6.15Z"/><path class="cls-10" d="M609,477.12c-1,2.64.82,5.71,3.36,6.95s5.51,1.12,8.33.87c8.27-.76,16.8-2.59,23.33-7.74,2.89-2.28,5.46-5.79,4.62-9.38a9.09,9.09,0,0,0-3.57-4.9,15.47,15.47,0,0,0-12.73-3.23,11.62,11.62,0,0,0-7.85,6.32c-.27,3.61-1.37,7-4.32,8.83-2.22,1.41-5,1.55-7.6,1.65a9,9,0,0,1-1.16,0Z"/><path class="cls-15" d="M615.86,412.33l.16.17c2.5,1.28,5.06,2.58,7.86,2.87s5.88-.63,7.41-3c1.74-2.66.87-6.48-1.44-8.64a11,11,0,0,0-8.71-2.47C620.19,405.38,618.74,409.74,615.86,412.33Z"/><path class="cls-15" d="M633.46,248.36l-1.84,15.08a3.19,3.19,0,0,1,.84,6.15l5.39,13.64A33.49,33.49,0,0,0,662.47,301c.54.08,1.08.15,1.62.2,5.79.55,12.22-.76,15.86-5.3,2.63-3.28,3.36-7.68,3.51-11.89.38-11.77-4.1-24.64-14.45-30.26l.12-1Z"/><path class="cls-16" d="M622.64,435l-.19,1.75q.7,8.38,1.42,16.8l2.21-.19a73.39,73.39,0,0,0,11.23-17.56l-1.06-1.44a11.35,11.35,0,0,1-3.06,1.12,20.11,20.11,0,0,1-6.29,0Z"/><path class="cls-19" d="M633.66,386a3.19,3.19,0,0,0,.35,2.5,4.11,4.11,0,0,0,2,1.23,10.37,10.37,0,0,0,4,.8,4.39,4.39,0,0,0,3.52-1.83,5,5,0,0,0-.12-4.81,3.11,3.11,0,0,0-1.67-1.74l-.69-.7A6.23,6.23,0,0,0,633.66,386Z"/><path class="cls-19" d="M640,363.19a5.89,5.89,0,0,0-2.13,4.41,3.5,3.5,0,0,0,.14,1.2,3.07,3.07,0,0,0,1.27,1.49,4.76,4.76,0,0,0,6-.94,4.9,4.9,0,0,0,0-6.08l-.53-.67A4.55,4.55,0,0,0,640,363.19Z"/><path class="cls-15" d="M662.47,301l-2,13c7.32,1.55,15.4.64,22.65-1.13,12.66-3.09,22.42-12.89,31.45-22.26l.4.37q6.38-15.6,12.78-31.23l-1.68-4.17c-5.69,2.77-12.07,2.61-22.73,1.31l-34.22-4.19-.12,1c10.35,5.62,14.83,18.49,14.45,30.26-.15,4.21-.88,8.61-3.51,11.89-3.64,4.54-10.07,5.85-15.86,5.3C663.55,301.12,663,301.05,662.47,301ZM693,271a3.2,3.2,0,1,1,3.2,3.19A3.2,3.2,0,0,1,693,271Z"/><path class="cls-18" d="M696.16,267.75a3.2,3.2,0,1,0,3.19,3.19A3.2,3.2,0,0,0,696.16,267.75Z"/><path class="cls-14" d="M738.06,242.63c-.89,0-1.66,0,1.57.55Z"/><path class="cls-20" d="M739.63,243.18l-1.57-.55c-38.22-13.41-87.57-20.75-136.92-19.55-6.79.17-13.87-1.18-20.11,1.52a16.9,16.9,0,0,0-4.24,2.69c-3.6,3.12-5.9,7.73-5.07,12.21a10.71,10.71,0,0,0,.35,1.35l1.74.22,59.65,7.29,35.67,4.36,34.22,4.19c10.66,1.3,17,1.46,22.73-1.31,4.37-2.13,8.34-6,13.55-12.42-3.23-.54-2.46-.56-1.57-.55s1.61,0,.13-.27c-.35-.08-.85-.16-1.52-.28"/><path class="cls-20" d="M572.62,225.47c-2.36-1.74-4.32-4.2-6.38-6.42-2.32-2.5-4.76-4.71-8-5.26-8.89-1.53-14.05,12.08-8.46,19.16,5,6.3,13.85,7.64,22,6.55,1-.12,2-.29,3-.49"/><path class="cls-20" d="M572.86,225.64a22.45,22.45,0,0,0,2.78,1.5,11.66,11.66,0,0,1-2.78-1.5"/><path class="cls-20" d="M572.86,225.64l-.1-.06-.14-.11"/><path class="cls-20" d="M738.29,241.53c.76-34.45-20.56-68-51.39-83.4s-69.51-12.73-98.82,5.39c-11.31,7-21.74,16.76-25.55,29.5a31.7,31.7,0,0,0,3.71,26,23.08,23.08,0,0,0,6.38,6.42"/><path class="cls-20" d="M727.76,259.77Q721.36,275.39,715,291l-.33.8"/><path class="cls-20" d="M669,253.72c10.35,5.62,14.83,18.49,14.45,30.26-.15,4.21-.88,8.61-3.51,11.89-3.64,4.54-10.07,5.85-15.86,5.3-.54-.05-1.08-.12-1.62-.2a33.49,33.49,0,0,1-24.62-17.74"/><path class="cls-20" d="M573.26,240.46a6.18,6.18,0,0,1,.55.61c4.67,5.63-.44,14.45-5.2,20.4-4.94,6.17-8.86,16.63-2.09,20.7,3.58,2.16,8.41.93,12.11,2.88a27.84,27.84,0,0,1,7.56,5.2,10.7,10.7,0,0,0,2.32,1.52c.63.33,1.32.64,2,1a44.65,44.65,0,0,0,10.37,2.9c18.36,1.92,32.35,4.81,51.81,15.57a27.75,27.75,0,0,0,7.74,2.83c7.32,1.55,15.4.64,22.65-1.13,12.66-3.09,22.42-12.89,31.45-22.26l.4.37c8.55,8.05,8.59,21.93,5.14,33.24-3.78,12.4-11.16,24-21.93,31.2a42.76,42.76,0,0,1-22.83,7.25,35.59,35.59,0,0,1-14.22-2.63c-10.48-4.36-18.07-13.54-27.31-20.12-8.44-6-18.21-9.84-27.86-13.83s-19.08-8.11-27-14.75a16.4,16.4,0,0,1-5-6.24c-2.66-6.82,7.64-15.22,14.57-13.35a6.6,6.6,0,0,1,2,1"/><path class="cls-20" d="M601.81,432.73l.33,0q10.25,1.08,20.5,2.2l4.26.45a20.11,20.11,0,0,0,6.29,0,11.35,11.35,0,0,0,3.06-1.12c2.88-1.52,5.21-4.17,7.18-6.83,7.46-10,12.35-21.5,16.09-33.47,2.84-9.11,5-18.51,7.09-27.78"/><path class="cls-20" d="M605.36,328.7l-.68.54c-6.9,5.62-10,14.71-12.36,23.36a268.52,268.52,0,0,0-7.64,40.95c-.31,2.9-.56,5.87.3,8.66,1.64,5.3,6.58,8.23,12.1,10a62.19,62.19,0,0,0,7.69,1.85c2.57.47,5.25.92,7.74.17a8.63,8.63,0,0,0,3.35-1.91c2.88-2.59,4.33-6.95,5.28-11,.09-.38.18-.76.26-1.15l-14-3.8a2.71,2.71,0,0,1-1.47-.78,2.64,2.64,0,0,1-.3-1.74A178,178,0,0,1,609,368.76"/><path class="cls-20" d="M621,401.31l.18,0a11,11,0,0,1,8.71,2.47c2.31,2.16,3.18,6,1.44,8.64-1.53,2.34-4.63,3.27-7.41,3s-5.36-1.59-7.86-2.87"/><path class="cls-20" d="M596.75,413.72c-.13.2-.25.41-.37.62a25.44,25.44,0,0,0-3.32,10.88,4.71,4.71,0,0,0,.33,2.53c.62,1.21,2,1.73,3.33,2.14l5.54,1.77"/><path class="cls-20" d="M592.87,429.93a43.4,43.4,0,0,0,2,6.27q1.65,4.4,3.29,8.79,2.85,7.58,5.67,15.16l5.37,14.35a3.54,3.54,0,0,0,.77,1.38,2.41,2.41,0,0,0,1.49.59,9,9,0,0,0,1.16,0c2.62-.1,5.38-.24,7.6-1.65,2.95-1.86,4-5.22,4.32-8.83a36.08,36.08,0,0,0-.1-6.07l-.54-6.42q-.72-8.4-1.42-16.8"/><path class="cls-20" d="M623.71,469a9.26,9.26,0,0,1,.8-3,11.62,11.62,0,0,1,7.85-6.32,15.47,15.47,0,0,1,12.73,3.23,9.09,9.09,0,0,1,3.57,4.9c.84,3.59-1.73,7.1-4.62,9.38-6.53,5.15-15.06,7-23.33,7.74-2.82.25-5.79.37-8.33-.87s-4.41-4.31-3.36-6.95"/><path class="cls-20" d="M637.31,435.77a73.39,73.39,0,0,1-11.23,17.56"/><path class="cls-20" d="M675.18,364.72c-1.33,14.63-3.67,34.46-5,49.09a2.55,2.55,0,0,1-.47,1.47,1.27,1.27,0,0,1-.34.27,3.37,3.37,0,0,1-1.27.34c-1.5.19-3.3.26-4.21-.95a4.3,4.3,0,0,1-.65-1.76,155.85,155.85,0,0,1-2.76-18.86"/><path class="cls-20" d="M669.69,416.33c.6,2.93,2.23,7.1,1.42,10s-3.36,5.48-6.35,5.35a2.13,2.13,0,0,1-1.34-.43,2.63,2.63,0,0,1-.63-1.27c-1.16-4.31.08-10.67,1.1-15"/><path class="cls-20" d="M644.68,362.6a4.55,4.55,0,0,0-4.73.59,5.89,5.89,0,0,0-2.13,4.41,3.5,3.5,0,0,0,.14,1.2,3.07,3.07,0,0,0,1.27,1.49,4.76,4.76,0,0,0,6-.94,4.9,4.9,0,0,0,0-6.08"/><path class="cls-20" d="M641,381.44a6.23,6.23,0,0,0-7.37,4.55,3.19,3.19,0,0,0,.35,2.5,4.11,4.11,0,0,0,2,1.23,10.37,10.37,0,0,0,4,.8,4.39,4.39,0,0,0,3.52-1.83,5,5,0,0,0-.12-4.81,3.11,3.11,0,0,0-1.67-1.74"/><path class="cls-20" d="M602,460.82,596.31,462"/><path class="cls-20" d="M596.67,445.55a3.12,3.12,0,0,0-3.17,1.81,1.59,1.59,0,0,0-.16.32,8.17,8.17,0,0,0-.19,4.2c.55,3.44,1.63,6.89,2.11,10.32a17.68,17.68,0,0,1-.23,6.95,6,6,0,0,1-2.13,3.53c-1.61,1.14-3.79.89-5.74.59l-5.19-.79a2,2,0,0,1-1.21-.45,2,2,0,0,1-.46-1.16,23.33,23.33,0,0,1,.13-5.41q.77-7.38,1.54-14.76a3,3,0,0,1,.6-1.82,2.87,2.87,0,0,1,1.6-.69,43.55,43.55,0,0,1,9.33-.83l.87,0"/><rect class="cls-15" x="920" y="621.47" width="10.46" height="31.93"/><path class="cls-14" d="M1023.8,388.89c9-.62,12.75,13.45,6.48,19.92-5.58,5.77-14.56,6.2-22.53,4.29,1.28-4.37-.54-9.19-3.8-12.66l1.16,0a11.88,11.88,0,0,0,2.92-1.22l.1-.05.15-.09a23.09,23.09,0,0,0,7-5.74C1017.84,391.06,1020.49,389.11,1023.8,388.89Z"/><path class="cls-16" d="M1021.61,367.79a31.68,31.68,0,0,1-6.33,25.52c-2.27,2-4.47,4.25-7,5.74l-.15.09-.1.05a22.75,22.75,0,0,1-2.92,1.22l-1.16,0a16.63,16.63,0,0,0-4-3.11c-5.93-3.32-13.06-3.5-19.85-3.55q-68.43-.46-136.71,5.66l-.05-.51-1.5.1,0-.81c2.74-34.35,27.35-65.56,59.58-77.76s70.45-5.61,97.77,15.39C1009.73,344,1019.11,354.73,1021.61,367.79Z"/><path class="cls-15" d="M911.24,465c-.55,0-1.09,0-1.64,0-5.81,0-12.08-2-15.24-6.88-2.28-3.53-2.56-8-2.28-12.19.81-11.75,6.58-24.09,17.44-28.64l0-1,96-1.92c-5.21,5.13-1,14.42,3.11,20.82,4.29,6.64,7.13,17.44,0,20.81-3.78,1.78-8.46.07-12.34,1.63a27.83,27.83,0,0,0-8,4.41,10.92,10.92,0,0,1-2.46,1.28,6.54,6.54,0,0,0-2.14.73A44.47,44.47,0,0,1,973,466c-18.46,0-32.67,1.5-53.12,10.23a27.79,27.79,0,0,1-8,2Z"/><path class="cls-14" d="M1007.75,413.1a10.86,10.86,0,0,1-.48,1.31l-1.76,0-96,1.92-34.46.69a131.44,131.44,0,0,1-24.29-1.33c-11.23-1.88-21.43-6.19-27.53-15.51L841.89,399l1.5-.1.05.51q68.17-6.13,136.71-5.66c6.79.05,13.92.23,19.85,3.55a16.63,16.63,0,0,1,4,3.11C1007.21,403.91,1009,408.73,1007.75,413.1Z"/><path class="cls-14" d="M860,449.8c.14-.12.28-.22.43-.33,8,10.24,16.75,21,29,25.34,7,2.49,15,4.22,22.42,3.42a27.79,27.79,0,0,0,8-2C940.33,467.47,954.54,466,973,466a44.47,44.47,0,0,0,10.61-1.84c.76-.23,1.48-.47,2.14-.73,7.08-1.16,16.48,8.24,13.14,14.76a16.4,16.4,0,0,1-5.66,5.69c-10.6,7.21-23.23,10.33-35.58,14.11-7.57,2.31-15,4.87-21.88,8.76-9.86,5.61-18.34,14-29.21,17.24-.66.2-1.32.38-2,.53-11.9,2.79-25-1-34.41-8.88-10-8.28-16.15-20.55-18.65-33.27C849.24,470.74,850.68,456.94,860,449.8Z"/><path class="cls-15" d="M972.26,575.48l-.92.42-58.3-.09h-2.28l-.1-.1a29.92,29.92,0,0,1-6.38,4.41,1.05,1.05,0,0,1-.74.15c-.45-.14-.64-.78-.56-1.29,3-17.29,4.69-32.34,2.09-52.47l-.49-2c.66-.15,1.32-.33,2-.53,10.87-3.27,19.35-11.63,29.21-17.24,6.84-3.89,14.31-6.45,21.88-8.76,5.17,0,10.63,1.78,12.79,7s2.5,11,2.89,16.67q1.32,19.33,4.09,38.51a36.93,36.93,0,0,0,2.09,8.95c1.53,3.67,4.24,7.75,2.44,11.26A17.13,17.13,0,0,1,972.26,575.48Z"/><path class="cls-14" d="M918.18,619.77a6.69,6.69,0,0,1-3.24-1.22c-1.84-1.53-2-4.46-2-7q.06-17.87.1-35.73l58.3.09a261.93,261.93,0,0,1,2.57,44.61l-5.43,1q-7.56,1.31-15.11,2.64l-1.34.23a5.15,5.15,0,0,1-3.34-.18c-1.63-.88-2.05-3.15-2.57-5.07-.81-3-2.48-6-5.12-7.14s-6.27.23-6.92,3.28c-.36,1.67.15,3.61-.74,5-1,1.66-3.26,1.53-5.07,1.23l-9.85-1.66Z"/><path class="cls-10" d="M972.09,657.63a14.49,14.49,0,0,1,.35,7.08,3.1,3.1,0,0,1-.5,1.35,2.67,2.67,0,0,1-1.35.73A36.06,36.06,0,0,1,947,665.58a2.82,2.82,0,0,1-1.21-.77,2.62,2.62,0,0,1-.5-1.17,7,7,0,0,1,2.45-6.38,14.24,14.24,0,0,1,6.08-2.75c.9-.22,1.81-.42,2.72-.6a53,53,0,0,1,12.06-.94A8.68,8.68,0,0,1,972.09,657.63Z"/><path class="cls-15" d="M968.13,652l-.28.57a5.75,5.75,0,0,1,.77.42,53,53,0,0,0-12.06.94,125.72,125.72,0,0,1-2.75-27.32l-.44-2.49q7.54-1.33,15.11-2.64l.4,2.29q0,13.57,0,27.15a1.34,1.34,0,0,1-.31,1.07A.39.39,0,0,1,968.13,652Z"/><path class="cls-10" d="M919.84,652.15a39.63,39.63,0,0,1,5.82,2.09,68.49,68.49,0,0,1,7,3.74c-10.44,7.36-23.74,7.45-36.2,7.26-2.51,0-5.48-.36-6.72-2.76a5.71,5.71,0,0,1,.92-5.91,11.39,11.39,0,0,1,5-3.2A39.12,39.12,0,0,1,919.84,652.15Z"/><path class="cls-15" d="M911.24,465l.65,13.19c-7.44.8-15.38-.93-22.42-3.42-12.28-4.36-21-15.1-29-25.34-.15.11-.29.21-.43.33q-4.77-16.17-9.55-32.37l.29-1.7A131.44,131.44,0,0,0,875,417.06l34.46-.69,0,1c-10.86,4.55-16.63,16.89-17.44,28.64-.28,4.2,0,8.66,2.28,12.19,3.16,4.88,9.43,6.84,15.24,6.88C910.15,465.08,910.69,465.07,911.24,465Z"/><path class="cls-20" d="M840.34,399.72c1-.1,2.07-.19,3.1-.27h0q68.17-6.13,136.71-5.66c6.79.05,13.92.23,19.85,3.55a16.63,16.63,0,0,1,4,3.11c3.26,3.47,5.08,8.29,3.8,12.66a10.86,10.86,0,0,1-.48,1.31l-1.76,0-96,1.92-34.46.69a131.44,131.44,0,0,1-24.29-1.33c-11.23-1.88-21.43-6.19-27.53-15.51L841.89,399l1.5-.1"/><path class="cls-20" d="M1008.28,399.05c2.53-1.49,4.73-3.74,7-5.74,2.56-2.25,5.21-4.2,8.52-4.42,9-.62,12.75,13.45,6.48,19.92-5.58,5.77-14.56,6.2-22.53,4.29-1-.22-2-.49-2.89-.79"/><path class="cls-20" d="M1008,399.19a22.75,22.75,0,0,1-2.92,1.22,11.88,11.88,0,0,0,2.92-1.22"/><path class="cls-20" d="M1008,399.19l.1-.05.15-.09"/><path class="cls-20" d="M841.84,398.22c2.74-34.35,27.35-65.56,59.58-77.76s70.45-5.61,97.77,15.39c10.54,8.11,19.92,18.88,22.42,31.94a31.68,31.68,0,0,1-6.33,25.52,23.09,23.09,0,0,1-7,5.74"/><path class="cls-20" d="M850.46,417.43q4.78,16.19,9.55,32.37l.24.83"/><path class="cls-20" d="M909.52,417.37c-10.86,4.55-16.63,16.89-17.44,28.64-.28,4.2,0,8.66,2.28,12.19,3.16,4.88,9.43,6.84,15.24,6.88.55,0,1.09,0,1.64,0a33.45,33.45,0,0,0,26.29-15.15"/><path class="cls-20" d="M1006.12,413.9a8.18,8.18,0,0,0-.61.55c-5.21,5.13-1,14.42,3.11,20.82,4.29,6.64,7.13,17.44,0,20.81-3.78,1.78-8.46.07-12.34,1.63a27.83,27.83,0,0,0-8,4.41,10.92,10.92,0,0,1-2.46,1.28c-.66.26-1.38.5-2.14.73A44.47,44.47,0,0,1,973,466c-18.46,0-32.67,1.5-53.12,10.23a27.79,27.79,0,0,1-8,2c-7.44.8-15.38-.93-22.42-3.42-12.28-4.36-21-15.1-29-25.34-.15.11-.29.21-.43.33-9.33,7.14-10.77,20.94-8.49,32.54,2.5,12.72,8.67,25,18.65,33.27,9.45,7.84,22.51,11.67,34.41,8.88.66-.15,1.32-.33,2-.53,10.87-3.27,19.35-11.63,29.21-17.24,6.84-3.89,14.31-6.45,21.88-8.76,12.35-3.78,25-6.9,35.58-14.11a16.4,16.4,0,0,0,5.66-5.69c3.34-6.52-6.06-15.92-13.14-14.76a6.54,6.54,0,0,0-2.14.73"/><path class="cls-20" d="M914.68,544.78c-.52,9.53,0,18.4-2.67,28.55"/><path class="cls-20" d="M966.25,542.2a110.55,110.55,0,0,0,3.9,30.8c.14.53.28,1.06.43,1.6"/><path class="cls-20" d="M910.76,575.81H913l58.3.09a261.93,261.93,0,0,1,2.57,44.61l-5.43,1q-7.56,1.31-15.11,2.64l-1.34.23a5.15,5.15,0,0,1-3.34-.18c-1.63-.88-2.05-3.15-2.57-5.07-.81-3-2.48-6-5.12-7.14s-6.27.23-6.92,3.28c-.36,1.67.15,3.61-.74,5-1,1.66-3.26,1.53-5.07,1.23l-9.85-1.66-.24,0a6.69,6.69,0,0,1-3.24-1.22c-1.84-1.53-2-4.46-2-7q.06-17.87.1-35.73c0-.82,0-1.63,0-2.45"/><path class="cls-20" d="M932.13,622.61q0,16.71,0,33.41c0,.35,0,.79-.36.9s-.43-.62-.13-.51"/><path class="cls-20" d="M918.18,619.76h0a208.59,208.59,0,0,0,1.66,32.38c0,.42.1.84.16,1.26"/><path class="cls-20" d="M953.81,626.59a125.72,125.72,0,0,0,2.75,27.32"/><path class="cls-20" d="M968.88,623.75q0,13.57,0,27.15a1.34,1.34,0,0,1-.31,1.07.39.39,0,0,1-.46,0,.33.33,0,0,1-.18-.45"/><path class="cls-20" d="M933.61,658.57c-.33-.2-.66-.4-1-.59a68.49,68.49,0,0,0-7-3.74,39.63,39.63,0,0,0-5.82-2.09,39.12,39.12,0,0,0-24.26,1.22,11.39,11.39,0,0,0-5,3.2,5.71,5.71,0,0,0-.92,5.91c1.24,2.4,4.21,2.73,6.72,2.76,12.46.19,25.76.1,36.2-7.26.2-.13.4-.28.59-.42"/><path class="cls-20" d="M968.62,653a53,53,0,0,0-12.06.94c-.91.18-1.82.38-2.72.6a14.24,14.24,0,0,0-6.08,2.75,7,7,0,0,0-2.45,6.38,2.62,2.62,0,0,0,.5,1.17,2.82,2.82,0,0,0,1.21.77,36.06,36.06,0,0,0,23.57,1.21,2.67,2.67,0,0,0,1.35-.73,3.1,3.1,0,0,0,.5-1.35,14.49,14.49,0,0,0-.35-7.08,8.68,8.68,0,0,0-3.47-4.66,5.75,5.75,0,0,0-.77-.42l-.07,0"/><path class="cls-20" d="M957.65,498c5.17,0,10.63,1.78,12.79,7s2.5,11,2.89,16.67q1.32,19.33,4.09,38.51a36.93,36.93,0,0,0,2.09,8.95c1.53,3.67,4.24,7.75,2.44,11.26a17.13,17.13,0,0,1-9.69-4.82,17.94,17.94,0,0,1-2.11-2.48c-.11-.14-.21-.29-.31-.44"/><path class="cls-20" d="M905.07,526.51c2.6,20.13.87,35.18-2.09,52.47-.08.51.11,1.15.56,1.29a1.05,1.05,0,0,0,.74-.15,29.92,29.92,0,0,0,6.38-4.41c.63-.57,1.24-1.16,1.82-1.78"/><circle class="cls-18" cx="946.02" cy="430.23" r="2.25"/><circle class="cls-18" cx="948.26" cy="525.41" r="2.25"/><circle class="cls-18" cx="880.77" cy="429.46" r="2.25"/><circle class="cls-18" cx="924.91" cy="526.51" r="2.25"/><path class="cls-14" d="M914.53,607.48c3.06,9.39-2.77,19.13-8.34,27.28l-15.55,22.76c-3,4.35-6,8.78-10.21,12-8.25,6.27-19.39,6.72-29.74,6.91l-40.57.75-.36-.22a19.63,19.63,0,0,0,2.57-13.4,19.88,19.88,0,0,0-14.72-15.46l.32-1.39c.7-.4,1.38-.83,2.05-1.28a27.07,27.07,0,0,0,8.46-8.78l.1.06c7.9.61,12.46-.35,20.1-2.4,5.65-1.52,11.32-3.91,15.16-8.32s5.33-11.27,2.23-16.22a11.38,11.38,0,0,0-2.64-2.92l.34-.46c9.32-8.24,13.92-24.49,12.92-36.88s-6.1-24.07-11.94-35c-.65-1.22-1.32-2.44-2-3.65l.79-.45,13.23-2.42c1.43-.27,3-.51,4.27.24s1.8,2.23,2.2,3.62c1.55,5.39,2.21,11.26,5.59,15.74,3.53,4.67,9.39,6.94,13.67,10.94,8.3,7.76,9.43,20.62,16.26,29.69C903.77,594.86,911.92,599.5,914.53,607.48Z"/><path class="cls-16" d="M856.65,569.48c1,12.39-3.6,28.64-12.92,36.88l-.34.46c-4.22-3.29-10.65-3.74-16.17-2.77-6.39,1.12-12.7,3.56-19.12,3.22,5-6.18,4-15.17,2.37-23A295.59,295.59,0,0,0,799,544c-1.39-4.36-2.26-7.45-4.71-10.94-7.44-10.6-6-26.44,3-35.68,1.58-.47,3.15-.87,4.7-1.18,9,1.31,17.48,6.06,24.2,12.34s12,14.11,16.54,22.23c.68,1.21,1.35,2.43,2,3.65C850.55,545.41,855.65,557.09,856.65,569.48Z"/><path class="cls-15" d="M802.5,613.37l-2.45.59c4.31-1.56,6.06-4.26,8.05-6.69,6.42.34,12.73-2.1,19.12-3.22,5.52-1,11.95-.52,16.17,2.77a11.38,11.38,0,0,1,2.64,2.92c3.1,5,1.61,11.81-2.23,16.22s-9.51,6.8-15.16,8.32c-7.64,2.05-12.2,3-20.1,2.4l-.1-.06a19,19,0,0,0,2.41-6.58c1-6.37-2.16-13.58-8.17-15.92Z"/><path class="cls-14" d="M820,381.42c8,1.5,14.46,10,12.61,18s-12.52,12.53-19,7.77c1.5-4.27-.69-9.3-4.22-12.24a25,25,0,0,0-9.61-4.52,18.54,18.54,0,0,1,13.07-9A19.93,19.93,0,0,1,820,381.42Z"/><path class="cls-15" d="M715,466.89h0a32.16,32.16,0,0,1-13,2.54,26.82,26.82,0,0,1-3.79-.34,19,19,0,0,1-6.91-2.41c-7-4.23-9.72-13.39-8.61-21.48s5.31-15.4,9.52-22.4v-.55c35.31-.24,70.69-3.7,105.88-7.17a48.32,48.32,0,0,0,5.35-.79c-1.48,7.75.57,15.87,7.23,20.09,1.54,1,3.33,1.52,4.8,2.58,3.81,2.75,4.47,8.5,2.45,12.73s-6.11,7.13-10.37,9.08c-4.07,1.86-8.54,6.41-9.94,10.66l-.64.31c-5.09-4.32-12.85-5.65-20.18-5.52-1.13,0-2.25.07-3.35.16C753.73,465.25,734.61,464,715,466.89Zm31.36-31.95a2.37,2.37,0,0,0,0-3.36,2.78,2.78,0,0,0-3.48-.1,1.77,1.77,0,0,0,.36,2.78A2.06,2.06,0,0,0,746.39,434.94Z"/><path class="cls-14" d="M630,396.11c3.2-.61,7-.72,10.82-1.71,51.13-10.34,104.33-16.2,155.25-4.88,1.22.27,2.46.56,3.67.88a25,25,0,0,1,9.61,4.52c3.53,2.94,5.72,8,4.22,12.24-.07.22-.16.43-.25.64-1.71,3.81-5.66,5.58-9.91,6.49a48.32,48.32,0,0,1-5.35.79c-35.19,3.47-70.57,6.93-105.88,7.17-15,.12-30-.36-45-1.67-1.22-.09-2.44-.2-3.66-.32-6.05-.58-12.44-1.44-17.17-5.25s-6.77-11.6-2.58-16A10.93,10.93,0,0,1,630,396.11Z"/><path class="cls-16" d="M796.84,336.6c12.4,10.94,19.83,28.35,15.94,44.42l.05.35a18.54,18.54,0,0,0-13.07,9c-1.21-.32-2.45-.61-3.67-.88C745.17,378.2,692,384.06,640.84,394.4c-3.86,1-7.62,1.1-10.82,1.71-1.77-16.63,8.69-32.19,20.91-43.59a129.85,129.85,0,0,1,100.49-33.74C767.86,320.48,784.45,325.67,796.84,336.6Z"/><path class="cls-10" d="M797.61,648.07a19.88,19.88,0,0,1,14.72,15.46,19.63,19.63,0,0,1-2.57,13.4,19,19,0,0,1-6.17,6.42c-6.31,4-14.25,4-21.71,3.88l-40.39-.62c-6.35-.1-13-.27-18.58-3.26-5.1-2.73-9-8.59-8-14.12a9.22,9.22,0,0,1,.43-1.62l1.72.4c22.23-2.21,43.87-8.36,65.18-15.06,5.38-1.69,10.82-3.45,15.69-6.27Z"/><path class="cls-16" d="M800.05,614l2.45-.59.18.75c6,2.34,9.19,9.55,8.17,15.92a19,19,0,0,1-2.41,6.58A27.07,27.07,0,0,1,800,645.4c-.67.45-1.35.88-2.05,1.28-4.87,2.82-10.31,4.58-15.69,6.27-21.31,6.7-43,12.85-65.18,15.06l-1.72-.4a9.22,9.22,0,0,0-.43,1.62l-.48-.09a19.12,19.12,0,0,0,.3-2.48c0-.13,0-.25,0-.38q-1.71-16.11-3.39-32.22l-.48-5.31,1.84-.17A621.14,621.14,0,0,0,800.05,614Z"/><path class="cls-16" d="M799,544a295.59,295.59,0,0,1,11.48,40.28c1.63,7.8,2.67,16.79-2.37,23-2,2.43-3.74,5.13-8.05,6.69a621.14,621.14,0,0,1-87.39,14.62l-1.84.17c-7.15.62-14.52.87-21.13-1.84a28.77,28.77,0,0,1-8.52-5.5,42.38,42.38,0,0,1-4.83-5.26,58.82,58.82,0,0,1-3.47-5c-15.81-25.44-12.29-63.25,6.21-86.81l.75-.66,4.23,4.75a19.29,19.29,0,0,0,4.49,4.07c2.61,1.49,5.74,1.67,8.75,1.81l12,.55-.12,2.53c-.55,5.77,1.76,12.88,7.46,13.93a7.51,7.51,0,0,0,7.67-3.54c1.5-2.6.35-8.75-1.6-11l.06-1.27,5.35.24c4.5.21,9.17.39,13.33-1.33s7.21-5,10.43-8a98.74,98.74,0,0,1,19.94-14.5c7.66-4.21,16-7.5,22.41-13.45,1-.36,2-.7,3-1-9,9.24-10.43,25.08-3,35.68C796.73,536.57,797.6,539.66,799,544Zm-89.2,39c5.25-1,8.24-7.54,6.29-12.51-5.49-1.55-11.43-2.55-14.2,2.44C699.29,577.57,704.55,583.93,709.79,583Zm3.88,29c2.88-3.2.77-9.29-3.19-10.11-2.42-.91-7.85,0-9,1.68a6.36,6.36,0,0,0,.09,6.62C703.94,614.33,710.49,615.56,713.67,612Z"/><path class="cls-14" d="M773.43,464.38c1.11,0,2.23-.1,3.35-.16,7.33-.13,15.09,1.2,20.18,5.52a15.41,15.41,0,0,1,3.95,5.1c3.77,7.88-.26,17.61-6.66,23.56s-14.75,9.24-22.41,13.45a98.74,98.74,0,0,0-19.94,14.5c-3.22,3-6.35,6.34-10.43,8s-8.83,1.54-13.33,1.33l-5.35-.24-13.47-.62-12-.55c-3-.14-6.14-.32-8.75-1.81a19.29,19.29,0,0,1-4.49-4.07l-4.23-4.75-7.57-8.51-21-23.64c-5-5.55-10.23-12.94-7.24-19.75,2.14-4.89,7.43-7.35,13-7.84a24.36,24.36,0,0,1,8.11.66c10.59,2.76,10.33,5.21,33.06,4.84l.05-.34a26.82,26.82,0,0,0,3.79.34,32.16,32.16,0,0,0,13-2.54h0C734.61,464,753.73,465.25,773.43,464.38Z"/><path class="cls-15" d="M746.36,431.58a2.37,2.37,0,0,1,0,3.36,2.06,2.06,0,0,1-3.15-.68,1.77,1.77,0,0,1-.36-2.78A2.78,2.78,0,0,1,746.36,431.58Z"/><path class="cls-19" d="M722.73,536.74c1.95,2.28,3.1,8.43,1.6,11a7.51,7.51,0,0,1-7.67,3.54c-5.7-1-8-8.16-7.46-13.93l.12-2.53,13.47.62Z"/><path class="cls-19" d="M716.08,570.47c1.95,5-1,11.56-6.29,12.51s-10.5-5.41-7.91-10.07C704.65,567.92,710.59,568.92,716.08,570.47Z"/><path class="cls-10" d="M714.69,666.28c0,.13,0,.25,0,.38a19.12,19.12,0,0,1-.3,2.48c-1.54,8.23-8.28,11.93-17.21,15.6-7,2.89-14.86,2.81-22.45,2.68-5.53-.09-11.83-.54-15.25-4.88-4-5.11-1.48-13.21,3.74-17.09s12.12-4.56,18.63-4.63a72.9,72.9,0,0,1,20.84,2.38l0,0c2.75,1.12,5.53,2.2,8.48,3.42Z"/><path class="cls-16" d="M711.3,634.06q1.69,16.11,3.39,32.22l-3.44.36a42.28,42.28,0,0,0-8.48-3.42l0,0a92,92,0,0,1-14-6.88A25.21,25.21,0,0,1,678,643.08c-2.2-6.64.16-13.83,2.5-20.42l.72-1.25a28.77,28.77,0,0,0,8.52,5.5c6.61,2.71,14,2.46,21.13,1.84Z"/><path class="cls-19" d="M710.48,601.91c4,.82,6.07,6.91,3.19,10.11-3.18,3.54-9.73,2.31-12.1-1.81a6.36,6.36,0,0,1-.09-6.62C702.63,601.9,708.06,601,710.48,601.91Z"/><path class="cls-15" d="M698.2,469.09l-.05.34c-22.73.37-22.47-2.08-33.06-4.84a24.36,24.36,0,0,0-8.11-.66l-.07-.71q-4.89-20.6-9.79-41.17l.13-1.47c15,1.31,30,1.79,45,1.67v.55c-4.21,7-8.41,14.3-9.52,22.4s1.61,17.25,8.61,21.48A19,19,0,0,0,698.2,469.09Zm-29.88-31.21c1.47-.37,2-2.68.78-3.49-.4-.59-2.76-1.39-3.3-.92a2.19,2.19,0,0,0-.64,2A2.79,2.79,0,0,0,668.32,437.88Z"/><path class="cls-16" d="M672.26,515.16l7.57,8.51-.75.66c-18.5,23.56-22,61.37-6.21,86.81a58.82,58.82,0,0,0,3.47,5l-.6.48c-14.08-3.49-23.14-18.11-24.77-32.53s2.62-28.78,6.81-42.68a69.73,69.73,0,0,1,13.67-25.54Z"/><path class="cls-15" d="M669.1,434.39c1.27.81.69,3.12-.78,3.49a2.79,2.79,0,0,1-3.16-2.45,2.19,2.19,0,0,1,.64-2C666.34,433,668.7,433.8,669.1,434.39Z"/><path class="cls-21" d="M640.84,394.4c51.13-10.34,104.33-16.2,155.25-4.88,1.22.27,2.46.56,3.67.88a25,25,0,0,1,9.61,4.52c3.53,2.94,5.72,8,4.22,12.24-.07.22-.16.43-.25.64-1.71,3.81-5.66,5.58-9.91,6.49a48.32,48.32,0,0,1-5.35.79c-35.19,3.47-70.57,6.93-105.88,7.17-15,.12-30-.36-45-1.67-1.22-.09-2.44-.2-3.66-.32-6.05-.58-12.44-1.44-17.17-5.25s-6.77-11.6-2.58-16a10.93,10.93,0,0,1,6.18-2.9c3.2-.61,7-.72,10.82-1.71"/><path class="cls-21" d="M630,396.14v0c-1.77-16.63,8.69-32.19,20.91-43.59a129.85,129.85,0,0,1,100.49-33.74c16.44,1.7,33,6.89,45.42,17.82S816.67,365,812.78,381"/><path class="cls-21" d="M799.76,390.4a18.54,18.54,0,0,1,13.07-9,19.93,19.93,0,0,1,7.18.05c8,1.5,14.46,10,12.61,18s-12.52,12.53-19,7.77l-.17-.12"/><path class="cls-21" d="M715,466.89a33.07,33.07,0,0,0,15.48-13.15"/><path class="cls-21" d="M692.2,422.8c-4.21,7-8.41,14.3-9.52,22.4s1.61,17.25,8.61,21.48a19,19,0,0,0,6.91,2.41,26.82,26.82,0,0,0,3.79.34,32.16,32.16,0,0,0,13-2.54"/><path class="cls-21" d="M776.78,464.22c-1.12.06-2.24.12-3.35.16-19.7.87-38.82-.39-58.4,2.51h0"/><path class="cls-21" d="M772.79,464.43l.64-.05c1.1-.09,2.22-.14,3.35-.16,7.33-.13,15.09,1.2,20.18,5.52a15.41,15.41,0,0,1,3.95,5.1c3.77,7.88-.26,17.61-6.66,23.56s-14.75,9.24-22.41,13.45a98.74,98.74,0,0,0-19.94,14.5c-3.22,3-6.35,6.34-10.43,8s-8.83,1.54-13.33,1.33l-5.35-.24-13.47-.62-12-.55c-3-.14-6.14-.32-8.75-1.81a19.29,19.29,0,0,1-4.49-4.07l-4.23-4.75-7.57-8.51-21-23.64c-5-5.55-10.23-12.94-7.24-19.75,2.14-4.89,7.43-7.35,13-7.84a24.36,24.36,0,0,1,8.11.66c10.59,2.76,10.33,5.21,33.06,4.84"/><path class="cls-21" d="M647.12,422.05q4.89,20.58,9.79,41.17"/><path class="cls-21" d="M803.43,414.29c-1.48,7.75.57,15.87,7.23,20.09,1.54,1,3.33,1.52,4.8,2.58,3.81,2.75,4.47,8.5,2.45,12.73s-6.11,7.13-10.37,9.08c-4.07,1.86-8.54,6.41-9.94,10.66"/><path class="cls-21" d="M709.2,537.38c-.55,5.77,1.76,12.88,7.46,13.93a7.51,7.51,0,0,0,7.67-3.54c1.5-2.6.35-8.75-1.6-11"/><path class="cls-21" d="M716.08,570.47c1.95,5-1,11.56-6.29,12.51s-10.5-5.41-7.91-10.07C704.65,567.92,710.59,568.92,716.08,570.47Z"/><path class="cls-21" d="M710.48,601.91a2.32,2.32,0,0,1,.82.49"/><path class="cls-21" d="M710.48,601.91c4,.82,6.07,6.91,3.19,10.11-3.18,3.54-9.73,2.31-12.1-1.81a6.36,6.36,0,0,1-.09-6.62C702.63,601.9,708.06,601,710.48,601.91Z"/><path class="cls-21" d="M709.22,601.82a4.36,4.36,0,0,1,1.26.09"/><path class="cls-21" d="M679.08,524.33c-18.5,23.56-22,61.37-6.21,86.81a58.82,58.82,0,0,0,3.47,5,42.38,42.38,0,0,0,4.83,5.26,28.77,28.77,0,0,0,8.52,5.5c6.61,2.71,14,2.46,21.13,1.84l1.84-.17A621.14,621.14,0,0,0,800.05,614l2.45-.59.16,0"/><path class="cls-21" d="M798.48,542.63,799,544a295.59,295.59,0,0,1,11.48,40.28c1.63,7.8,2.67,16.79-2.37,23-2,2.43-3.74,5.13-8.05,6.69l0,0"/><path class="cls-21" d="M797.6,495.85a33.45,33.45,0,0,1,4.37.37c9,1.31,17.48,6.06,24.2,12.34s12,14.11,16.54,22.23c.68,1.21,1.35,2.43,2,3.65,5.84,11,10.94,22.65,11.94,35s-3.6,28.64-12.92,36.88"/><path class="cls-21" d="M711.3,634.06q1.69,16.11,3.39,32.22c0,.13,0,.25,0,.38s0,.27,0,.41"/><path class="cls-21" d="M702.73,663.2a72.9,72.9,0,0,0-20.84-2.38c-6.51.07-13.4.74-18.63,4.63s-7.78,12-3.74,17.09c3.42,4.34,9.72,4.79,15.25,4.88,7.59.13,15.43.21,22.45-2.68,8.93-3.67,15.67-7.37,17.21-15.6a19.12,19.12,0,0,0,.3-2.48c0-.46,0-.94,0-1.43"/><path class="cls-21" d="M702.77,663.22c2.75,1.12,5.53,2.2,8.48,3.42a42.28,42.28,0,0,0-8.48-3.42"/><path class="cls-21" d="M702.77,663.22l0,0"/><path class="cls-21" d="M680.45,622.66c-2.34,6.59-4.7,13.78-2.5,20.42a25.21,25.21,0,0,0,10.83,13.24,92,92,0,0,0,14,6.88"/><path class="cls-21" d="M717.06,668c22.23-2.21,43.87-8.36,65.18-15.06,5.38-1.69,10.82-3.45,15.69-6.27.7-.4,1.38-.83,2.05-1.28a27.07,27.07,0,0,0,8.46-8.78,19,19,0,0,0,2.41-6.58c1-6.37-2.16-13.58-8.17-15.92"/><path class="cls-21" d="M797.24,648l.37.08a19.88,19.88,0,0,1,14.72,15.46,19.63,19.63,0,0,1-2.57,13.4,19,19,0,0,1-6.17,6.42c-6.31,4-14.25,4-21.71,3.88l-40.39-.62c-6.35-.1-13-.27-18.58-3.26-5.1-2.73-9-8.59-8-14.12a9.22,9.22,0,0,1,.43-1.62"/><path class="cls-21" d="M671.45,515.88a69.73,69.73,0,0,0-13.67,25.54c-4.19,13.9-8.43,28.26-6.81,42.68s10.69,29,24.77,32.53"/><path class="cls-21" d="M806.68,607.15c.48.06,1,.1,1.42.12,6.42.34,12.73-2.1,19.12-3.22,5.52-1,11.95-.52,16.17,2.77a11.38,11.38,0,0,1,2.64,2.92c3.1,5,1.61,11.81-2.23,16.22s-9.51,6.8-15.16,8.32c-7.64,2.05-12.2,3-20.1,2.4"/><path class="cls-21" d="M669.1,434.39c1.27.81.69,3.12-.78,3.49a2.79,2.79,0,0,1-3.16-2.45,2.19,2.19,0,0,1,.64-2C666.34,433,668.7,433.8,669.1,434.39Z"/><path class="cls-21" d="M743.24,434.26a1.77,1.77,0,0,1-.36-2.78,2.78,2.78,0,0,1,3.48.1,2.37,2.37,0,0,1,0,3.36A2.06,2.06,0,0,1,743.24,434.26Z"/><path class="cls-21" d="M794.25,498.4c1-.36,2-.7,3-1,1.58-.47,3.15-.87,4.7-1.18,9.08-1.86,17.8-1.07,27.29,1.93,12.15,3.84,24.41,19.59,31.74,30"/><path class="cls-21" d="M843.5,530.34l13.23-2.42c1.43-.27,3-.51,4.27.24s1.8,2.23,2.2,3.62c1.55,5.39,2.21,11.26,5.59,15.74,3.53,4.67,9.39,6.94,13.67,10.94,8.3,7.76,9.43,20.62,16.26,29.69,5,6.71,13.2,11.35,15.81,19.33,3.06,9.39-2.77,19.13-8.34,27.28l-15.55,22.76c-3,4.35-6,8.78-10.21,12-8.25,6.27-19.39,6.72-29.74,6.91l-40.57.75"/><path class="cls-21" d="M798,496.69c-.25.23-.49.47-.72.71-9,9.24-10.43,25.08-3,35.68,2.45,3.49,3.32,6.58,4.71,10.94"/></g><circle class="cls-3" cx="1012.43" cy="465.23" r="21.08"/><circle class="cls-3" cx="878.52" cy="46.91" r="21.08"/><circle class="cls-3" cx="761.99" cy="315.15" r="21.08"/></g></g></svg>