<svg viewBox="0 0 299.81 375.34" xmlns="http://www.w3.org/2000/svg"><path d="m73.63 107.12c35.31-.24 70.68-3.7 105.88-7.17a48.32 48.32 0 0 0 5.35-.79c-1.48 7.75.57 15.87 7.23 20.09 1.54 1 3.33 1.52 4.8 2.58 3.81 2.75 4.47 8.5 2.45 12.73s-6.11 7.13-10.37 9.08c-4.07 1.86-8.54 6.41-9.94 10.66l-.64.31c-5.09-4.32-12.85-5.65-20.18-5.52-1.13 0-2.25.07-3.35.16-19.7.87-38.82-.39-58.4 2.51a32.16 32.16 0 0 1 -13 2.54 26.82 26.82 0 0 1 -3.79-.34 19 19 0 0 1 -6.91-2.41c-7-4.23-9.72-13.39-8.61-21.48s5.31-15.4 9.52-22.4zm54.16 9.33a2.78 2.78 0 0 0 -3.48-.1 1.77 1.77 0 0 0 .36 2.78 2.06 2.06 0 0 0 3.15.68 2.37 2.37 0 0 0 -.03-3.36z" fill="#fbede7"/><path d="m195 92c-.07.22-.16.43-.25.64-1.71 3.81-5.66 5.58-9.91 6.49a48.32 48.32 0 0 1 -5.35.79c-35.2 3.47-70.57 6.93-105.88 7.17-15 .12-30-.36-44.95-1.67-1.22-.09-2.44-.2-3.66-.32-6.05-.58-12.44-1.44-17.17-5.25s-6.77-11.6-2.58-16a10.93 10.93 0 0 1 6.2-2.85c3.2-.61 7-.72 10.82-1.71 51.13-10.36 104.33-16.22 155.25-4.9 1.22.27 2.46.56 3.67.88a25 25 0 0 1 9.61 4.52c3.53 2.94 5.72 7.97 4.2 12.21z" fill="#e9f5f7"/><path d="m177.52 74.39c-50.92-11.32-104.12-5.46-155.25 4.88-3.86 1-7.62 1.1-10.82 1.71-1.77-16.63 8.69-32.19 20.91-43.59a129.85 129.85 0 0 1 100.49-33.74c16.44 1.7 33 6.89 45.42 17.82s19.83 28.35 15.94 44.42v.35a18.56 18.56 0 0 0 -13.07 9c-1.14-.24-2.4-.58-3.62-.85z" fill="#d51359"/><path d="m63.32 345.69a72.9 72.9 0 0 1 20.84 2.38c2.75 1.13 5.53 2.2 8.48 3.42l3.44-.36v.38a19.12 19.12 0 0 1 -.3 2.48c-1.54 8.23-8.28 11.93-17.21 15.6-7 2.89-14.86 2.81-22.45 2.68-5.53-.09-11.83-.54-15.25-4.88-4-5.11-1.48-13.21 3.74-17.09s12.2-4.54 18.71-4.61z" fill="#2e0e04"/><path d="m201.44 66.29c8 1.5 14.46 10 12.61 18s-12.52 12.5-19.05 7.71c1.5-4.27-.69-9.3-4.22-12.24a25 25 0 0 0 -9.61-4.52 18.56 18.56 0 0 1 13.07-9 19.93 19.93 0 0 1 7.2.05z" fill="#e9f5f7"/><path d="m296 292.35c3.06 9.39-2.77 19.13-8.34 27.28l-15.55 22.76c-3 4.35-6 8.78-10.21 12-8.25 6.27-19.39 6.72-29.74 6.91l-40.57.75-.36-.22a19.63 19.63 0 0 0 2.57-13.4 19.88 19.88 0 0 0 -14.8-15.49l.32-1.39c.7-.4 1.38-.83 2-1.28a27.07 27.07 0 0 0 8.46-8.78l.1.06c7.9.61 12.46-.35 20.1-2.4 5.65-1.52 11.32-3.91 15.16-8.32s5.33-11.27 2.23-16.22a11.38 11.38 0 0 0 -2.64-2.92l.34-.46c9.32-8.24 13.92-24.49 12.92-36.88s-6.1-24.07-11.94-35c-.65-1.22-1.32-2.44-2-3.65l.79-.45 13.23-2.42c1.43-.27 3-.51 4.27.24s1.8 2.23 2.2 3.62c1.55 5.39 2.21 11.26 5.59 15.74 3.53 4.67 9.39 6.94 13.67 10.94 8.3 7.76 9.43 20.62 16.26 29.69 5.14 6.67 13.29 11.31 15.94 19.29z" fill="#e9f5f7"/><path d="m238.08 254.35c1 12.39-3.6 28.64-12.92 36.88l-.34.46c-4.22-3.29-10.65-3.74-16.17-2.77-6.39 1.12-12.7 3.56-19.12 3.22 5-6.18 4-15.17 2.37-23a295.59 295.59 0 0 0 -11.48-40.28c-1.39-4.36-2.26-7.45-4.71-10.94-7.44-10.6-6-26.44 3-35.68 1.58-.47 3.15-.87 4.7-1.18 9 1.31 17.48 6.06 24.2 12.34s12 14.11 16.54 22.23c.68 1.21 1.35 2.43 2 3.65 5.85 11 10.93 22.72 11.93 35.07z" fill="#d51359"/><path d="m183.93 298.24-2.45.59c4.31-1.56 6.06-4.26 8.05-6.69 6.42.34 12.73-2.1 19.12-3.22 5.52-1 11.95-.52 16.17 2.77a11.38 11.38 0 0 1 2.64 2.92c3.1 4.95 1.61 11.81-2.23 16.22s-9.51 6.8-15.16 8.32c-7.64 2.05-12.2 3-20.1 2.4l-.1-.06a19 19 0 0 0 2.41-6.58c1-6.37-2.16-13.58-8.17-15.92z" fill="#fbede7"/><path d="m179 332.94a19.88 19.88 0 0 1 14.72 15.46 19.63 19.63 0 0 1 -2.57 13.4 19 19 0 0 1 -6.17 6.42c-6.31 4-14.25 4-21.71 3.88l-40.39-.62c-6.35-.1-13-.27-18.58-3.26-5.1-2.73-9-8.59-8-14.12a9.22 9.22 0 0 1 .43-1.62l1.72.4c22.23-2.21 43.87-8.36 65.18-15.06 5.38-1.69 10.82-3.45 15.69-6.27z" fill="#2e0e04"/><path d="m96.16 351.53c0-.13 0-.25 0-.38q-1.75-16.15-3.43-32.22l-.48-5.31 1.84-.17a621.14 621.14 0 0 0 87.39-14.62l2.45-.59.18.75c6 2.34 9.19 9.55 8.17 15.92a19 19 0 0 1 -2.41 6.58 27.07 27.07 0 0 1 -8.46 8.78c-.67.45-1.35.88-2 1.28-4.87 2.82-10.31 4.58-15.69 6.27-21.31 6.7-42.95 12.85-65.18 15.06l-1.72-.4a9.22 9.22 0 0 0 -.43 1.62l-.48-.09a19.12 19.12 0 0 0 .25-2.48z" fill="#d51359"/><path d="m189.53 292.14c-2 2.43-3.74 5.13-8.05 6.69a621.14 621.14 0 0 1 -87.39 14.62l-1.84.17c-7.15.62-14.52.87-21.13-1.84a28.77 28.77 0 0 1 -8.52-5.5 42.38 42.38 0 0 1 -4.83-5.28 58.82 58.82 0 0 1 -3.47-5c-15.81-25.43-12.3-63.24 6.21-86.8l.75-.66 4.23 4.75a19.29 19.29 0 0 0 4.51 4.07c2.61 1.49 5.74 1.67 8.75 1.81l12 .55-.12 2.53c-.55 5.77 1.76 12.88 7.46 13.93a7.51 7.51 0 0 0 7.67-3.54c1.5-2.6.35-8.75-1.6-11l.06-1.27 5.35.24c4.5.21 9.17.39 13.33-1.33s7.21-5 10.43-8a98.74 98.74 0 0 1 19.94-14.5c7.66-4.21 16-7.5 22.41-13.45 1-.36 2-.7 3-1-9 9.24-10.43 25.08-3 35.68 2.45 3.49 3.32 6.58 4.71 10.94a295.59 295.59 0 0 1 11.48 40.28c1.66 7.77 2.7 16.77-2.34 22.91zm-98.31-24.29c5.25-1 8.24-7.54 6.29-12.51-5.49-1.55-11.43-2.55-14.2 2.44-2.59 4.66 2.69 11.02 7.91 10.07zm3.88 29c2.88-3.2.77-9.29-3.19-10.11-2.42-.91-7.85 0-9 1.68a6.36 6.36 0 0 0 .09 6.62c2.37 4.16 8.92 5.39 12.1 1.85z" fill="#d51359"/><path d="m154.86 149.25c1.11 0 2.23-.1 3.35-.16 7.33-.13 15.09 1.2 20.18 5.52a15.41 15.41 0 0 1 4 5.1c3.77 7.88-.26 17.61-6.66 23.56s-14.75 9.24-22.41 13.45a98.74 98.74 0 0 0 -19.94 14.5c-3.22 3-6.35 6.34-10.43 8s-8.83 1.54-13.33 1.33l-5.35-.24-13.47-.62-12-.55c-3-.14-6.14-.32-8.75-1.81a19.29 19.29 0 0 1 -4.49-4.07l-4.23-4.75-7.64-8.51-21-23.64c-4.95-5.55-10.23-12.94-7.24-19.75 2.14-4.89 7.43-7.35 13-7.84a24.36 24.36 0 0 1 8.11.66c10.59 2.76 10.33 5.21 33.06 4.84v-.34a26.82 26.82 0 0 0 3.79.34 32.16 32.16 0 0 0 13-2.54c19.59-2.87 38.75-1.61 58.45-2.48z" fill="#e9f5f7"/><path d="m127.79 116.45a2.37 2.37 0 0 1 0 3.36 2.06 2.06 0 0 1 -3.15-.68 1.77 1.77 0 0 1 -.36-2.78 2.78 2.78 0 0 1 3.51.1z" fill="#fbede7"/><path d="m104.16 221.61c2 2.28 3.1 8.43 1.6 11a7.51 7.51 0 0 1 -7.67 3.54c-5.7-1.05-8-8.16-7.46-13.93l.12-2.53 13.47.62z" fill="#065c3f"/><path d="m97.51 255.34c1.95 5-1 11.56-6.29 12.51s-10.5-5.41-7.91-10.07c2.77-4.99 8.69-3.99 14.2-2.44z" fill="#065c3f"/><path d="m92.73 318.93q1.69 16.11 3.39 32.22l-3.44.36a42.28 42.28 0 0 0 -8.48-3.42 92 92 0 0 1 -14-6.88 25.21 25.21 0 0 1 -10.82-13.21c-2.2-6.64.16-13.83 2.5-20.42l.72-1.25a28.77 28.77 0 0 0 8.52 5.5c6.61 2.71 14 2.46 21.13 1.84z" fill="#d51359"/><path d="m91.91 286.78c4 .82 6.07 6.91 3.19 10.11-3.18 3.54-9.73 2.31-12.1-1.81a6.36 6.36 0 0 1 -.09-6.62c1.15-1.69 6.58-2.59 9-1.68z" fill="#065c3f"/><path d="m79.63 154v.34c-22.73.37-22.47-2.08-33.06-4.84a24.36 24.36 0 0 0 -8.11-.66l-.07-.71q-4.89-20.59-9.79-41.17l.13-1.47c15 1.31 30 1.79 44.95 1.67v.55c-4.21 7-8.41 14.3-9.52 22.4s1.61 17.25 8.61 21.48a19 19 0 0 0 6.86 2.41zm-29.88-31.25c1.47-.37 2-2.68.78-3.49-.4-.59-2.76-1.39-3.3-.92a2.19 2.19 0 0 0 -.64 2 2.79 2.79 0 0 0 3.16 2.41z" fill="#fbede7"/><path d="m53.69 200 7.57 8.51-.75.66c-18.51 23.59-22.02 61.4-6.21 86.83a58.82 58.82 0 0 0 3.47 5l-.6.48c-14.08-3.48-23.17-18.09-24.77-32.48s2.62-28.78 6.81-42.68a69.73 69.73 0 0 1 13.67-25.54z" fill="#d51359"/><path d="m50.53 119.26c1.27.81.69 3.12-.78 3.49a2.79 2.79 0 0 1 -3.16-2.45 2.19 2.19 0 0 1 .64-2c.54-.43 2.9.37 3.3.96z" fill="#fbede7"/><g fill="none" stroke="#231815" stroke-miterlimit="10" stroke-width="6"><path d="m22.27 79.27c51.13-10.34 104.33-16.2 155.25-4.88 1.22.27 2.46.56 3.67.88a25 25 0 0 1 9.61 4.52c3.53 2.94 5.72 8 4.22 12.24-.07.22-.16.43-.25.64-1.71 3.81-5.66 5.58-9.91 6.49a48.32 48.32 0 0 1 -5.35.79c-35.2 3.47-70.57 6.93-105.88 7.17-15 .12-30-.36-44.95-1.67-1.22-.09-2.44-.2-3.66-.32-6.05-.58-12.44-1.44-17.17-5.25s-6.77-11.6-2.58-16a10.93 10.93 0 0 1 6.18-2.88c3.2-.61 7-.72 10.82-1.71"/><path d="m11.45 81c-1.77-16.65 8.69-32.21 20.91-43.61a129.85 129.85 0 0 1 100.49-33.74c16.44 1.7 33 6.89 45.42 17.82s19.83 28.35 15.94 44.42"/><path d="m181.19 75.27a18.56 18.56 0 0 1 13.07-9 19.93 19.93 0 0 1 7.18.05c8 1.5 14.46 10 12.61 18s-12.52 12.47-19.05 7.68l-.17-.12"/><path d="m96.46 151.76a33.07 33.07 0 0 0 15.48-13.15"/><path d="m73.63 107.67c-4.21 7-8.41 14.3-9.52 22.4s1.61 17.25 8.61 21.48a19 19 0 0 0 6.91 2.45 26.82 26.82 0 0 0 3.79.34 32.16 32.16 0 0 0 13-2.54"/><path d="m158.21 149.09c-1.12.06-2.24.12-3.35.16-19.7.87-38.82-.39-58.4 2.51"/><path d="m154.22 149.3.64-.05c1.1-.09 2.22-.14 3.35-.16 7.33-.13 15.09 1.2 20.18 5.52a15.41 15.41 0 0 1 4 5.1c3.77 7.88-.26 17.61-6.66 23.56s-14.75 9.24-22.41 13.45a98.74 98.74 0 0 0 -19.94 14.5c-3.22 3-6.35 6.34-10.43 8s-8.83 1.54-13.33 1.33l-5.35-.24-13.47-.62-12-.55c-3-.14-6.14-.32-8.75-1.81a19.29 19.29 0 0 1 -4.49-4.07l-4.23-4.75-7.64-8.51-21-23.64c-4.95-5.55-10.23-12.94-7.24-19.75 2.14-4.89 7.43-7.35 13-7.84a24.36 24.36 0 0 1 8.11.66c10.59 2.76 10.33 5.21 33.06 4.84"/><path d="m28.55 106.92q4.89 20.58 9.79 41.17"/><path d="m184.86 99.16c-1.48 7.75.57 15.87 7.23 20.09 1.54 1 3.33 1.52 4.8 2.58 3.81 2.75 4.47 8.5 2.45 12.73s-6.11 7.13-10.37 9.08c-4.07 1.86-8.54 6.41-9.94 10.66"/><path d="m90.63 222.25c-.55 5.77 1.76 12.88 7.46 13.93a7.51 7.51 0 0 0 7.67-3.54c1.5-2.6.35-8.75-1.6-11"/><path d="m97.51 255.34c1.95 5-1 11.56-6.29 12.51s-10.5-5.41-7.91-10.07c2.77-4.99 8.69-3.99 14.2-2.44z"/><path d="m91.91 286.78a2.32 2.32 0 0 1 .82.49"/><path d="m91.91 286.78c4 .82 6.07 6.91 3.19 10.11-3.18 3.54-9.73 2.31-12.1-1.81a6.36 6.36 0 0 1 -.09-6.62c1.15-1.69 6.58-2.59 9-1.68z"/><path d="m90.65 286.69a4.36 4.36 0 0 1 1.26.09"/><path d="m60.51 209.2c-18.51 23.56-22.02 61.37-6.21 86.8a58.82 58.82 0 0 0 3.47 5 42.38 42.38 0 0 0 4.83 5.26 28.77 28.77 0 0 0 8.52 5.5c6.61 2.71 14 2.46 21.13 1.84l1.84-.17a621.14 621.14 0 0 0 87.39-14.62l2.45-.59h.16"/><path d="m179.91 227.5.51 1.39a295.59 295.59 0 0 1 11.48 40.28c1.63 7.8 2.67 16.79-2.37 23-2 2.43-3.74 5.13-8.05 6.69"/><path d="m179 180.72a33.45 33.45 0 0 1 4.37.37c9 1.31 17.48 6.06 24.2 12.34s12 14.11 16.54 22.23c.68 1.21 1.35 2.43 2 3.65 5.84 11 10.94 22.65 11.94 35s-3.6 28.64-12.92 36.88"/><path d="m92.73 318.93q1.69 16.11 3.39 32.22v.38s0 .27 0 .41"/><path d="m84.16 348.07a72.9 72.9 0 0 0 -20.84-2.38c-6.51.07-13.4.74-18.63 4.63s-7.78 12-3.74 17.09c3.42 4.34 9.72 4.79 15.25 4.88 7.59.13 15.43.21 22.45-2.68 8.93-3.67 15.67-7.37 17.21-15.6a19.12 19.12 0 0 0 .3-2.48c0-.46 0-.94 0-1.43"/><path d="m84.2 348.09c2.75 1.13 5.53 2.2 8.48 3.42a42.28 42.28 0 0 0 -8.48-3.42"/><path d="m61.88 307.53c-2.34 6.59-4.7 13.78-2.5 20.42a25.21 25.21 0 0 0 10.83 13.24 92 92 0 0 0 14 6.88"/><path d="m98.49 352.88c22.23-2.21 43.87-8.36 65.18-15.06 5.38-1.69 10.82-3.45 15.69-6.27.7-.4 1.38-.83 2-1.28a27.07 27.07 0 0 0 8.46-8.78 19 19 0 0 0 2.41-6.58c1-6.37-2.16-13.58-8.17-15.92"/><path d="m178.67 332.86.37.08a19.88 19.88 0 0 1 14.72 15.46 19.63 19.63 0 0 1 -2.57 13.4 19 19 0 0 1 -6.17 6.42c-6.31 4-14.25 4-21.71 3.88l-40.39-.62c-6.35-.1-13-.27-18.58-3.26-5.1-2.73-9-8.59-8-14.12a9.22 9.22 0 0 1 .43-1.62"/><path d="m52.88 200.75a69.73 69.73 0 0 0 -13.67 25.54c-4.21 13.9-8.43 28.26-6.81 42.71s10.69 29 24.77 32.53"/><path d="m188.11 292c.48.06.95.1 1.42.12 6.42.34 12.73-2.1 19.12-3.22 5.52-1 11.95-.52 16.17 2.77a11.38 11.38 0 0 1 2.64 2.92c3.1 4.95 1.61 11.81-2.23 16.22s-9.51 6.8-15.16 8.32c-7.64 2.05-12.2 3-20.1 2.4"/><path d="m50.53 119.26c1.27.81.69 3.12-.78 3.49a2.79 2.79 0 0 1 -3.16-2.45 2.19 2.19 0 0 1 .64-2c.54-.43 2.9.37 3.3.96z"/><path d="m124.67 119.13a1.77 1.77 0 0 1 -.36-2.78 2.78 2.78 0 0 1 3.48.1 2.37 2.37 0 0 1 0 3.36 2.06 2.06 0 0 1 -3.12-.68z"/><path d="m175.68 183.27c1-.36 2-.7 3-1 1.58-.47 3.15-.87 4.7-1.18 9.08-1.86 17.8-1.07 27.29 1.93 12.15 3.84 24.41 19.59 31.74 30"/><path d="m224.93 215.21 13.23-2.42c1.43-.27 3-.51 4.27.24s1.8 2.23 2.2 3.62c1.55 5.39 2.21 11.26 5.59 15.74 3.53 4.67 9.39 6.94 13.67 10.94 8.3 7.76 9.43 20.62 16.26 29.69 5.05 6.71 13.2 11.35 15.81 19.33 3.06 9.39-2.77 19.13-8.34 27.28l-15.55 22.76c-3 4.35-6 8.78-10.21 12-8.25 6.27-19.39 6.72-29.74 6.91l-40.57.75"/><path d="m179.42 181.56c-.25.23-.49.47-.72.71-9 9.24-10.43 25.08-3 35.68 2.45 3.49 3.32 6.58 4.71 10.94"/></g></svg>