<svg xmlns="http://www.w3.org/2000/svg" viewBox="0 0 204.32 233.03">
  <defs>
    <style>
      .cls-1 {
        fill: #e9f5f7;
      }

      .cls-2 {
        fill: #065c3f;
      }

      .cls-3 {
        fill: #d51359;
      }

      .cls-4 {
        fill: none;
        stroke: #231815;
        stroke-miterlimit: 10;
        stroke-width: 6px;
      }
    </style>
  </defs>
  <g id="レイヤー_2" data-name="レイヤー 2">
    <g id="レイヤー_1-2" data-name="レイヤー 1">
      <g>
        <g>
          <path class="cls-1" d="M102.64,14c13.2-1.44,26.52-4.74,39.62-3.53l-.11,1.21c-3.18,6-9.36,10.07-15.88,12.12S112.82,26.19,106,26.48l-22.53.95c-8.11.34-16.83.53-23.58-4S50.42,8.11,56.52,3c.53,0,1.07,0,1.61.1H60.6C70.8,14.16,87.7,15.67,102.64,14Z"/>
          <path class="cls-2" d="M90.93,42c5.14,1.08,7.7,8.31,4.39,12.38s-10.91,3-13-1.78c-1.89-4.32,1.49-9.84,6-10.66Z"/>
          <path class="cls-2" d="M79.21,77.39c3.4-3.61,8.93-3.4,14-3.6C97.9,77,98.42,84.71,94.52,89c-3.42,3.72-9.65,4.66-13.75,1.71S75.74,81.06,79.21,77.39Z"/>
          <path class="cls-3" d="M94,220.9A30.21,30.21,0,0,0,97.12,225l-.56.5a48.14,48.14,0,0,1-47.91-13.63c-15.59-17.22-16.35-43-14.43-66.1l.5-.17c6.81,19.63,21.82,36.57,41.48,43.55a71.71,71.71,0,0,0,7.16,2.13A67.18,67.18,0,0,0,94,220.9Z"/>
          <path class="cls-2" d="M85.22,107.62c3.83,2.4,7.19,8.22,7,12.74a8.5,8.5,0,0,1-11.36-11.83C81.8,106.94,84.52,105.9,85.22,107.62Z"/>
          <path class="cls-3" d="M157.38,119.17c0-1.59-.07-3.19-.11-4.78C157.27,116,157.3,117.55,157.38,119.17ZM82.31,52.62c2.1,4.81,9.7,5.85,13,1.78S96.07,43.1,90.93,42L88.29,42C83.8,42.78,80.42,48.3,82.31,52.62Zm1.16-25.19L106,26.48c6.82-.29,13.74-.6,20.27-2.64s12.7-6.07,15.88-12.12l.11-1.21a51.36,51.36,0,0,1,5.19.72C167,15,182.83,30.61,191.14,48.74s10.14,38.53,10.18,58.47c0,10-.5,20.38-5.53,29s-16,14.51-25.17,10.72c-10-4.14-12.7-16.28-13.23-27.58q.47,19.44.92,38.86c.15,6.34.25,12.94-2.41,18.69a21.76,21.76,0,0,1-1.23,2.29c-6.75,10.92-22,13.89-35.25,14.55-12.06.6-24.38.42-36.06-2.43a71.71,71.71,0,0,1-7.16-2.13c-19.66-7-34.67-23.92-41.48-43.55a71.74,71.74,0,0,1-4-23.17L34,101.87a62.76,62.76,0,0,0-3.3,20.55q-1.38,8.67-2.78,17.33C14,141.3,5.69,124.42,4,110.5A134.55,134.55,0,0,1,18.11,32.44C26,17.34,39.9,2.4,56.52,3c-6.1,5.09-3.31,16,3.37,20.44S75.36,27.77,83.47,27.43Zm8.73,92.93c.21-4.52-3.15-10.34-7-12.74-.7-1.72-3.42-.68-4.38.91A8.5,8.5,0,0,0,92.2,120.36Zm1-46.57c-5.07.2-10.6,0-14,3.6s-2.54,10.34,1.56,13.29,10.33,2,13.75-1.71C98.42,84.71,97.9,77,93.21,73.79Z"/>
          <path class="cls-3" d="M155.85,179.36a169.51,169.51,0,0,1-.37,27.13c-.59,6.34-1.83,13.21-6.6,17.42-3.94,3.48-9.47,4.4-14.69,5A198.42,198.42,0,0,1,111.46,230c-3.44,0-7-.17-10.08-1.71A14.8,14.8,0,0,1,97.12,225,30.21,30.21,0,0,1,94,220.9a67.18,67.18,0,0,1-10.62-29.63c11.68,2.85,24,3,36.06,2.43,13.21-.66,28.5-3.63,35.25-14.55Z"/>
        </g>
        <g>
          <path class="cls-4" d="M30.69,122.42q-1.38,8.67-2.78,17.33C14,141.3,5.69,124.42,4,110.5A134.55,134.55,0,0,1,18.11,32.44C26,17.34,39.9,2.4,56.52,3c.53,0,1.07,0,1.61.1l.87.1"/>
          <path class="cls-4" d="M30.69,122.42A62.76,62.76,0,0,1,34,101.87Z"/>
          <path class="cls-4" d="M157.39,119.31q.47,19.44.92,38.86c.15,6.34.25,12.94-2.41,18.69a21.76,21.76,0,0,1-1.23,2.29c-6.75,10.92-22,13.89-35.25,14.55-12.06.6-24.38.42-36.06-2.43a71.71,71.71,0,0,1-7.16-2.13c-19.66-7-34.67-23.92-41.48-43.55a71.74,71.74,0,0,1-4-23.17"/>
          <path class="cls-4" d="M157.38,119.17c-.08-1.62-.11-3.22-.11-4.78C157.31,116,157.35,117.58,157.38,119.17Z"/>
          <path class="cls-4" d="M157.38,119.17a.66.66,0,0,0,0,.14"/>
          <path class="cls-4" d="M60.6,3.11c10.2,11.05,27.1,12.56,42,10.93,13.2-1.44,26.52-4.74,39.62-3.53a51.36,51.36,0,0,1,5.19.72C167,15,182.83,30.61,191.14,48.74s10.14,38.53,10.18,58.47c0,10-.5,20.38-5.53,29s-16,14.51-25.17,10.72c-10-4.14-12.7-16.28-13.23-27.58"/>
          <path class="cls-4" d="M89.85,41.87a6.75,6.75,0,0,0-1.56.09c-4.49.82-7.87,6.34-6,10.66,2.1,4.81,9.7,5.85,13,1.78S96.07,43.1,90.93,42"/>
          <path class="cls-4" d="M93.21,73.79l1.49-.08"/>
          <path class="cls-4" d="M93.21,73.79C97.9,77,98.42,84.71,94.52,89c-3.42,3.72-9.65,4.66-13.75,1.71s-5-9.62-1.56-13.29S88.14,74,93.21,73.79Z"/>
          <path class="cls-4" d="M92.48,73.34a6,6,0,0,1,.73.45"/>
          <path class="cls-4" d="M85.22,107.62c3.83,2.4,7.19,8.22,7,12.74a8.5,8.5,0,0,1-11.36-11.83C81.8,106.94,84.52,105.9,85.22,107.62Z"/>
          <path class="cls-4" d="M155.85,179.36a169.51,169.51,0,0,1-.37,27.13c-.59,6.34-1.83,13.21-6.6,17.42-3.94,3.48-9.47,4.4-14.69,5A198.42,198.42,0,0,1,111.46,230c-3.44,0-7-.17-10.08-1.71A14.8,14.8,0,0,1,97.12,225,30.21,30.21,0,0,1,94,220.9a67.18,67.18,0,0,1-10.62-29.63c-.11-.94-.19-1.88-.25-2.82"/>
          <path class="cls-4" d="M96.56,225.49a48.14,48.14,0,0,1-47.91-13.63c-15.59-17.22-16.35-43-14.43-66.1"/>
          <path class="cls-4" d="M142.15,11.72c-3.18,6-9.36,10.07-15.88,12.12S112.82,26.19,106,26.48l-22.53.95c-8.11.34-16.83.53-23.58-4S50.42,8.11,56.52,3l.21-.18"/>
        </g>
      </g>
    </g>
  </g>
</svg>
